664e9d24 17c 90 38   Note On Ab2 43
664e9e4e 17c 90 38   Note On(0-Off) Ab2
664e9ec8 17c 90 38   Note On Ab2 68
664e9faa 17c 90 38   Note On(0-Off) Ab2
664e9ff6 17c 90 38   Note On Ab2 26
664ea05d 17c 90 38   Note On(0-Off) Ab2
664ea0a0 17c 90 38   Note On Ab2 61
664ea111 17c 90 38   Note On(0-Off) Ab2
664ea15e 17c 90 38   Note On Ab2 102
664ea1c7 17c 90 38   Note On(0-Off) Ab2

664ea203 17c 90 38   Note On Ab2 91
664ea27c 17c 90 38   Note On(0-Off) Ab2
664ea2a5 17c 90 38   Note On Ab2 79
664ea352 17c 90 38   Note On(0-Off) Ab2
664ec19a 17c 90 3f   Note On Eb3 98

664ec19b 17c 90 3d   Note On C#3 103
664ec323 17c 90 3f   Note On(0-Off) Eb3
664ecaa6 17c 90 3d   Note On(0-Off) C#3
664ecc14 17c 90 3d   Note On C#3 107

664ecc2c 17c 90 3d   Note On(0-Off) C#3
664ecf05 17c 90 38   Note On Ab2 112
664ed002 17c 90 3a   Note On Bb2 96
664ed1fa 17c 90 3d   Note On C#3 94
664ed2a5 17c 90 3a   Note On(0-Off) Bb2

664ed2b0 17c 90 38   Note On(0-Off) Ab2
664ed2e3 17c 90 3d   Note On(0-Off) C#3

664ed339 17c 90 38   Note On Ab2 98

664ed33a 17c 90 3f   Note On Eb3 105
664ed352 17c 90 28   Note On E1 100
664ed635 17c 90 38   Note On(0-Off) Ab2

664ed659 17c 90 3f   Note On(0-Off) Eb3
664ed72b 17c 90 28   Note On(0-Off) E1
664ed913 17c 90 38   Note On Ab2 69
664eda1b 17c 90 38   Note On(0-Off) Ab2
664edb42 17c 90 38   Note On Ab2 61

664edb46 17c 90 3f   Note On Eb3 82

664edb4a 17c 90 2a   Note On F#1 94

664edb4f 17c 90 44   Note On Ab3 60
664edf27 17c 90 44   Note On(0-Off) Ab3
664edf5e 17c 90 38   Note On(0-Off) Ab2

664edf9b 17c 90 3f   Note On(0-Off) Eb3
664edff5 17c 90 3f   Note On Eb3 68
664ee007 17c 90 42   Note On F#3 94

664ee00d 17c 90 38   Note On Ab2 100
664ee2b1 17c 90 3f   Note On(0-Off) Eb3

664ee2b1 17c 90 38   Note On(0-Off) Ab2
664ee2e3 17c 90 42   Note On(0-Off) F#3
664ee4bc 17c 90 2a   Note On(0-Off) F#1

664ee4c4 17c 90 3d   Note On C#3 52

664ee4c5 17c 90 3a   Note On Bb2 71

664ee4c6 17c 90 27   Note On Eb1 100

664ee4ca 17c 90 42   Note On F#3 77

664ee4cd 17c 90 36   Note On F#2 66
664eeab7 17c 90 3a   Note On(0-Off) Bb2
664eeac7 17c 90 42   Note On(0-Off) F#3

664eeacf 17c 90 3d   Note On(0-Off) C#3

664eead4 17c 90 36   Note On(0-Off) F#2
664eeb78 17c 90 3a   Note On Bb2 100

664eeb7b 17c 90 3d   Note On C#3 100

664eeb84 17c 90 36   Note On F#2 89

664eeb85 17c 90 42   Note On F#3 89
664eec1e 17c 90 3a   Note On(0-Off) Bb2

664eec25 17c 90 3d   Note On(0-Off) C#3

664eec37 17c 90 36   Note On(0-Off) F#2

664eec68 17c 90 3d   Note On C#3 61
664eec6f 17c 90 3a   Note On Bb2 61

664eec73 17c 90 36   Note On F#2 27
664eecf8 17c 90 3a   Note On(0-Off) Bb2

664eecff 17c 90 3d   Note On(0-Off) C#3

664eed00 17c 90 42   Note On(0-Off) F#3

664eed02 17c 90 36   Note On(0-Off) F#2
664eed63 17c 90 3d   Note On C#3 66

664eed68 17c 90 3a   Note On Bb2 89

664eed6b 17c 90 36   Note On F#2 58

664eed6d 17c 90 42   Note On F#3 40
664eedf9 17c 90 3a   Note On(0-Off) Bb2

664eee00 17c 90 3d   Note On(0-Off) C#3

664eee02 17c 90 36   Note On(0-Off) F#2
664eee10 17c 90 42   Note On(0-Off) F#3
664eee7f 17c 90 3d   Note On C#3 89

664eee81 17c 90 3a   Note On Bb2 98

664eee86 17c 90 42   Note On F#3 54

664eee87 17c 90 36   Note On F#2 61
664eef2b 17c 90 3a   Note On(0-Off) Bb2

664eef34 17c 90 3d   Note On(0-Off) C#3

664eef3a 17c 90 36   Note On(0-Off) F#2

664eef3c 17c 90 42   Note On(0-Off) F#3
664eef7c 17c 90 3d   Note On C#3 64

664eef7e 17c 90 36   Note On F#2 51

664eef7f 17c 90 3a   Note On Bb2 73

664eef8d 17c 90 42   Note On F#3 29
664eefe8 17c 90 3a   Note On(0-Off) Bb2

664eefea 17c 90 42   Note On(0-Off) F#3

664eeff1 17c 90 36   Note On(0-Off) F#2

664eeff3 17c 90 3d   Note On(0-Off) C#3
664ef080 17c 90 36   Note On F#2 103

664ef081 17c 90 3a   Note On Bb2 114

664ef082 17c 90 3d   Note On C#3 110

664ef084 17c 90 42   Note On F#3 94
664ef08d 17c 90 2c   Note On Ab1 100

664ef0c3 17c 90 27   Note On(0-Off) Eb1
664ef2c1 17c 90 3a   Note On(0-Off) Bb2

664ef2d4 17c 90 36   Note On(0-Off) F#2
664ef308 17c 90 3d   Note On(0-Off) C#3

664ef31b 17c 90 42   Note On(0-Off) F#3
664ef498 17c 90 38   Note On Ab2 51

664ef49a 17c 90 3f   Note On Eb3 35

664ef4ab 17c 90 44   Note On Ab3 61
664efa03 17c 90 44   Note On(0-Off) Ab3

664efa12 17c 90 3f   Note On(0-Off) Eb3

664efa13 17c 90 38   Note On(0-Off) Ab2
664efab8 17c 90 3f   Note On Eb3 94

664efac4 17c 90 38   Note On Ab2 82

664efac5 17c 90 44   Note On Ab3 68
664efc33 17c 90 44   Note On(0-Off) Ab3
664efc7d 17c 90 38   Note On(0-Off) Ab2

664efc93 17c 90 3f   Note On(0-Off) Eb3
664efcfd 17c 90 3f   Note On Eb3 66

664efd09 17c 90 42   Note On F#3 100
664efd19 17c 90 38   Note On Ab2 89
664efe17 17c 90 42   Note On(0-Off) F#3

664efe26 17c 90 38   Note On(0-Off) Ab2
664efe76 17c 90 3f   Note On(0-Off) Eb3
664efec2 17c 90 40   Note On E3 100

664efec9 17c 90 38   Note On Ab2 82
664f000d 17c 90 38   Note On(0-Off) Ab2

664f0012 17c 90 40   Note On(0-Off) E3
664f009f 17c 90 2c   Note On(0-Off) Ab1
664f00b6 17c 90 3f   Note On Eb3 86

664f00bb 17c 90 38   Note On Ab2 96

664f00cc 17c 90 25   Note On C#1 63
664f03e4 17c 90 3f   Note On(0-Off) Eb3

664f0411 17c 90 38   Note On(0-Off) Ab2
664f0529 17c 90 34   Note On E2 91

664f052a 17c 90 3d   Note On C#3 94

664f052b 17c 90 38   Note On Ab2 98
664f0937 17c 90 3d   Note On(0-Off) C#3
664f0a01 17c 90 38   Note On(0-Off) Ab2
664f0a64 17c 90 38   Note On Ab2 34
664f0abe 17c 90 38   Note On(0-Off) Ab2

664f0ada 17c 90 34   Note On(0-Off) E2
664f0b39 17c 90 34   Note On E2 69

664f0b3b 17c 90 38   Note On Ab2 100

664f0b3e 17c 90 40   Note On E3 96
664f0cfa 17c 90 40   Note On(0-Off) E3
664f0d51 17c 90 38   Note On(0-Off) Ab2

664f0d60 17c 90 34   Note On(0-Off) E2
664f0db8 17c 90 38   Note On Ab2 94

664f0dc6 17c 90 3f   Note On Eb3 73

664f0dc7 17c 90 34   Note On E2 89
664f0eb3 17c 90 34   Note On(0-Off) E2
664f0ecb 17c 90 3f   Note On(0-Off) Eb3

664f0ed6 17c 90 38   Note On(0-Off) Ab2
664f0f5a 17c 90 38   Note On Ab2 100

664f0f62 17c 90 34   Note On E2 96

664f0f65 17c 90 3d   Note On C#3 96
664f1109 17c 90 3d   Note On(0-Off) C#3

664f1128 17c 90 34   Note On(0-Off) E2

664f1131 17c 90 38   Note On(0-Off) Ab2
664f119f 17c 90 34   Note On E2 100

664f11a0 17c 90 38   Note On Ab2 102

664f11ab 17c 90 2a   Note On F#1 82
664f11b7 17c 90 25   Note On(0-Off) C#1
664f15a2 17c 90 34   Note On(0-Off) E2

664f15b5 17c 90 38   Note On(0-Off) Ab2
664f16ac 17c 90 3a   Note On Bb2 100

664f16ad 17c 90 3d   Note On C#3 102

664f16ae 17c 90 36   Note On F#2 103
664f1b1c 17c 90 36   Note On(0-Off) F#2

664f1b5d 17c 90 3a   Note On(0-Off) Bb2
664f1b84 17c 90 3d   Note On(0-Off) C#3
664f1c45 17c 90 36   Note On F#2 103
664f1f03 17c 90 42   Note On F#3 96
664f202a 17c 90 36   Note On(0-Off) F#2
664f2181 17c 90 40   Note On E3 91

664f219a 17c 90 42   Note On(0-Off) F#3
664f22f5 17c 90 3f   Note On Eb3 35
664f2359 17c 90 40   Note On(0-Off) E3
664f2543 17c 90 3f   Note On(0-Off) Eb3

664f2551 17c 90 3d   Note On C#3 107
664f2602 17c 90 23   Note On B0 54

664f2634 17c 90 2a   Note On(0-Off) F#1
664f294f 17c 90 3f   Note On Eb3 96
664f2975 17c 90 3d   Note On(0-Off) C#3
664f3289 17c 90 3f   Note On(0-Off) Eb3
664f352f 17c 90 47   Note On B3 77
664f3669 17c 90 46   Note On Bb3 98
664f36bd 17c 90 47   Note On(0-Off) B3
664f378f 17c 90 44   Note On Ab3 89
664f3817 17c 90 46   Note On(0-Off) Bb3
664f38ca 17c 90 42   Note On F#3 56
664f3909 17c 90 44   Note On(0-Off) Ab3
664f3a9b 17c 90 40   Note On E3 95
664f3ab3 17c 90 2c   Note On Ab1 94

664f3ac7 17c 90 42   Note On(0-Off) F#3

664f3ac9 17c 90 23   Note On(0-Off) B0
664f431a 17c 90 40   Note On(0-Off) E3
664f4392 17c 90 2c   Note On(0-Off) Ab1
664f6842 17c 90 40   Note On E3 94
664f6938 17c 90 40   Note On(0-Off) E3
664f6a3e 17c 90 40   Note On E3 96
664f7645 17c 90 40   Note On(0-Off) E3
664f8d8e 17c 90 3e   Note On D3 19

664f8dda 17c 90 3e   Note On(0-Off) D3
664f8e78 17c 90 3e   Note On D3 107

664f8e7d 17c 90 3f   Note On Eb3 114
664f8eeb 17c 90 3f   Note On(0-Off) Eb3
664f90fc 17c 90 3e   Note On(0-Off) D3
664f9160 17c 90 3e   Note On D3 102
664f924f 17c 90 3e   Note On(0-Off) D3
664fa267 17c 90 3f   Note On Eb3 98
664fa5f2 17c 90 3f   Note On(0-Off) Eb3
664fa66a 17c 90 3f   Note On Eb3 98
664fa752 17c 90 3f   Note On(0-Off) Eb3
664fb612 17c 90 40   Note On E3 94
664fb933 17c 90 40   Note On(0-Off) E3
664fb9bb 17c 90 40   Note On E3 82
664fc09a 17c 90 40   Note On(0-Off) E3
664fccd7 17c 90 24   Note On C1 116

664fccea 17c 90 37   Note On G2 82

664fccec 17c 90 40   Note On E3 103
664fcf30 17c 90 30   Note On C2 77
664fd029 17c 90 40   Note On(0-Off) E3

664fd02d 17c 90 37   Note On(0-Off) G2
664fd13d 17c 90 37   Note On G2 114
664fd20f 17c 90 24   Note On(0-Off) C1

664fd218 17c 90 30   Note On(0-Off) C2
664fd34a 17c 90 30   Note On C2 98
664fd3bd 17c 90 37   Note On(0-Off) G2
664fd438 17c 90 37   Note On G2 64
664fd4d6 17c 90 30   Note On(0-Off) C2

664fd4e7 17c 90 37   Note On(0-Off) G2
664fd567 17c 90 37   Note On G2 96

664fd56a 17c 90 3b   Note On B2 109

664fd56d 17c 90 3e   Note On D3 112

664fd575 17c 90 43   Note On G3 96

664fd576 17c 90 28   Note On E1 107
664fd8bc 17c 90 37   Note On(0-Off) G2

664fd8d0 17c 90 43   Note On(0-Off) G3

664fd8d5 17c 90 3e   Note On(0-Off) D3

664fd8dc 17c 90 3b   Note On(0-Off) B2
664fd982 17c 90 3e   Note On D3 109

664fd984 17c 90 3b   Note On B2 116

664fd986 17c 90 43   Note On G3 94

664fd987 17c 90 37   Note On G2 107
664fda8c 17c 90 3b   Note On(0-Off) B2
664fda95 17c 90 37   Note On(0-Off) G2

664fda98 17c 90 28   Note On(0-Off) E1

664fdac3 17c 90 3e   Note On(0-Off) D3

664fdacc 17c 90 43   Note On(0-Off) G3
664fdb7b 17c 90 3e   Note On D3 105

664fdb81 17c 90 43   Note On G3 82

664fdb83 17c 90 3b   Note On B2 86
664fdc4e 17c 90 3e   Note On(0-Off) D3

664fdc63 17c 90 43   Note On(0-Off) G3

664fdc65 17c 90 3b   Note On(0-Off) B2
664fdd7f 17c 90 39   Note On A2 107

664fdd89 17c 90 41   Note On F3 109

664fdd92 17c 90 29   Note On F1 96
664fe003 17c 90 39   Note On(0-Off) A2

664fe015 17c 90 41   Note On(0-Off) F3
664fe068 17c 90 39   Note On A2 105

664fe06d 17c 90 40   Note On E3 112
664fe0df 17c 90 29   Note On(0-Off) F1
664fe151 17c 90 29   Note On F1 94
664fe233 17c 90 39   Note On(0-Off) A2
664fe26e 17c 90 40   Note On(0-Off) E3

664fe28e 17c 90 39   Note On A2 110
664fe2f7 17c 90 29   Note On(0-Off) F1
664fe363 17c 90 29   Note On F1 103
664fe3b5 17c 90 39   Note On(0-Off) A2
664fe4b3 17c 90 29   Note On(0-Off) F1
664fe556 17c 90 37   Note On G2 102

664fe558 17c 90 3b   Note On B2 107

664fe559 17c 90 3e   Note On D3 103

664fe563 17c 90 2b   Note On G1 103
664fe79a 17c 90 37   Note On(0-Off) G2

664fe7e1 17c 90 3e   Note On(0-Off) D3
664fe7f4 17c 90 3b   Note On(0-Off) B2
664fe853 17c 90 37   Note On G2 105
664fe943 17c 90 43   Note On G3 103
664fe9cb 17c 90 37   Note On(0-Off) G2

664fe9df 17c 90 2b   Note On(0-Off) G1
664fea85 17c 90 41   Note On F3 63

664feabd 17c 90 43   Note On(0-Off) G3
664feb7c 17c 90 40   Note On E3 66
664febe4 17c 90 41   Note On(0-Off) F3
664fec9c 17c 90 3e   Note On D3 39

664fecb9 17c 90 40   Note On(0-Off) E3
664fed25 17c 90 3e   Note On(0-Off) D3
664fed5f 17c 90 24   Note On C1 109

664fed6d 17c 90 3e   Note On D3 109
664ff043 17c 90 40   Note On E3 107

664ff05a 17c 90 3e   Note On(0-Off) D3
664ff09b 17c 90 24   Note On(0-Off) C1
664ff11a 17c 90 40   Note On(0-Off) E3
664ff14d 17c 90 30   Note On C2 94
664ff312 17c 90 30   Note On(0-Off) C2
664ff370 17c 90 37   Note On G2 95
664ff474 17c 90 37   Note On(0-Off) G2
664ff572 17c 90 43   Note On G3 91

664ff575 17c 90 37   Note On G2 94

664ff581 17c 90 28   Note On E1 71
664ff7a1 17c 90 43   Note On(0-Off) G3

664ff7c9 17c 90 37   Note On(0-Off) G2

664ff7db 17c 90 28   Note On(0-Off) E1
664ff851 17c 90 37   Note On G2 95

664ff854 17c 90 41   Note On F3 94
664ff941 17c 90 34   Note On E2 103
664ffa1c 17c 90 41   Note On(0-Off) F3

664ffa39 17c 90 37   Note On(0-Off) G2
664ffa78 17c 90 37   Note On G2 86

664ffa7d 17c 90 40   Note On E3 105

664ffac5 17c 90 34   Note On(0-Off) E2
664ffb40 17c 90 34   Note On E2 105
664ffb5a 17c 90 40   Note On(0-Off) E3

664ffb73 17c 90 37   Note On(0-Off) G2
664ffc0e 17c 90 34   Note On(0-Off) E2
664ffd78 17c 90 35   Note On F2 98

664ffd7c 17c 90 39   Note On A2 98

664ffd83 17c 90 29   Note On F1 102
66500053 17c 90 29   Note On(0-Off) F1
665001b8 17c 90 30   Note On C2 89
665001be 17c 90 32   Note On D2 96
66500273 17c 90 39   Note On(0-Off) A2

6650027a 17c 90 35   Note On(0-Off) F2
665002e3 17c 90 35   Note On F2 61
665003cf 17c 90 32   Note On(0-Off) D2
665003db 17c 90 37   Note On G2 94

665003f3 17c 90 30   Note On(0-Off) C2
66500517 17c 90 39   Note On A2 95
6650059e 17c 90 35   Note On(0-Off) F2

665005a1 17c 90 37   Note On(0-Off) G2

665005b2 17c 90 39   Note On(0-Off) A2
665005ef 17c 90 39   Note On A2 98

665005f3 17c 90 2b   Note On G1 100

665005f5 17c 90 35   Note On F2 103
665006ef 17c 90 35   Note On(0-Off) F2

665006f9 17c 90 2b   Note On(0-Off) G1

6650071a 17c 90 39   Note On(0-Off) A2
6650091b 17c 90 35   Note On F2 95

6650091c 17c 90 3e   Note On D3 107

6650091d 17c 90 38   Note On Ab2 100

6650091f 17c 90 3b   Note On B2 107
66500933 17c 90 2c   Note On Ab1 105
66500cf1 17c 90 35   Note On(0-Off) F2
66500d33 17c 90 38   Note On(0-Off) Ab2

66500d39 17c 90 3b   Note On(0-Off) B2

66500d4c 17c 90 3e   Note On(0-Off) D3

66500d86 17c 90 2c   Note On(0-Off) Ab1
66500dc9 17c 90 35   Note On F2 43
66500e53 17c 90 35   Note On(0-Off) F2
66500ec3 17c 90 38   Note On Ab2 110

66500ec4 17c 90 40   Note On E3 110

66500ec6 17c 90 35   Note On F2 105

66500ec7 17c 90 2d   Note On A1 102
6650111e 17c 90 40   Note On(0-Off) E3
66501160 17c 90 38   Note On(0-Off) Ab2

66501164 17c 90 35   Note On(0-Off) F2
665011c4 17c 90 2d   Note On(0-Off) A1

66501206 17c 90 38   Note On Ab2 100

6650120c 17c 90 35   Note On F2 94

6650120d 17c 90 3e   Note On D3 109
66501215 17c 90 2d   Note On A1 102
6650142f 17c 90 35   Note On(0-Off) F2

6650144a 17c 90 3e   Note On(0-Off) D3

6650144c 17c 90 38   Note On(0-Off) Ab2

6650144e 17c 90 2d   Note On(0-Off) A1
665014b9 17c 90 2b   Note On G1 96

665014be 17c 90 38   Note On Ab2 94

665014c3 17c 90 35   Note On F2 96
665015c8 17c 90 38   Note On(0-Off) Ab2
6650162d 17c 90 35   Note On(0-Off) F2

66501643 17c 90 2b   Note On(0-Off) G1
6650176b 17c 90 37   Note On G2 100

6650176c 17c 90 34   Note On E2 98

66501779 17c 90 28   Note On E1 103
66501950 17c 90 34   Note On(0-Off) E2

66501972 17c 90 37   Note On(0-Off) G2
665019e7 17c 90 28   Note On(0-Off) E1
66501b6f 17c 90 34   Note On E2 107
66501c3f 17c 90 37   Note On G2 75
66501d50 17c 90 37   Note On(0-Off) G2
66501e6b 17c 90 34   Note On(0-Off) E2
66501ebc 17c 90 37   Note On G2 100

66501ec6 17c 90 43   Note On G3 103
66501fbc 17c 90 37   Note On(0-Off) G2
66502018 17c 90 37   Note On G2 82

66502022 17c 90 40   Note On E3 102

66502022 17c 90 41   Note On F3 107

6650204f 17c 90 43   Note On(0-Off) G3
6650211d 17c 90 2d   Note On A1 107
6650217a 17c 90 41   Note On(0-Off) F3
665021c9 17c 90 40   Note On(0-Off) E3

66502222 17c 90 37   Note On(0-Off) G2
665022ae 17c 90 40   Note On E3 43

665022b8 17c 90 37   Note On G2 82
66502351 17c 90 37   Note On(0-Off) G2
665023a0 17c 90 37   Note On G2 71

665023ab 17c 90 40   Note On(0-Off) E3
6650240c 17c 90 2d   Note On(0-Off) A1
66502465 17c 90 37   Note On(0-Off) G2
66502529 17c 90 3e   Note On D3 107

6650252b 17c 90 3b   Note On B2 107

6650252d 17c 90 2d   Note On A1 102

6650252e 17c 90 37   Note On G2 105
66502722 17c 90 2d   Note On(0-Off) A1

66502723 17c 90 3b   Note On(0-Off) B2

66502753 17c 90 37   Note On(0-Off) G2

6650275c 17c 90 3e   Note On(0-Off) D3
66502949 17c 90 37   Note On G2 98

6650294d 17c 90 3a   Note On Bb2 94

6650294e 17c 90 2e   Note On Bb1 103

6650294f 17c 90 40   Note On E3 96

66502951 17c 90 3d   Note On C#3 103
66502ac3 17c 90 37   Note On(0-Off) G2

66502acd 17c 90 2e   Note On(0-Off) Bb1
66502b31 17c 90 40   Note On(0-Off) E3

66502b37 17c 90 2b   Note On G1 58
66502bad 17c 90 3d   Note On(0-Off) C#3

66502bad 17c 90 3a   Note On(0-Off) Bb2

66502bb9 17c 90 37   Note On G2 100
66502c16 17c 90 2e   Note On Bb1 61

66502c37 17c 90 3a   Note On Bb2 91

66502c53 17c 90 2b   Note On(0-Off) G1
66502c8d 17c 90 37   Note On(0-Off) G2

66502cb4 17c 90 3d   Note On C#3 116

66502cd8 17c 90 31   Note On C#2 94
66502cfb 17c 90 3a   Note On(0-Off) Bb2
66502d4f 17c 90 2e   Note On(0-Off) Bb1

66502d77 17c 90 3d   Note On(0-Off) C#3

66502d82 17c 90 40   Note On E3 63

66502db4 17c 90 35   Note On F2 112
66502dc0 17c 90 31   Note On(0-Off) C#2

66502dd0 17c 90 40   Note On(0-Off) E3
66502e36 17c 90 35   Note On(0-Off) F2

66502e49 17c 90 45   Note On A3 114
66502ee7 17c 90 48   Note On C4 64

66502eea 17c 90 47   Note On B3 96
66502f00 17c 90 45   Note On(0-Off) A3

66502f56 17c 90 4a   Note On D4 107
66502f7a 17c 90 47   Note On(0-Off) B3

66502f7c 17c 90 48   Note On(0-Off) C4
6650300a 17c 90 4a   Note On(0-Off) D4

6650300e 17c 90 4f   Note On G4 79
66503061 17c 90 4f   Note On(0-Off) G4
665030be 17c 90 51   Note On A4 82

66503143 17c 90 51   Note On(0-Off) A4
66503160 17c 90 53   Note On B4 20

665031c3 17c 90 54   Note On C5 75
66503256 17c 90 56   Note On D5 114

6650328f 17c 90 53   Note On(0-Off) B4
665032b5 17c 90 26   Note On D1 103

665032d6 17c 90 54   Note On(0-Off) C5

66503302 17c 90 58   Note On E5 109
66503361 17c 90 56   Note On(0-Off) D5
66503494 17c 90 2d   Note On A1 94
665034f9 17c 90 26   Note On(0-Off) D1
665035f0 17c 90 2d   Note On(0-Off) A1

665035f2 17c 90 56   Note On D5 112

665035f4 17c 90 32   Note On D2 103

66503614 17c 90 58   Note On(0-Off) E5
66503748 17c 90 56   Note On(0-Off) D5

6650374e 17c 90 54   Note On C5 98

6650374f 17c 90 34   Note On E2 109

66503755 17c 90 32   Note On(0-Off) D2
66503b18 17c 90 34   Note On(0-Off) E2
66503db9 17c 90 54   Note On(0-Off) C5
66503de2 17c 90 2b   Note On G1 69

66503df3 17c 90 58   Note On E5 109
66503fff 17c 90 2b   Note On(0-Off) G1
66504063 17c 90 56   Note On D5 107

66504074 17c 90 58   Note On(0-Off) E5
665041c0 17c 90 54   Note On C5 96
665041da 17c 90 56   Note On(0-Off) D5
6650457e 17c 90 54   Note On(0-Off) C5

66504588 17c 90 56   Note On D5 118
665047ee 17c 90 24   Note On C1 109

66504803 17c 90 54   Note On C5 107

66504823 17c 90 56   Note On(0-Off) D5
665048fd 17c 90 2b   Note On G1 60
66504924 17c 90 24   Note On(0-Off) C1
66504994 17c 90 2b   Note On(0-Off) G1

6650499e 17c 90 54   Note On(0-Off) C5

665049bc 17c 90 30   Note On C2 91
66504a5f 17c 90 30   Note On(0-Off) C2

66504a8f 17c 90 32   Note On D2 109
66504b77 17c 90 34   Note On E2 86
66504bbc 17c 90 32   Note On(0-Off) D2
66504c4c 17c 90 37   Note On G2 95

66504c5b 17c 90 34   Note On(0-Off) E2
66504d4e 17c 90 48   Note On C4 69
66504d9b 17c 90 37   Note On(0-Off) G2
66504e45 17c 90 4c   Note On E4 95
66504f18 17c 90 4f   Note On G4 96
66504fdb 17c 90 4c   Note On(0-Off) E4

66504ff8 17c 90 54   Note On C5 100
66505071 17c 90 4f   Note On(0-Off) G4

66505093 17c 90 48   Note On(0-Off) C4
66505130 17c 90 4f   Note On G4 91
6650513d 17c 90 51   Note On A4 58

66505199 17c 90 54   Note On(0-Off) C5
665051ef 17c 90 51   Note On(0-Off) A4

66505214 17c 90 4c   Note On E4 75
6650527f 17c 90 4f   Note On(0-Off) G4
665052ca 17c 90 4c   Note On(0-Off) E4
6650531b 17c 90 54   Note On C5 86

6650531d 17c 90 4f   Note On G4 86

66505323 17c 90 2b   Note On G1 91

66505328 17c 90 4c   Note On E4 79

66505352 17c 90 48   Note On C4 52
665053b3 17c 90 48   Note On(0-Off) C4
6650552f 17c 90 4c   Note On(0-Off) E4

66505535 17c 90 54   Note On(0-Off) C5
665055ef 17c 90 53   Note On B4 100

665055f4 17c 90 48   Note On C4 61

665055fb 17c 90 4c   Note On E4 105

66505602 17c 90 2b   Note On(0-Off) G1
665056bb 17c 90 4c   Note On(0-Off) E4
665056fa 17c 90 53   Note On(0-Off) B4
665057b3 17c 90 48   Note On(0-Off) C4

665057bf 17c 90 4f   Note On(0-Off) G4
665058b4 17c 90 51   Note On A4 105

665058b8 17c 90 32   Note On D2 94

665058bb 17c 90 48   Note On C4 71

665058bf 17c 90 4c   Note On E4 91
66505b6e 17c 90 4f   Note On G4 100
66505bc5 17c 90 51   Note On(0-Off) A4

66505bd2 17c 90 48   Note On(0-Off) C4

66505bfd 17c 90 4c   Note On(0-Off) E4

66505c03 17c 90 32   Note On(0-Off) D2

66505c08 17c 90 4f   Note On(0-Off) G4
66505ce0 17c 90 32   Note On D2 69
66505d5a 17c 90 32   Note On(0-Off) D2
66505e4d 17c 90 26   Note On D1 89

66505e4e 17c 90 47   Note On B3 102

66505e4f 17c 90 24   Note On C1 116

66505e50 17c 90 4a   Note On D4 107
66505ea8 17c 90 24   Note On(0-Off) C1
66505f1b 17c 90 26   Note On(0-Off) D1
66505f80 17c 90 24   Note On C1 112
665060f7 17c 90 4a   Note On(0-Off) D4

66506105 17c 90 47   Note On(0-Off) B3
66506179 17c 90 24   Note On(0-Off) C1
66506273 17c 90 30   Note On C2 94

66506275 17c 90 32   Note On D2 102

66506283 17c 90 4c   Note On E4 107

66506286 17c 90 48   Note On C4 103

66506289 17c 90 43   Note On G3 91
665062cc 17c 90 32   Note On(0-Off) D2
665064c6 17c 90 43   Note On(0-Off) G3

665064e9 17c 90 48   Note On(0-Off) C4

665064f3 17c 90 4c   Note On(0-Off) E4

6650651a 17c 90 30   Note On(0-Off) C2

6650651c 17c 90 43   Note On G3 96
665065ff 17c 90 30   Note On C2 96
66506705 17c 90 43   Note On(0-Off) G3
66506793 17c 90 30   Note On(0-Off) C2
665067c6 17c 90 43   Note On G3 73
66506835 17c 90 30   Note On C2 62
665068d5 17c 90 28   Note On E1 100

665068d6 17c 90 4a   Note On D4 103

665068d7 17c 90 47   Note On B3 109
665068f9 17c 90 30   Note On(0-Off) C2
66506a49 17c 90 47   Note On(0-Off) B3
66506be3 17c 90 43   Note On(0-Off) G3

66506bf1 17c 90 28   Note On(0-Off) E1

66506c0b 17c 90 4a   Note On(0-Off) D4
66506ccc 17c 90 43   Note On G3 89

66506ccd 17c 90 4c   Note On E4 102

66506ccf 17c 90 48   Note On C4 66

66506cd0 17c 90 34   Note On E2 77
66506eda 17c 90 34   Note On(0-Off) E2
66507007 17c 90 43   Note On(0-Off) G3
6650709a 17c 90 4c   Note On(0-Off) E4

6650709d 17c 90 48   Note On(0-Off) C4
38bb293b 90 48 40   Note On C4 64
38bb2a76 90 48 00   Note On(0-Off) C4
38bb2ad4 90 4a 5b   Note On D4 91
38bb2bd4 90 4a 00   Note On(0-Off) D4
38bb2c77 90 4c 66   Note On E4 102
38bb2d35 90 4c 00   Note On(0-Off) E4
38bb2dfa 90 4d 6b   Note On F4 107
38bb3201 90 4d 00   Note On(0-Off) F4
38bb3e77 90 37 44   Note On G2 68

38bb3e7b 90 3b 64   Note On B2 100

38bb3e7c 90 24 7e   Note On C1 126

38bb3e7e 90 3e 67   Note On D3 103
38bb4147 90 3b 00   Note On(0-Off) B2
38bb41d3 90 37 00   Note On(0-Off) G2
38bb4223 90 3e 00   Note On(0-Off) D3
38bb4311 90 37 59   Note On G2 89

38bb4313 90 40 66   Note On E3 102
38bb45d4 90 37 00   Note On(0-Off) G2
38bb4607 90 40 00   Note On(0-Off) E3
38bb4678 90 37 67   Note On G2 103
38bb46f6 90 24 00   Note On(0-Off) C1
38bb4887 90 37 00   Note On(0-Off) G2
38bb49cc 90 37 67   Note On G2 103
38bb4afe 90 37 00   Note On(0-Off) G2
38bb4bcb 90 3e 67   Note On D3 103

38bb4bcd 90 37 66   Note On G2 102

38bb4bce 90 3b 6b   Note On B2 107

38bb4be6 90 2d 64   Note On A1 100
38bb4ef6 90 3b 00   Note On(0-Off) B2
38bb4f3b 90 37 00   Note On(0-Off) G2
38bb4fa7 90 3e 00   Note On(0-Off) D3
38bb50b9 90 40 4f   Note On E3 79

38bb50c2 90 37 49   Note On G2 73
38bb5454 90 37 00   Note On(0-Off) G2

38bb5456 90 40 00   Note On(0-Off) E3
38bb55e1 90 2d 00   Note On(0-Off) A1
38bb5745 90 26 4d   Note On D1 77

38bb5748 90 41 3e   Note On F3 62

38bb5749 90 39 40   Note On A2 64

38bb574a 90 35 3c   Note On F2 60
38bb586a 90 39 00   Note On(0-Off) A2

38bb5880 90 35 00   Note On(0-Off) F2

38bb5893 90 41 00   Note On(0-Off) F3
38bb5940 90 39 40   Note On A2 64

38bb5945 90 35 2f   Note On F2 47

38bb594c 90 41 2c   Note On F3 44
38bb5a22 90 39 00   Note On(0-Off) A2

38bb5a26 90 41 00   Note On(0-Off) F3

38bb5a3b 90 35 00   Note On(0-Off) F2
38bb5aec 90 39 42   Note On A2 66

38bb5aee 90 35 25   Note On F2 37

38bb5af0 90 41 3e   Note On F3 62
38bb5c1c 90 39 00   Note On(0-Off) A2

38bb5c21 90 41 00   Note On(0-Off) F3

38bb5c2d 90 35 00   Note On(0-Off) F2
38bb5cf2 90 35 56   Note On F2 86

38bb5cf3 90 39 64   Note On A2 100

38bb5cf6 90 41 4f   Note On F3 79
38bb5f4b 90 41 00   Note On(0-Off) F3

38bb5f8e 90 35 00   Note On(0-Off) F2
38bb5fb1 90 39 00   Note On(0-Off) A2

38bb5fd6 90 26 00   Note On(0-Off) D1
38bb6053 90 39 5f   Note On A2 95

38bb6054 90 40 64   Note On E3 100

38bb6055 90 35 5b   Note On F2 91

38bb6067 90 2b 66   Note On G1 102
38bb6261 90 40 00   Note On(0-Off) E3
38bb626d 90 39 00   Note On(0-Off) A2

38bb628a 90 35 00   Note On(0-Off) F2
38bb6379 90 2b 00   Note On(0-Off) G1
38bb63a1 90 34 49   Note On E2 73

38bb63a6 90 37 67   Note On G2 103

38bb63b0 90 24 7d   Note On C1 125
38bb6604 90 34 00   Note On(0-Off) E2

38bb6605 90 24 00   Note On(0-Off) C1
38bb6626 90 37 00   Note On(0-Off) G2
38bb8e1b 90 24 64   Note On C1 100
38bb8f23 90 2b 3f   Note On G1 63
38bb8f82 90 24 00   Note On(0-Off) C1
38bb900b 90 2b 00   Note On(0-Off) G1
38bb903c 90 30 4f   Note On C2 79
38bb90fc 90 30 00   Note On(0-Off) C2
38bb9144 90 32 4d   Note On D2 77
38bb9247 90 34 3f   Note On E2 63
38bb9286 90 32 00   Note On(0-Off) D2
38bb933f 90 37 67   Note On G2 103

38bb9345 90 34 00   Note On(0-Off) E2
38bb9427 90 40 4f   Note On E3 79
38bb94ba 90 37 00   Note On(0-Off) G2
38bb94fe 90 43 5b   Note On G3 91
38bb95d6 90 43 00   Note On(0-Off) G3

38bb95f4 90 2f 6b   Note On B1 107
38bb9601 90 43 6b   Note On G3 107

38bb9609 90 48 6b   Note On C4 107
38bb96f2 90 35 60   Note On F2 96
38bb9760 90 2f 00   Note On(0-Off) B1
38bb97fb 90 3b 6e   Note On B2 110

38bb981a 90 35 00   Note On(0-Off) F2
38bb98fb 90 40 00   Note On(0-Off) E3

38bb9904 90 43 00   Note On(0-Off) G3

38bb991b 90 48 00   Note On(0-Off) C4
38bb9961 90 43 64   Note On G3 100

38bb9963 90 40 49   Note On E3 73

38bb9967 90 47 6b   Note On B3 107
38bb9b8d 90 43 00   Note On(0-Off) G3

38bb9ba0 90 47 00   Note On(0-Off) B3
38bb9be1 90 3b 00   Note On(0-Off) B2

38bb9be8 90 48 67   Note On C4 103

38bb9be9 90 43 67   Note On G3 103
38bb9c81 90 43 00   Note On(0-Off) G3

38bb9ca2 90 40 00   Note On(0-Off) E3
38bb9df8 90 48 00   Note On(0-Off) C4
38bb9eae 90 26 60   Note On D1 96
38bb9ec1 90 3e 56   Note On D3 86

38bb9ec4 90 48 60   Note On C4 96

38bb9ec5 90 41 64   Note On F3 100

38bb9ec6 90 45 67   Note On A3 103
38bb9fa2 90 2d 49   Note On A1 73
38bb9ffa 90 26 00   Note On(0-Off) D1
38bba064 90 2d 00   Note On(0-Off) A1

38bba09d 90 32 42   Note On D2 66
38bba123 90 32 00   Note On(0-Off) D2
38bba17c 90 34 4f   Note On E2 79
38bba261 90 35 3a   Note On F2 58
38bba29d 90 34 00   Note On(0-Off) E2
38bba361 90 39 44   Note On A2 68

38bba384 90 35 00   Note On(0-Off) F2
38bba442 90 41 00   Note On(0-Off) F3

38bba446 90 39 00   Note On(0-Off) A2

38bba44a 90 3e 00   Note On(0-Off) D3
38bba498 90 45 00   Note On(0-Off) A3

38bba4ba 90 3e 13   Note On D3 19
38bba4d6 90 48 00   Note On(0-Off) C4
38bba58f 90 41 4f   Note On F3 79
38bba616 90 3e 00   Note On(0-Off) D3
38bba6d8 90 45 2c   Note On A3 44

38bba718 90 41 00   Note On(0-Off) F3
38bba72c 90 45 00   Note On(0-Off) A3

38bba732 90 2b 34   Note On G1 52

38bba747 90 48 47   Note On C4 71

38bba74d 90 45 2c   Note On A3 44

38bba74e 90 41 66   Note On F3 102

38bba751 90 3e 64   Note On D3 100

38bba764 90 43 5e   Note On G3 94
38bba798 90 43 00   Note On(0-Off) G3
38bba9cc 90 48 00   Note On(0-Off) C4

38bba9de 90 41 00   Note On(0-Off) F3
38bba9f9 90 3e 00   Note On(0-Off) D3

38bbaa0d 90 45 00   Note On(0-Off) A3

38bbaa37 90 2b 00   Note On(0-Off) G1
38bbaa6e 90 37 3f   Note On G2 63

38bbaa84 90 41 62   Note On F3 98

38bbaa87 90 3e 67   Note On D3 103

38bbaa88 90 47 69   Note On B3 105
38bbac11 90 37 00   Note On(0-Off) G2
38bbacd8 90 3e 00   Note On(0-Off) D3

38bbace7 90 47 00   Note On(0-Off) B3

38bbacfc 90 41 00   Note On(0-Off) F3
38bbad8f 90 41 60   Note On F3 96

38bbad93 90 3e 64   Note On D3 100

38bbad93 90 45 6b   Note On A3 107
38bbae34 90 41 00   Note On(0-Off) F3

38bbae39 90 45 00   Note On(0-Off) A3

38bbae42 90 3e 00   Note On(0-Off) D3
38bbafc2 90 43 64   Note On G3 100

38bbafc4 90 30 4d   Note On C2 77

38bbafc7 90 40 5f   Note On E3 95

38bbafca 90 24 7d   Note On C1 125
38bbb1dc 90 40 00   Note On(0-Off) E3

38bbb1ec 90 43 00   Note On(0-Off) G3

38bbb1f7 90 24 00   Note On(0-Off) C1
38bbb247 90 30 00   Note On(0-Off) C2
38bbb3fe 90 41 64   Note On F3 100

38bbb409 90 3b 52   Note On B2 82

38bbb40b 90 3e 56   Note On D3 86
38bbb41f 90 2f 6b   Note On B1 107
38bbb63c 90 41 00   Note On(0-Off) F3

38bbb644 90 3e 00   Note On(0-Off) D3

38bbb65b 90 3b 00   Note On(0-Off) B2
38bbb706 90 2f 00   Note On(0-Off) B1
38bbb7c9 90 39 44   Note On A2 68

38bbb7cb 90 40 5e   Note On E3 94

38bbb7ce 90 2d 5f   Note On A1 95
38bbbac0 90 40 00   Note On(0-Off) E3
38bbbaf2 90 39 00   Note On(0-Off) A2
38bbbb86 90 2d 00   Note On(0-Off) A1

38bbbb94 90 2b 56   Note On G1 86

38bbbb99 90 37 62   Note On G2 98

38bbbb9b 90 3e 66   Note On D3 102

38bbbba2 90 3b 69   Note On B2 105
38bbbd9f 90 3e 00   Note On(0-Off) D3
38bbbdb1 90 3b 00   Note On(0-Off) B2

38bbbde4 90 37 00   Note On(0-Off) G2
38bbbe39 90 2b 00   Note On(0-Off) G1
38bbbf82 90 39 64   Note On A2 100

38bbbf83 90 35 64   Note On F2 100

38bbbf89 90 29 60   Note On F1 96
38bbc4c6 90 35 00   Note On(0-Off) F2

38bbc4e6 90 39 00   Note On(0-Off) A2
38bbc560 90 29 00   Note On(0-Off) F1
38bbc640 90 39 2f   Note On A2 47
38bbc685 90 39 00   Note On(0-Off) A2
38bbc740 90 39 49   Note On A2 73
38bbc812 90 39 00   Note On(0-Off) A2
38bbc8da 90 35 3f   Note On F2 63

38bbc8e0 90 3b 67   Note On B2 103

38bbc8ea 90 29 4d   Note On F1 77

38bbc8ef 90 38 6b   Note On Ab2 107

38bbc913 90 3a 15   Note On Bb2 21

38bbc91b 90 39 76   Note On A2 118

38bbc91d 90 3b 00   Note On(0-Off) B2

38bbc932 90 38 00   Note On(0-Off) Ab2
38bbc978 90 39 00   Note On(0-Off) A2
38bbc9b5 90 3a 00   Note On(0-Off) Bb2
38bbca0a 90 38 5e   Note On Ab2 94
38bbce94 90 29 00   Note On(0-Off) F1
38bbcecf 90 35 00   Note On(0-Off) F2

38bbcede 90 38 00   Note On(0-Off) Ab2
38bbcf3c 90 29 64   Note On F1 100

38bbcf3f 90 35 67   Note On F2 103

38bbcf45 90 38 62   Note On Ab2 98
38bbd253 90 38 00   Note On(0-Off) Ab2
38bbd262 90 35 00   Note On(0-Off) F2
38bbd305 90 35 5f   Note On F2 95

38bbd308 90 3c 7f   Note On C3 127

38bbd30c 90 38 69   Note On Ab2 105
38bbd505 90 3c 00   Note On(0-Off) C3

38bbd506 90 38 00   Note On(0-Off) Ab2
38bbd53f 90 35 00   Note On(0-Off) F2

38bbd546 90 29 00   Note On(0-Off) F1
38bbd7d6 90 3e 44   Note On D3 68

38bbd7d7 90 35 5b   Note On F2 91

38bbd7d9 90 29 3e   Note On F1 62

38bbd7de 90 3b 70   Note On B2 112

38bbd7df 90 38 4d   Note On Ab2 77
38bbdaaa 90 3e 00   Note On(0-Off) D3
38bbdabd 90 35 00   Note On(0-Off) F2

38bbdae5 90 3b 00   Note On(0-Off) B2

38bbdb11 90 38 00   Note On(0-Off) Ab2
38bbdb81 90 38 40   Note On Ab2 64
38bbdb99 90 35 5b   Note On F2 91

38bbdb9a 90 3b 66   Note On B2 102
38bbdd5b 90 38 00   Note On(0-Off) Ab2

38bbdd73 90 3b 00   Note On(0-Off) B2

38bbdd7d 90 35 00   Note On(0-Off) F2

38bbdd84 90 29 00   Note On(0-Off) F1
38bbde58 90 34 5e   Note On E2 94
38bbde5f 90 39 66   Note On A2 102

38bbde72 90 2d 4d   Note On A1 77
38bbe434 90 39 00   Note On(0-Off) A2
38bbe45a 90 34 00   Note On(0-Off) E2

38bbe462 90 2d 00   Note On(0-Off) A1
38bbe4c1 90 2d 67   Note On A1 103

38bbe4d5 90 34 69   Note On E2 105
38bbe5e0 90 39 45   Note On A2 69
38bbe79a 90 39 00   Note On(0-Off) A2
38bbe803 90 34 00   Note On(0-Off) E2
38bbe8f3 90 2d 00   Note On(0-Off) A1
38bbe953 90 3b 6d   Note On B2 109

38bbe95a 90 2b 5e   Note On G1 94

38bbe95b 90 32 64   Note On D2 100

38bbe95e 90 37 6b   Note On G2 107
38bbec96 90 3b 00   Note On(0-Off) B2
38bbecf8 90 32 00   Note On(0-Off) D2

38bbed10 90 37 00   Note On(0-Off) G2
38bbeda4 90 37 6b   Note On G2 107

38bbeda8 90 32 67   Note On D2 103
38bbf017 90 37 00   Note On(0-Off) G2
38bbf055 90 32 00   Note On(0-Off) D2
38bbf1f9 90 2b 00   Note On(0-Off) G1

38bbf233 90 30 4f   Note On C2 79

38bbf237 90 39 5e   Note On A2 94

38bbf239 90 35 67   Note On F2 103

38bbf241 90 29 52   Note On F1 82
38bbf7ca 90 39 00   Note On(0-Off) A2
38bbf7ff 90 30 00   Note On(0-Off) C2

38bbf80a 90 35 00   Note On(0-Off) F2
38bbf867 90 37 64   Note On G2 100

38bbf871 90 30 2b   Note On C2 43
38bbf8b8 90 29 00   Note On(0-Off) F1
38bbf98d 90 35 62   Note On F2 98

38bbf9ba 90 37 00   Note On(0-Off) G2
38bbfa60 90 34 4f   Note On E2 79

38bbfa81 90 35 00   Note On(0-Off) F2

38bbfa95 90 30 00   Note On(0-Off) C2
38bbfb02 90 34 00   Note On(0-Off) E2
38bbfb66 90 28 40   Note On E1 64

38bbfb67 90 34 62   Note On E2 98

38bbfb68 90 30 5f   Note On C2 95

38bbfb6b 90 37 62   Note On G2 98
38bbfee0 90 34 00   Note On(0-Off) E2

38bbfee6 90 30 00   Note On(0-Off) C2

38bbfef5 90 37 00   Note On(0-Off) G2
38bc00a4 90 3e 20   Note On D3 32

38bc00ac 90 32 1b   Note On D2 27

38bc00af 90 39 3c   Note On A2 60

38bc00b7 90 35 4b   Note On F2 75
38bc036e 90 39 00   Note On(0-Off) A2

38bc0384 90 32 00   Note On(0-Off) D2
38bc0394 90 35 00   Note On(0-Off) F2

38bc039e 90 3e 00   Note On(0-Off) D3
38bc0587 90 34 66   Note On E2 102
38bc0590 90 37 67   Note On G2 103
38bc081e 90 37 00   Note On(0-Off) G2
38bc085f 90 34 00   Note On(0-Off) E2
38bc0a20 90 28 00   Note On(0-Off) E1

38bc0a4e 90 26 47   Note On D1 71

38bc0a4f 90 35 64   Note On F2 100

38bc0a53 90 39 5f   Note On A2 95

38bc0a54 90 32 5f   Note On D2 95

38bc0a5b 90 3e 5f   Note On D3 95
38bc0b8f 90 32 00   Note On(0-Off) D2
38bc0bc7 90 39 00   Note On(0-Off) A2

38bc0bd9 90 35 00   Note On(0-Off) F2
38bc0c0b 90 32 60   Note On D2 96

38bc0c44 90 3e 00   Note On(0-Off) D3
38bc0d1b 90 35 4b   Note On F2 75
38bc0e77 90 39 49   Note On A2 73

38bc0ebc 90 32 00   Note On(0-Off) D2
38bc0f80 90 35 00   Note On(0-Off) F2
38bc0ff9 90 3e 5e   Note On D3 94

38bc1014 90 39 00   Note On(0-Off) A2
38bc10b2 90 3e 00   Note On(0-Off) D3
38bc115e 90 3e 6b   Note On D3 107
38bc12d7 90 35 3e   Note On F2 62

38bc12e9 90 3e 00   Note On(0-Off) D3
38bc13fb 90 39 5b   Note On A2 91
38bc153a 90 3e 42   Note On D3 66
38bc1668 90 35 00   Note On(0-Off) F2

38bc1681 90 39 00   Note On(0-Off) A2
38bc16a3 90 3e 00   Note On(0-Off) D3

38bc16e3 90 26 00   Note On(0-Off) D1
38bc17a3 90 3e 67   Note On D3 103

38bc17a9 90 41 59   Note On F3 89

38bc17ac 90 24 7d   Note On C1 125
38bc1958 90 39 3e   Note On A2 62

38bc1960 90 3e 00   Note On(0-Off) D3
38bc196c 90 41 00   Note On(0-Off) F3
38bc1aca 90 3e 5b   Note On D3 91
38bc1be9 90 41 67   Note On F3 103

38bc1c2a 90 39 00   Note On(0-Off) A2
38bc1c42 90 3e 00   Note On(0-Off) D3
38bc1cd5 90 41 00   Note On(0-Off) F3
38bc1d91 90 3e 69   Note On D3 105

38bc1d96 90 41 66   Note On F3 102
38bc1f41 90 39 3a   Note On A2 58

38bc1f53 90 3e 00   Note On(0-Off) D3
38bc1f96 90 41 00   Note On(0-Off) F3
38bc209c 90 3e 5e   Note On D3 94
38bc2222 90 41 42   Note On F3 66
38bc22e6 90 39 00   Note On(0-Off) A2

38bc2324 90 3e 00   Note On(0-Off) D3
38bc2341 90 41 00   Note On(0-Off) F3

38bc2392 90 24 00   Note On(0-Off) C1
38bc23e7 90 3e 67   Note On D3 103

38bc23ed 90 3b 66   Note On B2 102

38bc23f0 90 45 5b   Note On A3 91

38bc23f5 90 43 62   Note On G3 98

38bc23fc 90 2b 66   Note On G1 102
38bc2490 90 3b 00   Note On(0-Off) B2

38bc24b5 90 45 00   Note On(0-Off) A3
38bc26db 90 3e 00   Note On(0-Off) D3

38bc26f6 90 43 00   Note On(0-Off) G3
38bc2787 90 3e 62   Note On D3 98

38bc278f 90 47 67   Note On B3 103
38bc2790 90 45 67   Note On A3 103

38bc2791 90 43 5f   Note On G3 95
38bc281e 90 45 00   Note On(0-Off) A3
38bc296b 90 3e 00   Note On(0-Off) D3
38bc29b4 90 43 00   Note On(0-Off) G3
38bc2a29 90 47 00   Note On(0-Off) B3
38bc2ae4 90 2d 62   Note On A1 98

38bc2afb 90 2b 00   Note On(0-Off) G1

38bc2b04 90 43 49   Note On G3 73

38bc2b05 90 47 60   Note On B3 96
38bc2c3a 90 43 00   Note On(0-Off) G3
38bc2ca8 90 47 00   Note On(0-Off) B3
38bc2cfc 90 2d 00   Note On(0-Off) A1
38bc2da7 90 4a 45   Note On D4 69

38bc2dab 90 47 3d   Note On B3 61

38bc2dba 90 2f 5e   Note On B1 94
38bc2f31 90 47 00   Note On(0-Off) B3

38bc2f4f 90 4a 00   Note On(0-Off) D4
38bc303b 90 2f 00   Note On(0-Off) B1

38bc304e 90 48 5b   Note On C4 91

38bc3050 90 30 66   Note On C2 102

38bc3053 90 4c 70   Note On E4 112
38bc31e9 90 48 00   Note On(0-Off) C4
38bc3273 90 4c 00   Note On(0-Off) E4
38bc32f0 90 32 60   Note On D2 96

38bc32f3 90 30 00   Note On(0-Off) C2
38bc3301 90 4d 6e   Note On F4 110

38bc3306 90 4a 69   Note On D4 105
38bc342c 90 4a 00   Note On(0-Off) D4

38bc3443 90 4d 00   Note On(0-Off) F4
38bc3600 90 32 00   Note On(0-Off) D2

38bc3606 90 53 6d   Note On B4 109

38bc360a 90 2b 64   Note On G1 100

38bc360b 90 4d 72   Note On F4 114

38bc360c 90 4a 64   Note On D4 100
38bc38dc 90 4a 00   Note On(0-Off) D4
38bc3901 90 53 00   Note On(0-Off) B4

38bc3905 90 4d 00   Note On(0-Off) F4
38bc39cc 90 4d 66   Note On F4 102

38bc39cf 90 51 70   Note On A4 112

38bc39d1 90 4a 5e   Note On D4 94
38bc3af3 90 2b 00   Note On(0-Off) G1

38bc3b1d 90 51 00   Note On(0-Off) A4

38bc3b33 90 4d 00   Note On(0-Off) F4

38bc3b44 90 4a 00   Note On(0-Off) D4
38bc3d32 90 24 79   Note On C1 121

38bc3d3d 90 4c 64   Note On E4 100

38bc3d3e 90 48 59   Note On C4 89
38bc3d44 90 4f 56   Note On G4 86
38bc40f0 90 24 00   Note On(0-Off) C1
38bc4147 90 48 00   Note On(0-Off) C4

38bc4157 90 4f 00   Note On(0-Off) G4

38bc415f 90 4c 00   Note On(0-Off) E4
38bd9bf8 90 40 67   Note On E3 103

38bd9bfb 90 37 6b   Note On G2 107
38bd9dfe 90 37 00   Note On(0-Off) G2

38bd9e0b 90 40 00   Note On(0-Off) E3
38bdabf7 90 43 62   Note On G3 98

38bdabfb 90 24 7b   Note On C1 123

38bdabff 90 37 5f   Note On G2 95
38bdb196 90 37 00   Note On(0-Off) G2
38bdb1e1 90 43 00   Note On(0-Off) G3
38bdb260 90 26 4d   Note On D1 77

38bdb261 90 24 00   Note On(0-Off) C1
38bdb274 90 41 66   Note On F3 102

38bdb276 90 37 49   Note On G2 73
38bdb4bd 90 37 00   Note On(0-Off) G2
38bdb4ef 90 41 00   Note On(0-Off) F3

38bdb525 90 28 49   Note On E1 73
38bdb53d 90 37 44   Note On G2 68

38bdb542 90 40 67   Note On E3 103

38bdb543 90 26 00   Note On(0-Off) D1
38bdb64e 90 28 00   Note On(0-Off) E1
38bdb6b6 90 37 00   Note On(0-Off) G2

38bdb6ce 90 40 00   Note On(0-Off) E3
38bdffce 90 40 59   Note On E3 89

38bdffcf 90 37 64   Note On G2 100

38bdffd2 90 24 72   Note On C1 114
38be0690 90 37 00   Note On(0-Off) G2
38be0882 90 40 00   Note On(0-Off) E3
38be0d9d 90 26 62   Note On D1 98

38be0da7 90 39 47   Note On A2 71

38be0da9 90 24 00   Note On(0-Off) C1

38be0dae 90 35 3f   Note On F2 63

38be0db1 90 40 49   Note On E3 73
38be10d0 90 35 00   Note On(0-Off) F2
38be1102 90 40 00   Note On(0-Off) E3

38be1132 90 39 00   Note On(0-Off) A2
38be1169 90 39 21   Note On A2 33

38be116a 90 2b 27   Note On G1 39

38be117b 90 35 3c   Note On F2 60

38be1183 90 3e 3a   Note On D3 58

38be11a0 90 26 00   Note On(0-Off) D1
38be149b 90 3e 00   Note On(0-Off) D3

38be14a6 90 35 00   Note On(0-Off) F2
38be14e9 90 35 15   Note On F2 21
38be17a0 90 35 00   Note On(0-Off) F2

38be17c6 90 39 00   Note On(0-Off) A2
38be183b 90 24 4f   Note On C1 79

38be1845 90 40 3a   Note On E3 58

38be1853 90 2b 00   Note On(0-Off) G1

38be1857 90 37 40   Note On G2 64
38be1f9c 90 37 00   Note On(0-Off) G2

38be1fa8 90 40 00   Note On(0-Off) E3
38be2017 90 2f 1a   Note On B1 26

38be2019 90 37 3d   Note On G2 61

38be201a 90 3b 60   Note On B2 96

38be201b 90 3e 66   Note On D3 102

38be202c 90 24 00   Note On(0-Off) C1
38be239b 90 3b 00   Note On(0-Off) B2

38be239d 90 3e 00   Note On(0-Off) D3

38be23c8 90 37 00   Note On(0-Off) G2
38be2474 90 2f 00   Note On(0-Off) B1

38be247e 90 2d 3e   Note On A1 62

38be2498 90 39 2c   Note On A2 44

38be2499 90 34 34   Note On E2 52
38be2815 90 2d 00   Note On(0-Off) A1
38be29e8 90 39 00   Note On(0-Off) A2

38be2a01 90 34 00   Note On(0-Off) E2
38beae20 90 3c 7f   Note On C3 127
38beaedc 90 3c 00   Note On(0-Off) C3
38beaf93 90 3e 6b   Note On D3 107
38beb122 90 3e 00   Note On(0-Off) D3
38beb25e 90 40 6b   Note On E3 107
38beb3ac 90 40 00   Note On(0-Off) E3
38bee32a 90 47 72   Note On B3 114
38bee69f 90 47 00   Note On(0-Off) B3
38bee710 90 48 6d   Note On C4 109
38befef1 90 48 00   Note On(0-Off) C4
38bf0af6 90 45 64   Note On A3 100

38bf0af9 90 41 64   Note On F3 100

38bf0afa 90 24 7b   Note On C1 123
38bf0d9e 90 45 00   Note On(0-Off) A3

38bf0da4 90 41 00   Note On(0-Off) F3
38bf0de7 90 24 00   Note On(0-Off) C1

38bf0e03 90 28 56   Note On E1 86

38bf0e12 90 40 66   Note On E3 102

38bf0e19 90 43 67   Note On G3 103
38bf10a5 90 40 00   Note On(0-Off) E3

38bf10a9 90 43 00   Note On(0-Off) G3

38bf10d0 90 29 6b   Note On F1 107

38bf10db 90 45 69   Note On A3 105

38bf10e1 90 41 69   Note On F3 105

38bf10e2 90 28 00   Note On(0-Off) E1
38bf135c 90 41 00   Note On(0-Off) F3

38bf135f 90 45 00   Note On(0-Off) A3
38bf13c4 90 24 79   Note On C1 121

38bf13cb 90 43 67   Note On G3 103

38bf13cd 90 40 4f   Note On E3 79

38bf13d4 90 29 00   Note On(0-Off) F1
38bf1767 90 40 00   Note On(0-Off) E3

38bf1790 90 43 00   Note On(0-Off) G3
38bf18ff 90 3e 42   Note On D3 66
38bf1a5c 90 40 5f   Note On E3 95
38bf1ac7 90 3e 00   Note On(0-Off) D3
38bf1b71 90 41 6b   Note On F3 107
38bf1bd9 90 40 00   Note On(0-Off) E3
38bf1cd1 90 43 64   Note On G3 100

38bf1cd6 90 41 00   Note On(0-Off) F3
38bf1f6d 90 43 00   Note On(0-Off) G3
38bf2055 90 43 6b   Note On G3 107
38bf2163 90 45 64   Note On A3 100

38bf2197 90 43 00   Note On(0-Off) G3
38bf22af 90 47 70   Note On B3 112
38bf22f3 90 45 00   Note On(0-Off) A3
38bf23c5 90 48 3f   Note On C4 63
38bf2439 90 47 00   Note On(0-Off) B3
38bf25d9 90 4a 6b   Note On D4 107

38bf25e1 90 29 59   Note On F1 89

38bf25f6 90 48 00   Note On(0-Off) C4

38bf260a 90 24 00   Note On(0-Off) C1
38bf280c 90 48 6e   Note On C4 110
38bf282e 90 4a 00   Note On(0-Off) D4
38bf2a34 90 29 00   Note On(0-Off) F1
38bf2a8a 90 48 00   Note On(0-Off) C4
38bff010 90 24 72   Note On C1 114

38bff016 90 37 44   Note On G2 68

38bff019 90 40 3e   Note On E3 62
38bff442 90 37 00   Note On(0-Off) G2
38bff534 90 40 00   Note On(0-Off) E3
38bff5d1 90 26 44   Note On D1 68

38bff5e5 90 39 44   Note On A2 68

38bff5e7 90 35 3d   Note On F2 61

38bff5ed 90 24 00   Note On(0-Off) C1

38bff5ef 90 40 52   Note On E3 82
38bff8b0 90 35 00   Note On(0-Off) F2

38bff8c6 90 39 00   Note On(0-Off) A2

38bff8d0 90 40 00   Note On(0-Off) E3
38bff92e 90 2b 45   Note On G1 69

38bff937 90 26 00   Note On(0-Off) D1

38bff941 90 40 47   Note On E3 71
38bff943 90 39 64   Note On A2 100

38bff94c 90 35 56   Note On F2 86
38bffb7c 90 35 00   Note On(0-Off) F2

38bffb94 90 39 00   Note On(0-Off) A2

38bffb96 90 40 00   Note On(0-Off) E3
38bffbee 90 2b 00   Note On(0-Off) G1

38bffbf0 90 29 67   Note On F1 103

38bffc0a 90 39 64   Note On A2 100

38bffc0c 90 35 5b   Note On F2 91

38bffc0d 90 3e 6b   Note On D3 107
38bffdc7 90 39 00   Note On(0-Off) A2

38bffdd5 90 35 00   Note On(0-Off) F2

38bffdd7 90 3e 00   Note On(0-Off) D3

38bffdf7 90 29 00   Note On(0-Off) F1
38bffe13 90 28 52   Note On E1 82

38bffe2f 90 39 6b   Note On A2 107

38bffe33 90 3c 7f   Note On C3 127

38bffe34 90 35 64   Note On F2 100
38c00024 90 3c 00   Note On(0-Off) C3

38c0004b 90 35 00   Note On(0-Off) F2

38c00050 90 39 00   Note On(0-Off) A2
38c000ef 90 28 00   Note On(0-Off) E1

38c00131 90 26 60   Note On D1 96

38c00135 90 35 59   Note On F2 89

38c00138 90 39 5f   Note On A2 95

38c0013b 90 3e 67   Note On D3 103
38c004ce 90 39 00   Note On(0-Off) A2
38c004e3 90 35 00   Note On(0-Off) F2

38c004f1 90 3e 00   Note On(0-Off) D3
38c00573 90 39 67   Note On A2 103

38c00577 90 3e 6b   Note On D3 107

38c00579 90 35 5e   Note On F2 94

38c0057b 90 28 69   Note On E1 105

38c005a1 90 26 00   Note On(0-Off) D1
38c00663 90 39 00   Note On(0-Off) A2

38c0066d 90 3e 00   Note On(0-Off) D3
38c00677 90 35 00   Note On(0-Off) F2
38c006fd 90 40 62   Note On E3 98

38c006fe 90 29 6b   Note On F1 107

38c00701 90 35 66   Note On F2 102

38c00703 90 28 00   Note On(0-Off) E1

38c00708 90 39 6b   Note On A2 107
38c007db 90 40 00   Note On(0-Off) E3

38c007dd 90 39 00   Note On(0-Off) A2

38c0080a 90 35 00   Note On(0-Off) F2
38c00861 90 41 69   Note On F3 105

38c00863 90 35 49   Note On F2 73

38c00868 90 39 64   Note On A2 100

38c00874 90 2b 62   Note On G1 98
38c0088f 90 29 00   Note On(0-Off) F1
38c0095d 90 39 00   Note On(0-Off) A2

38c00972 90 35 00   Note On(0-Off) F2

38c0098c 90 41 00   Note On(0-Off) F3
38c00a23 90 24 7e   Note On C1 126
38c00a29 90 2b 00   Note On(0-Off) G1

38c00a41 90 43 69   Note On G3 105

38c00a45 90 40 66   Note On E3 102
38c00c6f 90 40 00   Note On(0-Off) E3

38c00c6f 90 43 00   Note On(0-Off) G3
38c00d42 90 40 69   Note On E3 105

38c00d43 90 48 67   Note On C4 103

38c00d46 90 43 6b   Note On G3 107
38c00d61 90 2f 5f   Note On B1 95

38c00d64 90 30 5b   Note On C2 91

38c00d89 90 24 00   Note On(0-Off) C1
38c00de1 90 2f 00   Note On(0-Off) B1
38c00ef2 90 40 00   Note On(0-Off) E3
38c0103e 90 43 00   Note On(0-Off) G3

38c01053 90 48 00   Note On(0-Off) C4
38c010a5 90 2f 69   Note On B1 105

38c010a8 90 30 00   Note On(0-Off) C2

38c010b8 90 47 5e   Note On B3 94

38c010bc 90 3e 6b   Note On D3 107

38c010bf 90 43 6b   Note On G3 107
38c01222 90 43 00   Note On(0-Off) G3
38c01279 90 3e 00   Note On(0-Off) D3

38c012c6 90 47 00   Note On(0-Off) B3
38c013ac 90 3e 67   Note On D3 103

38c013af 90 43 64   Note On G3 100

38c013b0 90 48 6b   Note On C4 107
38c015ff 90 43 00   Note On(0-Off) G3

38c01611 90 3e 00   Note On(0-Off) D3

38c01613 90 48 00   Note On(0-Off) C4
38c016c3 90 2d 5e   Note On A1 94

38c016c8 90 45 66   Note On A3 102

38c016d1 90 40 67   Note On E3 103

38c016d3 90 3e 64   Note On D3 100

38c016d4 90 2f 00   Note On(0-Off) B1
38c01758 90 3e 00   Note On(0-Off) D3
38c018c0 90 2d 00   Note On(0-Off) A1
38c01990 90 40 00   Note On(0-Off) E3
38c019e5 90 45 00   Note On(0-Off) A3
38c03387 90 3e 62   Note On D3 98

38c03390 90 37 64   Note On G2 100
38c03391 90 3b 6b   Note On B2 107

38c033a0 90 24 7d   Note On C1 125
38c0360e 90 3b 00   Note On(0-Off) B2

38c03644 90 37 00   Note On(0-Off) G2
38c036a9 90 3e 00   Note On(0-Off) D3
38c0375b 90 37 6b   Note On G2 107

38c0375d 90 40 6d   Note On E3 109

38c0375f 90 3c 7f   Note On C3 127
38c03c10 90 3c 00   Note On(0-Off) C3

38c03c28 90 40 00   Note On(0-Off) E3

38c03c38 90 37 00   Note On(0-Off) G2
38c03ccd 90 24 00   Note On(0-Off) C1
38c03dc8 90 37 69   Note On G2 105

38c03dcc 90 3e 72   Note On D3 114

38c03dcc 90 3b 76   Note On B2 118

38c03dcc 90 2d 69   Note On A1 105
38c0401b 90 3b 00   Note On(0-Off) B2

38c0403c 90 37 00   Note On(0-Off) G2
38c04077 90 3e 00   Note On(0-Off) D3
38c04127 90 37 64   Note On G2 100

38c04128 90 40 6b   Note On E3 107
38c044f2 90 37 00   Note On(0-Off) G2

38c0451a 90 40 00   Note On(0-Off) E3
38c045d9 90 2d 00   Note On(0-Off) A1
38c04640 90 41 67   Note On F3 103

38c04645 90 39 67   Note On A2 103

38c04646 90 3e 72   Note On D3 114

38c0464d 90 26 64   Note On D1 100
38c046fd 90 39 00   Note On(0-Off) A2

38c04705 90 3e 00   Note On(0-Off) D3

38c04709 90 41 00   Note On(0-Off) F3
38c04794 90 3e 64   Note On D3 100

38c04799 90 39 4d   Note On A2 77

38c0479b 90 41 4f   Note On F3 79
38c04825 90 3e 00   Note On(0-Off) D3

38c0482c 90 39 00   Note On(0-Off) A2

38c0482e 90 41 00   Note On(0-Off) F3
38c048f1 90 3e 69   Note On D3 105

38c048f2 90 39 5e   Note On A2 94

38c048f6 90 41 60   Note On F3 96
38c0496d 90 3e 00   Note On(0-Off) D3

38c0496f 90 39 00   Note On(0-Off) A2

38c04971 90 41 00   Note On(0-Off) F3
38c04a57 90 41 67   Note On F3 103

38c04a58 90 39 64   Note On A2 100

38c04a59 90 3e 6e   Note On D3 110
38c04bfc 90 39 00   Note On(0-Off) A2

38c04bfd 90 3e 00   Note On(0-Off) D3
38c04c2a 90 41 00   Note On(0-Off) F3

38c04c40 90 26 00   Note On(0-Off) D1
38c04d12 90 39 67   Note On A2 103

38c04d14 90 40 6b   Note On E3 107

38c04d17 90 2b 5b   Note On G1 91
38c04df6 90 39 00   Note On(0-Off) A2

38c04e19 90 40 00   Note On(0-Off) E3
38c04e7d 90 2b 00   Note On(0-Off) G1
38c04fdc 90 34 6e   Note On E2 110

38c04fe0 90 24 7e   Note On C1 126

38c04fe1 90 37 6b   Note On G2 107
38c05220 90 34 00   Note On(0-Off) E2
38c05254 90 37 00   Note On(0-Off) G2
38c0529e 90 34 66   Note On E2 102
38c053da 90 37 76   Note On G2 118

38c05415 90 34 00   Note On(0-Off) E2
38c0549f 90 24 00   Note On(0-Off) C1
38c0554b 90 37 00   Note On(0-Off) G2
38c05691 90 39 72   Note On A2 114

38c05699 90 35 6b   Note On F2 107

38c0569a 90 3c 7f   Note On C3 127

38c0569c 90 2b 72   Note On G1 114
38c05766 90 35 00   Note On(0-Off) F2

38c05775 90 3c 00   Note On(0-Off) C3
38c057b3 90 39 00   Note On(0-Off) A2
38c05930 90 3b 7d   Note On B2 125

38c05932 90 37 70   Note On G2 112

38c05937 90 3e 6d   Note On D3 109

38c0593a 90 40 6b   Note On E3 107

38c05978 90 40 00   Note On(0-Off) E3
38c059cf 90 3e 00   Note On(0-Off) D3

38c059d5 90 37 00   Note On(0-Off) G2

38c059de 90 3b 00   Note On(0-Off) B2
38c05a9e 90 2b 00   Note On(0-Off) G1
38c05bdf 90 43 6b   Note On G3 107

38c05be0 90 24 7d   Note On C1 125
38c05be5 90 37 62   Note On G2 98
38c05cae 90 37 00   Note On(0-Off) G2

38c05ccb 90 43 00   Note On(0-Off) G3
38c05d3f 90 43 5e   Note On G3 94

38c05d44 90 37 4f   Note On G2 79
38c05de8 90 37 00   Note On(0-Off) G2

38c05df8 90 43 00   Note On(0-Off) G3
38c05e89 90 43 64   Note On G3 100

38c05e8e 90 37 56   Note On G2 86
38c05f19 90 37 00   Note On(0-Off) G2

38c05f27 90 43 00   Note On(0-Off) G3
38c05fdb 90 43 6b   Note On G3 107

38c05fdc 90 37 69   Note On G2 105
38c0615f 90 24 00   Note On(0-Off) C1
38c0616f 90 37 00   Note On(0-Off) G2

38c06198 90 43 00   Note On(0-Off) G3
38c0629a 90 41 67   Note On F3 103

38c0629c 90 37 67   Note On G2 103

38c0629c 90 3c 7f   Note On C3 127
38c06350 90 3c 00   Note On(0-Off) C3

38c06357 90 37 00   Note On(0-Off) G2
38c0636d 90 41 00   Note On(0-Off) F3
38c063fb 90 37 64   Note On G2 100

38c06400 90 40 64   Note On E3 100
38c06488 90 37 00   Note On(0-Off) G2

38c0649a 90 40 00   Note On(0-Off) E3
38c06570 90 3e 69   Note On D3 105

38c06571 90 37 6b   Note On G2 107

38c06573 90 3b 72   Note On B2 114

38c06583 90 2d 6d   Note On A1 109
38c067ba 90 3b 00   Note On(0-Off) B2

38c067ba 90 37 00   Note On(0-Off) G2

38c067ba 90 3e 00   Note On(0-Off) D3
38c0683e 90 37 69   Note On G2 105

38c06856 90 2d 00   Note On(0-Off) A1
38c06939 90 37 00   Note On(0-Off) G2
38c069a1 90 3b 67   Note On B2 103
38c06a2a 90 3e 67   Note On D3 103
38c06a7f 90 3b 00   Note On(0-Off) B2

38c06aa2 90 3e 00   Note On(0-Off) D3
38c06b07 90 40 62   Note On E3 98

38c06b0c 90 37 67   Note On G2 103

38c06b11 90 3a 67   Note On Bb2 103

38c06b1e 90 3d 6d   Note On C#3 109

38c06b25 90 2e 69   Note On Bb1 105
38c06ca8 90 37 00   Note On(0-Off) G2

38c06cb4 90 40 00   Note On(0-Off) E3
38c06ccd 90 3a 00   Note On(0-Off) Bb2

38c06cd2 90 3d 00   Note On(0-Off) C#3
38c06de8 90 3a 72   Note On Bb2 114

38c06deb 90 3d 76   Note On C#3 118

38c06df0 90 37 69   Note On G2 105
38c06faa 90 37 00   Note On(0-Off) G2

38c06fc4 90 3a 00   Note On(0-Off) Bb2

38c06fd9 90 3d 00   Note On(0-Off) C#3
38c07038 90 3d 64   Note On C#3 100

38c0703a 90 37 64   Note On G2 100

38c07040 90 3a 4f   Note On Bb2 79

38c07041 90 40 60   Note On E3 96
38c07090 90 3a 00   Note On(0-Off) Bb2

38c070aa 90 2e 00   Note On(0-Off) Bb1

38c070ab 90 3d 00   Note On(0-Off) C#3

38c070ca 90 37 00   Note On(0-Off) G2
38c070d2 90 40 00   Note On(0-Off) E3

38c070d8 90 2e 64   Note On Bb1 100
38c07191 90 2e 00   Note On(0-Off) Bb1
38c07269 90 35 45   Note On F2 69

38c0726d 90 39 67   Note On A2 103
38c0726f 90 41 49   Note On F3 73

38c0727e 90 26 72   Note On D1 114
38c0731a 90 39 00   Note On(0-Off) A2

38c07338 90 35 00   Note On(0-Off) F2

38c07342 90 41 00   Note On(0-Off) F3
38c073ca 90 35 3f   Note On F2 63

38c073cc 90 39 4d   Note On A2 77

38c073d6 90 41 25   Note On F3 37
38c0745f 90 39 00   Note On(0-Off) A2

38c07468 90 35 00   Note On(0-Off) F2

38c0747f 90 41 00   Note On(0-Off) F3
38c074fc 90 26 00   Note On(0-Off) D1
38c07551 90 39 67   Note On A2 103

38c07555 90 35 4d   Note On F2 77

38c07557 90 41 3f   Note On F3 63

38c075b1 90 39 00   Note On(0-Off) A2
38c075bd 90 35 00   Note On(0-Off) F2

38c075c9 90 41 00   Note On(0-Off) F3
38c076c2 90 28 74   Note On E1 116

38c076c5 90 41 6b   Note On F3 107

38c076c8 90 35 6e   Note On F2 110

38c076ca 90 39 74   Note On A2 116
38c07894 90 35 00   Note On(0-Off) F2

38c078a1 90 39 00   Note On(0-Off) A2

38c078a9 90 41 00   Note On(0-Off) F3
38c078fc 90 28 00   Note On(0-Off) E1
38c07980 90 29 67   Note On F1 103

38c07989 90 35 4d   Note On F2 77

38c0798a 90 39 66   Note On A2 102
38c07b0a 90 39 00   Note On(0-Off) A2

38c07b1b 90 35 00   Note On(0-Off) F2
38c07b7d 90 35 4f   Note On F2 79

38c07b80 90 39 60   Note On A2 96

38c07b8b 90 41 23   Note On F3 35
38c07c32 90 29 00   Note On(0-Off) F1
38c07c3e 90 39 00   Note On(0-Off) A2

38c07c5a 90 35 00   Note On(0-Off) F2

38c07c6d 90 41 00   Note On(0-Off) F3
38c07dd7 90 37 4b   Note On G2 75

38c07dd9 90 2b 64   Note On G1 100

38c07dda 90 3e 67   Note On D3 103

38c07ddb 90 3b 6b   Note On B2 107

38c07ddc 90 43 45   Note On G3 69
38c080a0 90 3b 00   Note On(0-Off) B2

38c080ad 90 37 00   Note On(0-Off) G2

38c080b1 90 3e 00   Note On(0-Off) D3
38c08141 90 43 00   Note On(0-Off) G3

38c0817f 90 37 45   Note On G2 69
38c08245 90 3b 7b   Note On B2 123
38c0826b 90 37 00   Note On(0-Off) G2
38c0831a 90 3b 00   Note On(0-Off) B2

38c0831b 90 43 67   Note On G3 103
38c083f0 90 41 66   Note On F3 102
38c0841d 90 43 00   Note On(0-Off) G3
38c0849b 90 40 1a   Note On E3 26
38c084df 90 41 00   Note On(0-Off) F3
38c0860d 90 40 00   Note On(0-Off) E3

38c0860e 90 3e 6e   Note On D3 110
38c0875d 90 2b 00   Note On(0-Off) G1

38c0876b 90 40 66   Note On E3 102

38c0876f 90 41 5f   Note On F3 95

38c0877f 90 41 00   Note On(0-Off) F3

38c0878f 90 3e 00   Note On(0-Off) D3
38c08832 90 40 00   Note On(0-Off) E3
38c088ee 90 40 5e   Note On E3 94

38c088f0 90 24 7e   Note On C1 126
38c08a6e 90 3e 67   Note On D3 103

38c08a80 90 40 00   Note On(0-Off) E3
38c08bd1 90 40 64   Note On E3 100

38c08bed 90 3e 00   Note On(0-Off) D3
38c08d63 90 41 74   Note On F3 116

38c08d64 90 40 00   Note On(0-Off) E3
38c0905b 90 40 76   Note On E3 118
38c0908f 90 41 00   Note On(0-Off) F3
38c09109 90 24 00   Note On(0-Off) C1
38c0928f 90 40 00   Note On(0-Off) E3
38c092e7 90 40 6b   Note On E3 107

38c092e8 90 43 69   Note On G3 105
38c0946a 90 2d 6b   Note On A1 107
38c095ae 90 3e 72   Note On D3 114

38c095da 90 43 00   Note On(0-Off) G3

38c095df 90 40 00   Note On(0-Off) E3
38c09819 90 3e 00   Note On(0-Off) D3
38c09b07 90 3e 59   Note On D3 89
38c09ced 90 3e 00   Note On(0-Off) D3
38c09d90 90 40 70   Note On E3 112
38c09f27 90 2d 00   Note On(0-Off) A1

38c09f2a 90 26 66   Note On D1 102
38c0a07b 90 41 6b   Note On F3 107

38c0a0bb 90 40 00   Note On(0-Off) E3
38c0a1bd 90 41 00   Note On(0-Off) F3

38c0a1e0 90 40 66   Note On E3 102
38c0a2b4 90 40 00   Note On(0-Off) E3
38c0a382 90 37 69   Note On G2 105

38c0a383 90 3b 76   Note On B2 118

38c0a387 90 39 67   Note On A2 103
38c0a430 90 37 00   Note On(0-Off) G2

38c0a43a 90 3b 00   Note On(0-Off) B2
38c0a556 90 39 00   Note On(0-Off) A2
38c0a622 90 35 72   Note On F2 114

38c0a627 90 39 70   Note On A2 112
38c0a84a 90 35 00   Note On(0-Off) F2

38c0a851 90 39 00   Note On(0-Off) A2
38c0a8a9 90 26 00   Note On(0-Off) D1

38c0a8c3 90 3e 70   Note On D3 112
38c0a8c8 90 35 6b   Note On F2 107

38c0a8ce 90 39 6b   Note On A2 107
38c0aa50 90 2b 72   Note On G1 114
38c0ac12 90 2b 00   Note On(0-Off) G1
38c0acf1 90 39 00   Note On(0-Off) A2

38c0ad10 90 3e 00   Note On(0-Off) D3
38c0ad57 90 35 00   Note On(0-Off) F2
38c73008 90 32 64   Note On D2 100

38c7300b 90 30 62   Note On C2 98
38c73287 90 32 00   Note On(0-Off) D2

38c7328e 90 30 00   Note On(0-Off) C2
38c732eb 90 32 4b   Note On D2 75
38c73654 90 32 00   Note On(0-Off) D2
38c7bdaf 90 46 01   Note On Bb3 1
38c7c00b 90 46 00   Note On(0-Off) Bb3
38d0b6a8 90 45 52   Note On A3 82

38d0b6ab 90 40 4d   Note On E3 77
38d0b9fc 90 40 00   Note On(0-Off) E3

38d0ba01 90 45 00   Note On(0-Off) A3
38d0ba7f 90 45 5b   Note On A3 91

38d0ba83 90 40 5e   Note On E3 94
38d0be38 90 45 00   Note On(0-Off) A3

38d0be5d 90 40 00   Note On(0-Off) E3
38d0beda 90 45 5b   Note On A3 91

38d0bee0 90 40 52   Note On E3 82
38d0c4d3 90 45 00   Note On(0-Off) A3
38d0c4e1 90 40 00   Note On(0-Off) E3
38d3152b 90 24 79   Note On C1 121
38d31663 90 2b 21   Note On G1 33
38d316c4 90 24 00   Note On(0-Off) C1
38d317b2 90 2b 00   Note On(0-Off) G1

38d317f5 90 30 27   Note On C2 39
38d318d7 90 30 00   Note On(0-Off) C2
38d31951 90 32 49   Note On D2 73
38d31a9d 90 34 4d   Note On E2 77

38d31adf 90 32 00   Note On(0-Off) D2
38d31c01 90 37 47   Note On G2 71

38d31c0e 90 34 00   Note On(0-Off) E2
38d31d1d 90 40 5e   Note On E3 94
38d31dad 90 37 00   Note On(0-Off) G2
38d31e76 90 48 64   Note On C4 100
38d31ea4 90 40 00   Note On(0-Off) E3
38d31fb1 90 48 00   Note On(0-Off) C4

38d31fb2 90 2d 59   Note On A1 89

38d31fbd 90 47 72   Note On B3 114
38d320d5 90 34 45   Note On E2 69
38d3211d 90 2d 00   Note On(0-Off) A1
38d321ed 90 34 00   Note On(0-Off) E2
38d3221f 90 39 3d   Note On A2 61
38d32340 90 39 00   Note On(0-Off) A2
38d3235c 90 48 6b   Note On C4 107

38d32360 90 3b 6b   Note On B2 107

38d32370 90 47 00   Note On(0-Off) B3
38d324be 90 3b 00   Note On(0-Off) B2
38d32512 90 48 00   Note On(0-Off) C4
38d325f5 90 4a 6d   Note On D4 109
38d326a9 90 4a 00   Note On(0-Off) D4
38d3289f 90 51 5e   Note On A4 94

38d328a4 90 4f 42   Note On G4 66

38d328b2 90 4f 00   Note On(0-Off) G4
38d329b1 90 26 3f   Note On D1 63
38d32b04 90 2d 3a   Note On A1 58
38d32b77 90 26 00   Note On(0-Off) D1
38d32c37 90 2d 00   Note On(0-Off) A1
38d32c90 90 32 21   Note On D2 33
38d32d56 90 32 00   Note On(0-Off) D2
38d32de9 90 34 3d   Note On E2 61
38d32f52 90 35 4f   Note On F2 79
38d32f8e 90 34 00   Note On(0-Off) E2
38d330a8 90 39 44   Note On A2 68
38d330c8 90 35 00   Note On(0-Off) F2
38d3316f 90 39 00   Note On(0-Off) A2
38d33201 90 51 00   Note On(0-Off) A4

38d33208 90 4f 40   Note On G4 64
38d33349 90 4d 6e   Note On F4 110
38d33389 90 4f 00   Note On(0-Off) G4
38d334a6 90 2b 44   Note On G1 68
38d334ca 90 4c 72   Note On E4 114

38d334d5 90 4d 00   Note On(0-Off) F4
38d335f6 90 32 3f   Note On D2 63
38d3364b 90 2b 00   Note On(0-Off) G1
38d3371c 90 32 00   Note On(0-Off) D2

38d33750 90 37 3f   Note On G2 63
38d3384d 90 37 00   Note On(0-Off) G2

38d3387b 90 39 3e   Note On A2 62

38d33880 90 4d 7b   Note On F4 123

38d3388d 90 4c 00   Note On(0-Off) E4
38d339af 90 3b 5f   Note On B2 95
38d339e6 90 39 00   Note On(0-Off) A2
38d33aa6 90 3b 00   Note On(0-Off) B2
38d33b26 90 4f 6b   Note On G4 107

38d33b4a 90 4d 00   Note On(0-Off) F4
38d33bec 90 4f 00   Note On(0-Off) G4
38d33f24 90 5b 64   Note On G5 100

38d33f33 90 24 76   Note On C1 118
38d34089 90 2b 3d   Note On G1 61
38d340d9 90 24 00   Note On(0-Off) C1
38d34198 90 2b 00   Note On(0-Off) G1
38d341d8 90 30 3a   Note On C2 58
38d342ba 90 30 00   Note On(0-Off) C2
38d34351 90 32 33   Note On D2 51
38d344a1 90 34 3f   Note On E2 63

38d344cd 90 32 00   Note On(0-Off) D2
38d345b8 90 5b 00   Note On(0-Off) G5

38d34608 90 34 00   Note On(0-Off) E2

38d3460b 90 37 47   Note On G2 71
38d346fc 90 37 00   Note On(0-Off) G2
38d348d8 90 5b 13   Note On G5 19

38d34900 90 59 3f   Note On F5 63
38d34958 90 58 22   Note On E5 34

38d34991 90 56 59   Note On D5 89
38d349e3 90 2d 59   Note On A1 89
38d34a1b 90 54 62   Note On C5 98
38d34b91 90 34 3e   Note On E2 62
38d34bde 90 2d 00   Note On(0-Off) A1
38d34bfa 90 58 00   Note On(0-Off) E5

38d34c05 90 56 00   Note On(0-Off) D5

38d34c08 90 54 00   Note On(0-Off) C5

38d34c23 90 59 00   Note On(0-Off) F5

38d34c33 90 5b 00   Note On(0-Off) G5
38d34ca5 90 34 00   Note On(0-Off) E2
38d34d0b 90 39 25   Note On A2 37
38d34e1b 90 39 00   Note On(0-Off) A2
38d34e68 90 3b 47   Note On B2 71
38d34fdd 90 3b 00   Note On(0-Off) B2
38d3512a 90 40 2c   Note On E3 44
38d351ad 90 40 00   Note On(0-Off) E3
38d35375 90 58 13   Note On E5 19
38d353e9 90 56 13   Note On D5 19

38d35433 90 54 18   Note On C5 24
38d35462 90 53 3c   Note On B4 60
38d354d3 90 26 3e   Note On D1 62

38d354e9 90 51 5f   Note On A4 95
38d3564f 90 2d 31   Note On A1 49
38d356db 90 26 00   Note On(0-Off) D1

38d356f5 90 51 00   Note On(0-Off) A4

38d3571a 90 56 00   Note On(0-Off) D5
38d35748 90 53 00   Note On(0-Off) B4

38d35764 90 54 00   Note On(0-Off) C5
38d3579b 90 58 00   Note On(0-Off) E5

38d357ae 90 2d 00   Note On(0-Off) A1
38d3580f 90 32 1f   Note On D2 31
38d358fc 90 32 00   Note On(0-Off) D2
38d35981 90 34 3e   Note On E2 62
38d35ac7 90 35 33   Note On F2 51

38d35b09 90 34 00   Note On(0-Off) E2
38d35c2d 90 35 00   Note On(0-Off) F2

38d35c33 90 39 3f   Note On A2 63
38d35d04 90 39 00   Note On(0-Off) A2
38d35f04 90 51 13   Note On A4 19
38d35f2c 90 4f 3e   Note On G4 62
38d35f98 90 4d 27   Note On F4 39

38d35fbe 90 4c 45   Note On E4 69
38d3602d 90 2b 3e   Note On G1 62
38d36079 90 4a 3c   Note On D4 60
38d360b6 90 4f 00   Note On(0-Off) G4

38d360bb 90 4d 00   Note On(0-Off) F4

38d360d2 90 4c 00   Note On(0-Off) E4

38d360e0 90 51 00   Note On(0-Off) A4
38d3617e 90 4a 00   Note On(0-Off) D4
38d361fc 90 2b 00   Note On(0-Off) G1

38d36223 90 32 3a   Note On D2 58
38d36363 90 47 6b   Note On B3 107

38d36365 90 43 66   Note On G3 102
38d3640f 90 47 00   Note On(0-Off) B3

38d36415 90 43 00   Note On(0-Off) G3
38d3660b 90 32 00   Note On(0-Off) D2

38d36616 90 37 64   Note On G2 100

38d3661c 90 45 6b   Note On A3 107

38d3661f 90 48 67   Note On C4 103
38d366fb 90 45 00   Note On(0-Off) A3
38d36776 90 48 00   Note On(0-Off) C4
38d3679c 90 37 00   Note On(0-Off) G2
38d368de 90 2d 70   Note On A1 112

38d368e3 90 47 67   Note On B3 103

38d368e6 90 4a 6d   Note On D4 109
38d3698f 90 2d 00   Note On(0-Off) A1
38d369b0 90 47 00   Note On(0-Off) B3

38d369fc 90 4a 00   Note On(0-Off) D4
38d36a55 90 2f 60   Note On B1 96
38d36acc 90 2f 00   Note On(0-Off) B1
38d36bfa 90 43 67   Note On G3 103

38d36c03 90 4d 67   Note On F4 103

38d36c0c 90 48 4f   Note On C4 79
38d36ce8 90 24 31   Note On C1 49
38d36d59 90 43 00   Note On(0-Off) G3

38d36d7f 90 48 00   Note On(0-Off) C4

38d36d8a 90 2b 3a   Note On G1 58

38d36d9f 90 4d 00   Note On(0-Off) F4
38d36de6 90 24 00   Note On(0-Off) C1
38d36e7c 90 2b 00   Note On(0-Off) G1

38d36e9f 90 30 62   Note On C2 98

38d36eb2 90 4c 6d   Note On E4 109

38d36eb7 90 43 64   Note On G3 100

38d36eb8 90 48 67   Note On C4 103
38d36f76 90 43 00   Note On(0-Off) G3

38d36f7a 90 30 00   Note On(0-Off) C2

38d36f87 90 4c 00   Note On(0-Off) E4

38d36f89 90 48 00   Note On(0-Off) C4

38d36f93 90 32 5f   Note On D2 95
38d370cc 90 34 5e   Note On E2 94
38d37100 90 32 00   Note On(0-Off) D2
38d37157 90 4a 67   Note On D4 103

38d3715b 90 43 56   Note On G3 86

38d3715c 90 47 6b   Note On B3 107
38d372cf 90 37 44   Note On G2 68

38d3730b 90 34 00   Note On(0-Off) E2

38d3731d 90 43 00   Note On(0-Off) G3
38d37343 90 47 00   Note On(0-Off) B3

38d37373 90 4a 00   Note On(0-Off) D4
38d3741a 90 2f 66   Note On B1 102

38d3741c 90 37 00   Note On(0-Off) G2

38d37429 90 43 67   Note On G3 103

38d3742a 90 48 69   Note On C4 105
38d374ee 90 43 00   Note On(0-Off) G3

38d37505 90 2f 00   Note On(0-Off) B1
38d375d3 90 48 00   Note On(0-Off) C4
38d376d8 90 2d 64   Note On A1 100

38d376db 90 47 6e   Note On B3 110

38d376dc 90 43 66   Note On G3 102
38d3781c 90 34 62   Note On E2 98

38d37856 90 2d 00   Note On(0-Off) A1

38d37867 90 43 00   Note On(0-Off) G3
38d37891 90 47 00   Note On(0-Off) B3
38d37949 90 34 00   Note On(0-Off) E2

38d37964 90 39 66   Note On A2 102

38d3796e 90 43 67   Note On G3 103

38d37973 90 48 6b   Note On C4 107
38d37a4d 90 43 00   Note On(0-Off) G3

38d37a64 90 39 00   Note On(0-Off) A2
38d37b07 90 48 00   Note On(0-Off) C4
38d37bec 90 2b 67   Note On G1 103

38d37bff 90 43 64   Note On G3 100

38d37c00 90 48 69   Note On C4 105
38d37c01 90 4c 6e   Note On E4 110
38d37cb7 90 43 00   Note On(0-Off) G3
38d37cd8 90 4c 00   Note On(0-Off) E4

38d37ce8 90 2b 00   Note On(0-Off) G1

38d37d08 90 48 00   Note On(0-Off) C4
38d37eae 90 29 67   Note On F1 103

38d37eb2 90 4d 74   Note On F4 116

38d37eb4 90 43 5e   Note On G3 94

38d37eb6 90 48 69   Note On C4 105
38d37f56 90 48 00   Note On(0-Off) C4

38d37f57 90 43 00   Note On(0-Off) G3

38d37f6d 90 29 00   Note On(0-Off) F1

38d37f8b 90 4d 00   Note On(0-Off) F4
38d38151 90 26 67   Note On D1 103

38d3815c 90 51 72   Note On A4 114

38d3815f 90 48 64   Note On C4 100

38d38160 90 4d 72   Note On F4 114
38d382c2 90 2d 62   Note On A1 98

38d382da 90 48 00   Note On(0-Off) C4

38d3830d 90 26 00   Note On(0-Off) D1
38d38315 90 4d 00   Note On(0-Off) F4

38d38326 90 51 00   Note On(0-Off) A4
38d383ca 90 2d 00   Note On(0-Off) A1
38d3842f 90 32 3a   Note On D2 58
38d38509 90 32 00   Note On(0-Off) D2
38d3856b 90 34 13   Note On E2 19
38d3864b 90 34 00   Note On(0-Off) E2
38d386f3 90 53 6d   Note On B4 109

38d386f5 90 4f 6b   Note On G4 107

38d386f7 90 4a 6b   Note On D4 107
38d38705 90 28 76   Note On E1 118
38d38835 90 4a 00   Note On(0-Off) D4

38d38870 90 53 00   Note On(0-Off) B4

38d38875 90 4f 00   Note On(0-Off) G4

38d3887a 90 2f 5b   Note On B1 91
38d388ea 90 28 00   Note On(0-Off) E1
38d389bb 90 34 60   Note On E2 96
38d389d5 90 2f 00   Note On(0-Off) B1
38d38b33 90 34 00   Note On(0-Off) E2
38d38b6b 90 4f 49   Note On G4 73

38d38ba2 90 51 12   Note On A4 18
38d38bd0 90 4f 00   Note On(0-Off) G4
38d38cb9 90 51 00   Note On(0-Off) A4

38d38cca 90 29 47   Note On F1 71

38d38cdf 90 4f 59   Note On G4 89
38d38e30 90 30 4f   Note On C2 79
38d38e98 90 29 00   Note On(0-Off) F1
38d38f61 90 30 00   Note On(0-Off) C2

38d38f8b 90 4d 6b   Note On F4 107

38d38f90 90 4f 00   Note On(0-Off) G4
38d391b5 90 4d 00   Note On(0-Off) F4
38d396ac 90 4c 44   Note On E4 68
38d397f6 90 2b 47   Note On G1 71

38d3980c 90 4a 60   Note On D4 96

38d3982a 90 4c 00   Note On(0-Off) E4
38d399fa 90 2b 00   Note On(0-Off) G1
38d39b5f 90 4a 00   Note On(0-Off) D4
38d39d75 90 4a 72   Note On D4 114
38d39efc 90 48 6d   Note On C4 109

38d39f0e 90 4a 00   Note On(0-Off) D4
38d39fcc 90 48 00   Note On(0-Off) C4
38d3a1bc 90 47 47   Note On B3 71
38d3a2cf 90 47 00   Note On(0-Off) B3
38d3a314 90 2d 6d   Note On A1 109

38d3a324 90 47 6b   Note On B3 107
38d3a475 90 34 49   Note On E2 73
38d3a4f5 90 2d 00   Note On(0-Off) A1
38d3a531 90 47 00   Note On(0-Off) B3
38d3a5cb 90 34 00   Note On(0-Off) E2
38d3a616 90 39 40   Note On A2 64
38d3a6f7 90 39 00   Note On(0-Off) A2
38d3a749 90 3b 64   Note On B2 100
38d3a92f 90 3b 00   Note On(0-Off) B2
38d3a9fa 90 3b 49   Note On B2 73
38d3ab43 90 40 62   Note On E3 98
38d3ab61 90 3b 00   Note On(0-Off) B2
38d3ac81 90 47 5b   Note On B3 91
38d3adde 90 3b 3c   Note On B2 60
38d3ae6c 90 47 00   Note On(0-Off) B3
38d3ae84 90 40 00   Note On(0-Off) E3
38d3af1c 90 40 47   Note On E3 71

38d3af1e 90 48 4b   Note On C4 75
38d3af7b 90 3b 00   Note On(0-Off) B2
38d3b05a 90 3b 23   Note On B2 35
38d3b0fd 90 3b 00   Note On(0-Off) B2

38d3b111 90 48 00   Note On(0-Off) C4

38d3b129 90 40 00   Note On(0-Off) E3
38d3b1ed 90 40 3a   Note On E3 58

38d3b1f6 90 4a 66   Note On D4 102
38d3b30f 90 2b 3a   Note On G1 58
38d3b3b4 90 40 00   Note On(0-Off) E3

38d3b3fa 90 4a 00   Note On(0-Off) D4
38d3b492 90 2b 00   Note On(0-Off) G1

38d3b4a2 90 4c 45   Note On E4 69
38d3b661 90 4c 00   Note On(0-Off) E4
38d3b70b 90 45 3a   Note On A3 58

38d3b70c 90 48 2f   Note On C4 47
38d3b84d 90 29 12   Note On F1 18
38d3b9ba 90 30 3a   Note On C2 58
38d3ba0e 90 29 00   Note On(0-Off) F1
38d3ba63 90 48 00   Note On(0-Off) C4

38d3baa9 90 30 00   Note On(0-Off) C2

38d3bab7 90 45 00   Note On(0-Off) A3
38d3bb3d 90 35 1f   Note On F2 31
38d3bbba 90 35 00   Note On(0-Off) F2
38d3bc84 90 37 34   Note On G2 52
38d3bdf3 90 39 3c   Note On A2 60

38d3be12 90 37 00   Note On(0-Off) G2
38d3c088 90 41 4d   Note On F3 77

38d3c09e 90 39 00   Note On(0-Off) A2
38d3c1e9 90 43 64   Note On G3 100
38d3c30b 90 41 00   Note On(0-Off) F3

38d3c325 90 43 00   Note On(0-Off) G3

38d3c347 90 29 40   Note On F1 64

38d3c358 90 45 3e   Note On A3 62

38d3c35c 90 41 5e   Note On F3 94
38d3c4b0 90 30 40   Note On C2 64

38d3c4fb 90 29 00   Note On(0-Off) F1
38d3c63e 90 35 59   Note On F2 89

38d3c647 90 30 00   Note On(0-Off) C2

38d3c68a 90 45 00   Note On(0-Off) A3
38d3c69e 90 41 00   Note On(0-Off) F3
38d3c71b 90 35 00   Note On(0-Off) F2
38d3c773 90 41 3d   Note On F3 61

38d3c778 90 45 3d   Note On A3 61
38d3c82e 90 41 00   Note On(0-Off) F3

38d3c82e 90 45 00   Note On(0-Off) A3
38d3c8cc 90 35 5e   Note On F2 94

38d3c8d4 90 45 6b   Note On A3 107

38d3c8d5 90 41 6d   Note On F3 109
38d3c991 90 35 00   Note On(0-Off) F2

38d3c9c8 90 41 00   Note On(0-Off) F3

38d3c9cc 90 45 00   Note On(0-Off) A3
38d3ca17 90 43 5e   Note On G3 94

38d3ca18 90 40 64   Note On E3 100
38d3ca4e 90 28 70   Note On E1 112
38d3cabd 90 40 00   Note On(0-Off) E3

38d3cac3 90 43 00   Note On(0-Off) G3
38d3cb20 90 28 00   Note On(0-Off) E1

38d3cb52 90 43 69   Note On G3 105

38d3cb59 90 40 6b   Note On E3 107
38d3cc5a 90 40 00   Note On(0-Off) E3
38d3ccb0 90 40 60   Note On E3 96

38d3ccb8 90 43 00   Note On(0-Off) G3
38d3cdd8 90 40 00   Note On(0-Off) E3

38d3ce0f 90 26 5f   Note On D1 95

38d3ce20 90 41 67   Note On F3 103
38d3cf6a 90 2d 4d   Note On A1 77

38d3cfa7 90 26 00   Note On(0-Off) D1
38d3d04a 90 2d 00   Note On(0-Off) A1
38d3d0bd 90 32 3d   Note On D2 61
38d3d14a 90 32 00   Note On(0-Off) D2
38d3d1f2 90 34 4d   Note On E2 77
38d3d34e 90 35 49   Note On F2 73
38d3d385 90 34 00   Note On(0-Off) E2
38d3d4a2 90 39 4d   Note On A2 77

38d3d4a7 90 35 00   Note On(0-Off) F2
38d3d535 90 39 00   Note On(0-Off) A2
38d3d824 90 24 76   Note On C1 118
38d3d95c 90 2b 36   Note On G1 54
38d3d9c1 90 24 00   Note On(0-Off) C1
38d3da7b 90 2b 00   Note On(0-Off) G1
38d3dabd 90 30 27   Note On C2 39
38d3db62 90 30 00   Note On(0-Off) C2
38d3dbc9 90 32 3e   Note On D2 62
38d3dc33 90 40 47   Note On E3 71

38d3dc3b 90 41 00   Note On(0-Off) F3
38d3dd02 90 40 00   Note On(0-Off) E3
38d3dd7f 90 34 69   Note On E2 105

38d3dd85 90 40 69   Note On E3 105

38d3dd98 90 32 00   Note On(0-Off) D2
38d3dea0 90 34 00   Note On(0-Off) E2

38d3dedf 90 40 00   Note On(0-Off) E3
38d3e2e7 90 2e 60   Note On Bb1 96

38d3e2ed 90 3e 6e   Note On D3 110
38d3e44e 90 35 5f   Note On F2 95
38d3e572 90 3a 49   Note On Bb2 73

38d3e593 90 35 00   Note On(0-Off) F2
38d3e5bd 90 3e 00   Note On(0-Off) D3
38d3e6cb 90 3e 72   Note On D3 114
38d3e833 90 40 76   Note On E3 118

38d3e86c 90 2e 00   Note On(0-Off) Bb1
38d3e89d 90 3a 00   Note On(0-Off) Bb2
38d3e950 90 3a 3e   Note On Bb2 62
38d3ea05 90 3e 00   Note On(0-Off) D3

38d3ea25 90 40 00   Note On(0-Off) E3
38d3eabd 90 3e 72   Note On D3 114
38d3eb25 90 3a 00   Note On(0-Off) Bb2
38d3ebd2 90 3a 3f   Note On Bb2 63

38d3ebef 90 40 72   Note On E3 114
38d3ecd1 90 3e 00   Note On(0-Off) D3
38d3ed2b 90 3a 00   Note On(0-Off) Bb2

38d3ed2c 90 40 00   Note On(0-Off) E3
38d3ed96 90 3e 66   Note On D3 102

38d3ed96 90 41 6b   Note On F3 107

38d3ed96 90 2e 64   Note On Bb1 100
38d3eeb5 90 3a 67   Note On Bb2 103

38d3eee3 90 2e 00   Note On(0-Off) Bb1

38d3eee9 90 3e 00   Note On(0-Off) D3
38d3ef5e 90 41 00   Note On(0-Off) F3
38d3f003 90 3e 6b   Note On D3 107
38d3f09e 90 3a 00   Note On(0-Off) Bb2
38d3f135 90 40 70   Note On E3 112
38d3f220 90 3e 00   Note On(0-Off) D3
38d3f247 90 40 00   Note On(0-Off) E3

38d3f295 90 41 6d   Note On F3 109
38d3f2ae 90 3a 52   Note On Bb2 82
38d3f3d8 90 3e 52   Note On D3 82
38d3f3dc 90 41 00   Note On(0-Off) F3
38d3f539 90 40 67   Note On E3 103
38d3f5e6 90 3a 00   Note On(0-Off) Bb2
38d3f6aa 90 41 6d   Note On F3 109
38d3f782 90 40 00   Note On(0-Off) E3

38d3f791 90 3e 00   Note On(0-Off) D3
38d3f7cc 90 41 00   Note On(0-Off) F3

38d3f7fa 90 2b 66   Note On G1 102

38d3f7fb 90 41 62   Note On F3 98

38d3f807 90 45 62   Note On A3 98

38d3f80e 90 3e 66   Note On D3 102
38d3f95c 90 32 62   Note On D2 98

38d3f9b4 90 2b 00   Note On(0-Off) G1
38d3fa67 90 32 00   Note On(0-Off) D2
38d3faaf 90 3e 00   Note On(0-Off) D3

38d3fab3 90 37 3e   Note On G2 62

38d3fae2 90 45 00   Note On(0-Off) A3
38d3fb05 90 41 00   Note On(0-Off) F3
38d3fb76 90 37 00   Note On(0-Off) G2
38d3fbe5 90 39 52   Note On A2 82
38d3fd49 90 3b 62   Note On B2 98
38d3fd8c 90 39 00   Note On(0-Off) A2
38d3ff2a 90 3b 00   Note On(0-Off) B2
38d3ffc3 90 45 59   Note On A3 89
38d40134 90 45 00   Note On(0-Off) A3
38d40253 90 43 36   Note On G3 54
38d40a81 90 43 00   Note On(0-Off) G3
38d40cb3 90 30 34   Note On C2 52
38d40e12 90 37 3e   Note On G2 62
38d40e6e 90 30 00   Note On(0-Off) C2
38d40f26 90 37 00   Note On(0-Off) G2
38d410ac 90 3e 40   Note On D3 64
38d41207 90 40 3e   Note On E3 62

38d41210 90 3e 00   Note On(0-Off) D3
38d41356 90 43 4b   Note On G3 75

38d41362 90 40 00   Note On(0-Off) E3
38d41448 90 43 00   Note On(0-Off) G3
38d414b5 90 48 40   Note On C4 64
38d415c8 90 4f 52   Note On G4 82
38d41713 90 2d 5f   Note On A1 95

38d41733 90 4d 7d   Note On F4 125
38d41758 90 4f 00   Note On(0-Off) G4
38d41844 90 34 5e   Note On E2 94
38d4187d 90 2d 00   Note On(0-Off) A1
38d41920 90 34 00   Note On(0-Off) E2
38d4196f 90 39 2b   Note On A2 43
38d419b5 90 4c 66   Note On E4 102

38d419cf 90 4d 00   Note On(0-Off) F4
38d41a11 90 39 00   Note On(0-Off) A2
38d41aa9 90 3b 5f   Note On B2 95
38d41aef 90 4a 67   Note On D4 103

38d41b02 90 4c 00   Note On(0-Off) E4
38d41b6e 90 48 00   Note On(0-Off) C4
38d41c42 90 3b 00   Note On(0-Off) B2
38d41d6c 90 40 3f   Note On E3 63

38d41d77 90 48 64   Note On C4 100
38d41d9d 90 4a 00   Note On(0-Off) D4
38d41e51 90 40 00   Note On(0-Off) E3
38d42007 90 4d 64   Note On F4 100
38d42145 90 32 40   Note On D2 64
38d42284 90 39 40   Note On A2 64
38d422c3 90 32 00   Note On(0-Off) D2

38d422c6 90 4d 00   Note On(0-Off) F4

38d422d1 90 48 00   Note On(0-Off) C4
38d42360 90 39 00   Note On(0-Off) A2
38d423d7 90 3e 36   Note On D3 54
38d4248c 90 3e 00   Note On(0-Off) D3
38d42516 90 40 2b   Note On E3 43

38d42520 90 41 28   Note On F3 40
38d42579 90 41 00   Note On(0-Off) F3
38d42673 90 41 74   Note On F3 116
38d426dd 90 40 00   Note On(0-Off) E3
38d427a8 90 40 52   Note On E3 82
38d428a5 90 40 00   Note On(0-Off) E3
38d428f9 90 45 6e   Note On A3 110
38d4293b 90 41 00   Note On(0-Off) F3
38d42a4e 90 4c 5f   Note On E4 95
38d42a6a 90 48 47   Note On C4 71

38d42abd 90 45 00   Note On(0-Off) A3
38d42b2d 90 48 00   Note On(0-Off) C4

38d42b31 90 4c 00   Note On(0-Off) E4
38d42b9d 90 2b 44   Note On G1 68

38d42bb2 90 4c 64   Note On E4 100

38d42bb5 90 41 60   Note On F3 96

38d42bb5 90 45 6b   Note On A3 107

38d42bb7 90 48 66   Note On C4 102
38d42cd3 90 32 40   Note On D2 64

38d42d22 90 2b 00   Note On(0-Off) G1
38d42d2f 90 41 00   Note On(0-Off) F3

38d42d48 90 45 00   Note On(0-Off) A3

38d42d79 90 4c 00   Note On(0-Off) E4
38d42dd2 90 48 00   Note On(0-Off) C4
38d42e35 90 41 3c   Note On F3 60

38d42e36 90 4a 56   Note On D4 86

38d42e37 90 45 5b   Note On A3 91
38d42ecd 90 45 00   Note On(0-Off) A3

38d42ed6 90 41 00   Note On(0-Off) F3

38d42edf 90 4a 00   Note On(0-Off) D4
38d42f70 90 41 67   Note On F3 103

38d42f72 90 45 70   Note On A3 112

38d42f73 90 48 69   Note On C4 105
38d43040 90 32 00   Note On(0-Off) D2
38d430c6 90 37 66   Note On G2 102
38d4318c 90 45 00   Note On(0-Off) A3
38d431fe 90 47 70   Note On B3 112

38d43206 90 48 00   Note On(0-Off) C4
38d4325a 90 37 00   Note On(0-Off) G2
38d432b9 90 47 00   Note On(0-Off) B3

38d432bd 90 41 00   Note On(0-Off) F3
38d435c4 90 40 67   Note On E3 103

38d435c8 90 43 6b   Note On G3 107

38d435d3 90 30 60   Note On C2 96
38d4372c 90 43 00   Note On(0-Off) G3

38d43736 90 40 00   Note On(0-Off) E3

38d4373a 90 37 67   Note On G2 103

38d4375f 90 30 00   Note On(0-Off) C2
38d43893 90 40 67   Note On E3 103
38d43909 90 37 00   Note On(0-Off) G2
38d439ca 90 40 00   Note On(0-Off) E3

38d439d9 90 37 34   Note On G2 52
38d43abb 90 37 00   Note On(0-Off) G2
38d43b11 90 3e 6b   Note On D3 107

38d43b1d 90 2f 6d   Note On B1 109
38d43c44 90 35 5b   Note On F2 91

38d43c7b 90 2f 00   Note On(0-Off) B1
38d43cc0 90 3e 00   Note On(0-Off) D3
38d43d8e 90 40 3e   Note On E3 62
38d43de1 90 35 00   Note On(0-Off) F2
38d43ed6 90 35 34   Note On F2 52
38d43fbe 90 35 00   Note On(0-Off) F2

38d43ffc 90 2d 66   Note On A1 102
38d44037 90 40 00   Note On(0-Off) E3
38d44149 90 34 49   Note On E2 73

38d44189 90 2d 00   Note On(0-Off) A1
38d44233 90 34 00   Note On(0-Off) E2
38d44277 90 39 52   Note On A2 82
38d44334 90 39 00   Note On(0-Off) A2
38d443e0 90 45 52   Note On A3 82
38d44480 90 47 62   Note On B3 98

38d444b2 90 45 00   Note On(0-Off) A3
38d4452b 90 47 00   Note On(0-Off) B3
38d44534 90 2b 67   Note On G1 103

38d44537 90 41 66   Note On F3 102

38d4453a 90 48 5e   Note On C4 94
38d44616 90 2b 00   Note On(0-Off) G1

38d44629 90 41 00   Note On(0-Off) F3

38d4463a 90 48 00   Note On(0-Off) C4
38d4469b 90 45 5e   Note On A3 94

38d446a1 90 41 04   Note On F3 4
38d44716 90 41 00   Note On(0-Off) F3
38d44774 90 45 00   Note On(0-Off) A3
38d447de 90 43 3f   Note On G3 63
38d44934 90 41 4f   Note On F3 79

38d44955 90 43 00   Note On(0-Off) G3
38d44a19 90 41 00   Note On(0-Off) F3
38d44a83 90 29 45   Note On F1 69

38d44a86 90 41 64   Note On F3 100
38d44bbc 90 30 3e   Note On C2 62
38d44bee 90 29 00   Note On(0-Off) F1
38d44c4a 90 41 00   Note On(0-Off) F3

38d44c68 90 30 00   Note On(0-Off) C2
38d44cd2 90 35 14   Note On F2 20
38d44d69 90 35 00   Note On(0-Off) F2
38d44f8e 90 26 64   Note On D1 100

38d44f94 90 45 60   Note On A3 96

38d44f9c 90 41 44   Note On F3 68

38d44fa0 90 3e 56   Note On D3 86
38d450d4 90 3e 00   Note On(0-Off) D3

38d450d5 90 2d 3d   Note On A1 61

38d450d6 90 45 00   Note On(0-Off) A3
38d45106 90 41 00   Note On(0-Off) F3

38d45110 90 26 00   Note On(0-Off) D1
38d45216 90 2d 00   Note On(0-Off) A1

38d4521f 90 32 2f   Note On D2 47
38d4528f 90 32 00   Note On(0-Off) D2
38d45364 90 40 45   Note On E3 69
38d4537a 90 48 3e   Note On C4 62

38d4537d 90 43 49   Note On G3 73
38d453f6 90 40 00   Note On(0-Off) E3

38d45437 90 43 00   Note On(0-Off) G3

38d45447 90 48 00   Note On(0-Off) C4
38d454ba 90 24 7e   Note On C1 126

38d454c6 90 48 44   Note On C4 68

38d454c8 90 43 69   Note On G3 105

38d454cb 90 40 70   Note On E3 112
38d455d2 90 48 00   Note On(0-Off) C4

38d455e2 90 2b 4f   Note On G1 79
38d455ef 90 43 00   Note On(0-Off) G3

38d45645 90 24 00   Note On(0-Off) C1
38d45688 90 40 00   Note On(0-Off) E3
38d45716 90 40 2b   Note On E3 43

38d45717 90 4a 6b   Note On D4 107

38d4571b 90 43 66   Note On G3 102

38d4571c 90 30 72   Note On C2 114
38d45741 90 2b 00   Note On(0-Off) G1
38d4579d 90 43 00   Note On(0-Off) G3

38d457ca 90 4a 00   Note On(0-Off) D4
38d457f1 90 40 00   Note On(0-Off) E3
38d45852 90 30 00   Note On(0-Off) C2

38d458af 90 40 02   Note On E3 2
38d4594e 90 40 00   Note On(0-Off) E3
38d459a1 90 2e 4d   Note On Bb1 77

38d459c0 90 40 60   Note On E3 96

38d459c4 90 4c 70   Note On E4 112

38d459c5 90 43 6d   Note On G3 109
38d45ac2 90 43 00   Note On(0-Off) G3

38d45ad1 90 4c 00   Note On(0-Off) E4

38d45afc 90 40 00   Note On(0-Off) E3
38d45c7b 90 4d 74   Note On F4 116

38d45c7e 90 2e 00   Note On(0-Off) Bb1
38d45de7 90 4d 00   Note On(0-Off) F4
38d45efd 90 29 60   Note On F1 96
38d45f07 90 45 69   Note On A3 105

38d45f09 90 48 6b   Note On C4 107
38d46039 90 30 4f   Note On C2 79
38d46099 90 29 00   Note On(0-Off) F1
38d46132 90 30 00   Note On(0-Off) C2
38d4617a 90 35 2f   Note On F2 47
38d46224 90 35 00   Note On(0-Off) F2
38d462ca 90 37 36   Note On G2 54
38d4641a 90 39 38   Note On A2 56
38d46443 90 37 00   Note On(0-Off) G2
38d4657e 90 39 00   Note On(0-Off) A2
38d46747 90 48 00   Note On(0-Off) C4
38d4677a 90 45 00   Note On(0-Off) A3
38d467e1 90 48 5e   Note On C4 94

38d467e2 90 45 5e   Note On A3 94
38d46894 90 45 00   Note On(0-Off) A3
38d4689e 90 48 00   Note On(0-Off) C4
38d46928 90 2b 5b   Note On G1 91

38d46941 90 43 66   Note On G3 102

38d46943 90 47 6b   Note On B3 107
38d46a63 90 32 59   Note On D2 89
38d46aac 90 2b 00   Note On(0-Off) G1
38d46b42 90 32 00   Note On(0-Off) D2
38d46bb4 90 37 2f   Note On G2 47
38d46c3b 90 37 00   Note On(0-Off) G2
38d46d12 90 39 40   Note On A2 64
38d46e53 90 3b 3e   Note On B2 62

38d46e60 90 39 00   Note On(0-Off) A2
38d46f7e 90 3b 00   Note On(0-Off) B2

38d46f86 90 3e 3c   Note On D3 60
38d4703d 90 3e 00   Note On(0-Off) D3
38d47081 90 47 00   Note On(0-Off) B3

38d47082 90 43 00   Note On(0-Off) G3
38d47209 90 41 56   Note On F3 86

38d4720c 90 45 67   Note On A3 103
38d472cc 90 41 00   Note On(0-Off) F3
38d472d5 90 45 00   Note On(0-Off) A3
38d47368 90 28 5b   Note On E1 91

38d4736e 90 40 5f   Note On E3 95

38d47373 90 43 66   Note On G3 102
38d474ae 90 2f 3e   Note On B1 62
38d474da 90 28 00   Note On(0-Off) E1
38d4754b 90 2f 00   Note On(0-Off) B1
38d475e0 90 34 21   Note On E2 33
38d47634 90 34 00   Note On(0-Off) E2
38d476d8 90 36 1d   Note On F#2 29
38d47873 90 37 60   Note On G2 96

38d47885 90 40 00   Note On(0-Off) E3

38d4788e 90 43 00   Note On(0-Off) G3

38d4789f 90 36 00   Note On(0-Off) F#2
38d479ab 90 3b 6d   Note On B2 109

38d479be 90 37 00   Note On(0-Off) G2
38d47ac8 90 3b 00   Note On(0-Off) B2

38d47af6 90 41 6b   Note On F3 107

38d47af8 90 3e 66   Note On D3 102
38d47c12 90 41 00   Note On(0-Off) F3

38d47c22 90 3e 00   Note On(0-Off) D3
38d47d82 90 2d 52   Note On A1 82

38d47d8f 90 40 66   Note On E3 102
38d47ec9 90 34 52   Note On E2 82
38d47f23 90 2d 00   Note On(0-Off) A1
38d47fa7 90 34 00   Note On(0-Off) E2

38d47fb1 90 40 00   Note On(0-Off) E3
38d48056 90 39 40   Note On A2 64
38d48131 90 39 00   Note On(0-Off) A2
38d48171 90 3b 3d   Note On B2 61
38d48329 90 3b 00   Note On(0-Off) B2
38d487e4 90 26 47   Note On D1 71
38d48910 90 2d 3f   Note On A1 63
38d4896e 90 26 00   Note On(0-Off) D1
38d48a16 90 2d 00   Note On(0-Off) A1

38d48a6a 90 32 27   Note On D2 39
38d48acf 90 32 00   Note On(0-Off) D2
38d48bd0 90 34 1c   Note On E2 28
38d48d36 90 35 60   Note On F2 96

38d48d41 90 34 00   Note On(0-Off) E2
38d48d4f 90 45 62   Note On A3 98

38d48d58 90 4a 66   Note On D4 102

38d48d58 90 4d 66   Note On F4 102
38d48e92 90 39 5e   Note On A2 94

38d48e94 90 35 00   Note On(0-Off) F2
38d48f15 90 4d 00   Note On(0-Off) F4

38d48f46 90 39 00   Note On(0-Off) A2

38d48f6b 90 45 00   Note On(0-Off) A3
38d48fab 90 4a 00   Note On(0-Off) D4
38d490e3 90 45 47   Note On A3 71

38d490e6 90 4c 67   Note On E4 103

38d490e7 90 48 52   Note On C4 82
38d4918b 90 4c 00   Note On(0-Off) E4

38d4918c 90 45 00   Note On(0-Off) A3

38d4919e 90 48 00   Note On(0-Off) C4
38d49249 90 43 67   Note On G3 103

38d4924d 90 4a 69   Note On D4 105

38d4924e 90 47 6b   Note On B3 107

38d49253 90 2b 59   Note On G1 89
38d49385 90 32 4b   Note On D2 75

38d493ba 90 2b 00   Note On(0-Off) G1
38d49465 90 32 00   Note On(0-Off) D2
38d494d5 90 37 21   Note On G2 33
38d4950e 90 47 00   Note On(0-Off) B3

38d4952b 90 43 00   Note On(0-Off) G3

38d49536 90 4a 00   Note On(0-Off) D4
38d49571 90 37 00   Note On(0-Off) G2
38d495f8 90 39 60   Note On A2 96

38d49600 90 43 42   Note On G3 66

38d49602 90 4c 66   Note On E4 102

38d49606 90 48 60   Note On C4 96
38d496bb 90 43 00   Note On(0-Off) G3

38d496bc 90 48 00   Note On(0-Off) C4

38d496c0 90 4c 00   Note On(0-Off) E4
38d4975e 90 43 67   Note On G3 103

38d49765 90 4d 6e   Note On F4 110

38d49766 90 48 6d   Note On C4 109

38d4976c 90 3b 67   Note On B2 103

38d4976d 90 39 00   Note On(0-Off) A2
38d4982e 90 48 00   Note On(0-Off) C4
38d498d3 90 4d 00   Note On(0-Off) F4
38d49931 90 43 00   Note On(0-Off) G3
38d49975 90 3b 00   Note On(0-Off) B2
38d49b2f 90 4c 66   Note On E4 102
38d49bd1 90 4c 00   Note On(0-Off) E4
38d49c84 90 24 76   Note On C1 118

38d49c97 90 4f 64   Note On G4 100

38d49c9c 90 48 47   Note On C4 71

38d49c9d 90 4c 6b   Note On E4 107
38d49db5 90 2b 4b   Note On G1 75
38d49e10 90 24 00   Note On(0-Off) C1
38d49eaf 90 2b 00   Note On(0-Off) G1
38d49ef4 90 30 3c   Note On C2 60
38d49f98 90 30 00   Note On(0-Off) C2
38d4a06a 90 32 3a   Note On D2 58
38d4a1c9 90 34 4b   Note On E2 75
38d4a206 90 32 00   Note On(0-Off) D2
38d4a312 90 37 5e   Note On G2 94

38d4a314 90 34 00   Note On(0-Off) E2
38d4a336 90 48 00   Note On(0-Off) C4
38d4a3a5 90 37 00   Note On(0-Off) G2
38d4a3ec 90 4f 00   Note On(0-Off) G4
38d4a459 90 48 3c   Note On C4 60

38d4a46b 90 4c 00   Note On(0-Off) E4
38d4a5ba 90 4a 6b   Note On D4 107

38d4a5e5 90 48 00   Note On(0-Off) C4
38d4a6fc 90 46 28   Note On Bb3 40

38d4a70a 90 4f 59   Note On G4 89

38d4a72b 90 2e 67   Note On Bb1 103
38d4a731 90 3a 56   Note On Bb2 86
38d4a804 90 3a 00   Note On(0-Off) Bb2

38d4a822 90 4f 00   Note On(0-Off) G4

38d4a830 90 2e 00   Note On(0-Off) Bb1

38d4a845 90 4a 00   Note On(0-Off) D4
38d4a941 90 46 00   Note On(0-Off) Bb3
38d4a9a5 90 2d 4b   Note On A1 75

38d4a9b4 90 46 44   Note On Bb3 68

38d4a9b5 90 51 5b   Note On A4 91

38d4a9b6 90 39 44   Note On A2 68

38d4a9ba 90 4a 76   Note On D4 118
38d4aa56 90 51 00   Note On(0-Off) A4

38d4aa7a 90 2d 00   Note On(0-Off) A1

38d4aa7f 90 4a 00   Note On(0-Off) D4

38d4aa92 90 39 00   Note On(0-Off) A2
38d4ac36 90 2b 40   Note On G1 64

38d4ac3a 90 52 64   Note On Bb4 100

38d4ac45 90 37 3d   Note On G2 61
38d4ac4c 90 4a 76   Note On D4 118
38d4acf3 90 4a 00   Note On(0-Off) D4

38d4ad02 90 52 00   Note On(0-Off) Bb4

38d4ad0e 90 2b 00   Note On(0-Off) G1
38d4ad1a 90 37 00   Note On(0-Off) G2
38d4ad80 90 51 60   Note On A4 96

38d4ad87 90 4a 6b   Note On D4 107

38d4ad98 90 29 3f   Note On F1 63

38d4ada7 90 35 3c   Note On F2 60

38d4adac 90 37 33   Note On G2 51

38d4add6 90 37 00   Note On(0-Off) G2

38d4add7 90 35 00   Note On(0-Off) F2
38d4ade0 90 4a 00   Note On(0-Off) D4

38d4adf6 90 29 00   Note On(0-Off) F1

38d4ae00 90 51 00   Note On(0-Off) A4

38d4ae08 90 46 00   Note On(0-Off) Bb3
38d4aebf 90 4f 69   Note On G4 105

38d4aed1 90 26 5b   Note On D1 91

38d4aedc 90 32 4b   Note On D2 75
38d4af65 90 4f 00   Note On(0-Off) G4
38d4af7d 90 26 00   Note On(0-Off) D1

38d4af88 90 32 00   Note On(0-Off) D2
38d4b148 90 4d 6b   Note On F4 107

38d4b14c 90 4a 64   Note On D4 100

38d4b15c 90 29 66   Note On F1 102
38d4b2b4 90 30 4d   Note On C2 77
38d4b328 90 29 00   Note On(0-Off) F1
38d4b395 90 30 00   Note On(0-Off) C2

38d4b3c0 90 4a 00   Note On(0-Off) D4
38d4b3e8 90 35 2f   Note On F2 47
38d4b468 90 4d 00   Note On(0-Off) F4

38d4b47d 90 35 00   Note On(0-Off) F2
38d4b518 90 37 3d   Note On G2 61
38d4b697 90 39 27   Note On A2 39
38d4b6d9 90 37 00   Note On(0-Off) G2
38d4b83b 90 39 00   Note On(0-Off) A2
38d4b944 90 4d 6e   Note On F4 110

38d4b947 90 45 5f   Note On A3 95

38d4b94a 90 48 67   Note On C4 103
38d4bb2c 90 45 00   Note On(0-Off) A3

38d4bb4a 90 4d 00   Note On(0-Off) F4
38d4bb74 90 48 00   Note On(0-Off) C4
38d4bbec 90 35 62   Note On F2 98

38d4bbf6 90 45 5b   Note On A3 91

38d4bbf9 90 48 5f   Note On C4 95

38d4bbfd 90 4c 6d   Note On E4 109
38d4bd48 90 35 00   Note On(0-Off) F2
38d4bd65 90 45 00   Note On(0-Off) A3

38d4bd8c 90 48 00   Note On(0-Off) C4
38d4bdc1 90 4c 00   Note On(0-Off) E4
38d4be71 90 39 3f   Note On A2 63
38d4be94 90 45 5e   Note On A3 94

38d4be96 90 4d 62   Note On F4 98

38d4be9a 90 48 62   Note On C4 98
38d4bf79 90 45 00   Note On(0-Off) A3

38d4bf87 90 4d 00   Note On(0-Off) F4

38d4bf97 90 39 00   Note On(0-Off) A2

38d4bfa7 90 48 00   Note On(0-Off) C4
38d4bfe7 90 48 64   Note On C4 100

38d4bfeb 90 45 66   Note On A3 102

38d4bfed 90 4c 6d   Note On E4 109
38d4c11e 90 35 56   Note On F2 86
38d4c14d 90 48 00   Note On(0-Off) C4

38d4c18d 90 45 00   Note On(0-Off) A3

38d4c19b 90 4c 00   Note On(0-Off) E4
38d4c26f 90 35 00   Note On(0-Off) F2

38d4c275 90 48 66   Note On C4 102
38d4c27a 90 4d 67   Note On F4 103

38d4c27c 90 45 59   Note On A3 89
38d4c3cd 90 39 3d   Note On A2 61

38d4c3de 90 48 00   Note On(0-Off) C4

38d4c3e2 90 4d 00   Note On(0-Off) F4

38d4c3f2 90 45 00   Note On(0-Off) A3
38d4c502 90 39 00   Note On(0-Off) A2

38d4c51c 90 43 5e   Note On G3 94

38d4c51e 90 4a 60   Note On D4 96

38d4c521 90 47 60   Note On B3 96
38d4c688 90 34 5e   Note On E2 94
38d4c7d2 90 34 00   Note On(0-Off) E2
38d4c913 90 37 69   Note On G2 105
38d4c99c 90 37 00   Note On(0-Off) G2

38d4c9da 90 43 00   Note On(0-Off) G3

38d4c9e7 90 47 00   Note On(0-Off) B3

38d4c9f0 90 4a 00   Note On(0-Off) D4
38d5187d 90 40 5e   Note On E3 94

38d51890 90 48 3e   Note On C4 62

38d51890 90 43 5e   Note On G3 94
38d51e7d 90 48 00   Note On(0-Off) C4

38d51e7f 90 43 00   Note On(0-Off) G3
38d51e81 90 40 00   Note On(0-Off) E3
38d61989 90 37 49   Note On G2 73

38d6198c 90 3e 4d   Note On D3 77

38d61990 90 3b 4d   Note On B2 77

38d6199a 90 24 79   Note On C1 121
38d61e0f 90 24 00   Note On(0-Off) C1

38d61e29 90 37 00   Note On(0-Off) G2

38d61e4f 90 3e 00   Note On(0-Off) D3
38d61e6e 90 3b 00   Note On(0-Off) B2
38d62946 90 44 56   Note On Ab3 86
38d62afb 90 3f 4f   Note On Eb3 79
38d62b43 90 44 00   Note On(0-Off) Ab3
38d62c29 90 3f 00   Note On(0-Off) Eb3
38d62c8c 90 3f 15   Note On Eb3 21

38d62c8e 90 2f 3d   Note On B1 61

38d62c94 90 3b 44   Note On B2 68

38d62c95 90 42 5b   Note On F#3 91
38d62e7f 90 3b 00   Note On(0-Off) B2

38d62e9d 90 3f 00   Note On(0-Off) Eb3

38d62ea2 90 42 00   Note On(0-Off) F#3
38d62ed4 90 2f 00   Note On(0-Off) B1
38d63164 90 2c 21   Note On Ab1 33

38d63165 90 3f 45   Note On Eb3 69

38d63166 90 3b 66   Note On B2 102

38d6316b 90 38 31   Note On Ab2 49
38d63452 90 3b 00   Note On(0-Off) B2

38d63452 90 38 00   Note On(0-Off) Ab2

38d63453 90 3f 00   Note On(0-Off) Eb3
38d6347a 90 2c 00   Note On(0-Off) Ab1
38d63975 90 38 3d   Note On Ab2 61

38d63976 90 3b 69   Note On B2 105

38d6398b 90 28 40   Note On E1 64
38d63b0f 90 3d 67   Note On C#3 103
38d63bba 90 3b 00   Note On(0-Off) B2
38d63bc2 90 28 00   Note On(0-Off) E1

38d63c15 90 38 00   Note On(0-Off) Ab2
38d63ca3 90 3d 00   Note On(0-Off) C#3
38d63cc7 90 3f 49   Note On Eb3 73

38d63ced 90 38 23   Note On Ab2 35
38d63d68 90 38 00   Note On(0-Off) Ab2
38d63dac 90 3f 00   Note On(0-Off) Eb3
38d63e6c 90 2a 3c   Note On F#1 60

38d63e72 90 3d 6e   Note On C#3 110

38d63e76 90 38 3a   Note On Ab2 58
38d64033 90 38 00   Note On(0-Off) Ab2

38d64041 90 3d 00   Note On(0-Off) C#3
38d6410c 90 2a 00   Note On(0-Off) F#1
38d64306 90 44 5f   Note On Ab3 95
38d644ad 90 3f 38   Note On Eb3 56
38d6451b 90 44 00   Note On(0-Off) Ab3
38d645a0 90 3f 00   Note On(0-Off) Eb3
38d64651 90 42 3a   Note On F#3 58

38d64659 90 3b 40   Note On B2 64

38d64662 90 3f 3a   Note On Eb3 58

38d64670 90 2f 60   Note On B1 96
38d64764 90 3f 00   Note On(0-Off) Eb3

38d6476e 90 42 00   Note On(0-Off) F#3
38d64783 90 3b 00   Note On(0-Off) B2
38d647f8 90 3f 15   Note On Eb3 21

38d647ff 90 3b 34   Note On B2 52

38d6480d 90 42 38   Note On F#3 56
38d6489e 90 2f 00   Note On(0-Off) B1
38d648b4 90 3b 00   Note On(0-Off) B2

38d648d8 90 3f 00   Note On(0-Off) Eb3

38d648f2 90 42 00   Note On(0-Off) F#3
38d6499d 90 3f 33   Note On Eb3 51

38d6499f 90 42 3a   Note On F#3 58

38d649a4 90 3b 56   Note On B2 86
38d64a04 90 3b 00   Note On(0-Off) B2

38d64a0c 90 3f 00   Note On(0-Off) Eb3

38d64a11 90 42 00   Note On(0-Off) F#3
38d64b3b 90 38 22   Note On Ab2 34

38d64b54 90 3f 3c   Note On Eb3 60

38d64b5a 90 2c 1d   Note On Ab1 29
38d64b67 90 3b 6b   Note On B2 107
38d64e78 90 3f 00   Note On(0-Off) Eb3
38d64eb0 90 38 00   Note On(0-Off) Ab2
38d64f15 90 2c 00   Note On(0-Off) Ab1
38d6503f 90 3b 00   Note On(0-Off) B2
38d650c7 90 3b 79   Note On B2 121
38d65280 90 3b 00   Note On(0-Off) B2
38d653b4 90 28 56   Note On E1 86

38d653bf 90 38 56   Note On Ab2 86

38d653c0 90 3b 74   Note On B2 116
38d654c0 90 3b 00   Note On(0-Off) B2

38d654c5 90 38 00   Note On(0-Off) Ab2

38d6551d 90 28 00   Note On(0-Off) E1
38d65537 90 3b 69   Note On B2 105

38d65545 90 38 21   Note On Ab2 33

38d65579 90 38 00   Note On(0-Off) Ab2

38d6557b 90 3b 00   Note On(0-Off) B2
38d65591 90 3d 13   Note On C#3 19
38d65627 90 3d 00   Note On(0-Off) C#3

38d65653 90 3d 45   Note On C#3 69
38d656b3 90 3d 00   Note On(0-Off) C#3
38d656d9 90 3f 72   Note On Eb3 114
38d657c9 90 3f 00   Note On(0-Off) Eb3
38d65865 90 38 33   Note On Ab2 51

38d65866 90 2a 64   Note On F#1 100

38d6586b 90 3d 6e   Note On C#3 110
38d659ce 90 38 00   Note On(0-Off) Ab2

38d659e7 90 3d 00   Note On(0-Off) C#3
38d65d27 90 44 72   Note On Ab3 114
38d65d84 90 44 00   Note On(0-Off) Ab3

38d65dbb 90 44 6b   Note On Ab3 107
38d65e07 90 44 00   Note On(0-Off) Ab3

38d65e3c 90 44 4d   Note On Ab3 77
38d65e71 90 44 00   Note On(0-Off) Ab3

38d65e95 90 3f 70   Note On Eb3 112
38d65f32 90 44 6b   Note On Ab3 107

38d65f3c 90 3f 00   Note On(0-Off) Eb3

38d65f5f 90 2a 00   Note On(0-Off) F#1

38d65f61 90 44 00   Note On(0-Off) Ab3

38d65f72 90 44 56   Note On Ab3 86
38d65fb2 90 44 00   Note On(0-Off) Ab3

38d65fe9 90 3f 6e   Note On Eb3 110
38d6606e 90 2c 56   Note On Ab1 86

38d660b1 90 44 79   Note On Ab3 121
38d660c9 90 3f 00   Note On(0-Off) Eb3

38d66113 90 46 6b   Note On Bb3 107

38d6611f 90 44 00   Note On(0-Off) Ab3
38d6613a 90 46 00   Note On(0-Off) Bb3

38d66160 90 3f 66   Note On Eb3 102

38d66164 90 46 70   Note On Bb3 112
38d661ab 90 44 76   Note On Ab3 118

38d661cc 90 46 00   Note On(0-Off) Bb3

38d661de 90 3f 00   Note On(0-Off) Eb3
38d6623d 90 44 00   Note On(0-Off) Ab3
38d662a4 90 46 3d   Note On Bb3 61
38d662d7 90 3f 3d   Note On Eb3 61

38d66303 90 3f 00   Note On(0-Off) Eb3
38d66343 90 46 00   Note On(0-Off) Bb3
38d66462 90 47 6b   Note On B3 107
38d664bc 90 2c 00   Note On(0-Off) Ab1
38d6654b 90 47 00   Note On(0-Off) B3
38d665cd 90 47 4f   Note On B3 79

38d665d8 90 2a 64   Note On F#1 100
38d6676f 90 47 00   Note On(0-Off) B3

38d66784 90 44 3f   Note On Ab3 63

38d6678a 90 42 45   Note On F#3 69
38d667be 90 42 00   Note On(0-Off) F#3

38d667cf 90 44 00   Note On(0-Off) Ab3
38d6694d 90 3f 42   Note On Eb3 66
38d66a0a 90 3f 00   Note On(0-Off) Eb3
38d66b13 90 2a 00   Note On(0-Off) F#1
38d66b61 90 3d 59   Note On C#3 89
38d66b87 90 3b 74   Note On B2 116

38d66b87 90 3d 00   Note On(0-Off) C#3

38d66bc1 90 3b 00   Note On(0-Off) B2
38d66cfd 90 28 60   Note On E1 96
38d66e18 90 28 00   Note On(0-Off) E1
38d66ea3 90 44 76   Note On Ab3 118
38d66ef6 90 44 00   Note On(0-Off) Ab3
38d6705c 90 42 40   Note On F#3 64
38d670b2 90 43 12   Note On G3 18

38d670cf 90 42 00   Note On(0-Off) F#3

38d67100 90 42 7d   Note On F#3 125
38d67121 90 43 00   Note On(0-Off) G3

38d67123 90 41 7d   Note On F3 125

38d67125 90 42 00   Note On(0-Off) F#3

38d6712b 90 43 76   Note On G3 118

38d6713e 90 41 00   Note On(0-Off) F3
38d67181 90 45 36   Note On A3 54

38d671a1 90 45 00   Note On(0-Off) A3
38d67239 90 43 00   Note On(0-Off) G3
38d67448 90 44 70   Note On Ab3 112

38d67485 90 44 00   Note On(0-Off) Ab3
38d6755f 90 42 67   Note On F#3 103

38d675ac 90 43 5e   Note On G3 94
38d675e8 90 42 00   Note On(0-Off) F#3
38d67748 90 43 00   Note On(0-Off) G3

38d6774f 90 3e 67   Note On D3 103

38d67750 90 40 64   Note On E3 100
38d6776d 90 3e 00   Note On(0-Off) D3
38d677d8 90 40 00   Note On(0-Off) E3
38d67a1b 90 3d 66   Note On C#3 102
38d67a67 90 3e 3e   Note On D3 62

38d67a72 90 3d 00   Note On(0-Off) C#3
38d67adf 90 3e 00   Note On(0-Off) D3
38d67be3 90 3b 74   Note On B2 116
38d67cf5 90 3b 00   Note On(0-Off) B2
38d67d9a 90 37 76   Note On G2 118
38d67e2b 90 37 00   Note On(0-Off) G2
38d67f0d 90 2f 74   Note On B1 116
38d681e5 90 3b 5e   Note On B2 94

38d681e9 90 3f 5e   Note On Eb3 94

38d681ed 90 42 62   Note On F#3 98
38d682bf 90 3b 00   Note On(0-Off) B2
38d682cb 90 42 00   Note On(0-Off) F#3

38d682d9 90 3f 00   Note On(0-Off) Eb3
38d68357 90 2f 00   Note On(0-Off) B1
38d6847c 90 2f 25   Note On B1 37
38d684ff 90 2f 00   Note On(0-Off) B1

38d6851e 90 38 62   Note On Ab2 98

38d6852a 90 34 6b   Note On E2 107

38d6852b 90 3b 6d   Note On B2 109
38d68550 90 2a 59   Note On F#1 89

38d68568 90 2a 00   Note On(0-Off) F#1

38d6858c 90 29 5b   Note On F1 91

38d68591 90 28 62   Note On E1 98

38d6859a 90 2a 3d   Note On F#1 61
38d685e0 90 2a 00   Note On(0-Off) F#1

38d685f6 90 28 00   Note On(0-Off) E1

38d685fa 90 29 00   Note On(0-Off) F1

38d68604 90 3b 00   Note On(0-Off) B2

38d6860d 90 34 00   Note On(0-Off) E2

38d68616 90 38 00   Note On(0-Off) Ab2
38d686a1 90 2a 74   Note On F#1 116

38d686cd 90 38 74   Note On Ab2 116

38d686d1 90 34 72   Note On E2 114

38d686d3 90 3b 72   Note On B2 114
38d68920 90 34 00   Note On(0-Off) E2

38d68944 90 3b 00   Note On(0-Off) B2
38d6895d 90 38 00   Note On(0-Off) Ab2
38d689e2 90 2f 47   Note On B1 71

38d689e3 90 36 62   Note On F#2 98

38d689e7 90 33 60   Note On Eb2 96

38d689e9 90 3b 60   Note On B2 96

38d689ef 90 2a 00   Note On(0-Off) F#1
38d68c05 90 36 00   Note On(0-Off) F#2
38d68cfb 90 36 59   Note On F#2 89
38d68d12 90 33 00   Note On(0-Off) Eb2

38d68d22 90 3b 00   Note On(0-Off) B2

38d68d5f 90 2f 00   Note On(0-Off) B1
38d68e86 90 36 00   Note On(0-Off) F#2

38d68ea0 90 33 70   Note On Eb2 112
38d68f2f 90 33 00   Note On(0-Off) Eb2
38d6901a 90 2a 74   Note On F#1 116

38d6902a 90 34 76   Note On E2 118
38d69327 90 38 6d   Note On Ab2 109
38d694ce 90 3b 70   Note On B2 112
38d69551 90 38 00   Note On(0-Off) Ab2

38d6955f 90 34 00   Note On(0-Off) E2
38d6958f 90 3b 00   Note On(0-Off) B2
38d69620 90 2a 00   Note On(0-Off) F#1
38d697eb 90 2f 6b   Note On B1 107

38d697ef 90 44 70   Note On Ab3 112
38d69bed 90 44 00   Note On(0-Off) Ab3
38d69c67 90 3b 45   Note On B2 69

38d69c6d 90 2c 64   Note On Ab1 100
38d69c73 90 3f 5f   Note On Eb3 95

38d69c76 90 42 69   Note On F#3 105

38d69c96 90 2f 00   Note On(0-Off) B1
38d6a092 90 42 00   Note On(0-Off) F#3

38d6a0a0 90 3f 00   Note On(0-Off) Eb3

38d6a0b0 90 3b 00   Note On(0-Off) B2
38d6a0d3 90 2c 00   Note On(0-Off) Ab1
38d6a39d 90 3f 67   Note On Eb3 103

38d6a3a0 90 38 56   Note On Ab2 86

38d6a3a1 90 3b 72   Note On B2 114

38d6a3a5 90 28 3e   Note On E1 62

38d6a3ab 90 26 3e   Note On D1 62

38d6a3e1 90 26 00   Note On(0-Off) D1
38d6a47f 90 38 00   Note On(0-Off) Ab2
38d6a4d4 90 3f 00   Note On(0-Off) Eb3

38d6a506 90 38 36   Note On Ab2 54

38d6a50f 90 3b 00   Note On(0-Off) B2
38d6a5df 90 28 00   Note On(0-Off) E1
38d6a6e0 90 3b 72   Note On B2 114
38d6a7eb 90 38 00   Note On(0-Off) Ab2
38d6a81b 90 3b 00   Note On(0-Off) B2
38d6a884 90 2a 66   Note On F#1 102

38d6a88a 90 3d 72   Note On C#3 114

38d6a890 90 38 66   Note On Ab2 102
38d6aadf 90 3d 00   Note On(0-Off) C#3
38d6aafe 90 38 00   Note On(0-Off) Ab2
38d6abe8 90 38 47   Note On Ab2 71

38d6abe8 90 3f 66   Note On Eb3 102
38d6ac9b 90 2a 00   Note On(0-Off) F#1
38d6ad65 90 3f 00   Note On(0-Off) Eb3
38d6add2 90 38 00   Note On(0-Off) Ab2

38d6adff 90 2c 67   Note On Ab1 103

38d6ae02 90 40 69   Note On E3 105

38d6ae0c 90 38 62   Note On Ab2 98
38d6ae7a 90 38 00   Note On(0-Off) Ab2

38d6ae83 90 40 00   Note On(0-Off) E3
38d6af21 90 2c 00   Note On(0-Off) Ab1
38d6b06a 90 46 67   Note On Bb3 103

38d6b06c 90 2f 6b   Note On B1 107
38d6b1e7 90 42 3d   Note On F#3 61
38d6b258 90 46 00   Note On(0-Off) Bb3
38d6b357 90 42 00   Note On(0-Off) F#3
38d6b3b3 90 44 56   Note On Ab3 86
38d6b44e 90 44 00   Note On(0-Off) Ab3
38d6b4cb 90 2f 00   Note On(0-Off) B1
38d6b586 90 2c 69   Note On Ab1 105
38d6b5c9 90 3b 3f   Note On B2 63

38d6b5d6 90 41 76   Note On F3 118

38d6b5df 90 40 69   Note On E3 105

38d6b604 90 40 00   Note On(0-Off) E3

38d6b61e 90 41 00   Note On(0-Off) F3
38d6b63d 90 3e 66   Note On D3 102

38d6b679 90 3e 00   Note On(0-Off) D3
38d6b6a7 90 3b 00   Note On(0-Off) B2

38d6b6d3 90 42 4b   Note On F#3 75

38d6b6e4 90 3b 56   Note On B2 86

38d6b6ed 90 3f 6b   Note On Eb3 107
38d6b9d4 90 3f 00   Note On(0-Off) Eb3

38d6b9ed 90 2c 00   Note On(0-Off) Ab1

38d6b9ef 90 3b 00   Note On(0-Off) B2

38d6b9fa 90 42 00   Note On(0-Off) F#3
38d6bc3a 90 28 67   Note On E1 103

38d6bc44 90 38 44   Note On Ab2 68

38d6bc48 90 3b 74   Note On B2 116
38d6bd7e 90 3b 00   Note On(0-Off) B2

38d6bd98 90 38 00   Note On(0-Off) Ab2
38d6bdcf 90 3d 6b   Note On C#3 107

38d6bdd8 90 38 13   Note On Ab2 19
38d6be85 90 38 00   Note On(0-Off) Ab2

38d6bedf 90 28 00   Note On(0-Off) E1
38d6bf00 90 3d 00   Note On(0-Off) C#3
38d6bf75 90 38 5f   Note On Ab2 95

38d6bf78 90 3f 6b   Note On Eb3 107
38d6c074 90 3f 00   Note On(0-Off) Eb3

38d6c074 90 38 00   Note On(0-Off) Ab2
38d6c126 90 38 49   Note On Ab2 73

38d6c126 90 2a 6b   Note On F#1 107

38d6c12a 90 3d 76   Note On C#3 118
38d6c20d 90 38 00   Note On(0-Off) Ab2
38d6c294 90 3d 00   Note On(0-Off) C#3
38d6c2d1 90 38 5f   Note On Ab2 95
38d6c39c 90 2a 00   Note On(0-Off) F#1

38d6c3b1 90 3d 72   Note On C#3 114

38d6c3c4 90 38 00   Note On(0-Off) Ab2
38d6c421 90 3d 00   Note On(0-Off) C#3
38d6c464 90 38 67   Note On Ab2 103
38d6c4e6 90 38 00   Note On(0-Off) Ab2
38d6c548 90 2b 72   Note On G1 114

38d6c557 90 3d 7d   Note On C#3 125
38d6c60a 90 3d 00   Note On(0-Off) C#3

38d6c621 90 38 6b   Note On Ab2 107

38d6c63b 90 2b 00   Note On(0-Off) G1
38d6c6f1 90 3d 4d   Note On C#3 77

38d6c70e 90 38 00   Note On(0-Off) Ab2
38d6c79d 90 3d 00   Note On(0-Off) C#3

38d6c7af 90 3f 72   Note On Eb3 114
38d6c806 90 3f 00   Note On(0-Off) Eb3
38d6c882 90 2c 60   Note On Ab1 96
38d6c8c6 90 48 67   Note On C4 103

38d6c8c8 90 3f 67   Note On Eb3 103
38d6c927 90 48 00   Note On(0-Off) C4

38d6c948 90 3f 00   Note On(0-Off) Eb3
38d6ca2b 90 47 69   Note On B3 105

38d6ca31 90 3f 5e   Note On Eb3 94
38d6cacf 90 47 00   Note On(0-Off) B3

38d6cad1 90 3f 00   Note On(0-Off) Eb3
38d6cb9e 90 47 49   Note On B3 73

38d6cba0 90 3f 3d   Note On Eb3 61

38d6cbc0 90 2c 00   Note On(0-Off) Ab1
38d6cc16 90 47 00   Note On(0-Off) B3

38d6cc1c 90 3f 00   Note On(0-Off) Eb3
38d6cc62 90 3f 45   Note On Eb3 69

38d6cc65 90 47 66   Note On B3 102
38d6cce5 90 3f 00   Note On(0-Off) Eb3

38d6cce6 90 47 00   Note On(0-Off) B3
38d6cd73 90 47 67   Note On B3 103

38d6cd73 90 3f 67   Note On Eb3 103
38d6cded 90 3f 00   Note On(0-Off) Eb3

38d6cdf1 90 47 00   Note On(0-Off) B3
38d6cee4 90 47 66   Note On B3 102

38d6cef1 90 3f 70   Note On Eb3 112

38d6cef2 90 2a 76   Note On F#1 118
38d6cfe4 90 47 00   Note On(0-Off) B3
38d6d077 90 42 5f   Note On F#3 95
38d6d0ca 90 3f 00   Note On(0-Off) Eb3
38d6d139 90 42 00   Note On(0-Off) F#3
38d6d23f 90 3f 72   Note On Eb3 114

38d6d28a 90 3f 00   Note On(0-Off) Eb3
38d6d3cd 90 2a 00   Note On(0-Off) F#1

38d6d3d7 90 3b 7d   Note On B2 125
38d6d445 90 3b 00   Note On(0-Off) B2
38d6d589 90 28 56   Note On E1 86
38d6d621 90 28 00   Note On(0-Off) E1
38d6d700 90 42 5f   Note On F#3 95

38d6d73c 90 43 70   Note On G3 112
38d6d760 90 42 00   Note On(0-Off) F#3
38d6d893 90 43 00   Note On(0-Off) G3

38d6d89b 90 42 76   Note On F#3 118
38d6d8fa 90 42 00   Note On(0-Off) F#3
38d6da4a 90 40 70   Note On E3 112
38d6dc69 90 40 00   Note On(0-Off) E3
38d6dd9a 90 3d 6b   Note On C#3 107
38d6e03a 90 3d 00   Note On(0-Off) C#3

38d6e03a 90 3b 70   Note On B2 112
38d6e10b 90 3d 70   Note On C#3 112

38d6e147 90 3b 00   Note On(0-Off) B2
38d6e262 90 3d 00   Note On(0-Off) C#3

38d6e29c 90 2f 6d   Note On B1 109

38d6e2a0 90 3b 79   Note On B2 121
38d6e5d8 90 3d 70   Note On C#3 112

38d6e5f2 90 2f 00   Note On(0-Off) B1

38d6e611 90 3b 00   Note On(0-Off) B2
38d6e91f 90 3d 00   Note On(0-Off) C#3

38d6e920 90 2a 60   Note On F#1 96

38d6e92a 90 3f 74   Note On Eb3 116
38d6eab6 90 3d 64   Note On C#3 100

38d6eabf 90 3f 00   Note On(0-Off) Eb3
38d6ee14 90 3d 00   Note On(0-Off) C#3

38d6ee15 90 3b 74   Note On B2 116
38d6efce 90 2a 00   Note On(0-Off) F#1

38d6efd8 90 2f 72   Note On B1 114
38d6f074 90 3b 00   Note On(0-Off) B2
38d6f28f 90 2f 00   Note On(0-Off) B1
38d6f4b3 90 2a 67   Note On F#1 103

38d6f4bf 90 34 6b   Note On E2 107

38d6f4c3 90 38 67   Note On Ab2 103

38d6f4c6 90 36 6b   Note On F#2 107

38d6f4c7 90 3b 72   Note On B2 114
38d6f5fe 90 36 00   Note On(0-Off) F#2
38d6f606 90 34 00   Note On(0-Off) E2

38d6f611 90 38 00   Note On(0-Off) Ab2

38d6f626 90 3b 00   Note On(0-Off) B2
38d6f6da 90 2a 00   Note On(0-Off) F#1
38d6f9c8 90 44 60   Note On Ab3 96
38d6fb98 90 3f 40   Note On Eb3 64
38d6fbbd 90 44 00   Note On(0-Off) Ab3
38d6fc9d 90 3f 00   Note On(0-Off) Eb3
38d6fd1e 90 3b 60   Note On B2 96

38d6fd22 90 3f 5e   Note On Eb3 94

38d6fd23 90 42 6b   Note On F#3 107

38d6fd29 90 2f 64   Note On B1 100
38d6ff4b 90 3f 00   Note On(0-Off) Eb3

38d6ff69 90 3b 00   Note On(0-Off) B2

38d6ff6b 90 42 00   Note On(0-Off) F#3
38d70009 90 2f 00   Note On(0-Off) B1
38d701fd 90 2c 5e   Note On Ab1 94
38d7020c 90 3f 5e   Note On Eb3 94

38d7020f 90 38 49   Note On Ab2 73

38d70214 90 3b 76   Note On B2 118
38d7042b 90 38 00   Note On(0-Off) Ab2
38d7048e 90 3f 00   Note On(0-Off) Eb3
38d70577 90 38 4f   Note On Ab2 79
38d70592 90 3b 00   Note On(0-Off) B2
38d706d5 90 2c 00   Note On(0-Off) Ab1
38d7073f 90 38 00   Note On(0-Off) Ab2
38d707bb 90 38 72   Note On Ab2 114
38d709de 90 38 00   Note On(0-Off) Ab2
38d70a97 90 28 62   Note On E1 98

38d70a9f 90 38 4d   Note On Ab2 77

38d70aa1 90 3d 72   Note On C#3 114
38d70c30 90 3d 00   Note On(0-Off) C#3

38d70c37 90 3f 60   Note On Eb3 96
38d70cf4 90 3f 00   Note On(0-Off) Eb3
38d70d2f 90 28 00   Note On(0-Off) E1

38d70d49 90 38 00   Note On(0-Off) Ab2
38d70db1 90 3d 5b   Note On C#3 91

38d70dcd 90 38 36   Note On Ab2 54
38d70e2f 90 38 00   Note On(0-Off) Ab2
38d70e81 90 3d 00   Note On(0-Off) C#3
38d70f47 90 3d 72   Note On C#3 114

38d70f49 90 38 67   Note On Ab2 103

38d70f53 90 2a 6e   Note On F#1 110
38d711a1 90 38 00   Note On(0-Off) Ab2
38d71237 90 3d 00   Note On(0-Off) C#3
38d7142c 90 44 3e   Note On Ab3 62
38d7160c 90 2a 00   Note On(0-Off) F#1

38d7164b 90 44 00   Note On(0-Off) Ab3
38d71780 90 44 69   Note On Ab3 105

38d7178c 90 2f 66   Note On B1 102
38d71857 90 44 00   Note On(0-Off) Ab3
38d71919 90 44 3c   Note On Ab3 60
38d719cc 90 44 00   Note On(0-Off) Ab3
38d71a8d 90 44 67   Note On Ab3 103
38d71c88 90 42 74   Note On F#3 116

38d71cad 90 44 00   Note On(0-Off) Ab3
38d7225a 90 42 00   Note On(0-Off) F#3
38d72359 90 2f 00   Note On(0-Off) B1
38d72404 90 28 45   Note On E1 69

38d7240b 90 38 5b   Note On Ab2 91
38d725a2 90 3b 6e   Note On B2 110
38d725e9 90 38 00   Note On(0-Off) Ab2
38d7273b 90 3b 00   Note On(0-Off) B2

38d72749 90 3f 62   Note On Eb3 98

38d72764 90 28 00   Note On(0-Off) E1
38d72812 90 3f 00   Note On(0-Off) Eb3
38d728f5 90 2a 60   Note On F#1 96

38d728fc 90 38 40   Note On Ab2 64

38d72902 90 3d 76   Note On C#3 118
38d72d1c 90 38 00   Note On(0-Off) Ab2
38d72d2f 90 3d 00   Note On(0-Off) C#3
38d72f0e 90 44 14   Note On Ab3 20
38d72ff9 90 2a 00   Note On(0-Off) F#1

38d7302b 90 46 5b   Note On Bb3 91

38d7302f 90 44 00   Note On(0-Off) Ab3
38d730d1 90 46 00   Note On(0-Off) Bb3
38d73124 90 2c 67   Note On Ab1 103

38d73129 90 3f 67   Note On Eb3 103

38d73132 90 47 6b   Note On B3 107
38d73200 90 47 00   Note On(0-Off) B3

38d73206 90 3f 00   Note On(0-Off) Eb3
38d732b4 90 3f 42   Note On Eb3 66
38d732b5 90 47 67   Note On B3 103
38d73348 90 47 00   Note On(0-Off) B3

38d7334d 90 3f 00   Note On(0-Off) Eb3
38d7344c 90 3f 60   Note On Eb3 96

38d7344c 90 47 60   Note On B3 96

38d7349a 90 47 00   Note On(0-Off) B3

38d734a2 90 3f 00   Note On(0-Off) Eb3
38d734f8 90 47 64   Note On B3 100

38d734fb 90 3f 62   Note On Eb3 98
38d7354d 90 2c 00   Note On(0-Off) Ab1

38d73568 90 47 00   Note On(0-Off) B3

38d73573 90 3f 00   Note On(0-Off) Eb3
38d735e1 90 47 67   Note On B3 103

38d735e2 90 3f 62   Note On Eb3 98
38d7366e 90 47 00   Note On(0-Off) B3

38d7367c 90 3f 00   Note On(0-Off) Eb3
38d73760 90 47 69   Note On B3 105

38d73761 90 3f 6d   Note On Eb3 109

38d73762 90 2a 76   Note On F#1 118
38d738ca 90 47 00   Note On(0-Off) B3

38d738f3 90 42 62   Note On F#3 98
38d73928 90 3f 00   Note On(0-Off) Eb3
38d7397e 90 42 00   Note On(0-Off) F#3
38d73aac 90 3f 76   Note On Eb3 118
38d73b00 90 3f 00   Note On(0-Off) Eb3

38d73b56 90 2a 00   Note On(0-Off) F#1
38d73c78 90 3b 79   Note On B2 121
38d73cd9 90 3b 00   Note On(0-Off) B2
38d73dff 90 28 52   Note On E1 82
38d73ea6 90 28 00   Note On(0-Off) E1
38d73f6f 90 42 52   Note On F#3 82
38d73fc0 90 43 67   Note On G3 103

38d73fd8 90 42 00   Note On(0-Off) F#3

38d73ff1 90 43 00   Note On(0-Off) G3
38d74024 90 41 45   Note On F3 69

38d74029 90 43 66   Note On G3 102
38d7408d 90 41 00   Note On(0-Off) F3

38d74094 90 43 00   Note On(0-Off) G3
38d7415b 90 42 74   Note On F#3 116

38d741a9 90 42 00   Note On(0-Off) F#3
38d74305 90 40 70   Note On E3 112
38d7434f 90 40 00   Note On(0-Off) E3
38d74638 90 3b 7b   Note On B2 123
38d747dc 90 3b 00   Note On(0-Off) B2

38d747dd 90 37 72   Note On G2 114
38d7489c 90 3b 6b   Note On B2 107
38d748e3 90 37 00   Note On(0-Off) G2
38d74953 90 37 64   Note On G2 100

38d7495e 90 3b 00   Note On(0-Off) B2
38d74a02 90 3b 6d   Note On B2 109

38d74a16 90 37 00   Note On(0-Off) G2
38d74ac4 90 2f 69   Note On B1 105

38d74af2 90 39 64   Note On A2 100
38d74b71 90 39 00   Note On(0-Off) A2
38d74d67 90 3b 00   Note On(0-Off) B2
38d74df9 90 3a 72   Note On Bb2 114
38d74e37 90 3a 00   Note On(0-Off) Bb2

38d74e42 90 3b 62   Note On B2 98

38d74e52 90 3b 00   Note On(0-Off) B2
38d74f03 90 2f 00   Note On(0-Off) B1
38d75160 90 34 5f   Note On E2 95

38d75161 90 2a 64   Note On F#1 100

38d75162 90 38 6b   Note On Ab2 107

38d75164 90 3b 6e   Note On B2 110
38d751bf 90 34 00   Note On(0-Off) E2

38d751c9 90 38 00   Note On(0-Off) Ab2

38d751ca 90 2a 00   Note On(0-Off) F#1

38d751cd 90 3b 00   Note On(0-Off) B2
38d7532a 90 2a 7d   Note On F#1 125

38d7532c 90 34 72   Note On E2 114

38d7532d 90 38 76   Note On Ab2 118

38d7532e 90 3b 7b   Note On B2 123
38d75379 90 2b 6e   Note On G1 110
38d753d0 90 2b 00   Note On(0-Off) G1

38d753d8 90 2a 00   Note On(0-Off) F#1
38d7551a 90 34 00   Note On(0-Off) E2

38d7551f 90 3b 00   Note On(0-Off) B2

38d75526 90 38 00   Note On(0-Off) Ab2
38d75667 90 33 3d   Note On Eb2 61

38d75670 90 3b 60   Note On B2 96

38d75672 90 36 64   Note On F#2 100

38d75677 90 2f 6b   Note On B1 107
38d75c17 90 36 00   Note On(0-Off) F#2
38d75c23 90 33 00   Note On(0-Off) Eb2

38d75c24 90 3b 00   Note On(0-Off) B2
38d75dd0 90 2f 00   Note On(0-Off) B1
38d75edd 90 44 72   Note On Ab3 114
38d76054 90 44 00   Note On(0-Off) Ab3

38d7606a 90 46 69   Note On Bb3 105
38d76155 90 46 00   Note On(0-Off) Bb3
38d76215 90 47 69   Note On B3 105

38d76217 90 3f 5e   Note On Eb3 94
38d763b5 90 2c 67   Note On Ab1 103
38d76683 90 3f 00   Note On(0-Off) Eb3
38d7673e 90 47 00   Note On(0-Off) B3
38d76794 90 2c 00   Note On(0-Off) Ab1
38d76853 90 3f 66   Note On Eb3 102
38d768fe 90 3f 00   Note On(0-Off) Eb3
38d76c6b 90 44 3d   Note On Ab3 61
38d76d6a 90 44 00   Note On(0-Off) Ab3
38d76deb 90 46 6b   Note On Bb3 107
38d76ef2 90 46 00   Note On(0-Off) Bb3
38d76fa7 90 2c 72   Note On Ab1 114

38d76faf 90 47 67   Note On B3 103
38d76fc4 90 3f 6d   Note On Eb3 109
38d771d1 90 3f 00   Note On(0-Off) Eb3
38d77271 90 47 00   Note On(0-Off) B3
38d772a9 90 2c 00   Note On(0-Off) Ab1
38d774d6 90 40 6d   Note On E3 109
38d77562 90 40 00   Note On(0-Off) E3
38d77666 90 28 69   Note On E1 105

38d77672 90 40 74   Note On E3 116
38d777e4 90 42 4f   Note On F#3 79

38d777e6 90 40 00   Note On(0-Off) E3
38d77929 90 28 00   Note On(0-Off) E1
38d77989 90 42 00   Note On(0-Off) F#3

38d7799d 90 44 72   Note On Ab3 114
38d77abd 90 44 00   Note On(0-Off) Ab3
38d77b41 90 2a 64   Note On F#1 100

38d77b4f 90 42 6e   Note On F#3 110
38d77f7d 90 42 00   Note On(0-Off) F#3
38d78003 90 2a 00   Note On(0-Off) F#1
38d7830e 90 2c 67   Note On Ab1 103

38d78319 90 44 74   Note On Ab3 116
38d784ff 90 44 00   Note On(0-Off) Ab3

38d7851a 90 46 66   Note On Bb3 102
38d785a1 90 46 00   Note On(0-Off) Bb3
38d786ab 90 47 67   Note On B3 103
38d78717 90 2c 00   Note On(0-Off) Ab1
38d787df 90 47 00   Note On(0-Off) B3
38d7883c 90 46 60   Note On Bb3 96
38d78ad4 90 46 00   Note On(0-Off) Bb3
38d78b78 90 44 64   Note On Ab3 100
38d78e18 90 44 00   Note On(0-Off) Ab3
38d78ea8 90 46 3c   Note On Bb3 60
38d78ff0 90 46 00   Note On(0-Off) Bb3
38d79058 90 47 66   Note On B3 102

38d79063 90 28 6d   Note On E1 109
38d79147 90 47 00   Note On(0-Off) B3
38d791e7 90 49 76   Note On C#4 118

38d7923f 90 49 00   Note On(0-Off) C#4
38d79295 90 28 00   Note On(0-Off) E1
38d79513 90 2a 67   Note On F#1 103

38d79524 90 49 6d   Note On C#4 109
38d79890 90 49 00   Note On(0-Off) C#4
38d799eb 90 2a 00   Note On(0-Off) F#1
38d79bc4 90 44 34   Note On Ab3 52
38d79c7e 90 44 00   Note On(0-Off) Ab3

38d79c93 90 46 47   Note On Bb3 71
38d79d3b 90 46 00   Note On(0-Off) Bb3

38d79d73 90 47 6b   Note On B3 107

38d79d88 90 2c 6e   Note On Ab1 110
38d79e2f 90 47 00   Note On(0-Off) B3
38d79f2b 90 47 66   Note On B3 102
38d79fa7 90 47 00   Note On(0-Off) B3
38d7a093 90 47 56   Note On B3 86
38d7a0fc 90 47 00   Note On(0-Off) B3

38d7a15b 90 47 49   Note On B3 73
38d7a179 90 2c 00   Note On(0-Off) Ab1
38d7a1cd 90 47 00   Note On(0-Off) B3

38d7a22f 90 47 67   Note On B3 103
38d7a2cf 90 47 00   Note On(0-Off) B3
38d7a3b4 90 47 69   Note On B3 105

38d7a3b8 90 2a 6d   Note On F#1 109
38d7a482 90 47 00   Note On(0-Off) B3
38d7a546 90 42 3e   Note On F#3 62
38d7a5f3 90 42 00   Note On(0-Off) F#3
38d7a854 90 3f 0e   Note On Eb3 14

38d7a85e 90 2a 00   Note On(0-Off) F#1
38d7a8b4 90 3f 00   Note On(0-Off) Eb3

38d7a8cd 90 3b 6b   Note On B2 107
38d7a98c 90 3b 00   Note On(0-Off) B2
38d7aa51 90 28 59   Note On E1 89
38d7ab02 90 28 00   Note On(0-Off) E1
38d7abb8 90 42 4b   Note On F#3 75
38d7ac09 90 43 52   Note On G3 82

38d7ac1a 90 42 00   Note On(0-Off) F#3
38d7ad75 90 43 00   Note On(0-Off) G3

38d7ad77 90 40 62   Note On E3 98
38d7adff 90 40 00   Note On(0-Off) E3
38d7af33 90 3b 76   Note On B2 118
38d7b1b5 90 35 67   Note On F2 103

38d7b1b9 90 37 64   Note On G2 100
38d7b1c3 90 3b 00   Note On(0-Off) B2
38d7b246 90 35 00   Note On(0-Off) F2

38d7b26d 90 37 00   Note On(0-Off) G2
38d7b292 90 34 7d   Note On E2 125
38d7b352 90 37 69   Note On G2 105

38d7b358 90 39 70   Note On A2 112
38d7b398 90 39 00   Note On(0-Off) A2
38d7b425 90 3b 74   Note On B2 116

38d7b431 90 34 00   Note On(0-Off) E2
38d7b4be 90 37 00   Note On(0-Off) G2

38d7b4cf 90 3b 00   Note On(0-Off) B2
38d7b5c0 90 37 74   Note On G2 116

38d7b5c2 90 3b 7b   Note On B2 123

38d7b5c4 90 3e 6e   Note On D3 110

38d7b5cd 90 28 76   Note On E1 118
38d7b62d 90 3b 00   Note On(0-Off) B2

38d7b640 90 37 00   Note On(0-Off) G2
38d7b661 90 3e 00   Note On(0-Off) D3

38d7b69c 90 28 00   Note On(0-Off) E1
38d7b762 90 2f 7d   Note On B1 125
38d7ba80 90 42 6e   Note On F#3 110

38d7ba88 90 3b 6e   Note On B2 110

38d7ba89 90 3f 69   Note On Eb3 105
38d7bb1c 90 2f 00   Note On(0-Off) B1
38d7bb77 90 3b 00   Note On(0-Off) B2

38d7bbc5 90 42 00   Note On(0-Off) F#3

38d7bbcd 90 3f 00   Note On(0-Off) Eb3
38d7bcd9 90 2f 15   Note On B1 21
38d7bd55 90 2f 00   Note On(0-Off) B1
38d7bd84 90 34 5f   Note On E2 95

38d7bd85 90 38 70   Note On Ab2 112

38d7bd91 90 3b 67   Note On B2 103

38d7bdb4 90 2a 72   Note On F#1 114

38d7bde1 90 34 00   Note On(0-Off) E2
38d7bdeb 90 38 00   Note On(0-Off) Ab2

38d7bdee 90 3b 00   Note On(0-Off) B2

38d7be17 90 2a 00   Note On(0-Off) F#1
38d7bf34 90 34 76   Note On E2 118

38d7bf34 90 38 76   Note On Ab2 118

38d7bf35 90 3b 79   Note On B2 121
38d7bf3c 90 2a 79   Note On F#1 121
38d7c15c 90 34 00   Note On(0-Off) E2

38d7c1a2 90 3b 00   Note On(0-Off) B2
38d7c1e3 90 38 00   Note On(0-Off) Ab2
38d7c255 90 2a 00   Note On(0-Off) F#1

38d7c264 90 3b 4d   Note On B2 77

38d7c268 90 34 6b   Note On E2 107

38d7c26d 90 2f 6d   Note On B1 109

38d7c275 90 36 70   Note On F#2 112
38d7c767 90 36 00   Note On(0-Off) F#2

38d7c78d 90 3b 00   Note On(0-Off) B2
38d7c7b9 90 34 00   Note On(0-Off) E2

38d7c7f9 90 2f 00   Note On(0-Off) B1
38d7cac4 90 33 3d   Note On Eb2 61
38d7cac7 90 36 40   Note On F#2 64

38d7cace 90 2f 3d   Note On B1 61
38d7cf20 90 36 00   Note On(0-Off) F#2
38d7cf40 90 33 00   Note On(0-Off) Eb2

38d7cf4f 90 2f 00   Note On(0-Off) B1
38d7d053 90 2f 49   Note On B1 73
38d7d1c4 90 2f 00   Note On(0-Off) B1
38d7d20a 90 33 67   Note On Eb2 103

38d7d211 90 2f 67   Note On B1 103

38d7d219 90 2c 6d   Note On Ab1 109
38d7d3d7 90 33 00   Note On(0-Off) Eb2

38d7d3e4 90 2f 00   Note On(0-Off) B1
38d7d589 90 33 64   Note On Eb2 100

38d7d5a2 90 3b 44   Note On B2 68
38d7d77b 90 3b 00   Note On(0-Off) B2
38d7d7ab 90 33 00   Note On(0-Off) Eb2
38d7d7fe 90 33 5e   Note On Eb2 94

38d7d80d 90 3b 6e   Note On B2 110
38d7d88d 90 3b 00   Note On(0-Off) B2

38d7d898 90 33 00   Note On(0-Off) Eb2
38d7d8da 90 33 5e   Note On Eb2 94

38d7d8df 90 3b 69   Note On B2 105
38d7d9ed 90 33 00   Note On(0-Off) Eb2

38d7d9ee 90 3b 00   Note On(0-Off) B2
38d7da79 90 3b 60   Note On B2 96

38d7da7a 90 33 5f   Note On Eb2 95
38d7db59 90 33 00   Note On(0-Off) Eb2

38d7db6c 90 3b 00   Note On(0-Off) B2
38d7dc1d 90 33 47   Note On Eb2 71

38d7dc1d 90 3b 67   Note On B2 103
38d7dcf2 90 2c 00   Note On(0-Off) Ab1
38d7dd3b 90 33 00   Note On(0-Off) Eb2

38d7dd57 90 3b 00   Note On(0-Off) B2
38d7ddb7 90 3a 72   Note On Bb2 114

38d7ddbd 90 33 67   Note On Eb2 103
38d7dee2 90 28 49   Note On E1 73
38d7dfd2 90 3a 00   Note On(0-Off) Bb2
38d7dfdd 90 3b 6d   Note On B2 109
38d7e042 90 28 00   Note On(0-Off) E1

38d7e064 90 33 00   Note On(0-Off) Eb2

38d7e065 90 3b 00   Note On(0-Off) B2
38d7e0b4 90 33 4f   Note On Eb2 79

38d7e0b9 90 3b 67   Note On B2 103
38d7e202 90 28 67   Note On E1 103
38d7e267 90 3b 00   Note On(0-Off) B2

38d7e29b 90 33 00   Note On(0-Off) Eb2
38d7e39e 90 3b 67   Note On B2 103

38d7e3a0 90 33 4b   Note On Eb2 75
38d7e42e 90 28 00   Note On(0-Off) E1

38d7e47e 90 3b 00   Note On(0-Off) B2
38d7e493 90 33 00   Note On(0-Off) Eb2
38d7e536 90 2a 13   Note On F#1 19
38d7e569 90 33 3e   Note On Eb2 62

38d7e56b 90 3a 6b   Note On Bb2 107
38d7e5fc 90 33 00   Note On(0-Off) Eb2
38d7e69f 90 2a 00   Note On(0-Off) F#1

38d7e6d0 90 3a 00   Note On(0-Off) Bb2

38d7e6ee 90 3b 6e   Note On B2 110
38d7e6f3 90 33 47   Note On Eb2 71
38d7e790 90 33 00   Note On(0-Off) Eb2

38d7e79d 90 3b 00   Note On(0-Off) B2
38d7e888 90 3b 64   Note On B2 100

38d7e888 90 33 44   Note On Eb2 68
38d7e963 90 33 00   Note On(0-Off) Eb2
38d7e9a7 90 3b 00   Note On(0-Off) B2
38d7ea15 90 3a 56   Note On Bb2 86

38d7ea16 90 33 4d   Note On Eb2 77

38d7ea32 90 2f 6b   Note On B1 107
38d7ebe5 90 3a 00   Note On(0-Off) Bb2
38d7ec3a 90 3b 4d   Note On B2 77
38d7ec99 90 3b 00   Note On(0-Off) B2

38d7eca1 90 33 00   Note On(0-Off) Eb2
38d7ed03 90 3b 74   Note On B2 116

38d7ed05 90 33 67   Note On Eb2 103

38d7ed49 90 2f 00   Note On(0-Off) B1
38d7ee0e 90 33 00   Note On(0-Off) Eb2

38d7ee10 90 3b 00   Note On(0-Off) B2
38d7ee96 90 2f 69   Note On B1 105
38d7eea1 90 3b 6b   Note On B2 107

38d7eea2 90 33 56   Note On Eb2 86
38d7efb6 90 3b 00   Note On(0-Off) B2

38d7efd2 90 33 00   Note On(0-Off) Eb2
38d7f004 90 33 1a   Note On Eb2 26

38d7f00a 90 3a 60   Note On Bb2 96
38d7f0ad 90 3a 00   Note On(0-Off) Bb2

38d7f0b0 90 33 00   Note On(0-Off) Eb2

38d7f0fb 90 2f 00   Note On(0-Off) B1
38d7f1a6 90 2c 4d   Note On Ab1 77

38d7f1aa 90 3b 64   Note On B2 100

38d7f1b4 90 33 3e   Note On Eb2 62
38d7f31e 90 3b 00   Note On(0-Off) B2

38d7f334 90 3a 47   Note On Bb2 71
38d7f4df 90 3b 62   Note On B2 98

38d7f501 90 2c 00   Note On(0-Off) Ab1
38d7f52b 90 33 00   Note On(0-Off) Eb2

38d7f54b 90 3b 00   Note On(0-Off) B2

38d7f554 90 3a 00   Note On(0-Off) Bb2
38d7f6cd 90 3b 5f   Note On B2 95

38d7f6d3 90 3d 76   Note On C#3 118

38d7f6d5 90 3f 6e   Note On Eb3 110

38d7f6e0 90 28 62   Note On E1 98
38d7f966 90 3b 00   Note On(0-Off) B2
38d7f991 90 3d 00   Note On(0-Off) C#3

38d7f999 90 3f 00   Note On(0-Off) Eb3
38d7f9f3 90 3b 3e   Note On B2 62

38d7f9f7 90 3d 66   Note On C#3 102
38d7fa4b 90 28 00   Note On(0-Off) E1
38d7fc68 90 3b 00   Note On(0-Off) B2
38d7fcb2 90 3d 00   Note On(0-Off) C#3
38d7fd54 90 3b 74   Note On B2 116
38d7ff0d 90 2a 64   Note On F#1 100
38d80097 90 3d 64   Note On C#3 100
38d8032c 90 3d 00   Note On(0-Off) C#3
38d80356 90 3b 00   Note On(0-Off) B2
38d803ae 90 2a 00   Note On(0-Off) F#1

38d803c7 90 3b 69   Note On B2 105

38d803d1 90 3f 6e   Note On Eb3 110
38d80558 90 2c 47   Note On Ab1 71
38d80833 90 3b 00   Note On(0-Off) B2

38d80844 90 3f 00   Note On(0-Off) Eb3
38d80a8b 90 44 5f   Note On Ab3 95
38d80b45 90 46 62   Note On Bb3 98

38d80b67 90 44 00   Note On(0-Off) Ab3
38d80bf4 90 46 00   Note On(0-Off) Bb3

38d80c09 90 3f 4d   Note On Eb3 77

38d80c0c 90 2c 00   Note On(0-Off) Ab1

38d80c17 90 47 67   Note On B3 103

38d80c1c 90 2a 67   Note On F#1 103
38d80d30 90 47 00   Note On(0-Off) B3
38d80daf 90 44 69   Note On Ab3 105
38d80e08 90 3f 00   Note On(0-Off) Eb3
38d80e84 90 44 00   Note On(0-Off) Ab3
38d80f5a 90 42 64   Note On F#3 100
38d810d2 90 42 00   Note On(0-Off) F#3

38d810db 90 40 5f   Note On E3 95
38d81124 90 2a 00   Note On(0-Off) F#1
38d8129b 90 28 64   Note On E1 100
38d812a3 90 42 69   Note On F#3 105
38d81605 90 44 6b   Note On Ab3 107

38d8160c 90 28 00   Note On(0-Off) E1

38d8161f 90 42 00   Note On(0-Off) F#3

38d81623 90 40 00   Note On(0-Off) E3
38d8164b 90 44 00   Note On(0-Off) Ab3
38d817d5 90 3b 6b   Note On B2 107

38d817d8 90 3f 64   Note On Eb3 100

38d817d9 90 42 60   Note On F#3 96

38d817da 90 27 6b   Note On Eb1 107
38d81838 90 3f 00   Note On(0-Off) Eb3

38d8183b 90 3b 00   Note On(0-Off) B2

38d8184c 90 42 00   Note On(0-Off) F#3

38d81868 90 27 00   Note On(0-Off) Eb1
38d81b2d 90 42 6b   Note On F#3 107

38d81b2d 90 3b 5f   Note On B2 95

38d81b2d 90 27 72   Note On Eb1 114

38d81b2e 90 3f 64   Note On Eb3 100
38d81b7c 90 3b 00   Note On(0-Off) B2

38d81b88 90 3f 00   Note On(0-Off) Eb3

38d81bc0 90 42 00   Note On(0-Off) F#3

38d81bcb 90 27 00   Note On(0-Off) Eb1
38d81e35 90 25 72   Note On C#1 114

38d81e3a 90 38 45   Note On Ab2 69

38d81e3d 90 40 67   Note On E3 103

38d81e47 90 3b 72   Note On B2 114
38d8234f 90 25 00   Note On(0-Off) C#1
38d8240f 90 40 00   Note On(0-Off) E3
38d82451 90 3b 00   Note On(0-Off) B2

38d82454 90 38 00   Note On(0-Off) Ab2
38d825cd 90 2f 70   Note On B1 112

38d825e4 90 38 69   Note On Ab2 105

38d825ee 90 40 6b   Note On E3 107

38d825ee 90 3b 76   Note On B2 118
38d8269a 90 2f 00   Note On(0-Off) B1

38d826b5 90 38 00   Note On(0-Off) Ab2

38d826c2 90 40 00   Note On(0-Off) E3

38d826c5 90 3b 00   Note On(0-Off) B2
38d82753 90 2d 5b   Note On A1 91
38d82760 90 3f 64   Note On Eb3 100

38d82761 90 3b 6b   Note On B2 107

38d82763 90 38 3e   Note On Ab2 62
38d8280c 90 3b 00   Note On(0-Off) B2

38d82816 90 38 00   Note On(0-Off) Ab2

38d8281b 90 3f 00   Note On(0-Off) Eb3
38d8288b 90 2d 00   Note On(0-Off) A1
38d828fd 90 3d 72   Note On C#3 114

38d828ff 90 38 5b   Note On Ab2 91
38d8290a 90 2c 67   Note On Ab1 103
38d829e1 90 38 00   Note On(0-Off) Ab2

38d82a04 90 3d 00   Note On(0-Off) C#3
38d82a6c 90 38 04   Note On Ab2 4

38d82a84 90 3b 66   Note On B2 102
38d82aec 90 3b 00   Note On(0-Off) B2

38d82af5 90 38 00   Note On(0-Off) Ab2
38d82b4b 90 2c 00   Note On(0-Off) Ab1
38d82c14 90 36 13   Note On F#2 19

38d82c20 90 2a 5f   Note On F#1 95
38d82c33 90 3a 66   Note On Bb2 102

38d82c3b 90 3d 6e   Note On C#3 110
38d82e04 90 3a 00   Note On(0-Off) Bb2
38d82e3d 90 3d 00   Note On(0-Off) C#3
38d82e9d 90 36 00   Note On(0-Off) F#2
38d82f52 90 3d 6d   Note On C#3 109
38d82f5c 90 36 62   Note On F#2 98

38d82f5d 90 3a 6e   Note On Bb2 110

38d82f9c 90 2a 00   Note On(0-Off) F#1
38d82ff2 90 36 00   Note On(0-Off) F#2
38d83033 90 3a 00   Note On(0-Off) Bb2
38d830a7 90 3d 00   Note On(0-Off) C#3
38d83103 90 2a 3f   Note On F#1 63
38d83225 90 2a 00   Note On(0-Off) F#1
38d8329d 90 38 66   Note On Ab2 102

38d8329f 90 3f 6b   Note On Eb3 107

38d832a0 90 2c 67   Note On Ab1 103

38d832a5 90 3b 76   Note On B2 118
38d833cc 90 3b 00   Note On(0-Off) B2

38d833f5 90 3f 00   Note On(0-Off) Eb3
38d83456 90 3b 6b   Note On B2 107

38d8346c 90 40 6d   Note On E3 109

38d83471 90 3f 45   Note On Eb3 69
38d834ac 90 3f 00   Note On(0-Off) Eb3

38d834dd 90 38 00   Note On(0-Off) Ab2
38d834f4 90 3b 00   Note On(0-Off) B2

38d83524 90 40 00   Note On(0-Off) E3
38d83616 90 2c 00   Note On(0-Off) Ab1
38d83755 90 39 45   Note On A2 69

38d83756 90 40 67   Note On E3 103

38d83757 90 2d 67   Note On A1 103

38d8375b 90 3d 6b   Note On C#3 107
38d83d22 90 39 00   Note On(0-Off) A2

38d83d23 90 3d 00   Note On(0-Off) C#3
38d83d4c 90 40 00   Note On(0-Off) E3
38d83dd6 90 2d 00   Note On(0-Off) A1
38d83ffa 90 3d 67   Note On C#3 103
38d83ffd 90 42 64   Note On F#3 100

38d84001 90 2d 69   Note On A1 105

38d84003 90 39 52   Note On A2 82
38d840b1 90 3d 00   Note On(0-Off) C#3
38d84165 90 3f 52   Note On Eb3 82

38d8416e 90 3d 0e   Note On C#3 14

38d84173 90 2f 69   Note On B1 105

38d8418a 90 3d 00   Note On(0-Off) C#3

38d84192 90 2d 00   Note On(0-Off) A1
38d841ea 90 42 00   Note On(0-Off) F#3
38d84230 90 39 00   Note On(0-Off) A2

38d84253 90 3f 00   Note On(0-Off) Eb3
38d842ed 90 3d 5b   Note On C#3 91

38d842f2 90 39 59   Note On A2 89
38d843ef 90 39 00   Note On(0-Off) A2
38d8449d 90 39 5e   Note On A2 94

38d844a1 90 3d 00   Note On(0-Off) C#3
38d844f0 90 2f 00   Note On(0-Off) B1

38d8452f 90 39 00   Note On(0-Off) A2
38d84664 90 34 3e   Note On E2 62

38d84665 90 28 5b   Note On E1 91
38d84682 90 3b 6b   Note On B2 107

38d84683 90 38 6b   Note On Ab2 107
38d84939 90 34 00   Note On(0-Off) E2

38d849ad 90 3b 00   Note On(0-Off) B2

38d849ae 90 38 00   Note On(0-Off) Ab2
38d84a85 90 28 00   Note On(0-Off) E1
38d86334 90 34 40   Note On E2 64

38d8633c 90 36 3f   Note On F#2 63
38d86340 90 28 2b   Note On E1 43

38d86341 90 38 42   Note On Ab2 66

38d86348 90 3b 66   Note On B2 102
38d86588 90 3b 00   Note On(0-Off) B2

38d8658a 90 36 00   Note On(0-Off) F#2

38d8659b 90 34 00   Note On(0-Off) E2
38d865a3 90 38 00   Note On(0-Off) Ab2
38d866b5 90 34 31   Note On E2 49

38d866c3 90 3b 3f   Note On B2 63

38d866c4 90 36 34   Note On F#2 52

38d866c5 90 38 2c   Note On Ab2 44
38d866f8 90 28 00   Note On(0-Off) E1
38d86905 90 28 05   Note On E1 5

38d8691e 90 3b 00   Note On(0-Off) B2

38d86926 90 38 00   Note On(0-Off) Ab2

38d8692a 90 36 00   Note On(0-Off) F#2

38d8694f 90 34 00   Note On(0-Off) E2
38d86967 90 28 00   Note On(0-Off) E1
38d86a40 90 34 40   Note On E2 64

38d86a4b 90 36 33   Note On F#2 51

38d86a51 90 38 3c   Note On Ab2 60

38d86a53 90 3b 3a   Note On B2 58

38d86a6f 90 28 28   Note On E1 40
38d86cb6 90 38 00   Note On(0-Off) Ab2

38d86cc2 90 3b 00   Note On(0-Off) B2

38d86cc6 90 36 00   Note On(0-Off) F#2

38d86ce3 90 28 00   Note On(0-Off) E1

38d86ce5 90 34 00   Note On(0-Off) E2
38d86dbf 90 34 45   Note On E2 69
38d86dc7 90 36 3a   Note On F#2 58

38d86dca 90 3b 3c   Note On B2 60

38d86dcb 90 38 3d   Note On Ab2 61
38d86f47 90 34 00   Note On(0-Off) E2
38d86f61 90 3b 00   Note On(0-Off) B2

38d86f6e 90 38 00   Note On(0-Off) Ab2

38d86f93 90 36 00   Note On(0-Off) F#2
38d8712d 90 36 3c   Note On F#2 60

38d87132 90 3b 3a   Note On B2 58

38d87139 90 33 27   Note On Eb2 39

38d87148 90 27 2b   Note On Eb1 43
38d873d4 90 33 00   Note On(0-Off) Eb2

38d873d7 90 3b 00   Note On(0-Off) B2

38d873ee 90 36 00   Note On(0-Off) F#2
38d874b2 90 36 3c   Note On F#2 60

38d874b4 90 33 25   Note On Eb2 37

38d874bd 90 3b 42   Note On B2 66

38d874c2 90 27 00   Note On(0-Off) Eb1
38d87684 90 27 1b   Note On Eb1 27
38d87738 90 33 00   Note On(0-Off) Eb2

38d8774d 90 3b 00   Note On(0-Off) B2
38d87765 90 27 00   Note On(0-Off) Eb1

38d87766 90 36 00   Note On(0-Off) F#2
38d87838 90 36 3d   Note On F#2 61

38d8783c 90 33 25   Note On Eb2 37

38d87843 90 3b 3c   Note On B2 60

38d87855 90 27 27   Note On Eb1 39
38d87b0d 90 3b 00   Note On(0-Off) B2

38d87b1b 90 36 00   Note On(0-Off) F#2

38d87b1e 90 33 00   Note On(0-Off) Eb2
38d87bc6 90 36 47   Note On F#2 71

38d87bcd 90 33 3f   Note On Eb2 63

38d87bce 90 3b 5e   Note On B2 94
38d87c57 90 27 00   Note On(0-Off) Eb1
38d87d80 90 27 25   Note On Eb1 37
38d87e98 90 3b 00   Note On(0-Off) B2

38d87e9f 90 33 00   Note On(0-Off) Eb2
38d87eab 90 36 00   Note On(0-Off) F#2

38d87ebf 90 27 00   Note On(0-Off) Eb1
38d87f50 90 33 31   Note On Eb2 49

38d87f51 90 36 49   Note On F#2 73

38d87f57 90 3b 4b   Note On B2 75

38d87f5f 90 25 4f   Note On C#1 79
38d881e0 90 3b 00   Note On(0-Off) B2

38d881fc 90 36 00   Note On(0-Off) F#2

38d881fd 90 33 00   Note On(0-Off) Eb2
38d882b2 90 25 00   Note On(0-Off) C#1

38d882cb 90 33 23   Note On Eb2 35

38d882cc 90 36 40   Note On F#2 64

38d882cf 90 3b 3d   Note On B2 61
38d88481 90 25 1a   Note On C#1 26

38d88483 90 36 00   Note On(0-Off) F#2

38d88484 90 33 00   Note On(0-Off) Eb2
38d884ae 90 3b 00   Note On(0-Off) B2
38d88562 90 25 00   Note On(0-Off) C#1
38d88630 90 34 3a   Note On E2 58

38d8863a 90 36 3a   Note On F#2 58

38d8863f 90 38 3d   Note On Ab2 61
38d8864c 90 25 34   Note On C#1 52

38d88653 90 3b 22   Note On B2 34
38d888e6 90 36 00   Note On(0-Off) F#2

38d888e7 90 38 00   Note On(0-Off) Ab2

38d888ee 90 34 00   Note On(0-Off) E2

38d888fc 90 3b 00   Note On(0-Off) B2
38d8896b 90 25 00   Note On(0-Off) C#1
38d889cc 90 34 44   Note On E2 68

38d889d4 90 3b 38   Note On B2 56

38d889d5 90 38 34   Note On Ab2 52

38d889d7 90 36 3d   Note On F#2 61
38d88b4a 90 25 14   Note On C#1 20
38d88b8e 90 38 00   Note On(0-Off) Ab2

38d88b90 90 3b 00   Note On(0-Off) B2

38d88b98 90 36 00   Note On(0-Off) F#2

38d88ba5 90 34 00   Note On(0-Off) E2
38d88c17 90 25 00   Note On(0-Off) C#1
38d88d47 90 31 3e   Note On C#2 62
38d88d50 90 39 4b   Note On A2 75

38d88d5a 90 2d 56   Note On A1 86

38d88d5f 90 34 67   Note On E2 103
38d88f3d 90 39 00   Note On(0-Off) A2
38d88f7c 90 39 14   Note On A2 20
38d89017 90 39 00   Note On(0-Off) A2
38d8902d 90 34 00   Note On(0-Off) E2
38d890cd 90 31 00   Note On(0-Off) C#2
38d8918a 90 2d 00   Note On(0-Off) A1
38d891e6 90 34 66   Note On E2 102
38d89237 90 36 5b   Note On F#2 91
38d8928f 90 2c 64   Note On Ab1 100
38d89323 90 38 6b   Note On Ab2 107

38d8933a 90 34 00   Note On(0-Off) E2
38d89384 90 36 00   Note On(0-Off) F#2

38d893b1 90 38 00   Note On(0-Off) Ab2
38d893e7 90 2c 00   Note On(0-Off) Ab1
38d89487 90 31 3e   Note On C#2 62

38d89499 90 39 69   Note On A2 105

38d8949d 90 2a 60   Note On F#1 96

38d8949e 90 34 6b   Note On E2 107
38d89538 90 31 00   Note On(0-Off) C#2
38d89597 90 31 0f   Note On C#2 15
38d89744 90 39 00   Note On(0-Off) A2

38d8974e 90 34 00   Note On(0-Off) E2

38d8975b 90 31 00   Note On(0-Off) C#2
38d897e6 90 39 69   Note On A2 105

38d897e8 90 31 4d   Note On C#2 77

38d897ee 90 34 70   Note On E2 112
38d89844 90 2a 00   Note On(0-Off) F#1
38d89895 90 31 00   Note On(0-Off) C#2
38d898f3 90 39 00   Note On(0-Off) A2

38d89923 90 34 00   Note On(0-Off) E2
38d89955 90 2a 3f   Note On F#1 63

38d8998f 90 31 3d   Note On C#2 61
38d89a8f 90 31 00   Note On(0-Off) C#2
38d89b1f 90 2a 00   Note On(0-Off) F#1

38d89b26 90 2f 64   Note On B1 100

38d89b2c 90 31 52   Note On C#2 82

38d89b2f 90 39 6d   Note On A2 109

38d89b33 90 34 74   Note On E2 116
38d89ba6 90 31 00   Note On(0-Off) C#2
38d89bda 90 34 00   Note On(0-Off) E2

38d89be5 90 39 00   Note On(0-Off) A2
38d89d16 90 3d 34   Note On C#3 52

38d89d51 90 3d 00   Note On(0-Off) C#3
38d89d9f 90 2f 00   Note On(0-Off) B1
38d89e88 90 45 64   Note On A3 100
38d89e8d 90 40 67   Note On E3 103

38d89e8f 90 3d 67   Note On C#3 103
38d89f06 90 3d 00   Note On(0-Off) C#3

38d89f14 90 40 00   Note On(0-Off) E3

38d89f1f 90 45 00   Note On(0-Off) A3
38d8a008 90 2f 56   Note On B1 86
38d8a0eb 90 2f 00   Note On(0-Off) B1
38d8a1e5 90 3f 27   Note On Eb3 39

38d8a1e9 90 42 4b   Note On F#3 75

38d8a1ea 90 47 67   Note On B3 103

38d8a1eb 90 2f 67   Note On B1 103

38d8a214 90 3f 00   Note On(0-Off) Eb3
38d8a217 90 40 7d   Note On E3 125

38d8a252 90 40 00   Note On(0-Off) E3

38d8a25d 90 47 00   Note On(0-Off) B3

38d8a26c 90 42 00   Note On(0-Off) F#3
38d8a3f1 90 2f 00   Note On(0-Off) B1
38d8a55b 90 51 5f   Note On A4 95

38d8a56d 90 4c 6b   Note On E4 107
38d8a636 90 4c 00   Note On(0-Off) E4
38d8a687 90 51 00   Note On(0-Off) A4
38d8a706 90 2f 59   Note On B1 89
38d8a888 90 2f 00   Note On(0-Off) B1
38d8a8d0 90 4c 67   Note On E4 103

38d8a8d1 90 53 69   Note On B4 105

38d8a8d3 90 28 66   Note On E1 102

38d8a8d4 90 4e 6b   Note On F#4 107
38d8a979 90 4e 00   Note On(0-Off) F#4
38d8a9de 90 4c 00   Note On(0-Off) E4
38d8aa4e 90 53 00   Note On(0-Off) B4
38d8aa7a 90 2f 45   Note On B1 69

38d8aaaa 90 28 00   Note On(0-Off) E1
38d8aaff 90 2f 00   Note On(0-Off) B1
38d8ab3c 90 34 5e   Note On E2 94
38d8abdf 90 34 00   Note On(0-Off) E2
38d8ac0c 90 36 66   Note On F#2 102
38d8ad15 90 38 4f   Note On Ab2 79
38d8ad80 90 36 00   Note On(0-Off) F#2
38d8adde 90 3b 5f   Note On B2 95
38d8ae23 90 38 00   Note On(0-Off) Ab2
38d8af86 90 42 67   Note On F#3 103

38d8afa3 90 47 5f   Note On B3 95

38d8afa9 90 44 62   Note On Ab3 98
38d8b014 90 42 00   Note On(0-Off) F#3
38d8b12e 90 42 12   Note On F#3 18
38d8b185 90 44 00   Note On(0-Off) Ab3

38d8b1b2 90 47 00   Note On(0-Off) B3

38d8b1c7 90 42 00   Note On(0-Off) F#3
38d8b1f5 90 3b 00   Note On(0-Off) B2

38d8b223 90 42 5b   Note On F#3 91

38d8b22f 90 47 5f   Note On B3 95
38d8b3fa 90 40 31   Note On E3 49

38d8b3fa 90 44 70   Note On Ab3 112

38d8b3fa 90 47 00   Note On(0-Off) B3

38d8b3fa 90 42 00   Note On(0-Off) F#3
38d8b436 90 40 00   Note On(0-Off) E3
38d8b4a1 90 44 00   Note On(0-Off) Ab3
38d8b6bd 90 25 69   Note On C#1 105

38d8b6cb 90 42 64   Note On F#3 100

38d8b6cc 90 40 60   Note On E3 96
38d8b7cc 90 2c 5b   Note On Ab1 91
38d8b82a 90 25 00   Note On(0-Off) C#1
38d8b8dc 90 2c 00   Note On(0-Off) Ab1
38d8b972 90 44 49   Note On Ab3 73
38d8b9ee 90 40 00   Note On(0-Off) E3

38d8b9f5 90 42 00   Note On(0-Off) F#3
38d8ba66 90 44 00   Note On(0-Off) Ab3
38d8bb9c 90 3d 3d   Note On C#3 61

38d8bba6 90 40 49   Note On E3 73
38d8be11 90 40 00   Note On(0-Off) E3
38d8bec9 90 3d 00   Note On(0-Off) C#3
38d8bee4 90 31 19   Note On C#2 25
38d8c029 90 33 34   Note On Eb2 52

38d8c064 90 31 00   Note On(0-Off) C#2
38d8c127 90 34 60   Note On E2 96
38d8c15d 90 33 00   Note On(0-Off) Eb2
38d8c21d 90 39 44   Note On A2 68

38d8c254 90 34 00   Note On(0-Off) E2
38d8c30e 90 3b 6e   Note On B2 110
38d8c3ee 90 3d 6d   Note On C#3 109
38d8c429 90 39 00   Note On(0-Off) A2

38d8c43b 90 3b 00   Note On(0-Off) B2
38d8c49b 90 3d 00   Note On(0-Off) C#3
38d8c4e0 90 3d 6e   Note On C#3 110

38d8c4e2 90 2a 5f   Note On F#1 95

38d8c4e4 90 39 5f   Note On A2 95

38d8c4e6 90 36 4b   Note On F#2 75
38d8c73d 90 2a 00   Note On(0-Off) F#1
38d8c796 90 36 00   Note On(0-Off) F#2

38d8c7c8 90 3d 00   Note On(0-Off) C#3
38d8c7e2 90 39 00   Note On(0-Off) A2
38d8c84e 90 3d 72   Note On C#3 114

38d8c856 90 37 64   Note On G2 100

38d8c857 90 39 5e   Note On A2 94
38d8c90c 90 37 00   Note On(0-Off) G2
38d8ca21 90 40 62   Note On E3 98

38d8ca2b 90 3d 00   Note On(0-Off) C#3
38d8cad6 90 39 00   Note On(0-Off) A2

38d8cb11 90 40 00   Note On(0-Off) E3
38d8cbdf 90 2c 67   Note On Ab1 103

38d8cbe1 90 40 64   Note On E3 100

38d8cbe6 90 38 3d   Note On Ab2 61
38d8cbf5 90 3b 72   Note On B2 114
38d8cd62 90 38 00   Note On(0-Off) Ab2

38d8cd7b 90 3b 00   Note On(0-Off) B2

38d8cd8b 90 40 00   Note On(0-Off) E3
38d8cdd3 90 38 12   Note On Ab2 18
38d8cee9 90 38 00   Note On(0-Off) Ab2
38d8cf4d 90 2c 00   Note On(0-Off) Ab1

38d8cf61 90 38 5e   Note On Ab2 94

38d8cf65 90 3b 74   Note On B2 116
38d8d103 90 2c 5b   Note On Ab1 91
38d8d175 90 2c 00   Note On(0-Off) Ab1

38d8d185 90 38 00   Note On(0-Off) Ab2

38d8d19f 90 3b 00   Note On(0-Off) B2
38d8d2e0 90 2d 6e   Note On A1 110
38d8d3fd 90 39 5f   Note On A2 95
38d8d435 90 39 00   Note On(0-Off) A2
38d8d4b3 90 39 4b   Note On A2 75
38d8d5b7 90 39 00   Note On(0-Off) A2

38d8d5c5 90 3e 5b   Note On D3 91
38d8d67d 90 3e 00   Note On(0-Off) D3
38d8d815 90 2d 00   Note On(0-Off) A1
38d8d96c 90 2d 60   Note On A1 96
38d8da60 90 38 59   Note On Ab2 89
38d8db18 90 39 66   Note On A2 102
38d8db25 90 38 00   Note On(0-Off) Ab2
38d8dbfa 90 40 5f   Note On E3 95
38d8dcf0 90 40 00   Note On(0-Off) E3

38d8dcf9 90 2d 00   Note On(0-Off) A1
38d8dd1a 90 39 00   Note On(0-Off) A2
38d8ddb6 90 38 33   Note On Ab2 51
38d8de7e 90 38 00   Note On(0-Off) Ab2

38d8dea0 90 39 3f   Note On A2 63
38d8df4a 90 40 40   Note On E3 64
38d8dfb4 90 39 00   Note On(0-Off) A2
38d8dfe0 90 40 00   Note On(0-Off) E3
38d8e055 90 40 67   Note On E3 103

38d8e059 90 39 6d   Note On A2 109

38d8e05e 90 2f 70   Note On B1 112
38d8e19e 90 40 00   Note On(0-Off) E3
38d8e1e9 90 39 00   Note On(0-Off) A2
38d8e3d1 90 39 5b   Note On A2 91

38d8e3d3 90 3f 69   Note On Eb3 105
38d8e454 90 2f 00   Note On(0-Off) B1
38d8e5c0 90 2f 23   Note On B1 35
38d8e664 90 3f 00   Note On(0-Off) Eb3

38d8e673 90 2f 00   Note On(0-Off) B1

38d8e678 90 39 00   Note On(0-Off) A2
38d8e789 90 39 52   Note On A2 82

38d8e789 90 2f 64   Note On B1 100

38d8e78a 90 3d 67   Note On C#3 103
38d8ea6d 90 39 00   Note On(0-Off) A2
38d8ea9d 90 3d 00   Note On(0-Off) C#3
38d8eafd 90 3f 67   Note On Eb3 103
38d8ebd5 90 3f 00   Note On(0-Off) Eb3

38d8ebec 90 2f 00   Note On(0-Off) B1
38d8ec32 90 3f 14   Note On Eb3 20

38d8ec66 90 3f 00   Note On(0-Off) Eb3
38d8eceb 90 2f 3c   Note On B1 60
38d8ee71 90 40 4f   Note On E3 79

38d8ee75 90 28 44   Note On E1 68

38d8ee7a 90 2f 00   Note On(0-Off) B1

38d8ee7c 90 38 4d   Note On Ab2 77
38d8ee7f 90 3b 6b   Note On B2 107
38d8ef44 90 38 00   Note On(0-Off) Ab2

38d8ef4e 90 3b 00   Note On(0-Off) B2
38d8ef76 90 40 00   Note On(0-Off) E3

38d8ef88 90 2f 3d   Note On B1 61

38d8efb5 90 28 00   Note On(0-Off) E1
38d8f031 90 2f 00   Note On(0-Off) B1

38d8f08c 90 34 49   Note On E2 73
38d8f10e 90 34 00   Note On(0-Off) E2
38d8f174 90 36 2c   Note On F#2 44
38d8f269 90 38 36   Note On Ab2 54
38d8f340 90 3b 4b   Note On B2 75
38d8f36a 90 36 00   Note On(0-Off) F#2

38d8f3ac 90 38 00   Note On(0-Off) Ab2
38d8f415 90 40 4f   Note On E3 79
38d8f46b 90 3b 00   Note On(0-Off) B2
38d8f494 90 40 00   Note On(0-Off) E3
38d8f5dd 90 3d 6b   Note On C#3 107

38d8f5e5 90 2f 62   Note On B1 98

38d8f5e6 90 3a 49   Note On Bb2 73

38d8f5ea 90 37 56   Note On G2 86

38d8f5eb 90 40 67   Note On E3 103

38d8f5ec 90 39 40   Note On A2 64

38d8f5fb 90 3b 7d   Note On B2 125

38d8f5ff 90 37 00   Note On(0-Off) G2
38d8f643 90 3a 00   Note On(0-Off) Bb2

38d8f65f 90 3b 00   Note On(0-Off) B2
38d8f6cd 90 3d 00   Note On(0-Off) C#3
38d8f714 90 39 00   Note On(0-Off) A2
38d8f746 90 2f 00   Note On(0-Off) B1

38d8f754 90 40 00   Note On(0-Off) E3
38d8f93f 90 33 5b   Note On Eb2 91

38d8f954 90 3b 67   Note On B2 103

38d8f956 90 3f 64   Note On Eb3 100

38d8f95f 90 42 6e   Note On F#3 110
38d8fa09 90 3b 00   Note On(0-Off) B2
38d8faa6 90 3f 00   Note On(0-Off) Eb3

38d8fac0 90 33 00   Note On(0-Off) Eb2
38d8fb0f 90 42 00   Note On(0-Off) F#3
38d8fc3c 90 28 34   Note On E1 52
38d8fd3a 90 2f 4d   Note On B1 77
38d8fd6d 90 28 00   Note On(0-Off) E1

38d8fdb5 90 2f 00   Note On(0-Off) B1
38d8fe05 90 34 3d   Note On E2 61
38d8fe79 90 34 00   Note On(0-Off) E2
38d8fedd 90 36 3f   Note On F#2 63
38d8ffcf 90 38 31   Note On Ab2 49
38d90098 90 36 00   Note On(0-Off) F#2
38d900bd 90 3b 5b   Note On B2 91
38d90116 90 38 00   Note On(0-Off) Ab2
38d901a2 90 40 34   Note On E3 52
38d901d1 90 3b 00   Note On(0-Off) B2
38d90277 90 42 4b   Note On F#3 75
38d9034c 90 40 00   Note On(0-Off) E3
38d90393 90 42 00   Note On(0-Off) F#3

38d90399 90 44 72   Note On Ab3 114
38d905d2 90 33 31   Note On Eb2 49
38d90625 90 47 60   Note On B3 96

38d90660 90 44 00   Note On(0-Off) Ab3
38d90781 90 47 00   Note On(0-Off) B3

38d907a3 90 42 56   Note On F#3 86

38d907a5 90 38 66   Note On Ab2 102

38d907ab 90 33 00   Note On(0-Off) Eb2
38d9088f 90 38 00   Note On(0-Off) Ab2
38d908fc 90 42 00   Note On(0-Off) F#3
38d90aba 90 40 56   Note On E3 86

38d90abf 90 2d 59   Note On A1 89
38d90b90 90 40 00   Note On(0-Off) E3
38d90be6 90 2d 00   Note On(0-Off) A1
38d90d59 90 34 4f   Note On E2 79
38d90e13 90 39 4b   Note On A2 75
38d90f15 90 3b 5b   Note On B2 91

38d90f1c 90 34 00   Note On(0-Off) E2
38d90fc5 90 3d 56   Note On C#3 86
38d91067 90 3b 00   Note On(0-Off) B2
38d910d3 90 39 00   Note On(0-Off) A2

38d910d6 90 3d 00   Note On(0-Off) C#3
38d9117a 90 40 5e   Note On E3 94

38d9117c 90 3d 6b   Note On C#3 107

38d9117d 90 39 5b   Note On A2 91

38d91185 90 2f 67   Note On B1 103

38d91186 90 3b 70   Note On B2 112
38d91215 90 3b 00   Note On(0-Off) B2

38d91221 90 3d 00   Note On(0-Off) C#3

38d9122c 90 40 00   Note On(0-Off) E3

38d91238 90 39 00   Note On(0-Off) A2

38d91241 90 2f 00   Note On(0-Off) B1
38d913cd 90 39 47   Note On A2 71

38d913cf 90 3f 5e   Note On Eb3 94

38d913d1 90 3b 69   Note On B2 105

38d913d4 90 31 49   Note On C#2 73
38d914b6 90 3b 00   Note On(0-Off) B2

38d914d0 90 39 00   Note On(0-Off) A2
38d91519 90 3f 00   Note On(0-Off) Eb3

38d9154c 90 33 5e   Note On Eb2 94

38d9154f 90 40 5b   Note On E3 91

38d91553 90 39 4f   Note On A2 79

38d91554 90 3b 6b   Note On B2 107

38d9156d 90 31 00   Note On(0-Off) C#2
38d915dc 90 33 00   Note On(0-Off) Eb2

38d915dd 90 3b 00   Note On(0-Off) B2

38d915dd 90 39 00   Note On(0-Off) A2

38d915ea 90 40 00   Note On(0-Off) E3
38d91895 90 40 4b   Note On E3 75

38d91896 90 28 62   Note On E1 98

38d9189c 90 44 60   Note On Ab3 96
38d919f6 90 28 00   Note On(0-Off) E1
38d91b0b 90 44 00   Note On(0-Off) Ab3

38d91b11 90 40 00   Note On(0-Off) E3
38d91c34 90 28 6e   Note On E1 110

38d91c3f 90 40 4f   Note On E3 79

38d91c44 90 44 62   Note On Ab3 98
38d91cee 90 40 00   Note On(0-Off) E3
38d91d58 90 28 00   Note On(0-Off) E1

38d91d8d 90 44 00   Note On(0-Off) Ab3
38d91dc9 90 45 5f   Note On A3 95

38d91dcf 90 2a 52   Note On F#1 82

38d91dd3 90 40 66   Note On E3 102
38d91e89 90 40 00   Note On(0-Off) E3
38d91ecb 90 45 00   Note On(0-Off) A3
38d91f7d 90 2a 00   Note On(0-Off) F#1
38d91fa0 90 2c 67   Note On Ab1 103

38d91fa6 90 47 69   Note On B3 105

38d91fa6 90 44 67   Note On Ab3 103

38d91fa6 90 40 59   Note On E3 89
38d920a9 90 40 00   Note On(0-Off) E3
38d9212e 90 44 00   Note On(0-Off) Ab3
38d92174 90 47 00   Note On(0-Off) B3
38d92328 90 4c 70   Note On E4 112
38d9233d 90 2c 00   Note On(0-Off) Ab1
38d92612 90 4c 00   Note On(0-Off) E4
38d926a8 90 2d 6b   Note On A1 107

38d926b5 90 4c 72   Note On E4 114
38d927ab 90 4c 00   Note On(0-Off) E4
38d92879 90 2d 00   Note On(0-Off) A1
38d92969 90 45 62   Note On A3 98
38d92a1d 90 45 00   Note On(0-Off) A3
38d92ba1 90 34 13   Note On E2 19
38d92cf4 90 3d 0e   Note On C#3 14
38d92dfc 90 34 00   Note On(0-Off) E2

38d92e09 90 2f 66   Note On B1 102
38d93067 90 3d 00   Note On(0-Off) C#3
38d930b2 90 2f 00   Note On(0-Off) B1

38d930be 90 45 62   Note On A3 98

38d930c4 90 3d 4b   Note On C#3 75

38d930c5 90 40 64   Note On E3 100
38d9312f 90 40 00   Note On(0-Off) E3

38d9313e 90 3d 00   Note On(0-Off) C#3

38d93150 90 45 00   Note On(0-Off) A3
38d9319b 90 45 66   Note On A3 102

38d9319c 90 3d 6b   Note On C#3 107

38d931a3 90 40 72   Note On E3 114
38d932a8 90 45 00   Note On(0-Off) A3

38d932b9 90 40 00   Note On(0-Off) E3

38d932ca 90 3d 00   Note On(0-Off) C#3

38d932e8 90 40 6b   Note On E3 107

38d932ec 90 3d 2f   Note On C#3 47

38d932ee 90 44 72   Note On Ab3 114
38d93410 90 42 6e   Note On F#3 110

38d93436 90 44 00   Note On(0-Off) Ab3
38d934a8 90 40 00   Note On(0-Off) E3

38d934b3 90 42 00   Note On(0-Off) F#3

38d934b7 90 3d 00   Note On(0-Off) C#3
38d9351d 90 3d 5b   Note On C#3 91

38d9351f 90 44 69   Note On Ab3 105

38d93521 90 40 6d   Note On E3 109

38d93530 90 31 60   Note On C#2 96
38d937a7 90 40 00   Note On(0-Off) E3

38d937b6 90 44 00   Note On(0-Off) Ab3
38d937d6 90 3d 00   Note On(0-Off) C#3
38d93855 90 3d 56   Note On C#3 86

38d9385c 90 44 69   Note On Ab3 105

38d9385e 90 40 6e   Note On E3 110
38d938df 90 31 00   Note On(0-Off) C#2
38d9396d 90 40 00   Note On(0-Off) E3
38d9398b 90 3d 00   Note On(0-Off) C#3
38d93a24 90 44 00   Note On(0-Off) Ab3
38d93ad7 90 45 62   Note On A3 98

38d93ade 90 3d 52   Note On C#3 82

38d93aec 90 40 62   Note On E3 98
38d93b76 90 40 00   Note On(0-Off) E3

38d93b91 90 45 00   Note On(0-Off) A3
38d93b94 90 3d 00   Note On(0-Off) C#3

38d93bd6 90 2f 64   Note On B1 100

38d93bde 90 3d 67   Note On C#3 103

38d93be0 90 40 6e   Note On E3 110

38d93be5 90 44 69   Note On Ab3 105
38d93d78 90 44 00   Note On(0-Off) Ab3
38d93e36 90 3d 00   Note On(0-Off) C#3

38d93e4e 90 40 00   Note On(0-Off) E3
38d93f72 90 40 3f   Note On E3 63
38d94122 90 3d 47   Note On C#3 71

38d94131 90 40 00   Note On(0-Off) E3

38d94185 90 3d 00   Note On(0-Off) C#3
38d941ad 90 2f 00   Note On(0-Off) B1
38d942ec 90 39 52   Note On A2 82

38d942ee 90 2d 67   Note On A1 103

38d942ef 90 40 66   Note On E3 102

38d942f3 90 3b 72   Note On B2 114

38d94300 90 3d 79   Note On C#3 121
38d94416 90 39 00   Note On(0-Off) A2
38d94472 90 3b 00   Note On(0-Off) B2
38d944c0 90 40 00   Note On(0-Off) E3

38d944c9 90 2d 00   Note On(0-Off) A1

38d944ff 90 3d 00   Note On(0-Off) C#3
38d94697 90 39 2b   Note On A2 43
38d946a2 90 3b 33   Note On B2 51

38d946a8 90 3d 3f   Note On C#3 63

38d946a8 90 40 28   Note On E3 40
38d9485d 90 39 00   Note On(0-Off) A2

38d94886 90 40 00   Note On(0-Off) E3

38d9488e 90 3b 00   Note On(0-Off) B2
38d9489c 90 3d 00   Note On(0-Off) C#3
38d94a09 90 3b 21   Note On B2 33

38d94a0a 90 40 13   Note On E3 19

38d94a10 90 39 19   Note On A2 25
38d94a44 90 3d 11   Note On C#3 17
38d94bfd 90 39 00   Note On(0-Off) A2
38d94c55 90 3d 00   Note On(0-Off) C#3
38d94cb7 90 40 00   Note On(0-Off) E3

38d94cdf 90 3b 00   Note On(0-Off) B2
38d94dc7 90 40 59   Note On E3 89

38d94dcf 90 3b 67   Note On B2 103

38d94dd1 90 3d 5e   Note On C#3 94

38d94dd1 90 39 52   Note On A2 82
38d94e4f 90 39 00   Note On(0-Off) A2

38d94e55 90 3b 00   Note On(0-Off) B2

38d94e5c 90 3d 00   Note On(0-Off) C#3
38d94ea8 90 3d 40   Note On C#3 64

38d94ebd 90 39 36   Note On A2 54
38d94f9f 90 3b 72   Note On B2 114

38d94fa0 90 3d 00   Note On(0-Off) C#3
38d94fe4 90 40 00   Note On(0-Off) E3

38d95006 90 39 00   Note On(0-Off) A2
38d9507b 90 3b 00   Note On(0-Off) B2
38d95134 90 3b 15   Note On B2 21
38d95147 90 28 5b   Note On E1 91

38d9514a 90 38 44   Note On Ab2 68

38d95155 90 40 64   Note On E3 100
38d9543d 90 3b 00   Note On(0-Off) B2

38d9544e 90 38 00   Note On(0-Off) Ab2

38d95458 90 40 00   Note On(0-Off) E3
38d954ef 90 38 52   Note On Ab2 82

38d954f0 90 40 69   Note On E3 105

38d954f5 90 3b 76   Note On B2 118

38d954f9 90 28 00   Note On(0-Off) E1
38d95579 90 40 00   Note On(0-Off) E3

38d95596 90 3b 00   Note On(0-Off) B2
38d955ca 90 38 00   Note On(0-Off) Ab2
38d9569c 90 38 04   Note On Ab2 4

38d9569d 90 3f 6d   Note On Eb3 109

38d956a1 90 2a 6d   Note On F#1 109
38d9571a 90 3f 00   Note On(0-Off) Eb3
38d9573f 90 38 00   Note On(0-Off) Ab2
38d9584e 90 38 4b   Note On Ab2 75

38d95851 90 2c 64   Note On Ab1 100

38d95855 90 3b 76   Note On B2 118
38d9586a 90 2a 00   Note On(0-Off) F#1
38d959a5 90 38 00   Note On(0-Off) Ab2
38d95b2f 90 3b 00   Note On(0-Off) B2
38d95e10 90 38 4d   Note On Ab2 77
38d95eab 90 38 00   Note On(0-Off) Ab2
38d95f3d 90 2c 00   Note On(0-Off) Ab1
38d95fce 90 31 23   Note On C#2 35

38d95fd6 90 34 72   Note On E2 114
38d95fff 90 25 6b   Note On C#1 107
38d96291 90 31 00   Note On(0-Off) C#2

38d962b2 90 34 00   Note On(0-Off) E2
38d9636e 90 31 47   Note On C#2 71

38d96375 90 34 72   Note On E2 114
38d96418 90 25 00   Note On(0-Off) C#1
38d96533 90 36 69   Note On F#2 105

38d96574 90 34 00   Note On(0-Off) E2
38d96604 90 38 6b   Note On Ab2 107
38d96650 90 36 00   Note On(0-Off) F#2

38d966b3 90 31 00   Note On(0-Off) C#2
38d966b9 90 38 00   Note On(0-Off) Ab2

38d966f6 90 2b 72   Note On G1 114

38d96705 90 39 64   Note On A2 100

38d9670a 90 31 5f   Note On C#2 95

38d96710 90 34 6d   Note On E2 109
38d96762 90 2b 00   Note On(0-Off) G1

38d9678f 90 31 00   Note On(0-Off) C#2
38d967f5 90 2c 70   Note On Ab1 112
38d9684f 90 39 00   Note On(0-Off) A2

38d9685b 90 34 00   Note On(0-Off) E2
38d96892 90 38 60   Note On Ab2 96

38d968a0 90 31 3a   Note On C#2 58

38d968b0 90 34 6d   Note On E2 109
38d96915 90 34 00   Note On(0-Off) E2
38d9695c 90 31 00   Note On(0-Off) C#2

38d96982 90 38 00   Note On(0-Off) Ab2
38d96a6b 90 36 6b   Note On F#2 107

38d96a6d 90 31 3d   Note On C#2 61
38d96b48 90 2c 00   Note On(0-Off) Ab1

38d96b52 90 31 00   Note On(0-Off) C#2
38d96c27 90 36 00   Note On(0-Off) F#2

38d96c27 90 2c 52   Note On Ab1 82

38d96c27 90 31 0d   Note On C#2 13

38d96c2c 90 34 6e   Note On E2 110
38d96c9c 90 31 00   Note On(0-Off) C#2

38d96c9e 90 34 00   Note On(0-Off) E2
38d96cdf 90 2c 00   Note On(0-Off) Ab1
38d96e0a 90 2d 6d   Note On A1 109

38d96e11 90 34 69   Note On E2 105

38d96e12 90 31 6b   Note On C#2 107

38d96e13 90 2f 70   Note On B1 112
38d96f1c 90 2d 00   Note On(0-Off) A1
38d96f76 90 34 00   Note On(0-Off) E2
38d96fcb 90 2d 5f   Note On A1 95

38d96fd5 90 31 00   Note On(0-Off) C#2
38d97037 90 2f 00   Note On(0-Off) B1
38d970a8 90 2d 00   Note On(0-Off) A1
38d97196 90 34 59   Note On E2 89

38d97198 90 2d 3a   Note On A1 58

38d9719c 90 31 3d   Note On C#2 61

38d9719f 90 2f 5b   Note On B1 91
38d9720c 90 2f 00   Note On(0-Off) B1

38d9720d 90 2d 00   Note On(0-Off) A1

38d9721a 90 31 00   Note On(0-Off) C#2

38d97228 90 34 00   Note On(0-Off) E2
38d97385 90 39 4f   Note On A2 79
38d974c5 90 39 00   Note On(0-Off) A2
38d97552 90 39 4d   Note On A2 77

38d97559 90 3d 6b   Note On C#3 107

38d9755a 90 3b 6b   Note On B2 107

38d9755d 90 40 49   Note On E3 73
38d97609 90 39 00   Note On(0-Off) A2

38d97638 90 3b 00   Note On(0-Off) B2
38d976e3 90 40 00   Note On(0-Off) E3

38d976f4 90 3d 00   Note On(0-Off) C#3

38d9770e 90 39 40   Note On A2 64
38d9781e 90 39 00   Note On(0-Off) A2
38d978e9 90 39 3c   Note On A2 60

38d978ea 90 3b 56   Note On B2 86

38d978ec 90 40 28   Note On E3 40

38d978ee 90 3d 5f   Note On C#3 95
38d9799a 90 39 00   Note On(0-Off) A2

38d979c8 90 3b 00   Note On(0-Off) B2
38d97a9d 90 39 3a   Note On A2 58
38d97afe 90 3d 00   Note On(0-Off) C#3
38d97b66 90 40 00   Note On(0-Off) E3
38d97b94 90 39 00   Note On(0-Off) A2
38d97c5d 90 40 31   Note On E3 49

38d97c78 90 39 21   Note On A2 33

38d97c79 90 3d 56   Note On C#3 86

38d97c7a 90 3b 3d   Note On B2 61
38d97d17 90 39 00   Note On(0-Off) A2

38d97d35 90 3b 00   Note On(0-Off) B2
38d97e3d 90 40 00   Note On(0-Off) E3

38d97e4f 90 39 34   Note On A2 52
38d97eac 90 3d 00   Note On(0-Off) C#3
38d97f37 90 39 00   Note On(0-Off) A2
38d9802b 90 40 3d   Note On E3 61

38d9802c 90 3d 5f   Note On C#3 95

38d9802d 90 3b 66   Note On B2 102

38d98034 90 39 2c   Note On A2 44
38d98092 90 39 00   Note On(0-Off) A2
38d980f8 90 3b 00   Note On(0-Off) B2

38d980fb 90 40 00   Note On(0-Off) E3

38d9812a 90 3d 00   Note On(0-Off) C#3
38d981da 90 39 44   Note On A2 68
38d982bf 90 2c 52   Note On Ab1 82

38d982d0 90 2c 00   Note On(0-Off) Ab1
38d982e8 90 2b 3c   Note On G1 60

38d98313 90 39 00   Note On(0-Off) A2
38d98363 90 2b 00   Note On(0-Off) G1

38d98397 90 2a 59   Note On F#1 89
38d98400 90 40 31   Note On E3 49
38d9844a 90 39 67   Note On A2 103

38d98451 90 2a 00   Note On(0-Off) F#1

38d98454 90 28 5f   Note On E1 95

38d98455 90 3d 69   Note On C#3 105

38d98458 90 3b 6d   Note On B2 109
38d98497 90 3b 00   Note On(0-Off) B2
38d984e4 90 39 00   Note On(0-Off) A2

38d984e5 90 28 00   Note On(0-Off) E1

38d984fc 90 3d 00   Note On(0-Off) C#3

38d984ff 90 40 00   Note On(0-Off) E3
38d9854d 90 28 3f   Note On E1 63

38d98570 90 28 00   Note On(0-Off) E1
38d9866b 90 38 0d   Note On Ab2 13
38d98675 90 40 0f   Note On E3 15

38d9867e 90 3b 40   Note On B2 64

38d986c4 90 3b 00   Note On(0-Off) B2
38d986e1 90 40 00   Note On(0-Off) E3

38d9872f 90 38 00   Note On(0-Off) Ab2
38d98800 90 38 3a   Note On Ab2 58
38d98805 90 40 4d   Note On E3 77

38d9880e 90 3b 70   Note On B2 112
38d988b7 90 38 00   Note On(0-Off) Ab2
38d9890e 90 40 00   Note On(0-Off) E3

38d98919 90 3b 00   Note On(0-Off) B2
38d989ec 90 38 1a   Note On Ab2 26
38d989fd 90 3b 31   Note On B2 49
38d98a7b 90 3b 00   Note On(0-Off) B2

38d98a98 90 38 00   Note On(0-Off) Ab2
38d98baf 90 40 28   Note On E3 40

38d98bbd 90 38 11   Note On Ab2 17
38d98c82 90 38 00   Note On(0-Off) Ab2

38d98c8e 90 40 00   Note On(0-Off) E3
38dc5cde 90 29 47   Note On F1 71

38dc5cf0 90 47 4f   Note On B3 79
38dc63d4 90 48 56   Note On C4 86
38dc6403 90 47 00   Note On(0-Off) B3
38dc64a4 90 48 00   Note On(0-Off) C4
38dc64ec 90 29 00   Note On(0-Off) F1
38dc664c 90 45 38   Note On A3 56
38dc6e7f 90 45 00   Note On(0-Off) A3

38dc6e8c 90 47 6b   Note On B3 107

38dc6e97 90 2b 2b   Note On G1 43
38dc7102 90 2b 00   Note On(0-Off) G1
38dc744a 90 47 00   Note On(0-Off) B3

38dc747c 90 43 3e   Note On G3 62
38dc76b6 90 3e 3c   Note On D3 60

38dc76cf 90 43 00   Note On(0-Off) G3
38dc7d22 90 3e 00   Note On(0-Off) D3
38dc8184 90 2d 4f   Note On A1 79
38dc8475 90 3c 7f   Note On C3 127
38dc8a12 90 2d 00   Note On(0-Off) A1
38dc8a93 90 3c 00   Note On(0-Off) C3
38dc8c17 90 2b 47   Note On G1 71

38dc8c17 90 3e 76   Note On D3 118
38dc8d1f 90 2b 00   Note On(0-Off) G1
38dc911c 90 3e 00   Note On(0-Off) D3
38dc9229 90 3c 7f   Note On C3 127
38dc92c7 90 3c 00   Note On(0-Off) C3
38dc934a 90 3e 7d   Note On D3 125
38dc93cd 90 3e 00   Note On(0-Off) D3
38dc946c 90 40 7d   Note On E3 125

38dc946e 90 29 5f   Note On F1 95
38dc95c1 90 29 00   Note On(0-Off) F1
38dc972f 90 40 00   Note On(0-Off) E3
38dc98c6 90 3c 7f   Note On C3 127
38dc9b54 90 3c 00   Note On(0-Off) C3
38dca437 90 54 3f   Note On C5 63
38dca543 90 56 62   Note On D5 98
38dca556 90 54 00   Note On(0-Off) C5
38dca631 90 56 00   Note On(0-Off) D5

38dca658 90 58 40   Note On E5 64
38dca71c 90 58 00   Note On(0-Off) E5
38dcaaaa 90 54 2c   Note On C5 44
38dcaca1 90 54 00   Note On(0-Off) C5
38dcb4f8 90 4f 49   Note On G4 73

38dcb50e 90 28 28   Note On E1 40
38dcb633 90 28 00   Note On(0-Off) E1
38dcb657 90 4f 00   Note On(0-Off) G4
38dcb91e 90 5b 52   Note On G5 82
38dcb9d5 90 5b 00   Note On(0-Off) G5
38dcc102 90 48 33   Note On C4 51
38dcc26b 90 48 00   Note On(0-Off) C4
38dcc33d 90 47 56   Note On B3 86

38dcc345 90 2d 2c   Note On A1 44
38dcc631 90 2d 00   Note On(0-Off) A1

38dcc635 90 47 00   Note On(0-Off) B3
38dcc772 90 48 44   Note On C4 68
38dcc865 90 48 00   Note On(0-Off) C4
38dccbb1 90 4c 3c   Note On E4 60
38dccc40 90 4c 00   Note On(0-Off) E4
38dccf99 90 4f 34   Note On G4 52
38dcd0ec 90 4f 00   Note On(0-Off) G4
38dcd381 90 51 28   Note On A4 40

38dcd382 90 4d 34   Note On F4 52

38dcd383 90 4a 12   Note On D4 18

38dcd38d 90 26 21   Note On D1 33
38dcd62a 90 4a 00   Note On(0-Off) D4

38dcd642 90 4d 00   Note On(0-Off) F4

38dcd655 90 51 00   Note On(0-Off) A4
38dcd772 90 51 28   Note On A4 40

38dcd773 90 4d 33   Note On F4 51

38dcd775 90 26 00   Note On(0-Off) D1

38dcd777 90 4a 22   Note On D4 34
38dcd96f 90 26 23   Note On D1 35
38dcd9ab 90 4d 00   Note On(0-Off) F4

38dcd9b9 90 51 00   Note On(0-Off) A4

38dcd9bb 90 4a 00   Note On(0-Off) D4
38dcda32 90 26 00   Note On(0-Off) D1
38dcdb89 90 4f 3c   Note On G4 60

38dcdb95 90 48 22   Note On C4 34

38dcdb99 90 4c 34   Note On E4 52
38dcdbbc 90 24 6b   Note On C1 107
38dcdd94 90 4c 00   Note On(0-Off) E4
38dcdda9 90 48 00   Note On(0-Off) C4

38dcddcd 90 4f 00   Note On(0-Off) G4
38dcdeba 90 24 00   Note On(0-Off) C1
38dcdfe2 90 48 3a   Note On C4 58

38dcdfe8 90 4f 3d   Note On G4 61

38dcdfe9 90 4c 45   Note On E4 69
38dce19c 90 4f 00   Note On(0-Off) G4
38dce1a1 90 4c 00   Note On(0-Off) E4

38dce1ad 90 48 00   Note On(0-Off) C4
38dce3f4 90 4d 5f   Note On F4 95

38dce3f4 90 46 2f   Note On Bb3 47

38dce3f4 90 4a 60   Note On D4 96

38dce3f4 90 2e 28   Note On Bb1 40
38dce5e7 90 4a 00   Note On(0-Off) D4

38dce612 90 46 00   Note On(0-Off) Bb3
38dce620 90 4d 00   Note On(0-Off) F4
38dce82b 90 4d 59   Note On F4 89

38dce82d 90 46 2c   Note On Bb3 44

38dce830 90 4a 6b   Note On D4 107
38dce8dd 90 2e 00   Note On(0-Off) Bb1
38dce9f7 90 4a 00   Note On(0-Off) D4

38dce9f9 90 4d 00   Note On(0-Off) F4
38dcea13 90 2e 3e   Note On Bb1 62

38dcea16 90 46 00   Note On(0-Off) Bb3
38dceb1f 90 2e 00   Note On(0-Off) Bb1
38dcec24 90 2c 5f   Note On Ab1 95

38dcec24 90 48 64   Note On C4 100

38dcec26 90 44 44   Note On Ab3 68
38dcee64 90 48 00   Note On(0-Off) C4

38dcee77 90 44 00   Note On(0-Off) Ab3
38dcf05d 90 44 2c   Note On Ab3 44
38dcf120 90 44 00   Note On(0-Off) Ab3

38dcf166 90 2c 00   Note On(0-Off) Ab1

38dcf180 90 48 3c   Note On C4 60
38dcf2a9 90 48 00   Note On(0-Off) C4
38dcf485 90 2b 25   Note On G1 37

38dcf486 90 4d 60   Note On F4 96
38dcf816 90 4d 00   Note On(0-Off) F4
38dcf876 90 4a 3d   Note On D4 61
38dcf9bb 90 4a 00   Note On(0-Off) D4
38dcfa64 90 47 21   Note On B3 33
38dcfb0f 90 47 00   Note On(0-Off) B3
38dcfc6c 90 43 13   Note On G3 19
38dcff9b 90 2b 00   Note On(0-Off) G1
38dd0078 90 43 00   Note On(0-Off) G3

38dd0092 90 3e 40   Note On D3 64
38dd02df 90 3e 00   Note On(0-Off) D3
38dd0b9a 90 30 27   Note On C2 39

38dd0b9b 90 48 33   Note On C4 51

38dd0b9c 90 4a 45   Note On D4 69
38dd0d04 90 4a 00   Note On(0-Off) D4

38dd0d0d 90 48 00   Note On(0-Off) C4

38dd0d47 90 30 00   Note On(0-Off) C2
38dd0f63 90 48 21   Note On C4 33

38dd0f6e 90 4c 3c   Note On E4 60
38dd10f0 90 48 00   Note On(0-Off) C4
38dd1159 90 4c 00   Note On(0-Off) E4
38dd139c 90 4a 19   Note On D4 25

38dd139c 90 4d 31   Note On F4 49

38dd139d 90 34 25   Note On E2 37
38dd1530 90 4a 00   Note On(0-Off) D4

38dd1530 90 4d 00   Note On(0-Off) F4
38dd1622 90 34 00   Note On(0-Off) E2
38dd1784 90 37 13   Note On G2 19

38dd1784 90 4f 3e   Note On G4 62

38dd1791 90 4c 20   Note On E4 32
38dd194d 90 4c 00   Note On(0-Off) E4

38dd1962 90 4f 00   Note On(0-Off) G4

38dd197c 90 37 00   Note On(0-Off) G2
38dd1b72 90 45 14   Note On A3 20

38dd1b75 90 48 1a   Note On C4 26

38dd1b76 90 2d 3a   Note On A1 58
38dd1d6d 90 48 00   Note On(0-Off) C4

38dd1d85 90 45 00   Note On(0-Off) A3
38dd1d8d 90 2d 00   Note On(0-Off) A1
38dd1f45 90 30 05   Note On C2 5
38dd2401 90 30 00   Note On(0-Off) C2

38dd2414 90 34 04   Note On E2 4
38dd2739 90 34 00   Note On(0-Off) E2
38dd2857 90 45 31   Note On A3 49

38dd2857 90 48 31   Note On C4 49

38dd285f 90 4c 2f   Note On E4 47
38dd2a43 90 45 00   Note On(0-Off) A3

38dd2a6f 90 4c 00   Note On(0-Off) E4

38dd2a91 90 48 00   Note On(0-Off) C4
38dd2c8e 90 4a 19   Note On D4 25

38dd2c8f 90 32 3e   Note On D2 62

38dd2c9a 90 41 3a   Note On F3 58
38dd2c9b 90 45 4b   Note On A3 75
38dd2de6 90 41 00   Note On(0-Off) F3

38dd2e02 90 32 00   Note On(0-Off) D2

38dd2e05 90 45 00   Note On(0-Off) A3

38dd2e08 90 4a 00   Note On(0-Off) D4
38dd30b2 90 35 28   Note On F2 40

38dd30cc 90 45 34   Note On A3 52

38dd30cd 90 4a 3d   Note On D4 61

38dd30ce 90 4d 34   Note On F4 52
38dd31a5 90 45 00   Note On(0-Off) A3
38dd31e5 90 4a 00   Note On(0-Off) D4

38dd31f7 90 4d 00   Note On(0-Off) F4
38dd326e 90 35 00   Note On(0-Off) F2
38dd349c 90 39 28   Note On A2 40
38dd34a6 90 51 40   Note On A4 64

38dd34a8 90 4d 42   Note On F4 66

38dd34b0 90 4a 38   Note On D4 56
38dd357c 90 4a 00   Note On(0-Off) D4

38dd357c 90 4d 00   Note On(0-Off) F4
38dd35c2 90 39 00   Note On(0-Off) A2

38dd35df 90 51 00   Note On(0-Off) A4
38dd3898 90 26 3c   Note On D1 60
38dd38b1 90 56 49   Note On D5 73

38dd38b7 90 4d 4f   Note On F4 79

38dd38bc 90 51 4b   Note On A4 75
38dd39ea 90 4d 00   Note On(0-Off) F4

38dd3a20 90 26 00   Note On(0-Off) D1
38dd3a53 90 56 00   Note On(0-Off) D5

38dd3a5e 90 51 00   Note On(0-Off) A4
38dd3c9d 90 4d 5b   Note On F4 91

38dd3c9e 90 53 64   Note On B4 100

38dd3ca3 90 4a 3f   Note On D4 63
38dd3cb5 90 2b 2c   Note On G1 44
38dd3eb4 90 4a 00   Note On(0-Off) D4
38dd3f79 90 53 00   Note On(0-Off) B4
38dd3fb9 90 4d 00   Note On(0-Off) F4
38dd40ce 90 2b 00   Note On(0-Off) G1
38dd437c 90 51 21   Note On A4 33
38dd437e 90 4d 34   Note On F4 52

38dd438d 90 4a 1a   Note On D4 26
38dd4467 90 4a 00   Note On(0-Off) D4

38dd4490 90 4d 00   Note On(0-Off) F4
38dd44b6 90 51 00   Note On(0-Off) A4
38dd45c7 90 2b 21   Note On G1 33

38dd45d3 90 4f 40   Note On G4 64

38dd45d6 90 4d 44   Note On F4 68

38dd45d7 90 4a 38   Note On D4 56
38dd4990 90 2b 00   Note On(0-Off) G1

38dd4997 90 4f 00   Note On(0-Off) G4

38dd4999 90 4a 00   Note On(0-Off) D4

38dd499c 90 4d 00   Note On(0-Off) F4
38dd4c48 90 4d 45   Note On F4 69

38dd4c4d 90 4a 3d   Note On D4 61
38dd4d1d 90 4a 00   Note On(0-Off) D4

38dd4d1f 90 4d 00   Note On(0-Off) F4
38dd4e82 90 30 25   Note On C2 37

38dd4e91 90 48 34   Note On C4 52

38dd4e92 90 4c 3c   Note On E4 60
38dd5089 90 4d 3e   Note On F4 62
38dd50d2 90 37 19   Note On G2 25
38dd5111 90 30 00   Note On(0-Off) C2

38dd511d 90 4c 00   Note On(0-Off) E4
38dd516d 90 48 00   Note On(0-Off) C4

38dd519c 90 4d 00   Note On(0-Off) F4
38dd52d0 90 37 00   Note On(0-Off) G2

38dd52d3 90 34 2c   Note On E2 44

38dd52e0 90 48 31   Note On C4 49

38dd52e1 90 4c 3a   Note On E4 58

38dd52e5 90 4f 3e   Note On G4 62
38dd54c0 90 34 00   Note On(0-Off) E2

38dd54ca 90 37 11   Note On G2 17
38dd564b 90 48 00   Note On(0-Off) C4

38dd5661 90 4c 00   Note On(0-Off) E4

38dd5680 90 37 00   Note On(0-Off) G2
38dd56b9 90 30 25   Note On C2 37

38dd56c6 90 4f 00   Note On(0-Off) G4
38dd58d5 90 37 13   Note On G2 19

38dd58d6 90 30 00   Note On(0-Off) C2
38dd5ad5 90 34 2b   Note On E2 43

38dd5ae6 90 37 00   Note On(0-Off) G2
38dd5cd0 90 34 00   Note On(0-Off) E2

38dd5ce3 90 37 14   Note On G2 20
38dd5e8e 90 37 00   Note On(0-Off) G2
38dd5ee5 90 2f 20   Note On B1 32

38dd5eeb 90 47 3c   Note On B3 60

38dd5eed 90 4a 40   Note On D4 64
38dd6068 90 47 00   Note On(0-Off) B3

38dd6079 90 4a 00   Note On(0-Off) D4
38dd60a2 90 2f 00   Note On(0-Off) B1

38dd60d3 90 37 13   Note On G2 19

38dd60e1 90 4c 4f   Note On E4 79

38dd60e3 90 47 3c   Note On B3 60
38dd61c1 90 47 00   Note On(0-Off) B3

38dd61c9 90 4c 00   Note On(0-Off) E4
38dd6252 90 37 00   Note On(0-Off) G2

38dd62a1 90 32 11   Note On D2 17
38dd62d1 90 4a 3c   Note On D4 60

38dd62d4 90 4d 3e   Note On F4 62

38dd62d9 90 47 3d   Note On B3 61
38dd64bb 90 32 00   Note On(0-Off) D2

38dd64df 90 37 13   Note On G2 19
38dd66bd 90 37 00   Note On(0-Off) G2

38dd66c5 90 2f 2b   Note On B1 43
38dd68b1 90 2f 00   Note On(0-Off) B1

38dd68ca 90 37 13   Note On G2 19
38dd6acc 90 37 00   Note On(0-Off) G2

38dd6acd 90 32 2f   Note On D2 47
38dd6c45 90 4d 00   Note On(0-Off) F4

38dd6c47 90 4a 00   Note On(0-Off) D4

38dd6c59 90 47 00   Note On(0-Off) B3
38dd6cb9 90 32 00   Note On(0-Off) D2

38dd6cca 90 37 14   Note On G2 20
38dd6e9b 90 48 3e   Note On C4 62

38dd6e9e 90 45 3d   Note On A3 61

38dd6eaa 90 37 00   Note On(0-Off) G2

38dd6eb0 90 2d 2b   Note On A1 43
38dd70d7 90 34 1b   Note On E2 27
38dd70f3 90 2d 00   Note On(0-Off) A1
38dd72c4 90 34 00   Note On(0-Off) E2
38dd72e5 90 30 12   Note On C2 18
38dd74b9 90 30 00   Note On(0-Off) C2

38dd74d4 90 34 12   Note On E2 18
38dd76c4 90 34 00   Note On(0-Off) E2

38dd76d2 90 2d 1f   Note On A1 31
38dd785f 90 2d 00   Note On(0-Off) A1
38dd78bf 90 34 0d   Note On E2 13
38dd7ad4 90 34 00   Note On(0-Off) E2
38dd7b19 90 30 13   Note On C2 19
38dd7ce8 90 30 00   Note On(0-Off) C2

38dd7d07 90 34 31   Note On E2 49
38dd7da3 90 45 00   Note On(0-Off) A3
38dd7ded 90 48 00   Note On(0-Off) C4
38dd7e89 90 34 00   Note On(0-Off) E2
38dd7ee8 90 2b 22   Note On G1 34

38dd7ef1 90 48 45   Note On C4 69

38dd7ef6 90 45 3f   Note On A3 63
38dd80a6 90 34 2b   Note On E2 43

38dd80ca 90 2b 00   Note On(0-Off) G1
38dd82a9 90 34 00   Note On(0-Off) E2

38dd82b5 90 2f 1c   Note On B1 28
38dd8454 90 2f 00   Note On(0-Off) B1
38dd84a2 90 34 12   Note On E2 18
38dd8636 90 34 00   Note On(0-Off) E2
38dd868f 90 2b 0d   Note On G1 13
38dd8840 90 2b 00   Note On(0-Off) G1
38dd88b8 90 34 15   Note On E2 21
38dd8a66 90 34 00   Note On(0-Off) E2

38dd8a84 90 2f 20   Note On B1 32
38dd8c7b 90 34 13   Note On E2 19

38dd8ca6 90 2f 00   Note On(0-Off) B1
38dd8d92 90 45 00   Note On(0-Off) A3
38dd8dc5 90 48 00   Note On(0-Off) C4

38dd8dc6 90 34 00   Note On(0-Off) E2
38dd8ea9 90 48 3d   Note On C4 61

38dd8ead 90 29 25   Note On F1 37

38dd8eae 90 45 3f   Note On A3 63
38dd90b4 90 29 00   Note On(0-Off) F1

38dd90b9 90 34 15   Note On E2 21
38dd9254 90 34 00   Note On(0-Off) E2
38dd92ac 90 2d 12   Note On A1 18
38dd94ae 90 2d 00   Note On(0-Off) A1
38dd94cf 90 34 15   Note On E2 21
38dd9692 90 34 00   Note On(0-Off) E2
38dd96bd 90 29 0d   Note On F1 13
38dd9871 90 29 00   Note On(0-Off) F1

38dd98a5 90 34 0f   Note On E2 15
38dd9a63 90 34 00   Note On(0-Off) E2

38dd9aa8 90 2d 13   Note On A1 19
38dd9ca4 90 2d 00   Note On(0-Off) A1
38dd9ccf 90 34 04   Note On E2 4
38dd9e95 90 29 12   Note On F1 18

38dd9e97 90 34 00   Note On(0-Off) E2
38dda081 90 29 00   Note On(0-Off) F1

38dda083 90 34 38   Note On E2 56
38dda284 90 2d 3c   Note On A1 60

38dda295 90 34 00   Note On(0-Off) E2
38dda469 90 34 3e   Note On E2 62

38dda479 90 2d 00   Note On(0-Off) A1
38dda593 90 45 00   Note On(0-Off) A3

38dda5c6 90 48 00   Note On(0-Off) C4
38dda637 90 34 00   Note On(0-Off) E2

38dda655 90 29 3f   Note On F1 63

38dda656 90 4a 5f   Note On D4 95

38dda65a 90 45 49   Note On A3 73
38dda7f0 90 29 00   Note On(0-Off) F1

38dda7fb 90 34 1b   Note On E2 27
38dda89c 90 4a 00   Note On(0-Off) D4
38dda92f 90 45 00   Note On(0-Off) A3
38dda99a 90 2d 3c   Note On A1 60

38dda9a0 90 34 00   Note On(0-Off) E2

38dda9c6 90 45 4f   Note On A3 79

38dda9d0 90 4c 67   Note On E4 103
38ddabbb 90 34 42   Note On E2 66
38ddabf2 90 2d 00   Note On(0-Off) A1

38ddac28 90 4c 00   Note On(0-Off) E4
38ddac4b 90 45 00   Note On(0-Off) A3

38ddac7f 90 34 00   Note On(0-Off) E2
38ddadd2 90 48 3f   Note On C4 63

38ddadd4 90 40 13   Note On E3 19

38ddadd7 90 43 4d   Note On G3 77

38ddadda 90 28 33   Note On E1 51
38ddaf91 90 32 1b   Note On D2 27
38ddafb3 90 28 00   Note On(0-Off) E1
38ddb17e 90 32 00   Note On(0-Off) D2
38ddb1b5 90 2b 11   Note On G1 17
38ddb37f 90 2b 00   Note On(0-Off) G1

38ddb39e 90 30 3d   Note On C2 61
38ddb56b 90 30 00   Note On(0-Off) C2

38ddb586 90 28 1c   Note On E1 28
38ddb72e 90 28 00   Note On(0-Off) E1
38ddb743 90 30 13   Note On C2 19
38ddb951 90 30 00   Note On(0-Off) C2

38ddb963 90 2b 1b   Note On G1 27
38ddbb41 90 30 20   Note On C2 32

38ddbb4f 90 2b 00   Note On(0-Off) G1
38ddbc19 90 40 00   Note On(0-Off) E3

38ddbc2d 90 48 00   Note On(0-Off) C4

38ddbc41 90 43 00   Note On(0-Off) G3
38ddbcd1 90 30 00   Note On(0-Off) C2
38ddbd5c 90 41 49   Note On F3 73

38ddbd63 90 45 59   Note On A3 89

38ddbd64 90 4a 59   Note On D4 89

38ddbd67 90 48 56   Note On C4 86

38ddbd6a 90 26 52   Note On D1 82
38ddbddf 90 48 00   Note On(0-Off) C4
38ddbf0c 90 30 3c   Note On C2 60
38ddbf42 90 26 00   Note On(0-Off) D1
38ddc01e 90 4a 00   Note On(0-Off) D4

38ddc023 90 45 00   Note On(0-Off) A3

38ddc03c 90 41 00   Note On(0-Off) F3
38ddc0ce 90 30 00   Note On(0-Off) C2

38ddc104 90 29 3c   Note On F1 60
38ddc121 90 41 3a   Note On F3 58

38ddc123 90 45 52   Note On A3 82
38ddc300 90 29 00   Note On(0-Off) F1

38ddc306 90 30 12   Note On C2 18
38ddc4eb 90 26 3c   Note On D1 60

38ddc502 90 30 00   Note On(0-Off) C2
38ddc6d1 90 26 00   Note On(0-Off) D1

38ddc6d2 90 30 2c   Note On C2 44
38ddc7a7 90 41 00   Note On(0-Off) F3

38ddc7bc 90 45 00   Note On(0-Off) A3
38ddc883 90 30 00   Note On(0-Off) C2

38ddc8a5 90 29 4f   Note On F1 79
38ddc8b4 90 48 64   Note On C4 100

38ddc8b5 90 45 64   Note On A3 100

38ddc8b6 90 41 59   Note On F3 89
38ddc9c1 90 41 00   Note On(0-Off) F3

38ddc9e6 90 45 00   Note On(0-Off) A3
38ddca0d 90 48 00   Note On(0-Off) C4
38ddca7e 90 4a 56   Note On D4 86

38ddca83 90 45 56   Note On A3 86

38ddca8b 90 30 40   Note On C2 64

38ddca8d 90 41 59   Note On F3 89

38ddcaae 90 29 00   Note On(0-Off) F1
38ddcb33 90 4a 00   Note On(0-Off) D4
38ddcb3b 90 45 00   Note On(0-Off) A3

38ddcb42 90 41 00   Note On(0-Off) F3
38ddcc93 90 41 45   Note On F3 69

38ddcc95 90 4c 6b   Note On E4 107

38ddcc96 90 45 67   Note On A3 103

38ddcc9f 90 24 7e   Note On C1 126

38ddccaa 90 30 00   Note On(0-Off) C2
38ddce66 90 4c 00   Note On(0-Off) E4
38ddce7a 90 30 25   Note On C2 37

38ddce85 90 41 00   Note On(0-Off) F3

38ddcea1 90 24 00   Note On(0-Off) C1

38ddceb9 90 45 00   Note On(0-Off) A3
38ddd06d 90 30 00   Note On(0-Off) C2

38ddd06f 90 28 47   Note On E1 71

38ddd072 90 45 56   Note On A3 86

38ddd076 90 41 40   Note On F3 64
38ddd275 90 28 00   Note On(0-Off) E1

38ddd276 90 30 2f   Note On C2 47
38ddd481 90 24 74   Note On C1 116

38ddd4a2 90 30 00   Note On(0-Off) C2
38ddd65e 90 24 00   Note On(0-Off) C1

38ddd66b 90 30 3f   Note On C2 63
38ddd7b5 90 41 00   Note On(0-Off) F3
38ddd7ec 90 45 00   Note On(0-Off) A3
38ddd84e 90 28 59   Note On E1 89

38ddd855 90 30 00   Note On(0-Off) C2

38ddd877 90 45 4b   Note On A3 75

38ddd878 90 41 5b   Note On F3 91
38ddda39 90 30 45   Note On C2 69
38ddda47 90 28 00   Note On(0-Off) E1
38dddb47 90 45 00   Note On(0-Off) A3
38dddb8e 90 41 00   Note On(0-Off) F3

38dddb9c 90 30 00   Note On(0-Off) C2
38dddc24 90 41 4f   Note On F3 79

38dddc28 90 45 5f   Note On A3 95

38dddc29 90 46 5f   Note On Bb3 95

38dddc2d 90 2e 5b   Note On Bb1 91
38dddda0 90 41 00   Note On(0-Off) F3

38ddddc2 90 45 00   Note On(0-Off) A3
38ddddff 90 46 00   Note On(0-Off) Bb3
38dddee6 90 2e 00   Note On(0-Off) Bb1
38dde01a 90 41 59   Note On F3 89

38dde01c 90 45 6b   Note On A3 107

38dde020 90 48 64   Note On C4 100

38dde021 90 2d 69   Note On A1 105
38dde1a1 90 41 00   Note On(0-Off) F3
38dde1ca 90 45 00   Note On(0-Off) A3

38dde1f3 90 48 00   Note On(0-Off) C4
38dde319 90 2d 00   Note On(0-Off) A1
38dde3d2 90 2b 64   Note On G1 100

38dde3d7 90 4a 67   Note On D4 103

38dde3d8 90 41 60   Note On F3 96

38dde3db 90 45 67   Note On A3 103
38dde562 90 4a 00   Note On(0-Off) D4

38dde5a6 90 45 00   Note On(0-Off) A3
38dde5d1 90 41 00   Note On(0-Off) F3
38dde617 90 2b 00   Note On(0-Off) G1
38dde781 90 26 60   Note On D1 96

38dde79b 90 4c 67   Note On E4 103

38dde79e 90 41 64   Note On F3 100

38dde79f 90 45 6e   Note On A3 110
38dde90b 90 26 00   Note On(0-Off) D1
38dde984 90 41 00   Note On(0-Off) F3
38dde9a5 90 4c 00   Note On(0-Off) E4

38dde9aa 90 45 00   Note On(0-Off) A3
38ddeb6d 90 43 5b   Note On G3 91

38ddeb6e 90 2b 67   Note On G1 103

38ddeb6f 90 47 6e   Note On B3 110
38dded48 90 2b 00   Note On(0-Off) G1
38dded93 90 43 00   Note On(0-Off) G3

38dded9f 90 47 00   Note On(0-Off) B3
38ddef3f 90 45 66   Note On A3 102

38ddef41 90 2d 72   Note On A1 114

38ddef44 90 48 64   Note On C4 100
38ddf0d1 90 45 00   Note On(0-Off) A3
38ddf22f 90 48 00   Note On(0-Off) C4

38ddf24c 90 2d 00   Note On(0-Off) A1
38ddf300 90 2f 67   Note On B1 103

38ddf310 90 4a 6e   Note On D4 110

38ddf311 90 47 72   Note On B3 114
38ddf48f 90 47 00   Note On(0-Off) B3

38ddf490 90 4a 00   Note On(0-Off) D4
38ddf4e2 90 2f 00   Note On(0-Off) B1
38ddf6b0 90 4f 5e   Note On G4 94

38ddf6b3 90 28 64   Note On E1 100

38ddf6b9 90 43 42   Note On G3 66
38ddf822 90 43 00   Note On(0-Off) G3
38ddf896 90 28 00   Note On(0-Off) E1

38ddf897 90 4f 00   Note On(0-Off) G4
38ddfa96 90 28 56   Note On E1 86

38ddfa9a 90 4f 62   Note On G4 98

38ddfaa2 90 43 40   Note On G3 64
38ddfc66 90 43 00   Note On(0-Off) G3

38ddfc6f 90 2b 3e   Note On G1 62

38ddfc71 90 28 00   Note On(0-Off) E1

38ddfc73 90 4f 00   Note On(0-Off) G4
38ddfe61 90 2b 00   Note On(0-Off) G1

38ddfe61 90 4c 5f   Note On E4 95

38ddfe61 90 48 5b   Note On C4 91

38ddfe61 90 43 3a   Note On G3 58

38ddfe61 90 30 44   Note On C2 68
38ddffda 90 30 00   Note On(0-Off) C2

38ddfff6 90 2b 2c   Note On G1 44
38de00fc 90 48 00   Note On(0-Off) C4

38de00fc 90 4c 00   Note On(0-Off) E4
38de012d 90 43 00   Note On(0-Off) G3

38de0171 90 2b 00   Note On(0-Off) G1
38de01c3 90 28 3e   Note On E1 62
38de01e6 90 43 45   Note On G3 69

38de01ec 90 48 56   Note On C4 86
38de0308 90 43 00   Note On(0-Off) G3
38de032e 90 48 00   Note On(0-Off) C4
38de039b 90 28 00   Note On(0-Off) E1
38de03f9 90 2b 3c   Note On G1 60
38de05d3 90 30 3a   Note On C2 58

38de05d6 90 43 59   Note On G3 89

38de05d7 90 40 62   Note On E3 98

38de05dd 90 2b 00   Note On(0-Off) G1
38de0790 90 2b 36   Note On G1 54

38de07da 90 30 00   Note On(0-Off) C2

38de07e9 90 40 00   Note On(0-Off) E3
38de0801 90 43 00   Note On(0-Off) G3
38de0872 90 2b 00   Note On(0-Off) G1
38de0991 90 29 52   Note On F1 82

38de0998 90 41 62   Note On F3 98

38de099b 90 45 67   Note On A3 103
38de0a80 90 45 00   Note On(0-Off) A3

38de0a85 90 41 00   Note On(0-Off) F3
38de0ae9 90 29 00   Note On(0-Off) F1
38de0b69 90 47 3f   Note On B3 63

38de0b83 90 43 27   Note On G3 39

38de0b93 90 2d 69   Note On A1 105
38de0c11 90 43 00   Note On(0-Off) G3
38de0c31 90 47 00   Note On(0-Off) B3
38de0ca4 90 45 6b   Note On A3 107

38de0ca6 90 48 67   Note On C4 103
38de0d9c 90 30 49   Note On C2 73

38de0da6 90 2d 00   Note On(0-Off) A1
38de0ef8 90 45 00   Note On(0-Off) A3

38de0efa 90 48 00   Note On(0-Off) C4

38de0f39 90 30 00   Note On(0-Off) C2
38de0f5f 90 29 47   Note On F1 71

38de0f6e 90 45 66   Note On A3 102

38de0f72 90 41 64   Note On F3 100
38de103e 90 41 00   Note On(0-Off) F3

38de1044 90 29 00   Note On(0-Off) F1

38de104d 90 45 00   Note On(0-Off) A3
38de1191 90 43 76   Note On G3 118

38de1195 90 3e 6b   Note On D3 107

38de1199 90 28 5f   Note On E1 95
38de12dc 90 3e 00   Note On(0-Off) D3

38de12fd 90 43 00   Note On(0-Off) G3

38de133c 90 30 47   Note On C2 71
38de133f 90 28 00   Note On(0-Off) E1

38de1360 90 45 3c   Note On A3 60

38de136d 90 3e 21   Note On D3 33
38de13c9 90 3e 00   Note On(0-Off) D3

38de13e3 90 45 00   Note On(0-Off) A3
38de1451 90 47 67   Note On B3 103

38de1453 90 3e 6d   Note On D3 109
38de14f7 90 30 00   Note On(0-Off) C2
38de1552 90 2b 3e   Note On G1 62
38de16b6 90 47 00   Note On(0-Off) B3
38de16d3 90 3e 00   Note On(0-Off) D3

38de1720 90 3e 3d   Note On D3 61

38de1725 90 30 3e   Note On C2 62

38de172b 90 43 67   Note On G3 103
38de1740 90 2b 00   Note On(0-Off) G1
38de17ce 90 3e 00   Note On(0-Off) D3
38de1804 90 43 00   Note On(0-Off) G3

38de1834 90 30 00   Note On(0-Off) C2
38de1926 90 41 64   Note On F3 100

38de1926 90 26 4d   Note On D1 77
38de1926 90 3e 5e   Note On D3 94
38de1a6d 90 41 00   Note On(0-Off) F3

38de1a6e 90 3e 00   Note On(0-Off) D3
38de1afd 90 3e 2b   Note On D3 43

38de1aff 90 2d 3f   Note On A1 63

38de1b01 90 43 2f   Note On G3 47

38de1b06 90 26 00   Note On(0-Off) D1
38de1b7a 90 3e 00   Note On(0-Off) D3
38de1b8e 90 43 00   Note On(0-Off) G3
38de1bf2 90 45 67   Note On A3 103

38de1bf4 90 41 67   Note On F3 103

38de1bf8 90 3e 64   Note On D3 100
38de1ca5 90 2d 00   Note On(0-Off) A1
38de1cd2 90 29 23   Note On F1 35
38de1d90 90 41 00   Note On(0-Off) F3

38de1db2 90 3e 00   Note On(0-Off) D3

38de1dcc 90 45 00   Note On(0-Off) A3
38de1ee7 90 41 62   Note On F3 98

38de1ee8 90 47 5f   Note On B3 95

38de1ee9 90 3e 60   Note On D3 96

38de1eed 90 2d 5e   Note On A1 94

38de1eee 90 29 00   Note On(0-Off) F1
38de1f8f 90 41 00   Note On(0-Off) F3

38de1faa 90 3e 00   Note On(0-Off) D3

38de1faf 90 47 00   Note On(0-Off) B3
38de2017 90 2d 00   Note On(0-Off) A1
38de20bf 90 43 5b   Note On G3 91

38de20c6 90 40 59   Note On E3 89

38de20d3 90 24 7d   Note On C1 125
38de2253 90 43 00   Note On(0-Off) G3

38de2257 90 40 00   Note On(0-Off) E3
38de22b4 90 3e 3c   Note On D3 60

38de22ba 90 41 4d   Note On F3 77

38de22c7 90 2b 40   Note On G1 64

38de22e0 90 24 00   Note On(0-Off) C1
38de232b 90 41 00   Note On(0-Off) F3

38de232c 90 3e 00   Note On(0-Off) D3
38de23d1 90 40 5b   Note On E3 91
38de2434 90 2b 00   Note On(0-Off) G1
38de24c9 90 28 3a   Note On E1 58
38de26aa 90 40 00   Note On(0-Off) E3

38de26ae 90 41 64   Note On F3 100

38de26bf 90 2b 3d   Note On G1 61

38de26c5 90 28 00   Note On(0-Off) E1
38de27b6 90 41 00   Note On(0-Off) F3
38de2845 90 2b 00   Note On(0-Off) G1
38de288e 90 24 7d   Note On C1 125

38de2891 90 40 64   Note On E3 100

38de289a 90 43 56   Note On G3 86
38de2950 90 40 00   Note On(0-Off) E3
38de2973 90 43 00   Note On(0-Off) G3

38de2977 90 24 00   Note On(0-Off) C1
38de2a9b 90 43 64   Note On G3 100

38de2a9c 90 24 7e   Note On C1 126

38de2aa1 90 40 6d   Note On E3 109
38de2b5a 90 40 00   Note On(0-Off) E3
38de2bac 90 24 00   Note On(0-Off) C1
38de2bff 90 43 00   Note On(0-Off) G3
38de2c8f 90 45 6d   Note On A3 109

38de2c90 90 26 76   Note On D1 118

38de2c93 90 41 6b   Note On F3 107

38de2c95 90 3e 69   Note On D3 105
38de2d64 90 3e 00   Note On(0-Off) D3
38de2d93 90 41 00   Note On(0-Off) F3

38de2d9d 90 45 00   Note On(0-Off) A3

38de2dcc 90 26 00   Note On(0-Off) D1
38de2e81 90 43 6d   Note On G3 109

38de2e85 90 47 6e   Note On B3 110

38de2e87 90 28 76   Note On E1 118

38de2e88 90 40 6e   Note On E3 110
38de2f0e 90 40 00   Note On(0-Off) E3

38de2f18 90 43 00   Note On(0-Off) G3

38de2f21 90 47 00   Note On(0-Off) B3

38de2f42 90 28 00   Note On(0-Off) E1
38de3083 90 29 70   Note On F1 112

38de308c 90 45 6b   Note On A3 107

38de308f 90 48 6b   Note On C4 107

38de3090 90 41 6e   Note On F3 110
38de324e 90 29 00   Note On(0-Off) F1

38de3274 90 30 42   Note On C2 66

38de327c 90 41 00   Note On(0-Off) F3
38de3374 90 45 00   Note On(0-Off) A3

38de3385 90 48 00   Note On(0-Off) C4
38de33e7 90 30 00   Note On(0-Off) C2
38de3449 90 2d 1c   Note On A1 28
38de35df 90 2d 00   Note On(0-Off) A1

38de360a 90 30 28   Note On C2 40
38de37af 90 30 00   Note On(0-Off) C2

38de37f4 90 48 6d   Note On C4 109

38de37f5 90 4d 70   Note On F4 112

38de37f8 90 29 66   Note On F1 102

38de37f9 90 45 69   Note On A3 105
38de39ca 90 45 00   Note On(0-Off) A3

38de39d2 90 29 00   Note On(0-Off) F1

38de39dd 90 30 3e   Note On C2 62
38de3a0c 90 4d 00   Note On(0-Off) F4

38de3a22 90 48 00   Note On(0-Off) C4
38de3ac0 90 48 52   Note On C4 82

38de3ac6 90 45 4d   Note On A3 77

38de3ad0 90 4c 69   Note On E4 105
38de3b80 90 48 00   Note On(0-Off) C4

38de3b81 90 45 00   Note On(0-Off) A3

38de3b89 90 30 00   Note On(0-Off) C2

38de3b94 90 4c 00   Note On(0-Off) E4
38de3bc3 90 2d 64   Note On A1 100

38de3bd2 90 4a 74   Note On D4 116

38de3bd8 90 45 6b   Note On A3 107
38de3dac 90 30 3f   Note On C2 63
38de3dd4 90 2d 00   Note On(0-Off) A1
38de3ea5 90 48 34   Note On C4 52

38de3ea8 90 4a 00   Note On(0-Off) D4
38de3f22 90 45 00   Note On(0-Off) A3

38de3f2d 90 48 00   Note On(0-Off) C4
38de3f86 90 30 00   Note On(0-Off) C2

38de3fa9 90 43 67   Note On G3 103

38de3fac 90 47 6b   Note On B3 107

38de3fad 90 4a 76   Note On D4 118

38de3fc1 90 29 69   Note On F1 105
38de4176 90 30 3d   Note On C2 61

38de419f 90 29 00   Note On(0-Off) F1
38de42ab 90 47 00   Note On(0-Off) B3

38de42e2 90 43 00   Note On(0-Off) G3

38de42ef 90 4a 00   Note On(0-Off) D4
38de4325 90 30 00   Note On(0-Off) C2

38de4340 90 2d 3e   Note On A1 62
38de4357 90 43 5b   Note On G3 91

38de435b 90 47 69   Note On B3 105
38de44ac 90 47 00   Note On(0-Off) B3

38de44af 90 43 00   Note On(0-Off) G3

38de44de 90 2d 00   Note On(0-Off) A1
38de4512 90 30 33   Note On C2 51
38de469f 90 30 00   Note On(0-Off) C2
38de4700 90 3e 67   Note On D3 103

38de4704 90 43 6b   Note On G3 107

38de470c 90 29 5f   Note On F1 95
38de48da 90 30 3e   Note On C2 62
38de48f4 90 29 00   Note On(0-Off) F1

38de4920 90 3e 00   Note On(0-Off) D3

38de4933 90 43 00   Note On(0-Off) G3
38de4a84 90 30 00   Note On(0-Off) C2

38de4a8b 90 2d 3f   Note On A1 63
38de4aba 90 4a 64   Note On D4 100

38de4abc 90 3e 64   Note On D3 100

38de4ac3 90 43 64   Note On G3 100
38de4c57 90 30 27   Note On C2 39

38de4c5c 90 2d 00   Note On(0-Off) A1

38de4c6c 90 3e 00   Note On(0-Off) D3
38de4cb0 90 4a 00   Note On(0-Off) D4

38de4d03 90 43 00   Note On(0-Off) G3
38de4e28 90 29 45   Note On F1 69

38de4e2e 90 30 00   Note On(0-Off) C2

38de4e44 90 48 4f   Note On C4 79

38de4e48 90 41 5f   Note On F3 95
38de4e4e 90 43 59   Note On G3 89

38de4e57 90 45 5f   Note On A3 95
38de4f6c 90 41 00   Note On(0-Off) F3
38de5024 90 30 4b   Note On C2 75

38de5038 90 29 00   Note On(0-Off) F1
38de5082 90 43 00   Note On(0-Off) G3

38de5093 90 45 00   Note On(0-Off) A3
38de50d0 90 48 00   Note On(0-Off) C4
38de51b2 90 30 00   Note On(0-Off) C2

38de51dc 90 2d 33   Note On A1 51
38de53cb 90 30 2c   Note On C2 44

38de53ce 90 2d 00   Note On(0-Off) A1
38de55a6 90 30 00   Note On(0-Off) C2

38de55b3 90 4d 72   Note On F4 114

38de55b6 90 29 52   Note On F1 82
38de568a 90 45 5e   Note On A3 94

38de568a 90 4d 00   Note On(0-Off) F4
38de576a 90 30 34   Note On C2 52
38de57cf 90 29 00   Note On(0-Off) F1

38de57e4 90 45 00   Note On(0-Off) A3
38de587d 90 48 6b   Note On C4 107
38de595a 90 30 00   Note On(0-Off) C2

38de596d 90 2d 42   Note On A1 66
38de5a49 90 4c 70   Note On E4 112

38de5a5f 90 48 00   Note On(0-Off) C4
38de5b34 90 2d 00   Note On(0-Off) A1
38de5b3d 90 30 40   Note On C2 64
38de5c2a 90 4c 00   Note On(0-Off) E4

38de5c2c 90 4a 6b   Note On D4 107
38de5ce1 90 30 00   Note On(0-Off) C2

38de5d29 90 29 3e   Note On F1 62
38de5ddc 90 47 60   Note On B3 96

38de5def 90 4a 00   Note On(0-Off) D4
38de5ec8 90 47 00   Note On(0-Off) B3
38de5edd 90 30 40   Note On C2 64

38de5ee5 90 43 6b   Note On G3 107

38de5eef 90 29 00   Note On(0-Off) F1
38de6065 90 30 00   Note On(0-Off) C2

38de6095 90 2d 49   Note On A1 73
38de627a 90 2d 00   Note On(0-Off) A1

38de628f 90 30 1a   Note On C2 26
38de6430 90 30 00   Note On(0-Off) C2
38de6452 90 29 56   Note On F1 86

38de6475 90 43 00   Note On(0-Off) G3

38de6476 90 3e 72   Note On D3 114
38de65f2 90 30 3d   Note On C2 61

38de6601 90 29 00   Note On(0-Off) F1
38de66fe 90 3e 00   Note On(0-Off) D3

38de6711 90 40 69   Note On E3 105
38de67df 90 30 00   Note On(0-Off) C2

38de67fc 90 2d 42   Note On A1 66
38de68f8 90 45 67   Note On A3 103
38de692a 90 40 00   Note On(0-Off) E3
38de69f0 90 30 3c   Note On C2 60

38de69fe 90 2d 00   Note On(0-Off) A1
38de6aeb 90 43 6b   Note On G3 107

38de6afa 90 45 00   Note On(0-Off) A3
38de6be8 90 30 00   Note On(0-Off) C2

38de6c00 90 28 4b   Note On E1 75
38de6d9e 90 30 2c   Note On C2 44

38de6dad 90 28 00   Note On(0-Off) E1
38de6f6e 90 30 00   Note On(0-Off) C2

38de6f77 90 2b 3d   Note On G1 61
38de7100 90 2b 00   Note On(0-Off) G1

38de7138 90 30 12   Note On C2 18
38de734e 90 30 00   Note On(0-Off) C2

38de734e 90 28 13   Note On E1 19
38de74d1 90 28 00   Note On(0-Off) E1

38de74dd 90 30 2b   Note On C2 43
38de769e 90 30 00   Note On(0-Off) C2

38de76b0 90 2b 1f   Note On G1 31
38de7858 90 2b 00   Note On(0-Off) G1
38de7881 90 30 13   Note On C2 19
38de7a1a 90 30 00   Note On(0-Off) C2

38de7a20 90 28 3d   Note On E1 61
38de7bd0 90 28 00   Note On(0-Off) E1

38de7bd9 90 30 21   Note On C2 33
38de7d9f 90 30 00   Note On(0-Off) C2

38de7da8 90 43 00   Note On(0-Off) G3

38de7dbd 90 2b 3f   Note On G1 63

38de7dd2 90 40 67   Note On E3 103
38de7f45 90 2b 00   Note On(0-Off) G1

38de7f5a 90 30 2c   Note On C2 44
38de8099 90 40 00   Note On(0-Off) E3
38de80fd 90 30 00   Note On(0-Off) C2

38de811f 90 28 44   Note On E1 68

38de8124 90 40 5f   Note On E3 95
38de8290 90 28 00   Note On(0-Off) E1

38de82b7 90 30 1f   Note On C2 31
38de8440 90 30 00   Note On(0-Off) C2
38de84b3 90 2b 2c   Note On G1 44
38de85db 90 40 00   Note On(0-Off) E3
38de8607 90 2b 00   Note On(0-Off) G1

38de8621 90 30 13   Note On C2 19
38de86bb 90 40 60   Note On E3 96
38de87a0 90 41 66   Note On F3 102

38de87ae 90 40 00   Note On(0-Off) E3

38de87e2 90 30 00   Note On(0-Off) C2
38de883d 90 41 00   Note On(0-Off) F3
38de8879 90 28 52   Note On E1 82

38de8880 90 41 64   Note On F3 100
38de8a0d 90 28 00   Note On(0-Off) E1

38de8a17 90 30 3d   Note On C2 61

38de8a1b 90 41 00   Note On(0-Off) F3

38de8a3c 90 40 64   Note On E3 100
38de8bde 90 30 00   Note On(0-Off) C2

38de8bf2 90 2b 38   Note On G1 56
38de8d73 90 40 00   Note On(0-Off) E3

38de8d76 90 2b 00   Note On(0-Off) G1

38de8d7b 90 30 3c   Note On C2 60

38de8d80 90 41 6e   Note On F3 110
38de8ee7 90 30 00   Note On(0-Off) C2
38de8f25 90 41 00   Note On(0-Off) F3

38de8f5d 90 43 56   Note On G3 86

38de8f62 90 28 4b   Note On E1 75
38de9114 90 30 3e   Note On C2 62
38de9144 90 28 00   Note On(0-Off) E1
38de92f2 90 30 00   Note On(0-Off) C2

38de9305 90 2b 40   Note On G1 64

38de930b 90 45 69   Note On A3 105

38de9315 90 43 00   Note On(0-Off) G3
38de94ac 90 30 28   Note On C2 40
38de94b9 90 2b 00   Note On(0-Off) G1
38de959b 90 45 00   Note On(0-Off) A3
38de965c 90 30 00   Note On(0-Off) C2

38de9680 90 26 5b   Note On D1 91

38de968a 90 41 67   Note On F3 103
38de9813 90 30 2f   Note On C2 47

38de9816 90 26 00   Note On(0-Off) D1
38de99ca 90 30 00   Note On(0-Off) C2

38de99f0 90 29 25   Note On F1 37
38de9b99 90 40 49   Note On E3 73

38de9ba6 90 41 00   Note On(0-Off) F3

38de9ba9 90 30 36   Note On C2 54
38de9bc5 90 29 00   Note On(0-Off) F1
38de9d6c 90 30 00   Note On(0-Off) C2

38de9d71 90 3e 4f   Note On D3 79

38de9d72 90 24 7b   Note On C1 123

38de9d7a 90 40 00   Note On(0-Off) E3
38de9f1f 90 30 12   Note On C2 18

38de9f4b 90 24 00   Note On(0-Off) C1
38dea109 90 28 4f   Note On E1 79

38dea10c 90 30 00   Note On(0-Off) C2
38dea2bb 90 30 3e   Note On C2 62

38dea2d5 90 28 00   Note On(0-Off) E1

38dea2f4 90 3e 00   Note On(0-Off) D3
38dea356 90 30 00   Note On(0-Off) C2
38dea4a1 90 2c 72   Note On Ab1 114

38dea4bb 90 3c 7f   Note On C3 127
38dea599 90 3c 00   Note On(0-Off) C3
38dea751 90 3f 72   Note On Eb3 114
38dea806 90 3f 00   Note On(0-Off) Eb3
38dea913 90 43 5e   Note On G3 94
38dea9a3 90 43 00   Note On(0-Off) G3
38deabaa 90 44 6b   Note On Ab3 107

38deabb5 90 2e 67   Note On Bb1 103
38deabe8 90 2c 00   Note On(0-Off) Ab1
38dead7f 90 44 00   Note On(0-Off) Ab3
38deae62 90 43 66   Note On G3 102
38deaffd 90 3e 64   Note On D3 100

38deb00a 90 43 00   Note On(0-Off) G3
38deb032 90 2e 00   Note On(0-Off) Bb1
38deb1f0 90 3e 00   Note On(0-Off) D3

38deb203 90 40 4f   Note On E3 79
38deb2e3 90 24 72   Note On C1 114
38deb3ce 90 2b 2f   Note On G1 47

38deb3ed 90 24 00   Note On(0-Off) C1
38deb427 90 40 00   Note On(0-Off) E3

38deb44e 90 2b 00   Note On(0-Off) G1

38deb478 90 30 28   Note On C2 40
38deb52b 90 30 00   Note On(0-Off) C2
38deb58c 90 32 49   Note On D2 73
38deb6b6 90 34 40   Note On E2 64

38deb6d5 90 32 00   Note On(0-Off) D2
38deb792 90 37 23   Note On G2 35

38deb7a5 90 34 00   Note On(0-Off) E2
38deb899 90 4c 6b   Note On E4 107
38deb90b 90 37 00   Note On(0-Off) G2
38deb9d0 90 4c 00   Note On(0-Off) E4
38deba43 90 4a 67   Note On D4 103

38deba4e 90 43 4d   Note On G3 77

38deba51 90 2f 5e   Note On B1 94

38deba5f 90 47 69   Note On B3 105
38debd07 90 47 00   Note On(0-Off) B3

38debd09 90 43 00   Note On(0-Off) G3

38debd31 90 47 5e   Note On B3 94

38debd32 90 43 52   Note On G3 82
38debe9c 90 47 00   Note On(0-Off) B3

38debeb4 90 43 00   Note On(0-Off) G3
38debed8 90 47 6b   Note On B3 107

38debedd 90 43 3a   Note On G3 58

38debede 90 4c 67   Note On E4 103

38debee7 90 4a 00   Note On(0-Off) D4

38debf33 90 43 00   Note On(0-Off) G3

38debf37 90 2f 00   Note On(0-Off) B1

38debf3a 90 47 00   Note On(0-Off) B3
38debf6b 90 4c 00   Note On(0-Off) E4
38dec1e6 90 48 69   Note On C4 105

38dec1fb 90 2e 6b   Note On Bb1 107
38dec411 90 46 5f   Note On Bb3 95

38dec41d 90 48 00   Note On(0-Off) C4
38dec507 90 46 00   Note On(0-Off) Bb3

38dec50b 90 43 64   Note On G3 100
38dec607 90 43 00   Note On(0-Off) G3
38dec6c7 90 41 6b   Note On F3 107
38dec758 90 41 00   Note On(0-Off) F3
38dec882 90 43 60   Note On G3 96
38dec965 90 43 00   Note On(0-Off) G3
38deca46 90 46 42   Note On Bb3 66
38decb5d 90 46 00   Note On(0-Off) Bb3
38decc01 90 43 42   Note On G3 66
38deccc8 90 43 00   Note On(0-Off) G3
38decd0b 90 46 67   Note On Bb3 103
38decea9 90 46 00   Note On(0-Off) Bb3
38decee0 90 43 5f   Note On G3 95
38decf8e 90 43 00   Note On(0-Off) G3
38ded0a5 90 46 6d   Note On Bb3 109
38ded23f 90 46 00   Note On(0-Off) Bb3

38ded254 90 43 56   Note On G3 86
38ded310 90 43 00   Note On(0-Off) G3
38ded354 90 46 4d   Note On Bb3 77
38ded4f0 90 46 00   Note On(0-Off) Bb3

38ded510 90 43 5b   Note On G3 91
38ded5e2 90 43 00   Note On(0-Off) G3
38ded6ec 90 48 67   Note On C4 103
38ded870 90 48 00   Note On(0-Off) C4

38ded8b9 90 46 70   Note On Bb3 112
38ded9ad 90 46 00   Note On(0-Off) Bb3
38deda94 90 43 5f   Note On G3 95
38dedc3d 90 41 36   Note On F3 54
38dedc57 90 43 00   Note On(0-Off) G3
38dedd04 90 41 00   Note On(0-Off) F3
38dedd30 90 2e 00   Note On(0-Off) Bb1

38dedd43 90 2f 67   Note On B1 103

38dedd46 90 47 6b   Note On B3 107
38dedef0 90 2f 00   Note On(0-Off) B1
38dedf14 90 47 00   Note On(0-Off) B3

38dedf1c 90 48 64   Note On C4 100

38dedf28 90 24 7e   Note On C1 126
38dee0f0 90 48 00   Note On(0-Off) C4
38dee177 90 24 00   Note On(0-Off) C1
38dee312 90 4a 79   Note On D4 121
38dee37a 90 4a 00   Note On(0-Off) D4
38dee6f5 90 4f 6e   Note On G4 110
38deea9e 90 4f 00   Note On(0-Off) G4
38deeae5 90 4d 6b   Note On F4 107
38deeed0 90 4d 00   Note On(0-Off) F4

38deeed2 90 48 4d   Note On C4 77

38deeedf 90 29 33   Note On F1 51
38deefce 90 30 45   Note On C2 69

38deefd6 90 29 00   Note On(0-Off) F1
38deefda 90 48 00   Note On(0-Off) C4

38def021 90 30 00   Note On(0-Off) C2
38def072 90 35 33   Note On F2 51
38def0f7 90 35 00   Note On(0-Off) F2
38def165 90 37 3e   Note On G2 62
38def26f 90 39 33   Note On A2 51
38def2c2 90 37 00   Note On(0-Off) G2
38def357 90 41 2c   Note On F3 44
38def438 90 39 00   Note On(0-Off) A2

38def44c 90 43 3e   Note On G3 62
38def490 90 41 00   Note On(0-Off) F3
38def525 90 48 3e   Note On C4 62

38def535 90 43 00   Note On(0-Off) G3
38def603 90 2b 3d   Note On G1 61
38def638 90 48 00   Note On(0-Off) C4

38def641 90 47 47   Note On B3 71
38def6ec 90 2b 00   Note On(0-Off) G1
38def709 90 32 27   Note On D2 39

38def73e 90 32 00   Note On(0-Off) D2
38def775 90 47 00   Note On(0-Off) B3
38def7bf 90 37 3a   Note On G2 58
38def832 90 37 00   Note On(0-Off) G2
38def886 90 39 40   Note On A2 64

38def8d3 90 45 64   Note On A3 100
38def9b6 90 3b 40   Note On B2 64

38def9b7 90 39 00   Note On(0-Off) A2
38defa9a 90 3e 4b   Note On D3 75

38defa9b 90 3b 00   Note On(0-Off) B2

38defaac 90 43 6b   Note On G3 107

38defab2 90 45 00   Note On(0-Off) A3
38defb1d 90 3e 00   Note On(0-Off) D3
38defc3f 90 43 00   Note On(0-Off) G3
38defd75 90 45 40   Note On A3 64

38defd79 90 30 42   Note On C2 66
38defea6 90 30 00   Note On(0-Off) C2
38defed9 90 37 23   Note On G2 35
38deff8d 90 37 00   Note On(0-Off) G2
38deffc3 90 34 3c   Note On E2 60

38deffc6 90 45 00   Note On(0-Off) A3
38df002a 90 43 5b   Note On G3 91
38df00c9 90 34 00   Note On(0-Off) E2
38df0100 90 37 19   Note On G2 25
38df0213 90 37 00   Note On(0-Off) G2
38df02a0 90 40 4b   Note On E3 75

38df02ab 90 43 00   Note On(0-Off) G3
38df0501 90 40 00   Note On(0-Off) E3
38df0584 90 2d 3c   Note On A1 60
38df05bb 90 43 4b   Note On G3 75
38df0774 90 2d 00   Note On(0-Off) A1
38df07c0 90 43 00   Note On(0-Off) G3
38df086b 90 30 31   Note On C2 49
38df0952 90 34 47   Note On E2 71

38df097e 90 30 00   Note On(0-Off) C2
38df0a31 90 39 3c   Note On A2 60
38df0a74 90 34 00   Note On(0-Off) E2
38df0b2b 90 3b 44   Note On B2 68
38df0c2b 90 39 00   Note On(0-Off) A2
38df0c83 90 3b 00   Note On(0-Off) B2
38df0cce 90 26 13   Note On D1 19

38df0d0f 90 39 52   Note On A2 82

38df0d14 90 40 59   Note On E3 89
38df0de4 90 39 00   Note On(0-Off) A2

38df0dea 90 2d 45   Note On A1 69
38df0e1a 90 40 00   Note On(0-Off) E3

38df0e1c 90 26 00   Note On(0-Off) D1
38df0f09 90 32 49   Note On D2 73

38df0f1a 90 2d 00   Note On(0-Off) A1
38df0fb7 90 32 00   Note On(0-Off) D2

38df0fc6 90 35 40   Note On F2 64

38df0fc9 90 3e 64   Note On D3 100

38df0fcb 90 39 5e   Note On A2 94
38df10ba 90 32 4b   Note On D2 75
38df1111 90 39 00   Note On(0-Off) A2

38df1122 90 3e 00   Note On(0-Off) D3
38df1130 90 35 00   Note On(0-Off) F2

38df1188 90 35 11   Note On F2 17
38df118f 90 39 5b   Note On A2 91
38df11f4 90 32 00   Note On(0-Off) D2
38df128f 90 32 3c   Note On D2 60
38df12ed 90 39 00   Note On(0-Off) A2

38df131a 90 35 00   Note On(0-Off) F2
38df134f 90 32 00   Note On(0-Off) D2

38df137a 90 3e 5f   Note On D3 95

38df137c 90 39 64   Note On A2 100

38df137e 90 35 3d   Note On F2 61
38df1444 90 2b 34   Note On G1 52
38df1551 90 32 62   Note On D2 98

38df1556 90 3e 00   Note On(0-Off) D3

38df155f 90 39 00   Note On(0-Off) A2

38df156b 90 35 00   Note On(0-Off) F2
38df1582 90 2b 00   Note On(0-Off) G1
38df1660 90 40 62   Note On E3 98

38df1663 90 39 5f   Note On A2 95

38df1668 90 35 47   Note On F2 71

38df1684 90 32 00   Note On(0-Off) D2
38df171d 90 32 64   Note On D2 100

38df1728 90 40 00   Note On(0-Off) E3

38df1733 90 39 00   Note On(0-Off) A2

38df174a 90 35 00   Note On(0-Off) F2
38df178f 90 39 64   Note On A2 100

38df1796 90 35 5e   Note On F2 94

38df1797 90 3e 62   Note On D3 98
38df17ee 90 32 00   Note On(0-Off) D2
38df1871 90 32 4d   Note On D2 77

38df1886 90 35 00   Note On(0-Off) F2

38df189a 90 39 00   Note On(0-Off) A2
38df189f 90 3e 00   Note On(0-Off) D3
38df194b 90 35 5b   Note On F2 91

38df194d 90 39 5e   Note On A2 94

38df195f 90 32 00   Note On(0-Off) D2
38df1a22 90 35 00   Note On(0-Off) F2

38df1a24 90 39 00   Note On(0-Off) A2
38df1b15 90 3b 64   Note On B2 100

38df1b17 90 37 5f   Note On G2 95

38df1b18 90 3e 64   Note On D3 100
38df1bdb 90 24 7d   Note On C1 125
38df1cda 90 37 00   Note On(0-Off) G2
38df1cfc 90 30 56   Note On C2 86

38df1d05 90 24 00   Note On(0-Off) C1

38df1d1f 90 3e 00   Note On(0-Off) D3

38df1d2e 90 3b 00   Note On(0-Off) B2
38df1e52 90 30 00   Note On(0-Off) C2

38df1e58 90 37 04   Note On G2 4
38df1fbc 90 30 64   Note On C2 100
38df2077 90 37 00   Note On(0-Off) G2
38df20db 90 37 72   Note On G2 114
38df2140 90 30 00   Note On(0-Off) C2
38df21c1 90 30 5f   Note On C2 95
38df22c0 90 3e 67   Note On D3 103
38df22fb 90 30 00   Note On(0-Off) C2
38df23ae 90 2d 5f   Note On A1 95
38df2437 90 3e 00   Note On(0-Off) D3

38df2455 90 37 00   Note On(0-Off) G2
38df24ad 90 37 49   Note On G2 73

38df24b0 90 40 67   Note On E3 103
38df2655 90 40 00   Note On(0-Off) E3
38df2673 90 3e 69   Note On D3 105
38df283d 90 40 69   Note On E3 105
38df289b 90 3e 00   Note On(0-Off) D3
38df291f 90 37 00   Note On(0-Off) G2
38df292f 90 2d 00   Note On(0-Off) A1
38df298f 90 40 00   Note On(0-Off) E3
38df2a06 90 35 4d   Note On F2 77

38df2a09 90 39 4b   Note On A2 75

38df2a27 90 41 5e   Note On F3 94
38df2ab1 90 26 49   Note On D1 73
38df2bf8 90 2d 3a   Note On A1 58
38df2c06 90 26 00   Note On(0-Off) D1
38df2d06 90 32 40   Note On D2 64
38df2d3e 90 2d 00   Note On(0-Off) A1
38df2da2 90 35 00   Note On(0-Off) F2

38df2dc4 90 39 00   Note On(0-Off) A2
38df2dfc 90 41 00   Note On(0-Off) F3

38df2e43 90 32 00   Note On(0-Off) D2
38df2f14 90 37 4f   Note On G2 79

38df2f1f 90 28 59   Note On E1 89

38df2f20 90 3b 59   Note On B2 89

38df2f22 90 43 3d   Note On G3 61

38df2f23 90 3e 69   Note On D3 105
38df3132 90 3b 00   Note On(0-Off) B2

38df3146 90 37 00   Note On(0-Off) G2

38df3148 90 28 00   Note On(0-Off) E1
38df3196 90 3e 00   Note On(0-Off) D3

38df31c7 90 43 00   Note On(0-Off) G3
38df3341 90 29 5f   Note On F1 95

38df3346 90 39 2c   Note On A2 44

38df3348 90 45 34   Note On A3 52

38df3354 90 3c 7f   Note On C3 127
38df3598 90 29 00   Note On(0-Off) F1

38df35a2 90 3c 00   Note On(0-Off) C3

38df35ae 90 39 00   Note On(0-Off) A2

38df35e2 90 45 00   Note On(0-Off) A3
38df377d 90 3e 69   Note On D3 105

38df3780 90 47 69   Note On B3 105

38df3782 90 41 64   Note On F3 100

38df378f 90 2b 64   Note On G1 100
38df3936 90 2b 00   Note On(0-Off) G1
38df398a 90 3e 00   Note On(0-Off) D3

38df39d6 90 41 00   Note On(0-Off) F3

38df39d8 90 47 00   Note On(0-Off) B3
38df3b8d 90 2d 67   Note On A1 103

38df3b97 90 41 2c   Note On F3 44

38df3b99 90 45 67   Note On A3 103

38df3b9a 90 48 62   Note On C4 98
38df3c9d 90 34 5b   Note On E2 91

38df3caa 90 41 00   Note On(0-Off) F3
38df3cc4 90 2d 00   Note On(0-Off) A1
38df3d2b 90 45 00   Note On(0-Off) A3

38df3d2e 90 34 00   Note On(0-Off) E2

38df3d30 90 48 00   Note On(0-Off) C4
38df3d93 90 39 31   Note On A2 49
38df3e26 90 39 00   Note On(0-Off) A2
38df3e7b 90 3b 5f   Note On B2 95
38df3fb9 90 3b 00   Note On(0-Off) B2
38df4040 90 40 40   Note On E3 64
38df4151 90 45 64   Note On A3 100
38df41e2 90 40 00   Note On(0-Off) E3
38df423b 90 4c 72   Note On E4 114
38df4366 90 2d 6b   Note On A1 107
38df4453 90 34 59   Note On E2 89
38df44cb 90 2d 00   Note On(0-Off) A1
38df454a 90 39 4b   Note On A2 75

38df4562 90 34 00   Note On(0-Off) E2
38df4582 90 45 00   Note On(0-Off) A3

38df4583 90 4c 00   Note On(0-Off) E4
38df4614 90 45 3d   Note On A3 61

38df463a 90 39 00   Note On(0-Off) A2
38df46c3 90 2b 66   Note On G1 102

38df46c6 90 4d 74   Note On F4 116
38df482f 90 2b 00   Note On(0-Off) G1
38df48ae 90 4d 00   Note On(0-Off) F4
38df4a42 90 45 00   Note On(0-Off) A3
38df4a80 90 4c 6d   Note On E4 109

38df4a81 90 2d 6e   Note On A1 110

38df4a86 90 45 59   Note On A3 89
38df4b82 90 34 64   Note On E2 100
38df4bc0 90 2d 00   Note On(0-Off) A1
38df4c1c 90 34 00   Note On(0-Off) E2

38df4c50 90 39 3e   Note On A2 62
38df4cdf 90 39 00   Note On(0-Off) A2
38df4d33 90 3b 5b   Note On B2 91
38df4e10 90 45 00   Note On(0-Off) A3
38df4e63 90 3b 00   Note On(0-Off) B2
38df4eda 90 4c 00   Note On(0-Off) E4
38df4f1f 90 40 3a   Note On E3 58
38df501d 90 40 00   Note On(0-Off) E3

38df5022 90 45 56   Note On A3 86
38df510b 90 4d 72   Note On F4 114
38df51dd 90 2d 47   Note On A1 71
38df51e2 90 2f 49   Note On B1 73
38df524e 90 2f 00   Note On(0-Off) B1
38df52f2 90 34 3c   Note On E2 60
38df533d 90 2d 00   Note On(0-Off) A1
38df53e0 90 34 00   Note On(0-Off) E2

38df53f8 90 39 52   Note On A2 82
38df5489 90 39 00   Note On(0-Off) A2
38df54ef 90 3b 60   Note On B2 96
38df553b 90 45 00   Note On(0-Off) A3
38df55ba 90 4d 00   Note On(0-Off) F4
38df5611 90 3b 00   Note On(0-Off) B2
38df5694 90 40 45   Note On E3 69
38df5755 90 40 00   Note On(0-Off) E3
38df57bd 90 45 6d   Note On A3 109
38df58c1 90 51 40   Note On A4 64

38df58c5 90 53 67   Note On B4 103
38df58f2 90 53 00   Note On(0-Off) B4
38df599b 90 2d 52   Note On A1 82
38df5a94 90 34 5b   Note On E2 91

38df5ad4 90 2d 00   Note On(0-Off) A1
38df5b30 90 34 00   Note On(0-Off) E2
38df5b69 90 39 3c   Note On A2 60
38df5be8 90 45 00   Note On(0-Off) A3

38df5bea 90 39 00   Note On(0-Off) A2
38df5c36 90 51 00   Note On(0-Off) A4

38df5c67 90 3b 3c   Note On B2 60
38df5d6d 90 3b 00   Note On(0-Off) B2
38df5e15 90 40 3d   Note On E3 61
38df5ef5 90 40 00   Note On(0-Off) E3
38df5f62 90 48 3a   Note On C4 58
38df602c 90 53 62   Note On B4 98
38df6049 90 4c 70   Note On E4 112
38df60ac 90 2d 64   Note On A1 100
38df6194 90 34 49   Note On E2 73

38df61a7 90 4c 00   Note On(0-Off) E4

38df61b3 90 53 00   Note On(0-Off) B4
38df61e9 90 2d 00   Note On(0-Off) A1
38df6257 90 34 00   Note On(0-Off) E2
38df6299 90 39 25   Note On A2 37

38df62e0 90 54 33   Note On C5 51

38df62e9 90 4c 67   Note On E4 103
38df633b 90 39 00   Note On(0-Off) A2
38df637b 90 3b 64   Note On B2 100
38df6419 90 4c 00   Note On(0-Off) E4
38df6440 90 48 00   Note On(0-Off) C4

38df6459 90 54 00   Note On(0-Off) C5
38df64a7 90 3b 00   Note On(0-Off) B2
38df654c 90 40 40   Note On E3 64
38df65dd 90 40 00   Note On(0-Off) E3
38df6680 90 53 6b   Note On B4 107
38df6687 90 48 5e   Note On C4 94

38df668d 90 4c 72   Note On E4 114
38df67f4 90 48 00   Note On(0-Off) C4
38df682b 90 4c 00   Note On(0-Off) E4

38df6830 90 53 00   Note On(0-Off) B4

38df6856 90 29 62   Note On F1 98

38df686f 90 53 6d   Note On B4 109
38df687e 90 48 5b   Note On C4 91

38df6882 90 4c 6e   Note On E4 110
38df696a 90 30 60   Note On C2 96
38df69b2 90 53 00   Note On(0-Off) B4

38df69b7 90 29 00   Note On(0-Off) F1

38df69f0 90 48 00   Note On(0-Off) C4

38df69f2 90 4c 00   Note On(0-Off) E4

38df69f6 90 30 00   Note On(0-Off) C2
38df6a40 90 35 2b   Note On F2 43
38df6ab9 90 35 00   Note On(0-Off) F2
38df6b24 90 37 4d   Note On G2 77
38df6c27 90 39 4b   Note On A2 75

38df6c2b 90 37 00   Note On(0-Off) G2
38df6cb8 90 39 00   Note On(0-Off) A2
38e4d1bf 90 3e 42   Note On D3 66

38e4d1c2 90 37 3f   Note On G2 63

38e4d1c5 90 29 2f   Note On F1 47

38e4d1c6 90 39 3f   Note On A2 63
38e4d32f 90 30 3a   Note On C2 58
38e4d376 90 29 00   Note On(0-Off) F1
38e4d3fb 90 37 00   Note On(0-Off) G2

38e4d415 90 39 00   Note On(0-Off) A2
38e4d433 90 30 00   Note On(0-Off) C2

38e4d439 90 3e 00   Note On(0-Off) D3
38e4d4bf 90 35 15   Note On F2 21
38e4d57c 90 35 00   Note On(0-Off) F2
38e4d5e4 90 37 23   Note On G2 35
38e4d712 90 39 3f   Note On A2 63

38e4d74e 90 37 00   Note On(0-Off) G2
38e4d881 90 39 00   Note On(0-Off) A2
38e4d9bc 90 40 62   Note On E3 98
38e4dae1 90 48 3f   Note On C4 63
38e4dc35 90 26 3a   Note On D1 58
38e4dc49 90 47 6b   Note On B3 107

38e4dc56 90 48 00   Note On(0-Off) C4
38e4dd68 90 2d 4d   Note On A1 77
38e4dda4 90 26 00   Note On(0-Off) D1
38e4deb4 90 43 3c   Note On G3 60

38e4decd 90 47 00   Note On(0-Off) B3

38e4def5 90 2d 00   Note On(0-Off) A1
38e4df34 90 40 00   Note On(0-Off) E3

38e4df45 90 43 00   Note On(0-Off) G3
5174eb31 90 45 5b   Note On A3 91

5174eb33 90 43 5e   Note On G3 94
5174eba3 90 43 00   Note On(0-Off) G3
5174ecf0 90 45 00   Note On(0-Off) A3
5174ed55 90 45 6b   Note On A3 107
5174f895 90 45 00   Note On(0-Off) A3
5174f963 90 24 6d   Note On C1 109

5174f969 90 43 4d   Note On G3 77

5174f970 90 40 3d   Note On E3 61

5174f971 90 48 3d   Note On C4 61
5174fa89 90 2b 3f   Note On G1 63
5174fae3 90 24 00   Note On(0-Off) C1
5174fb9c 90 2b 00   Note On(0-Off) G1
5174fbb5 90 30 62   Note On C2 98
5174fc7d 90 30 00   Note On(0-Off) C2
5174fcb2 90 32 62   Note On D2 98
5174fdc9 90 34 5b   Note On E2 91
5174fe0c 90 32 00   Note On(0-Off) D2
5174fec9 90 37 3f   Note On G2 63

5174fee5 90 34 00   Note On(0-Off) E2
5174ffdc 90 40 00   Note On(0-Off) E3
51750009 90 43 00   Note On(0-Off) G3

51750025 90 43 22   Note On G3 34

51750038 90 40 3f   Note On E3 63

5175003d 90 48 00   Note On(0-Off) C4
517500e3 90 37 00   Note On(0-Off) G2
51750182 90 40 00   Note On(0-Off) E3

51750183 90 43 00   Note On(0-Off) G3
5175026f 90 2b 4b   Note On G1 75

51750275 90 41 3a   Note On F3 58

51750276 90 45 52   Note On A3 82
5175035b 90 32 3e   Note On D2 62
517503d1 90 2b 00   Note On(0-Off) G1
5175042d 90 32 00   Note On(0-Off) D2
51750448 90 37 27   Note On G2 39
51750527 90 37 00   Note On(0-Off) G2

51750547 90 39 45   Note On A2 69
51750666 90 3b 52   Note On B2 82
517506b2 90 39 00   Note On(0-Off) A2

517506f9 90 41 00   Note On(0-Off) F3
51750723 90 45 00   Note On(0-Off) A3
517507b1 90 3b 00   Note On(0-Off) B2
517508b5 90 45 5e   Note On A3 94

517508d4 90 41 40   Note On F3 64
5175092e 90 41 00   Note On(0-Off) F3
51750a73 90 45 00   Note On(0-Off) A3
51750aa8 90 43 59   Note On G3 89

51750aac 90 24 6d   Note On C1 109

51750ab1 90 40 47   Note On E3 71
51750bc9 90 2b 40   Note On G1 64
51750c25 90 24 00   Note On(0-Off) C1
51750cb3 90 2b 00   Note On(0-Off) G1

51750cdb 90 30 3e   Note On C2 62
51750d8d 90 30 00   Note On(0-Off) C2
51750dde 90 32 52   Note On D2 82
51750f0d 90 34 5e   Note On E2 94

51750f51 90 32 00   Note On(0-Off) D2
51750ff6 90 37 4d   Note On G2 77

5175100c 90 34 00   Note On(0-Off) E2
517510a3 90 37 00   Note On(0-Off) G2
517511d1 90 40 00   Note On(0-Off) E3

517511dd 90 43 00   Note On(0-Off) G3
5175138b 90 29 22   Note On F1 34

5175139b 90 41 3d   Note On F3 61

5175139f 90 39 3f   Note On A2 63
517514a3 90 30 3d   Note On C2 61
517515d8 90 35 3a   Note On F2 58
51751915 90 41 00   Note On(0-Off) F3

51751931 90 39 00   Note On(0-Off) A2
51751984 90 39 3d   Note On A2 61
51751ab5 90 39 00   Note On(0-Off) A2
51751bb9 90 30 00   Note On(0-Off) C2

51751bce 90 35 00   Note On(0-Off) F2

51751be9 90 29 00   Note On(0-Off) F1
51751d1e 90 43 49   Note On G3 73
51751e7d 90 48 47   Note On C4 71

51751ea7 90 43 00   Note On(0-Off) G3
51751f90 90 47 52   Note On B3 82

51751fa0 90 48 00   Note On(0-Off) C4
5175209c 90 47 00   Note On(0-Off) B3

5175209d 90 24 74   Note On C1 116

517520b1 90 48 5e   Note On C4 94

517520bd 90 40 5b   Note On E3 91
517521b7 90 24 00   Note On(0-Off) C1

517521ec 90 48 00   Note On(0-Off) C4
5175220a 90 40 00   Note On(0-Off) E3
51754368 90 43 59   Note On G3 89
5175447f 90 48 45   Note On C4 69
517544b8 90 43 00   Note On(0-Off) G3
5175459b 90 47 62   Note On B3 98

517545ae 90 48 00   Note On(0-Off) C4
517546d0 90 48 40   Note On C4 64

517546d1 90 26 45   Note On D1 69

517546dc 90 47 00   Note On(0-Off) B3

517546ef 90 40 40   Note On E3 64
517547de 90 2d 45   Note On A1 69
51754836 90 26 00   Note On(0-Off) D1
517548ac 90 2d 00   Note On(0-Off) A1
517548e5 90 32 3a   Note On D2 58
517549c3 90 32 00   Note On(0-Off) D2
51754ac7 90 24 40   Note On C1 64
51754b18 90 40 00   Note On(0-Off) E3

51754b1a 90 24 00   Note On(0-Off) C1

51754b34 90 48 00   Note On(0-Off) C4
51754bd6 90 24 76   Note On C1 118

51754bd8 90 48 66   Note On C4 102

51754bd9 90 40 64   Note On E3 100
51754cf8 90 2b 49   Note On G1 73
51754d3f 90 24 00   Note On(0-Off) C1
51754dbe 90 2b 00   Note On(0-Off) G1

51754deb 90 30 40   Note On C2 64
51754e88 90 30 00   Note On(0-Off) C2
51754edf 90 32 42   Note On D2 66
51755003 90 34 3f   Note On E2 63

51755058 90 32 00   Note On(0-Off) D2
517550e6 90 37 52   Note On G2 82

51755109 90 43 64   Note On G3 100

51755116 90 34 00   Note On(0-Off) E2
51755170 90 48 00   Note On(0-Off) C4

51755185 90 37 00   Note On(0-Off) G2
5175522a 90 43 00   Note On(0-Off) G3
51755271 90 40 00   Note On(0-Off) E3
51755407 90 2b 59   Note On G1 89

5175540c 90 43 33   Note On G3 51

51755415 90 41 4b   Note On F3 75

51755417 90 45 4f   Note On A3 79
51755518 90 32 49   Note On D2 73
51755599 90 2b 00   Note On(0-Off) G1

517555e0 90 32 00   Note On(0-Off) D2
51755613 90 37 2f   Note On G2 47

5175563d 90 41 00   Note On(0-Off) F3
51755661 90 45 00   Note On(0-Off) A3

5175566b 90 43 00   Note On(0-Off) G3
517556d9 90 37 00   Note On(0-Off) G2
5175572c 90 39 38   Note On A2 56
51755841 90 3b 3d   Note On B2 61
517558a7 90 39 00   Note On(0-Off) A2
51755947 90 43 3e   Note On G3 62

51755948 90 3b 00   Note On(0-Off) B2

5175594f 90 40 3e   Note On E3 62
51755a76 90 48 56   Note On C4 86
51755b86 90 47 60   Note On B3 96

51755b9b 90 48 00   Note On(0-Off) C4
51755c2b 90 43 00   Note On(0-Off) G3

51755c2d 90 40 00   Note On(0-Off) E3

51755c31 90 24 45   Note On C1 69
51755c4e 90 24 00   Note On(0-Off) C1

51755c4f 90 47 00   Note On(0-Off) B3

51755c9d 90 24 56   Note On C1 86
51755cb9 90 48 4f   Note On C4 79

51755cc0 90 43 64   Note On G3 100

51755cc1 90 40 64   Note On E3 100
51755dbf 90 2b 3d   Note On G1 61
51755e25 90 24 00   Note On(0-Off) C1
51755e98 90 2b 00   Note On(0-Off) G1
51755ed3 90 30 3d   Note On C2 61
51755f64 90 30 00   Note On(0-Off) C2
51755f77 90 40 00   Note On(0-Off) E3

51755f78 90 48 00   Note On(0-Off) C4

51755f8f 90 43 00   Note On(0-Off) G3

51755faf 90 32 67   Note On D2 103

51755fbe 90 43 45   Note On G3 69

51755fbf 90 40 59   Note On E3 89
517560c4 90 34 4d   Note On E2 77
51756113 90 32 00   Note On(0-Off) D2
51756196 90 37 62   Note On G2 98

517561a5 90 34 00   Note On(0-Off) E2

517561b7 90 48 5f   Note On C4 95
5175623a 90 37 00   Note On(0-Off) G2

5175625e 90 40 00   Note On(0-Off) E3

5175627d 90 43 00   Note On(0-Off) G3
51756296 90 48 00   Note On(0-Off) C4
517564c1 90 29 44   Note On F1 68

517564d6 90 45 59   Note On A3 89

517564d7 90 4d 64   Note On F4 100

517564d8 90 48 67   Note On C4 103
517565b6 90 30 3a   Note On C2 58
51756645 90 29 00   Note On(0-Off) F1
517566d2 90 30 00   Note On(0-Off) C2

517566dd 90 4d 00   Note On(0-Off) F4

517566e1 90 4c 4f   Note On E4 79
5175671c 90 35 1c   Note On F2 28
51756781 90 48 00   Note On(0-Off) C4

51756782 90 45 00   Note On(0-Off) A3

51756783 90 4c 00   Note On(0-Off) E4
517567d4 90 35 00   Note On(0-Off) F2

517567fe 90 4a 70   Note On D4 112

51756800 90 45 59   Note On A3 89

51756801 90 37 62   Note On G2 98
51756918 90 39 4d   Note On A2 77

51756962 90 37 00   Note On(0-Off) G2
51756a04 90 48 64   Note On C4 100

51756a1f 90 39 00   Note On(0-Off) A2

51756a22 90 4a 00   Note On(0-Off) D4
51756aeb 90 48 00   Note On(0-Off) C4

51756afc 90 45 00   Note On(0-Off) A3
51756d5e 90 24 66   Note On C1 102

51756d71 90 40 59   Note On E3 89

51756d74 90 43 5f   Note On G3 95
51756e90 90 2b 3e   Note On G1 62
51756ef6 90 24 00   Note On(0-Off) C1
51756f8c 90 2b 00   Note On(0-Off) G1

51756faf 90 30 3e   Note On C2 62
5175704c 90 30 00   Note On(0-Off) C2
517570b0 90 32 3f   Note On D2 63
517571ef 90 34 4f   Note On E2 79
51757250 90 32 00   Note On(0-Off) D2
517572d0 90 37 3d   Note On G2 61

517572db 90 34 00   Note On(0-Off) E2
51757361 90 40 00   Note On(0-Off) E3

51757367 90 43 00   Note On(0-Off) G3
5175736b 90 37 00   Note On(0-Off) G2
51757625 90 29 3d   Note On F1 61

5175762b 90 41 3e   Note On F3 62
5175762c 90 43 42   Note On G3 66

51757632 90 45 3d   Note On A3 61
51757759 90 30 3a   Note On C2 58
517577c6 90 29 00   Note On(0-Off) F1
51757838 90 30 00   Note On(0-Off) C2

51757877 90 35 2c   Note On F2 44
5175793d 90 35 00   Note On(0-Off) F2
5175799a 90 37 38   Note On G2 56
51757abd 90 41 00   Note On(0-Off) F3

51757abf 90 39 3d   Note On A2 61

51757ac6 90 45 00   Note On(0-Off) A3

51757ade 90 43 00   Note On(0-Off) G3
51757b07 90 37 00   Note On(0-Off) G2
51757ba7 90 43 3d   Note On G3 61
51757c53 90 39 00   Note On(0-Off) A2
51757cc6 90 48 47   Note On C4 71
51757d1d 90 40 14   Note On E3 20
51757d81 90 43 00   Note On(0-Off) G3
51757ddc 90 40 00   Note On(0-Off) E3

51757df9 90 47 59   Note On B3 89
51757e30 90 40 05   Note On E3 5

51757e33 90 48 00   Note On(0-Off) C4
51757e97 90 40 00   Note On(0-Off) E3
51757f18 90 47 00   Note On(0-Off) B3

51757f20 90 48 60   Note On C4 96

51757f2b 90 40 62   Note On E3 98

51757f34 90 24 72   Note On C1 114
51758032 90 2b 3e   Note On G1 62
51758080 90 24 00   Note On(0-Off) C1
517580f0 90 2b 00   Note On(0-Off) G1
51758147 90 30 22   Note On C2 34
517581d0 90 30 00   Note On(0-Off) C2
5175822c 90 32 3d   Note On D2 61
5175834f 90 34 4f   Note On E2 79
517583c9 90 32 00   Note On(0-Off) D2
5175843f 90 37 40   Note On G2 64

51758466 90 34 00   Note On(0-Off) E2
5175849a 90 43 5f   Note On G3 95
51758513 90 37 00   Note On(0-Off) G2
51758590 90 48 00   Note On(0-Off) C4

517585b0 90 43 00   Note On(0-Off) G3
517585f4 90 40 00   Note On(0-Off) E3
517587d8 90 2b 47   Note On G1 71

517587e4 90 41 4b   Note On F3 75

517587e7 90 43 3e   Note On G3 62

517587e8 90 45 3d   Note On A3 61
517588e1 90 32 3f   Note On D2 63
51758960 90 2b 00   Note On(0-Off) G1
517589e1 90 32 00   Note On(0-Off) D2
51758fcc 90 45 00   Note On(0-Off) A3
51759040 90 45 3e   Note On A3 62
517590d9 90 45 00   Note On(0-Off) A3
51759105 90 43 00   Note On(0-Off) G3
51759190 90 43 23   Note On G3 35
517591fc 90 41 00   Note On(0-Off) F3

5175921c 90 43 00   Note On(0-Off) G3
517592e2 90 45 13   Note On A3 19
51759515 90 45 00   Note On(0-Off) A3
5175963f 90 3f 59   Note On Eb3 89

51759647 90 42 64   Note On F#3 100

5175965c 90 45 4d   Note On A3 77

51759663 90 44 3a   Note On Ab3 58
51759705 90 44 00   Note On(0-Off) Ab3
51759b66 90 45 00   Note On(0-Off) A3
51759bed 90 3f 00   Note On(0-Off) Eb3
51759c54 90 42 00   Note On(0-Off) F#3
51759ce8 90 47 59   Note On B3 89

51759cec 90 42 45   Note On F#3 69

51759cf0 90 3f 45   Note On Eb3 69
51759e57 90 47 00   Note On(0-Off) B3
51759e9f 90 3f 00   Note On(0-Off) Eb3

51759ea6 90 42 00   Note On(0-Off) F#3
51759f09 90 42 47   Note On F#3 71

51759f0f 90 3f 56   Note On Eb3 86

51759f12 90 45 64   Note On A3 100
5175a11b 90 45 00   Note On(0-Off) A3

5175a136 90 3f 00   Note On(0-Off) Eb3
5175a14e 90 42 00   Note On(0-Off) F#3
5175a2ce 90 43 59   Note On G3 89

5175a2cf 90 40 64   Note On E3 100
5175a9c6 90 43 00   Note On(0-Off) G3
5175ab43 90 3e 4d   Note On D3 77

5175ab61 90 40 00   Note On(0-Off) E3
5175ac61 90 40 49   Note On E3 73
5175ac75 90 3e 00   Note On(0-Off) D3
5175ad01 90 40 00   Note On(0-Off) E3
5175ad7c 90 39 4b   Note On A2 75

5175ad7d 90 41 60   Note On F3 96
5175af0c 90 41 00   Note On(0-Off) F3

5175af30 90 39 00   Note On(0-Off) A2
5175af53 90 41 3d   Note On F3 61

5175af55 90 39 15   Note On A2 21
5175aff1 90 39 00   Note On(0-Off) A2

5175affd 90 41 00   Note On(0-Off) F3
5175b05e 90 41 5f   Note On F3 95

5175b063 90 39 60   Note On A2 96
5175b271 90 40 66   Note On E3 102
5175b281 90 41 00   Note On(0-Off) F3
5175b2f3 90 40 00   Note On(0-Off) E3

5175b30f 90 39 00   Note On(0-Off) A2
5175b599 90 37 59   Note On G2 89

5175b59d 90 3b 67   Note On B2 103

5175b5a1 90 3e 60   Note On D3 96

5175b5a2 90 39 5f   Note On A2 95
5175b613 90 39 00   Note On(0-Off) A2
5175ba13 90 3b 00   Note On(0-Off) B2

5175ba25 90 3e 00   Note On(0-Off) D3
5175bb64 90 3b 64   Note On B2 100
5175bc28 90 3b 00   Note On(0-Off) B2

5175bc37 90 37 00   Note On(0-Off) G2
5175bd99 90 35 67   Note On F2 103

5175bd9b 90 39 6b   Note On A2 107
5175c48e 90 39 00   Note On(0-Off) A2
5175c5e0 90 36 3d   Note On F#2 61
5175c81d 90 36 00   Note On(0-Off) F#2
5175c8a6 90 38 49   Note On Ab2 73
5175cdec 90 38 00   Note On(0-Off) Ab2
5175ce15 90 35 00   Note On(0-Off) F2
5175d0b6 90 32 3d   Note On D2 61

5175d0ba 90 35 47   Note On F2 71

5175d0bc 90 39 40   Note On A2 64
5175d0bf 90 34 45   Note On E2 69
5175d2c9 90 34 00   Note On(0-Off) E2

5175d2cc 90 35 00   Note On(0-Off) F2

5175d2cd 90 39 00   Note On(0-Off) A2

5175d2da 90 32 00   Note On(0-Off) D2
5175d3fc 90 30 23   Note On C2 35

5175d403 90 34 3e   Note On E2 62

5175d406 90 32 3e   Note On D2 62

5175d407 90 37 4d   Note On G2 77
5175e286 90 37 00   Note On(0-Off) G2

5175e293 90 34 00   Note On(0-Off) E2

5175e2b9 90 32 00   Note On(0-Off) D2

5175e2be 90 30 00   Note On(0-Off) C2
5175e3be 90 34 3c   Note On E2 60
5175e470 90 34 00   Note On(0-Off) E2
5175e4cd 90 34 3c   Note On E2 60
5175e54b 90 34 00   Note On(0-Off) E2
5175e5b2 90 34 40   Note On E2 64
5175e630 90 34 00   Note On(0-Off) E2

5175e680 90 34 64   Note On E2 100
5175e81a 90 34 00   Note On(0-Off) E2

5175e81d 90 35 67   Note On F2 103
5175e8b4 90 35 00   Note On(0-Off) F2
5175e91b 90 35 56   Note On F2 86
5175eb12 90 37 42   Note On G2 66

5175eb22 90 35 00   Note On(0-Off) F2
5175ebb7 90 37 00   Note On(0-Off) G2
5175ec3e 90 37 59   Note On G2 89
5175f2e2 90 37 00   Note On(0-Off) G2

5175f33c 90 37 14   Note On G2 20
5175f573 90 2b 4b   Note On G1 75

5175f599 90 37 00   Note On(0-Off) G2
5175f63c 90 2b 00   Note On(0-Off) G1
5175f683 90 2b 59   Note On G1 89
5175f703 90 2b 00   Note On(0-Off) G1
5175f762 90 2b 4b   Note On G1 75
5175f7e2 90 2b 00   Note On(0-Off) G1
5175f84b 90 2b 56   Note On G1 86
5175fa22 90 2d 47   Note On A1 71

5175fa48 90 2b 00   Note On(0-Off) G1
5175fab3 90 2d 00   Note On(0-Off) A1
5175fbc5 90 2d 47   Note On A1 71
5175fc91 90 2d 00   Note On(0-Off) A1
5175febc 90 29 45   Note On F1 69
5175fffd 90 29 00   Note On(0-Off) F1
517600f6 90 2c 74   Note On Ab1 116
5176023b 90 2c 00   Note On(0-Off) Ab1
517602c4 90 29 5e   Note On F1 94
51760345 90 29 00   Note On(0-Off) F1
517603f6 90 29 47   Note On F1 71
51760477 90 2e 59   Note On Bb1 89

51760491 90 29 00   Note On(0-Off) F1
51760518 90 2e 00   Note On(0-Off) Bb1
517605eb 90 29 31   Note On F1 49
51760695 90 29 00   Note On(0-Off) F1
5176070a 90 27 33   Note On Eb1 51
517607c5 90 27 00   Note On(0-Off) Eb1
51760880 90 29 67   Note On F1 103
51760955 90 29 00   Note On(0-Off) F1
51760abd 90 30 66   Note On C2 102
51760b8b 90 30 00   Note On(0-Off) C2
51760c71 90 29 40   Note On F1 64
51760d0a 90 29 00   Note On(0-Off) F1
51760d94 90 29 42   Note On F1 66
51760e67 90 31 74   Note On C#2 116

51760e8f 90 29 00   Note On(0-Off) F1
51760f0b 90 31 00   Note On(0-Off) C#2
51760fc0 90 30 56   Note On C2 86
5176108d 90 30 00   Note On(0-Off) C2
517610f9 90 2c 69   Note On Ab1 105
5176118f 90 2c 00   Note On(0-Off) Ab1
5176122e 90 29 52   Note On F1 82
517612d5 90 29 00   Note On(0-Off) F1
51761373 90 2f 3e   Note On B1 62
517613d6 90 2f 00   Note On(0-Off) B1
51761483 90 35 60   Note On F2 96
5176154e 90 35 00   Note On(0-Off) F2
517615d8 90 2f 34   Note On B1 52

51761626 90 2f 00   Note On(0-Off) B1
517616a2 90 29 6d   Note On F1 109
51761721 90 29 00   Note On(0-Off) F1
51761806 90 27 47   Note On Eb1 71
51761849 90 27 00   Note On(0-Off) Eb1
517618d8 90 27 64   Note On Eb1 100
51761990 90 27 00   Note On(0-Off) Eb1
51761a10 90 27 4d   Note On Eb1 77
51761a6a 90 27 00   Note On(0-Off) Eb1

51761a7f 90 24 69   Note On C1 105
51761b1f 90 24 00   Note On(0-Off) C1
51761bab 90 2b 34   Note On G1 52
51761c44 90 2b 00   Note On(0-Off) G1
51761d08 90 29 56   Note On F1 86
51762444 90 29 00   Note On(0-Off) F1
5176ef6c 90 29 69   Note On F1 105
5176f01b 90 29 00   Note On(0-Off) F1
5176f08a 90 30 3c   Note On C2 60
5176f120 90 30 00   Note On(0-Off) C2

5176f15e 90 2e 76   Note On Bb1 118
5176f1d8 90 2e 00   Note On(0-Off) Bb1
5176f3cf 90 29 67   Note On F1 103
5176f4da 90 29 00   Note On(0-Off) F1
5176f653 90 2c 70   Note On Ab1 112
5176f704 90 2c 00   Note On(0-Off) Ab1
5176f883 90 29 67   Note On F1 103
5176f94b 90 29 00   Note On(0-Off) F1
5176f9b6 90 30 64   Note On C2 100
5176fa2b 90 30 00   Note On(0-Off) C2
5176fb09 90 2e 67   Note On Bb1 103
5176fbc1 90 2e 00   Note On(0-Off) Bb1

5176fbce 90 2c 6b   Note On Ab1 107
5176fc9a 90 2c 00   Note On(0-Off) Ab1
5176fe5e 90 29 67   Note On F1 103
5176fef2 90 29 00   Note On(0-Off) F1
517702f1 90 29 56   Note On F1 86
51770388 90 29 00   Note On(0-Off) F1
517703ec 90 30 69   Note On C2 105
51770474 90 30 00   Note On(0-Off) C2
51770541 90 2e 67   Note On Bb1 103
51770603 90 2c 5b   Note On Ab1 91

5177060c 90 2e 00   Note On(0-Off) Bb1
5177075f 90 2c 00   Note On(0-Off) Ab1

51770764 90 29 56   Note On F1 86
51770827 90 29 00   Note On(0-Off) F1
51770887 90 29 59   Note On F1 89
517709b9 90 29 00   Note On(0-Off) F1
51770ac4 90 2c 72   Note On Ab1 114
51770bd4 90 2c 00   Note On(0-Off) Ab1
51770c8a 90 29 40   Note On F1 64
51770d27 90 29 00   Note On(0-Off) F1
51770dba 90 29 5b   Note On F1 91
51770e40 90 2e 70   Note On Bb1 112
51770e79 90 29 00   Note On(0-Off) F1
51770ef0 90 2e 00   Note On(0-Off) Bb1
51770f7d 90 29 52   Note On F1 82
51771070 90 29 00   Note On(0-Off) F1

51771085 90 27 12   Note On Eb1 18
517711aa 90 27 00   Note On(0-Off) Eb1
517711d1 90 29 6b   Note On F1 107
517712f1 90 29 00   Note On(0-Off) F1
51771431 90 30 67   Note On C2 103
5177154b 90 30 00   Note On(0-Off) C2
517715f9 90 29 5f   Note On F1 95
517716a6 90 29 00   Note On(0-Off) F1
51771730 90 29 45   Note On F1 69
51771778 90 31 5b   Note On C#2 91
517717be 90 29 00   Note On(0-Off) F1
51771808 90 31 00   Note On(0-Off) C#2
517718c7 90 30 3f   Note On C2 63
51771980 90 30 00   Note On(0-Off) C2
517719e3 90 2c 67   Note On Ab1 103
51771a2a 90 2c 00   Note On(0-Off) Ab1
51771b0e 90 29 60   Note On F1 96
51771bbd 90 29 00   Note On(0-Off) F1
51771c4f 90 30 59   Note On C2 89
51771cfd 90 30 00   Note On(0-Off) C2
51771d86 90 35 4b   Note On F2 75
51771e4e 90 35 00   Note On(0-Off) F2
51771ecd 90 2b 1b   Note On G1 27
51771f40 90 2b 00   Note On(0-Off) G1
51771fa1 90 28 2c   Note On E1 44

51771fa2 90 29 40   Note On F1 64
51772004 90 29 00   Note On(0-Off) F1

51772005 90 28 00   Note On(0-Off) E1
51772104 90 28 3a   Note On E1 58
51772121 90 28 00   Note On(0-Off) E1
517721bf 90 27 6e   Note On Eb1 110
51772221 90 27 00   Note On(0-Off) Eb1
517724ea 90 29 60   Note On F1 96
51772592 90 27 4b   Note On Eb1 75

517725a7 90 27 00   Note On(0-Off) Eb1

517725ac 90 28 72   Note On E1 114

517725ae 90 29 00   Note On(0-Off) F1
517725f7 90 28 00   Note On(0-Off) E1
517726d1 90 27 3e   Note On Eb1 62
5177278f 90 27 00   Note On(0-Off) Eb1

517727cf 90 24 7d   Note On C1 125
51772851 90 24 00   Note On(0-Off) C1
517728ff 90 2b 2f   Note On G1 47
5177299a 90 2b 00   Note On(0-Off) G1
51772a6c 90 29 64   Note On F1 100
51773095 90 29 00   Note On(0-Off) F1
517a4938 90 3e 59   Note On D3 89

517a4939 90 24 79   Note On C1 121

517a493a 90 3b 66   Note On B2 102

517a493b 90 37 4d   Note On G2 77
517a4d96 90 3b 00   Note On(0-Off) B2

517a4dc3 90 24 00   Note On(0-Off) C1

517a4dc4 90 37 00   Note On(0-Off) G2
517a4df7 90 3e 00   Note On(0-Off) D3
517a4f0c 90 37 49   Note On G2 73

517a4f0d 90 3b 67   Note On B2 103

517a4f0f 90 24 76   Note On C1 118
517a4f10 90 3e 69   Note On D3 105
517a51bd 90 37 00   Note On(0-Off) G2

517a51cf 90 3b 00   Note On(0-Off) B2
517a52be 90 24 00   Note On(0-Off) C1
517a533a 90 3e 00   Note On(0-Off) D3
517a53ee 90 40 60   Note On E3 96

517a53f2 90 37 62   Note On G2 98

517a5407 90 30 59   Note On C2 89
517a56af 90 37 00   Note On(0-Off) G2
517a56c5 90 40 00   Note On(0-Off) E3

517a5711 90 37 64   Note On G2 100
517a59d8 90 37 00   Note On(0-Off) G2
517a5a99 90 37 5b   Note On G2 91
517a5ad5 90 30 00   Note On(0-Off) C2
517a5be0 90 37 00   Note On(0-Off) G2
517a5c4e 90 2d 69   Note On A1 105

517a5c51 90 37 5e   Note On G2 94

517a5c54 90 3b 6e   Note On B2 110

517a5c56 90 3e 69   Note On D3 105
517a5f14 90 3b 00   Note On(0-Off) B2

517a5f19 90 3e 00   Note On(0-Off) D3

517a5f40 90 37 00   Note On(0-Off) G2

517a5f42 90 2d 00   Note On(0-Off) A1
517a6117 90 3a 4b   Note On Bb2 75

517a6119 90 3d 66   Note On C#3 102

517a611a 90 40 69   Note On E3 105

517a611f 90 37 5f   Note On G2 95

517a6120 90 2e 66   Note On Bb1 102
517a65a5 90 3d 00   Note On(0-Off) C#3
517a65ff 90 37 00   Note On(0-Off) G2

517a6601 90 40 00   Note On(0-Off) E3

517a6603 90 3a 00   Note On(0-Off) Bb2
517a6646 90 2e 00   Note On(0-Off) Bb1
517a673c 90 3e 34   Note On D3 52
517a6805 90 40 60   Note On E3 96
517a685d 90 3e 00   Note On(0-Off) D3
517a68ed 90 41 66   Note On F3 102

517a68f0 90 40 00   Note On(0-Off) E3

517a68f3 90 39 5e   Note On A2 94

517a68fc 90 32 64   Note On D2 100

517a68fe 90 26 66   Note On D1 102

517a68ff 90 2d 6d   Note On A1 109
517a6a2f 90 39 00   Note On(0-Off) A2
517a6a4d 90 41 00   Note On(0-Off) F3

517a6a75 90 41 1d   Note On F3 29

517a6a7f 90 39 38   Note On A2 56
517a6b3c 90 39 00   Note On(0-Off) A2

517a6b58 90 41 00   Note On(0-Off) F3
517a6c23 90 41 49   Note On F3 73

517a6c26 90 39 4b   Note On A2 75
517a6ca7 90 26 00   Note On(0-Off) D1

517a6ccc 90 2d 00   Note On(0-Off) A1

517a6ccf 90 32 00   Note On(0-Off) D2
517a6d39 90 39 00   Note On(0-Off) A2

517a6d4b 90 41 00   Note On(0-Off) F3
517a6de2 90 2b 60   Note On G1 96

517a6df5 90 39 67   Note On A2 103

517a6df7 90 41 64   Note On F3 100
517a7119 90 41 00   Note On(0-Off) F3
517a7136 90 40 59   Note On E3 89

517a7189 90 39 00   Note On(0-Off) A2
517a7191 90 40 00   Note On(0-Off) E3

517a7200 90 2b 00   Note On(0-Off) G1
517a7490 90 37 64   Note On G2 100

517a7493 90 34 64   Note On E2 100
517a7653 90 24 79   Note On C1 121

517a765d 90 30 4f   Note On C2 79
517a778d 90 34 00   Note On(0-Off) E2
517a77e6 90 34 3c   Note On E2 60
517a7818 90 37 00   Note On(0-Off) G2
517a796d 90 37 59   Note On G2 89
517a7a11 90 34 00   Note On(0-Off) E2

517a7a47 90 24 00   Note On(0-Off) C1
517a7ade 90 30 00   Note On(0-Off) C2
517a7b35 90 37 00   Note On(0-Off) G2
517a7c5e 90 39 5e   Note On A2 94

517a7c64 90 35 52   Note On F2 82

517a7c71 90 2b 67   Note On G1 103
517a7d55 90 35 00   Note On(0-Off) F2
517a7dad 90 39 00   Note On(0-Off) A2
517a7e1d 90 2b 00   Note On(0-Off) G1
517a7f80 90 3e 56   Note On D3 86

517a7f81 90 37 5b   Note On G2 91

517a7f81 90 3b 64   Note On B2 100
517a7f91 90 2b 66   Note On G1 102
517a80af 90 37 00   Note On(0-Off) G2
517a80e2 90 3e 00   Note On(0-Off) D3

517a80e4 90 3b 00   Note On(0-Off) B2

517a811c 90 2b 00   Note On(0-Off) G1
517a82d7 90 43 45   Note On G3 69

517a82db 90 37 56   Note On G2 86

517a82e3 90 24 76   Note On C1 118

517a82e5 90 30 52   Note On C2 82
517a8430 90 37 00   Note On(0-Off) G2
517a847e 90 37 05   Note On G2 5
517a8570 90 43 00   Note On(0-Off) G3

517a8579 90 37 00   Note On(0-Off) G2
517a8609 90 24 00   Note On(0-Off) C1

517a8609 90 43 0f   Note On G3 15

517a8609 90 37 13   Note On G2 19
517a8658 90 30 00   Note On(0-Off) C2
517a86cd 90 37 00   Note On(0-Off) G2

517a86dd 90 43 00   Note On(0-Off) G3
517a8792 90 43 3f   Note On G3 63

517a8794 90 37 3f   Note On G2 63

517a879a 90 30 5e   Note On C2 94
517a89c8 90 43 00   Note On(0-Off) G3
517a8a15 90 37 00   Note On(0-Off) G2
517a8aaf 90 41 60   Note On F3 96

517a8abc 90 37 3e   Note On G2 62
517a8bfa 90 41 00   Note On(0-Off) F3
517a8c59 90 30 00   Note On(0-Off) C2

517a8c5f 90 40 64   Note On E3 100
517a8d0c 90 37 00   Note On(0-Off) G2

517a8d1d 90 40 00   Note On(0-Off) E3
517a8deb 90 3e 64   Note On D3 100

517a8def 90 37 64   Note On G2 100

517a8df5 90 3b 6b   Note On B2 107
517a8e05 90 2d 67   Note On A1 103
517a905c 90 37 00   Note On(0-Off) G2
517a90e7 90 3e 00   Note On(0-Off) D3

517a9100 90 3b 00   Note On(0-Off) B2

517a9115 90 37 60   Note On G2 96
517a9195 90 2d 00   Note On(0-Off) A1
517a9220 90 37 00   Note On(0-Off) G2
517a92b8 90 3b 3a   Note On B2 58
517a9357 90 3e 5f   Note On D3 95
517a938f 90 3b 00   Note On(0-Off) B2
517a93e9 90 3e 00   Note On(0-Off) D3
517a944f 90 40 5f   Note On E3 95

517a945c 90 2e 60   Note On Bb1 96

517a945e 90 37 59   Note On G2 89

517a945f 90 3a 66   Note On Bb2 102

517a9467 90 3d 72   Note On C#3 114
517a9636 90 37 00   Note On(0-Off) G2
517a9649 90 40 00   Note On(0-Off) E3

517a9661 90 3d 00   Note On(0-Off) C#3

517a967d 90 3a 00   Note On(0-Off) Bb2

517a969e 90 2e 00   Note On(0-Off) Bb1
517a9769 90 37 56   Note On G2 86
517a989b 90 37 00   Note On(0-Off) G2
517a98ff 90 3a 56   Note On Bb2 86

517a9900 90 37 60   Note On G2 96
517a9901 90 3d 62   Note On C#3 98

517a9906 90 40 59   Note On E3 89
517a9989 90 37 00   Note On(0-Off) G2

517a99b6 90 3a 00   Note On(0-Off) Bb2

517a99c3 90 40 00   Note On(0-Off) E3
517a99f2 90 3d 00   Note On(0-Off) C#3
517a9aab 90 34 59   Note On E2 89

517a9ae3 90 31 59   Note On C#2 89
517a9b5f 90 34 00   Note On(0-Off) E2
517a9b79 90 2e 6b   Note On Bb1 107

517a9bb8 90 31 00   Note On(0-Off) C#2
517a9bfa 90 2e 00   Note On(0-Off) Bb1
517a9c5a 90 41 67   Note On F3 103

517a9c5d 90 39 67   Note On A2 103

517a9c66 90 26 6d   Note On D1 109
517a9d49 90 39 00   Note On(0-Off) A2
517a9d61 90 41 00   Note On(0-Off) F3
517a9dfd 90 39 45   Note On A2 69

517a9e01 90 41 52   Note On F3 82
517a9ebf 90 39 00   Note On(0-Off) A2

517a9ec5 90 41 00   Note On(0-Off) F3
517a9f95 90 41 3e   Note On F3 62

517a9f96 90 39 49   Note On A2 73
517aa022 90 26 00   Note On(0-Off) D1

517aa034 90 39 00   Note On(0-Off) A2

517aa03c 90 41 00   Note On(0-Off) F3
517aa142 90 41 67   Note On F3 103

517aa142 90 39 66   Note On A2 102
517aa14f 90 26 66   Note On D1 102
517aa44f 90 39 00   Note On(0-Off) A2

517aa478 90 41 00   Note On(0-Off) F3
517aa48f 90 39 3e   Note On A2 62

517aa49e 90 40 60   Note On E3 96

517aa4ac 90 26 00   Note On(0-Off) D1
517aa706 90 41 34   Note On F3 52
517aa740 90 40 00   Note On(0-Off) E3

517aa77a 90 39 00   Note On(0-Off) A2
517aa7a2 90 41 00   Note On(0-Off) F3
517aa9c0 90 43 64   Note On G3 100

517aa9c3 90 2b 67   Note On G1 103

517aa9c4 90 3b 6e   Note On B2 110

517aa9c5 90 3e 6b   Note On D3 107
517aab25 90 3b 00   Note On(0-Off) B2
517aab3d 90 32 4b   Note On D2 75

517aab61 90 3e 00   Note On(0-Off) D3

517aab63 90 43 00   Note On(0-Off) G3

517aab6e 90 2b 00   Note On(0-Off) G1
517aabd5 90 32 00   Note On(0-Off) D2
517aac03 90 37 5e   Note On G2 94
517aac86 90 37 00   Note On(0-Off) G2
517aacce 90 39 52   Note On A2 82
517aada9 90 3b 40   Note On B2 64

517aadd8 90 39 00   Note On(0-Off) A2
517aae55 90 3b 00   Note On(0-Off) B2
517aae5b 90 3e 67   Note On D3 103
517ab008 90 4f 69   Note On G4 105

517ab010 90 43 52   Note On G3 82
517ab1dd 90 3e 00   Note On(0-Off) D3
517ab2b6 90 43 00   Note On(0-Off) G3
517ab354 90 4f 00   Note On(0-Off) G4
517ab522 90 4c 25   Note On E4 37
517ab5fb 90 4d 70   Note On F4 112
517ab68f 90 4c 00   Note On(0-Off) E4
517ab6d7 90 4a 67   Note On D4 103

517ab6da 90 4d 00   Note On(0-Off) F4

517ab6db 90 4f 67   Note On G4 103

517ab6df 90 47 64   Note On B3 100

517ab6ec 90 24 7d   Note On C1 125
517ab7ba 90 47 00   Note On(0-Off) B3

517ab7cf 90 4a 00   Note On(0-Off) D4
517ab7f0 90 4f 00   Note On(0-Off) G4

517ab80c 90 2b 42   Note On G1 66
517ab86f 90 4a 3d   Note On D4 61

517ab870 90 4f 45   Note On G4 69

517ab872 90 47 3d   Note On B3 61

517ab87f 90 24 00   Note On(0-Off) C1
517ab8fd 90 47 00   Note On(0-Off) B3

517ab8ff 90 4a 00   Note On(0-Off) D4
517ab91a 90 4f 00   Note On(0-Off) G4

517ab969 90 2b 00   Note On(0-Off) G1
517ab9de 90 30 4f   Note On C2 79

517ab9fc 90 47 5f   Note On B3 95

517aba01 90 4f 60   Note On G4 96

517aba03 90 4a 62   Note On D4 98
517aba99 90 4a 00   Note On(0-Off) D4
517abaa1 90 30 00   Note On(0-Off) C2

517abaa4 90 47 00   Note On(0-Off) B3

517abab4 90 4f 00   Note On(0-Off) G4
517abb9e 90 32 52   Note On D2 82

517abba2 90 4f 67   Note On G4 103

517abba2 90 47 66   Note On B3 102

517abba4 90 4a 69   Note On D4 105
517abcb7 90 47 00   Note On(0-Off) B3

517abcd9 90 4a 00   Note On(0-Off) D4
517abd25 90 4f 00   Note On(0-Off) G4
517abd7f 90 4f 60   Note On G4 96

517abd82 90 45 69   Note On A3 105

517abd85 90 48 67   Note On C4 103

517abda3 90 34 6b   Note On E2 107
517abdf6 90 32 00   Note On(0-Off) D2
517abf21 90 37 5f   Note On G2 95

517abf22 90 4a 64   Note On D4 100

517abf23 90 39 66   Note On A2 102

517abf2a 90 34 00   Note On(0-Off) E2

517abf4f 90 48 00   Note On(0-Off) C4
517abfbb 90 39 00   Note On(0-Off) A2
517ac024 90 37 00   Note On(0-Off) G2
517ac027 90 4a 00   Note On(0-Off) D4
517ac0a4 90 4c 3d   Note On E4 61

517ac0b9 90 4f 00   Note On(0-Off) G4
517ac158 90 45 00   Note On(0-Off) A3

517ac176 90 4c 00   Note On(0-Off) E4
517ac249 90 4a 5e   Note On D4 94

517ac24b 90 47 5e   Note On B3 94

517ac254 90 2d 69   Note On A1 105

517ac256 90 41 49   Note On F3 73

517ac257 90 43 42   Note On G3 66
517ac2f4 90 41 00   Note On(0-Off) F3
517ac51a 90 2d 00   Note On(0-Off) A1

517ac525 90 43 00   Note On(0-Off) G3
517ac548 90 4a 00   Note On(0-Off) D4

517ac591 90 47 00   Note On(0-Off) B3

517ac592 90 43 56   Note On G3 86
517ac6d2 90 43 00   Note On(0-Off) G3
517ac71c 90 47 3e   Note On B3 62
517ac7b8 90 4a 49   Note On D4 73

517ac7d9 90 47 00   Note On(0-Off) B3
517ac83e 90 4a 00   Note On(0-Off) D4
517ac8a9 90 4c 5e   Note On E4 94

517ac8ad 90 43 40   Note On G3 64

517ac8af 90 46 5b   Note On Bb3 91

517ac8be 90 2e 6b   Note On Bb1 107

517ac8c4 90 49 01   Note On C#4 1
517aca61 90 43 00   Note On(0-Off) G3
517acaf8 90 4c 00   Note On(0-Off) E4
517acb84 90 2e 00   Note On(0-Off) Bb1
517acbbe 90 46 00   Note On(0-Off) Bb3

517acbcc 90 43 66   Note On G3 102
517accfb 90 43 00   Note On(0-Off) G3
517acd57 90 4c 72   Note On E4 114

517acd5a 90 46 64   Note On Bb3 100

517acd5b 90 43 64   Note On G3 100
517acdf7 90 43 00   Note On(0-Off) G3
517ace2f 90 4c 00   Note On(0-Off) E4
517ace8a 90 46 00   Note On(0-Off) Bb3
517acef0 90 34 67   Note On E2 103
517acf65 90 32 5e   Note On D2 94
517acf95 90 32 00   Note On(0-Off) D2
517ad005 90 2e 70   Note On Bb1 112

517ad012 90 31 6b   Note On C#2 107

517ad036 90 34 00   Note On(0-Off) E2

517ad04a 90 31 00   Note On(0-Off) C#2
517ad06c 90 2e 00   Note On(0-Off) Bb1
517ad0c5 90 45 64   Note On A3 100

517ad0c7 90 48 67   Note On C4 103

517ad0d1 90 4d 72   Note On F4 114

517ad0e5 90 26 72   Note On D1 114
517ad177 90 48 00   Note On(0-Off) C4

517ad178 90 45 00   Note On(0-Off) A3
517ad191 90 4d 00   Note On(0-Off) F4
517ad279 90 4d 56   Note On F4 86

517ad280 90 48 42   Note On C4 66

517ad284 90 45 3a   Note On A3 58
517ad2fd 90 48 00   Note On(0-Off) C4

517ad2fe 90 45 00   Note On(0-Off) A3

517ad311 90 4d 00   Note On(0-Off) F4
517ad3d1 90 26 00   Note On(0-Off) D1
517ad3fd 90 45 3e   Note On A3 62

517ad3fd 90 4d 49   Note On F4 73

517ad3ff 90 48 40   Note On C4 64
517ad472 90 48 00   Note On(0-Off) C4

517ad473 90 45 00   Note On(0-Off) A3

517ad47b 90 4d 00   Note On(0-Off) F4
517ad594 90 32 6b   Note On D2 107

517ad59c 90 48 6b   Note On C4 107

517ad59e 90 45 67   Note On A3 103

517ad59f 90 4d 72   Note On F4 114
517ad8a1 90 45 00   Note On(0-Off) A3
517ad8c5 90 4d 00   Note On(0-Off) F4

517ad8ca 90 48 00   Note On(0-Off) C4
517ad91d 90 4c 6d   Note On E4 109

517ad921 90 45 5f   Note On A3 95

517ad927 90 48 5e   Note On C4 94
517ada3e 90 32 00   Note On(0-Off) D2
517adb4f 90 45 00   Note On(0-Off) A3

517adb5e 90 48 00   Note On(0-Off) C4

517adb62 90 4c 00   Note On(0-Off) E4
517adbaa 90 45 67   Note On A3 103

517adbab 90 4d 6e   Note On F4 110

517adbae 90 48 64   Note On C4 100

517adbaf 90 32 67   Note On D2 103
517adc8b 90 48 00   Note On(0-Off) C4
517adcba 90 45 00   Note On(0-Off) A3

517adcc9 90 32 00   Note On(0-Off) D2
517add31 90 4d 00   Note On(0-Off) F4
517ade78 90 4f 66   Note On G4 102

517ade7d 90 47 6b   Note On B3 107

517ade7e 90 43 4d   Note On G3 77

517ade80 90 4a 69   Note On D4 105

517ade85 90 49 00   Note On(0-Off) C#4

517ade8d 90 2b 69   Note On G1 105
517adf66 90 32 5b   Note On D2 91
517adfa3 90 2b 00   Note On(0-Off) G1
517adfe4 90 4a 00   Note On(0-Off) D4

517adfe7 90 47 00   Note On(0-Off) B3

517adfeb 90 32 00   Note On(0-Off) D2

517adff1 90 43 00   Note On(0-Off) G3

517ae01c 90 4f 00   Note On(0-Off) G4

517ae01d 90 37 59   Note On G2 89
517ae096 90 37 00   Note On(0-Off) G2
517ae0f2 90 39 5b   Note On A2 91
517ae1ad 90 3b 5e   Note On B2 94
517ae1ed 90 39 00   Note On(0-Off) A2
517ae26b 90 3e 6d   Note On D3 109

517ae27b 90 3b 00   Note On(0-Off) B2
517ae33a 90 4a 56   Note On D4 86
517ae410 90 3e 00   Note On(0-Off) D3
517ae4a3 90 4a 00   Note On(0-Off) D4
517ae51f 90 3e 64   Note On D3 100

517ae51f 90 4a 3e   Note On D4 62

517ae520 90 53 62   Note On B4 98

517ae520 90 4f 67   Note On G4 103
517ae74a 90 3e 00   Note On(0-Off) D3
517ae7eb 90 53 00   Note On(0-Off) B4

517ae7eb 90 4a 00   Note On(0-Off) D4

517ae802 90 4f 00   Note On(0-Off) G4
517ae876 90 4f 6b   Note On G4 107

517ae879 90 4a 62   Note On D4 98
517aeb4a 90 4a 00   Note On(0-Off) D4

517aeb63 90 4f 00   Note On(0-Off) G4
517aeb9f 90 28 69   Note On E1 105

517aeba4 90 4a 5f   Note On D4 95

517aeba9 90 4f 67   Note On G4 103

517aebaa 90 53 6d   Note On B4 109
517aecc1 90 4a 00   Note On(0-Off) D4

517aecdf 90 53 00   Note On(0-Off) B4

517aece0 90 2f 4f   Note On B1 79

517aecf9 90 4f 00   Note On(0-Off) G4
517aed23 90 28 00   Note On(0-Off) E1

517aed32 90 4f 3f   Note On G4 63

517aed38 90 53 4b   Note On B4 75

517aed3c 90 4a 3c   Note On D4 60
517aedd9 90 4a 00   Note On(0-Off) D4

517aede3 90 4f 00   Note On(0-Off) G4

517aedf6 90 53 00   Note On(0-Off) B4

517aee17 90 2f 00   Note On(0-Off) B1
517aee91 90 34 4d   Note On E2 77
517aeebb 90 4f 69   Note On G4 105

517aeebf 90 53 6b   Note On B4 107

517aeec4 90 4a 5e   Note On D4 94
517aef91 90 34 00   Note On(0-Off) E2

517aefb7 90 4a 00   Note On(0-Off) D4

517aefc1 90 53 00   Note On(0-Off) B4

517aefc2 90 4f 00   Note On(0-Off) G4
517af04d 90 36 5e   Note On F#2 94

517af065 90 4f 70   Note On G4 112

517af067 90 53 6e   Note On B4 110

517af069 90 4a 67   Note On D4 103
517af252 90 37 66   Note On G2 102

517af275 90 36 00   Note On(0-Off) F#2
517af3c1 90 3b 67   Note On B2 103
517af3e7 90 37 00   Note On(0-Off) G2

517af41b 90 53 00   Note On(0-Off) B4
517af4eb 90 4a 00   Note On(0-Off) D4
517af529 90 4f 00   Note On(0-Off) G4

517af538 90 3b 00   Note On(0-Off) B2
517b637f 90 37 4d   Note On G2 77

517b6383 90 3b 66   Note On B2 102

517b6384 90 24 6b   Note On C1 107

517b6388 90 3e 60   Note On D3 96
517b6763 90 3b 00   Note On(0-Off) B2

517b678f 90 37 00   Note On(0-Off) G2
517b67bb 90 3e 00   Note On(0-Off) D3
517b68b1 90 40 3e   Note On E3 62

517b68b8 90 37 40   Note On G2 64
517b6957 90 24 00   Note On(0-Off) C1
517b6bba 90 40 00   Note On(0-Off) E3
517b6e9b 90 37 00   Note On(0-Off) G2
517b6f82 90 37 64   Note On G2 100
517b70cf 90 37 00   Note On(0-Off) G2
517b714d 90 37 47   Note On G2 71

517b7154 90 3b 69   Note On B2 105

517b7155 90 3e 6b   Note On D3 107

517b715c 90 2d 49   Note On A1 73
517b746b 90 3b 00   Note On(0-Off) B2
517b748b 90 37 00   Note On(0-Off) G2

517b74c6 90 2d 00   Note On(0-Off) A1
517b7573 90 3e 00   Note On(0-Off) D3
517b75da 90 37 3e   Note On G2 62

517b75f0 90 3a 33   Note On Bb2 51
517b7659 90 40 44   Note On E3 68
517b767b 90 2e 40   Note On Bb1 64

517b7698 90 3d 62   Note On C#3 98
517b7806 90 37 00   Note On(0-Off) G2
517b7934 90 2e 00   Note On(0-Off) Bb1
517b7989 90 40 00   Note On(0-Off) E3
517b79f7 90 3a 00   Note On(0-Off) Bb2

517b79fc 90 3d 00   Note On(0-Off) C#3
517b7a0c 90 37 5b   Note On G2 91
517b7b47 90 37 00   Note On(0-Off) G2
517b7bc6 90 3d 6b   Note On C#3 107

517b7bc7 90 37 59   Note On G2 89

517b7bc7 90 3a 5e   Note On Bb2 94

517b7bc7 90 40 56   Note On E3 86
517b7c33 90 37 00   Note On(0-Off) G2

517b7c52 90 40 00   Note On(0-Off) E3
517b7c72 90 3a 00   Note On(0-Off) Bb2

517b7c8d 90 3d 00   Note On(0-Off) C#3
517b7d5e 90 34 3f   Note On E2 63

517b7d8e 90 31 60   Note On C#2 96
517b7dea 90 34 00   Note On(0-Off) E2
517b7e08 90 2e 72   Note On Bb1 114

517b7e44 90 31 00   Note On(0-Off) C#2
517b7e8f 90 2e 00   Note On(0-Off) Bb1
517b7f0b 90 26 67   Note On D1 103
517b7f48 90 39 52   Note On A2 82

517b7f4c 90 41 3d   Note On F3 61
517b7fe1 90 39 00   Note On(0-Off) A2
517b7fff 90 41 00   Note On(0-Off) F3
517b80d8 90 41 3d   Note On F3 61

517b80e0 90 39 3e   Note On A2 62
517b8176 90 39 00   Note On(0-Off) A2

517b818a 90 41 00   Note On(0-Off) F3
517b828d 90 41 3e   Note On F3 62

517b8290 90 39 4d   Note On A2 77
517b832d 90 39 00   Note On(0-Off) A2

517b834c 90 41 00   Note On(0-Off) F3

517b838b 90 26 00   Note On(0-Off) D1
517b8467 90 41 64   Note On F3 100

517b8469 90 39 64   Note On A2 100

517b8469 90 2b 6b   Note On G1 107
517b87d0 90 40 4d   Note On E3 77

517b87d7 90 41 00   Note On(0-Off) F3
517b880f 90 39 00   Note On(0-Off) A2

517b8818 90 40 00   Note On(0-Off) E3
517b885e 90 2b 00   Note On(0-Off) G1
517b8aee 90 37 47   Note On G2 71

517b8af0 90 34 3e   Note On E2 62
517b8c9e 90 24 66   Note On C1 102

517b8ca2 90 30 3f   Note On C2 63
517b8da9 90 34 00   Note On(0-Off) E2
517b8e36 90 34 5b   Note On E2 91
517b8e4c 90 37 00   Note On(0-Off) G2
517b8f94 90 34 00   Note On(0-Off) E2
517b8fe1 90 34 6b   Note On E2 107

517b8fe6 90 37 72   Note On G2 114
517b9110 90 24 00   Note On(0-Off) C1

517b9134 90 34 00   Note On(0-Off) E2

517b9135 90 37 00   Note On(0-Off) G2
517b9184 90 37 67   Note On G2 103

517b918a 90 34 62   Note On E2 98

517b91af 90 30 00   Note On(0-Off) C2
517b9205 90 34 00   Note On(0-Off) E2

517b922a 90 37 00   Note On(0-Off) G2
517b9334 90 2b 49   Note On G1 73

517b9337 90 39 5b   Note On A2 91

517b9339 90 35 59   Note On F2 89
517b9406 90 35 00   Note On(0-Off) F2
517b9429 90 39 00   Note On(0-Off) A2
517b9686 90 3e 3f   Note On D3 63

517b968a 90 3b 49   Note On B2 73

517b968d 90 37 3e   Note On G2 62
517b9734 90 2b 00   Note On(0-Off) G1

517b9737 90 37 00   Note On(0-Off) G2

517b973c 90 3b 00   Note On(0-Off) B2

517b974c 90 3e 00   Note On(0-Off) D3
517b99a7 90 43 40   Note On G3 64
517b99ad 90 37 3d   Note On G2 61

517b99bf 90 30 2c   Note On C2 44

517b99c8 90 24 67   Note On C1 103
517b9aa6 90 37 00   Note On(0-Off) G2

517b9ad0 90 43 00   Note On(0-Off) G3
517b9b5a 90 43 18   Note On G3 24

517b9b5b 90 37 2b   Note On G2 43
517b9c11 90 24 00   Note On(0-Off) C1

517b9c1e 90 37 00   Note On(0-Off) G2

517b9c29 90 43 00   Note On(0-Off) G3

517b9c6e 90 30 00   Note On(0-Off) C2
517b9ce7 90 37 23   Note On G2 35

517b9cea 90 43 25   Note On G3 37
517b9da7 90 37 00   Note On(0-Off) G2

517b9dab 90 43 00   Note On(0-Off) G3
517b9ea4 90 43 42   Note On G3 66

517b9ea5 90 37 49   Note On G2 73

517b9ead 90 30 3a   Note On C2 58
517ba0ce 90 43 00   Note On(0-Off) G3

517ba100 90 37 00   Note On(0-Off) G2
517ba1bb 90 30 00   Note On(0-Off) C2

517ba1c3 90 41 3e   Note On F3 62

517ba1d5 90 37 25   Note On G2 37
517ba2dd 90 41 00   Note On(0-Off) F3
517ba381 90 40 42   Note On E3 66
517ba419 90 37 00   Note On(0-Off) G2

517ba425 90 40 00   Note On(0-Off) E3
517ba51d 90 3e 5b   Note On D3 91

517ba522 90 37 47   Note On G2 71

517ba522 90 3b 66   Note On B2 102
517ba526 90 2d 33   Note On A1 51
517ba78c 90 37 00   Note On(0-Off) G2
517ba816 90 3e 00   Note On(0-Off) D3

517ba818 90 37 40   Note On G2 64

517ba838 90 3b 00   Note On(0-Off) B2
517ba8aa 90 2d 00   Note On(0-Off) A1
517ba9ab 90 3b 4b   Note On B2 75
517baa96 90 3e 3e   Note On D3 62

517baabb 90 3b 00   Note On(0-Off) B2
517baad1 90 37 00   Note On(0-Off) G2

517baaf6 90 3e 00   Note On(0-Off) D3
517bab74 90 2e 3f   Note On Bb1 63

517bab80 90 3a 40   Note On Bb2 64

517bab84 90 40 4f   Note On E3 79

517bab85 90 3d 64   Note On C#3 100

517bab8a 90 37 2c   Note On G2 44
517bad39 90 37 00   Note On(0-Off) G2
517bae08 90 40 00   Note On(0-Off) E3
517baea3 90 3d 00   Note On(0-Off) C#3

517baea8 90 3a 00   Note On(0-Off) Bb2

517baeb7 90 37 3e   Note On G2 62
517baee2 90 2e 00   Note On(0-Off) Bb1
517bafed 90 37 00   Note On(0-Off) G2
517bb036 90 37 3f   Note On G2 63

517bb039 90 3a 49   Note On Bb2 73

517bb03b 90 3d 5f   Note On C#3 95

517bb03d 90 40 5e   Note On E3 94
517bb0c0 90 37 00   Note On(0-Off) G2
517bb0df 90 40 00   Note On(0-Off) E3

517bb0f0 90 3d 00   Note On(0-Off) C#3

517bb0fe 90 3a 00   Note On(0-Off) Bb2
517bb1e5 90 34 33   Note On E2 51
517bb239 90 31 3d   Note On C#2 61
517bb2b9 90 2e 6d   Note On Bb1 109
517bb2bd 90 34 00   Note On(0-Off) E2

517bb304 90 31 00   Note On(0-Off) C#2
517bb34d 90 2e 00   Note On(0-Off) Bb1
517bb3be 90 41 5b   Note On F3 91

517bb3c1 90 26 49   Note On D1 73

517bb3cf 90 39 4b   Note On A2 75
517bb46c 90 41 00   Note On(0-Off) F3

517bb470 90 39 00   Note On(0-Off) A2
517bb572 90 41 25   Note On F3 37

517bb573 90 39 2f   Note On A2 47
517bb61d 90 41 00   Note On(0-Off) F3

517bb61e 90 39 00   Note On(0-Off) A2
517bb709 90 41 2f   Note On F3 47

517bb70f 90 39 3d   Note On A2 61
517bb79a 90 39 00   Note On(0-Off) A2

517bb79b 90 41 00   Note On(0-Off) F3
517bb7e6 90 26 00   Note On(0-Off) D1
517bb898 90 32 5b   Note On D2 91

517bb8a6 90 41 42   Note On F3 66

517bb8a7 90 39 5b   Note On A2 91
517bbbb0 90 41 00   Note On(0-Off) F3

517bbbcf 90 40 3d   Note On E3 61
517bbc4d 90 32 00   Note On(0-Off) D2
517bbd3d 90 39 00   Note On(0-Off) A2
517bbe4f 90 41 5e   Note On F3 94
517bbe93 90 40 00   Note On(0-Off) E3
517bbf5e 90 41 00   Note On(0-Off) F3
517bc04f 90 3b 3c   Note On B2 60

517bc07c 90 3e 21   Note On D3 33
517bc0b7 90 2b 3f   Note On G1 63

517bc0e3 90 43 52   Note On G3 82
517bc1c5 90 3b 00   Note On(0-Off) B2
517bc1ff 90 3e 00   Note On(0-Off) D3

517bc225 90 32 14   Note On D2 20
517bc25a 90 2b 00   Note On(0-Off) G1

517bc28c 90 43 00   Note On(0-Off) G3
517bc2b1 90 32 00   Note On(0-Off) D2

517bc2d8 90 37 5e   Note On G2 94
517bc35b 90 37 00   Note On(0-Off) G2
517bc39f 90 39 64   Note On A2 100
517bc44e 90 3b 5b   Note On B2 91

517bc49f 90 39 00   Note On(0-Off) A2
517bc50e 90 3e 56   Note On D3 86
517bc523 90 3b 00   Note On(0-Off) B2
517bc69d 90 4a 64   Note On D4 100
517bc6ac 90 47 5f   Note On B3 95
517bc7a2 90 3e 00   Note On(0-Off) D3
517bc97a 90 3e 3e   Note On D3 62

517bc9a3 90 4f 67   Note On G4 103
517bca5e 90 3e 00   Note On(0-Off) D3
517bcb31 90 4f 00   Note On(0-Off) G4

517bcb3d 90 4d 70   Note On F4 112
517bcbb3 90 47 00   Note On(0-Off) B3

517bcbc3 90 4a 00   Note On(0-Off) D4
517bccc6 90 4d 00   Note On(0-Off) F4

517bcce1 90 47 3e   Note On B3 62
517bccfa 90 2b 3f   Note On G1 63

517bcd1a 90 30 66   Note On C2 102

517bcd23 90 4f 40   Note On G4 64
517bcd6b 90 2b 00   Note On(0-Off) G1

517bcda6 90 24 6e   Note On C1 110
517bce6b 90 47 00   Note On(0-Off) B3
517bced3 90 47 3e   Note On B3 62
517bcf48 90 47 00   Note On(0-Off) B3
517bcf5f 90 4f 00   Note On(0-Off) G4

517bcfe5 90 24 00   Note On(0-Off) C1

517bcfe5 90 30 00   Note On(0-Off) C2
517bd052 90 4f 52   Note On G4 82

517bd065 90 47 3d   Note On B3 61
517bd0e2 90 47 00   Note On(0-Off) B3

517bd0e2 90 4f 00   Note On(0-Off) G4
517bd228 90 4f 67   Note On G4 103

517bd228 90 45 67   Note On A3 103

517bd228 90 2f 67   Note On B1 103
517bd3ed 90 45 00   Note On(0-Off) A3

517bd416 90 4f 00   Note On(0-Off) G4
517bd49d 90 2f 00   Note On(0-Off) B1
517bd69b 90 24 7b   Note On C1 123

517bd6a6 90 4f 6b   Note On G4 107
517bd6ad 90 45 69   Note On A3 105
517bd794 90 45 00   Note On(0-Off) A3

517bd795 90 4f 00   Note On(0-Off) G4
517bd85e 90 4f 52   Note On G4 82

517bd860 90 45 3c   Note On A3 60

517bd87f 90 24 00   Note On(0-Off) C1
517bd8f7 90 45 00   Note On(0-Off) A3

517bd91c 90 4f 00   Note On(0-Off) G4
517bda0b 90 4f 40   Note On G4 64

517bda17 90 45 25   Note On A3 37
517bda5e 90 45 00   Note On(0-Off) A3

517bda76 90 4f 00   Note On(0-Off) G4
517bdcd8 90 24 6b   Note On C1 107

517bdce2 90 4f 6b   Note On G4 107

517bdce5 90 47 64   Note On B3 100

517bdce9 90 30 3c   Note On C2 60
517bdd77 90 47 00   Note On(0-Off) B3

517bdd8f 90 4f 00   Note On(0-Off) G4
517bde48 90 24 00   Note On(0-Off) C1

517bde7c 90 30 00   Note On(0-Off) C2

517bde8d 90 4f 3e   Note On G4 62

517bdea0 90 47 20   Note On B3 32
517bdf15 90 4f 00   Note On(0-Off) G4

517bdf1a 90 47 00   Note On(0-Off) B3
517be008 90 30 47   Note On C2 71

517be011 90 45 67   Note On A3 103

517be017 90 4f 5f   Note On G4 95
517be07c 90 45 00   Note On(0-Off) A3
517be0a6 90 4f 00   Note On(0-Off) G4

517be0b9 90 30 00   Note On(0-Off) C2
517be1c9 90 43 67   Note On G3 103
517be1cc 90 4f 52   Note On G4 82

517be1cd 90 30 64   Note On C2 100
517be3cd 90 4f 00   Note On(0-Off) G4

517be3d4 90 43 00   Note On(0-Off) G3

517be41b 90 30 00   Note On(0-Off) C2
517be50b 90 4d 44   Note On F4 68
517be6e1 90 4c 66   Note On E4 102

517be6e6 90 4d 00   Note On(0-Off) F4
517be792 90 4c 00   Note On(0-Off) E4
517be882 90 2d 5f   Note On A1 95
517be891 90 4a 64   Note On D4 100

517be896 90 43 5e   Note On G3 94

517be898 90 47 64   Note On B3 100
517beb30 90 4a 00   Note On(0-Off) D4

517beb38 90 43 00   Note On(0-Off) G3
517beb58 90 2d 00   Note On(0-Off) A1

517beb6e 90 47 00   Note On(0-Off) B3
517bebb4 90 43 4d   Note On G3 77
517bed02 90 43 00   Note On(0-Off) G3

517bed13 90 47 47   Note On B3 71
517bedba 90 4a 59   Note On D4 89

517beddd 90 47 00   Note On(0-Off) B3
517bee3f 90 4a 00   Note On(0-Off) D4
517beeb0 90 4c 59   Note On E4 89

517beeb9 90 2e 69   Note On Bb1 105

517beebd 90 49 01   Note On C#4 1

517beebe 90 46 5e   Note On Bb3 94

517beec4 90 43 3d   Note On G3 61
517bf000 90 43 00   Note On(0-Off) G3
517bf10f 90 4c 00   Note On(0-Off) E4
517bf1dc 90 46 00   Note On(0-Off) Bb3

517bf1e0 90 43 64   Note On G3 100
517bf237 90 2e 00   Note On(0-Off) Bb1
517bf30e 90 43 00   Note On(0-Off) G3
517bf35c 90 46 5b   Note On Bb3 91

517bf360 90 43 3d   Note On G3 61

517bf362 90 4c 6e   Note On E4 110
517bf3db 90 43 00   Note On(0-Off) G3
517bf409 90 4c 00   Note On(0-Off) E4
517bf470 90 46 00   Note On(0-Off) Bb3
517bf525 90 34 42   Note On E2 66
517bf578 90 31 40   Note On C#2 64
517bf5e0 90 34 00   Note On(0-Off) E2

517bf5ed 90 2e 76   Note On Bb1 118
517bf630 90 31 00   Note On(0-Off) C#2
517bf67a 90 2e 00   Note On(0-Off) Bb1

517bf6a7 90 48 49   Note On C4 73

517bf6ac 90 4d 6b   Note On F4 107

517bf6af 90 45 3e   Note On A3 62
517bf6d3 90 26 67   Note On D1 103
517bf74f 90 45 00   Note On(0-Off) A3

517bf752 90 4d 00   Note On(0-Off) F4

517bf753 90 48 00   Note On(0-Off) C4
517bf840 90 4d 25   Note On F4 37

517bf847 90 45 28   Note On A3 40

517bf84c 90 48 33   Note On C4 51
517bf8d5 90 48 00   Note On(0-Off) C4

517bf8f9 90 45 00   Note On(0-Off) A3

517bf8f9 90 4d 00   Note On(0-Off) F4
517bf9f2 90 45 33   Note On A3 51
517bf9fc 90 4d 44   Note On F4 68

517bf9fe 90 48 3c   Note On C4 60

517bfa25 90 26 00   Note On(0-Off) D1
517bfa63 90 48 00   Note On(0-Off) C4

517bfa68 90 45 00   Note On(0-Off) A3

517bfa6d 90 4d 00   Note On(0-Off) F4
517bfba4 90 48 66   Note On C4 102

517bfba5 90 4d 72   Note On F4 114

517bfba6 90 45 67   Note On A3 103

517bfbb5 90 32 72   Note On D2 114
517bfed5 90 4d 00   Note On(0-Off) F4

517bfed8 90 4c 6d   Note On E4 109
517c001f 90 32 00   Note On(0-Off) D2
517c0166 90 4c 00   Note On(0-Off) E4

517c0167 90 4d 67   Note On F4 103
517c018e 90 48 00   Note On(0-Off) C4

517c01a0 90 45 00   Note On(0-Off) A3
517c0259 90 4d 00   Note On(0-Off) F4
517c02fa 90 43 21   Note On G3 33
517c03a6 90 47 04   Note On B3 4

517c03b7 90 4a 40   Note On D4 64

517c03bc 90 2b 45   Note On G1 69
517c0423 90 4f 5f   Note On G4 95
517c04ba 90 32 5e   Note On D2 94

517c04de 90 43 00   Note On(0-Off) G3

517c04e8 90 2b 00   Note On(0-Off) G1
517c051e 90 4a 00   Note On(0-Off) D4

517c0526 90 47 00   Note On(0-Off) B3

517c052e 90 4f 00   Note On(0-Off) G4

517c0551 90 32 00   Note On(0-Off) D2
517c0592 90 37 3c   Note On G2 60
517c05fd 90 37 00   Note On(0-Off) G2
517c064c 90 39 56   Note On A2 86
517c0721 90 3b 40   Note On B2 64

517c075d 90 39 00   Note On(0-Off) A2
517c07bc 90 3e 66   Note On D3 102

517c07c2 90 3b 00   Note On(0-Off) B2
517c0894 90 3e 00   Note On(0-Off) D3

517c08ea 90 4a 3c   Note On D4 60
517c0a59 90 43 3f   Note On G3 63

517c0a65 90 53 6b   Note On B4 107
517c0d37 90 43 00   Note On(0-Off) G3
517c0dc2 90 53 00   Note On(0-Off) B4

517c0df9 90 4f 3a   Note On G4 58
517c1038 90 2f 12   Note On B1 18

517c103d 90 4a 00   Note On(0-Off) D4
517c1081 90 4f 00   Note On(0-Off) G4

517c1090 90 34 64   Note On E2 100
517c10f7 90 4a 3d   Note On D4 61
517c1143 90 4f 4f   Note On G4 79

517c1155 90 53 5b   Note On B4 91

517c1162 90 28 64   Note On E1 100
517c1292 90 4a 00   Note On(0-Off) D4

517c12ae 90 53 00   Note On(0-Off) B4

517c12b9 90 4f 00   Note On(0-Off) G4
517c131e 90 2f 00   Note On(0-Off) B1
517c133a 90 28 00   Note On(0-Off) E1

517c134a 90 34 00   Note On(0-Off) E2
517c15de 90 53 67   Note On B4 103

517c15df 90 4f 69   Note On G4 105

517c15e3 90 4a 60   Note On D4 96

517c15e5 90 34 69   Note On E2 105
517c18db 90 53 00   Note On(0-Off) B4
517c19bc 90 4a 00   Note On(0-Off) D4

517c19e6 90 4f 00   Note On(0-Off) G4
517c1a01 90 34 00   Note On(0-Off) E2
517c1cc3 90 53 6b   Note On B4 107

517c1cc4 90 4f 6b   Note On G4 107

517c1cc4 90 4a 56   Note On D4 86
517c1e5f 90 2d 67   Note On A1 103
517c1f19 90 34 2c   Note On E2 44

517c1f2b 90 4a 00   Note On(0-Off) D4
517c1f3e 90 4f 00   Note On(0-Off) G4

517c1f43 90 2d 00   Note On(0-Off) A1

517c1f54 90 53 00   Note On(0-Off) B4

517c1f8a 90 34 00   Note On(0-Off) E2
517c1fc5 90 39 21   Note On A2 33
517c2031 90 39 00   Note On(0-Off) A2
517c20a6 90 3b 42   Note On B2 66
517c2192 90 3b 00   Note On(0-Off) B2
517c2278 90 40 42   Note On E3 66
517c2333 90 54 21   Note On C5 33

517c2339 90 4c 40   Note On E4 64

517c233a 90 51 45   Note On A4 69
517c23ad 90 40 00   Note On(0-Off) E3
517c2633 90 4c 00   Note On(0-Off) E4
517c2691 90 54 00   Note On(0-Off) C5

517c26c3 90 51 00   Note On(0-Off) A4
517c26ea 90 4c 62   Note On E4 98
517c285e 90 54 62   Note On C5 98
517c2993 90 4c 00   Note On(0-Off) E4
517c29ef 90 54 00   Note On(0-Off) C5
517c2a23 90 30 05   Note On C2 5
517c2a6f 90 35 27   Note On F2 39
517c2b22 90 4d 3e   Note On F4 62
517c2b6d 90 29 4b   Note On F1 75

517c2b93 90 54 4b   Note On C5 75

517c2b95 90 4f 3c   Note On G4 60
517c2ba4 90 51 56   Note On A4 86
517c2ce5 90 30 00   Note On(0-Off) C2

517c2d21 90 35 00   Note On(0-Off) F2
517c2d5b 90 29 00   Note On(0-Off) F1

517c2d5f 90 30 52   Note On C2 82

517c2d8f 90 4d 00   Note On(0-Off) F4
517c2e9b 90 4f 00   Note On(0-Off) G4
517c2edd 90 30 00   Note On(0-Off) C2

517c2ee2 90 35 5b   Note On F2 91

517c2ee5 90 54 00   Note On(0-Off) C5

517c2eff 90 51 00   Note On(0-Off) A4
517c2fbd 90 35 00   Note On(0-Off) F2
517c3054 90 37 3e   Note On G2 62
517c320a 90 39 3e   Note On A2 62
517c3268 90 37 00   Note On(0-Off) G2
517c339d 90 53 67   Note On B4 103

517c33c0 90 39 00   Note On(0-Off) A2
517c3557 90 51 6b   Note On A4 107

517c356d 90 53 00   Note On(0-Off) B4
517c36c3 90 4a 13   Note On D4 19

517c36ce 90 51 00   Note On(0-Off) A4
517c3724 90 4f 52   Note On G4 82
517c3859 90 2b 4f   Note On G1 79
517c399a 90 32 3e   Note On D2 62

517c39b2 90 4f 00   Note On(0-Off) G4
517c39ef 90 2b 00   Note On(0-Off) G1

517c39f2 90 4a 00   Note On(0-Off) D4

517c3a17 90 4d 69   Note On F4 105
517c3add 90 4d 00   Note On(0-Off) F4
517c3b7a 90 4c 40   Note On E4 64
517c3c12 90 32 00   Note On(0-Off) D2

517c3c13 90 4c 00   Note On(0-Off) E4
517c3d07 90 47 5f   Note On B3 95

517c3d11 90 4a 40   Note On D4 64

517c3d13 90 37 3a   Note On G2 58
517c3e9e 90 37 00   Note On(0-Off) G2
517c4094 90 4a 00   Note On(0-Off) D4

517c40a6 90 47 00   Note On(0-Off) B3
517c439e 90 40 1a   Note On E3 26
517c4460 90 41 4f   Note On F3 79
517c44be 90 40 00   Note On(0-Off) E3
517c4576 90 43 60   Note On G3 96

517c4576 90 41 00   Note On(0-Off) F3

517c4577 90 24 70   Note On C1 112
517c464f 90 43 00   Note On(0-Off) G3
517c46ec 90 24 00   Note On(0-Off) C1

517c46f1 90 43 19   Note On G3 25

517c4708 90 30 20   Note On C2 32
517c47c0 90 43 00   Note On(0-Off) G3

517c47e8 90 30 00   Note On(0-Off) C2
517c4892 90 43 3e   Note On G3 62

517c48a1 90 32 42   Note On D2 66
517c49d2 90 43 00   Note On(0-Off) G3
517c4a24 90 43 47   Note On G3 71

517c4a33 90 34 6b   Note On E2 107

517c4a4f 90 32 00   Note On(0-Off) D2
517c4bc2 90 37 62   Note On G2 98

517c4bcc 90 34 00   Note On(0-Off) E2
517c4d40 90 43 00   Note On(0-Off) G3

517c4d45 90 41 52   Note On F3 82
517c4edc 90 40 45   Note On E3 69

517c4f0a 90 41 00   Note On(0-Off) F3
517c4f35 90 37 00   Note On(0-Off) G2

517c4f3c 90 40 00   Note On(0-Off) E3
517c506b 90 3e 4f   Note On D3 79

517c506c 90 3b 64   Note On B2 100

517c5072 90 37 45   Note On G2 69

517c5098 90 2d 60   Note On A1 96
517c5217 90 34 56   Note On E2 86
517c525f 90 2d 00   Note On(0-Off) A1
517c52c8 90 37 00   Note On(0-Off) G2

517c52cc 90 3b 00   Note On(0-Off) B2

517c52d9 90 3e 00   Note On(0-Off) D3
517c53d2 90 37 3f   Note On G2 63
517c53f0 90 34 00   Note On(0-Off) E2
517c5551 90 3b 44   Note On B2 68
517c5620 90 37 00   Note On(0-Off) G2
517c5649 90 3b 00   Note On(0-Off) B2
517c56c9 90 2e 62   Note On Bb1 98

517c56d0 90 40 47   Note On E3 71

517c56d7 90 3d 60   Note On C#3 96

517c56d7 90 37 3f   Note On G2 63

517c56eb 90 3a 45   Note On Bb2 69
517c5873 90 37 00   Note On(0-Off) G2
517c58bf 90 40 00   Note On(0-Off) E3

517c58d7 90 2e 00   Note On(0-Off) Bb1
517c59bc 90 3d 00   Note On(0-Off) C#3
517c59e0 90 3a 00   Note On(0-Off) Bb2

517c59f0 90 37 40   Note On G2 64
517c5b8c 90 40 56   Note On E3 86

517c5b8e 90 3a 3f   Note On Bb2 63

517c5b93 90 3d 5f   Note On C#3 95
517c5c20 90 37 00   Note On(0-Off) G2
517c5c5f 90 40 00   Note On(0-Off) E3

517c5cb2 90 3a 00   Note On(0-Off) Bb2
517c5cb5 90 3d 00   Note On(0-Off) C#3
517c5d3f 90 34 28   Note On E2 40

517c5d5e 90 31 3c   Note On C#2 60
517c5df2 90 2e 4f   Note On Bb1 79

517c5dfa 90 34 00   Note On(0-Off) E2

517c5e26 90 31 00   Note On(0-Off) C#2
517c5e61 90 2e 00   Note On(0-Off) Bb1
517c5ed2 90 28 52   Note On E1 82

517c5ee2 90 41 2b   Note On F3 43

517c5eec 90 39 3d   Note On A2 61
517c5f7e 90 39 00   Note On(0-Off) A2

517c5f94 90 41 00   Note On(0-Off) F3

517c5fb9 90 28 00   Note On(0-Off) E1
517c605c 90 41 59   Note On F3 89

517c6067 90 39 4b   Note On A2 75
517c60f0 90 39 00   Note On(0-Off) A2

517c60f1 90 41 00   Note On(0-Off) F3
517c61f4 90 41 40   Note On F3 64

517c61f5 90 39 44   Note On A2 68
517c6268 90 39 00   Note On(0-Off) A2

517c6277 90 41 00   Note On(0-Off) F3
517c63b7 90 41 5e   Note On F3 94

517c63bd 90 39 4b   Note On A2 75

517c63be 90 2b 67   Note On G1 103
517c66c5 90 41 00   Note On(0-Off) F3

517c66cc 90 40 64   Note On E3 100

517c66f6 90 39 00   Note On(0-Off) A2

517c6706 90 40 00   Note On(0-Off) E3
517c6773 90 2b 00   Note On(0-Off) G1
517c69f3 90 37 4b   Note On G2 75

517c69fa 90 34 49   Note On E2 73
517c6b8e 90 24 72   Note On C1 114
517c6c97 90 34 00   Note On(0-Off) E2
517c6d19 90 34 64   Note On E2 100

517c6d2e 90 37 00   Note On(0-Off) G2
517c6e03 90 24 00   Note On(0-Off) C1

517c6e2b 90 34 00   Note On(0-Off) E2
517c6eae 90 37 67   Note On G2 103

517c6eb5 90 34 6d   Note On E2 109
517c6fea 90 34 00   Note On(0-Off) E2

517c6ff0 90 37 00   Note On(0-Off) G2
517c7047 90 37 64   Note On G2 100

517c7062 90 34 36   Note On E2 54
517c7090 90 34 00   Note On(0-Off) E2

517c70ca 90 37 00   Note On(0-Off) G2
517c75ab 90 28 67   Note On E1 103

517c75ae 90 3e 6b   Note On D3 107

517c75b4 90 35 5b   Note On F2 91

517c75b8 90 3b 69   Note On B2 105

517c75b9 90 38 4d   Note On Ab2 77
517c7680 90 38 00   Note On(0-Off) Ab2

517c7686 90 35 00   Note On(0-Off) F2

517c769e 90 3b 00   Note On(0-Off) B2

517c76b2 90 3e 00   Note On(0-Off) D3
517c7720 90 28 00   Note On(0-Off) E1
517c78f3 90 29 5e   Note On F1 94
517c7979 90 3e 60   Note On D3 96

517c7987 90 3b 4f   Note On B2 79

517c799a 90 41 31   Note On F3 49
517c7bad 90 3e 00   Note On(0-Off) D3

517c7be5 90 3b 00   Note On(0-Off) B2
517c7c00 90 41 00   Note On(0-Off) F3
517c7c93 90 29 00   Note On(0-Off) F1
517c7ebe 90 3b 66   Note On B2 102

517c7ec0 90 28 6e   Note On E1 110

517c7ec2 90 3e 69   Note On D3 105
517c7ec5 90 35 67   Note On F2 103

517c7ec6 90 38 6b   Note On Ab2 107
517c7f5f 90 38 00   Note On(0-Off) Ab2
517c7fdc 90 3e 00   Note On(0-Off) D3

517c7feb 90 35 00   Note On(0-Off) F2
517c800a 90 3b 00   Note On(0-Off) B2

517c8025 90 28 00   Note On(0-Off) E1
517c8203 90 2c 6d   Note On Ab1 109

517c820c 90 41 6b   Note On F3 107

517c820d 90 3e 67   Note On D3 103

517c8211 90 47 66   Note On B3 102
517c8330 90 3e 00   Note On(0-Off) D3

517c835c 90 41 00   Note On(0-Off) F3
517c8390 90 47 00   Note On(0-Off) B3

517c8392 90 2c 00   Note On(0-Off) Ab1
517c855f 90 48 11   Note On C4 17

517c8578 90 2d 67   Note On A1 103

517c857d 90 54 56   Note On C5 86
517c86b0 90 48 00   Note On(0-Off) C4

517c86be 90 34 49   Note On E2 73
517c86e6 90 54 00   Note On(0-Off) C5

517c8717 90 2d 00   Note On(0-Off) A1

517c8730 90 54 67   Note On C5 103
517c8738 90 48 40   Note On C4 64
517c8824 90 48 00   Note On(0-Off) C4

517c8847 90 54 00   Note On(0-Off) C5
517c88b7 90 54 6b   Note On C5 107

517c88be 90 48 60   Note On C4 96

517c88c7 90 39 69   Note On A2 105
517c88df 90 34 00   Note On(0-Off) E2
517c896c 90 48 00   Note On(0-Off) C4

517c8984 90 39 00   Note On(0-Off) A2

517c898f 90 54 00   Note On(0-Off) C5
517c8a5c 90 54 76   Note On C5 118
517c8a60 90 48 70   Note On C4 112
517c8bf6 90 2b 69   Note On G1 105
517c8ceb 90 48 00   Note On(0-Off) C4

517c8cfb 90 54 00   Note On(0-Off) C5
517c8d46 90 32 66   Note On D2 102
517c8d93 90 47 3c   Note On B3 60

517c8da1 90 53 34   Note On B4 52

517c8dc7 90 2b 00   Note On(0-Off) G1
517c8e20 90 47 00   Note On(0-Off) B3
517c8e6a 90 53 00   Note On(0-Off) B4
517c8f17 90 47 4d   Note On B3 77

517c8f17 90 53 64   Note On B4 100

517c8f29 90 37 69   Note On G2 105
517c8f45 90 32 00   Note On(0-Off) D2
517c8f9f 90 47 00   Note On(0-Off) B3

517c8fba 90 53 00   Note On(0-Off) B4

517c8fc9 90 37 00   Note On(0-Off) G2
517c90bc 90 53 74   Note On B4 116

517c90c2 90 47 70   Note On B3 112
517c924c 90 29 6b   Note On F1 107
517c933e 90 47 00   Note On(0-Off) B3

517c9346 90 53 00   Note On(0-Off) B4
517c940f 90 45 49   Note On A3 73

517c9410 90 51 59   Note On A4 89
517c9556 90 51 00   Note On(0-Off) A4

517c9561 90 45 00   Note On(0-Off) A3
517c9744 90 30 67   Note On C2 103
517c9784 90 29 00   Note On(0-Off) F1
517c9890 90 30 00   Note On(0-Off) C2
517c98d4 90 2b 72   Note On G1 114

517c98dc 90 51 6e   Note On A4 110

517c98de 90 45 67   Note On A3 103
517c9a11 90 45 00   Note On(0-Off) A3

517c9a3a 90 51 00   Note On(0-Off) A4
517c9adf 90 2b 00   Note On(0-Off) G1
517c9b3c 90 32 3c   Note On D2 60
517c9c2c 90 32 00   Note On(0-Off) D2

517c9c2e 90 37 74   Note On G2 116

517c9c32 90 53 6b   Note On B4 107

517c9c36 90 47 64   Note On B3 100
517c9d40 90 37 00   Note On(0-Off) G2

517c9d99 90 53 00   Note On(0-Off) B4

517c9d9a 90 47 00   Note On(0-Off) B3
517c9f52 90 24 72   Note On C1 114

517c9f54 90 4f 5f   Note On G4 95

517c9f5c 90 43 60   Note On G3 96
517ca08e 90 4f 00   Note On(0-Off) G4

517ca096 90 2b 3f   Note On G1 63

517ca0a3 90 24 00   Note On(0-Off) C1

517ca0e0 90 43 00   Note On(0-Off) G3
517ca10c 90 2b 00   Note On(0-Off) G1

517ca140 90 30 33   Note On C2 51
517ca1a6 90 30 00   Note On(0-Off) C2
517ca200 90 32 47   Note On D2 71
517ca2d5 90 34 34   Note On E2 52
517ca324 90 32 00   Note On(0-Off) D2
517ca3b6 90 37 6b   Note On G2 107

517ca3bf 90 34 00   Note On(0-Off) E2
517ca546 90 43 49   Note On G3 73

517ca547 90 40 52   Note On E3 82

517ca548 90 3e 52   Note On D3 82

517ca567 90 37 00   Note On(0-Off) G2
517ca661 90 37 3c   Note On G2 60
517ca69b 90 43 00   Note On(0-Off) G3

517ca6a5 90 40 00   Note On(0-Off) E3

517ca6a9 90 3e 00   Note On(0-Off) D3
517ca89f 90 3e 6b   Note On D3 107
517ca9a9 90 37 00   Note On(0-Off) G2
517caa10 90 3e 00   Note On(0-Off) D3

517caa39 90 3e 14   Note On D3 20

517caa44 90 43 66   Note On G3 102

517caa4c 90 37 5f   Note On G2 95
517caaa9 90 37 00   Note On(0-Off) G2

517caabd 90 3e 00   Note On(0-Off) D3

517caac1 90 43 00   Note On(0-Off) G3
517cabc8 90 3b 62   Note On B2 98

517cabca 90 38 3f   Note On Ab2 63

517cabcf 90 40 3f   Note On E3 63

517cabdc 90 28 6b   Note On E1 107
517cacb7 90 38 00   Note On(0-Off) Ab2

517cacb9 90 2f 52   Note On B1 82
517cacd2 90 40 00   Note On(0-Off) E3

517cacd4 90 3b 00   Note On(0-Off) B2

517cad12 90 28 00   Note On(0-Off) E1
517cad9e 90 34 67   Note On E2 103

517cadb7 90 2f 00   Note On(0-Off) B1
517cae49 90 38 2c   Note On Ab2 44
517caf16 90 34 00   Note On(0-Off) E2
517caf3c 90 3b 70   Note On B2 112
517cafff 90 38 00   Note On(0-Off) Ab2

517cb00d 90 34 60   Note On E2 96

517cb043 90 3b 00   Note On(0-Off) B2
517cb0c2 90 38 5b   Note On Ab2 91
517cb16c 90 34 00   Note On(0-Off) E2
517cb1b2 90 38 00   Note On(0-Off) Ab2
517cb4e6 90 2f 70   Note On B1 112

517cb4ea 90 3e 74   Note On D3 116

517cb4eb 90 41 74   Note On F3 116

517cb4ec 90 3b 72   Note On B2 114
517cb5fb 90 3b 00   Note On(0-Off) B2
517cb61f 90 3e 00   Note On(0-Off) D3

517cb637 90 41 00   Note On(0-Off) F3
517cb662 90 3b 64   Note On B2 100

517cb695 90 2f 00   Note On(0-Off) B1
517cb724 90 3e 66   Note On D3 102
517cb810 90 41 6b   Note On F3 107
517cb875 90 3b 00   Note On(0-Off) B2
517cb8d7 90 2f 6b   Note On B1 107

517cb918 90 3e 00   Note On(0-Off) D3
517cb959 90 41 00   Note On(0-Off) F3

517cb973 90 2f 00   Note On(0-Off) B1
517cb9ff 90 3e 6e   Note On D3 110

517cb9ff 90 3b 66   Note On B2 102
517cba5e 90 3b 00   Note On(0-Off) B2

517cba5e 90 3e 00   Note On(0-Off) D3
517cbbb1 90 28 6b   Note On E1 107

517cbbb2 90 47 64   Note On B3 100

517cbbb2 90 3e 3e   Note On D3 62

517cbbb2 90 44 5e   Note On Ab3 94

517cbbb2 90 41 67   Note On F3 103
517cbcc1 90 28 00   Note On(0-Off) E1

517cbcef 90 41 00   Note On(0-Off) F3
517cbcfb 90 44 00   Note On(0-Off) Ab3

517cbcfe 90 3e 00   Note On(0-Off) D3

517cbd45 90 47 00   Note On(0-Off) B3
517cbee4 90 44 21   Note On Ab3 33
517cbef3 90 4a 60   Note On D4 96

517cbef8 90 3e 5f   Note On D3 95

517cbefc 90 41 56   Note On F3 86

517cbf04 90 2c 6e   Note On Ab1 110
517cc06f 90 3e 00   Note On(0-Off) D3

517cc073 90 41 00   Note On(0-Off) F3

517cc08c 90 2c 00   Note On(0-Off) Ab1
517cc0ad 90 4a 00   Note On(0-Off) D4

517cc0ce 90 44 00   Note On(0-Off) Ab3
517cc285 90 2d 70   Note On A1 112

517cc285 90 54 4b   Note On C5 75

517cc285 90 48 3c   Note On C4 60

517cc286 90 47 4d   Note On B3 77

517cc286 90 53 56   Note On B4 86

517cc2d7 90 53 00   Note On(0-Off) B4

517cc2e6 90 47 00   Note On(0-Off) B3
517cc38d 90 34 52   Note On E2 82
517cc3d8 90 2d 00   Note On(0-Off) A1
517cc579 90 39 4f   Note On A2 79

517cc58b 90 34 00   Note On(0-Off) E2
517cc66d 90 39 00   Note On(0-Off) A2

517cc676 90 48 00   Note On(0-Off) C4
517cc696 90 54 00   Note On(0-Off) C5
517cc727 90 54 62   Note On C5 98

517cc732 90 4c 69   Note On E4 105

517cc738 90 48 4b   Note On C4 75
517cc8c9 90 2b 47   Note On G1 71
517cc99f 90 4c 00   Note On(0-Off) E4
517cc9ae 90 48 00   Note On(0-Off) C4

517cc9af 90 54 00   Note On(0-Off) C5
517cca80 90 2b 00   Note On(0-Off) G1
517ccbf4 90 47 3e   Note On B3 62
517ccc02 90 53 5b   Note On B4 91

517ccc03 90 4a 27   Note On D4 39
517cccb1 90 4a 00   Note On(0-Off) D4

517cccb4 90 47 00   Note On(0-Off) B3
517ccce3 90 53 00   Note On(0-Off) B4
517ccd75 90 47 60   Note On B3 96

517ccd77 90 53 67   Note On B4 103

517ccd77 90 4a 6b   Note On D4 107
517ccebd 90 29 42   Note On F1 66
517ccfc5 90 53 00   Note On(0-Off) B4

517ccfd9 90 4a 00   Note On(0-Off) D4

517cd00b 90 47 00   Note On(0-Off) B3
517cd06a 90 51 66   Note On A4 102

517cd077 90 47 27   Note On B3 39

517cd078 90 4a 4d   Note On D4 77
517cd1bd 90 29 00   Note On(0-Off) F1
517cd256 90 30 04   Note On C2 4
517cd3cb 90 35 3f   Note On F2 63

517cd3d5 90 30 00   Note On(0-Off) C2

517cd416 90 4a 00   Note On(0-Off) D4
517cd440 90 51 00   Note On(0-Off) A4

517cd44c 90 47 00   Note On(0-Off) B3
517cd4f9 90 35 00   Note On(0-Off) F2
517cd57d 90 47 5e   Note On B3 94

517cd57f 90 4a 69   Note On D4 105

517cd581 90 4f 69   Note On G4 105

517cd582 90 2b 62   Note On G1 98

517cd583 90 49 00   Note On(0-Off) C#4
517cd6d2 90 32 3d   Note On D2 61
517cd72e 90 2b 00   Note On(0-Off) G1
517cd7f0 90 4f 00   Note On(0-Off) G4
517cd859 90 4a 00   Note On(0-Off) D4
517cd89e 90 37 3c   Note On G2 60

517cd8a9 90 4a 3d   Note On D4 61

517cd8ac 90 32 00   Note On(0-Off) D2
517cd956 90 47 00   Note On(0-Off) B3
517cda02 90 37 00   Note On(0-Off) G2

517cda06 90 4a 00   Note On(0-Off) D4
517cda72 90 4c 6e   Note On E4 110

517cda7a 90 47 42   Note On B3 66
517cdc02 90 2d 49   Note On A1 73
517cdd2f 90 4c 00   Note On(0-Off) E4
517cdd4e 90 47 00   Note On(0-Off) B3

517cdd73 90 34 49   Note On E2 73
517cddd9 90 51 4f   Note On A4 79

517cddf2 90 2d 00   Note On(0-Off) A1
517cdf2d 90 34 00   Note On(0-Off) E2
517cdf62 90 39 25   Note On A2 37

517cdf9a 90 51 00   Note On(0-Off) A4
517ce017 90 39 00   Note On(0-Off) A2
517ce0e2 90 3b 60   Note On B2 96
517ce29d 90 3b 00   Note On(0-Off) B2
517ce42b 90 4d 70   Note On F4 112
517ce573 90 4d 00   Note On(0-Off) F4
517ce610 90 4f 3c   Note On G4 60
517ce73e 90 4f 00   Note On(0-Off) G4

517ce793 90 4d 6b   Note On F4 107
517ce8ef 90 2b 42   Note On G1 66
517cea99 90 4c 4d   Note On E4 77
517ceadc 90 32 64   Note On D2 100

517ceadf 90 4d 00   Note On(0-Off) F4
517ceb4e 90 2b 00   Note On(0-Off) G1
517cec7c 90 32 00   Note On(0-Off) D2

517cec9f 90 37 47   Note On G2 71
517cee22 90 37 00   Note On(0-Off) G2

517cee37 90 4a 3c   Note On D4 60
517cee60 90 4c 00   Note On(0-Off) E4
517cf153 90 4a 00   Note On(0-Off) D4
517cf4a0 90 40 20   Note On E3 32
517cf576 90 41 49   Note On F3 73

517cf5cd 90 40 00   Note On(0-Off) E3
517cf628 90 41 00   Note On(0-Off) F3
517cf659 90 43 3d   Note On G3 61

517cf66c 90 30 49   Note On C2 73

517cf674 90 3b 45   Note On B2 69

517cf681 90 3e 34   Note On D3 52
517cf6e4 90 3b 00   Note On(0-Off) B2
517cf712 90 3e 00   Note On(0-Off) D3

517cf73f 90 43 00   Note On(0-Off) G3
517cf7a9 90 30 00   Note On(0-Off) C2
517cf7e8 90 37 21   Note On G2 33

517cf801 90 43 3a   Note On G3 58
517cf8bf 90 43 00   Note On(0-Off) G3

517cf8e0 90 37 00   Note On(0-Off) G2
517cf974 90 34 4b   Note On E2 75

517cf978 90 43 47   Note On G3 71
517cfa39 90 43 00   Note On(0-Off) G3
517cfb0c 90 34 00   Note On(0-Off) E2

517cfb17 90 43 52   Note On G3 82

517cfb1b 90 37 56   Note On G2 86
517cfc42 90 37 00   Note On(0-Off) G2
517cfce9 90 2d 67   Note On A1 103
517cfe26 90 2d 00   Note On(0-Off) A1
517cfea1 90 43 00   Note On(0-Off) G3

517cfeb3 90 41 60   Note On F3 96
517d008e 90 40 64   Note On E3 100
517d00f4 90 41 00   Note On(0-Off) F3
517d0168 90 40 00   Note On(0-Off) E3
517d0239 90 2d 69   Note On A1 105

517d0249 90 3e 67   Note On D3 103

517d024d 90 3b 6b   Note On B2 107

517d0251 90 37 5b   Note On G2 91
517d055a 90 2d 00   Note On(0-Off) A1

517d059c 90 3e 00   Note On(0-Off) D3
517d05aa 90 3b 00   Note On(0-Off) B2
517d06f1 90 3b 44   Note On B2 68
517d0791 90 3e 60   Note On D3 96
517d07c0 90 3b 00   Note On(0-Off) B2

517d07d8 90 37 00   Note On(0-Off) G2
517d086c 90 3e 00   Note On(0-Off) D3
517d088f 90 40 3c   Note On E3 60

517d0894 90 2e 52   Note On Bb1 82

517d0897 90 37 3f   Note On G2 63

517d0898 90 3a 5e   Note On Bb2 94

517d0899 90 3d 6b   Note On C#3 107
517d0a70 90 37 00   Note On(0-Off) G2
517d0b5e 90 40 00   Note On(0-Off) E3

517d0b96 90 37 4d   Note On G2 77
517d0bad 90 3d 00   Note On(0-Off) C#3
517d0c26 90 2e 00   Note On(0-Off) Bb1

517d0c35 90 3a 00   Note On(0-Off) Bb2
517d0d28 90 3a 3d   Note On Bb2 61
517d0d31 90 40 4f   Note On E3 79

517d0d38 90 3d 4b   Note On C#3 75
517d0dcb 90 37 00   Note On(0-Off) G2
517d0e12 90 40 00   Note On(0-Off) E3

517d0e51 90 3d 00   Note On(0-Off) C#3

517d0e52 90 3a 00   Note On(0-Off) Bb2
517d0ed4 90 34 3f   Note On E2 63

517d0f24 90 31 36   Note On C#2 54
517d0fc3 90 34 00   Note On(0-Off) E2

517d0fc4 90 2e 34   Note On Bb1 52
517d1007 90 31 00   Note On(0-Off) C#2

517d104b 90 2e 00   Note On(0-Off) Bb1
517d10a0 90 39 3e   Note On A2 62

517d10a4 90 41 56   Note On F3 86

517d10ae 90 26 60   Note On D1 96
517d1147 90 39 00   Note On(0-Off) A2

517d115a 90 41 00   Note On(0-Off) F3
517d1210 90 41 2b   Note On F3 43

517d1216 90 39 3c   Note On A2 60
517d12c8 90 39 00   Note On(0-Off) A2

517d12db 90 41 00   Note On(0-Off) F3
517d13e1 90 41 3d   Note On F3 61

517d13e2 90 39 3e   Note On A2 62
517d1461 90 26 00   Note On(0-Off) D1

517d1494 90 39 00   Note On(0-Off) A2

517d14a2 90 41 00   Note On(0-Off) F3
517d15d0 90 41 5f   Note On F3 95

517d15dc 90 39 62   Note On A2 98
517d15ed 90 2b 76   Note On G1 118
517d18bb 90 41 00   Note On(0-Off) F3
517d18f4 90 40 20   Note On E3 32
517d195d 90 39 00   Note On(0-Off) A2

517d196d 90 40 00   Note On(0-Off) E3
517d1b34 90 2b 00   Note On(0-Off) G1
517d1c07 90 37 42   Note On G2 66

517d1c08 90 34 60   Note On E2 96
517d1de3 90 24 70   Note On C1 112

517d1df0 90 30 40   Note On C2 64
517d1f0f 90 34 00   Note On(0-Off) E2

517d1f3b 90 37 00   Note On(0-Off) G2
517d1f85 90 34 5b   Note On E2 91
517d2038 90 24 00   Note On(0-Off) C1
517d207a 90 30 00   Note On(0-Off) C2
517d20d9 90 34 00   Note On(0-Off) E2

517d212a 90 37 67   Note On G2 103

517d2132 90 34 64   Note On E2 100
517d234b 90 37 00   Note On(0-Off) G2

517d235c 90 34 00   Note On(0-Off) E2
517d2479 90 3b 6e   Note On B2 110

517d247d 90 3e 60   Note On D3 96

517d247e 90 37 64   Note On G2 100

517d247f 90 2d 6b   Note On A1 107
517d25c9 90 37 00   Note On(0-Off) G2

517d25cd 90 3e 00   Note On(0-Off) D3

517d25e5 90 3b 00   Note On(0-Off) B2
517d27cf 90 40 64   Note On E3 100

517d27d0 90 37 64   Note On G2 100

517d27db 90 2d 00   Note On(0-Off) A1
517d2959 90 37 00   Note On(0-Off) G2

517d297f 90 2d 74   Note On A1 116
517d299a 90 40 00   Note On(0-Off) E3
517d2aff 90 32 38   Note On D2 56
517d2b1b 90 26 67   Note On D1 103

517d2b1e 90 41 62   Note On F3 98

517d2b20 90 39 59   Note On A2 89
517d2c44 90 41 00   Note On(0-Off) F3
517d2c4b 90 39 00   Note On(0-Off) A2
517d2cce 90 41 42   Note On F3 66

517d2cd1 90 39 47   Note On A2 71
517d2d7f 90 41 00   Note On(0-Off) F3

517d2d8b 90 39 00   Note On(0-Off) A2
517d2e0f 90 26 00   Note On(0-Off) D1

517d2e31 90 2d 00   Note On(0-Off) A1
517d2e4c 90 32 00   Note On(0-Off) D2

517d2e7e 90 41 62   Note On F3 98

517d2e81 90 39 60   Note On A2 96
517d2ffb 90 39 00   Note On(0-Off) A2

517d2ffb 90 41 00   Note On(0-Off) F3
517d305f 90 41 69   Note On F3 105

517d305f 90 2b 72   Note On G1 114

517d305f 90 39 64   Note On A2 100

517d305f 90 3c 7f   Note On C3 127
517d3389 90 41 00   Note On(0-Off) F3
517d33ad 90 40 49   Note On E3 73
517d340c 90 2b 00   Note On(0-Off) G1

517d3453 90 3c 00   Note On(0-Off) C3

517d3457 90 39 00   Note On(0-Off) A2
517d3598 90 40 00   Note On(0-Off) E3

517d35a9 90 2b 2f   Note On G1 47

517d35d9 90 30 47   Note On C2 71
517d366f 90 3e 59   Note On D3 89

517d3679 90 43 52   Note On G3 82

517d3680 90 40 42   Note On E3 66
517d372e 90 24 13   Note On C1 19
517d3944 90 43 00   Note On(0-Off) G3

517d3945 90 40 00   Note On(0-Off) E3

517d3976 90 3e 00   Note On(0-Off) D3
517d3ae7 90 3e 6b   Note On D3 107
517d3c80 90 43 66   Note On G3 102

517d3cca 90 2b 00   Note On(0-Off) G1
517d3d4f 90 3e 00   Note On(0-Off) D3

517d3d5d 90 30 00   Note On(0-Off) C2

517d3d67 90 43 00   Note On(0-Off) G3

517d3d7d 90 24 00   Note On(0-Off) C1
517d3e2f 90 37 67   Note On G2 103

517d3e30 90 3b 6d   Note On B2 109

517d3e30 90 3e 6d   Note On D3 109

517d3e34 90 2d 67   Note On A1 103
517d3fb1 90 3b 00   Note On(0-Off) B2

517d3fb7 90 2d 00   Note On(0-Off) A1
517d4017 90 3e 00   Note On(0-Off) D3
517d40b6 90 37 00   Note On(0-Off) G2
517d415f 90 3a 60   Note On Bb2 96

517d4160 90 40 66   Note On E3 102

517d4161 90 37 59   Note On G2 89

517d4163 90 3d 66   Note On C#3 102

517d416e 90 2e 67   Note On Bb1 103
517d432b 90 37 00   Note On(0-Off) G2
517d4389 90 2e 00   Note On(0-Off) Bb1

517d43a4 90 3a 00   Note On(0-Off) Bb2

517d43b3 90 40 00   Note On(0-Off) E3
517d43bd 90 3d 00   Note On(0-Off) C#3
517d44b0 90 39 33   Note On A2 51

517d44b5 90 41 4d   Note On F3 77

517d44bb 90 26 3d   Note On D1 61

517d44bf 90 32 40   Note On D2 64
517d45f8 90 39 00   Note On(0-Off) A2
517d4619 90 41 00   Note On(0-Off) F3
517d46a9 90 41 3a   Note On F3 58

517d46aa 90 39 40   Note On A2 64
517d47a9 90 39 00   Note On(0-Off) A2
517d47be 90 32 00   Note On(0-Off) D2

517d47c4 90 41 00   Note On(0-Off) F3

517d47d2 90 26 00   Note On(0-Off) D1
517d4876 90 41 4b   Note On F3 75

517d4877 90 39 47   Note On A2 71
517d49f2 90 41 00   Note On(0-Off) F3

517d49fb 90 39 00   Note On(0-Off) A2
517d4a65 90 41 49   Note On F3 73

517d4a68 90 39 52   Note On A2 82
517d4bff 90 39 00   Note On(0-Off) A2
517d4c06 90 41 00   Note On(0-Off) F3

517d4c24 90 2b 45   Note On G1 69

517d4c4d 90 39 3a   Note On A2 58

517d4c54 90 40 5e   Note On E3 94
517d4fee 90 40 00   Note On(0-Off) E3
517d500b 90 3e 0f   Note On D3 15

517d505a 90 39 00   Note On(0-Off) A2
517d5182 90 2b 00   Note On(0-Off) G1
517d53e0 90 3e 00   Note On(0-Off) D3
517d5436 90 29 4d   Note On F1 77
517d5585 90 29 00   Note On(0-Off) F1

517d5586 90 30 42   Note On C2 66
517d5655 90 30 00   Note On(0-Off) C2
517d56f5 90 35 3c   Note On F2 60
517d5771 90 35 00   Note On(0-Off) F2
517d581f 90 37 1d   Note On G2 29
517d5959 90 39 3a   Note On A2 58
517d59ac 90 37 00   Note On(0-Off) G2
517d5ab8 90 39 00   Note On(0-Off) A2
517d5bd4 90 41 49   Note On F3 73
517d5d0d 90 45 45   Note On A3 69

517d5d11 90 47 66   Note On B3 102

517d5d4a 90 41 00   Note On(0-Off) F3
517d5db1 90 47 00   Note On(0-Off) B3

517d5db2 90 45 00   Note On(0-Off) A3
517d5e46 90 44 1a   Note On Ab3 26

517d5e8c 90 44 00   Note On(0-Off) Ab3
517d5ebb 90 2c 5e   Note On Ab1 94

517d5ec6 90 44 60   Note On Ab3 96
517d6061 90 44 00   Note On(0-Off) Ab3
517d60e0 90 43 3d   Note On G3 61
517d6166 90 2c 00   Note On(0-Off) Ab1
517d62e8 90 40 28   Note On E3 40

517d6311 90 43 00   Note On(0-Off) G3
517d64db 90 40 00   Note On(0-Off) E3
517d6673 90 3f 4d   Note On Eb3 77
517d6898 90 3f 00   Note On(0-Off) Eb3
517d6af0 90 3b 52   Note On B2 82
517d6c57 90 3b 00   Note On(0-Off) B2
517d6d84 90 38 49   Note On Ab2 73
517d6ef1 90 38 00   Note On(0-Off) Ab2
517d7051 90 2b 12   Note On G1 18
517d70c0 90 30 33   Note On C2 51
517d70f0 90 34 15   Note On E2 21
517d714c 90 37 47   Note On G2 71
517d71cb 90 24 1a   Note On C1 26
517d750f 90 24 00   Note On(0-Off) C1

517d7514 90 2b 00   Note On(0-Off) G1

517d751f 90 30 00   Note On(0-Off) C2
517d78b4 90 34 00   Note On(0-Off) E2
517d7965 90 37 00   Note On(0-Off) G2
517d8aa3 90 2d 3f   Note On A1 63
517d8bef 90 38 28   Note On Ab2 40
517d8d12 90 39 3e   Note On A2 62

517d8d26 90 38 00   Note On(0-Off) Ab2
517d8e63 90 40 4b   Note On E3 75
517d903e 90 40 00   Note On(0-Off) E3
517d908d 90 39 00   Note On(0-Off) A2
517d913e 90 2d 00   Note On(0-Off) A1
517d9559 90 2a 23   Note On F#1 35
517d96a7 90 38 19   Note On Ab2 25
517d97cf 90 39 3d   Note On A2 61

517d97e1 90 38 00   Note On(0-Off) Ab2
517d993d 90 40 44   Note On E3 68
517d9ad4 90 40 00   Note On(0-Off) E3
517d9ba8 90 39 00   Note On(0-Off) A2
517d9ca7 90 2a 00   Note On(0-Off) F#1
517d9e72 90 40 3c   Note On E3 60
517d9f33 90 40 00   Note On(0-Off) E3
517d9fde 90 36 1c   Note On F#2 28
517da04d 90 40 3d   Note On E3 61
517da055 90 39 64   Note On A2 100

517da058 90 26 56   Note On D1 86
517da1cf 90 40 00   Note On(0-Off) E3
517da202 90 39 00   Note On(0-Off) A2
517da30e 90 42 33   Note On F#3 51
517da3b6 90 36 00   Note On(0-Off) F#2

517da3d0 90 42 00   Note On(0-Off) F#3
517da4b1 90 26 00   Note On(0-Off) D1

517da4bc 90 36 14   Note On F#2 20

517da4d2 90 39 4b   Note On A2 75

517da4d5 90 3e 44   Note On D3 68
517da941 90 3e 00   Note On(0-Off) D3
517da9b2 90 3e 05   Note On D3 5
517daa97 90 39 00   Note On(0-Off) A2
517daabf 90 36 00   Note On(0-Off) F#2

517daaf5 90 3d 62   Note On C#3 98

517daaff 90 3e 00   Note On(0-Off) D3
517dabc6 90 3d 00   Note On(0-Off) C#3
517dac73 90 28 62   Note On E1 98

517dac87 90 36 33   Note On F#2 51

517dac88 90 3d 5e   Note On C#3 94
517dad84 90 36 00   Note On(0-Off) F#2
517daf02 90 3d 00   Note On(0-Off) C#3
517daf72 90 3b 6b   Note On B2 107

517daf78 90 36 3e   Note On F#2 62
517db015 90 28 00   Note On(0-Off) E1
517db0a4 90 3b 00   Note On(0-Off) B2
517db0bf 90 36 00   Note On(0-Off) F#2
517db130 90 28 52   Note On E1 82
517db207 90 28 00   Note On(0-Off) E1
517db2bc 90 36 3e   Note On F#2 62

517db2c1 90 3e 66   Note On D3 102

517db2c8 90 28 69   Note On E1 105

517db2c9 90 39 69   Note On A2 105
517db563 90 3e 00   Note On(0-Off) D3
517db5d4 90 39 00   Note On(0-Off) A2

517db5d8 90 3d 56   Note On C#3 86
517db65d 90 36 00   Note On(0-Off) F#2
517db68e 90 3d 00   Note On(0-Off) C#3
517db723 90 28 00   Note On(0-Off) E1
517db78f 90 3d 76   Note On C#3 118
517db93b 90 2d 6d   Note On A1 109
517dbaf1 90 38 6b   Note On Ab2 107

517dbaf3 90 3d 00   Note On(0-Off) C#3
517dbc64 90 39 64   Note On A2 100

517dbc6d 90 38 00   Note On(0-Off) Ab2
517dbdcf 90 40 5f   Note On E3 95
517dbe81 90 40 00   Note On(0-Off) E3
517dbf0a 90 39 00   Note On(0-Off) A2
517dc06a 90 2d 00   Note On(0-Off) A1
517dc073 90 38 22   Note On Ab2 34
517dc1d6 90 38 00   Note On(0-Off) Ab2

517dc1ed 90 39 4b   Note On A2 75
517dc361 90 40 5f   Note On E3 95
517dc4c8 90 2a 67   Note On F#1 103
517dc58b 90 40 00   Note On(0-Off) E3
517dc604 90 39 00   Note On(0-Off) A2
517dc66c 90 38 3c   Note On Ab2 60
517dc7d6 90 38 00   Note On(0-Off) Ab2

517dc7df 90 39 56   Note On A2 86
517dc962 90 40 52   Note On E3 82
517dca6b 90 40 00   Note On(0-Off) E3
517dcada 90 39 00   Note On(0-Off) A2
517dcc30 90 38 3c   Note On Ab2 60
517dccdc 90 2a 00   Note On(0-Off) F#1
517dcdc3 90 39 5b   Note On A2 91

517dcdd3 90 38 00   Note On(0-Off) Ab2
517dcf05 90 40 2b   Note On E3 43
517dcf70 90 39 00   Note On(0-Off) A2
517dcff7 90 40 00   Note On(0-Off) E3
517dd074 90 36 3e   Note On F#2 62
517dd0be 90 39 3f   Note On A2 63

517dd0db 90 40 11   Note On E3 17

517dd0e1 90 26 56   Note On D1 86
517dd270 90 40 00   Note On(0-Off) E3

517dd287 90 39 00   Note On(0-Off) A2
517dd3ab 90 42 3e   Note On F#3 62
517dd451 90 42 00   Note On(0-Off) F#3

517dd45d 90 36 00   Note On(0-Off) F#2
517dd4fa 90 26 00   Note On(0-Off) D1

517dd532 90 36 33   Note On F#2 51

517dd543 90 3e 5b   Note On D3 91
517dda66 90 3e 00   Note On(0-Off) D3
517ddb30 90 3d 6b   Note On C#3 107
517ddc2f 90 3d 00   Note On(0-Off) C#3

517ddc41 90 36 00   Note On(0-Off) F#2
517ddcde 90 36 42   Note On F#2 66

517ddce0 90 28 64   Note On E1 100

517ddce7 90 3d 69   Note On C#3 105
517ddfac 90 28 00   Note On(0-Off) E1

517ddfad 90 3d 00   Note On(0-Off) C#3
517de018 90 3b 64   Note On B2 100

517de040 90 36 00   Note On(0-Off) F#2
517de0c9 90 3b 00   Note On(0-Off) B2
517de358 90 35 64   Note On F2 100

517de359 90 29 69   Note On F1 105

517de35a 90 38 6b   Note On Ab2 107

517de35b 90 3b 70   Note On B2 112
517de597 90 38 00   Note On(0-Off) Ab2
517de634 90 3b 00   Note On(0-Off) B2

517de643 90 35 00   Note On(0-Off) F2
517de681 90 35 3c   Note On F2 60
517de6f8 90 29 00   Note On(0-Off) F1
517de734 90 35 00   Note On(0-Off) F2
517de845 90 35 3d   Note On F2 61
517de854 90 39 5e   Note On A2 94
517de9c9 90 2a 5e   Note On F#1 94
517dea68 90 35 00   Note On(0-Off) F2
517debba 90 39 00   Note On(0-Off) A2
517dec07 90 2a 00   Note On(0-Off) F#1
517dee7d 90 2a 4d   Note On F#1 77
517defd4 90 31 6b   Note On C#2 107

517deff5 90 42 67   Note On F#3 103

517deffa 90 3d 67   Note On C#3 103

517deffe 90 2a 00   Note On(0-Off) F#1
517df066 90 3d 00   Note On(0-Off) C#3
517df14d 90 42 00   Note On(0-Off) F#3
517df1ee 90 31 00   Note On(0-Off) C#2

517df200 90 36 52   Note On F#2 82

517df227 90 44 6b   Note On Ab3 107

517df22b 90 3d 74   Note On C#3 116
517df2cc 90 36 00   Note On(0-Off) F#2
517df30e 90 3d 00   Note On(0-Off) C#3
517df38e 90 44 00   Note On(0-Off) Ab3
517df423 90 3d 52   Note On C#3 82

517df427 90 45 67   Note On A3 103
517df4aa 90 3d 00   Note On(0-Off) C#3

517df4bd 90 45 00   Note On(0-Off) A3
517df5c4 90 25 62   Note On C#1 98

517df5cc 90 31 4b   Note On C#2 75

517df5cf 90 3d 64   Note On C#3 100

517df5d3 90 44 66   Note On Ab3 102
517df803 90 44 00   Note On(0-Off) Ab3
517df88b 90 25 00   Note On(0-Off) C#1

517df88e 90 40 31   Note On E3 49

517df897 90 31 00   Note On(0-Off) C#2
517df984 90 40 00   Note On(0-Off) E3

517df997 90 3d 00   Note On(0-Off) C#3
517dfa1d 90 2c 66   Note On Ab1 102

517dfa21 90 3d 60   Note On C#3 96

517dfa27 90 40 6b   Note On E3 107

517dfa64 90 31 0d   Note On C#2 13
517dfd45 90 2c 00   Note On(0-Off) Ab1

517dfd4d 90 3d 00   Note On(0-Off) C#3

517dfd6d 90 31 00   Note On(0-Off) C#2
517dfdea 90 40 00   Note On(0-Off) E3
517dfea9 90 3d 3f   Note On C#3 63
517dff93 90 3d 00   Note On(0-Off) C#3
517e004e 90 3e 47   Note On D3 71

517e0051 90 42 59   Note On F#3 89
517e01c8 90 26 56   Note On D1 86
517e0340 90 2d 67   Note On A1 103
517e0392 90 26 00   Note On(0-Off) D1
517e0495 90 2d 00   Note On(0-Off) A1

517e04be 90 32 4f   Note On D2 79
517e057e 90 32 00   Note On(0-Off) D2

517e058d 90 3e 00   Note On(0-Off) D3

517e05a7 90 42 00   Note On(0-Off) F#3
517e063c 90 34 59   Note On E2 89
517e0781 90 34 00   Note On(0-Off) E2
517e07cf 90 42 74   Note On F#3 116

517e07d1 90 3e 64   Note On D3 100

517e07da 90 36 4d   Note On F#2 77
517e093c 90 3e 00   Note On(0-Off) D3

517e0942 90 36 00   Note On(0-Off) F#2
517e0976 90 42 00   Note On(0-Off) F#3
517e0a40 90 38 67   Note On Ab2 103

517e0a4d 90 44 72   Note On Ab3 114

517e0a51 90 3e 5e   Note On D3 94
517e0bbc 90 44 00   Note On(0-Off) Ab3

517e0bbf 90 3e 00   Note On(0-Off) D3
517e0c50 90 38 00   Note On(0-Off) Ab2
517e0c9b 90 3b 2c   Note On B2 44

517e0c9c 90 45 67   Note On A3 103

517e0ca2 90 3e 60   Note On D3 96
517e0cde 90 3b 00   Note On(0-Off) B2

517e0d14 90 3e 00   Note On(0-Off) D3

517e0d19 90 45 00   Note On(0-Off) A3
517e0e35 90 47 5e   Note On B3 94

517e0e37 90 44 74   Note On Ab3 116

517e0e39 90 40 62   Note On E3 98

517e0e3f 90 28 6b   Note On E1 107

517e0e43 90 42 56   Note On F#3 86

517e0e4a 90 46 3e   Note On Bb3 62

517e0e5b 90 46 00   Note On(0-Off) Bb3

517e0e60 90 42 00   Note On(0-Off) F#3
517e0e6d 90 47 00   Note On(0-Off) B3

517e0e6f 90 44 00   Note On(0-Off) Ab3

517e0e6f 90 40 00   Note On(0-Off) E3
517e0ee3 90 28 00   Note On(0-Off) E1
517e0f49 90 34 72   Note On E2 114
517e0feb 90 36 45   Note On F#2 69
517e1052 90 34 00   Note On(0-Off) E2
517e10b9 90 36 00   Note On(0-Off) F#2
517e1552 90 40 64   Note On E3 100

517e1556 90 42 72   Note On F#3 114
517e16a5 90 40 00   Note On(0-Off) E3
517e16db 90 42 00   Note On(0-Off) F#3
517e179d 90 44 64   Note On Ab3 100

517e17a9 90 40 4d   Note On E3 77
517e1866 90 40 00   Note On(0-Off) E3

517e18a0 90 44 00   Note On(0-Off) Ab3
517e1a41 90 47 69   Note On B3 105

517e1a41 90 40 3d   Note On E3 61
517e1a99 90 40 00   Note On(0-Off) E3

517e1a99 90 47 00   Note On(0-Off) B3
517e1bbf 90 28 64   Note On E1 100

517e1bd9 90 32 62   Note On D2 98

517e1bec 90 34 64   Note On E2 100
517e1c2a 90 32 00   Note On(0-Off) D2

517e1c72 90 34 00   Note On(0-Off) E2

517e1c72 90 28 00   Note On(0-Off) E1
517e1ce0 90 38 5b   Note On Ab2 91
517e1db9 90 38 00   Note On(0-Off) Ab2

517e1dc9 90 3b 67   Note On B2 103
517e1e14 90 3b 00   Note On(0-Off) B2
517e1eac 90 28 5e   Note On E1 94
517e1edc 90 40 72   Note On E3 114
517e1f5f 90 42 21   Note On F#3 33

517e1f66 90 28 00   Note On(0-Off) E1
517e1f89 90 40 00   Note On(0-Off) E3
517e2028 90 44 52   Note On Ab3 82
517e2055 90 42 00   Note On(0-Off) F#3
517e20e1 90 44 00   Note On(0-Off) Ab3

517e20e8 90 47 45   Note On B3 69
517e2140 90 47 00   Note On(0-Off) B3
517e21c9 90 28 67   Note On E1 103
517e21e0 90 4c 79   Note On E4 121
517e2297 90 4e 47   Note On F#4 71
517e22c1 90 4c 00   Note On(0-Off) E4

517e22f8 90 28 00   Note On(0-Off) E1
517e2385 90 4e 00   Note On(0-Off) F#4
517e24cc 90 58 56   Note On E5 86
517e2594 90 5a 42   Note On F#5 66
517e25d0 90 58 00   Note On(0-Off) E5
517e2658 90 5c 60   Note On Ab5 96

517e2683 90 5a 00   Note On(0-Off) F#5
517e2723 90 5c 00   Note On(0-Off) Ab5
517e2809 90 5d 5e   Note On A5 94

517e280d 90 55 3a   Note On C#5 58

517e2819 90 36 33   Note On F#2 51

517e281c 90 2a 64   Note On F#1 100
517e28c2 90 5d 00   Note On(0-Off) A5

517e28c7 90 55 00   Note On(0-Off) C#5
517e2a12 90 2a 00   Note On(0-Off) F#1
517e2a3a 90 36 00   Note On(0-Off) F#2
517e2cf1 90 45 67   Note On A3 103

517e2cf4 90 3d 6d   Note On C#3 109
517e2e4b 90 3d 00   Note On(0-Off) C#3
517e2e89 90 45 00   Note On(0-Off) A3

517e2e94 90 3d 5f   Note On C#3 95

517e2e99 90 44 69   Note On Ab3 105

517e2e9b 90 28 6b   Note On E1 107
517e3071 90 28 00   Note On(0-Off) E1
517e3083 90 44 00   Note On(0-Off) Ab3
517e3109 90 40 3e   Note On E3 62
517e31c2 90 40 00   Note On(0-Off) E3
517e329c 90 3d 00   Note On(0-Off) C#3
517e335b 90 3d 60   Note On C#3 96

517e336b 90 40 6e   Note On E3 110
517e34a7 90 26 52   Note On D1 82
517e366a 90 42 64   Note On F#3 100
517e3697 90 40 00   Note On(0-Off) E3

517e36d4 90 3d 00   Note On(0-Off) C#3
517e37a4 90 26 00   Note On(0-Off) D1
517e38ba 90 42 00   Note On(0-Off) F#3
517e3a1f 90 2d 3f   Note On A1 63
517e3b9e 90 2d 00   Note On(0-Off) A1

517e3bc8 90 44 5f   Note On Ab3 95

517e3bcd 90 28 6e   Note On E1 110

517e3bd1 90 3b 5e   Note On B2 94

517e3bd4 90 40 67   Note On E3 103
517e3c18 90 3b 00   Note On(0-Off) B2
517e3d64 90 40 00   Note On(0-Off) E3

517e3d7f 90 42 47   Note On F#3 71
517e3db1 90 44 00   Note On(0-Off) Ab3

517e3de9 90 28 00   Note On(0-Off) E1
517e3ebf 90 42 00   Note On(0-Off) F#3
517e3f00 90 40 66   Note On E3 102

517e3f04 90 3b 5f   Note On B2 95
517e3fe8 90 3b 00   Note On(0-Off) B2
517e40aa 90 3b 6b   Note On B2 107

517e40ae 90 40 00   Note On(0-Off) E3
517e4158 90 3b 00   Note On(0-Off) B2
517e4251 90 39 52   Note On A2 82

517e4256 90 3d 72   Note On C#3 114

517e425a 90 2d 64   Note On A1 100
517e44f7 90 3d 00   Note On(0-Off) C#3
517e456d 90 39 00   Note On(0-Off) A2
517e4599 90 40 6b   Note On E3 107

517e459f 90 39 4f   Note On A2 79
517e462a 90 2d 00   Note On(0-Off) A1
517e46a4 90 39 00   Note On(0-Off) A2

517e46a5 90 40 00   Note On(0-Off) E3
517e47b3 90 2d 2f   Note On A1 47
517e48a6 90 2c 60   Note On Ab1 96

517e48a7 90 2d 00   Note On(0-Off) A1
517e48bb 90 38 5e   Note On Ab2 94

517e48c1 90 3b 72   Note On B2 114
517e4a1a 90 3b 00   Note On(0-Off) B2
517e4a5e 90 40 64   Note On E3 100
517e4af7 90 40 00   Note On(0-Off) E3
517e4b77 90 2c 00   Note On(0-Off) Ab1
517e4c1d 90 3b 4f   Note On B2 79
517e4c57 90 38 00   Note On(0-Off) Ab2

517e4c7a 90 3b 00   Note On(0-Off) B2
517e4dc0 90 39 64   Note On A2 100

517e4dc2 90 2a 45   Note On F#1 69
517e4dd8 90 36 3c   Note On F#2 60
517e4fc9 90 39 00   Note On(0-Off) A2
517e50d0 90 31 13   Note On C#2 19

517e50d8 90 2a 00   Note On(0-Off) F#1
517e5117 90 36 00   Note On(0-Off) F#2
517e52a3 90 31 00   Note On(0-Off) C#2

517e52a8 90 36 69   Note On F#2 105
517e543c 90 36 00   Note On(0-Off) F#2

517e544b 90 3d 79   Note On C#3 121
517e55aa 90 3d 00   Note On(0-Off) C#3
517e55f0 90 3d 44   Note On C#3 68

517e55f5 90 40 72   Note On E3 114
517e5723 90 3d 00   Note On(0-Off) C#3

517e5732 90 40 00   Note On(0-Off) E3
517e579a 90 42 6e   Note On F#3 110

517e579c 90 3d 5e   Note On C#3 94
517e5860 90 3d 00   Note On(0-Off) C#3
517e5895 90 42 00   Note On(0-Off) F#3
517e5940 90 3d 4b   Note On C#3 75

517e5941 90 44 66   Note On Ab3 102

517e5975 90 25 6d   Note On C#1 109

517e5986 90 31 6b   Note On C#2 107
517e5a12 90 3d 00   Note On(0-Off) C#3
517e5a96 90 44 00   Note On(0-Off) Ab3
517e5ad8 90 45 4b   Note On A3 75

517e5b10 90 25 00   Note On(0-Off) C#1

517e5b10 90 31 00   Note On(0-Off) C#2
517e5bb6 90 45 00   Note On(0-Off) A3
517e5c8a 90 26 69   Note On D1 105

517e5c8f 90 42 67   Note On F#3 103

517e5c92 90 3e 3f   Note On D3 63
517e5d60 90 3e 00   Note On(0-Off) D3

517e5d89 90 42 00   Note On(0-Off) F#3
517e5df8 90 2d 5b   Note On A1 91

517e5e0a 90 26 00   Note On(0-Off) D1
517e5e61 90 2d 00   Note On(0-Off) A1
517e5e96 90 32 40   Note On D2 64
517e5ef3 90 32 00   Note On(0-Off) D2
517e5f5c 90 34 64   Note On E2 100
517e601d 90 36 3e   Note On F#2 62
517e60ee 90 39 62   Note On A2 98
517e6197 90 34 00   Note On(0-Off) E2

517e61a1 90 39 00   Note On(0-Off) A2
517e61cc 90 36 00   Note On(0-Off) F#2
517e62a3 90 36 3e   Note On F#2 62

517e62ae 90 3b 72   Note On B2 114
517e62f4 90 2d 72   Note On A1 114
517e6365 90 36 00   Note On(0-Off) F#2
517e63f6 90 3b 00   Note On(0-Off) B2
517e6563 90 2d 00   Note On(0-Off) A1
517e6623 90 39 67   Note On A2 103

517e6624 90 3d 6d   Note On C#3 109

517e6625 90 40 67   Note On E3 103

517e662e 90 34 6e   Note On E2 110
517e66dc 90 39 00   Note On(0-Off) A2
517e6761 90 3d 00   Note On(0-Off) C#3

517e676d 90 34 00   Note On(0-Off) E2

517e678b 90 40 00   Note On(0-Off) E3
517e6980 90 26 64   Note On D1 100

517e6982 90 42 6b   Note On F#3 107

517e6986 90 3e 6e   Note On D3 110

517e6988 90 39 66   Note On A2 102
517e6af4 90 39 00   Note On(0-Off) A2
517e6bba 90 2d 49   Note On A1 73

517e6be4 90 26 00   Note On(0-Off) D1
517e6c7e 90 42 00   Note On(0-Off) F#3

517e6c89 90 39 3d   Note On A2 61
517e6ca4 90 3e 00   Note On(0-Off) D3
517e6dc5 90 39 00   Note On(0-Off) A2
517e6e48 90 32 3e   Note On D2 62

517e6e51 90 26 3d   Note On D1 61
517e6f5a 90 26 00   Note On(0-Off) D1

517e6f78 90 32 00   Note On(0-Off) D2
517e6f7e 90 2d 00   Note On(0-Off) A1

517e6fc0 90 3e 60   Note On D3 96

517e6fc7 90 45 5e   Note On A3 94

517e6fce 90 39 4f   Note On A2 79

517e6fcf 90 26 62   Note On D1 98

517e6fd3 90 2d 59   Note On A1 89

517e6fdb 90 32 60   Note On D2 96
517e707f 90 39 00   Note On(0-Off) A2

517e708c 90 3e 00   Note On(0-Off) D3

517e70aa 90 45 00   Note On(0-Off) A3
517e724a 90 4a 64   Note On D4 100

517e7252 90 3e 5b   Note On D3 91
517e737c 90 26 00   Note On(0-Off) D1

517e73c1 90 2d 00   Note On(0-Off) A1

517e73cc 90 32 00   Note On(0-Off) D2
517e74f3 90 42 64   Note On F#3 100
517e7515 90 4a 00   Note On(0-Off) D4
517e758b 90 3e 00   Note On(0-Off) D3
517e763a 90 42 00   Note On(0-Off) F#3
517e76a0 90 28 5b   Note On E1 91

517e76ae 90 40 25   Note On E3 37

517e76b3 90 44 5b   Note On Ab3 91
517e7775 90 40 00   Note On(0-Off) E3

517e7783 90 2f 44   Note On B1 68

517e778e 90 28 00   Note On(0-Off) E1

517e77a4 90 44 00   Note On(0-Off) Ab3
517e77cf 90 2f 00   Note On(0-Off) B1

517e77f1 90 34 4f   Note On E2 79
517e7880 90 34 00   Note On(0-Off) E2
517e78d2 90 36 64   Note On F#2 100
517e79bc 90 38 64   Note On Ab2 100
517e7a68 90 36 00   Note On(0-Off) F#2
517e7a9b 90 3b 64   Note On B2 100

517e7ac0 90 38 00   Note On(0-Off) Ab2
517e7b81 90 47 40   Note On B3 64
517e7d15 90 53 33   Note On B4 51
517e7dae 90 3b 00   Note On(0-Off) B2
517e7fc2 90 53 00   Note On(0-Off) B4
517e806d 90 47 00   Note On(0-Off) B3
517e83c2 90 2d 5b   Note On A1 91
517e8564 90 38 25   Note On Ab2 37
517e86c7 90 38 00   Note On(0-Off) Ab2
517e86e0 90 39 3e   Note On A2 62
517e8885 90 40 3f   Note On E3 63
517e8a1a 90 40 00   Note On(0-Off) E3
517e8b0b 90 39 00   Note On(0-Off) A2

517e8b10 90 2d 00   Note On(0-Off) A1
517e8bbe 90 38 31   Note On Ab2 49
517e8d54 90 38 00   Note On(0-Off) Ab2

517e8d57 90 39 4f   Note On A2 79
517e8f0f 90 40 3a   Note On E3 58
517e90a8 90 2a 36   Note On F#1 54
517e9182 90 40 00   Note On(0-Off) E3
517e9253 90 38 36   Note On Ab2 54
517e927c 90 39 00   Note On(0-Off) A2
517e93dd 90 38 00   Note On(0-Off) Ab2

517e93e2 90 39 5e   Note On A2 94
517e9581 90 40 59   Note On E3 89
517e96aa 90 40 00   Note On(0-Off) E3
517e973b 90 39 00   Note On(0-Off) A2
517e988c 90 38 3d   Note On Ab2 61
517e9a1b 90 39 66   Note On A2 102

517e9a1e 90 38 00   Note On(0-Off) Ab2
517e9a5a 90 2a 00   Note On(0-Off) F#1
517e9b97 90 40 62   Note On E3 98
517e9be8 90 39 00   Note On(0-Off) A2
517e9c3d 90 40 00   Note On(0-Off) E3
517e9cb2 90 39 45   Note On A2 69

517e9d09 90 36 5e   Note On F#2 94
517e9d5a 90 40 3c   Note On E3 60

517e9d66 90 26 4d   Note On D1 77
517e9ede 90 40 00   Note On(0-Off) E3
517e9f47 90 39 00   Note On(0-Off) A2
517ea080 90 42 3c   Note On F#3 60
517ea0d4 90 36 00   Note On(0-Off) F#2

517ea0f8 90 42 00   Note On(0-Off) F#3
517ea1db 90 26 00   Note On(0-Off) D1
517ea1ee 90 3d 49   Note On C#3 73

517ea1fc 90 36 52   Note On F#2 82

517ea200 90 3d 00   Note On(0-Off) C#3

517ea209 90 3e 69   Note On D3 105
517ea6aa 90 3e 00   Note On(0-Off) D3
517ea7ed 90 3d 40   Note On C#3 64
517ea930 90 3d 00   Note On(0-Off) C#3

517ea95c 90 36 00   Note On(0-Off) F#2
517ea9c2 90 36 33   Note On F#2 51

517ea9c5 90 3d 64   Note On C#3 100
517ea9cd 90 28 66   Note On E1 102
517eabaf 90 28 00   Note On(0-Off) E1
517eac38 90 3d 00   Note On(0-Off) C#3

517eac47 90 28 4d   Note On E1 77
517eacd2 90 36 00   Note On(0-Off) F#2

517eacd6 90 28 00   Note On(0-Off) E1
517ead4b 90 36 3c   Note On F#2 60

517ead4e 90 28 64   Note On E1 100

517ead4f 90 3b 72   Note On B2 114
517eb043 90 3b 00   Note On(0-Off) B2
517eb144 90 39 3a   Note On A2 58
517eb18a 90 36 00   Note On(0-Off) F#2
517eb33c 90 39 00   Note On(0-Off) A2
517eb464 90 38 15   Note On Ab2 21
517eb4e9 90 28 00   Note On(0-Off) E1
517eb619 90 38 00   Note On(0-Off) Ab2

517eb62a 90 39 5f   Note On A2 95
517eb7cf 90 2d 3e   Note On A1 62
517ec050 90 2d 00   Note On(0-Off) A1
517ec1a6 90 39 00   Note On(0-Off) A2
51827819 90 28 33   Note On E1 51

51827824 90 36 34   Note On F#2 52
5182784d 90 39 3c   Note On A2 60

51827854 90 40 64   Note On E3 100
51827984 90 39 00   Note On(0-Off) A2

518279c5 90 40 00   Note On(0-Off) E3
51827a22 90 36 00   Note On(0-Off) F#2
51827af8 90 39 3f   Note On A2 63

51827afd 90 36 04   Note On F#2 4
51827e26 90 36 00   Note On(0-Off) F#2
51827e84 90 39 00   Note On(0-Off) A2
51827eb6 90 28 00   Note On(0-Off) E1
51828324 90 2d 2b   Note On A1 43
5182847a 90 38 12   Note On Ab2 18
5182859a 90 39 2f   Note On A2 47

518285b0 90 38 00   Note On(0-Off) Ab2
5182870f 90 40 38   Note On E3 56
51828804 90 40 00   Note On(0-Off) E3
51828876 90 39 00   Note On(0-Off) A2
518288e2 90 2d 00   Note On(0-Off) A1
51828a20 90 38 0d   Note On Ab2 13
51828bbb 90 38 00   Note On(0-Off) Ab2
51828c15 90 39 11   Note On A2 17
51828d72 90 40 14   Note On E3 20
51828ebd 90 2a 21   Note On F#1 33
51828f44 90 39 00   Note On(0-Off) A2

51828f5a 90 40 00   Note On(0-Off) E3
518290dd 90 38 13   Note On Ab2 19
51829233 90 39 18   Note On A2 24

5182924f 90 38 00   Note On(0-Off) Ab2
518293ab 90 40 20   Note On E3 32
51829497 90 40 00   Note On(0-Off) E3

518294e1 90 39 00   Note On(0-Off) A2
51829660 90 38 13   Note On Ab2 19
51829796 90 2a 00   Note On(0-Off) F#1
518297cd 90 39 23   Note On A2 35

518297d6 90 38 00   Note On(0-Off) Ab2
51829901 90 40 21   Note On E3 33
51829986 90 39 00   Note On(0-Off) A2

5182999a 90 40 00   Note On(0-Off) E3
51829a79 90 40 2c   Note On E3 44

51829a7a 90 36 2b   Note On F#2 43
51829a8f 90 26 2b   Note On D1 43

51829a93 90 39 40   Note On A2 64
51829bff 90 40 00   Note On(0-Off) E3

51829c0f 90 39 00   Note On(0-Off) A2
51829d22 90 42 36   Note On F#3 54
51829db4 90 42 00   Note On(0-Off) F#3
51829dd2 90 36 00   Note On(0-Off) F#2
51829e95 90 36 19   Note On F#2 25
51829eaa 90 3e 59   Note On D3 89
5182a03b 90 26 00   Note On(0-Off) D1
5182a2e2 90 3e 00   Note On(0-Off) D3
5182a3b2 90 3d 11   Note On C#3 17
5182a414 90 36 00   Note On(0-Off) F#2

5182a43b 90 3d 00   Note On(0-Off) C#3
5182a507 90 3d 56   Note On C#3 86

5182a509 90 36 22   Note On F#2 34

5182a51d 90 28 22   Note On E1 34
5182a78d 90 3d 00   Note On(0-Off) C#3

5182a7b0 90 3b 3a   Note On B2 58
5182a7db 90 36 00   Note On(0-Off) F#2
5182a8f4 90 3b 00   Note On(0-Off) B2
5182aa42 90 28 00   Note On(0-Off) E1
5182aae8 90 39 21   Note On A2 33
5182ac17 90 39 00   Note On(0-Off) A2
5182ad37 90 38 15   Note On Ab2 21
5182ae02 90 38 00   Note On(0-Off) Ab2
5182b039 90 39 12   Note On A2 18

5182b039 90 3d 21   Note On C#3 33

5182b03c 90 40 15   Note On E3 21

5182b03e 90 2d 13   Note On A1 19

5182b040 90 3b 1f   Note On B2 31
5182b19e 90 39 00   Note On(0-Off) A2

5182b1b3 90 40 00   Note On(0-Off) E3

5182b1d2 90 3b 00   Note On(0-Off) B2
5182b23a 90 3d 00   Note On(0-Off) C#3
5182b2ec 90 39 14   Note On A2 20

5182b2f3 90 40 1d   Note On E3 29

5182b2f4 90 3d 33   Note On C#3 51

5182b2f5 90 3b 34   Note On B2 52
5182b445 90 39 00   Note On(0-Off) A2

5182b44b 90 40 00   Note On(0-Off) E3

5182b45b 90 3b 00   Note On(0-Off) B2

5182b469 90 3d 00   Note On(0-Off) C#3
5182b5a2 90 40 13   Note On E3 19

5182b5aa 90 39 12   Note On A2 18

5182b5ab 90 3b 15   Note On B2 21

5182b5b1 90 3d 13   Note On C#3 19
5182b71e 90 39 00   Note On(0-Off) A2

5182b726 90 3b 00   Note On(0-Off) B2

5182b735 90 3d 00   Note On(0-Off) C#3

5182b73d 90 40 00   Note On(0-Off) E3
5182b761 90 2d 00   Note On(0-Off) A1
5182b87a 90 3d 33   Note On C#3 51

5182b87d 90 40 1b   Note On E3 27

5182b87e 90 39 21   Note On A2 33

5182b87f 90 3b 36   Note On B2 54
5182b9d0 90 39 00   Note On(0-Off) A2

5182b9df 90 3b 00   Note On(0-Off) B2

5182b9f0 90 40 00   Note On(0-Off) E3

5182b9fd 90 3d 00   Note On(0-Off) C#3
5182bb24 90 3d 15   Note On C#3 21

5182bb2e 90 40 13   Note On E3 19

5182bb30 90 2a 15   Note On F#1 21

5182bb34 90 39 13   Note On A2 19
5182bcac 90 39 00   Note On(0-Off) A2

5182bcca 90 40 00   Note On(0-Off) E3

5182bcd5 90 3d 00   Note On(0-Off) C#3
5182be1e 90 3d 1d   Note On C#3 29

5182be2b 90 39 19   Note On A2 25

5182be2c 90 40 1c   Note On E3 28
5182bf7c 90 39 00   Note On(0-Off) A2

5182bf90 90 40 00   Note On(0-Off) E3

5182bfa4 90 3d 00   Note On(0-Off) C#3
5182c0df 90 3d 3a   Note On C#3 58

5182c0e4 90 40 2c   Note On E3 44

5182c0e6 90 39 27   Note On A2 39
5182c2c9 90 3d 00   Note On(0-Off) C#3

5182c2c9 90 39 00   Note On(0-Off) A2

5182c2c9 90 40 00   Note On(0-Off) E3
5182c3c5 90 3d 2c   Note On C#3 44

5182c3c8 90 40 1a   Note On E3 26

5182c3d1 90 39 28   Note On A2 40

5182c41a 90 2a 00   Note On(0-Off) F#1
5182c529 90 3d 00   Note On(0-Off) C#3

5182c52b 90 40 00   Note On(0-Off) E3

5182c52e 90 39 00   Note On(0-Off) A2
5182c661 90 26 22   Note On D1 34
5182c688 90 36 1d   Note On F#2 29

5182c690 90 40 0d   Note On E3 13

5182c6ac 90 3d 04   Note On C#3 4
5182c7d9 90 3d 00   Note On(0-Off) C#3

5182c80a 90 40 00   Note On(0-Off) E3
5182c827 90 36 00   Note On(0-Off) F#2
5182c940 90 40 19   Note On E3 25

5182c944 90 36 04   Note On F#2 4

5182c956 90 39 1a   Note On A2 26

5182c968 90 3d 0d   Note On C#3 13
5182ca88 90 39 00   Note On(0-Off) A2

5182ca9b 90 3d 00   Note On(0-Off) C#3

5182caa8 90 40 00   Note On(0-Off) E3
5182cadb 90 36 00   Note On(0-Off) F#2
5182cba6 90 36 05   Note On F#2 5

5182cbae 90 39 3c   Note On A2 60

5182cbb0 90 3d 3e   Note On C#3 62

5182cbbf 90 40 15   Note On E3 21
5182cd90 90 39 00   Note On(0-Off) A2
5182cd96 90 3d 00   Note On(0-Off) C#3

5182cdbb 90 40 00   Note On(0-Off) E3

5182cdcc 90 36 00   Note On(0-Off) F#2
5182cea0 90 40 0f   Note On E3 15

5182ceb3 90 36 04   Note On F#2 4
5182cf0b 90 26 00   Note On(0-Off) D1

5182cf1f 90 39 03   Note On A2 3
5182cf30 90 40 00   Note On(0-Off) E3

5182cf7e 90 36 00   Note On(0-Off) F#2
5182cf97 90 39 00   Note On(0-Off) A2
5182d178 90 28 3a   Note On E1 58

5182d183 90 34 15   Note On E2 21

5182d187 90 38 3c   Note On Ab2 60
5182d18d 90 3b 2b   Note On B2 43
5182d2bd 90 34 00   Note On(0-Off) E2

5182d2c8 90 3b 00   Note On(0-Off) B2

5182d2e5 90 38 00   Note On(0-Off) Ab2
5182d475 90 38 14   Note On Ab2 20

5182d478 90 34 1f   Note On E2 31

5182d47c 90 3b 20   Note On B2 32
5182d586 90 3b 00   Note On(0-Off) B2

5182d58a 90 34 00   Note On(0-Off) E2

5182d594 90 38 00   Note On(0-Off) Ab2
5182d6e3 90 38 19   Note On Ab2 25

5182d6ef 90 34 22   Note On E2 34

5182d6f0 90 3b 28   Note On B2 40
5182d843 90 34 00   Note On(0-Off) E2

5182d869 90 3b 00   Note On(0-Off) B2

5182d876 90 38 00   Note On(0-Off) Ab2
5182d912 90 28 00   Note On(0-Off) E1

5182d96f 90 38 1c   Note On Ab2 28
5182d971 90 3b 27   Note On B2 39

5182d97c 90 34 23   Note On E2 35
5182da22 90 34 00   Note On(0-Off) E2

5182da23 90 3b 00   Note On(0-Off) B2

5182da31 90 38 00   Note On(0-Off) Ab2
5182dbd9 90 39 1f   Note On A2 31

5182dbe7 90 31 0e   Note On C#2 14

5182dbea 90 34 4b   Note On E2 75

5182dc03 90 2d 1d   Note On A1 29
5182dd87 90 39 00   Note On(0-Off) A2

5182ddaa 90 34 00   Note On(0-Off) E2

5182ddc8 90 31 00   Note On(0-Off) C#2
5182dec4 90 31 13   Note On C#2 19

5182dec5 90 34 3f   Note On E2 63

5182decd 90 39 2f   Note On A2 47
5182e017 90 34 00   Note On(0-Off) E2

5182e024 90 39 00   Note On(0-Off) A2
5182e034 90 31 00   Note On(0-Off) C#2
5182e17a 90 39 2c   Note On A2 44

5182e17e 90 31 18   Note On C#2 24

5182e18a 90 34 38   Note On E2 56
5182e249 90 2d 00   Note On(0-Off) A1
5182e2f4 90 34 00   Note On(0-Off) E2

5182e2ff 90 39 00   Note On(0-Off) A2

5182e308 90 31 00   Note On(0-Off) C#2
5182e42b 90 2c 3a   Note On Ab1 58

5182e432 90 31 15   Note On C#2 21

5182e438 90 34 52   Note On E2 82

5182e443 90 38 13   Note On Ab2 19
5182e5a2 90 34 00   Note On(0-Off) E2
5182e5c6 90 38 00   Note On(0-Off) Ab2

5182e5d4 90 31 00   Note On(0-Off) C#2
5182e632 90 2c 00   Note On(0-Off) Ab1
5182e6be 90 39 3d   Note On A2 61

5182e6c0 90 34 5b   Note On E2 91

5182e6c4 90 31 13   Note On C#2 19

5182e6df 90 2a 5b   Note On F#1 91
5182e87e 90 39 00   Note On(0-Off) A2

5182e8a5 90 34 00   Note On(0-Off) E2

5182e8c9 90 31 00   Note On(0-Off) C#2
5182e984 90 31 11   Note On C#2 17

5182e987 90 34 3a   Note On E2 58

5182e98c 90 39 3c   Note On A2 60
5182eb2a 90 39 00   Note On(0-Off) A2

5182eb30 90 34 00   Note On(0-Off) E2
5182eb42 90 31 00   Note On(0-Off) C#2
5182ec37 90 34 3f   Note On E2 63

5182ec39 90 39 36   Note On A2 54

5182ec3c 90 31 13   Note On C#2 19
5182ede1 90 39 00   Note On(0-Off) A2

5182ede6 90 34 00   Note On(0-Off) E2

5182edfc 90 31 00   Note On(0-Off) C#2
5182eef2 90 34 3e   Note On E2 62

5182eef8 90 39 27   Note On A2 39

5182ef00 90 31 13   Note On C#2 19
5182ef6f 90 2a 00   Note On(0-Off) F#1
5182f00d 90 31 00   Note On(0-Off) C#2
5182f02f 90 39 00   Note On(0-Off) A2

5182f035 90 34 00   Note On(0-Off) E2
5182f1ae 90 36 20   Note On F#2 32

5182f1b0 90 39 3e   Note On A2 62

5182f1b3 90 32 1c   Note On D2 28

5182f1c0 90 26 2b   Note On D1 43
5182f37b 90 32 00   Note On(0-Off) D2

5182f395 90 39 00   Note On(0-Off) A2

5182f3a3 90 36 00   Note On(0-Off) F#2
5182f45f 90 36 1a   Note On F#2 26

5182f467 90 32 18   Note On D2 24

5182f469 90 39 1a   Note On A2 26
5182f5f7 90 32 00   Note On(0-Off) D2

5182f604 90 36 00   Note On(0-Off) F#2
5182f60d 90 39 00   Note On(0-Off) A2
5182f6f6 90 32 1c   Note On D2 28

5182f6f7 90 36 20   Note On F#2 32

5182f6fd 90 39 1c   Note On A2 28
5182f874 90 32 00   Note On(0-Off) D2

5182f87d 90 36 00   Note On(0-Off) F#2

5182f889 90 39 00   Note On(0-Off) A2
5182f9c1 90 32 1f   Note On D2 31

5182f9c5 90 36 22   Note On F#2 34

5182f9c7 90 39 25   Note On A2 37
5182fa52 90 26 00   Note On(0-Off) D1
5182fabc 90 39 00   Note On(0-Off) A2

5182fac1 90 32 00   Note On(0-Off) D2

5182facb 90 36 00   Note On(0-Off) F#2
5182fc95 90 34 25   Note On E2 37

5182fc9f 90 38 22   Note On Ab2 34

5182fca4 90 3b 33   Note On B2 51

5182fca9 90 28 1f   Note On E1 31
5182fe36 90 34 00   Note On(0-Off) E2

5182fe45 90 3b 00   Note On(0-Off) B2
5182fe5b 90 38 00   Note On(0-Off) Ab2
5182ff73 90 38 33   Note On Ab2 51

5182ff77 90 3b 3c   Note On B2 60

5182ff7c 90 34 22   Note On E2 34
51830086 90 34 00   Note On(0-Off) E2

51830094 90 3b 00   Note On(0-Off) B2

518300b1 90 38 00   Note On(0-Off) Ab2

518300b4 90 28 00   Note On(0-Off) E1
51830233 90 35 3c   Note On F2 60

51830239 90 38 3f   Note On Ab2 63

5183023e 90 3b 4f   Note On B2 79

51830241 90 29 42   Note On F1 66

51830256 90 35 00   Note On(0-Off) F2
518303fe 90 3b 00   Note On(0-Off) B2

5183043b 90 38 00   Note On(0-Off) Ab2
51830545 90 35 4f   Note On F2 79

51830549 90 38 45   Note On Ab2 69

5183054c 90 3b 56   Note On B2 86

5183055b 90 29 00   Note On(0-Off) F1
5183065e 90 35 00   Note On(0-Off) F2
5183068d 90 3b 00   Note On(0-Off) B2

5183068f 90 38 00   Note On(0-Off) Ab2
518307af 90 3d 1a   Note On C#3 26

518307b3 90 36 38   Note On F#2 56

518307be 90 39 3c   Note On A2 60

518307c1 90 2a 3c   Note On F#1 60
518308fd 90 39 00   Note On(0-Off) A2

518308fe 90 3d 00   Note On(0-Off) C#3

51830918 90 36 00   Note On(0-Off) F#2
51830aa1 90 3d 0e   Note On C#3 14

51830aa7 90 39 13   Note On A2 19

51830ab0 90 36 04   Note On F#2 4
51830b53 90 36 00   Note On(0-Off) F#2

51830b55 90 39 00   Note On(0-Off) A2

51830b78 90 3d 00   Note On(0-Off) C#3

51830b82 90 2a 00   Note On(0-Off) F#1
51830c5b 90 2a 1a   Note On F#1 26
51830d37 90 2a 00   Note On(0-Off) F#1
5183127b 90 3d 3e   Note On C#3 62

51831282 90 31 1b   Note On C#2 27

51831284 90 40 4b   Note On E3 75

51831287 90 44 36   Note On Ab3 54

51831288 90 25 38   Note On C#1 56
518315ac 90 25 00   Note On(0-Off) C#1

518315b7 90 44 00   Note On(0-Off) Ab3

518315cc 90 3d 00   Note On(0-Off) C#3

518315db 90 31 00   Note On(0-Off) C#2

518315e1 90 40 00   Note On(0-Off) E3
51831654 90 2c 42   Note On Ab1 66
518317b4 90 2c 00   Note On(0-Off) Ab1

518317b5 90 31 3c   Note On C#2 60
5183194f 90 33 3a   Note On Eb2 58
518319eb 90 31 00   Note On(0-Off) C#2
51831ab1 90 34 56   Note On E2 86
51831af0 90 33 00   Note On(0-Off) Eb2
51831bb6 90 34 00   Note On(0-Off) E2
51831dbe 90 36 28   Note On F#2 40

51831dbe 90 3e 3c   Note On D3 60

51831dbf 90 39 3e   Note On A2 62

51831dc5 90 2d 49   Note On A1 73

51831dd1 90 26 2c   Note On D1 44
51832198 90 36 00   Note On(0-Off) F#2

518321a2 90 3e 00   Note On(0-Off) D3

518321b4 90 39 00   Note On(0-Off) A2
518321e2 90 26 00   Note On(0-Off) D1

5183225c 90 2d 00   Note On(0-Off) A1
518327b2 90 28 49   Note On E1 73

518327b5 90 34 47   Note On E2 71
5183285b 90 28 00   Note On(0-Off) E1

51832882 90 34 00   Note On(0-Off) E2
518328e3 90 38 15   Note On Ab2 21
51832995 90 3b 6d   Note On B2 109
5183299b 90 38 00   Note On(0-Off) Ab2

518329d6 90 3b 00   Note On(0-Off) B2
51832a8f 90 40 45   Note On E3 69

51832acf 90 41 0d   Note On F3 13
51832b29 90 40 00   Note On(0-Off) E3

51832b31 90 41 00   Note On(0-Off) F3
51832b7d 90 44 6e   Note On Ab3 110
51832c06 90 44 00   Note On(0-Off) Ab3
51832cf0 90 4c 20   Note On E4 32
51832d4d 90 4e 4b   Note On F#4 75

51832d56 90 4c 00   Note On(0-Off) E4
51832e22 90 4e 00   Note On(0-Off) F#4
51832f62 90 58 70   Note On E5 112
51833008 90 58 00   Note On(0-Off) E5
5183300f 90 5a 3e   Note On F#5 62
518330a9 90 5c 5e   Note On Ab5 94
518330e0 90 5a 00   Note On(0-Off) F#5
51833167 90 5c 00   Note On(0-Off) Ab5
518331e7 90 5f 6e   Note On B5 110
51833229 90 5f 00   Note On(0-Off) B5
51833d99 90 3d 40   Note On C#3 64
51833d9e 90 40 49   Note On E3 73

51833da0 90 2a 4f   Note On F#1 79

51833da2 90 45 44   Note On A3 68
518340f2 90 45 00   Note On(0-Off) A3
5183411f 90 40 00   Note On(0-Off) E3

51834120 90 3d 00   Note On(0-Off) C#3
518341a0 90 45 5f   Note On A3 95

518341a9 90 40 3d   Note On E3 61

518341aa 90 3d 3e   Note On C#3 62
518341dd 90 2a 00   Note On(0-Off) F#1
5183427f 90 3d 00   Note On(0-Off) C#3
518342de 90 45 00   Note On(0-Off) A3

518342ec 90 40 00   Note On(0-Off) E3
51834336 90 44 67   Note On Ab3 103

5183433a 90 3d 4f   Note On C#3 79

5183433b 90 40 5b   Note On E3 91

5183433c 90 28 5f   Note On E1 95
51834462 90 45 47   Note On A3 71
518344b9 90 44 00   Note On(0-Off) Ab3

518344cf 90 40 00   Note On(0-Off) E3

518344d4 90 3d 00   Note On(0-Off) C#3
51834518 90 45 00   Note On(0-Off) A3
518345fb 90 45 67   Note On A3 103
518346ec 90 45 00   Note On(0-Off) A3
5183471f 90 3d 5e   Note On C#3 94

5183472d 90 28 00   Note On(0-Off) E1
5183480f 90 3d 00   Note On(0-Off) C#3
5183486d 90 40 56   Note On E3 86

518348ac 90 26 3a   Note On D1 58
5183491b 90 40 00   Note On(0-Off) E3

5183492a 90 42 4d   Note On F#3 77
51834bce 90 42 00   Note On(0-Off) F#3
51834bea 90 26 00   Note On(0-Off) D1
51834e0c 90 28 52   Note On E1 82
5183510c 90 28 00   Note On(0-Off) E1
51835376 90 40 2b   Note On E3 43

51835377 90 3d 2c   Note On C#3 44

5183537f 90 39 21   Note On A2 33

51835394 90 2d 1c   Note On A1 28
51835558 90 39 00   Note On(0-Off) A2
518355d7 90 40 00   Note On(0-Off) E3

518355df 90 3d 00   Note On(0-Off) C#3
51835662 90 2d 00   Note On(0-Off) A1
518358e9 90 45 44   Note On A3 68

518358ec 90 3d 47   Note On C#3 71

518358f3 90 40 5b   Note On E3 91

518358f6 90 2c 4b   Note On Ab1 75
51835a5d 90 45 00   Note On(0-Off) A3

51835a5f 90 44 13   Note On Ab3 19
51835a83 90 40 00   Note On(0-Off) E3
51835b00 90 3d 00   Note On(0-Off) C#3

51835b35 90 44 00   Note On(0-Off) Ab3
51835bc1 90 3d 1c   Note On C#3 28

51835bc1 90 40 4f   Note On E3 79
51835be1 90 2c 00   Note On(0-Off) Ab1
51835d8e 90 40 00   Note On(0-Off) E3

51835db7 90 3d 00   Note On(0-Off) C#3
51835e44 90 2a 34   Note On F#1 52

51835e48 90 42 3f   Note On F#3 63

51835e51 90 3d 3f   Note On C#3 63
5183617e 90 3d 00   Note On(0-Off) C#3

518361a9 90 42 00   Note On(0-Off) F#3
518361cc 90 2a 00   Note On(0-Off) F#1
51836395 90 2c 28   Note On Ab1 40

5183639f 90 40 3c   Note On E3 60

518363a4 90 44 3e   Note On Ab3 62

518363a9 90 47 47   Note On B3 71
5183660f 90 40 00   Note On(0-Off) E3
51836630 90 44 00   Note On(0-Off) Ab3

5183664e 90 47 00   Note On(0-Off) B3
518366bb 90 2c 00   Note On(0-Off) Ab1
518368b2 90 4c 5b   Note On E4 91

518368b7 90 2d 3a   Note On A1 58

518368b9 90 40 3f   Note On E3 63

518368ba 90 45 56   Note On A3 86
51836ad3 90 4c 00   Note On(0-Off) E4
51836b11 90 45 00   Note On(0-Off) A3
51836b7c 90 45 15   Note On A3 21
51836c1a 90 40 00   Note On(0-Off) E3
51836cba 90 40 45   Note On E3 69
51836d88 90 2d 00   Note On(0-Off) A1
51836dff 90 2d 21   Note On A1 33
51836ef9 90 40 00   Note On(0-Off) E3
51836f54 90 40 5f   Note On E3 95

51836f69 90 45 00   Note On(0-Off) A3
51837040 90 2d 00   Note On(0-Off) A1
5183709c 90 2d 5e   Note On A1 94
51837153 90 40 00   Note On(0-Off) E3
51837265 90 2d 00   Note On(0-Off) A1
5183737e 90 2a 5e   Note On F#1 94
5183761d 90 3d 3e   Note On C#3 62
5183781e 90 3d 00   Note On(0-Off) C#3
518378da 90 3d 3c   Note On C#3 60

518378db 90 45 4b   Note On A3 75
51837a9c 90 45 00   Note On(0-Off) A3
51837b7d 90 40 4f   Note On E3 79

51837bb3 90 2a 00   Note On(0-Off) F#1
51837cb4 90 3d 00   Note On(0-Off) C#3
51837dbc 90 45 3c   Note On A3 60

51837dc2 90 3d 27   Note On C#3 39
5183815a 90 3d 00   Note On(0-Off) C#3

5183816b 90 45 00   Note On(0-Off) A3
5183829b 90 40 00   Note On(0-Off) E3
518383e3 90 45 67   Note On A3 103
518385e3 90 45 00   Note On(0-Off) A3
5183863d 90 40 42   Note On E3 66
5183871c 90 40 00   Note On(0-Off) E3
51838789 90 3b 52   Note On B2 82
51838817 90 3b 00   Note On(0-Off) B2
518388f5 90 2f 56   Note On B1 86
51838c70 90 2f 00   Note On(0-Off) B1
51838ed0 90 31 2b   Note On C#2 43

51838ee1 90 34 67   Note On E2 103
51838ee4 90 25 67   Note On C#1 103

51838ee9 90 38 13   Note On Ab2 19
51839161 90 31 00   Note On(0-Off) C#2
518391ea 90 38 00   Note On(0-Off) Ab2
51839222 90 25 00   Note On(0-Off) C#1

51839263 90 34 00   Note On(0-Off) E2
51839444 90 26 47   Note On D1 71

51839453 90 36 28   Note On F#2 40

51839454 90 32 3e   Note On D2 62

51839455 90 39 40   Note On A2 64
518397fc 90 32 00   Note On(0-Off) D2

51839809 90 36 00   Note On(0-Off) F#2

5183980e 90 39 00   Note On(0-Off) A2
518398ad 90 26 00   Note On(0-Off) D1
51839a33 90 28 13   Note On E1 19

51839a34 90 38 14   Note On Ab2 20

51839a34 90 34 1a   Note On E2 26

51839a35 90 3b 19   Note On B2 25
51839dee 90 34 00   Note On(0-Off) E2

51839e15 90 28 00   Note On(0-Off) E1

51839e16 90 38 00   Note On(0-Off) Ab2
51839e40 90 3b 00   Note On(0-Off) B2
51839fa4 90 2d 42   Note On A1 66
5183a128 90 38 2f   Note On Ab2 47
5183a23b 90 39 33   Note On A2 51

5183a24a 90 38 00   Note On(0-Off) Ab2
5183a3a4 90 40 59   Note On E3 89
5183a4d9 90 40 00   Note On(0-Off) E3
5183a55f 90 39 00   Note On(0-Off) A2
5183a66b 90 38 0e   Note On Ab2 14
5183a6d3 90 2d 00   Note On(0-Off) A1
5183a793 90 38 00   Note On(0-Off) Ab2

5183a7ba 90 39 18   Note On A2 24
5183a8da 90 40 47   Note On E3 71
5183aac3 90 2a 44   Note On F#1 68
5183ab2f 90 40 00   Note On(0-Off) E3
5183aba5 90 39 00   Note On(0-Off) A2
5183ac5f 90 38 31   Note On Ab2 49
5183adb4 90 39 38   Note On A2 56

5183adc1 90 38 00   Note On(0-Off) Ab2
5183af19 90 40 49   Note On E3 73
5183af96 90 2a 00   Note On(0-Off) F#1
5183b0d7 90 40 00   Note On(0-Off) E3
5183b156 90 39 00   Note On(0-Off) A2
5183b1ff 90 38 15   Note On Ab2 21
5183b34e 90 39 44   Note On A2 68

5183b357 90 38 00   Note On(0-Off) Ab2
5183b4ae 90 40 0d   Note On E3 13
5183b58a 90 40 00   Note On(0-Off) E3
5183b628 90 36 0f   Note On F#2 15

5183b629 90 40 2c   Note On E3 44

5183b63c 90 26 3d   Note On D1 61
5183b89c 90 40 00   Note On(0-Off) E3
5183b8ed 90 39 00   Note On(0-Off) A2
5183b998 90 36 00   Note On(0-Off) F#2

5183b9ab 90 26 00   Note On(0-Off) D1
5184dd43 90 51 44   Note On A4 68
5184ddae 90 51 00   Note On(0-Off) A4
5184dddf 90 51 62   Note On A4 98

5184de41 90 51 00   Note On(0-Off) A4
5184dea5 90 51 6e   Note On A4 110
5184e08a 90 51 00   Note On(0-Off) A4
5184e1d0 90 4c 3e   Note On E4 62
5184e2ad 90 4c 00   Note On(0-Off) E4
5184e342 90 4c 4b   Note On E4 75
5184e6a8 90 4c 00   Note On(0-Off) E4
5184e713 90 51 13   Note On A4 19
5184e7c5 90 51 00   Note On(0-Off) A4
5184e849 90 51 42   Note On A4 66
5184ec51 90 51 00   Note On(0-Off) A4
5184f09b 90 45 3d   Note On A3 61
5184f4fe 90 44 3c   Note On Ab3 60
5184f521 90 45 00   Note On(0-Off) A3
5184f65b 90 42 3a   Note On F#3 58

5184f65e 90 44 00   Note On(0-Off) Ab3
51850081 90 42 00   Note On(0-Off) F#3
518ad5d1 90 3e 3d   Note On D3 61

518ad5d2 90 42 3f   Note On F#3 63

518ad5d3 90 45 14   Note On A3 20
518ad714 90 42 00   Note On(0-Off) F#3

518ad720 90 3e 00   Note On(0-Off) D3

518ad722 90 45 00   Note On(0-Off) A3
518ad769 90 42 5b   Note On F#3 91

518ad771 90 45 56   Note On A3 86

518ad776 90 3e 49   Note On D3 73
518adb68 90 3e 00   Note On(0-Off) D3

518adb6d 90 45 00   Note On(0-Off) A3

518adb70 90 42 00   Note On(0-Off) F#3
518adbbf 90 45 3c   Note On A3 60

518adbd7 90 3e 3d   Note On D3 61

518adbdb 90 42 47   Note On F#3 71
518add7c 90 42 00   Note On(0-Off) F#3

518add87 90 3e 00   Note On(0-Off) D3

518add89 90 45 00   Note On(0-Off) A3
518adde0 90 42 40   Note On F#3 64

518adde2 90 45 3d   Note On A3 61

518addec 90 3e 40   Note On D3 64
518ae0c7 90 42 00   Note On(0-Off) F#3

518ae0cb 90 3e 00   Note On(0-Off) D3

518ae0d1 90 45 00   Note On(0-Off) A3
518b5513 90 3e 52   Note On D3 82
518b5a62 90 3e 00   Note On(0-Off) D3
518b62d6 90 26 2b   Note On D1 43

518b62df 90 36 19   Note On F#2 25

518b62e2 90 3e 3d   Note On D3 61

518b62e8 90 39 44   Note On A2 68

518b62e9 90 2d 44   Note On A1 68

518b62f2 90 32 21   Note On D2 33
518b6b33 90 39 00   Note On(0-Off) A2

518b6b35 90 36 00   Note On(0-Off) F#2

518b6b39 90 3e 00   Note On(0-Off) D3
518b6dd8 90 39 5e   Note On A2 94
518b700e 90 3e 69   Note On D3 105
518b705a 90 39 00   Note On(0-Off) A2
518b7273 90 3e 00   Note On(0-Off) D3
518b72a3 90 40 5b   Note On E3 91
518b73da 90 40 00   Note On(0-Off) E3

518b73f7 90 26 00   Note On(0-Off) D1
518b743a 90 2d 00   Note On(0-Off) A1

518b7463 90 32 00   Note On(0-Off) D2
518b768d 90 34 45   Note On E2 69

518b7693 90 3e 45   Note On D3 69

518b7695 90 3b 62   Note On B2 98

518b7697 90 37 3d   Note On G2 61

518b769a 90 2f 5f   Note On B1 95
518b76a6 90 28 28   Note On E1 40

518b76aa 90 26 40   Note On D1 64

518b76f5 90 26 00   Note On(0-Off) D1
518b7987 90 28 00   Note On(0-Off) E1

518b798a 90 3b 00   Note On(0-Off) B2

518b7993 90 37 00   Note On(0-Off) G2

518b79ad 90 3e 00   Note On(0-Off) D3
518b79f7 90 34 00   Note On(0-Off) E2

518b7a0f 90 2f 00   Note On(0-Off) B1
518b7a59 90 3b 59   Note On B2 89

518b7a5b 90 3e 42   Note On D3 66

518b7a60 90 37 3d   Note On G2 61
518b7c03 90 34 49   Note On E2 73
518b7cfd 90 37 00   Note On(0-Off) G2

518b7d00 90 3b 00   Note On(0-Off) B2
518b7d1f 90 3e 00   Note On(0-Off) D3
518b7de4 90 3e 3e   Note On D3 62

518b7de4 90 3b 4b   Note On B2 75

518b7de7 90 37 3e   Note On G2 62

518b7e03 90 28 18   Note On E1 24
518b80af 90 37 00   Note On(0-Off) G2

518b80b9 90 3b 00   Note On(0-Off) B2

518b80d2 90 3e 00   Note On(0-Off) D3
518b8184 90 3e 3e   Note On D3 62

518b8186 90 3b 52   Note On B2 82

518b8189 90 37 3f   Note On G2 63
518b81d3 90 28 00   Note On(0-Off) E1

518b821b 90 34 00   Note On(0-Off) E2
518b8339 90 37 00   Note On(0-Off) G2

518b8353 90 34 3a   Note On E2 58
518b8363 90 3b 00   Note On(0-Off) B2

518b83a9 90 3e 00   Note On(0-Off) D3
518b84da 90 34 00   Note On(0-Off) E2
518b8552 90 39 45   Note On A2 69

518b8554 90 40 4f   Note On E3 79

518b8556 90 3d 5e   Note On C#3 94
518b855f 90 2a 5b   Note On F#1 91
518b881c 90 39 00   Note On(0-Off) A2

518b883a 90 40 00   Note On(0-Off) E3

518b884e 90 3d 00   Note On(0-Off) C#3
518b88dd 90 3d 3e   Note On C#3 62

518b88de 90 40 4b   Note On E3 75
518b88e7 90 39 42   Note On A2 66

518b88ed 90 2a 00   Note On(0-Off) F#1
518b8a90 90 2a 3f   Note On F#1 63
518b8b53 90 40 00   Note On(0-Off) E3

518b8b8c 90 3d 00   Note On(0-Off) C#3

518b8b9b 90 2a 00   Note On(0-Off) F#1
518b8baf 90 39 00   Note On(0-Off) A2
518b8c5c 90 39 3f   Note On A2 63

518b8c5d 90 40 49   Note On E3 73

518b8c5e 90 3d 3e   Note On C#3 62

518b8c6c 90 2a 56   Note On F#1 86
518b8f43 90 40 00   Note On(0-Off) E3

518b8f49 90 39 00   Note On(0-Off) A2

518b8f54 90 3d 00   Note On(0-Off) C#3
518b9003 90 40 59   Note On E3 89

518b9004 90 3d 56   Note On C#3 86

518b9008 90 39 49   Note On A2 73
518b9015 90 2a 00   Note On(0-Off) F#1
518b91b7 90 2a 3e   Note On F#1 62
518b9275 90 3d 00   Note On(0-Off) C#3

518b9291 90 39 00   Note On(0-Off) A2

518b92a2 90 40 00   Note On(0-Off) E3

518b92cc 90 2a 00   Note On(0-Off) F#1
518b9394 90 37 44   Note On G2 68
518b939c 90 3e 56   Note On D3 86

518b939e 90 3b 5b   Note On B2 91

518b93ae 90 2b 47   Note On G1 71
518b9635 90 3b 00   Note On(0-Off) B2

518b9638 90 37 00   Note On(0-Off) G2

518b9653 90 3e 00   Note On(0-Off) D3
518b9707 90 3e 42   Note On D3 66

518b9709 90 37 45   Note On G2 69

518b970a 90 3b 5f   Note On B2 95
518b9744 90 2b 00   Note On(0-Off) G1
518b98bc 90 37 00   Note On(0-Off) G2
518b98c4 90 2b 49   Note On G1 73

518b990c 90 3b 00   Note On(0-Off) B2
518b99d9 90 3e 00   Note On(0-Off) D3

518b99ea 90 2b 00   Note On(0-Off) G1
518b9a8c 90 39 3f   Note On A2 63

518b9a8e 90 40 56   Note On E3 86

518b9a90 90 3d 5b   Note On C#3 91

518b9a95 90 2d 4f   Note On A1 79
518b9d63 90 39 00   Note On(0-Off) A2
518b9d7c 90 40 00   Note On(0-Off) E3

518b9d7e 90 3d 00   Note On(0-Off) C#3
518b9e2f 90 3d 42   Note On C#3 66

518b9e30 90 40 3d   Note On E3 61

518b9e3d 90 39 3f   Note On A2 63
518b9ec3 90 2d 00   Note On(0-Off) A1
518b9f7f 90 39 00   Note On(0-Off) A2
518b9fc0 90 3d 00   Note On(0-Off) C#3

518b9fcb 90 40 00   Note On(0-Off) E3
518ba020 90 2d 23   Note On A1 35
518ba132 90 2d 00   Note On(0-Off) A1
518ba6c5 90 32 3a   Note On D2 58

518ba6c7 90 36 33   Note On F#2 51

518ba6c9 90 26 3c   Note On D1 60

518ba6cd 90 2d 3f   Note On A1 63

518ba6ce 90 39 4d   Note On A2 77

518ba6d5 90 3e 47   Note On D3 71
518ba993 90 36 00   Note On(0-Off) F#2
518baa12 90 3e 00   Note On(0-Off) D3

518baa2a 90 39 00   Note On(0-Off) A2
518bae01 90 36 33   Note On F#2 51

518bae03 90 3e 5f   Note On D3 95

518bae07 90 39 5e   Note On A2 94
518bb993 90 36 00   Note On(0-Off) F#2
518bba50 90 26 00   Note On(0-Off) D1
518bba9b 90 2d 00   Note On(0-Off) A1

518bbaaa 90 32 00   Note On(0-Off) D2
518bbb1a 90 3e 00   Note On(0-Off) D3
518bbb43 90 39 00   Note On(0-Off) A2
518bbc8d 90 37 23   Note On G2 35

518bbc9c 90 2f 3f   Note On B1 63

518bbc9d 90 34 3c   Note On E2 60

518bbc9f 90 3b 49   Note On B2 73

518bbca0 90 3e 3c   Note On D3 60

518bbca7 90 28 15   Note On E1 21
518bc5e6 90 37 00   Note On(0-Off) G2
518bc649 90 3b 00   Note On(0-Off) B2
518bc686 90 3e 00   Note On(0-Off) D3
518bc896 90 2f 00   Note On(0-Off) B1

518bc8bb 90 28 00   Note On(0-Off) E1
518bc8d3 90 34 00   Note On(0-Off) E2
518bc959 90 2a 64   Note On F#1 100

518bc970 90 3d 3e   Note On C#3 62

518bc971 90 39 42   Note On A2 66

518bc974 90 42 4f   Note On F#3 79

518bc97a 90 45 34   Note On A3 52
518bcbbd 90 42 00   Note On(0-Off) F#3

518bcbf5 90 39 00   Note On(0-Off) A2
518bcbfe 90 45 00   Note On(0-Off) A3

518bcc18 90 3d 00   Note On(0-Off) C#3
518bccf9 90 3d 49   Note On C#3 73

518bccfd 90 45 49   Note On A3 73

518bcd07 90 39 34   Note On A2 52

518bcd0a 90 42 3f   Note On F#3 63
518bcd4e 90 2a 00   Note On(0-Off) F#1
518bce99 90 2a 3e   Note On F#1 62
518bcf93 90 42 00   Note On(0-Off) F#3

518bcf98 90 39 00   Note On(0-Off) A2

518bcf9a 90 2a 00   Note On(0-Off) F#1

518bcf9b 90 3d 00   Note On(0-Off) C#3

518bcfb9 90 45 00   Note On(0-Off) A3
518bd066 90 2a 42   Note On F#1 66

518bd069 90 3d 4b   Note On C#3 75

518bd073 90 39 3c   Note On A2 60

518bd076 90 45 3d   Note On A3 61

518bd07b 90 42 3f   Note On F#3 63
518bd2eb 90 42 00   Note On(0-Off) F#3

518bd301 90 45 00   Note On(0-Off) A3
518bd30b 90 39 00   Note On(0-Off) A2

518bd30f 90 3d 00   Note On(0-Off) C#3
518bd3d4 90 2a 00   Note On(0-Off) F#1

518bd3e1 90 42 4f   Note On F#3 79
518bd3f4 90 39 3c   Note On A2 60

518bd3fb 90 3d 45   Note On C#3 69
518bd537 90 3d 00   Note On(0-Off) C#3

518bd550 90 42 00   Note On(0-Off) F#3

518bd560 90 39 00   Note On(0-Off) A2

518bd561 90 2a 2c   Note On F#1 44
518bd68e 90 2a 00   Note On(0-Off) F#1
518bd7e2 90 3e 45   Note On D3 69

518bd7e2 90 37 47   Note On G2 71

518bd7e2 90 3b 62   Note On B2 98

518bd7e3 90 2b 3d   Note On G1 61
518bda6b 90 37 00   Note On(0-Off) G2

518bda6c 90 3b 00   Note On(0-Off) B2
518bda82 90 3e 00   Note On(0-Off) D3
518bdb2a 90 3e 3e   Note On D3 62

518bdb2e 90 3b 60   Note On B2 96

518bdb33 90 37 44   Note On G2 68
518bdb58 90 2b 00   Note On(0-Off) G1
518bdcfc 90 2b 52   Note On G1 82
518bdd88 90 37 00   Note On(0-Off) G2
518bddea 90 3b 00   Note On(0-Off) B2
518bde2e 90 2b 00   Note On(0-Off) G1

518bde58 90 3e 00   Note On(0-Off) D3
518bdedc 90 40 3f   Note On E3 63

518bdee0 90 39 3f   Note On A2 63

518bdee2 90 3d 4f   Note On C#3 79

518bdee5 90 2d 5b   Note On A1 91
518be1b5 90 39 00   Note On(0-Off) A2
518be1e1 90 40 00   Note On(0-Off) E3

518be1e2 90 3d 00   Note On(0-Off) C#3
518be28a 90 40 36   Note On E3 54

518be28b 90 3d 44   Note On C#3 68

518be294 90 39 40   Note On A2 64
518be30f 90 2d 00   Note On(0-Off) A1
518be397 90 39 00   Note On(0-Off) A2
518be413 90 3d 00   Note On(0-Off) C#3
518be42b 90 40 00   Note On(0-Off) E3

518be467 90 2d 36   Note On A1 54
518be58b 90 2d 00   Note On(0-Off) A1
518be5f7 90 42 47   Note On F#3 71

518be5f8 90 2a 5f   Note On F#1 95

518be5f9 90 3d 4d   Note On C#3 77

518be5fd 90 39 34   Note On A2 52

518be5ff 90 45 38   Note On A3 56
518be8ac 90 42 00   Note On(0-Off) F#3

518be8b2 90 39 00   Note On(0-Off) A2

518be8c1 90 3d 00   Note On(0-Off) C#3

518be8c5 90 45 00   Note On(0-Off) A3
518be989 90 42 3e   Note On F#3 62

518be999 90 39 4b   Note On A2 75

518be99d 90 3d 56   Note On C#3 86

518be9bb 90 2a 00   Note On(0-Off) F#1
518beb55 90 3d 00   Note On(0-Off) C#3

518beb5b 90 2a 3a   Note On F#1 58

518beb6e 90 39 00   Note On(0-Off) A2
518beb91 90 42 00   Note On(0-Off) F#3
518bec81 90 2a 00   Note On(0-Off) F#1
518bed2f 90 42 3c   Note On F#3 60

518bed3b 90 3e 5e   Note On D3 94

518bed3c 90 3b 47   Note On B2 71

518bed4d 90 2f 40   Note On B1 64
518bf02c 90 42 00   Note On(0-Off) F#3

518bf030 90 3e 00   Note On(0-Off) D3

518bf036 90 3b 00   Note On(0-Off) B2
518bf0de 90 42 3e   Note On F#3 62

518bf0e3 90 3e 52   Note On D3 82

518bf0e6 90 3b 60   Note On B2 96
518bf17d 90 2f 00   Note On(0-Off) B1
518bf289 90 2f 4f   Note On B1 79
518bf321 90 42 00   Note On(0-Off) F#3

518bf32b 90 3e 00   Note On(0-Off) D3
518bf3a8 90 2f 00   Note On(0-Off) B1

518bf3b2 90 3b 00   Note On(0-Off) B2
518bf442 90 3e 5b   Note On D3 91

518bf445 90 43 3f   Note On G3 63

518bf44c 90 28 40   Note On E1 64

518bf44e 90 3b 44   Note On B2 68
518bf6fd 90 3b 00   Note On(0-Off) B2

518bf70d 90 43 00   Note On(0-Off) G3

518bf715 90 3e 00   Note On(0-Off) D3
518bf7d2 90 43 3a   Note On G3 58

518bf7d4 90 3b 45   Note On B2 69

518bf7d5 90 3e 44   Note On D3 68
518bf899 90 28 00   Note On(0-Off) E1
518bf950 90 28 3f   Note On E1 63
518bfa5d 90 28 00   Note On(0-Off) E1

518bfa71 90 43 00   Note On(0-Off) G3

518bfa74 90 3b 00   Note On(0-Off) B2

518bfa7b 90 3e 00   Note On(0-Off) D3
518bfb3c 90 43 40   Note On G3 64

518bfb40 90 3e 59   Note On D3 89

518bfb41 90 3b 52   Note On B2 82

518bfb42 90 28 47   Note On E1 71
518bfe31 90 43 00   Note On(0-Off) G3

518bfe33 90 3b 00   Note On(0-Off) B2

518bfe38 90 3e 00   Note On(0-Off) D3
518bfec4 90 43 4d   Note On G3 77

518bfec8 90 3e 59   Note On D3 89

518bfecc 90 3b 64   Note On B2 100
518bff76 90 28 00   Note On(0-Off) E1
518bffef 90 3b 00   Note On(0-Off) B2

518c0011 90 3e 00   Note On(0-Off) D3

518c0029 90 43 00   Note On(0-Off) G3

518c0041 90 28 3a   Note On E1 58
518c0138 90 28 00   Note On(0-Off) E1
518c023d 90 2d 64   Note On A1 100

518c0244 90 37 56   Note On G2 86

518c0245 90 3e 67   Note On D3 103

518c0246 90 3b 6d   Note On B2 109
518c0519 90 37 00   Note On(0-Off) G2

518c051c 90 3b 00   Note On(0-Off) B2

518c0547 90 3e 00   Note On(0-Off) D3
518c05c0 90 3e 5f   Note On D3 95

518c05c1 90 3b 69   Note On B2 105

518c05c3 90 37 5b   Note On G2 91
518c0671 90 2d 00   Note On(0-Off) A1
518c079a 90 2d 3d   Note On A1 61

518c07b8 90 37 00   Note On(0-Off) G2
518c0865 90 3b 00   Note On(0-Off) B2

518c0869 90 2d 00   Note On(0-Off) A1
518c08d2 90 3e 00   Note On(0-Off) D3
518c0949 90 2d 69   Note On A1 105

518c0950 90 39 4b   Note On A2 75

518c0951 90 3d 69   Note On C#3 105

518c0953 90 40 66   Note On E3 102
518c09d2 90 2d 00   Note On(0-Off) A1

518c09dd 90 39 00   Note On(0-Off) A2

518c09de 90 3d 00   Note On(0-Off) C#3

518c09e1 90 40 00   Note On(0-Off) E3
518c0afa 90 39 4b   Note On A2 75

518c0afb 90 3d 62   Note On C#3 98

518c0aff 90 2d 5e   Note On A1 94

518c0b02 90 40 45   Note On E3 69
518c0b62 90 3d 00   Note On(0-Off) C#3

518c0b6c 90 39 00   Note On(0-Off) A2

518c0b74 90 40 00   Note On(0-Off) E3
518c0b78 90 2d 00   Note On(0-Off) A1
518c0cd2 90 2d 62   Note On A1 98

518c0ce6 90 40 47   Note On E3 71

518c0ce9 90 3d 4b   Note On C#3 75

518c0cee 90 39 36   Note On A2 54
518c0d26 90 3d 00   Note On(0-Off) C#3

518c0d35 90 39 00   Note On(0-Off) A2

518c0d44 90 40 00   Note On(0-Off) E3

518c0d6b 90 2d 00   Note On(0-Off) A1
518c0eda 90 40 52   Note On E3 82
518c0edb 90 3d 59   Note On C#3 89

518c0edc 90 39 3a   Note On A2 58

518c0edd 90 2d 4b   Note On A1 75

518c0f0a 90 39 00   Note On(0-Off) A2

518c0f0f 90 3d 00   Note On(0-Off) C#3

518c0f11 90 40 00   Note On(0-Off) E3
518c0f81 90 2d 00   Note On(0-Off) A1
518c1091 90 26 60   Note On D1 96

518c1094 90 39 3a   Note On A2 58

518c1095 90 36 33   Note On F#2 51

518c1096 90 3e 5b   Note On D3 91
518c12fc 90 3e 00   Note On(0-Off) D3

518c1309 90 39 00   Note On(0-Off) A2

518c1330 90 36 00   Note On(0-Off) F#2
518c1418 90 36 28   Note On F#2 40

518c1419 90 3e 3c   Note On D3 60

518c141c 90 39 4f   Note On A2 79
518c14cc 90 26 00   Note On(0-Off) D1
518c15f8 90 26 45   Note On D1 69
518c161f 90 36 00   Note On(0-Off) F#2

518c166f 90 39 00   Note On(0-Off) A2
518c1700 90 3e 00   Note On(0-Off) D3

518c1701 90 26 00   Note On(0-Off) D1
518c17b0 90 37 44   Note On G2 68
518c17b9 90 3b 5e   Note On B2 94

518c17bb 90 28 62   Note On E1 98

518c17bf 90 3e 45   Note On D3 69
518c1a89 90 37 00   Note On(0-Off) G2
518c1a8e 90 3e 00   Note On(0-Off) D3

518c1ab4 90 3b 00   Note On(0-Off) B2
518c1b80 90 3e 5b   Note On D3 91

518c1b85 90 3b 64   Note On B2 100

518c1b87 90 37 47   Note On G2 71
518c1c6b 90 28 00   Note On(0-Off) E1
518c1d2e 90 28 31   Note On E1 49
518c1dd6 90 37 00   Note On(0-Off) G2
518c1e24 90 3b 00   Note On(0-Off) B2

518c1e29 90 3e 00   Note On(0-Off) D3

518c1e48 90 28 00   Note On(0-Off) E1
518c1ee7 90 3e 52   Note On D3 82

518c1eec 90 37 44   Note On G2 68

518c1eee 90 3b 64   Note On B2 100

518c1efd 90 2b 5e   Note On G1 94
518c21e6 90 37 00   Note On(0-Off) G2

518c21e7 90 3e 00   Note On(0-Off) D3

518c220c 90 3b 00   Note On(0-Off) B2
518c229c 90 3e 59   Note On D3 89

518c229f 90 3b 66   Note On B2 102

518c22a4 90 37 4b   Note On G2 75
518c234d 90 2b 00   Note On(0-Off) G1
518c23d6 90 37 00   Note On(0-Off) G2
518c2445 90 3b 00   Note On(0-Off) B2

518c2447 90 3e 00   Note On(0-Off) D3

518c2450 90 2b 4b   Note On G1 75
518c2584 90 2b 00   Note On(0-Off) G1
518c2605 90 2d 5f   Note On A1 95

518c260f 90 40 4f   Note On E3 79

518c2611 90 39 49   Note On A2 73

518c2613 90 3d 69   Note On C#3 105
518c290b 90 39 00   Note On(0-Off) A2

518c2946 90 40 00   Note On(0-Off) E3

518c294d 90 3d 00   Note On(0-Off) C#3
518c29eb 90 40 52   Note On E3 82

518c29ed 90 3d 60   Note On C#3 96

518c29f5 90 39 45   Note On A2 69
518c2a6f 90 2d 00   Note On(0-Off) A1
518c2bdd 90 2d 3e   Note On A1 62
518c2c22 90 40 00   Note On(0-Off) E3

518c2c32 90 3d 00   Note On(0-Off) C#3

518c2c74 90 39 00   Note On(0-Off) A2
518c2d06 90 2d 00   Note On(0-Off) A1
518c2d8b 90 39 56   Note On A2 86

518c2d8c 90 26 60   Note On D1 96

518c2d8e 90 3e 59   Note On D3 89

518c2d9a 90 36 4d   Note On F#2 77
518c2eae 90 36 00   Note On(0-Off) F#2

518c2ec1 90 3e 00   Note On(0-Off) D3

518c2ee0 90 39 00   Note On(0-Off) A2
518c2f0a 90 26 00   Note On(0-Off) D1
518c3e0d 90 3d 45   Note On C#3 69

518c3e0e 90 2a 59   Note On F#1 89

518c3e0f 90 39 3d   Note On A2 61

518c3e13 90 45 4f   Note On A3 79

518c3e17 90 42 3c   Note On F#3 60
518c40b5 90 39 00   Note On(0-Off) A2
518c40c3 90 3d 00   Note On(0-Off) C#3

518c40d1 90 42 00   Note On(0-Off) F#3

518c40e0 90 45 00   Note On(0-Off) A3
518c418f 90 42 4f   Note On F#3 79

518c418f 90 3d 5f   Note On C#3 95

518c4190 90 39 49   Note On A2 73
518c4236 90 2a 00   Note On(0-Off) F#1
518c4333 90 3d 00   Note On(0-Off) C#3

518c4355 90 42 00   Note On(0-Off) F#3

518c436f 90 39 00   Note On(0-Off) A2

518c4370 90 2a 42   Note On F#1 66
518c4445 90 2a 00   Note On(0-Off) F#1
518c4515 90 2b 42   Note On G1 66

518c4518 90 37 47   Note On G2 71

518c4519 90 3b 5b   Note On B2 91

518c451b 90 3e 49   Note On D3 73
518c4744 90 37 00   Note On(0-Off) G2

518c476e 90 3b 00   Note On(0-Off) B2
518c478f 90 2b 00   Note On(0-Off) G1
518c4821 90 3e 00   Note On(0-Off) D3
518c48b2 90 39 40   Note On A2 64

518c48b5 90 2d 4d   Note On A1 77

518c48b8 90 3d 42   Note On C#3 66

518c48e2 90 40 4f   Note On E3 79
518c4a99 90 39 00   Note On(0-Off) A2
518c4af9 90 2d 00   Note On(0-Off) A1

518c4b00 90 40 00   Note On(0-Off) E3

518c4b0d 90 3d 00   Note On(0-Off) C#3
518c4c46 90 3e 2f   Note On D3 47

518c4c58 90 39 03   Note On A2 3

518c4c6b 90 36 28   Note On F#2 40

518c4c6e 90 26 47   Note On D1 71
518c4e6c 90 36 00   Note On(0-Off) F#2
518c4edd 90 3e 00   Note On(0-Off) D3

518c4eea 90 39 00   Note On(0-Off) A2
518c5003 90 3e 4f   Note On D3 79

518c5009 90 36 2f   Note On F#2 47

518c500a 90 39 4d   Note On A2 77
518c50d1 90 26 00   Note On(0-Off) D1
518c51c2 90 26 3a   Note On D1 58
518c5295 90 3e 00   Note On(0-Off) D3

518c5297 90 36 00   Note On(0-Off) F#2

518c52a6 90 26 00   Note On(0-Off) D1
518c52bd 90 39 00   Note On(0-Off) A2
518c538c 90 36 2c   Note On F#2 44

518c5392 90 3e 3f   Note On D3 63

518c5393 90 39 47   Note On A2 71

518c53a7 90 26 52   Note On D1 82
518c5615 90 3e 00   Note On(0-Off) D3

518c5618 90 36 00   Note On(0-Off) F#2

518c5647 90 39 00   Note On(0-Off) A2
518c570c 90 3e 3e   Note On D3 62

518c5714 90 39 4b   Note On A2 75

518c571a 90 36 3a   Note On F#2 58
518c5794 90 26 00   Note On(0-Off) D1
518c5825 90 36 00   Note On(0-Off) F#2
518c585e 90 39 00   Note On(0-Off) A2

518c5865 90 3e 00   Note On(0-Off) D3
518c58dd 90 26 40   Note On D1 64
518c5a37 90 26 00   Note On(0-Off) D1
518c5ab5 90 3b 5b   Note On B2 91

518c5ab9 90 42 3d   Note On F#3 61

518c5abb 90 3e 64   Note On D3 100

518c5abe 90 2f 60   Note On B1 96
518c5d7d 90 3b 00   Note On(0-Off) B2

518c5d8d 90 3e 00   Note On(0-Off) D3

518c5d90 90 42 00   Note On(0-Off) F#3
518c5e20 90 3b 52   Note On B2 82

518c5e22 90 42 3c   Note On F#3 60

518c5e24 90 3e 56   Note On D3 86
518c5e74 90 2f 00   Note On(0-Off) B1
518c5f2d 90 3b 00   Note On(0-Off) B2
518c5fb4 90 2f 5b   Note On B1 91

518c5fc4 90 3e 00   Note On(0-Off) D3
518c6025 90 42 00   Note On(0-Off) F#3
518c60db 90 2f 00   Note On(0-Off) B1
518c61a7 90 3e 56   Note On D3 86

518c61a9 90 3b 64   Note On B2 100

518c61ae 90 47 5b   Note On B3 91
518c61b7 90 2f 64   Note On B1 100
518c6428 90 47 00   Note On(0-Off) B3

518c6472 90 3e 00   Note On(0-Off) D3

518c6475 90 3b 00   Note On(0-Off) B2
518c6513 90 42 69   Note On F#3 105

518c651a 90 3b 5e   Note On B2 94

518c651b 90 3e 64   Note On D3 100

518c6524 90 2f 00   Note On(0-Off) B1
518c66eb 90 2f 64   Note On B1 100
518c67ad 90 42 00   Note On(0-Off) F#3

518c67c7 90 3b 00   Note On(0-Off) B2

518c67d3 90 3e 00   Note On(0-Off) D3
518c6826 90 2f 00   Note On(0-Off) B1
518c6888 90 43 40   Note On G3 64

518c6889 90 3e 66   Note On D3 102

518c688a 90 28 62   Note On E1 98

518c688e 90 3b 67   Note On B2 103
518c6989 90 3b 00   Note On(0-Off) B2
518c69f8 90 3e 00   Note On(0-Off) D3

518c6a0f 90 43 00   Note On(0-Off) G3
518c6a25 90 3e 3c   Note On D3 60

518c6a2e 90 42 3f   Note On F#3 63

518c6a40 90 3b 40   Note On B2 64
518c6ace 90 3e 00   Note On(0-Off) D3

518c6ae6 90 3b 00   Note On(0-Off) B2
518c6b4b 90 42 00   Note On(0-Off) F#3
518c6bee 90 43 40   Note On G3 64

518c6bf0 90 3e 69   Note On D3 105

518c6bf4 90 3b 60   Note On B2 96
518c6cfc 90 3b 00   Note On(0-Off) B2

518c6d00 90 28 00   Note On(0-Off) E1

518c6d4c 90 43 00   Note On(0-Off) G3

518c6d51 90 3e 00   Note On(0-Off) D3
518c6daf 90 42 5f   Note On F#3 95

518c6db9 90 3e 64   Note On D3 100

518c6dbb 90 28 52   Note On E1 82

518c6dbc 90 3b 64   Note On B2 100
518c6e4c 90 3b 00   Note On(0-Off) B2

518c6e4f 90 3e 00   Note On(0-Off) D3

518c6e8b 90 28 00   Note On(0-Off) E1
518c6f2a 90 42 00   Note On(0-Off) F#3
518c6f9a 90 2d 70   Note On A1 112

518c6f9d 90 3d 67   Note On C#3 103

518c6f9f 90 45 67   Note On A3 103

518c6fa3 90 41 64   Note On F3 100
518c7042 90 41 00   Note On(0-Off) F3
518c7138 90 45 00   Note On(0-Off) A3
518c71cc 90 3d 00   Note On(0-Off) C#3
518c7316 90 3d 40   Note On C#3 64

518c7317 90 45 64   Note On A3 100

518c731c 90 40 64   Note On E3 100
518c73be 90 2d 00   Note On(0-Off) A1
518c7504 90 2d 47   Note On A1 71
518c7576 90 45 00   Note On(0-Off) A3

518c7579 90 40 00   Note On(0-Off) E3
518c7586 90 3d 00   Note On(0-Off) C#3
518c75fe 90 2d 00   Note On(0-Off) A1
518c7693 90 47 59   Note On B3 89

518c7694 90 44 49   Note On Ab3 73

518c7696 90 40 34   Note On E3 52

518c76a6 90 28 67   Note On E1 103
518c798d 90 40 00   Note On(0-Off) E3

518c798d 90 47 00   Note On(0-Off) B3

518c79b1 90 44 00   Note On(0-Off) Ab3
518c7a4b 90 47 62   Note On B3 98

518c7a4f 90 40 4f   Note On E3 79

518c7a52 90 44 67   Note On Ab3 103
518c7b58 90 28 00   Note On(0-Off) E1
518c7c4b 90 28 3f   Note On E1 63
518c7cff 90 40 00   Note On(0-Off) E3

518c7d11 90 28 00   Note On(0-Off) E1

518c7d13 90 47 00   Note On(0-Off) B3

518c7d18 90 44 00   Note On(0-Off) Ab3
518c7ddb 90 47 4d   Note On B3 77

518c7ddc 90 44 64   Note On Ab3 100

518c7dde 90 40 49   Note On E3 73

518c7ddf 90 28 5b   Note On E1 91
518c80ab 90 47 00   Note On(0-Off) B3
518c80b0 90 40 00   Note On(0-Off) E3

518c80cb 90 44 00   Note On(0-Off) Ab3

518c80dd 90 28 00   Note On(0-Off) E1
518c8189 90 2d 66   Note On A1 102

518c819c 90 40 6b   Note On E3 107

518c81a2 90 3d 70   Note On C#3 112

518c81a4 90 45 64   Note On A3 100
518c8587 90 2d 00   Note On(0-Off) A1

518c8588 90 3d 00   Note On(0-Off) C#3

518c858d 90 45 00   Note On(0-Off) A3

518c8594 90 40 00   Note On(0-Off) E3
518ca00e 90 44 60   Note On Ab3 96

518ca015 90 47 64   Note On B3 100

518ca017 90 40 44   Note On E3 68

518ca019 90 28 56   Note On E1 86
518ca2dd 90 47 00   Note On(0-Off) B3

518ca2e0 90 40 00   Note On(0-Off) E3

518ca2ee 90 44 00   Note On(0-Off) Ab3
518ca3b2 90 44 66   Note On Ab3 102

518ca3b4 90 47 60   Note On B3 96

518ca3b9 90 40 40   Note On E3 64
518ca493 90 28 00   Note On(0-Off) E1
518ca54d 90 28 3f   Note On E1 63
518ca614 90 40 00   Note On(0-Off) E3

518ca616 90 44 00   Note On(0-Off) Ab3

518ca629 90 47 00   Note On(0-Off) B3

518ca62c 90 28 00   Note On(0-Off) E1
518ca70a 90 40 42   Note On E3 66

518ca70b 90 47 52   Note On B3 82

518ca70c 90 44 66   Note On Ab3 102

518ca70d 90 28 4d   Note On E1 77
518ca8d1 90 40 00   Note On(0-Off) E3

518ca8fc 90 28 00   Note On(0-Off) E1
518ca93c 90 47 00   Note On(0-Off) B3

518ca941 90 44 00   Note On(0-Off) Ab3
518caa14 90 28 40   Note On E1 64

518caa19 90 44 62   Note On Ab3 98

518caa26 90 40 3d   Note On E3 61

518caa27 90 47 4d   Note On B3 77
518caca7 90 40 00   Note On(0-Off) E3
518cacbb 90 44 00   Note On(0-Off) Ab3

518caccc 90 47 00   Note On(0-Off) B3
518cade8 90 44 5b   Note On Ab3 91

518cade9 90 40 40   Note On E3 64

518cade9 90 47 4b   Note On B3 75
518cae7d 90 28 00   Note On(0-Off) E1
518cafb9 90 28 3f   Note On E1 63
518cb05e 90 40 00   Note On(0-Off) E3

518cb060 90 47 00   Note On(0-Off) B3

518cb066 90 44 00   Note On(0-Off) Ab3
518cb0e3 90 28 00   Note On(0-Off) E1
518cd44b 90 28 5e   Note On E1 94

518cd456 90 40 56   Note On E3 86

518cd457 90 44 66   Note On Ab3 102

518cd458 90 47 60   Note On B3 96
518cd74a 90 40 00   Note On(0-Off) E3

518cd74b 90 47 00   Note On(0-Off) B3

518cd751 90 44 00   Note On(0-Off) Ab3
518cd7e5 90 47 3e   Note On B3 62

518cd7e5 90 44 42   Note On Ab3 66

518cd7e6 90 40 42   Note On E3 66
518cd89f 90 28 00   Note On(0-Off) E1
518cd9c5 90 28 1d   Note On E1 29
518cda5e 90 40 00   Note On(0-Off) E3

518cda7a 90 44 00   Note On(0-Off) Ab3

518cda80 90 47 00   Note On(0-Off) B3
518cdaa3 90 28 00   Note On(0-Off) E1
518cdb7b 90 44 60   Note On Ab3 96

518cdb7e 90 40 40   Note On E3 64

518cdb7f 90 47 4f   Note On B3 79

518cdb81 90 28 59   Note On E1 89
518cde0e 90 47 00   Note On(0-Off) B3

518cde11 90 40 00   Note On(0-Off) E3

518cde1c 90 44 00   Note On(0-Off) Ab3
518cde68 90 28 00   Note On(0-Off) E1
518cdf26 90 3d 4d   Note On C#3 77

518cdf2b 90 40 4b   Note On E3 75

518cdf35 90 45 64   Note On A3 100

518cdf3d 90 2d 67   Note On A1 103
518ce221 90 45 00   Note On(0-Off) A3
518ce22f 90 3d 00   Note On(0-Off) C#3

518ce232 90 40 00   Note On(0-Off) E3
518ce2c8 90 45 45   Note On A3 69

518ce2c9 90 40 5b   Note On E3 91

518ce2cf 90 3d 3a   Note On C#3 58
518ce3c2 90 2d 00   Note On(0-Off) A1
518cefe8 90 3d 00   Note On(0-Off) C#3
518ceff9 90 40 00   Note On(0-Off) E3

518cf00c 90 45 00   Note On(0-Off) A3
518cf25b 90 28 45   Note On E1 69

518cf28c 90 40 4f   Note On E3 79
518cf350 90 40 00   Note On(0-Off) E3
518cf3b8 90 40 52   Note On E3 82
518cf592 90 40 00   Note On(0-Off) E3
518cf5de 90 40 56   Note On E3 86
518cf67e 90 40 00   Note On(0-Off) E3
518cf6c5 90 40 66   Note On E3 102
518cf824 90 40 00   Note On(0-Off) E3
518cf8d4 90 3b 74   Note On B2 116
518cfa3b 90 3b 00   Note On(0-Off) B2
518cfb1d 90 47 72   Note On B3 114
518cfce7 90 47 00   Note On(0-Off) B3
518cfe07 90 28 00   Note On(0-Off) E1
518cfee1 90 28 42   Note On E1 66
518d0375 90 44 40   Note On Ab3 64
518d0405 90 44 00   Note On(0-Off) Ab3
518d0486 90 44 67   Note On Ab3 103
518d04e3 90 44 00   Note On(0-Off) Ab3
518d054a 90 44 67   Note On Ab3 103
518d05e1 90 44 00   Note On(0-Off) Ab3
518d06a2 90 44 6d   Note On Ab3 109
518d0704 90 44 00   Note On(0-Off) Ab3
518d0760 90 44 6b   Note On Ab3 107
518d092a 90 40 67   Note On E3 103

518d092b 90 44 00   Note On(0-Off) Ab3
518d0b30 90 47 6b   Note On B3 107
518d0b78 90 40 00   Note On(0-Off) E3
518d0d05 90 45 6d   Note On A3 109

518d0d1a 90 47 00   Note On(0-Off) B3
518d0edb 90 45 00   Note On(0-Off) A3
518d0f7d 90 28 00   Note On(0-Off) E1
518d1114 90 40 40   Note On E3 64
518d11b2 90 40 00   Note On(0-Off) E3
518d124f 90 40 3e   Note On E3 62

518d12a1 90 40 00   Note On(0-Off) E3
518d141d 90 44 4b   Note On Ab3 75
518d1495 90 44 00   Note On(0-Off) Ab3
518d151e 90 44 62   Note On Ab3 98
518d1576 90 44 00   Note On(0-Off) Ab3
518d15e4 90 44 67   Note On Ab3 103
518d166f 90 44 00   Note On(0-Off) Ab3
518d174c 90 44 6e   Note On Ab3 110
518d17a3 90 44 00   Note On(0-Off) Ab3
518d1824 90 44 70   Note On Ab3 112
518d19d2 90 44 00   Note On(0-Off) Ab3

518d19e5 90 40 72   Note On E3 114
518d1a5f 90 40 00   Note On(0-Off) E3
518d1bdb 90 53 70   Note On B4 112

518d1be6 90 47 70   Note On B3 112
518d1cce 90 47 00   Note On(0-Off) B3

518d1ced 90 53 00   Note On(0-Off) B4
518d1db1 90 45 64   Note On A3 100

518d1db2 90 51 69   Note On A4 105
518d1e5b 90 45 00   Note On(0-Off) A3

518d1e6e 90 51 00   Note On(0-Off) A4
518d232d 90 44 6b   Note On Ab3 107
518d23d0 90 44 00   Note On(0-Off) Ab3
518d2440 90 44 5b   Note On Ab3 91
518d24a4 90 44 00   Note On(0-Off) Ab3

518d24fc 90 44 52   Note On Ab3 82
518d258f 90 44 00   Note On(0-Off) Ab3
518d2666 90 44 6b   Note On Ab3 107
518d26bf 90 44 00   Note On(0-Off) Ab3
518d2726 90 44 6b   Note On Ab3 107
518d28d9 90 44 00   Note On(0-Off) Ab3

518d28e9 90 40 6d   Note On E3 109
518d2974 90 40 00   Note On(0-Off) E3
518d2acf 90 49 01   Note On C#4 1

518d2ad3 90 55 76   Note On C#5 118
518d2be7 90 55 00   Note On(0-Off) C#5
518d2cbd 90 47 67   Note On B3 103

518d2cbf 90 54 6b   Note On C5 107

518d2cc2 90 53 69   Note On B4 105

518d2cc3 90 48 66   Note On C4 102
518d2d21 90 48 00   Note On(0-Off) C4

518d2d41 90 54 00   Note On(0-Off) C5

518d2d47 90 53 00   Note On(0-Off) B4
518d2d95 90 47 00   Note On(0-Off) B3
518d2e81 90 51 67   Note On A4 103

518d2e8e 90 45 64   Note On A3 100
518d3251 90 51 00   Note On(0-Off) A4
518d32e3 90 45 00   Note On(0-Off) A3
518d370a 90 38 31   Note On Ab2 49

518d371c 90 40 3c   Note On E3 60

518d371d 90 3b 66   Note On B2 102

518d372f 90 28 3e   Note On E1 62

518d372f 90 2f 28   Note On B1 40

518d372f 90 34 31   Note On E2 49
518d39c8 90 40 00   Note On(0-Off) E3

518d3a0c 90 38 00   Note On(0-Off) Ab2

518d3a14 90 3b 00   Note On(0-Off) B2
518d3abc 90 40 34   Note On E3 52

518d3abd 90 3b 52   Note On B2 82

518d3ac5 90 38 28   Note On Ab2 40
518d3b31 90 28 00   Note On(0-Off) E1

518d3b35 90 2f 00   Note On(0-Off) B1
518d3b51 90 34 00   Note On(0-Off) E2
518d3c85 90 34 13   Note On E2 19

518d3c88 90 2f 1d   Note On B1 29

518d3c99 90 28 20   Note On E1 32
518d3d19 90 38 00   Note On(0-Off) Ab2

518d3d42 90 40 00   Note On(0-Off) E3
518d3d45 90 3b 00   Note On(0-Off) B2

518d3d6e 90 28 00   Note On(0-Off) E1

518d3d6f 90 2f 00   Note On(0-Off) B1

518d3d87 90 34 00   Note On(0-Off) E2
518d3e61 90 38 28   Note On Ab2 40

518d3e65 90 28 2f   Note On E1 47

518d3e6f 90 34 1a   Note On E2 26

518d3e70 90 3b 56   Note On B2 86

518d3e72 90 2f 23   Note On B1 35
518d3e79 90 40 21   Note On E3 33
518d4182 90 38 00   Note On(0-Off) Ab2

518d4198 90 40 00   Note On(0-Off) E3
518d419e 90 3b 00   Note On(0-Off) B2

518d41de 90 28 00   Note On(0-Off) E1

518d41e0 90 2f 00   Note On(0-Off) B1

518d41e3 90 34 00   Note On(0-Off) E2
518d4704 90 38 21   Note On Ab2 33

518d4716 90 3b 3a   Note On B2 58

518d4717 90 28 14   Note On E1 20
518d472a 90 34 14   Note On E2 20

518d4733 90 40 13   Note On E3 19

518d4736 90 2f 13   Note On B1 19
518d4ce5 90 28 00   Note On(0-Off) E1

518d4d01 90 40 00   Note On(0-Off) E3

518d4d0e 90 2f 00   Note On(0-Off) B1

518d4d1b 90 34 00   Note On(0-Off) E2
518d4d31 90 3b 00   Note On(0-Off) B2

518d4d4e 90 38 00   Note On(0-Off) Ab2
518d4dda 90 28 44   Note On E1 68

518d4dde 90 34 31   Note On E2 49

518d4de5 90 2f 40   Note On B1 64

518d4dec 90 40 40   Note On E3 64

518d4def 90 3b 60   Note On B2 96

518d4df0 90 38 27   Note On Ab2 39
518d50cd 90 40 00   Note On(0-Off) E3

518d50f9 90 38 00   Note On(0-Off) Ab2

518d5112 90 3b 00   Note On(0-Off) B2
518d51cc 90 38 3c   Note On Ab2 60

518d51d2 90 40 3c   Note On E3 60

518d51d3 90 3b 60   Note On B2 96
518d58ca 90 38 00   Note On(0-Off) Ab2

518d58de 90 40 00   Note On(0-Off) E3

518d58e3 90 3b 00   Note On(0-Off) B2
518d5976 90 28 00   Note On(0-Off) E1

518d598e 90 2f 00   Note On(0-Off) B1

518d5992 90 34 00   Note On(0-Off) E2
518d5c69 90 3b 64   Note On B2 100
518d5d30 90 3b 00   Note On(0-Off) B2
518d5dbf 90 3b 44   Note On B2 68
518d5e3a 90 3b 00   Note On(0-Off) B2

518d5e97 90 3b 67   Note On B2 103
518d5f51 90 3b 00   Note On(0-Off) B2
518d6005 90 3b 5b   Note On B2 91
518d6088 90 3b 00   Note On(0-Off) B2
518d60d5 90 3b 67   Note On B2 103
518d62df 90 38 59   Note On Ab2 89

518d62f9 90 3b 00   Note On(0-Off) B2
518d64ff 90 38 00   Note On(0-Off) Ab2

518d6508 90 40 67   Note On E3 103
518d66bc 90 40 00   Note On(0-Off) E3

518d66f5 90 3f 49   Note On Eb3 73
518d68a3 90 3f 00   Note On(0-Off) Eb3

518d68f4 90 3d 62   Note On C#3 98
518d6c41 90 3d 00   Note On(0-Off) C#3
518d8152 90 3b 60   Note On B2 96
518d8225 90 3b 00   Note On(0-Off) B2
518d8287 90 3b 5f   Note On B2 95
518d830e 90 3b 00   Note On(0-Off) B2

518d8356 90 3b 6b   Note On B2 107
518d8420 90 3b 00   Note On(0-Off) B2
518d84bd 90 3b 64   Note On B2 100
518d854a 90 3b 00   Note On(0-Off) B2
518d85a0 90 3b 6d   Note On B2 109
518d8729 90 3b 00   Note On(0-Off) B2
518d87cc 90 38 62   Note On Ab2 98
518d892c 90 38 00   Note On(0-Off) Ab2
518d8a12 90 40 6b   Note On E3 107
518d8b7d 90 40 00   Note On(0-Off) E3
518d8c10 90 3f 74   Note On Eb3 116
518d8d91 90 3f 00   Note On(0-Off) Eb3
518d8f04 90 3b 6e   Note On B2 110
518d8fb5 90 3b 00   Note On(0-Off) B2
518d9038 90 3b 56   Note On B2 86
518d90b1 90 3b 00   Note On(0-Off) B2
518d9106 90 3b 70   Note On B2 112
518d9198 90 3b 00   Note On(0-Off) B2
518d921d 90 3b 40   Note On B2 64

518d9272 90 3b 00   Note On(0-Off) B2
518d92f4 90 3b 64   Note On B2 100
518d94cb 90 38 49   Note On Ab2 73
518d94fe 90 3b 00   Note On(0-Off) B2
518d955a 90 38 00   Note On(0-Off) Ab2
518d96d9 90 4c 76   Note On E4 118

518d96db 90 40 70   Note On E3 112
518d97ea 90 40 00   Note On(0-Off) E3

518d97f6 90 4c 00   Note On(0-Off) E4
518d98d4 90 3f 69   Note On Eb3 105
518d99ec 90 3f 00   Note On(0-Off) Eb3
518d9ae1 90 3d 74   Note On C#3 116
518d9d99 90 3d 00   Note On(0-Off) C#3
518d9fce 90 38 3e   Note On Ab2 62

518d9fcf 90 3b 69   Note On B2 105

518d9fd5 90 28 4b   Note On E1 75

518d9fd8 90 34 3f   Note On E2 63

518d9fdd 90 2f 49   Note On B1 73
518da322 90 3b 00   Note On(0-Off) B2

518da328 90 38 00   Note On(0-Off) Ab2
518da3dc 90 3b 6d   Note On B2 109

518da3df 90 38 3e   Note On Ab2 62

518da3f1 90 34 00   Note On(0-Off) E2

518da3f8 90 2f 00   Note On(0-Off) B1

518da439 90 28 00   Note On(0-Off) E1
518da5e0 90 34 1b   Note On E2 27

518da5e4 90 2f 1d   Note On B1 29

518da5ea 90 28 13   Note On E1 19
518da6e7 90 2f 00   Note On(0-Off) B1

518da6ec 90 28 00   Note On(0-Off) E1

518da6ed 90 38 00   Note On(0-Off) Ab2

518da6ef 90 3b 00   Note On(0-Off) B2

518da6f2 90 34 00   Note On(0-Off) E2
518dafa9 90 28 31   Note On E1 49

518dafaf 90 2f 3c   Note On B1 60

518dafb1 90 34 25   Note On E2 37

518dafbe 90 3b 5f   Note On B2 95
518db096 90 3b 00   Note On(0-Off) B2
518db101 90 3b 66   Note On B2 102
518db175 90 3b 00   Note On(0-Off) B2
518db1d4 90 3b 6b   Note On B2 107
518db38d 90 38 23   Note On Ab2 35

518db3a4 90 3b 00   Note On(0-Off) B2
518db5c3 90 3b 6b   Note On B2 107
518db6d1 90 3b 00   Note On(0-Off) B2

518db6db 90 38 00   Note On(0-Off) Ab2
518db7a9 90 40 64   Note On E3 100
518db93b 90 40 00   Note On(0-Off) E3

518db98f 90 3f 67   Note On Eb3 103
518dba58 90 2f 00   Note On(0-Off) B1
518dba6f 90 28 00   Note On(0-Off) E1

518dba80 90 34 00   Note On(0-Off) E2
518dbb09 90 3f 00   Note On(0-Off) Eb3
518dbbb4 90 39 3f   Note On A2 63

518dbbb5 90 3d 6b   Note On C#3 107

518dbbb6 90 2d 6b   Note On A1 107
518dbead 90 3d 00   Note On(0-Off) C#3
518dbec1 90 39 00   Note On(0-Off) A2
518dbf94 90 3d 69   Note On C#3 105

518dbf9a 90 39 60   Note On A2 96
518dc020 90 2d 00   Note On(0-Off) A1
518dc1c8 90 2d 3d   Note On A1 61
518dc23a 90 3d 00   Note On(0-Off) C#3

518dc247 90 39 00   Note On(0-Off) A2
518dc2da 90 2d 00   Note On(0-Off) A1
518dc3e9 90 42 59   Note On F#3 89

518dc3f0 90 2f 56   Note On B1 86

518dc3f1 90 3f 59   Note On Eb3 89

518dc3fa 90 3b 60   Note On B2 96
518dc68d 90 42 00   Note On(0-Off) F#3
518dc737 90 3b 00   Note On(0-Off) B2
518dc76f 90 3f 00   Note On(0-Off) Eb3
518dc814 90 47 59   Note On B3 89

518dc819 90 3f 4b   Note On Eb3 75

518dc81a 90 3b 4f   Note On B2 79

518dc849 90 2f 00   Note On(0-Off) B1
518dc9ff 90 3b 00   Note On(0-Off) B2

518dca3f 90 47 00   Note On(0-Off) B3

518dca41 90 3f 00   Note On(0-Off) Eb3
518dca57 90 2f 33   Note On B1 51
518dcbb9 90 2f 00   Note On(0-Off) B1
518dcc25 90 3f 2f   Note On Eb3 47

518dcc32 90 44 40   Note On Ab3 64
518dcc43 90 2c 56   Note On Ab1 86

518dcc45 90 47 45   Note On B3 69
518dcf33 90 3f 00   Note On(0-Off) Eb3

518dcf59 90 47 00   Note On(0-Off) B3
518dcf9b 90 44 00   Note On(0-Off) Ab3
518dcff6 90 2c 00   Note On(0-Off) Ab1
518dd03a 90 3f 3a   Note On Eb3 58

518dd03b 90 44 3d   Note On Ab3 61

518dd03f 90 47 42   Note On B3 66
518dd1f6 90 2c 14   Note On Ab1 20
518dd241 90 44 00   Note On(0-Off) Ab3

518dd254 90 47 00   Note On(0-Off) B3

518dd272 90 3f 00   Note On(0-Off) Eb3

518dd275 90 2c 00   Note On(0-Off) Ab1
518dd421 90 3d 33   Note On C#3 51
518dd42b 90 44 5b   Note On Ab3 91

518dd435 90 40 5b   Note On E3 91

518dd437 90 25 56   Note On C#1 86

518dd440 90 31 25   Note On C#2 37
518dd6f0 90 40 00   Note On(0-Off) E3

518dd721 90 3d 00   Note On(0-Off) C#3

518dd726 90 44 00   Note On(0-Off) Ab3
518dd809 90 25 00   Note On(0-Off) C#1
518dd814 90 44 59   Note On Ab3 89

518dd817 90 3d 2c   Note On C#3 44

518dd818 90 40 3c   Note On E3 60

518dd819 90 31 00   Note On(0-Off) C#2
518dda30 90 31 4b   Note On C#2 75

518dda66 90 40 00   Note On(0-Off) E3

518dda68 90 3d 00   Note On(0-Off) C#3
518ddab6 90 44 00   Note On(0-Off) Ab3
518ddae9 90 31 00   Note On(0-Off) C#2
518ddbc5 90 3d 34   Note On C#3 52

518ddbc7 90 45 47   Note On A3 71

518ddbca 90 40 59   Note On E3 89

518ddbf6 90 2a 5b   Note On F#1 91
518ddeca 90 45 00   Note On(0-Off) A3

518ddeca 90 3d 00   Note On(0-Off) C#3

518ddeda 90 40 00   Note On(0-Off) E3
518ddf70 90 2a 00   Note On(0-Off) F#1
518ddfd1 90 3d 34   Note On C#3 52

518ddfd5 90 45 3c   Note On A3 60

518ddfd7 90 40 42   Note On E3 66
518de1f3 90 3d 00   Note On(0-Off) C#3

518de1f6 90 40 00   Note On(0-Off) E3
518de212 90 2a 05   Note On F#1 5

518de225 90 45 00   Note On(0-Off) A3
518de2a7 90 2a 00   Note On(0-Off) F#1
518de3d8 90 3b 64   Note On B2 100

518de3db 90 3f 3f   Note On Eb3 63

518de3dd 90 42 45   Note On F#3 69

518de3eb 90 2f 59   Note On B1 89
518de4c7 90 3b 00   Note On(0-Off) B2

518de4e3 90 42 00   Note On(0-Off) F#3

518de4ee 90 3f 00   Note On(0-Off) Eb3

518de4f9 90 2f 00   Note On(0-Off) B1
518df644 90 29 3d   Note On F1 61

518df64b 90 39 4b   Note On A2 75

518df64e 90 30 49   Note On C2 73

518df656 90 35 44   Note On F2 68
518df938 90 35 00   Note On(0-Off) F2
518df976 90 39 00   Note On(0-Off) A2
518dfa25 90 39 5f   Note On A2 95

518dfa2b 90 35 59   Note On F2 89

518dfa61 90 29 00   Note On(0-Off) F1
518dfaba 90 30 00   Note On(0-Off) C2
518dfb87 90 35 00   Note On(0-Off) F2

518dfbbb 90 39 00   Note On(0-Off) A2
518dfbeb 90 29 34   Note On F1 52

518dfbec 90 30 3c   Note On C2 60
518dfcb3 90 29 00   Note On(0-Off) F1

518dfcbe 90 30 00   Note On(0-Off) C2
518dfdf7 90 30 45   Note On C2 69

518dfdf9 90 41 59   Note On F3 89

518dfdfa 90 39 4d   Note On A2 77

518dfdfc 90 29 45   Note On F1 69
518e00a5 90 39 00   Note On(0-Off) A2

518e00c3 90 41 00   Note On(0-Off) F3
518e01ef 90 41 59   Note On F3 89

518e01f4 90 39 52   Note On A2 82
518e0261 90 29 00   Note On(0-Off) F1
518e0340 90 30 00   Note On(0-Off) C2
518e0407 90 41 00   Note On(0-Off) F3

518e0422 90 39 00   Note On(0-Off) A2
518e05f2 90 3a 3d   Note On Bb2 61

518e05f8 90 35 3f   Note On F2 63

518e05f9 90 3e 45   Note On D3 69

518e060c 90 2e 4b   Note On Bb1 75
518e090e 90 35 00   Note On(0-Off) F2

518e091b 90 3a 00   Note On(0-Off) Bb2

518e0924 90 3e 00   Note On(0-Off) D3
518e09ef 90 3a 49   Note On Bb2 73

518e09f0 90 35 44   Note On F2 68

518e09f2 90 3e 52   Note On D3 82
518e0a3b 90 2e 00   Note On(0-Off) Bb1
518e0af4 90 35 00   Note On(0-Off) F2
518e0bb3 90 3a 00   Note On(0-Off) Bb2

518e0bb4 90 3e 00   Note On(0-Off) D3
518e0df2 90 24 64   Note On C1 100

518e0df2 90 30 3d   Note On C2 61

518e0df2 90 40 3e   Note On E3 62

518e0df2 90 37 3e   Note On G2 62
518e10f1 90 37 00   Note On(0-Off) G2
518e10fe 90 40 00   Note On(0-Off) E3
518e11c8 90 24 00   Note On(0-Off) C1

518e1222 90 40 59   Note On E3 89
518e122b 90 37 4b   Note On G2 75
518e12bc 90 30 00   Note On(0-Off) C2
518e1479 90 37 00   Note On(0-Off) G2
518e14de 90 40 00   Note On(0-Off) E3
518e15fc 90 40 5b   Note On E3 91

518e1601 90 39 4d   Note On A2 77

518e160b 90 2d 4d   Note On A1 77
518e190f 90 39 00   Note On(0-Off) A2
518e199e 90 40 00   Note On(0-Off) E3
518e1a64 90 40 5f   Note On E3 95

518e1a66 90 39 5e   Note On A2 94
518e1b03 90 2d 00   Note On(0-Off) A1
518e1c45 90 39 00   Note On(0-Off) A2
518e1c68 90 2d 3d   Note On A1 61
518e1d14 90 40 00   Note On(0-Off) E3

518e1d1e 90 2d 00   Note On(0-Off) A1
518e1e9b 90 26 56   Note On D1 86

518e1ea8 90 35 49   Note On F2 73

518e1ead 90 39 5f   Note On A2 95

518e1eaf 90 3e 4b   Note On D3 75
518e2136 90 35 00   Note On(0-Off) F2

518e217b 90 3e 00   Note On(0-Off) D3

518e2193 90 39 00   Note On(0-Off) A2
518e229d 90 39 64   Note On A2 100

518e229e 90 3e 64   Note On D3 100

518e229f 90 35 5b   Note On F2 91
518e2325 90 26 00   Note On(0-Off) D1
518e248f 90 26 49   Note On D1 73

518e24ac 90 35 00   Note On(0-Off) F2
518e2537 90 39 00   Note On(0-Off) A2

518e2546 90 3e 00   Note On(0-Off) D3
518e25ec 90 26 00   Note On(0-Off) D1
518e267c 90 37 62   Note On G2 98

518e267d 90 3e 67   Note On D3 103

518e2680 90 3a 6b   Note On Bb2 107

518e2693 90 2b 56   Note On G1 86
518e2969 90 37 00   Note On(0-Off) G2

518e296b 90 3e 00   Note On(0-Off) D3

518e297b 90 3a 00   Note On(0-Off) Bb2
518e2a66 90 37 5f   Note On G2 95

518e2a68 90 3e 64   Note On D3 100

518e2a6a 90 3a 67   Note On Bb2 103

518e2a7a 90 2b 00   Note On(0-Off) G1
518e2bfd 90 37 00   Note On(0-Off) G2

518e2c32 90 3a 00   Note On(0-Off) Bb2

518e2c3a 90 3e 00   Note On(0-Off) D3
518e2c66 90 2b 3d   Note On G1 61
518e2d8c 90 2b 00   Note On(0-Off) G1
518e2e58 90 40 5b   Note On E3 91

518e2e59 90 24 7b   Note On C1 123

518e2e5e 90 37 4f   Note On G2 79
518e3122 90 37 00   Note On(0-Off) G2
518e3136 90 40 00   Note On(0-Off) E3
518e3255 90 40 5f   Note On E3 95
518e3258 90 37 60   Note On G2 96

518e3274 90 24 00   Note On(0-Off) C1
518e3414 90 37 00   Note On(0-Off) G2

518e343c 90 24 79   Note On C1 121
518e3491 90 40 00   Note On(0-Off) E3
518e3535 90 24 00   Note On(0-Off) C1
518e3625 90 36 64   Note On F#2 100

518e3628 90 3e 6b   Note On D3 107

518e3629 90 39 70   Note On A2 112

518e3634 90 26 72   Note On D1 114
518e38a2 90 3e 00   Note On(0-Off) D3
518e38ab 90 36 00   Note On(0-Off) F#2

518e38fc 90 39 00   Note On(0-Off) A2
518e39d2 90 36 64   Note On F#2 100

518e39d3 90 3e 70   Note On D3 112
518e39d9 90 39 6b   Note On A2 107
518e3af1 90 26 00   Note On(0-Off) D1
518e3b9e 90 26 3c   Note On D1 60
518e3c90 90 3e 00   Note On(0-Off) D3
518e3ca3 90 36 00   Note On(0-Off) F#2

518e3cb7 90 39 00   Note On(0-Off) A2

518e3ced 90 26 00   Note On(0-Off) D1
518e3d7b 90 3e 67   Note On D3 103

518e3d81 90 36 3e   Note On F#2 62

518e3d82 90 39 62   Note On A2 98

518e3d86 90 26 4b   Note On D1 75
518e4062 90 36 00   Note On(0-Off) F#2

518e4071 90 3e 00   Note On(0-Off) D3

518e4097 90 39 00   Note On(0-Off) A2
518e4149 90 3e 69   Note On D3 105

518e414f 90 36 40   Note On F#2 64

518e4151 90 39 67   Note On A2 103
518e4264 90 26 00   Note On(0-Off) D1
518e4300 90 36 00   Note On(0-Off) F#2

518e4302 90 3e 00   Note On(0-Off) D3
518e431a 90 39 00   Note On(0-Off) A2

518e432b 90 26 47   Note On D1 71
518e448c 90 26 00   Note On(0-Off) D1
518e4517 90 28 62   Note On E1 98

518e451a 90 38 3f   Note On Ab2 63

518e451d 90 40 66   Note On E3 102

518e4522 90 3b 6d   Note On B2 109
518e4806 90 40 00   Note On(0-Off) E3

518e480f 90 38 00   Note On(0-Off) Ab2

518e4813 90 3b 00   Note On(0-Off) B2
518e48fc 90 38 5f   Note On Ab2 95

518e4902 90 3b 74   Note On B2 116

518e4904 90 40 67   Note On E3 103
518e4a07 90 28 00   Note On(0-Off) E1
518e4ad7 90 28 3c   Note On E1 60
518e4bea 90 38 00   Note On(0-Off) Ab2

518e4beb 90 40 00   Note On(0-Off) E3

518e4c04 90 3b 00   Note On(0-Off) B2
518e4c39 90 28 00   Note On(0-Off) E1
518e4cfa 90 3d 69   Note On C#3 105
518e4d0a 90 39 5b   Note On A2 91

518e4d0b 90 2d 76   Note On A1 118

518e4d15 90 40 5f   Note On E3 95
518e4f30 90 2d 00   Note On(0-Off) A1
518e4f98 90 2f 79   Note On B1 121

518e4fca 90 40 00   Note On(0-Off) E3

518e4fce 90 39 00   Note On(0-Off) A2
518e4fd8 90 3d 00   Note On(0-Off) C#3
518e5102 90 40 5e   Note On E3 94

518e5103 90 3d 64   Note On C#3 100
518e5105 90 39 5e   Note On A2 94
518e53e3 90 39 00   Note On(0-Off) A2

518e542e 90 2f 00   Note On(0-Off) B1

518e5432 90 40 00   Note On(0-Off) E3

518e5438 90 3d 00   Note On(0-Off) C#3
518e5505 90 40 4d   Note On E3 77
518e550b 90 2f 66   Note On B1 102

518e550d 90 3d 64   Note On C#3 100

518e5512 90 39 4f   Note On A2 79
518e558d 90 2f 00   Note On(0-Off) B1

518e55bd 90 2d 6b   Note On A1 107
518e5836 90 39 00   Note On(0-Off) A2

518e584d 90 40 00   Note On(0-Off) E3

518e5863 90 3d 00   Note On(0-Off) C#3
518e591d 90 3d 72   Note On C#3 114

518e591f 90 40 64   Note On E3 100

518e5921 90 39 60   Note On A2 96
518e59b9 90 2d 00   Note On(0-Off) A1
518e5acc 90 39 00   Note On(0-Off) A2

518e5ad5 90 2d 52   Note On A1 82
518e5b11 90 3d 00   Note On(0-Off) C#3

518e5b39 90 40 00   Note On(0-Off) E3
518e5c3b 90 2d 00   Note On(0-Off) A1
518e5ce7 90 3f 5f   Note On Eb3 95

518e5ce8 90 2f 56   Note On B1 86

518e5ce9 90 42 62   Note On F#3 98
518e5cef 90 3b 62   Note On B2 98
518e5eb4 90 3b 00   Note On(0-Off) B2
518e6049 90 3f 00   Note On(0-Off) Eb3

518e604e 90 42 00   Note On(0-Off) F#3
518e60dd 90 42 45   Note On F#3 69

518e60de 90 3f 45   Note On Eb3 69
518e60e3 90 3b 5e   Note On B2 94

518e60e6 90 47 5b   Note On B3 91

518e6112 90 2f 00   Note On(0-Off) B1
518e6297 90 2f 34   Note On B1 52

518e62cb 90 3b 00   Note On(0-Off) B2

518e62cd 90 3f 00   Note On(0-Off) Eb3
518e62ec 90 42 00   Note On(0-Off) F#3
518e63bf 90 47 00   Note On(0-Off) B3

518e63e5 90 2f 00   Note On(0-Off) B1
518e6489 90 44 5e   Note On Ab3 94

518e648c 90 28 66   Note On E1 102

518e6498 90 3b 49   Note On B2 73

518e649a 90 40 3e   Note On E3 62
518e6762 90 3b 00   Note On(0-Off) B2

518e677a 90 44 00   Note On(0-Off) Ab3

518e678d 90 40 00   Note On(0-Off) E3
518e679d 90 28 00   Note On(0-Off) E1
518e684e 90 28 52   Note On E1 82

518e6855 90 44 3e   Note On Ab3 62
518e6866 90 40 3e   Note On E3 62

518e686e 90 3b 56   Note On B2 86
518e6b69 90 28 00   Note On(0-Off) E1

518e6b72 90 3b 00   Note On(0-Off) B2
518e6b90 90 44 00   Note On(0-Off) Ab3

518e6b98 90 40 00   Note On(0-Off) E3
518e6c1d 90 40 4b   Note On E3 75

518e6c1f 90 3b 49   Note On B2 73

518e6c21 90 44 4b   Note On Ab3 75

518e6c27 90 28 56   Note On E1 86
518e6f48 90 3b 00   Note On(0-Off) B2
518e6fa0 90 40 00   Note On(0-Off) E3

518e6fa3 90 44 00   Note On(0-Off) Ab3

518e6fd7 90 44 34   Note On Ab3 52

518e6fdb 90 40 38   Note On E3 56
518e6fe3 90 3b 4d   Note On B2 77

518e702e 90 28 00   Note On(0-Off) E1
518e714b 90 3b 00   Note On(0-Off) B2
518e7181 90 40 00   Note On(0-Off) E3

518e71ad 90 28 47   Note On E1 71
518e71fe 90 44 00   Note On(0-Off) Ab3
518e72e5 90 28 00   Note On(0-Off) E1
518e739b 90 3f 44   Note On Eb3 68

518e739c 90 44 62   Note On Ab3 98

518e73a4 90 2c 4f   Note On Ab1 79

518e73a9 90 47 64   Note On B3 100
518e7699 90 47 00   Note On(0-Off) B3

518e769c 90 3f 00   Note On(0-Off) Eb3

518e76a4 90 44 00   Note On(0-Off) Ab3
518e7742 90 3f 36   Note On Eb3 54

518e7744 90 44 64   Note On Ab3 100

518e7748 90 47 5b   Note On B3 91

518e775d 90 2c 00   Note On(0-Off) Ab1
518e78f8 90 47 00   Note On(0-Off) B3

518e790b 90 44 00   Note On(0-Off) Ab3

518e7918 90 2c 3f   Note On Ab1 63

518e792b 90 3f 00   Note On(0-Off) Eb3
518e79f6 90 2c 00   Note On(0-Off) Ab1
518e7af4 90 39 40   Note On A2 64

518e7af8 90 40 4d   Note On E3 77

518e7af9 90 3d 62   Note On C#3 98

518e7afb 90 3b 64   Note On B2 100

518e7afc 90 2d 5e   Note On A1 94
518e7cc2 90 39 00   Note On(0-Off) A2

518e7cdb 90 3b 00   Note On(0-Off) B2
518e7d00 90 3d 00   Note On(0-Off) C#3

518e7d02 90 40 00   Note On(0-Off) E3
518e7d58 90 2d 00   Note On(0-Off) A1
518e7ee0 90 3f 4d   Note On Eb3 77

518e7ee3 90 3b 4b   Note On B2 75
518e7ee5 90 42 5b   Note On F#3 91

518e7eef 90 2f 56   Note On B1 86
518e80dd 90 3f 00   Note On(0-Off) Eb3
518e80f2 90 42 00   Note On(0-Off) F#3

518e80fe 90 3b 00   Note On(0-Off) B2

518e8112 90 2f 00   Note On(0-Off) B1
518e82d5 90 38 2c   Note On Ab2 44
518e82df 90 28 5b   Note On E1 91

518e82e7 90 3b 67   Note On B2 103

518e82e8 90 40 4d   Note On E3 77
518e8597 90 38 00   Note On(0-Off) Ab2
518e85ac 90 40 00   Note On(0-Off) E3

518e85c1 90 3b 00   Note On(0-Off) B2
518e866d 90 38 22   Note On Ab2 34

518e866f 90 40 42   Note On E3 66

518e8670 90 3b 64   Note On B2 100

518e869f 90 28 00   Note On(0-Off) E1
518e886b 90 28 42   Note On E1 66
518e88e9 90 40 00   Note On(0-Off) E3
518e8938 90 28 00   Note On(0-Off) E1

518e893c 90 38 00   Note On(0-Off) Ab2

518e8945 90 3b 00   Note On(0-Off) B2
518e8a36 90 38 28   Note On Ab2 40

518e8a39 90 40 49   Note On E3 73

518e8a3a 90 3b 66   Note On B2 102
518e8a63 90 28 45   Note On E1 69
518e8cd4 90 40 00   Note On(0-Off) E3

518e8d10 90 38 00   Note On(0-Off) Ab2
518e8d30 90 3b 00   Note On(0-Off) B2
518e8de2 90 28 00   Note On(0-Off) E1
518e8df0 90 3b 64   Note On B2 100

518e8df1 90 38 3c   Note On Ab2 60

518e8df5 90 40 59   Note On E3 89
518e8f96 90 28 2f   Note On E1 47
518e8fe5 90 28 00   Note On(0-Off) E1

518e903c 90 40 00   Note On(0-Off) E3
518e9073 90 3b 00   Note On(0-Off) B2

518e9079 90 38 00   Note On(0-Off) Ab2
518e91e4 90 40 44   Note On E3 68

518e91e8 90 3b 66   Note On B2 102
518e91ed 90 38 3a   Note On Ab2 58

518e9234 90 25 64   Note On C#1 100

518e9246 90 31 40   Note On C#2 64
518e947f 90 40 00   Note On(0-Off) E3

518e94de 90 38 00   Note On(0-Off) Ab2

518e94df 90 3b 00   Note On(0-Off) B2
518e957f 90 25 00   Note On(0-Off) C#1

518e957f 90 31 00   Note On(0-Off) C#2

518e95ee 90 38 3c   Note On Ab2 60

518e95ef 90 40 67   Note On E3 103

518e95ef 90 3b 6b   Note On B2 107
518e9787 90 31 44   Note On C#2 68
518e983e 90 40 00   Note On(0-Off) E3
518e989e 90 38 00   Note On(0-Off) Ab2

518e98ac 90 31 00   Note On(0-Off) C#2

518e98b0 90 3b 00   Note On(0-Off) B2
518e9995 90 3b 64   Note On B2 100

518e9995 90 38 2c   Note On Ab2 44

518e9995 90 40 4d   Note On E3 77

518e9996 90 25 52   Note On C#1 82

518e9997 90 31 3e   Note On C#2 62
518e9c06 90 40 00   Note On(0-Off) E3
518e9c74 90 3b 00   Note On(0-Off) B2

518e9c74 90 38 00   Note On(0-Off) Ab2
518e9cdb 90 25 00   Note On(0-Off) C#1
518e9d0f 90 31 00   Note On(0-Off) C#2

518e9d39 90 38 3a   Note On Ab2 58

518e9d3b 90 40 64   Note On E3 100

518e9d3c 90 3b 6b   Note On B2 107
518e9f44 90 31 56   Note On C#2 86
518e9f76 90 38 00   Note On(0-Off) Ab2

518e9fb2 90 40 00   Note On(0-Off) E3
518e9fe5 90 31 00   Note On(0-Off) C#2

518e9ff2 90 3b 00   Note On(0-Off) B2
518ea0f2 90 39 4b   Note On A2 75

518ea0f7 90 3d 64   Note On C#3 100

518ea0fb 90 40 4b   Note On E3 75

518ea100 90 2a 69   Note On F#1 105
518ea3d9 90 39 00   Note On(0-Off) A2

518ea3f0 90 40 00   Note On(0-Off) E3

518ea3fd 90 3d 00   Note On(0-Off) C#3
518ea4a4 90 40 4f   Note On E3 79

518ea4a5 90 3d 64   Note On C#3 100

518ea4a9 90 39 4b   Note On A2 75
518ea522 90 2a 00   Note On(0-Off) F#1
518ea612 90 39 00   Note On(0-Off) A2
518ea678 90 3d 00   Note On(0-Off) C#3

518ea67d 90 2a 4d   Note On F#1 77

518ea684 90 40 00   Note On(0-Off) E3
518ea7ea 90 2a 00   Note On(0-Off) F#1
518ea890 90 42 49   Note On F#3 73

518ea891 90 3f 52   Note On Eb3 82

518ea895 90 3b 62   Note On B2 98
518ea898 90 47 60   Note On B3 96

518ea89e 90 2f 64   Note On B1 100
518eaa84 90 3b 00   Note On(0-Off) B2

518eaa87 90 2f 00   Note On(0-Off) B1
518eaab5 90 47 00   Note On(0-Off) B3

518eaabb 90 3f 00   Note On(0-Off) Eb3

518eaacb 90 42 00   Note On(0-Off) F#3
518ebd9e 90 39 4f   Note On A2 79

518ebd9f 90 41 5e   Note On F3 94

518ebda7 90 29 60   Note On F1 96
518ec089 90 39 00   Note On(0-Off) A2

518ec098 90 41 00   Note On(0-Off) F3
518ec152 90 41 59   Note On F3 89

518ec153 90 39 5b   Note On A2 91

518ec157 90 3c 7f   Note On C3 127
518ec204 90 29 00   Note On(0-Off) F1
518ec31e 90 29 23   Note On F1 35
518ec3fb 90 39 00   Note On(0-Off) A2

518ec402 90 3c 00   Note On(0-Off) C3

518ec40f 90 41 00   Note On(0-Off) F3

518ec43b 90 29 00   Note On(0-Off) F1
518ec506 90 29 5e   Note On F1 94

518ec510 90 41 52   Note On F3 82

518ec513 90 39 4f   Note On A2 79
518ec7e0 90 39 00   Note On(0-Off) A2
518ec7f6 90 29 00   Note On(0-Off) F1

518ec808 90 41 00   Note On(0-Off) F3
518ec8c7 90 29 62   Note On F1 98

518ec8e8 90 41 59   Note On F3 89

518ec8e9 90 39 5f   Note On A2 95

518ec8ea 90 3c 7f   Note On C3 127
518ec9d2 90 29 00   Note On(0-Off) F1
518ecaed 90 3c 00   Note On(0-Off) C3

518ecaee 90 39 00   Note On(0-Off) A2

518ecaee 90 41 00   Note On(0-Off) F3
518ecccb 90 2e 67   Note On Bb1 103

518eccd4 90 3a 64   Note On Bb2 100

518eccd5 90 3e 60   Note On D3 96

518eccd9 90 35 44   Note On F2 68

518ecd12 90 35 00   Note On(0-Off) F2
518ed144 90 2e 00   Note On(0-Off) Bb1

518ed15a 90 3e 00   Note On(0-Off) D3

518ed174 90 3a 00   Note On(0-Off) Bb2
5193eabd 90 2e 64   Note On Bb1 100
5193ec9f 90 3f 6e   Note On Eb3 110

5193eca4 90 35 67   Note On F2 103

5193eca6 90 3a 72   Note On Bb2 114
5193ed16 90 2e 00   Note On(0-Off) Bb1
5193ed4f 90 3a 00   Note On(0-Off) Bb2
5193eda7 90 3f 00   Note On(0-Off) Eb3

5193edde 90 35 00   Note On(0-Off) F2
5193ee6d 90 2e 6b   Note On Bb1 107
5193ee89 90 35 60   Note On F2 96

5193ee8a 90 3a 67   Note On Bb2 103

5193ee8b 90 3e 70   Note On D3 112
5193ef4e 90 3a 00   Note On(0-Off) Bb2

5193ef8a 90 3e 00   Note On(0-Off) D3
5193efd6 90 35 00   Note On(0-Off) F2

5193f014 90 2e 00   Note On(0-Off) Bb1
5193f15c 90 2e 64   Note On Bb1 100

5193f16a 90 3f 6b   Note On Eb3 107

5193f16f 90 3a 6b   Note On Bb2 107

5193f177 90 35 4d   Note On F2 77
5193f219 90 35 00   Note On(0-Off) F2
5193f227 90 3a 00   Note On(0-Off) Bb2

5193f247 90 3f 00   Note On(0-Off) Eb3
5193f318 90 3f 60   Note On Eb3 96

5193f31b 90 35 49   Note On F2 73

5193f31c 90 3a 5b   Note On Bb2 91
5193f39e 90 3f 00   Note On(0-Off) Eb3

5193f3a0 90 3a 00   Note On(0-Off) Bb2

5193f3ab 90 35 00   Note On(0-Off) F2
5193f3b5 90 2e 00   Note On(0-Off) Bb1
5193f42f 90 3e 6e   Note On D3 110

5193f436 90 3a 60   Note On Bb2 96

5193f43b 90 2e 64   Note On Bb1 100

5193f43d 90 35 47   Note On F2 71
5193f4d1 90 3e 00   Note On(0-Off) D3

5193f4d7 90 3a 00   Note On(0-Off) Bb2
5193f4eb 90 35 00   Note On(0-Off) F2

5193f543 90 2e 00   Note On(0-Off) Bb1
5193f634 90 3f 66   Note On Eb3 102

5193f634 90 2e 60   Note On Bb1 96

5193f636 90 3a 66   Note On Bb2 102

5193f639 90 35 4d   Note On F2 77
5193f6c8 90 35 00   Note On(0-Off) F2

5193f6d3 90 3a 00   Note On(0-Off) Bb2
5193f6e2 90 3f 00   Note On(0-Off) Eb3

5193f700 90 2e 00   Note On(0-Off) Bb1
5193f753 90 41 56   Note On F3 86

5193f757 90 39 69   Note On A2 105
5193f7ed 90 41 00   Note On(0-Off) F3

5193f808 90 39 00   Note On(0-Off) A2
5193f952 90 39 70   Note On A2 112

5193f953 90 3c 7f   Note On C3 127

5193f955 90 41 6b   Note On F3 107
5193fa6c 90 29 70   Note On F1 112
5193fcbe 90 39 00   Note On(0-Off) A2
5193fccf 90 29 00   Note On(0-Off) F1

5193fce2 90 41 00   Note On(0-Off) F3

5193fce7 90 3c 00   Note On(0-Off) C3
5193feb8 90 3e 62   Note On D3 98

5193feb8 90 41 4f   Note On F3 79

5193feb9 90 39 64   Note On A2 100

5193feb9 90 29 6b   Note On F1 107
5194012d 90 29 00   Note On(0-Off) F1

5194013d 90 3e 00   Note On(0-Off) D3

51940152 90 39 00   Note On(0-Off) A2

5194016b 90 41 00   Note On(0-Off) F3
519401c1 90 29 64   Note On F1 100

519401c6 90 41 59   Note On F3 89

519401c8 90 39 5b   Note On A2 91

519401ca 90 3c 7f   Note On C3 127
51940463 90 29 00   Note On(0-Off) F1
519404ec 90 29 4d   Note On F1 77
519405db 90 29 00   Note On(0-Off) F1
519406d7 90 29 6b   Note On F1 107
51940761 90 29 00   Note On(0-Off) F1
519407be 90 29 67   Note On F1 103
51940852 90 29 00   Note On(0-Off) F1
519408b1 90 3c 00   Note On(0-Off) C3

519408b4 90 39 00   Note On(0-Off) A2

519408cf 90 41 00   Note On(0-Off) F3

519408d0 90 29 6e   Note On F1 110
51940958 90 29 00   Note On(0-Off) F1
519409e1 90 29 66   Note On F1 102

519409e8 90 2c 5e   Note On Ab1 94

519409e9 90 2b 69   Note On G1 105

519409ec 90 2e 76   Note On Bb1 118

519409f2 90 2d 5e   Note On A1 94

51940a02 90 2d 00   Note On(0-Off) A1

51940a04 90 2c 00   Note On(0-Off) Ab1

51940a09 90 2b 00   Note On(0-Off) G1

51940a0e 90 29 00   Note On(0-Off) F1

51940a26 90 2e 00   Note On(0-Off) Bb1
51940ad4 90 2e 36   Note On Bb1 54
51940d16 90 3f 67   Note On Eb3 103

51940d18 90 35 5f   Note On F2 95

51940d1b 90 3a 6b   Note On Bb2 107
51940d74 90 2e 00   Note On(0-Off) Bb1
51940dcd 90 3a 00   Note On(0-Off) Bb2

51940e07 90 3f 00   Note On(0-Off) Eb3
51940e64 90 35 00   Note On(0-Off) F2
51940eff 90 3e 52   Note On D3 82

51940f08 90 2e 66   Note On Bb1 102

51940f0d 90 3a 67   Note On Bb2 103

51940f11 90 35 5f   Note On F2 95
51941049 90 35 00   Note On(0-Off) F2

5194104e 90 3a 00   Note On(0-Off) Bb2

5194108b 90 2e 00   Note On(0-Off) Bb1
5194112c 90 2e 67   Note On Bb1 103

51941142 90 3e 00   Note On(0-Off) D3
51941283 90 2e 00   Note On(0-Off) Bb1

51941283 90 35 4f   Note On F2 79

51941283 90 3f 6d   Note On Eb3 109

51941284 90 3a 5f   Note On Bb2 95
51941337 90 3a 00   Note On(0-Off) Bb2
5194133b 90 35 00   Note On(0-Off) F2

51941361 90 3f 00   Note On(0-Off) Eb3
519413d3 90 2e 64   Note On Bb1 100

51941443 90 3f 60   Note On Eb3 96

51941443 90 3a 59   Note On Bb2 89

51941443 90 35 49   Note On F2 73
5194149b 90 35 00   Note On(0-Off) F2

5194149b 90 3a 00   Note On(0-Off) Bb2

5194149b 90 3f 00   Note On(0-Off) Eb3

519414a6 90 2e 00   Note On(0-Off) Bb1
5194150d 90 3e 70   Note On D3 112

51941517 90 2e 72   Note On Bb1 114

51941518 90 3a 64   Note On Bb2 100
5194151f 90 35 64   Note On F2 100
519415d1 90 2e 00   Note On(0-Off) Bb1

519415d4 90 3e 00   Note On(0-Off) D3

519415e6 90 3a 00   Note On(0-Off) Bb2

519415f8 90 35 00   Note On(0-Off) F2
51941621 90 2e 59   Note On Bb1 89
519416fc 90 2e 00   Note On(0-Off) Bb1

51941737 90 35 62   Note On F2 98

51941739 90 3f 6b   Note On Eb3 107

51941740 90 3a 62   Note On Bb2 98
519417df 90 2e 5b   Note On Bb1 91

519417fa 90 3a 00   Note On(0-Off) Bb2
51941847 90 3f 00   Note On(0-Off) Eb3

5194186a 90 3a 45   Note On Bb2 69

51941873 90 41 4d   Note On F3 77
519418ae 90 2e 00   Note On(0-Off) Bb1
519418f9 90 3a 00   Note On(0-Off) Bb2

519418fb 90 35 00   Note On(0-Off) F2
519419a1 90 41 00   Note On(0-Off) F3
51941a9f 90 3a 6b   Note On Bb2 107

51941aa0 90 35 69   Note On F2 105

51941aa5 90 41 64   Note On F3 100
51941ad9 90 35 00   Note On(0-Off) F2
51941bb3 90 29 64   Note On F1 100
51941ceb 90 35 4f   Note On F2 79

51941d32 90 3a 00   Note On(0-Off) Bb2
51941d8d 90 41 00   Note On(0-Off) F3
51941dde 90 29 00   Note On(0-Off) F1

51941de7 90 3a 66   Note On Bb2 102
51941ea1 90 3a 00   Note On(0-Off) Bb2
51941ef1 90 35 00   Note On(0-Off) F2
51941fe2 90 35 5e   Note On F2 94

51941fe8 90 39 60   Note On A2 96

51941ff5 90 29 67   Note On F1 103
5194221e 90 29 00   Note On(0-Off) F1

51942261 90 35 00   Note On(0-Off) F2

51942263 90 39 00   Note On(0-Off) A2
519422b8 90 29 2c   Note On F1 44

519422c2 90 39 42   Note On A2 66

519422ca 90 35 3e   Note On F2 62
519425b6 90 29 00   Note On(0-Off) F1
51942833 90 35 00   Note On(0-Off) F2
519428df 90 39 00   Note On(0-Off) A2
519429d4 90 36 14   Note On F#2 20

519429d9 90 2a 5e   Note On F#1 94
519429e8 90 39 22   Note On A2 34
51942a6e 90 36 00   Note On(0-Off) F#2

51942a73 90 39 00   Note On(0-Off) A2
51942acd 90 2a 00   Note On(0-Off) F#1
51942bf4 90 37 5b   Note On G2 91

51942bf5 90 3e 64   Note On D3 100

51942bfc 90 3a 67   Note On Bb2 103
51942c0d 90 2b 60   Note On G1 96
5194316f 90 3a 00   Note On(0-Off) Bb2
519431a6 90 3e 00   Note On(0-Off) D3
51943251 90 2b 00   Note On(0-Off) G1
51943300 90 37 00   Note On(0-Off) G2
519433de 90 37 04   Note On G2 4

519433df 90 3a 3f   Note On Bb2 63

519433e0 90 3e 3a   Note On D3 58
519433f2 90 2a 67   Note On F#1 103
519436fb 90 3e 00   Note On(0-Off) D3

51943709 90 37 00   Note On(0-Off) G2
51943727 90 3a 00   Note On(0-Off) Bb2
519437bc 90 3e 5b   Note On D3 91

519437bd 90 37 59   Note On G2 89

519437be 90 3a 44   Note On Bb2 68
5194386a 90 2a 00   Note On(0-Off) F#1
519439ce 90 2a 3e   Note On F#1 62
51943b08 90 3e 00   Note On(0-Off) D3

51943b18 90 37 00   Note On(0-Off) G2

51943b1e 90 2a 00   Note On(0-Off) F#1

51943b25 90 3a 00   Note On(0-Off) Bb2
51943bd9 90 3e 60   Note On D3 96

51943be0 90 37 4f   Note On G2 79

51943be1 90 3a 5e   Note On Bb2 94

51943be7 90 29 4b   Note On F1 75
51943f3e 90 37 00   Note On(0-Off) G2

51943f56 90 3e 00   Note On(0-Off) D3
51943f65 90 3a 00   Note On(0-Off) Bb2
51943fe4 90 3a 47   Note On Bb2 71

51943fe8 90 3e 56   Note On D3 86

51943fe9 90 37 4b   Note On G2 75

51944020 90 29 00   Note On(0-Off) F1
519441d6 90 29 49   Note On F1 73
5194427a 90 29 00   Note On(0-Off) F1
519442fd 90 3e 00   Note On(0-Off) D3

51944336 90 37 00   Note On(0-Off) G2
5194434d 90 3a 00   Note On(0-Off) Bb2
519443d6 90 3e 60   Note On D3 96

519443db 90 37 4f   Note On G2 79

519443de 90 3a 42   Note On Bb2 66

519443f1 90 28 66   Note On E1 102
5194471f 90 37 00   Note On(0-Off) G2
5194473e 90 3e 00   Note On(0-Off) D3

51944760 90 3a 00   Note On(0-Off) Bb2
519447ea 90 3e 64   Note On D3 100

519447f1 90 3a 4b   Note On Bb2 75

519447f1 90 37 56   Note On G2 86
51944896 90 28 00   Note On(0-Off) E1
51944945 90 28 2f   Note On E1 47
519449ed 90 28 00   Note On(0-Off) E1

51944a02 90 3e 00   Note On(0-Off) D3
51944a53 90 37 00   Note On(0-Off) G2

51944a74 90 3a 00   Note On(0-Off) Bb2
51944be0 90 37 64   Note On G2 100

51944be3 90 3c 7f   Note On C3 127

51944be4 90 33 59   Note On Eb2 89

51944be5 90 24 7b   Note On C1 123
51944efb 90 3c 00   Note On(0-Off) C3

51944f0d 90 33 00   Note On(0-Off) Eb2

51944f37 90 37 00   Note On(0-Off) G2
51944fef 90 3c 7f   Note On C3 127

51944ff1 90 33 44   Note On Eb2 68

51944ff9 90 37 66   Note On G2 102
51945084 90 24 00   Note On(0-Off) C1

5194508c 90 33 00   Note On(0-Off) Eb2

5194508d 90 37 00   Note On(0-Off) G2

51945098 90 3c 00   Note On(0-Off) C3
519451be 90 24 70   Note On C1 112
51945302 90 24 00   Note On(0-Off) C1
519453bb 90 2d 69   Note On A1 105

519453cc 90 3f 5f   Note On Eb3 95

519453cf 90 39 4d   Note On A2 77
5194572d 90 39 00   Note On(0-Off) A2

51945730 90 3f 00   Note On(0-Off) Eb3
519457d1 90 3f 66   Note On Eb3 102

519457d6 90 39 47   Note On A2 71
5194581d 90 2d 00   Note On(0-Off) A1
519459aa 90 39 00   Note On(0-Off) A2

519459dd 90 2d 3d   Note On A1 61
51945a2c 90 3f 00   Note On(0-Off) Eb3
51945b38 90 2d 00   Note On(0-Off) A1
51945bf0 90 26 64   Note On D1 100

51945c15 90 36 3e   Note On F#2 62

51945c36 90 39 4d   Note On A2 77
51945d02 90 39 00   Note On(0-Off) A2

51945d04 90 36 00   Note On(0-Off) F#2
51945faf 90 36 3e   Note On F#2 62

51945fb0 90 3c 7f   Note On C3 127

51945fb1 90 39 64   Note On A2 100
51946089 90 26 00   Note On(0-Off) D1
5194619b 90 26 60   Note On D1 96
51946245 90 3c 00   Note On(0-Off) C3

51946261 90 39 00   Note On(0-Off) A2

5194626c 90 36 00   Note On(0-Off) F#2
519462a3 90 36 5b   Note On F#2 91

519462a4 90 39 6e   Note On A2 110
51946300 90 26 00   Note On(0-Off) D1
51946385 90 26 67   Note On D1 103
51946466 90 36 00   Note On(0-Off) F#2

51946474 90 39 00   Note On(0-Off) A2
519464dc 90 36 44   Note On F#2 68

519464de 90 39 64   Note On A2 100
519466ed 90 36 00   Note On(0-Off) F#2
519466fb 90 39 00   Note On(0-Off) A2
519467ae 90 36 59   Note On F#2 89
5194691b 90 36 00   Note On(0-Off) F#2

51946927 90 26 00   Note On(0-Off) D1
51946987 90 36 52   Note On F#2 82
519469b3 90 26 69   Note On D1 105
51946a71 90 36 00   Note On(0-Off) F#2
51946b48 90 26 00   Note On(0-Off) D1
51946bb2 90 37 60   Note On G2 96

51946bb3 90 3e 64   Note On D3 100

51946bb5 90 3a 62   Note On Bb2 98

51946bc1 90 2b 6b   Note On G1 107
51946eae 90 3e 00   Note On(0-Off) D3

51946eae 90 37 00   Note On(0-Off) G2
51946eec 90 3a 00   Note On(0-Off) Bb2
51946f6c 90 37 59   Note On G2 89

51946f6d 90 3a 5b   Note On Bb2 91

51946f6e 90 3e 64   Note On D3 100
51947063 90 2b 00   Note On(0-Off) G1
5194718f 90 2b 56   Note On G1 86
51947201 90 2b 00   Note On(0-Off) G1
51947223 90 37 00   Note On(0-Off) G2

51947229 90 3a 00   Note On(0-Off) Bb2

51947252 90 3e 00   Note On(0-Off) D3
51947385 90 3e 67   Note On D3 103

51947387 90 3a 62   Note On Bb2 98

51947389 90 35 60   Note On F2 96

5194738e 90 2e 67   Note On Bb1 103
51947676 90 35 00   Note On(0-Off) F2

5194767a 90 3e 00   Note On(0-Off) D3

519476a0 90 3a 00   Note On(0-Off) Bb2
51947762 90 3a 6b   Note On Bb2 107

51947764 90 3e 67   Note On D3 103

51947769 90 35 62   Note On F2 98
519477e4 90 2e 00   Note On(0-Off) Bb1
51947912 90 2e 47   Note On Bb1 71

51947922 90 35 00   Note On(0-Off) F2
5194795d 90 3a 00   Note On(0-Off) Bb2

5194795f 90 3e 00   Note On(0-Off) D3

51947994 90 2e 00   Note On(0-Off) Bb1
51947a5f 90 26 2b   Note On D1 43
51947aab 90 26 00   Note On(0-Off) D1
51947b5a 90 41 64   Note On F3 100

51947b5d 90 3e 67   Note On D3 103

51947b5e 90 39 66   Note On A2 102

51947b5f 90 26 6d   Note On D1 109
51947e9a 90 39 00   Note On(0-Off) A2

51947ec2 90 41 00   Note On(0-Off) F3
51947ec6 90 3e 00   Note On(0-Off) D3
51947f8b 90 41 64   Note On F3 100

51947f8d 90 3e 64   Note On D3 100
51947f95 90 39 52   Note On A2 82
5194801b 90 26 00   Note On(0-Off) D1
51948166 90 26 5e   Note On D1 94
5194826a 90 26 00   Note On(0-Off) D1

51948292 90 41 00   Note On(0-Off) F3

5194829a 90 39 00   Note On(0-Off) A2

5194829c 90 3e 00   Note On(0-Off) D3
51948363 90 41 52   Note On F3 82

51948364 90 3e 60   Note On D3 96

5194836a 90 39 45   Note On A2 69

51948371 90 26 64   Note On D1 100
51948651 90 39 00   Note On(0-Off) A2
519486ad 90 41 00   Note On(0-Off) F3

519486b4 90 3e 00   Note On(0-Off) D3
51948800 90 41 66   Note On F3 102

51948801 90 3e 64   Note On D3 100

51948801 90 39 64   Note On A2 100

51948801 90 26 00   Note On(0-Off) D1
5194894c 90 26 4b   Note On D1 75

519489ae 90 3e 00   Note On(0-Off) D3

519489b7 90 39 00   Note On(0-Off) A2
519489ca 90 41 00   Note On(0-Off) F3

519489ff 90 26 00   Note On(0-Off) D1
51948bbd 90 3f 64   Note On Eb3 100

51948bf4 90 37 45   Note On G2 69

51948bf4 90 24 79   Note On C1 121
51948ec3 90 3f 00   Note On(0-Off) Eb3

51948ef0 90 37 00   Note On(0-Off) G2
51948fba 90 3f 56   Note On Eb3 86

51948fc4 90 37 49   Note On G2 73
51949032 90 24 00   Note On(0-Off) C1
51949182 90 24 72   Note On C1 114
51949219 90 37 00   Note On(0-Off) G2
51949253 90 24 00   Note On(0-Off) C1
519492bb 90 3f 00   Note On(0-Off) Eb3
519493be 90 3f 64   Note On Eb3 100

519493c1 90 39 64   Note On A2 100

519493c5 90 2d 67   Note On A1 103
519496cb 90 39 00   Note On(0-Off) A2

519496d6 90 3f 00   Note On(0-Off) Eb3
519497de 90 3f 70   Note On Eb3 112

519497e4 90 39 52   Note On A2 82
51949873 90 2d 00   Note On(0-Off) A1
51949999 90 39 00   Note On(0-Off) A2

519499c2 90 2d 45   Note On A1 69
51949a2a 90 3f 00   Note On(0-Off) Eb3
51949aa6 90 2d 00   Note On(0-Off) A1
51949bc4 90 36 4b   Note On F#2 75
51949bd5 90 39 59   Note On A2 89

51949bd6 90 26 67   Note On D1 103
51949edf 90 36 00   Note On(0-Off) F#2

51949eeb 90 39 00   Note On(0-Off) A2
51949fbb 90 36 60   Note On F#2 96

51949fc3 90 39 6b   Note On A2 107
5194a0ba 90 26 00   Note On(0-Off) D1
5194a1d5 90 26 5e   Note On D1 94
5194a2e7 90 26 00   Note On(0-Off) D1
5194a2ed 90 36 00   Note On(0-Off) F#2

5194a2ee 90 39 00   Note On(0-Off) A2
5194a3ae 90 36 5e   Note On F#2 94

5194a3b0 90 3c 7f   Note On C3 127

5194a3b2 90 39 69   Note On A2 105
5194a3c4 90 26 6d   Note On D1 109
5194a5f3 90 39 00   Note On(0-Off) A2
5194a627 90 36 00   Note On(0-Off) F#2
5194a73f 90 3c 00   Note On(0-Off) C3
5194a7be 90 36 66   Note On F#2 102

5194a7c1 90 39 72   Note On A2 114
5194a953 90 26 00   Note On(0-Off) D1
5194a9bb 90 26 59   Note On D1 89
5194aa2d 90 36 00   Note On(0-Off) F#2
5194aaf6 90 39 00   Note On(0-Off) A2

5194ab1c 90 26 00   Note On(0-Off) D1
5194aba9 90 37 4f   Note On G2 79

5194abb0 90 2b 62   Note On G1 98

5194abb3 90 3a 60   Note On Bb2 96
5194aed5 90 37 00   Note On(0-Off) G2

5194af11 90 3a 00   Note On(0-Off) Bb2
5194af8c 90 3a 64   Note On Bb2 100
5194af8d 90 37 4f   Note On G2 79
5194b090 90 2b 00   Note On(0-Off) G1
5194b17f 90 2b 40   Note On G1 64
5194b20b 90 3a 00   Note On(0-Off) Bb2

5194b249 90 37 00   Note On(0-Off) G2
5194b306 90 2b 00   Note On(0-Off) G1
5194b357 90 3a 5e   Note On Bb2 94

5194b359 90 37 5f   Note On G2 95

5194b35b 90 3e 66   Note On D3 102

5194b371 90 2a 64   Note On F#1 100
5194b658 90 3e 00   Note On(0-Off) D3
5194b663 90 37 00   Note On(0-Off) G2

5194b67d 90 3a 00   Note On(0-Off) Bb2
5194b756 90 37 59   Note On G2 89

5194b75a 90 3e 64   Note On D3 100

5194b75b 90 3a 6b   Note On Bb2 107
5194b82e 90 2a 00   Note On(0-Off) F#1
5194b947 90 2a 3a   Note On F#1 58
5194ba28 90 3e 00   Note On(0-Off) D3

5194ba2e 90 2a 00   Note On(0-Off) F#1

5194ba55 90 37 00   Note On(0-Off) G2
5194ba8e 90 3a 00   Note On(0-Off) Bb2
5194bb79 90 28 5e   Note On E1 94

5194bb8e 90 3e 66   Note On D3 102

5194bb90 90 3a 6b   Note On Bb2 107
5194bb99 90 35 4b   Note On F2 75
5194be17 90 3e 00   Note On(0-Off) D3

5194be46 90 35 00   Note On(0-Off) F2
5194be5b 90 3a 00   Note On(0-Off) Bb2

5194bea5 90 28 00   Note On(0-Off) E1
5194bf42 90 3a 70   Note On Bb2 112

5194bf44 90 3e 6d   Note On D3 109

5194bf47 90 35 67   Note On F2 103
5194c0bd 90 35 00   Note On(0-Off) F2
5194c13c 90 28 3f   Note On E1 63

5194c169 90 3e 00   Note On(0-Off) D3

5194c16e 90 3a 00   Note On(0-Off) Bb2
5194c25d 90 28 00   Note On(0-Off) E1
5194c359 90 37 6e   Note On G2 110

5194c35a 90 3a 72   Note On Bb2 114

5194c35c 90 40 6b   Note On E3 107

5194c361 90 2b 59   Note On G1 89
5194c62b 90 40 00   Note On(0-Off) E3
5194c651 90 3a 00   Note On(0-Off) Bb2

5194c666 90 37 00   Note On(0-Off) G2
5194c770 90 40 69   Note On E3 105

5194c772 90 37 64   Note On G2 100

5194c777 90 3a 6e   Note On Bb2 110
5194c7c1 90 2b 00   Note On(0-Off) G1
5194c92e 90 2b 3e   Note On G1 62
5194c9b8 90 3a 00   Note On(0-Off) Bb2
5194ca05 90 40 00   Note On(0-Off) E3

5194ca23 90 2b 00   Note On(0-Off) G1
5194cac8 90 37 00   Note On(0-Off) G2
5194cb60 90 3f 69   Note On Eb3 105

5194cb63 90 37 3f   Note On G2 63

5194cb66 90 24 76   Note On C1 118
5194ce81 90 37 00   Note On(0-Off) G2

5194ce8c 90 3f 00   Note On(0-Off) Eb3
5194cf33 90 3f 5b   Note On Eb3 91
5194cf38 90 37 5b   Note On G2 91

5194cf47 90 24 00   Note On(0-Off) C1
5194d103 90 24 72   Note On C1 114
5194d191 90 37 00   Note On(0-Off) G2
5194d20c 90 24 00   Note On(0-Off) C1

5194d239 90 3f 00   Note On(0-Off) Eb3
5194d2f6 90 39 56   Note On A2 86

5194d2f8 90 3f 5b   Note On Eb3 91

5194d303 90 2d 64   Note On A1 100
5194d610 90 3f 00   Note On(0-Off) Eb3

5194d616 90 39 00   Note On(0-Off) A2
5194d6ec 90 39 66   Note On A2 102

5194d6ed 90 3f 6b   Note On Eb3 107

5194d712 90 2d 00   Note On(0-Off) A1
5194d8c6 90 2d 66   Note On A1 102
5194d97e 90 3f 00   Note On(0-Off) Eb3
5194d9a3 90 39 00   Note On(0-Off) A2

5194d9d5 90 2d 00   Note On(0-Off) A1
5194dae9 90 36 44   Note On F#2 68

5194daf1 90 39 69   Note On A2 105

5194daf2 90 26 67   Note On D1 103
5194ddf2 90 39 00   Note On(0-Off) A2

5194ddf2 90 36 00   Note On(0-Off) F#2
5194de81 90 36 40   Note On F#2 64

5194de87 90 3c 7f   Note On C3 127

5194de87 90 39 62   Note On A2 98
5194df10 90 26 00   Note On(0-Off) D1
5194e080 90 26 66   Note On D1 102
5194e127 90 26 00   Note On(0-Off) D1
5194e12d 90 36 00   Note On(0-Off) F#2

5194e12e 90 3c 00   Note On(0-Off) C3

5194e139 90 39 00   Note On(0-Off) A2
5194f0d0 90 3a 69   Note On Bb2 105

5194f0d4 90 3e 69   Note On D3 105

5194f0d6 90 37 52   Note On G2 82

5194f0d8 90 2b 5e   Note On G1 94
5194f3c4 90 37 00   Note On(0-Off) G2

5194f3db 90 3e 00   Note On(0-Off) D3

5194f3e7 90 3a 00   Note On(0-Off) Bb2
5194f498 90 3e 64   Note On D3 100

5194f499 90 3a 64   Note On Bb2 100

5194f49a 90 37 5e   Note On G2 94
5194f548 90 2b 00   Note On(0-Off) G1
5194f670 90 2b 4d   Note On G1 77
5194f6cb 90 2b 00   Note On(0-Off) G1

5194f6d9 90 37 00   Note On(0-Off) G2

5194f6ed 90 3a 00   Note On(0-Off) Bb2
5194f6fb 90 3e 00   Note On(0-Off) D3
5194f87a 90 2e 66   Note On Bb1 102

5194f883 90 35 44   Note On F2 68

5194f884 90 3a 52   Note On Bb2 82

5194f885 90 3e 62   Note On D3 98
5194fb2e 90 3e 00   Note On(0-Off) D3

5194fb3a 90 3a 00   Note On(0-Off) Bb2

5194fb42 90 35 00   Note On(0-Off) F2
5194fc4f 90 3e 67   Note On D3 103

5194fc50 90 3a 69   Note On Bb2 105

5194fc50 90 35 64   Note On F2 100
5194fd5a 90 2e 00   Note On(0-Off) Bb1
5194fe81 90 2e 4f   Note On Bb1 79

5194fe95 90 35 00   Note On(0-Off) F2

5194fe95 90 3a 00   Note On(0-Off) Bb2

5194fe96 90 3e 00   Note On(0-Off) D3

5194fe96 90 2e 00   Note On(0-Off) Bb1
5195003d 90 41 5b   Note On F3 91

5195003d 90 3e 62   Note On D3 98

5195003d 90 39 52   Note On A2 82

5195003d 90 26 67   Note On D1 103
5195030f 90 39 00   Note On(0-Off) A2

51950323 90 41 00   Note On(0-Off) F3
5195032f 90 3e 00   Note On(0-Off) D3
5195041e 90 41 60   Note On F3 96

51950420 90 3e 69   Note On D3 105

51950425 90 39 5f   Note On A2 95
519504d9 90 26 00   Note On(0-Off) D1
51950604 90 26 56   Note On D1 86
519506f9 90 26 00   Note On(0-Off) D1

5195070d 90 39 00   Note On(0-Off) A2

5195070e 90 41 00   Note On(0-Off) F3

51950721 90 3e 00   Note On(0-Off) D3
519507de 90 41 62   Note On F3 98

519507e4 90 3e 66   Note On D3 102

519507e5 90 39 5f   Note On A2 95

519507fb 90 26 66   Note On D1 102
51950ada 90 39 00   Note On(0-Off) A2

51950aec 90 3e 00   Note On(0-Off) D3

51950aef 90 41 00   Note On(0-Off) F3
51950bb8 90 41 67   Note On F3 103

51950bbc 90 3e 6b   Note On D3 107

51950bbd 90 39 69   Note On A2 105
51950c39 90 26 00   Note On(0-Off) D1
51950d80 90 26 45   Note On D1 69
51950dd9 90 3e 00   Note On(0-Off) D3
51950e07 90 39 00   Note On(0-Off) A2

51950e2c 90 41 00   Note On(0-Off) F3

51950e40 90 26 00   Note On(0-Off) D1
51950f9f 90 3f 66   Note On Eb3 102

51950fa0 90 37 5e   Note On G2 94
51950fac 90 24 79   Note On C1 121
519512a6 90 37 00   Note On(0-Off) G2

519512a9 90 3f 00   Note On(0-Off) Eb3
51951382 90 3f 62   Note On Eb3 98

51951383 90 37 5b   Note On G2 91
519513fa 90 24 00   Note On(0-Off) C1
519514fc 90 37 00   Note On(0-Off) G2

51951531 90 24 7b   Note On C1 123
5195159b 90 3f 00   Note On(0-Off) Eb3
519515f1 90 24 00   Note On(0-Off) C1
5195175e 90 3f 6e   Note On Eb3 110

51951761 90 3a 59   Note On Bb2 89

5195176c 90 37 49   Note On G2 73

51951774 90 2e 66   Note On Bb1 102
51951a0e 90 3a 00   Note On(0-Off) Bb2

51951a5d 90 37 00   Note On(0-Off) G2

51951a5e 90 3f 00   Note On(0-Off) Eb3
51951b33 90 3f 6e   Note On Eb3 110

51951b37 90 37 5b   Note On G2 91

51951b38 90 3a 67   Note On Bb2 103
51951b60 90 2e 00   Note On(0-Off) Bb1
51951cde 90 2e 3a   Note On Bb1 58

51951cf4 90 3a 00   Note On(0-Off) Bb2
51951d94 90 3f 00   Note On(0-Off) Eb3
51951ec8 90 37 00   Note On(0-Off) G2
51951f0b 90 2e 00   Note On(0-Off) Bb1

51951f18 90 27 64   Note On Eb1 100

51951f22 90 43 69   Note On G3 105

51951f28 90 3a 67   Note On Bb2 103

51951f29 90 37 64   Note On G2 100

51951f2b 90 3f 64   Note On Eb3 100
5195222f 90 3f 00   Note On(0-Off) Eb3

51952234 90 37 00   Note On(0-Off) G2

51952235 90 3a 00   Note On(0-Off) Bb2
5195228f 90 43 00   Note On(0-Off) G3
5195232f 90 43 64   Note On G3 100

51952330 90 3a 67   Note On Bb2 103

51952331 90 3f 70   Note On Eb3 112

51952334 90 37 4f   Note On G2 79
519523d3 90 27 00   Note On(0-Off) Eb1
51952623 90 3a 00   Note On(0-Off) Bb2
51952651 90 3f 00   Note On(0-Off) Eb3

51952688 90 37 00   Note On(0-Off) G2

519526a4 90 43 00   Note On(0-Off) G3
5195274f 90 29 74   Note On F1 116

51952753 90 3f 6d   Note On Eb3 109

51952759 90 37 5f   Note On G2 95

5195275d 90 3a 6b   Note On Bb2 107

51952760 90 43 66   Note On G3 102
51952a81 90 3f 00   Note On(0-Off) Eb3
51952ac0 90 3a 00   Note On(0-Off) Bb2

51952ac4 90 37 00   Note On(0-Off) G2

51952ae2 90 43 00   Note On(0-Off) G3
51952c02 90 43 64   Note On G3 100

51952c04 90 3f 60   Note On Eb3 96

51952c06 90 37 5f   Note On G2 95

51952c07 90 3a 69   Note On Bb2 105
51952cb2 90 29 00   Note On(0-Off) F1
51952db2 90 3a 00   Note On(0-Off) Bb2
51952dd8 90 29 44   Note On F1 68

51952df8 90 37 00   Note On(0-Off) G2

51952e1e 90 43 00   Note On(0-Off) G3
51952e5a 90 3f 00   Note On(0-Off) Eb3
51952ec8 90 29 00   Note On(0-Off) F1
51953023 90 29 67   Note On F1 103

51953026 90 41 67   Note On F3 103

51953028 90 39 64   Note On A2 100
5195302a 90 3c 7f   Note On C3 127
51953318 90 3c 00   Note On(0-Off) C3

51953319 90 41 00   Note On(0-Off) F3

5195332c 90 39 00   Note On(0-Off) A2
51953408 90 41 5f   Note On F3 95

51953410 90 39 59   Note On A2 89
519534e8 90 29 00   Note On(0-Off) F1
519535d5 90 41 00   Note On(0-Off) F3

519535ea 90 39 00   Note On(0-Off) A2

519535fd 90 29 5b   Note On F1 91
51953718 90 29 00   Note On(0-Off) F1
519537db 90 35 56   Note On F2 86

519537dc 90 2e 69   Note On Bb1 105

519537dd 90 3a 6d   Note On Bb2 109

519537de 90 3e 6b   Note On D3 107
51953abe 90 35 00   Note On(0-Off) F2

51953ac9 90 3e 00   Note On(0-Off) D3
51953adc 90 3a 00   Note On(0-Off) Bb2
51953b9d 90 3e 67   Note On D3 103

51953ba0 90 3a 6b   Note On Bb2 107

51953ba4 90 35 6b   Note On F2 107
51953c0b 90 2e 00   Note On(0-Off) Bb1
51953d8a 90 2e 5f   Note On Bb1 95
51953da9 90 35 00   Note On(0-Off) F2

51953dab 90 3e 00   Note On(0-Off) D3
51953dff 90 3a 00   Note On(0-Off) Bb2

51953e3a 90 2e 00   Note On(0-Off) Bb1
51953e94 90 3f 0d   Note On Eb3 13
51953ef7 90 3f 00   Note On(0-Off) Eb3
51953f81 90 2e 72   Note On Bb1 114

51953f85 90 3f 6d   Note On Eb3 109

51953f89 90 35 5f   Note On F2 95

51953f8b 90 3a 74   Note On Bb2 116
51954091 90 35 00   Note On(0-Off) F2

519540a7 90 3f 00   Note On(0-Off) Eb3

519540b9 90 3a 00   Note On(0-Off) Bb2
5195417b 90 3a 70   Note On Bb2 112

5195417e 90 3e 70   Note On D3 112

51954180 90 35 5f   Note On F2 95
5195422c 90 2e 00   Note On(0-Off) Bb1
51954359 90 2e 72   Note On Bb1 114
51954540 90 2e 00   Note On(0-Off) Bb1
519545b0 90 3a 00   Note On(0-Off) Bb2
519545fd 90 3e 00   Note On(0-Off) D3

51954605 90 29 13   Note On F1 19

51954626 90 35 00   Note On(0-Off) F2
5195466b 90 29 00   Note On(0-Off) F1
51954716 90 39 6b   Note On A2 107

51954717 90 35 6b   Note On F2 107

51954718 90 29 70   Note On F1 112
519549f2 90 35 00   Note On(0-Off) F2

51954a0f 90 39 00   Note On(0-Off) A2
51954afd 90 35 69   Note On F2 105

51954afe 90 39 6b   Note On A2 107
51954bb3 90 29 00   Note On(0-Off) F1
51954cc3 90 29 45   Note On F1 69
51954d6e 90 29 00   Note On(0-Off) F1
51954de0 90 35 00   Note On(0-Off) F2

51954df4 90 39 00   Note On(0-Off) A2
51954ec4 90 3e 69   Note On D3 105

51954ec9 90 35 67   Note On F2 103

51954eca 90 39 6d   Note On A2 109

51954edc 90 26 6b   Note On D1 107
519551c9 90 35 00   Note On(0-Off) F2

519551e2 90 3e 00   Note On(0-Off) D3

519551f9 90 39 00   Note On(0-Off) A2
519552c9 90 3e 67   Note On D3 103

519552cb 90 39 6b   Note On A2 107

519552ce 90 35 6d   Note On F2 109
5195533c 90 26 00   Note On(0-Off) D1
5195549b 90 26 3f   Note On D1 63
5195552a 90 35 00   Note On(0-Off) F2

5195554d 90 3e 00   Note On(0-Off) D3
5195556f 90 39 00   Note On(0-Off) A2
519555e2 90 26 00   Note On(0-Off) D1
519556bc 90 3a 66   Note On Bb2 102

519556bd 90 3e 67   Note On D3 103

519556bf 90 37 59   Note On G2 89

519556cc 90 2b 60   Note On G1 96
51955927 90 37 00   Note On(0-Off) G2
519559f5 90 3e 00   Note On(0-Off) D3

519559fc 90 3a 00   Note On(0-Off) Bb2
51955abb 90 3e 69   Note On D3 105

51955abd 90 37 60   Note On G2 96

51955ac0 90 3a 6b   Note On Bb2 107
51955b63 90 2b 00   Note On(0-Off) G1
51955c65 90 2b 4f   Note On G1 79
51955cb2 90 37 00   Note On(0-Off) G2
51955cd1 90 3a 00   Note On(0-Off) Bb2

51955cf7 90 3e 00   Note On(0-Off) D3

51955cfd 90 2b 00   Note On(0-Off) G1
51955e96 90 39 59   Note On A2 89

51955e9c 90 2d 67   Note On A1 103

51955ea0 90 3f 6e   Note On Eb3 110
519561ba 90 39 00   Note On(0-Off) A2

519561cc 90 3f 00   Note On(0-Off) Eb3
51956275 90 39 52   Note On A2 82

5195627b 90 3f 4b   Note On Eb3 75
51956326 90 2d 00   Note On(0-Off) A1
51956460 90 2d 59   Note On A1 89
519564d3 90 2d 00   Note On(0-Off) A1

519564df 90 3f 00   Note On(0-Off) Eb3

519564e5 90 39 00   Note On(0-Off) A2
5195668a 90 2e 6b   Note On Bb1 107

51956690 90 3e 67   Note On D3 103

51956696 90 35 5b   Note On F2 91

51956699 90 3a 5b   Note On Bb2 91
519569ad 90 35 00   Note On(0-Off) F2

519569b9 90 3e 00   Note On(0-Off) D3

519569cf 90 3a 00   Note On(0-Off) Bb2
51956a74 90 3a 6b   Note On Bb2 107

51956a75 90 3e 67   Note On D3 103

51956a7a 90 35 56   Note On F2 86
51956ac5 90 2e 00   Note On(0-Off) Bb1
51956c0d 90 2e 3d   Note On Bb1 61

51956c1d 90 35 00   Note On(0-Off) F2
51956c51 90 3a 00   Note On(0-Off) Bb2

51956c6a 90 2e 00   Note On(0-Off) Bb1

51956c7d 90 3e 00   Note On(0-Off) D3
51956d16 90 24 6e   Note On C1 110
51956d83 90 24 00   Note On(0-Off) C1
51956e3d 90 24 7b   Note On C1 123

51956e42 90 37 5b   Note On G2 91

51956e43 90 3f 67   Note On Eb3 103
51957044 90 37 00   Note On(0-Off) G2
5195708b 90 3f 00   Note On(0-Off) Eb3

51957097 90 24 00   Note On(0-Off) C1
51957144 90 41 62   Note On F3 98

51957144 90 3c 7f   Note On C3 127

51957148 90 29 67   Note On F1 103

51957152 90 39 6b   Note On A2 107
519573e5 90 29 00   Note On(0-Off) F1

519573e5 90 41 00   Note On(0-Off) F3

519573e5 90 3c 00   Note On(0-Off) C3
51957404 90 39 00   Note On(0-Off) A2
5195767c 90 2e 5e   Note On Bb1 94
51957768 90 2e 00   Note On(0-Off) Bb1
5195785d 90 3f 69   Note On Eb3 105

51957860 90 35 62   Note On F2 98

51957861 90 3a 6b   Note On Bb2 107
519578fe 90 35 00   Note On(0-Off) F2

5195790c 90 3a 00   Note On(0-Off) Bb2

5195793d 90 3f 00   Note On(0-Off) Eb3
51957a33 90 3e 6e   Note On D3 110

51957a36 90 3a 6b   Note On Bb2 107

51957a39 90 35 67   Note On F2 103
51957bda 90 35 00   Note On(0-Off) F2

51957bf7 90 2e 76   Note On Bb1 118

51957bfc 90 3e 00   Note On(0-Off) D3

51957c13 90 3a 00   Note On(0-Off) Bb2
51957cc8 90 2e 00   Note On(0-Off) Bb1

51957ce0 90 3f 6e   Note On Eb3 110
51957ce4 90 35 62   Note On F2 98

51957ce8 90 3a 64   Note On Bb2 100
51957dd6 90 3a 00   Note On(0-Off) Bb2

51957de1 90 3f 00   Note On(0-Off) Eb3

51957df3 90 35 00   Note On(0-Off) F2
51957e99 90 3f 59   Note On Eb3 89

51957ea0 90 35 49   Note On F2 73

51957ea1 90 3a 59   Note On Bb2 89
51957f2b 90 3a 00   Note On(0-Off) Bb2

51957f2f 90 35 00   Note On(0-Off) F2
51957f45 90 3f 00   Note On(0-Off) Eb3
51957fb9 90 3e 72   Note On D3 114

51957fbf 90 3a 64   Note On Bb2 100

51957fc6 90 35 5f   Note On F2 95
5195801e 90 35 00   Note On(0-Off) F2
519580b7 90 3a 00   Note On(0-Off) Bb2

519580be 90 2e 79   Note On Bb1 121

519580c2 90 3e 00   Note On(0-Off) D3
519581a7 90 35 56   Note On F2 86

519581ac 90 3a 6b   Note On Bb2 107

519581ad 90 3f 74   Note On Eb3 116
519581dc 90 2e 00   Note On(0-Off) Bb1
51958276 90 2e 79   Note On Bb1 121
51958294 90 35 00   Note On(0-Off) F2

51958298 90 3a 00   Note On(0-Off) Bb2

519582d3 90 3f 00   Note On(0-Off) Eb3
519583a0 90 2e 00   Note On(0-Off) Bb1
519584a6 90 39 64   Note On A2 100

519584a7 90 29 6b   Note On F1 107

519584a9 90 41 5e   Note On F3 94

519584ae 90 3c 7f   Note On C3 127
5195863e 90 3c 00   Note On(0-Off) C3

51958655 90 39 00   Note On(0-Off) A2

51958666 90 41 00   Note On(0-Off) F3
519586a0 90 39 47   Note On A2 71
519586de 90 29 00   Note On(0-Off) F1

519586e0 90 3c 7f   Note On C3 127
51958788 90 29 60   Note On F1 96
519587c2 90 3c 00   Note On(0-Off) C3

519587d4 90 39 00   Note On(0-Off) A2
51958860 90 29 00   Note On(0-Off) F1
51958882 90 39 3d   Note On A2 61
5195892d 90 39 00   Note On(0-Off) A2
519589a8 90 3e 64   Note On D3 100
519589ab 90 39 66   Note On A2 102

519589ae 90 29 6d   Note On F1 109
51958b2a 90 39 00   Note On(0-Off) A2
51958b4b 90 3e 00   Note On(0-Off) D3

51958b60 90 39 34   Note On A2 52

51958b61 90 29 00   Note On(0-Off) F1
51958c33 90 39 00   Note On(0-Off) A2
51958c96 90 39 64   Note On A2 100

51958c96 90 3c 7f   Note On C3 127

51958c97 90 29 67   Note On F1 103
51958e3f 90 39 00   Note On(0-Off) A2
51958e80 90 39 33   Note On A2 51
51958eff 90 3c 00   Note On(0-Off) C3

51958f2d 90 29 00   Note On(0-Off) F1
51958f58 90 39 00   Note On(0-Off) A2
51958f99 90 39 62   Note On A2 98

51958f9a 90 3c 7f   Note On C3 127

51958fa6 90 29 66   Note On F1 102
51959029 90 3c 00   Note On(0-Off) C3

51959039 90 39 00   Note On(0-Off) A2

51959061 90 29 00   Note On(0-Off) F1
51959088 90 39 52   Note On A2 82

51959099 90 29 6b   Note On F1 107
5195910e 90 39 00   Note On(0-Off) A2

51959127 90 29 00   Note On(0-Off) F1
51959175 90 39 64   Note On A2 100

5195917a 90 3c 7f   Note On C3 127

5195917f 90 29 6d   Note On F1 109
519591df 90 3c 00   Note On(0-Off) C3

519591e7 90 39 00   Note On(0-Off) A2
51959218 90 29 00   Note On(0-Off) F1

51959260 90 29 6d   Note On F1 109
519592fc 90 29 00   Note On(0-Off) F1
51959357 90 29 70   Note On F1 112
519593e8 90 29 00   Note On(0-Off) F1
51959449 90 29 74   Note On F1 116
519594d8 90 29 00   Note On(0-Off) F1
51959566 90 2e 76   Note On Bb1 118
51959753 90 35 6b   Note On F2 107

51959758 90 3e 72   Note On D3 114

51959759 90 3a 79   Note On Bb2 121
519597f4 90 2e 00   Note On(0-Off) Bb1
5195983e 90 3e 00   Note On(0-Off) D3

51959852 90 35 00   Note On(0-Off) F2

5195985b 90 3a 00   Note On(0-Off) Bb2

51959875 90 2e 79   Note On Bb1 121
51959909 90 2e 00   Note On(0-Off) Bb1
51959952 90 3f 74   Note On Eb3 116

51959956 90 2e 6e   Note On Bb1 110

5195995d 90 3a 6e   Note On Bb2 110

51959963 90 35 67   Note On F2 103
51959a1a 90 3a 00   Note On(0-Off) Bb2

51959a25 90 35 00   Note On(0-Off) F2
51959a27 90 3f 00   Note On(0-Off) Eb3
51959aa4 90 2e 00   Note On(0-Off) Bb1
51959bf6 90 2e 76   Note On Bb1 118

51959c03 90 35 62   Note On F2 98

51959c04 90 3f 6b   Note On Eb3 107

51959c05 90 3a 70   Note On Bb2 112
51959cf0 90 3a 00   Note On(0-Off) Bb2

51959d13 90 35 00   Note On(0-Off) F2
51959d30 90 3f 00   Note On(0-Off) Eb3

51959d80 90 2e 00   Note On(0-Off) Bb1
51959dfb 90 3e 76   Note On D3 118

51959e00 90 3a 72   Note On Bb2 114

51959e05 90 35 6e   Note On F2 110
51959fc7 90 2e 7b   Note On Bb1 123
5195a002 90 35 00   Note On(0-Off) F2

5195a00b 90 3a 00   Note On(0-Off) Bb2

5195a00e 90 3e 00   Note On(0-Off) D3
5195a0bd 90 3f 76   Note On Eb3 118

5195a0c3 90 3a 74   Note On Bb2 116

5195a0c5 90 35 6b   Note On F2 107
5195a18a 90 35 00   Note On(0-Off) F2

5195a19b 90 3a 00   Note On(0-Off) Bb2

5195a1b3 90 3f 00   Note On(0-Off) Eb3

5195a1b7 90 2e 00   Note On(0-Off) Bb1
5195a266 90 3a 62   Note On Bb2 98

5195a26a 90 3f 66   Note On Eb3 102

5195a271 90 35 3e   Note On F2 62
5195a2d1 90 3a 00   Note On(0-Off) Bb2

5195a2d5 90 35 00   Note On(0-Off) F2

5195a2eb 90 3f 00   Note On(0-Off) Eb3
5195a37a 90 2e 74   Note On Bb1 116

5195a37d 90 3e 6b   Note On D3 107

5195a381 90 35 4d   Note On F2 77

5195a382 90 3a 66   Note On Bb2 102
5195a41e 90 35 00   Note On(0-Off) F2

5195a429 90 2e 00   Note On(0-Off) Bb1
5195a44a 90 3a 00   Note On(0-Off) Bb2

5195a44f 90 3e 00   Note On(0-Off) D3

5195a471 90 2e 5b   Note On Bb1 91
5195a55a 90 35 60   Note On F2 96

5195a55b 90 3f 72   Note On Eb3 114

5195a55c 90 3a 6d   Note On Bb2 109
5195a59b 90 2e 00   Note On(0-Off) Bb1
5195a61f 90 2e 72   Note On Bb1 114
5195a655 90 3a 00   Note On(0-Off) Bb2

5195a669 90 35 00   Note On(0-Off) F2
5195a6a6 90 3f 00   Note On(0-Off) Eb3
5195a84c 90 41 6d   Note On F3 109

5195a850 90 39 60   Note On A2 96

5195a85e 90 29 70   Note On F1 112

5195a860 90 2e 00   Note On(0-Off) Bb1
5195a8a6 90 3c 7f   Note On C3 127
5195ab1f 90 29 00   Note On(0-Off) F1
5195ad29 90 41 00   Note On(0-Off) F3

5195ad2b 90 3c 00   Note On(0-Off) C3

5195ad59 90 39 00   Note On(0-Off) A2
5195adcf 90 3f 74   Note On Eb3 116

5195add1 90 39 42   Note On A2 66
5195b045 90 39 00   Note On(0-Off) A2

5195b049 90 3f 00   Note On(0-Off) Eb3
5195b0a3 90 39 69   Note On A2 105

5195b0a9 90 3c 7f   Note On C3 127
5195b1f2 90 3c 00   Note On(0-Off) C3

5195b1fb 90 39 00   Note On(0-Off) A2
5195b274 90 29 3a   Note On F1 58
5195b359 90 35 6b   Note On F2 107
5195b400 90 29 00   Note On(0-Off) F1
5195b429 90 39 64   Note On A2 100

5195b44a 90 29 6b   Note On F1 107
5195b4af 90 39 00   Note On(0-Off) A2

5195b4b1 90 35 00   Note On(0-Off) F2

5195b4d6 90 29 00   Note On(0-Off) F1
5195b52e 90 35 70   Note On F2 112

5195b531 90 39 6d   Note On A2 109

5195b535 90 29 74   Note On F1 116
5195b5c5 90 35 00   Note On(0-Off) F2

5195b5ed 90 29 00   Note On(0-Off) F1
5195b651 90 39 00   Note On(0-Off) A2
5195b70e 90 36 4f   Note On F#2 79

5195b71b 90 39 6b   Note On A2 107

5195b725 90 2a 70   Note On F#1 112
5195b7ba 90 39 00   Note On(0-Off) A2

5195b7c6 90 36 00   Note On(0-Off) F#2
5195b848 90 2a 00   Note On(0-Off) F#1
5195b8fd 90 2b 62   Note On G1 98

5195b8ff 90 3a 56   Note On Bb2 86

5195b902 90 37 44   Note On G2 68

5195b905 90 3e 69   Note On D3 105
5195bc11 90 37 00   Note On(0-Off) G2

5195bc42 90 2b 00   Note On(0-Off) G1
5195bd31 90 3e 00   Note On(0-Off) D3
5195bded 90 3a 00   Note On(0-Off) Bb2
527c5bd9 90 58 3c   Note On E5 60

527c5be7 90 59 3a   Note On F5 58
527c659d 90 48 15   Note On C4 21
527c663c 90 4a 03   Note On D4 3
527c6714 90 49 00   Note On(0-Off) C#4
527c67e6 90 59 00   Note On(0-Off) F5
527c6818 90 58 00   Note On(0-Off) E5
527c68a5 90 58 3d   Note On E5 61

527c68ad 90 59 47   Note On F5 71
527c69e4 90 39 3e   Note On A2 62

527c69ec 90 3b 4b   Note On B2 75
527c6d2d 90 4c 0e   Note On E4 14
527c6d63 90 4d 0e   Note On F4 14
527c6e30 90 4a 00   Note On(0-Off) D4
527c6f21 90 48 00   Note On(0-Off) C4
527c728d 90 59 00   Note On(0-Off) F5
527c72da 90 2b 0d   Note On G1 13

527c72de 90 2d 13   Note On A1 19

527c7306 90 58 00   Note On(0-Off) E5
527c754e 90 3e 0d   Note On D3 13

527c7596 90 39 00   Note On(0-Off) A2
527c772f 90 4d 00   Note On(0-Off) F4
527c7777 90 4c 00   Note On(0-Off) E4
527c7b80 90 2b 00   Note On(0-Off) G1

527c7b98 90 2f 0d   Note On B1 13
527c7e03 90 3e 00   Note On(0-Off) D3
527c83d3 90 3b 00   Note On(0-Off) B2
527c8de4 90 29 31   Note On F1 49

527c8e25 90 2b 0f   Note On G1 15
527c90bd 90 2b 00   Note On(0-Off) G1
527c911d 90 29 00   Note On(0-Off) F1
527c920e 90 26 44   Note On D1 68

527c9210 90 24 5b   Note On C1 91
527c94f4 90 2f 00   Note On(0-Off) B1
527c956b 90 2d 00   Note On(0-Off) A1
527c9ba2 90 26 00   Note On(0-Off) D1
527c9bd0 90 24 00   Note On(0-Off) C1
527e9230 90 2f 4b   Note On B1 75

527e9245 90 30 3f   Note On C2 63
527e95fd 90 2f 00   Note On(0-Off) B1

527e9603 90 30 00   Note On(0-Off) C2
527e9653 90 30 3e   Note On C2 62

527e9659 90 2f 4f   Note On B1 79
527e9b52 90 2f 00   Note On(0-Off) B1

527e9b7d 90 30 00   Note On(0-Off) C2
b5d232a8 90 48 6b   Note On C4 107
b5d2334a 90 48 00   Note On(0-Off) C4
b5d233e3 90 48 52   Note On C4 82
b5d23445 90 48 00   Note On(0-Off) C4

b5d23499 90 48 4d   Note On C4 77
b5d23507 90 48 00   Note On(0-Off) C4
b5d23558 90 47 6b   Note On B3 107

b5d2355b 90 48 5b   Note On C4 91
b5d2363e 90 47 00   Note On(0-Off) B3
b5d23644 90 48 00   Note On(0-Off) C4
b5d236d1 90 47 56   Note On B3 86

b5d236d8 90 48 56   Note On C4 86
b5d23754 90 48 00   Note On(0-Off) C4

b5d23767 90 47 00   Note On(0-Off) B3
b5d237ae 90 48 5b   Note On C4 91

b5d237af 90 45 6d   Note On A3 109
b5d23843 90 45 00   Note On(0-Off) A3
b5d23887 90 48 00   Note On(0-Off) C4
b5d23945 90 45 5e   Note On A3 94

b5d23946 90 48 64   Note On C4 100
b5d239be 90 45 00   Note On(0-Off) A3

b5d239de 90 48 00   Note On(0-Off) C4
b5d23a20 90 43 70   Note On G3 112

b5d23a22 90 48 56   Note On C4 86
b5d23d19 90 43 00   Note On(0-Off) G3

b5d23d43 90 48 00   Note On(0-Off) C4
b5d23dde 90 4d 6e   Note On F4 110
b5d23de3 90 47 67   Note On B3 103

b5d23de6 90 48 66   Note On C4 102
b5d23e6a 90 48 00   Note On(0-Off) C4
b5d23eb8 90 47 00   Note On(0-Off) B3
b5d23f33 90 4d 00   Note On(0-Off) F4
b5d2405d 90 48 6b   Note On C4 107

b5d24064 90 4d 74   Note On F4 116
b5d241b3 90 48 00   Note On(0-Off) C4

b5d241b8 90 4d 00   Note On(0-Off) F4
b5d2421f 90 47 6b   Note On B3 107

b5d24228 90 4c 62   Note On E4 98
b5d250dd 90 47 00   Note On(0-Off) B3

b5d25126 90 4c 00   Note On(0-Off) E4
b5d251c8 90 4c 74   Note On E4 116
b5d25288 90 4f 6b   Note On G4 107

b5d252b7 90 4c 00   Note On(0-Off) E4
b5d254c3 90 4f 00   Note On(0-Off) G4

b5d254d3 90 51 72   Note On A4 114
b5d25a84 90 51 00   Note On(0-Off) A4
b5d25b66 90 51 70   Note On A4 112
b5d25c42 90 51 00   Note On(0-Off) A4

b5d25c45 90 53 67   Note On B4 103
b5d25ecd 90 53 00   Note On(0-Off) B4

b5d25ecf 90 4f 6b   Note On G4 107
b5d26051 90 4c 6b   Note On E4 107

b5d2605c 90 4f 00   Note On(0-Off) G4
b5d264e7 90 4c 00   Note On(0-Off) E4
b5d265a1 90 4c 6e   Note On E4 110
b5d26668 90 4f 72   Note On G4 114
b5d2668b 90 4c 00   Note On(0-Off) E4
b5d268ab 90 4f 00   Note On(0-Off) G4

b5d268ad 90 51 72   Note On A4 114
b5d26d65 90 51 00   Note On(0-Off) A4
b5d26e05 90 51 6d   Note On A4 109
b5d26f2d 90 51 00   Note On(0-Off) A4

b5d26f30 90 53 74   Note On B4 116
b5d27183 90 53 00   Note On(0-Off) B4

b5d27191 90 4f 6b   Note On G4 107
b5d273a5 90 4f 00   Note On(0-Off) G4
b5d2741c 90 4c 3d   Note On E4 61
b5d27a22 90 4c 00   Note On(0-Off) E4
b5d27e36 90 34 76   Note On E2 118
b5d27f81 90 48 5f   Note On C4 95
b5d2802b 90 48 00   Note On(0-Off) C4

b5d28035 90 47 67   Note On B3 103
b5d280f9 90 48 70   Note On C4 112

b5d280fc 90 47 00   Note On(0-Off) B3
b5d28275 90 34 00   Note On(0-Off) E2
b5d282d4 90 48 00   Note On(0-Off) C4
b5d284bc 90 35 67   Note On F2 103
b5d28617 90 4c 60   Note On E4 96
b5d286c9 90 4c 00   Note On(0-Off) E4

b5d286d3 90 4a 3f   Note On D4 63
b5d28775 90 4a 00   Note On(0-Off) D4
b5d287b7 90 4c 72   Note On E4 114
b5d28869 90 4c 00   Note On(0-Off) E4
b5d2890a 90 35 00   Note On(0-Off) F2
b5d289d9 90 34 6e   Note On E2 110

b5d289e1 90 35 67   Note On F2 103
b5d28a8e 90 35 00   Note On(0-Off) F2
b5d28b38 90 4a 6d   Note On D4 109
b5d28bfd 90 4a 00   Note On(0-Off) D4

b5d28c01 90 48 6b   Note On C4 107
b5d28cb4 90 48 00   Note On(0-Off) C4

b5d28cbd 90 4a 72   Note On D4 114
b5d28eb1 90 4a 00   Note On(0-Off) D4

b5d28eb3 90 48 64   Note On C4 100
b5d28f75 90 4a 76   Note On D4 118

b5d28f76 90 48 00   Note On(0-Off) C4
b5d29043 90 4a 00   Note On(0-Off) D4

b5d2904c 90 4c 76   Note On E4 118
b5d29141 90 35 69   Note On F2 105

b5d2915c 90 34 00   Note On(0-Off) E2
b5d295d8 90 4c 00   Note On(0-Off) E4

b5d29612 90 35 00   Note On(0-Off) F2
b5d296a6 90 34 72   Note On E2 114
b5d29780 90 34 00   Note On(0-Off) E2
b5d298b3 90 4c 5f   Note On E4 95

b5d298b4 90 4a 64   Note On D4 100
b5d298fa 90 4a 00   Note On(0-Off) D4

b5d298fc 90 4c 00   Note On(0-Off) E4
b5d29c23 90 4a 5e   Note On D4 94

b5d29c25 90 48 52   Note On C4 82
b5d29c96 90 48 00   Note On(0-Off) C4

b5d29c98 90 4a 00   Note On(0-Off) D4
b5d29d3b 90 48 67   Note On C4 103
b5d29e3f 90 47 64   Note On B3 100

b5d29e58 90 48 00   Note On(0-Off) C4
b5d29f20 90 47 00   Note On(0-Off) B3
b5d2a1b9 90 4a 6b   Note On D4 107
b5d2a284 90 48 59   Note On C4 89

b5d2a28e 90 4a 00   Note On(0-Off) D4
b5d2a33b 90 4a 6b   Note On D4 107

b5d2a34f 90 48 00   Note On(0-Off) C4
b5d2a533 90 48 52   Note On C4 82

b5d2a535 90 4a 00   Note On(0-Off) D4
b5d2a5f9 90 4a 67   Note On D4 103

b5d2a60f 90 48 00   Note On(0-Off) C4
b5d2a6c7 90 4a 00   Note On(0-Off) D4

b5d2a6ca 90 4c 72   Note On E4 114
b5d2a9b1 90 4c 00   Note On(0-Off) E4
b5d2aac1 90 48 3c   Note On C4 60
b5d2ab13 90 48 00   Note On(0-Off) C4
b5d2ab89 90 48 6b   Note On C4 107
b5d2ac04 90 48 00   Note On(0-Off) C4
b5d2ac62 90 48 5e   Note On C4 94
b5d2acee 90 48 00   Note On(0-Off) C4
b5d2ad39 90 48 59   Note On C4 89

b5d2ad3a 90 47 60   Note On B3 96
b5d2ae86 90 47 00   Note On(0-Off) B3

b5d2ae97 90 48 00   Note On(0-Off) C4
b5d2aef1 90 47 60   Note On B3 96

b5d2aef8 90 48 4d   Note On C4 77
b5d2af8a 90 47 00   Note On(0-Off) B3

b5d2af92 90 48 00   Note On(0-Off) C4
b5d2afe6 90 48 5b   Note On C4 91

b5d2afe9 90 47 62   Note On B3 98

b5d2b00f 90 45 40   Note On A3 64

b5d2b016 90 43 3e   Note On G3 62

b5d2b023 90 47 00   Note On(0-Off) B3
b5d2b0a6 90 43 00   Note On(0-Off) G3

b5d2b0c2 90 45 00   Note On(0-Off) A3
b5d2b163 90 48 00   Note On(0-Off) C4
b5d2b1d8 90 45 66   Note On A3 102

b5d2b1de 90 48 64   Note On C4 100
b5d2b268 90 45 00   Note On(0-Off) A3
b5d2b2b3 90 43 70   Note On G3 112
b5d2b658 90 43 00   Note On(0-Off) G3

b5d2b674 90 48 00   Note On(0-Off) C4
b5d2b6ef 90 48 6b   Note On C4 107

b5d2b705 90 4d 6e   Note On F4 110
b5d2b81f 90 48 00   Note On(0-Off) C4

b5d2b831 90 4d 00   Note On(0-Off) F4
b5d2b88b 90 47 69   Note On B3 105

b5d2b891 90 4c 6d   Note On E4 109
b5d2bc59 90 4c 00   Note On(0-Off) E4

b5d2bc63 90 47 00   Note On(0-Off) B3
b5d2bf9b 90 37 44   Note On G2 68

b5d2bf9e 90 3e 52   Note On D3 82

b5d2bfa0 90 24 76   Note On C1 118

b5d2bfa1 90 3b 67   Note On B2 103
b5d2c369 90 3b 00   Note On(0-Off) B2
b5d2c3a1 90 37 00   Note On(0-Off) G2

b5d2c3ae 90 3e 00   Note On(0-Off) D3
b5d2c402 90 40 4d   Note On E3 77

b5d2c403 90 37 40   Note On G2 64
b5d2c6c3 90 37 00   Note On(0-Off) G2

b5d2c70f 90 37 59   Note On G2 89
b5d2c715 90 40 00   Note On(0-Off) E3
b5d2c977 90 37 00   Note On(0-Off) G2
b5d2c9fe 90 37 5f   Note On G2 95
b5d2cb49 90 37 00   Note On(0-Off) G2
b5d2cb8f 90 37 56   Note On G2 86

b5d2cb9d 90 3e 69   Note On D3 105

b5d2cb9f 90 3b 6e   Note On B2 110

b5d2cba8 90 2d 67   Note On A1 103
b5d2cbd8 90 24 00   Note On(0-Off) C1
b5d2cf7a 90 37 00   Note On(0-Off) G2

b5d2cf7e 90 3b 00   Note On(0-Off) B2
b5d2cfc9 90 3e 00   Note On(0-Off) D3
b5d2d03f 90 37 67   Note On G2 103

b5d2d041 90 40 67   Note On E3 103

b5d2d048 90 3c 7f   Note On C3 127
b5d2d662 90 37 00   Note On(0-Off) G2
b5d2d67b 90 3c 00   Note On(0-Off) C3

b5d2d691 90 40 00   Note On(0-Off) E3
b5d2d757 90 2d 00   Note On(0-Off) A1

b5d2d763 90 39 67   Note On A2 103

b5d2d765 90 41 60   Note On F3 96

b5d2d76a 90 3b 72   Note On B2 114

b5d2d775 90 26 62   Note On D1 98
b5d2d7e8 90 3b 00   Note On(0-Off) B2
b5d2d826 90 41 00   Note On(0-Off) F3

b5d2d847 90 39 00   Note On(0-Off) A2
b5d2d8e5 90 39 28   Note On A2 40

b5d2d8ed 90 41 3d   Note On F3 61
b5d2d9a0 90 41 00   Note On(0-Off) F3

b5d2d9a3 90 39 00   Note On(0-Off) A2
b5d2da42 90 39 5f   Note On A2 95

b5d2da44 90 41 64   Note On F3 100

b5d2da49 90 3c 7f   Note On C3 127
b5d2dad9 90 3c 00   Note On(0-Off) C3

b5d2daf2 90 39 00   Note On(0-Off) A2

b5d2daf7 90 41 00   Note On(0-Off) F3
b5d2dbe6 90 39 66   Note On A2 102

b5d2dbe7 90 41 67   Note On F3 103

b5d2dbed 90 3c 7f   Note On C3 127
b5d2de7b 90 3c 00   Note On(0-Off) C3

b5d2de83 90 39 00   Note On(0-Off) A2

b5d2debb 90 41 00   Note On(0-Off) F3
b5d2df0d 90 39 67   Note On A2 103

b5d2df0e 90 3c 7f   Note On C3 127

b5d2df10 90 40 67   Note On E3 103

b5d2df13 90 2b 64   Note On G1 100
b5d2df31 90 26 00   Note On(0-Off) D1
b5d2e178 90 3c 00   Note On(0-Off) C3

b5d2e17d 90 40 00   Note On(0-Off) E3
b5d2e1a7 90 39 00   Note On(0-Off) A2
b5d2e235 90 2b 00   Note On(0-Off) G1
b5d2e2b8 90 3b 74   Note On B2 116

b5d2e2ba 90 24 7d   Note On C1 125

b5d2e2c1 90 34 6d   Note On E2 109

b5d2e2c6 90 37 3d   Note On G2 61

b5d2e2f4 90 3b 00   Note On(0-Off) B2
b5d2e985 90 34 00   Note On(0-Off) E2

b5d2e9a4 90 37 00   Note On(0-Off) G2
b5d2ea3c 90 34 74   Note On E2 116
b5d2eb67 90 34 00   Note On(0-Off) E2
b5d2ebf1 90 35 4d   Note On F2 77

b5d2ebf5 90 32 64   Note On D2 100

b5d2ebf9 90 34 66   Note On E2 102

b5d2ebfa 90 30 64   Note On C2 100

b5d2ebfe 90 39 67   Note On A2 103

b5d2ebff 90 37 6b   Note On G2 107

b5d2ec00 90 2b 66   Note On G1 102

b5d2ec1c 90 34 00   Note On(0-Off) E2

b5d2ec20 90 24 00   Note On(0-Off) C1
b5d2ec47 90 37 00   Note On(0-Off) G2

b5d2ec67 90 30 00   Note On(0-Off) C2
b5d2ee44 90 32 00   Note On(0-Off) D2

b5d2ee69 90 35 00   Note On(0-Off) F2
b5d2ee86 90 39 00   Note On(0-Off) A2
b5d2ef0f 90 37 5f   Note On G2 95

b5d2ef20 90 3e 67   Note On D3 103

b5d2ef21 90 3b 72   Note On B2 114
b5d2f177 90 3b 00   Note On(0-Off) B2

b5d2f18a 90 37 00   Note On(0-Off) G2

b5d2f197 90 3e 00   Note On(0-Off) D3
b5d2f213 90 2b 00   Note On(0-Off) G1

b5d2f237 90 37 5f   Note On G2 95

b5d2f23d 90 3c 7f   Note On C3 127

b5d2f242 90 43 6b   Note On G3 107

b5d2f253 90 24 70   Note On C1 112
b5d2f351 90 3c 00   Note On(0-Off) C3

b5d2f353 90 37 00   Note On(0-Off) G2

b5d2f381 90 43 00   Note On(0-Off) G3
b5d2f3dc 90 43 44   Note On G3 68

b5d2f3dd 90 37 44   Note On G2 68

b5d2f3df 90 3c 7f   Note On C3 127
b5d2f4cf 90 37 00   Note On(0-Off) G2
b5d2f4d5 90 3c 00   Note On(0-Off) C3

b5d2f4e0 90 43 00   Note On(0-Off) G3
b5d2f55d 90 43 5f   Note On G3 95

b5d2f561 90 37 5e   Note On G2 94

b5d2f563 90 3c 7f   Note On C3 127
b5d2f639 90 3c 00   Note On(0-Off) C3

b5d2f63b 90 37 00   Note On(0-Off) G2

b5d2f651 90 43 00   Note On(0-Off) G3
b5d2f6ec 90 43 60   Note On G3 96

b5d2f6ed 90 37 5f   Note On G2 95

b5d2f6f3 90 3c 7f   Note On C3 127
b5d2f940 90 43 00   Note On(0-Off) G3

b5d2f95e 90 3c 00   Note On(0-Off) C3

b5d2f965 90 37 00   Note On(0-Off) G2
b5d2f9f0 90 41 67   Note On F3 103
b5d2f9f7 90 3c 7f   Note On C3 127

b5d2f9fa 90 37 5e   Note On G2 94
b5d2fae2 90 37 00   Note On(0-Off) G2

b5d2faed 90 3c 00   Note On(0-Off) C3

b5d2fb0f 90 41 00   Note On(0-Off) F3
b5d2fb8d 90 40 47   Note On E3 71

b5d2fb92 90 3c 7f   Note On C3 127

b5d2fb93 90 37 4f   Note On G2 79
b5d2fc60 90 3c 00   Note On(0-Off) C3

b5d2fc7c 90 37 00   Note On(0-Off) G2

b5d2fc7e 90 40 00   Note On(0-Off) E3
b5d2fd23 90 37 5e   Note On G2 94

b5d2fd24 90 3b 67   Note On B2 103

b5d2fd25 90 3e 67   Note On D3 103

b5d2fd42 90 2d 69   Note On A1 105

b5d2fd49 90 24 00   Note On(0-Off) C1
b5d301bd 90 3b 00   Note On(0-Off) B2
b5d301fe 90 3e 00   Note On(0-Off) D3

b5d30228 90 37 00   Note On(0-Off) G2
b5d30271 90 2d 00   Note On(0-Off) A1

b5d30291 90 3a 62   Note On Bb2 98

b5d30294 90 40 56   Note On E3 86

b5d30295 90 2e 62   Note On Bb1 98

b5d30296 90 37 52   Note On G2 82

b5d30298 90 3d 72   Note On C#3 114
b5d3059e 90 3d 00   Note On(0-Off) C#3
b5d305cd 90 40 00   Note On(0-Off) E3

b5d30609 90 3d 64   Note On C#3 100
b5d3088d 90 40 56   Note On E3 86

b5d308ab 90 37 00   Note On(0-Off) G2

b5d308bc 90 3a 00   Note On(0-Off) Bb2

b5d308e1 90 3d 00   Note On(0-Off) C#3
b5d3095e 90 40 00   Note On(0-Off) E3

b5d3095f 90 39 6b   Note On A2 107
b5d30a18 90 3e 4d   Note On D3 77
b5d30a7c 90 2e 00   Note On(0-Off) Bb1
b5d30aa9 90 40 60   Note On E3 96
b5d30b16 90 26 4b   Note On D1 75

b5d30b42 90 3e 00   Note On(0-Off) D3
b5d30b5b 90 41 74   Note On F3 116

b5d30b76 90 40 00   Note On(0-Off) E3
b5d30d4b 90 39 00   Note On(0-Off) A2

b5d30d53 90 41 00   Note On(0-Off) F3
b5d30db6 90 41 44   Note On F3 68

b5d30db8 90 39 52   Note On A2 82
b5d30e27 90 39 00   Note On(0-Off) A2

b5d30e2c 90 41 00   Note On(0-Off) F3
b5d30f2f 90 41 6b   Note On F3 107

b5d30f32 90 39 69   Note On A2 105
b5d31203 90 40 69   Note On E3 105

b5d3120b 90 41 00   Note On(0-Off) F3
b5d31478 90 41 67   Note On F3 103

b5d31479 90 40 00   Note On(0-Off) E3
b5d314e6 90 39 00   Note On(0-Off) A2
b5d315e5 90 37 49   Note On G2 73
b5d315f9 90 41 00   Note On(0-Off) F3

b5d31618 90 3b 3e   Note On B2 62
b5d31678 90 2b 5b   Note On G1 91

b5d31685 90 3e 56   Note On D3 86

b5d316a1 90 26 00   Note On(0-Off) D1
b5d31706 90 43 3d   Note On G3 61
b5d31ce9 90 37 00   Note On(0-Off) G2

b5d31cea 90 3b 00   Note On(0-Off) B2

b5d31cee 90 2b 00   Note On(0-Off) G1
b5d31d08 90 3e 00   Note On(0-Off) D3

b5d31d15 90 43 00   Note On(0-Off) G3

b5d31d66 90 37 5e   Note On G2 94
b5d31d68 90 43 59   Note On G3 89

b5d31d69 90 3e 6b   Note On D3 107

b5d31d6a 90 3b 72   Note On B2 114

b5d31d6b 90 2b 5e   Note On G1 94
b5d31e7b 90 37 00   Note On(0-Off) G2
b5d31ea6 90 3b 00   Note On(0-Off) B2

b5d31ee1 90 3e 00   Note On(0-Off) D3
b5d31f23 90 43 00   Note On(0-Off) G3
b5d3210b 90 3e 59   Note On D3 89
b5d321b7 90 40 5e   Note On E3 94
b5d32278 90 41 72   Note On F3 114
b5d322d7 90 3e 00   Note On(0-Off) D3
b5d32318 90 40 00   Note On(0-Off) E3

b5d3233c 90 41 00   Note On(0-Off) F3
b5d3235e 90 43 66   Note On G3 102

b5d32360 90 2b 00   Note On(0-Off) G1

b5d3238b 90 24 7e   Note On C1 126
b5d32438 90 43 00   Note On(0-Off) G3
b5d324f8 90 43 52   Note On G3 82
b5d325df 90 43 00   Note On(0-Off) G3
b5d32679 90 43 4d   Note On G3 77
b5d32725 90 43 00   Note On(0-Off) G3
b5d327f2 90 43 64   Note On G3 100
b5d32838 90 3c 7f   Note On C3 127
b5d32af3 90 43 00   Note On(0-Off) G3

b5d32afa 90 41 5e   Note On F3 94
b5d32c0f 90 41 00   Note On(0-Off) F3
b5d32cbe 90 40 59   Note On E3 89
b5d32d77 90 3c 00   Note On(0-Off) C3

b5d32d8d 90 40 00   Note On(0-Off) E3
b5d32e17 90 24 00   Note On(0-Off) C1

b5d32e54 90 39 64   Note On A2 100

b5d32e58 90 2d 52   Note On A1 82

b5d32e5a 90 3e 66   Note On D3 102
b5d32e5c 90 3b 69   Note On B2 105

b5d32e5d 90 40 60   Note On E3 96
b5d32eda 90 3b 00   Note On(0-Off) B2

b5d32eff 90 3e 00   Note On(0-Off) D3

b5d32f05 90 40 00   Note On(0-Off) E3
b5d32f47 90 40 2f   Note On E3 47
b5d33235 90 40 00   Note On(0-Off) E3
b5d33261 90 2e 0f   Note On Bb1 15
b5d3331d 90 39 00   Note On(0-Off) A2

b5d3332c 90 2d 00   Note On(0-Off) A1
b5d335a3 90 2e 00   Note On(0-Off) Bb1
b5d335f7 90 3a 66   Note On Bb2 102

b5d335f8 90 3d 6b   Note On C#3 107

b5d335fa 90 37 5e   Note On G2 94

b5d335fd 90 40 5f   Note On E3 95

b5d33604 90 2e 62   Note On Bb1 98
b5d3390c 90 3d 00   Note On(0-Off) C#3

b5d3390f 90 37 00   Note On(0-Off) G2

b5d3391a 90 3a 00   Note On(0-Off) Bb2

b5d3392c 90 40 00   Note On(0-Off) E3
b5d3397d 90 3a 66   Note On Bb2 102

b5d33984 90 37 60   Note On G2 96

b5d33988 90 3d 79   Note On C#3 121
b5d33b6d 90 3a 00   Note On(0-Off) Bb2

b5d33b70 90 3d 00   Note On(0-Off) C#3
b5d33b74 90 37 00   Note On(0-Off) G2

b5d33bda 90 3a 66   Note On Bb2 102
b5d33bdf 90 3d 6d   Note On C#3 109

b5d33be3 90 40 6e   Note On E3 110

b5d33be3 90 37 64   Note On G2 100
b5d33d6b 90 2e 00   Note On(0-Off) Bb1
b5d33dcd 90 37 00   Note On(0-Off) G2

b5d33dcf 90 3a 00   Note On(0-Off) Bb2

b5d33ddd 90 3d 00   Note On(0-Off) C#3

b5d33de9 90 40 00   Note On(0-Off) E3
b5d33e7b 90 26 62   Note On D1 98

b5d33e81 90 39 52   Note On A2 82

b5d33e83 90 3e 72   Note On D3 114

b5d33e8a 90 41 67   Note On F3 103
b5d33f9f 90 39 00   Note On(0-Off) A2

b5d33fa6 90 41 00   Note On(0-Off) F3

b5d33fac 90 3e 00   Note On(0-Off) D3
b5d34019 90 3e 52   Note On D3 82

b5d3401b 90 41 45   Note On F3 69

b5d3401e 90 39 47   Note On A2 71
b5d340e0 90 39 00   Note On(0-Off) A2

b5d340e4 90 3e 00   Note On(0-Off) D3

b5d340e8 90 41 00   Note On(0-Off) F3
b5d3419c 90 41 56   Note On F3 86

b5d3419d 90 3e 64   Note On D3 100

b5d3419f 90 39 4d   Note On A2 77
b5d3427b 90 39 00   Note On(0-Off) A2

b5d3429d 90 3e 00   Note On(0-Off) D3

b5d342a2 90 41 00   Note On(0-Off) F3
b5d3436c 90 3e 72   Note On D3 114

b5d3436d 90 39 6d   Note On A2 109

b5d3436f 90 41 6b   Note On F3 107

b5d34371 90 28 72   Note On E1 114
b5d3439b 90 26 00   Note On(0-Off) D1
b5d3465c 90 39 00   Note On(0-Off) A2

b5d34686 90 3e 00   Note On(0-Off) D3

b5d34698 90 41 00   Note On(0-Off) F3
b5d346bd 90 29 76   Note On F1 118

b5d346c1 90 40 67   Note On E3 103

b5d346c8 90 39 4d   Note On A2 77

b5d346d1 90 3c 7f   Note On C3 127

b5d346e5 90 28 00   Note On(0-Off) E1
b5d348a0 90 3c 00   Note On(0-Off) C3
b5d348ce 90 39 00   Note On(0-Off) A2
b5d34914 90 40 00   Note On(0-Off) E3

b5d3495e 90 41 62   Note On F3 98

b5d34969 90 39 67   Note On A2 103

b5d3496b 90 3c 7f   Note On C3 127
b5d34b18 90 39 00   Note On(0-Off) A2

b5d34b3f 90 3c 00   Note On(0-Off) C3

b5d34b53 90 41 00   Note On(0-Off) F3
b5d34bb7 90 3b 6b   Note On B2 107

b5d34bbb 90 43 60   Note On G3 96

b5d34bbc 90 3e 69   Note On D3 105
b5d34bd1 90 2b 64   Note On G1 100

b5d34bde 90 29 00   Note On(0-Off) F1
b5d355fc 90 3b 00   Note On(0-Off) B2
b5d3561f 90 3e 00   Note On(0-Off) D3
b5d356b5 90 43 00   Note On(0-Off) G3
b5d35779 90 47 67   Note On B3 103

b5d35780 90 40 62   Note On E3 98

b5d35784 90 45 5f   Note On A3 95

b5d35785 90 43 60   Note On G3 96

b5d3578e 90 2b 00   Note On(0-Off) G1

b5d3578f 90 28 66   Note On E1 102

b5d35796 90 45 00   Note On(0-Off) A3
b5d358ca 90 43 00   Note On(0-Off) G3
b5d358cf 90 40 00   Note On(0-Off) E3

b5d358d1 90 47 00   Note On(0-Off) B3

b5d3591b 90 47 66   Note On B3 102

b5d3591f 90 43 5f   Note On G3 95

b5d35920 90 40 59   Note On E3 89
b5d35a49 90 43 00   Note On(0-Off) G3

b5d35a4b 90 40 00   Note On(0-Off) E3

b5d35a54 90 47 00   Note On(0-Off) B3
b5d35aa8 90 47 67   Note On B3 103

b5d35aac 90 40 60   Note On E3 96

b5d35aae 90 43 66   Note On G3 102
b5d35ba2 90 40 00   Note On(0-Off) E3

b5d35ba6 90 43 00   Note On(0-Off) G3

b5d35bb6 90 47 00   Note On(0-Off) B3
b5d35c2e 90 40 60   Note On E3 96

b5d35c2f 90 47 64   Note On B3 100

b5d35c30 90 43 60   Note On G3 96
b5d35ee8 90 40 00   Note On(0-Off) E3
b5d35f94 90 47 00   Note On(0-Off) B3

b5d35f98 90 40 5f   Note On E3 95

b5d35fae 90 43 00   Note On(0-Off) G3
b5d360a4 90 40 00   Note On(0-Off) E3
b5d3614d 90 40 5e   Note On E3 94

b5d3614f 90 43 64   Note On G3 100

b5d36151 90 47 69   Note On B3 105
b5d36206 90 40 00   Note On(0-Off) E3

b5d36221 90 43 00   Note On(0-Off) G3

b5d36235 90 47 00   Note On(0-Off) B3
b5d362de 90 47 6b   Note On B3 107

b5d362e1 90 40 6b   Note On E3 107

b5d362e2 90 43 6b   Note On G3 107
b5d3648f 90 2d 72   Note On A1 114
b5d364b5 90 28 00   Note On(0-Off) E1
b5d36654 90 45 6b   Note On A3 107

b5d36677 90 47 00   Note On(0-Off) B3
b5d36753 90 43 00   Note On(0-Off) G3
b5d36801 90 45 00   Note On(0-Off) A3

b5d36804 90 47 69   Note On B3 105
b5d36961 90 40 00   Note On(0-Off) E3

b5d36982 90 47 00   Note On(0-Off) B3

b5d369b6 90 48 67   Note On C4 103

b5d369b7 90 45 67   Note On A3 103

b5d369bd 90 40 5b   Note On E3 91

b5d369be 90 2f 66   Note On B1 102
b5d369e2 90 2d 00   Note On(0-Off) A1
b5d36ce7 90 30 5b   Note On C2 91
b5d36d00 90 2f 00   Note On(0-Off) B1
b5d370e7 90 40 00   Note On(0-Off) E3
b5d3714b 90 45 00   Note On(0-Off) A3

b5d37161 90 48 00   Note On(0-Off) C4
b5d371a8 90 40 1f   Note On E3 31

b5d371d3 90 45 67   Note On A3 103
b5d3739a 90 45 00   Note On(0-Off) A3

b5d373ca 90 47 67   Note On B3 103
b5d376f2 90 47 00   Note On(0-Off) B3

b5d376f7 90 40 00   Note On(0-Off) E3
b5d37760 90 30 00   Note On(0-Off) C2

b5d37786 90 41 60   Note On F3 96
b5d3778b 90 45 67   Note On A3 103

b5d37796 90 29 56   Note On F1 86

b5d3779e 90 4a 6e   Note On D4 110

b5d3779f 90 4c 6e   Note On E4 110
b5d3784b 90 4c 00   Note On(0-Off) E4

b5d37850 90 4a 00   Note On(0-Off) D4
b5d378ca 90 4a 44   Note On D4 68
b5d37a81 90 4a 00   Note On(0-Off) D4

b5d37aa7 90 48 64   Note On C4 100
b5d37fd3 90 45 00   Note On(0-Off) A3

b5d37fe9 90 47 72   Note On B3 114

b5d3801d 90 48 00   Note On(0-Off) C4
b5d3819c 90 45 60   Note On A3 96
b5d38216 90 47 00   Note On(0-Off) B3
b5d3828f 90 41 00   Note On(0-Off) F3

b5d3829a 90 45 00   Note On(0-Off) A3
b5d38318 90 40 67   Note On E3 103

b5d3831a 90 43 67   Note On G3 103
b5d384d2 90 2b 64   Note On G1 100
b5d385bf 90 43 00   Note On(0-Off) G3

b5d385e8 90 29 00   Note On(0-Off) F1
b5d386b6 90 41 6d   Note On F3 109
b5d3873a 90 40 00   Note On(0-Off) E3
b5d38813 90 40 4d   Note On E3 77

b5d38832 90 41 00   Note On(0-Off) F3
b5d38920 90 40 00   Note On(0-Off) E3
b5d389f3 90 40 47   Note On E3 71

b5d389fb 90 3b 5b   Note On B2 91

b5d38a06 90 37 3a   Note On G2 58
b5d38cce 90 40 00   Note On(0-Off) E3

b5d38cd1 90 3b 00   Note On(0-Off) B2

b5d38ce3 90 37 00   Note On(0-Off) G2
b5d38d60 90 3e 64   Note On D3 100

b5d38d62 90 35 47   Note On F2 71

b5d38d64 90 39 62   Note On A2 98
b5d39266 90 35 00   Note On(0-Off) F2

b5d39276 90 39 00   Note On(0-Off) A2

b5d392a3 90 3e 00   Note On(0-Off) D3
b5d3934c 90 40 59   Note On E3 89
b5d39424 90 41 64   Note On F3 100
b5d39480 90 40 00   Note On(0-Off) E3
b5d3950b 90 41 00   Note On(0-Off) F3
b5d39518 90 43 67   Note On G3 103

b5d39525 90 2b 00   Note On(0-Off) G1

b5d39528 90 24 7d   Note On C1 125
b5d3960c 90 43 00   Note On(0-Off) G3
b5d3968a 90 43 3a   Note On G3 58
b5d396bc 90 3c 7f   Note On C3 127
b5d39756 90 3c 00   Note On(0-Off) C3
b5d39788 90 43 00   Note On(0-Off) G3
b5d39810 90 43 3a   Note On G3 58
b5d3990b 90 43 00   Note On(0-Off) G3
b5d399a1 90 43 5e   Note On G3 94
b5d39c8e 90 41 5e   Note On F3 94

b5d39cbf 90 43 00   Note On(0-Off) G3
b5d39e64 90 40 67   Note On E3 103
b5d39e9d 90 41 00   Note On(0-Off) F3

b5d39ed7 90 40 00   Note On(0-Off) E3
b5d39fbb 90 3e 67   Note On D3 103

b5d39fbc 90 3b 67   Note On B2 103

b5d39fc1 90 2d 5b   Note On A1 91

b5d39fc2 90 37 40   Note On G2 64

b5d39fd7 90 24 00   Note On(0-Off) C1
b5d3a429 90 3b 00   Note On(0-Off) B2
b5d3a502 90 3e 00   Note On(0-Off) D3

b5d3a52c 90 37 00   Note On(0-Off) G2
b5d3a55c 90 3d 70   Note On C#3 112

b5d3a55e 90 37 40   Note On G2 64

b5d3a569 90 3a 6b   Note On Bb2 107

b5d3a56b 90 2e 64   Note On Bb1 100
b5d3a599 90 2d 00   Note On(0-Off) A1
b5d3aa11 90 3d 00   Note On(0-Off) C#3
b5d3aab6 90 37 00   Note On(0-Off) G2

b5d3aacb 90 3a 00   Note On(0-Off) Bb2
b5d3ab21 90 3e 70   Note On D3 112
b5d3ac07 90 40 6d   Note On E3 109
b5d3ac5f 90 3e 00   Note On(0-Off) D3
b5d3acd9 90 40 00   Note On(0-Off) E3

b5d3ace6 90 2e 00   Note On(0-Off) Bb1

b5d3acf8 90 41 62   Note On F3 98

b5d3acfd 90 39 47   Note On A2 71

b5d3ad01 90 3b 6b   Note On B2 107

b5d3ad0a 90 26 60   Note On D1 96
b5d3ad1d 90 3b 00   Note On(0-Off) B2
b5d3ae05 90 41 00   Note On(0-Off) F3

b5d3ae16 90 39 00   Note On(0-Off) A2
b5d3aea5 90 41 42   Note On F3 66
b5d3aeac 90 39 52   Note On A2 82
b5d3af5a 90 39 00   Note On(0-Off) A2

b5d3af6c 90 41 00   Note On(0-Off) F3
b5d3b038 90 41 3e   Note On F3 62
b5d3b04a 90 39 44   Note On A2 68

b5d3b04c 90 3c 7f   Note On C3 127
b5d3b0d1 90 3c 00   Note On(0-Off) C3

b5d3b0ec 90 39 00   Note On(0-Off) A2

b5d3b0f7 90 41 00   Note On(0-Off) F3
b5d3b1e9 90 41 6b   Note On F3 107

b5d3b1ec 90 39 6d   Note On A2 109

b5d3b1ed 90 2b 69   Note On G1 105

b5d3b1ef 90 3c 7f   Note On C3 127

b5d3b1f8 90 26 00   Note On(0-Off) D1
b5d3b4df 90 3c 00   Note On(0-Off) C3
b5d3b544 90 41 00   Note On(0-Off) F3

b5d3b556 90 40 66   Note On E3 102
b5d3b6c6 90 40 00   Note On(0-Off) E3

b5d3b6c8 90 39 00   Note On(0-Off) A2
b5d3b82e 90 34 69   Note On E2 105

b5d3b832 90 37 69   Note On G2 105

b5d3b83a 90 24 72   Note On C1 114

b5d3b857 90 2b 00   Note On(0-Off) G1
b5d3baa3 90 34 00   Note On(0-Off) E2
b5d3bb5c 90 34 72   Note On E2 114

b5d3bb5d 90 37 00   Note On(0-Off) G2
b5d3bce6 90 37 79   Note On G2 121
b5d3bee5 90 37 00   Note On(0-Off) G2

b5d3bef5 90 34 00   Note On(0-Off) E2
b5d3bfb0 90 24 00   Note On(0-Off) C1
b5d3c015 90 3b 76   Note On B2 118

b5d3c01b 90 3e 72   Note On D3 114

b5d3c01c 90 41 72   Note On F3 114

b5d3c01d 90 2f 6b   Note On B1 107
b5d3c239 90 3b 00   Note On(0-Off) B2

b5d3c254 90 3e 00   Note On(0-Off) D3
b5d3c288 90 41 00   Note On(0-Off) F3
b5d3c2df 90 2f 00   Note On(0-Off) B1
b5d3c32b 90 47 6b   Note On B3 107

b5d3c330 90 3e 64   Note On D3 100

b5d3c336 90 41 6e   Note On F3 110

b5d3c33d 90 44 6b   Note On Ab3 107

b5d3c34b 90 28 70   Note On E1 112
b5d3c55c 90 3e 00   Note On(0-Off) D3

b5d3c573 90 41 00   Note On(0-Off) F3
b5d3c594 90 44 00   Note On(0-Off) Ab3

b5d3c5ac 90 47 00   Note On(0-Off) B3
b5d3c662 90 2d 67   Note On A1 103

b5d3c672 90 48 69   Note On C4 105

b5d3c674 90 28 00   Note On(0-Off) E1

b5d3c67e 90 54 72   Note On C5 114
b5d3c794 90 48 00   Note On(0-Off) C4

b5d3c7a6 90 54 00   Note On(0-Off) C5
b5d3c7f1 90 54 6b   Note On C5 107

b5d3c7fb 90 48 59   Note On C4 89
b5d3c902 90 48 00   Note On(0-Off) C4
b5d3c90c 90 54 00   Note On(0-Off) C5
b5d3c985 90 48 40   Note On C4 64

b5d3c987 90 54 52   Note On C5 82
b5d3ca8a 90 48 00   Note On(0-Off) C4
b5d3cab7 90 54 00   Note On(0-Off) C5
b5d3cb4b 90 48 67   Note On C4 103

b5d3cb4e 90 54 6b   Note On C5 107

b5d3cb57 90 2b 6b   Note On G1 107

b5d3cb67 90 2d 00   Note On(0-Off) A1
b5d3ce0a 90 48 00   Note On(0-Off) C4

b5d3ce0e 90 54 00   Note On(0-Off) C5
b5d3ce87 90 47 5e   Note On B3 94
b5d3ce94 90 53 5e   Note On B4 94
b5d3cf37 90 47 00   Note On(0-Off) B3

b5d3cf42 90 53 00   Note On(0-Off) B4
b5d3d010 90 47 3f   Note On B3 63

b5d3d011 90 53 6b   Note On B4 107
b5d3d0ad 90 47 00   Note On(0-Off) B3

b5d3d0bb 90 53 00   Note On(0-Off) B4
b5d3d18a 90 53 6e   Note On B4 110

b5d3d18c 90 47 67   Note On B3 103
b5d3d32f 90 2b 00   Note On(0-Off) G1

b5d3d334 90 29 64   Note On F1 100
b5d3d470 90 47 00   Note On(0-Off) B3

b5d3d471 90 53 00   Note On(0-Off) B4
b5d3d4fa 90 45 5f   Note On A3 95

b5d3d4fb 90 51 69   Note On A4 105
b5d3d905 90 51 00   Note On(0-Off) A4

b5d3d908 90 45 00   Note On(0-Off) A3
b5d3d9b0 90 29 00   Note On(0-Off) F1

b5d3d9c1 90 2b 72   Note On G1 114

b5d3d9d2 90 45 6b   Note On A3 107

b5d3d9d3 90 51 6e   Note On A4 110
b5d3dbf3 90 45 00   Note On(0-Off) A3
b5d3dc1d 90 51 00   Note On(0-Off) A4
b5d3dcf1 90 47 6b   Note On B3 107

b5d3dcf2 90 53 6b   Note On B4 107
b5d3df93 90 53 00   Note On(0-Off) B4

b5d3df98 90 47 00   Note On(0-Off) B3
b5d3e04a 90 24 7e   Note On C1 126
b5d3e04f 90 43 5f   Note On G3 95

b5d3e050 90 41 67   Note On F3 103

b5d3e053 90 4f 52   Note On G4 82

b5d3e065 90 2b 00   Note On(0-Off) G1

b5d3e077 90 41 00   Note On(0-Off) F3
b5d3e960 90 4f 00   Note On(0-Off) G4

b5d3e998 90 43 00   Note On(0-Off) G3
b5d3e9fc 90 24 00   Note On(0-Off) C1
b5d3ea73 90 2f 66   Note On B1 102

b5d3ea77 90 3b 66   Note On B2 102

b5d3ea7c 90 3e 66   Note On D3 102

b5d3ea7e 90 41 67   Note On F3 103
b5d3ead3 90 3b 00   Note On(0-Off) B2
b5d3ee4c 90 3e 00   Note On(0-Off) D3
b5d3eeb2 90 41 00   Note On(0-Off) F3
b5d3efe1 90 2f 00   Note On(0-Off) B1

b5d3eff9 90 47 67   Note On B3 103

b5d3effa 90 28 67   Note On E1 103

b5d3effb 90 3e 69   Note On D3 105

b5d3f001 90 41 6b   Note On F3 107
b5d3f016 90 44 66   Note On Ab3 102
b5d3f23c 90 47 00   Note On(0-Off) B3

b5d3f253 90 3e 00   Note On(0-Off) D3

b5d3f25a 90 41 00   Note On(0-Off) F3
b5d3f270 90 44 00   Note On(0-Off) Ab3
b5d3f2ec 90 41 62   Note On F3 98

b5d3f2ee 90 44 52   Note On Ab3 82

b5d3f2f0 90 3e 49   Note On D3 73

b5d3f2f6 90 48 40   Note On C4 64
b5d3f529 90 3e 00   Note On(0-Off) D3
b5d3f53c 90 41 00   Note On(0-Off) F3

b5d3f552 90 44 00   Note On(0-Off) Ab3

b5d3f57d 90 48 00   Note On(0-Off) C4
b5d3f607 90 2d 64   Note On A1 100

b5d3f62d 90 28 00   Note On(0-Off) E1

b5d3f62f 90 54 6e   Note On C5 110

b5d3f636 90 48 5e   Note On C4 94
b5d3f75b 90 48 00   Note On(0-Off) C4

b5d3f77e 90 54 00   Note On(0-Off) C5
b5d3f7c8 90 54 36   Note On C5 54

b5d3f7da 90 48 2f   Note On C4 47
b5d3f8dd 90 48 00   Note On(0-Off) C4

b5d3f8e4 90 54 00   Note On(0-Off) C5
b5d3f95f 90 54 4f   Note On C5 79

b5d3f961 90 48 3c   Note On C4 60
b5d3fa71 90 54 00   Note On(0-Off) C5

b5d3fa75 90 48 00   Note On(0-Off) C4
b5d3fae6 90 2d 00   Note On(0-Off) A1

b5d3faf4 90 2b 60   Note On G1 96

b5d3fb00 90 54 6d   Note On C5 109

b5d3fb09 90 48 5b   Note On C4 91
b5d3fd55 90 48 00   Note On(0-Off) C4
b5d3fd87 90 54 00   Note On(0-Off) C5
b5d3fe20 90 47 47   Note On B3 71
b5d3fe3e 90 53 25   Note On B4 37

b5d3fe43 90 54 21   Note On C5 33

b5d3fe6e 90 54 00   Note On(0-Off) C5
b5d3fec7 90 47 00   Note On(0-Off) B3

b5d3feed 90 53 00   Note On(0-Off) B4
b5d3ffd1 90 53 5f   Note On B4 95

b5d3ffd7 90 47 49   Note On B3 73
b5d40063 90 47 00   Note On(0-Off) B3

b5d4006e 90 53 00   Note On(0-Off) B4
b5d40155 90 53 60   Note On B4 96

b5d40158 90 47 62   Note On B3 98
b5d4033a 90 29 6b   Note On F1 107

b5d40340 90 2b 00   Note On(0-Off) G1
b5d40441 90 47 00   Note On(0-Off) B3

b5d40448 90 53 00   Note On(0-Off) B4
b5d404dc 90 51 67   Note On A4 103

b5d404e8 90 45 4b   Note On A3 75
b5d408de 90 45 00   Note On(0-Off) A3

b5d408eb 90 51 00   Note On(0-Off) A4
b5d409bc 90 29 00   Note On(0-Off) F1

b5d409be 90 2b 6d   Note On G1 109

b5d409c0 90 43 60   Note On G3 96

b5d409c6 90 4f 59   Note On G4 89

b5d409cd 90 4d 6b   Note On F4 107

b5d409f7 90 4d 00   Note On(0-Off) F4
b5d40c39 90 43 00   Note On(0-Off) G3

b5d40c46 90 4f 00   Note On(0-Off) G4
b5d40d20 90 3e 64   Note On D3 100

b5d40d31 90 4a 67   Note On D4 103
b5d40e34 90 3e 00   Note On(0-Off) D3

b5d40e43 90 4a 00   Note On(0-Off) D4
b5d40edf 90 4c 67   Note On E4 103

b5d40ee0 90 40 64   Note On E3 100
b5d410ba 90 2d 6b   Note On A1 107
b5d410e0 90 2b 00   Note On(0-Off) G1
b5d411c5 90 40 00   Note On(0-Off) E3

b5d411e1 90 4c 00   Note On(0-Off) E4
b5d41274 90 41 66   Note On F3 102

b5d41275 90 4d 72   Note On F4 114
b5d414eb 90 41 00   Note On(0-Off) F3

b5d41504 90 4d 00   Note On(0-Off) F4
b5d415b7 90 4f 64   Note On G4 100

b5d415bb 90 43 4f   Note On G3 79
b5d41d16 90 2d 00   Note On(0-Off) A1

b5d41d21 90 2b 67   Note On G1 103
b5d41e45 90 4f 00   Note On(0-Off) G4

b5d41e77 90 43 00   Note On(0-Off) G3
b5d41eed 90 41 64   Note On F3 100
b5d4207b 90 41 00   Note On(0-Off) F3

b5d42080 90 43 69   Note On G3 105
b5d42179 90 43 00   Note On(0-Off) G3
b5d42203 90 41 72   Note On F3 114
b5d42422 90 41 00   Note On(0-Off) F3
b5d424e0 90 40 6b   Note On E3 107
b5d4272d 90 40 00   Note On(0-Off) E3
b5d427fe 90 3e 4d   Note On D3 77
b5d42d77 90 3e 00   Note On(0-Off) D3
b5d42e0e 90 40 59   Note On E3 89
b5d42ede 90 41 60   Note On F3 96
b5d42f32 90 40 00   Note On(0-Off) E3
b5d42f7e 90 41 00   Note On(0-Off) F3

b5d42fb3 90 43 64   Note On G3 100

b5d42fbc 90 40 69   Note On E3 105

b5d42fc8 90 30 5e   Note On C2 94
b5d42fec 90 2b 00   Note On(0-Off) G1
b5d430d6 90 43 00   Note On(0-Off) G3

b5d430e8 90 40 00   Note On(0-Off) E3
b5d4313f 90 40 3a   Note On E3 58

b5d43142 90 43 40   Note On G3 64
b5d431ff 90 40 00   Note On(0-Off) E3

b5d4320b 90 43 00   Note On(0-Off) G3
b5d432a7 90 40 3a   Note On E3 58

b5d432a8 90 43 3c   Note On G3 60
b5d4336c 90 40 00   Note On(0-Off) E3

b5d43380 90 43 00   Note On(0-Off) G3
b5d4344a 90 40 4f   Note On E3 79

b5d4344c 90 43 52   Note On G3 82
b5d4374b 90 43 00   Note On(0-Off) G3

b5d43757 90 40 00   Note On(0-Off) E3
b5d437b7 90 41 4d   Note On F3 77
b5d438b8 90 41 00   Note On(0-Off) F3
b5d43943 90 40 52   Note On E3 82
b5d439df 90 40 00   Note On(0-Off) E3
b5d43aeb 90 37 4d   Note On G2 77

b5d43aec 90 3e 62   Note On D3 98

b5d43aee 90 3b 64   Note On B2 100

b5d43b11 90 2d 67   Note On A1 103
b5d43b39 90 30 00   Note On(0-Off) C2
b5d43f13 90 3b 00   Note On(0-Off) B2

b5d43f23 90 37 00   Note On(0-Off) G2

b5d43f58 90 3e 00   Note On(0-Off) D3
b5d43ff7 90 40 62   Note On E3 98

b5d43ff9 90 3a 5b   Note On Bb2 91

b5d43fff 90 37 40   Note On G2 64

b5d44006 90 3d 6b   Note On C#3 107

b5d4400d 90 2e 69   Note On Bb1 105

b5d44022 90 2d 00   Note On(0-Off) A1
b5d44486 90 37 00   Note On(0-Off) G2

b5d4448c 90 3d 00   Note On(0-Off) C#3

b5d44495 90 3a 00   Note On(0-Off) Bb2

b5d444b0 90 40 00   Note On(0-Off) E3
b5d44560 90 3e 67   Note On D3 103

b5d44562 90 40 62   Note On E3 98
b5d44601 90 40 00   Note On(0-Off) E3
b5d4465a 90 40 5b   Note On E3 91
b5d44696 90 3e 00   Note On(0-Off) D3
b5d4471f 90 2e 00   Note On(0-Off) Bb1

b5d4473b 90 40 00   Note On(0-Off) E3
b5d44768 90 41 59   Note On F3 89

b5d44770 90 39 4b   Note On A2 75

b5d44771 90 26 5f   Note On D1 95

b5d44772 90 3c 7f   Note On C3 127
b5d44806 90 3c 00   Note On(0-Off) C3
b5d44828 90 41 00   Note On(0-Off) F3

b5d44848 90 39 00   Note On(0-Off) A2
b5d448f4 90 41 40   Note On F3 64

b5d44906 90 39 31   Note On A2 49
b5d44990 90 39 00   Note On(0-Off) A2
b5d449ad 90 41 00   Note On(0-Off) F3
b5d44aa0 90 41 5e   Note On F3 94

b5d44aa4 90 39 4d   Note On A2 77

b5d44aa9 90 3c 7f   Note On C3 127
b5d44b00 90 3c 00   Note On(0-Off) C3

b5d44b29 90 39 00   Note On(0-Off) A2

b5d44b34 90 41 00   Note On(0-Off) F3
b5d44c4a 90 2b 6b   Note On G1 107

b5d44c4d 90 39 6b   Note On A2 107

b5d44c54 90 41 67   Note On F3 103

b5d44c55 90 3c 7f   Note On C3 127

b5d44c56 90 26 00   Note On(0-Off) D1
b5d44ecd 90 39 00   Note On(0-Off) A2

b5d44f06 90 3c 00   Note On(0-Off) C3
b5d44f56 90 41 00   Note On(0-Off) F3
b5d44fab 90 39 5b   Note On A2 91

b5d44faf 90 3c 7f   Note On C3 127

b5d44fb4 90 40 67   Note On E3 103
b5d4506a 90 3c 00   Note On(0-Off) C3

b5d45085 90 39 00   Note On(0-Off) A2

b5d45098 90 40 00   Note On(0-Off) E3
b5d452d3 90 37 69   Note On G2 105

b5d452d4 90 34 69   Note On E2 105

b5d452d5 90 3c 7f   Note On C3 127
b5d4549e 90 2b 00   Note On(0-Off) G1

b5d454a9 90 24 7d   Note On C1 125
b5d45584 90 34 00   Note On(0-Off) E2

b5d4559e 90 37 00   Note On(0-Off) G2

b5d455ab 90 3c 00   Note On(0-Off) C3
b5d4563b 90 37 74   Note On G2 116
b5d4576a 90 37 00   Note On(0-Off) G2
b5d457d3 90 37 5e   Note On G2 94
b5d457da 90 3c 7f   Note On C3 127
b5d458c7 90 3c 00   Note On(0-Off) C3

b5d458f0 90 37 00   Note On(0-Off) G2
b5d4596a 90 40 6b   Note On E3 107
b5d4596f 90 3c 7f   Note On C3 127

b5d45970 90 37 69   Note On G2 105
b5d45a39 90 3c 00   Note On(0-Off) C3

b5d45a69 90 37 00   Note On(0-Off) G2
b5d45aa5 90 40 00   Note On(0-Off) E3
b5d45b17 90 3e 70   Note On D3 112

b5d45b1a 90 37 69   Note On G2 105

b5d45b1b 90 3b 72   Note On B2 114

b5d45b29 90 2d 67   Note On A1 103

b5d45b47 90 24 00   Note On(0-Off) C1
b5d45d48 90 3b 00   Note On(0-Off) B2
b5d45d62 90 37 00   Note On(0-Off) G2

b5d45db2 90 3e 00   Note On(0-Off) D3
b5d45e39 90 40 6b   Note On E3 107

b5d45e3c 90 37 5e   Note On G2 94

b5d45e3e 90 3c 7f   Note On C3 127
b5d46059 90 37 00   Note On(0-Off) G2

b5d4606a 90 3c 00   Note On(0-Off) C3
b5d4609b 90 40 00   Note On(0-Off) E3

b5d460dc 90 2d 00   Note On(0-Off) A1
b5d46148 90 39 69   Note On A2 105

b5d4614c 90 41 6d   Note On F3 109

b5d4614d 90 3e 72   Note On D3 114
b5d46152 90 26 67   Note On D1 103
b5d4625e 90 3e 00   Note On(0-Off) D3

b5d46267 90 41 00   Note On(0-Off) F3

b5d4626c 90 39 00   Note On(0-Off) A2
b5d462dd 90 41 47   Note On F3 71

b5d462df 90 3e 5f   Note On D3 95
b5d462e6 90 39 49   Note On A2 73
b5d46383 90 3e 00   Note On(0-Off) D3

b5d46393 90 39 00   Note On(0-Off) A2

b5d463a5 90 41 00   Note On(0-Off) F3
b5d4645c 90 39 4d   Note On A2 77

b5d4645d 90 3e 67   Note On D3 103

b5d46463 90 41 5e   Note On F3 94
b5d46513 90 3e 00   Note On(0-Off) D3

b5d4651e 90 39 00   Note On(0-Off) A2

b5d4652b 90 41 00   Note On(0-Off) F3
b5d46626 90 41 6d   Note On F3 109

b5d46628 90 3e 76   Note On D3 118

b5d4662c 90 39 6b   Note On A2 107

b5d4662f 90 2b 69   Note On G1 105

b5d46648 90 26 00   Note On(0-Off) D1
b5d46855 90 39 00   Note On(0-Off) A2
b5d4689b 90 3e 00   Note On(0-Off) D3

b5d468b3 90 41 00   Note On(0-Off) F3
b5d46961 90 39 64   Note On A2 100

b5d46967 90 40 70   Note On E3 112
b5d46b63 90 39 00   Note On(0-Off) A2
b5d46bc3 90 40 00   Note On(0-Off) E3
b5d46c79 90 43 6d   Note On G3 109

b5d46c7c 90 3e 6e   Note On D3 110

b5d46c81 90 40 6b   Note On E3 107
b5d46dbb 90 2b 00   Note On(0-Off) G1
b5d46e61 90 24 7d   Note On C1 125
b5d47040 90 40 00   Note On(0-Off) E3
b5d47050 90 43 00   Note On(0-Off) G3

b5d47055 90 3e 00   Note On(0-Off) D3
b5d4718f 90 3e 76   Note On D3 118
b5d4729c 90 3e 00   Note On(0-Off) D3
b5d4730d 90 43 67   Note On G3 103
b5d473d3 90 43 00   Note On(0-Off) G3
b5d474d6 90 3e 72   Note On D3 114

b5d474e9 90 2d 67   Note On A1 103
b5d47506 90 24 00   Note On(0-Off) C1

b5d47547 90 40 7b   Note On E3 123
b5d47568 90 3e 00   Note On(0-Off) D3
b5d47753 90 40 00   Note On(0-Off) E3
b5d47763 90 3e 67   Note On D3 103
b5d479d1 90 3e 00   Note On(0-Off) D3

b5d47a1b 90 3c 7f   Note On C3 127
b5d47ab9 90 3c 00   Note On(0-Off) C3
b5d47bb9 90 26 5e   Note On D1 94

b5d47bc2 90 2d 00   Note On(0-Off) A1

b5d47bc3 90 35 5f   Note On F2 95

b5d47bc5 90 39 4b   Note On A2 75

b5d47bd0 90 40 64   Note On E3 100

b5d47bdf 90 3c 7f   Note On C3 127
b5d47cf8 90 39 00   Note On(0-Off) A2

b5d47d26 90 35 00   Note On(0-Off) F2

b5d47d33 90 3c 00   Note On(0-Off) C3
b5d47d5f 90 40 00   Note On(0-Off) E3
b5d47e50 90 35 67   Note On F2 103

b5d47e54 90 40 47   Note On E3 71

b5d47e55 90 39 69   Note On A2 105

b5d47e5d 90 3c 7f   Note On C3 127
b5d47f5c 90 39 00   Note On(0-Off) A2

b5d47f80 90 35 00   Note On(0-Off) F2

b5d47f8f 90 3c 00   Note On(0-Off) C3
b5d47fbe 90 40 00   Note On(0-Off) E3
b5d48070 90 39 4d   Note On A2 77

b5d48074 90 35 3f   Note On F2 63

b5d4807a 90 41 64   Note On F3 100
b5d481b5 90 41 00   Note On(0-Off) F3

b5d481ea 90 35 00   Note On(0-Off) F2

b5d481f1 90 39 00   Note On(0-Off) A2
b5d482a5 90 39 5e   Note On A2 94

b5d482a6 90 3e 56   Note On D3 86

b5d482ab 90 35 56   Note On F2 86

b5d482ad 90 2b 52   Note On G1 82

b5d482ba 90 26 00   Note On(0-Off) D1
b5d48b1a 90 3e 00   Note On(0-Off) D3

b5d48b29 90 3c 7f   Note On C3 127
b5d48e26 90 3c 00   Note On(0-Off) C3

b5d48e30 90 35 00   Note On(0-Off) F2
b5d48e4c 90 39 00   Note On(0-Off) A2
b5d48ea7 90 2b 00   Note On(0-Off) G1

b5d48ea8 90 29 5f   Note On F1 95

b5d48eb6 90 39 64   Note On A2 100

b5d48eb7 90 35 64   Note On F2 100
b5d48f56 90 3c 7f   Note On C3 127
b5d497fc 90 39 00   Note On(0-Off) A2
b5d498c3 90 38 72   Note On Ab2 114
b5d498f7 90 2c 5e   Note On Ab1 94

b5d4991e 90 29 00   Note On(0-Off) F1
b5d4a31e 90 38 00   Note On(0-Off) Ab2

b5d4a328 90 3c 00   Note On(0-Off) C3
b5d4a3a0 90 3a 6b   Note On Bb2 107

b5d4a3a5 90 3e 5f   Note On D3 95

b5d4a3bc 90 2e 60   Note On Bb1 96
b5d4a420 90 2c 00   Note On(0-Off) Ab1
b5d4aa1f 90 35 00   Note On(0-Off) F2
b5d4aa34 90 3a 00   Note On(0-Off) Bb2

b5d4aa4b 90 3e 00   Note On(0-Off) D3
b5d4aaae 90 24 76   Note On C1 118

b5d4aab7 90 40 5f   Note On E3 95

b5d4aabc 90 37 40   Note On G2 64

b5d4aaca 90 3b 6e   Note On B2 110
b5d4aafd 90 2e 00   Note On(0-Off) Bb1
b5d4bbda 90 24 00   Note On(0-Off) C1

b5d4bbf6 90 37 00   Note On(0-Off) G2

b5d4bc08 90 3b 00   Note On(0-Off) B2

b5d4bc10 90 40 00   Note On(0-Off) E3
b5d66d93 90 29 4b   Note On F1 75

b5d66daa 90 45 3c   Note On A3 60
b5d66ef3 90 47 70   Note On B3 112
b5d66f17 90 45 00   Note On(0-Off) A3
b5d66ff8 90 47 00   Note On(0-Off) B3

b5d67000 90 48 52   Note On C4 82
b5d6737d 90 47 64   Note On B3 100

b5d67384 90 48 00   Note On(0-Off) C4
b5d674a5 90 45 6b   Note On A3 107

b5d674c7 90 47 00   Note On(0-Off) B3
b5d676c9 90 2b 40   Note On G1 64

b5d676e4 90 29 00   Note On(0-Off) F1

b5d676ed 90 47 6b   Note On B3 107

b5d676f0 90 45 00   Note On(0-Off) A3
b5d67b7c 90 47 00   Note On(0-Off) B3

b5d67b86 90 43 64   Note On G3 100
b5d68015 90 43 00   Note On(0-Off) G3

b5d68018 90 40 66   Note On E3 102

b5d68025 90 2d 6e   Note On A1 110

b5d6803a 90 2b 00   Note On(0-Off) G1
b5d6814c 90 45 72   Note On A3 114

b5d6817a 90 40 00   Note On(0-Off) E3
b5d68831 90 3e 69   Note On D3 105

b5d6883c 90 2b 6b   Note On G1 107

b5d6883e 90 45 00   Note On(0-Off) A3

b5d68840 90 2d 00   Note On(0-Off) A1
b5d68963 90 43 76   Note On G3 118

b5d68966 90 3e 00   Note On(0-Off) D3
b5d6902f 90 29 3a   Note On F1 58

b5d69034 90 43 00   Note On(0-Off) G3
b5d6905e 90 2b 00   Note On(0-Off) G1
b5d69156 90 41 64   Note On F3 100
b5d69768 90 40 6d   Note On E3 109

b5d69776 90 41 00   Note On(0-Off) F3
b5d699e4 90 3e 67   Note On D3 103

b5d699e4 90 2b 4d   Note On G1 77

b5d699e4 90 40 00   Note On(0-Off) E3

b5d69a20 90 29 00   Note On(0-Off) F1
b5d69e2e 90 3e 00   Note On(0-Off) D3
b5d69f04 90 3e 70   Note On D3 112
b5d6a0fb 90 3e 00   Note On(0-Off) D3
b5d6a427 90 3c 7f   Note On C3 127
b5d6a9d2 90 3b 76   Note On B2 118

b5d6a9f7 90 3c 00   Note On(0-Off) C3
b5d6abba 90 3b 00   Note On(0-Off) B2
b5d6ac43 90 3b 7d   Note On B2 125

b5d6ac49 90 2d 76   Note On A1 118

b5d6ac5a 90 2b 00   Note On(0-Off) G1
b5d6afd1 90 3b 00   Note On(0-Off) B2
b5d6b362 90 47 6b   Note On B3 107

b5d6b364 90 40 72   Note On E3 114

b5d6b367 90 45 66   Note On A3 102

b5d6b374 90 45 00   Note On(0-Off) A3
b5d6b5ed 90 40 00   Note On(0-Off) E3

b5d6b5fc 90 47 00   Note On(0-Off) B3
b5d6b69f 90 48 69   Note On C4 105

b5d6b6a3 90 40 6d   Note On E3 109
b5d6b94c 90 40 00   Note On(0-Off) E3

b5d6b997 90 48 00   Note On(0-Off) C4
b5d6bbe8 90 48 56   Note On C4 86

b5d6bbec 90 29 69   Note On F1 105

b5d6bbed 90 53 6b   Note On B4 107

b5d6bbf1 90 4c 6b   Note On E4 107

b5d6bbf2 90 2d 00   Note On(0-Off) A1
b5d6bdd9 90 53 00   Note On(0-Off) B4
b5d6be26 90 4c 00   Note On(0-Off) E4
b5d6bec4 90 48 00   Note On(0-Off) C4
b5d6bf4f 90 54 6b   Note On C5 107

b5d6bf53 90 48 5f   Note On C4 95

b5d6bf5a 90 4c 6b   Note On E4 107
b5d6c513 90 54 00   Note On(0-Off) C5

b5d6c515 90 4c 00   Note On(0-Off) E4

b5d6c540 90 48 00   Note On(0-Off) C4
b5d6c5ae 90 53 6b   Note On B4 107

b5d6c5af 90 4c 6b   Note On E4 107

b5d6c5b5 90 48 45   Note On C4 69
b5d6c671 90 4c 00   Note On(0-Off) E4

b5d6c67a 90 48 00   Note On(0-Off) C4

b5d6c690 90 53 00   Note On(0-Off) B4
b5d6c6d3 90 4c 66   Note On E4 102

b5d6c6d7 90 48 40   Note On C4 64

b5d6c6dd 90 53 6b   Note On B4 107
b5d6c790 90 4c 00   Note On(0-Off) E4

b5d6c791 90 53 00   Note On(0-Off) B4

b5d6c79e 90 48 00   Note On(0-Off) C4
b5d6c7e8 90 4c 62   Note On E4 98

b5d6c7ef 90 51 69   Note On A4 105

b5d6c7f3 90 48 42   Note On C4 66
b5d6c87b 90 48 00   Note On(0-Off) C4

b5d6c882 90 4c 00   Note On(0-Off) E4
b5d6c8ae 90 51 00   Note On(0-Off) A4
b5d6c90d 90 4c 6b   Note On E4 107

b5d6c911 90 48 64   Note On C4 100

b5d6c917 90 51 72   Note On A4 114
b5d6c9a1 90 4c 00   Note On(0-Off) E4

b5d6c9a7 90 48 00   Note On(0-Off) C4

b5d6c9ba 90 51 00   Note On(0-Off) A4
b5d6ca0c 90 4c 66   Note On E4 102

b5d6ca11 90 48 4b   Note On C4 75

b5d6ca19 90 4f 69   Note On G4 105
b5d6ca97 90 4c 00   Note On(0-Off) E4

b5d6cab4 90 48 00   Note On(0-Off) C4

b5d6cab8 90 4f 00   Note On(0-Off) G4
b5d6cb4b 90 51 6e   Note On A4 110

b5d6cb4c 90 48 6e   Note On C4 110

b5d6cb4d 90 29 00   Note On(0-Off) F1

b5d6cb4f 90 4c 72   Note On E4 114

b5d6cb50 90 2b 67   Note On G1 103
b5d6ccbf 90 51 00   Note On(0-Off) A4

b5d6ccd7 90 4c 00   Note On(0-Off) E4

b5d6ccfa 90 48 00   Note On(0-Off) C4
b5d6cd68 90 53 64   Note On B4 100

b5d6cd6b 90 4c 66   Note On E4 102

b5d6cd70 90 48 49   Note On C4 73
b5d6cdf3 90 4c 00   Note On(0-Off) E4

b5d6cdf7 90 53 00   Note On(0-Off) B4

b5d6cdfb 90 48 00   Note On(0-Off) C4
b5d6ce85 90 47 6b   Note On B3 107

b5d6ce86 90 4f 6b   Note On G4 107

b5d6ce87 90 4a 72   Note On D4 114
b5d6d500 90 4f 00   Note On(0-Off) G4

b5d6d50e 90 4a 00   Note On(0-Off) D4

b5d6d510 90 47 00   Note On(0-Off) B3

b5d6d55c 90 4a 6b   Note On D4 107
b5d6d561 90 47 64   Note On B3 100
b5d6d5f5 90 4a 00   Note On(0-Off) D4

b5d6d5ff 90 47 00   Note On(0-Off) B3
b5d6d671 90 47 6d   Note On B3 109

b5d6d672 90 4a 74   Note On D4 116
b5d6d8a7 90 4d 6d   Note On F4 109
b5d6d9ec 90 47 00   Note On(0-Off) B3

b5d6da0c 90 4a 00   Note On(0-Off) D4
b5d6da32 90 4d 00   Note On(0-Off) F4
b5d6daaf 90 4d 70   Note On F4 112

b5d6dab1 90 47 6b   Note On B3 107

b5d6dab4 90 4a 70   Note On D4 112

b5d6dab5 90 2d 6b   Note On A1 107

b5d6dac3 90 2b 00   Note On(0-Off) G1
b5d6ddb7 90 4d 00   Note On(0-Off) F4

b5d6ddbe 90 4a 00   Note On(0-Off) D4

b5d6ddc7 90 47 00   Note On(0-Off) B3
b5d6de21 90 47 66   Note On B3 102

b5d6de22 90 4f 67   Note On G4 103

b5d6de23 90 4a 6d   Note On D4 109
b5d6dff9 90 4a 00   Note On(0-Off) D4
b5d6e052 90 47 00   Note On(0-Off) B3
b5d6e0be 90 4f 00   Note On(0-Off) G4
b5d6e15e 90 45 62   Note On A3 98

b5d6e163 90 48 69   Note On C4 105

b5d6e167 90 4c 67   Note On E4 103
b5d6e5cf 90 4c 00   Note On(0-Off) E4

b5d6e5d9 90 48 00   Note On(0-Off) C4
b5d6e623 90 48 3d   Note On C4 61

b5d6e625 90 4c 4b   Note On E4 75
b5d6e6db 90 4c 00   Note On(0-Off) E4

b5d6e6df 90 48 00   Note On(0-Off) C4

b5d6e6e4 90 45 00   Note On(0-Off) A3
b5d6e747 90 45 67   Note On A3 103

b5d6e74a 90 48 69   Note On C4 105

b5d6e74c 90 4c 6e   Note On E4 110
b5d6e8d9 90 4c 00   Note On(0-Off) E4

b5d6e8ef 90 48 00   Note On(0-Off) C4

b5d6e8f2 90 45 00   Note On(0-Off) A3
b5d6e964 90 2b 60   Note On G1 96

b5d6e96f 90 2d 00   Note On(0-Off) A1
b5d6e97f 90 43 6b   Note On G3 107

b5d6e982 90 4a 70   Note On D4 112

b5d6e983 90 47 72   Note On B3 114
b5d6ea45 90 43 00   Note On(0-Off) G3
b5d6ea57 90 47 00   Note On(0-Off) B3

b5d6ea68 90 4a 00   Note On(0-Off) D4

b5d6ea95 90 43 62   Note On G3 98
b5d6eb4a 90 43 00   Note On(0-Off) G3
b5d6ebaa 90 43 52   Note On G3 82

b5d6ebad 90 4a 69   Note On D4 105

b5d6ebaf 90 47 67   Note On B3 103

b5d6ebb7 90 29 67   Note On F1 103
b5d6ebef 90 2b 00   Note On(0-Off) G1
b5d6eee2 90 47 00   Note On(0-Off) B3

b5d6ef07 90 43 00   Note On(0-Off) G3

b5d6ef07 90 4a 00   Note On(0-Off) D4
b5d6ef65 90 48 69   Note On C4 105

b5d6ef65 90 41 67   Note On F3 103

b5d6ef65 90 45 6d   Note On A3 109
b5d6f33c 90 41 00   Note On(0-Off) F3
b5d6f3c9 90 45 00   Note On(0-Off) A3

b5d6f3f6 90 48 00   Note On(0-Off) C4

b5d6f3f6 90 29 00   Note On(0-Off) F1
b5d6f407 90 41 69   Note On F3 105
b5d6f53a 90 41 00   Note On(0-Off) F3

b5d6f56e 90 44 6b   Note On Ab3 107

b5d6f571 90 41 67   Note On F3 103

b5d6f575 90 2c 72   Note On Ab1 114
b5d6f6e7 90 44 00   Note On(0-Off) Ab3

b5d6f71e 90 41 00   Note On(0-Off) F3
b5d6f74b 90 2c 00   Note On(0-Off) Ab1
b5d6f79a 90 41 56   Note On F3 86

b5d6f79b 90 44 62   Note On Ab3 98

b5d6f79d 90 4a 70   Note On D4 112

b5d6f79e 90 2b 6d   Note On G1 109
b5d6f8b4 90 4a 00   Note On(0-Off) D4
b5d6f8db 90 44 00   Note On(0-Off) Ab3

b5d6f8dd 90 41 00   Note On(0-Off) F3
b5d6f959 90 2b 00   Note On(0-Off) G1
b5d6f9c1 90 29 56   Note On F1 86

b5d6f9ce 90 44 64   Note On Ab3 100

b5d6f9d2 90 4c 60   Note On E4 96

b5d6f9d5 90 41 52   Note On F3 82
b5d6fad8 90 4c 00   Note On(0-Off) E4

b5d6fb03 90 29 00   Note On(0-Off) F1
b5d6fb28 90 44 00   Note On(0-Off) Ab3
b5d6fc21 90 4d 56   Note On F4 86

b5d6fc29 90 28 72   Note On E1 114

b5d6fc2a 90 44 3f   Note On Ab3 63
b5d6fc60 90 44 00   Note On(0-Off) Ab3

b5d6fc80 90 41 00   Note On(0-Off) F3
b5d6fcdf 90 4d 00   Note On(0-Off) F4
b5d6fe89 90 47 5f   Note On B3 95

b5d6fe94 90 2f 6b   Note On B1 107

b5d6fe96 90 4f 42   Note On G4 66

b5d6fe9a 90 4c 5e   Note On E4 94
b5d701d8 90 4c 00   Note On(0-Off) E4

b5d7021c 90 4f 00   Note On(0-Off) G4

b5d70220 90 47 00   Note On(0-Off) B3
b5d70279 90 2f 00   Note On(0-Off) B1

b5d7027f 90 28 00   Note On(0-Off) E1
b5d702ba 90 49 01   Note On C#4 1
b5d70356 90 4a 3d   Note On D4 61
b5d7037a 90 4a 00   Note On(0-Off) D4
b5d703d7 90 44 59   Note On Ab3 89

b5d703dc 90 47 72   Note On B3 114

b5d703dd 90 2c 70   Note On Ab1 112

b5d703de 90 4a 72   Note On D4 114

b5d703e3 90 49 00   Note On(0-Off) C#4
b5d70605 90 47 00   Note On(0-Off) B3
b5d7063a 90 44 00   Note On(0-Off) Ab3

b5d70673 90 4a 00   Note On(0-Off) D4
b5d706e5 90 44 40   Note On Ab3 64

b5d706eb 90 4d 67   Note On F4 103

b5d706ef 90 47 69   Note On B3 105

b5d706f1 90 4a 67   Note On D4 103
b5d70749 90 44 00   Note On(0-Off) Ab3

b5d7075b 90 2c 00   Note On(0-Off) Ab1

b5d70779 90 47 00   Note On(0-Off) B3
b5d70786 90 4a 00   Note On(0-Off) D4

b5d70789 90 4d 00   Note On(0-Off) F4
b5d70833 90 45 5e   Note On A3 94

b5d70834 90 48 67   Note On C4 103

b5d70835 90 2d 66   Note On A1 102
b5d70ad9 90 2d 00   Note On(0-Off) A1

b5d70b1d 90 45 00   Note On(0-Off) A3
b5d70b5d 90 48 00   Note On(0-Off) C4
b5d70c96 90 43 64   Note On G3 100

b5d70c9b 90 2e 72   Note On Bb1 114
b5d70d1c 90 46 64   Note On Bb3 100
b5d70d4d 90 43 00   Note On(0-Off) G3
b5d70e00 90 49 01   Note On C#4 1

b5d70e24 90 46 00   Note On(0-Off) Bb3
b5d70eea 90 4c 62   Note On E4 98
b5d70f8a 90 4c 00   Note On(0-Off) E4
b5d7105e 90 4f 79   Note On G4 121
b5d71117 90 52 64   Note On Bb4 100

b5d71117 90 4f 00   Note On(0-Off) G4
b5d7122c 90 55 6e   Note On C#5 110
b5d7125f 90 52 00   Note On(0-Off) Bb4
b5d712ed 90 55 00   Note On(0-Off) C#5

b5d712ed 90 58 70   Note On E5 112

b5d7137a 90 2e 00   Note On(0-Off) Bb1
b5d713fc 90 58 00   Note On(0-Off) E5

b5d713fc 90 4d 64   Note On F4 100

b5d7144b 90 26 0d   Note On D1 13

b5d7144b 90 51 14   Note On A4 20

b5d7144b 90 2d 60   Note On A1 96
b5d7145a 90 32 3e   Note On D2 62

b5d71465 90 26 00   Note On(0-Off) D1

b5d714b2 90 54 60   Note On C5 96

b5d714ba 90 32 00   Note On(0-Off) D2
b5d71562 90 59 4d   Note On F5 77

b5d71569 90 32 4f   Note On D2 79
b5d715e6 90 26 67   Note On D1 103
b5d7197d 90 26 00   Note On(0-Off) D1
b5d719ac 90 32 00   Note On(0-Off) D2

b5d719b8 90 2d 00   Note On(0-Off) A1
b5d71a9c 90 51 00   Note On(0-Off) A4

b5d71a9e 90 4d 00   Note On(0-Off) F4

b5d71aac 90 54 00   Note On(0-Off) C5
b5d71ab2 90 59 00   Note On(0-Off) F5

b5d71b07 90 4d 67   Note On F4 103

b5d71b0a 90 54 6d   Note On C5 109

b5d71b0c 90 59 67   Note On F5 103

b5d71b12 90 51 6d   Note On A4 109

b5d71b15 90 24 6e   Note On C1 110
b5d71b1c 90 30 4f   Note On C2 79

b5d71b1d 90 2b 66   Note On G1 102
b5d71f46 90 24 00   Note On(0-Off) C1
b5d71f6b 90 2b 00   Note On(0-Off) G1

b5d71f73 90 30 00   Note On(0-Off) C2
b5d72018 90 51 00   Note On(0-Off) A4

b5d7202f 90 4d 00   Note On(0-Off) F4

b5d72037 90 54 00   Note On(0-Off) C5
b5d72055 90 59 00   Note On(0-Off) F5
b5d721d0 90 54 6d   Note On C5 109

b5d721d5 90 59 69   Note On F5 105

b5d721d6 90 4d 64   Note On F4 100

b5d721d7 90 51 6d   Note On A4 109

b5d721da 90 2e 66   Note On Bb1 102

b5d721de 90 3a 64   Note On Bb2 100
b5d7277e 90 51 00   Note On(0-Off) A4
b5d727b5 90 54 00   Note On(0-Off) C5

b5d727d5 90 4d 00   Note On(0-Off) F4

b5d727df 90 59 00   Note On(0-Off) F5
b5d72875 90 54 67   Note On C5 103

b5d72877 90 59 5f   Note On F5 95

b5d7287b 90 51 6b   Note On A4 107

b5d7287d 90 4d 3a   Note On F4 58
b5d72881 90 3a 00   Note On(0-Off) Bb2

b5d72888 90 2e 00   Note On(0-Off) Bb1
b5d72a44 90 59 00   Note On(0-Off) F5

b5d72a6e 90 51 00   Note On(0-Off) A4
b5d72a7a 90 4d 00   Note On(0-Off) F4

b5d72a91 90 54 00   Note On(0-Off) C5
b5d72ae2 90 54 64   Note On C5 100

b5d72aec 90 51 67   Note On A4 103

b5d72af3 90 4d 59   Note On F4 89
b5d72cb5 90 59 67   Note On F5 103

b5d72cb9 90 58 66   Note On E5 102
b5d72cfb 90 58 00   Note On(0-Off) E5
b5d72d90 90 4d 00   Note On(0-Off) F4
b5d72daf 90 51 00   Note On(0-Off) A4

b5d72dd3 90 54 00   Note On(0-Off) C5

b5d72de6 90 59 00   Note On(0-Off) F5
b5d72e45 90 2b 5b   Note On G1 91

b5d72e48 90 32 59   Note On D2 89

b5d72e49 90 51 69   Note On A4 105

b5d72e4b 90 37 3f   Note On G2 63

b5d72e4e 90 59 67   Note On F5 103

b5d72e56 90 54 67   Note On C5 103

b5d72e58 90 53 6b   Note On B4 107
b5d72e87 90 53 00   Note On(0-Off) B4
b5d73220 90 51 00   Note On(0-Off) A4

b5d73231 90 54 00   Note On(0-Off) C5

b5d73251 90 59 00   Note On(0-Off) F5
b5d732b5 90 53 64   Note On B4 100

b5d732b8 90 56 7b   Note On D5 123

b5d732bd 90 5b 6b   Note On G5 107
b5d735d2 90 32 00   Note On(0-Off) D2

b5d735dc 90 2b 00   Note On(0-Off) G1
b5d735e5 90 37 00   Note On(0-Off) G2
b5d7382a 90 53 00   Note On(0-Off) B4
b5d738a9 90 58 60   Note On E5 96

b5d738b0 90 5b 00   Note On(0-Off) G5

b5d738ef 90 54 4b   Note On C5 75
b5d7390e 90 58 00   Note On(0-Off) E5

b5d73913 90 53 67   Note On B4 103

b5d7392c 90 56 00   Note On(0-Off) D5

b5d73931 90 51 6b   Note On A4 107

b5d7394f 90 54 00   Note On(0-Off) C5

b5d73956 90 4f 52   Note On G4 82

b5d7396e 90 53 00   Note On(0-Off) B4
b5d73978 90 4d 49   Note On F4 73

b5d73992 90 51 00   Note On(0-Off) A4

b5d7399f 90 4c 34   Note On E4 52

b5d739b6 90 4f 00   Note On(0-Off) G4

b5d739c0 90 4a 3e   Note On D4 62
b5d739d8 90 4d 00   Note On(0-Off) F4

b5d739df 90 49 00   Note On(0-Off) C#4

b5d739e1 90 48 2f   Note On C4 47

b5d739fd 90 4c 00   Note On(0-Off) E4

b5d73a07 90 47 2f   Note On B3 47

b5d73a21 90 4a 00   Note On(0-Off) D4

b5d73a2c 90 45 28   Note On A3 40
b5d73a45 90 48 00   Note On(0-Off) C4

b5d73a4e 90 43 31   Note On G3 49

b5d73a65 90 47 00   Note On(0-Off) B3

b5d73a6e 90 41 36   Note On F3 54

b5d73a87 90 45 00   Note On(0-Off) A3

b5d73a8f 90 40 2b   Note On E3 43
b5d73aa7 90 43 00   Note On(0-Off) G3

b5d73aaf 90 3e 3e   Note On D3 62

b5d73ac6 90 41 00   Note On(0-Off) F3

b5d73ae7 90 40 00   Note On(0-Off) E3

b5d73afb 90 3b 3f   Note On B2 63

b5d73afc 90 3e 00   Note On(0-Off) D3
b5d73b08 90 3b 00   Note On(0-Off) B2
b5d73ea3 90 40 66   Note On E3 102

b5d73ea5 90 3e 69   Note On D3 105

b5d73eab 90 43 5e   Note On G3 94

b5d73ebd 90 24 76   Note On C1 118

b5d73ed4 90 32 4d   Note On D2 77

b5d73ed5 90 30 4d   Note On C2 77
b5d73f4f 90 32 00   Note On(0-Off) D2

b5d73f51 90 30 00   Note On(0-Off) C2
b5d73f64 90 3e 00   Note On(0-Off) D3

b5d73f85 90 40 00   Note On(0-Off) E3

b5d73f9f 90 43 00   Note On(0-Off) G3
b5d73fca 90 24 00   Note On(0-Off) C1
b5d74120 90 3e 64   Note On D3 100

b5d74123 90 43 56   Note On G3 86

b5d74124 90 40 5b   Note On E3 91
b5d7420d 90 40 00   Note On(0-Off) E3

b5d74223 90 43 00   Note On(0-Off) G3
b5d7422f 90 3e 00   Note On(0-Off) D3
b5d742b9 90 30 6b   Note On C2 107
b5d7433d 90 30 00   Note On(0-Off) C2
b5d7437d 90 3e 64   Note On D3 100

b5d7437e 90 40 62   Note On E3 98

b5d7437f 90 43 60   Note On G3 96
b5d7442c 90 40 00   Note On(0-Off) E3

b5d74436 90 3e 00   Note On(0-Off) D3

b5d74444 90 43 00   Note On(0-Off) G3
b5d74623 90 3e 6e   Note On D3 110

b5d74626 90 43 67   Note On G3 103

b5d74627 90 40 6b   Note On E3 107
b5d746f8 90 40 00   Note On(0-Off) E3

b5d74705 90 43 00   Note On(0-Off) G3

b5d7470e 90 3e 00   Note On(0-Off) D3
b5d747c0 90 2f 6b   Note On B1 107
b5d7487e 90 2d 6b   Note On A1 107

b5d74894 90 2f 00   Note On(0-Off) B1

b5d748df 90 3e 62   Note On D3 98
b5d748e1 90 40 62   Note On E3 98

b5d748e3 90 43 5b   Note On G3 91
b5d7498e 90 2d 00   Note On(0-Off) A1

b5d74991 90 40 00   Note On(0-Off) E3

b5d74993 90 3e 00   Note On(0-Off) D3

b5d749aa 90 43 00   Note On(0-Off) G3
b5d74b56 90 3e 62   Note On D3 98

b5d74b58 90 43 60   Note On G3 96

b5d74b5b 90 40 5e   Note On E3 94

b5d74b5d 90 3c 7f   Note On C3 127
b5d74bef 90 3c 00   Note On(0-Off) C3
b5d74c1f 90 43 00   Note On(0-Off) G3

b5d74c2c 90 40 00   Note On(0-Off) E3

b5d74c3f 90 3e 00   Note On(0-Off) D3
b5d74d13 90 2d 76   Note On A1 118
b5d74de8 90 3e 6b   Note On D3 107

b5d74de9 90 40 69   Note On E3 105

b5d74dea 90 43 4d   Note On G3 77
b5d74e66 90 40 00   Note On(0-Off) E3

b5d74e67 90 3e 00   Note On(0-Off) D3
b5d74e6b 90 43 00   Note On(0-Off) G3
b5d74ede 90 2d 00   Note On(0-Off) A1
b5d75052 90 3e 6e   Note On D3 110

b5d75054 90 40 6d   Note On E3 109

b5d75058 90 43 5f   Note On G3 95
b5d75102 90 2d 4d   Note On A1 77
b5d75155 90 43 00   Note On(0-Off) G3

b5d7515e 90 40 00   Note On(0-Off) E3

b5d7516f 90 3e 00   Note On(0-Off) D3
b5d751b2 90 2b 64   Note On G1 100
b5d751f9 90 2d 00   Note On(0-Off) A1

b5d75212 90 29 64   Note On F1 100

b5d75257 90 2b 00   Note On(0-Off) G1
b5d75275 90 28 25   Note On E1 37

b5d752a2 90 29 00   Note On(0-Off) F1
b5d752e6 90 3e 5b   Note On D3 91

b5d752ed 90 41 67   Note On F3 103

b5d752f2 90 28 00   Note On(0-Off) E1

b5d752f4 90 45 6b   Note On A3 107

b5d752f6 90 26 72   Note On D1 114

b5d75305 90 43 64   Note On G3 100

b5d7531b 90 40 12   Note On E3 18
b5d75379 90 43 00   Note On(0-Off) G3
b5d7538c 90 45 00   Note On(0-Off) A3

b5d7539a 90 41 00   Note On(0-Off) F3

b5d7539d 90 3e 00   Note On(0-Off) D3

b5d7539e 90 40 00   Note On(0-Off) E3
b5d753f8 90 26 00   Note On(0-Off) D1
b5d7558f 90 3e 56   Note On D3 86

b5d75590 90 40 52   Note On E3 82

b5d75592 90 41 59   Note On F3 89

b5d75596 90 45 4d   Note On A3 77
b5d75640 90 41 00   Note On(0-Off) F3

b5d7564c 90 3e 00   Note On(0-Off) D3

b5d7564f 90 40 00   Note On(0-Off) E3

b5d75650 90 45 00   Note On(0-Off) A3
b5d7571b 90 26 64   Note On D1 100
b5d757de 90 28 6d   Note On E1 109

b5d757f4 90 26 00   Note On(0-Off) D1
b5d75824 90 40 62   Note On E3 98

b5d75827 90 45 44   Note On A3 68

b5d75828 90 41 60   Note On F3 96

b5d75829 90 3e 66   Note On D3 102
b5d7588f 90 40 00   Note On(0-Off) E3

b5d7589a 90 41 00   Note On(0-Off) F3

b5d7589b 90 3e 00   Note On(0-Off) D3

b5d7589c 90 45 00   Note On(0-Off) A3
b5d75a92 90 45 62   Note On A3 98

b5d75a93 90 40 64   Note On E3 100

b5d75a95 90 41 67   Note On F3 103

b5d75a97 90 3e 62   Note On D3 98
b5d75b17 90 40 00   Note On(0-Off) E3

b5d75b1f 90 41 00   Note On(0-Off) F3

b5d75b21 90 3e 00   Note On(0-Off) D3
b5d75b27 90 45 00   Note On(0-Off) A3
b5d75c33 90 29 60   Note On F1 96
b5d75c56 90 28 00   Note On(0-Off) E1
b5d75d2d 90 2b 69   Note On G1 105

b5d75d54 90 29 00   Note On(0-Off) F1
b5d75f9b 90 43 5e   Note On G3 94

b5d75f9c 90 45 60   Note On A3 96

b5d75f9d 90 3e 60   Note On D3 96

b5d75fa2 90 48 3f   Note On C4 63

b5d75fa3 90 47 40   Note On B3 64
b5d7601e 90 48 00   Note On(0-Off) C4

b5d76020 90 47 00   Note On(0-Off) B3

b5d76031 90 45 00   Note On(0-Off) A3
b5d76052 90 43 00   Note On(0-Off) G3

b5d7605c 90 2b 00   Note On(0-Off) G1

b5d76076 90 3e 00   Note On(0-Off) D3
b5d76151 90 2b 64   Note On G1 100
b5d76222 90 43 45   Note On G3 69

b5d76225 90 47 67   Note On B3 103

b5d7622c 90 41 3d   Note On F3 61

b5d7622c 90 3e 4f   Note On D3 79

b5d76234 90 41 00   Note On(0-Off) F3
b5d76418 90 43 00   Note On(0-Off) G3

b5d76421 90 47 00   Note On(0-Off) B3

b5d76440 90 3e 00   Note On(0-Off) D3

b5d76444 90 2b 00   Note On(0-Off) G1
b5d76492 90 43 60   Note On G3 96

b5d76496 90 3e 3e   Note On D3 62

b5d764a1 90 2b 67   Note On G1 103
b5d76662 90 43 00   Note On(0-Off) G3

b5d7669d 90 3e 00   Note On(0-Off) D3
b5d766ff 90 24 76   Note On C1 118

b5d76707 90 2b 00   Note On(0-Off) G1
b5d76977 90 40 60   Note On E3 96

b5d76978 90 3e 64   Note On D3 100

b5d76979 90 43 4d   Note On G3 77
b5d76a4d 90 40 00   Note On(0-Off) E3

b5d76a4f 90 43 00   Note On(0-Off) G3
b5d76a5c 90 3e 00   Note On(0-Off) D3

b5d76aa9 90 24 00   Note On(0-Off) C1
b5d76acd 90 28 64   Note On E1 100
b5d76e47 90 43 3e   Note On G3 62

b5d76e49 90 40 4f   Note On E3 79

b5d76e4b 90 3e 4b   Note On D3 75
b5d76f68 90 40 00   Note On(0-Off) E3

b5d76f76 90 43 00   Note On(0-Off) G3

b5d76f7b 90 3e 00   Note On(0-Off) D3
b5d77004 90 2b 38   Note On G1 56

b5d7700e 90 28 00   Note On(0-Off) E1
b5d770e6 90 24 7d   Note On C1 125
b5d77120 90 2b 00   Note On(0-Off) G1
b5d7738a 90 43 4b   Note On G3 75

b5d7738c 90 3e 52   Note On D3 82

b5d7738f 90 40 59   Note On E3 89
b5d77480 90 40 00   Note On(0-Off) E3

b5d7748f 90 43 00   Note On(0-Off) G3

b5d774a0 90 3e 00   Note On(0-Off) D3
b5d774f8 90 28 67   Note On E1 103
b5d77517 90 24 00   Note On(0-Off) C1
b5d7784e 90 43 45   Note On G3 69

b5d77854 90 3e 5b   Note On D3 91

b5d77856 90 40 52   Note On E3 82
b5d778eb 90 40 00   Note On(0-Off) E3
b5d77902 90 3e 00   Note On(0-Off) D3

b5d7790a 90 43 00   Note On(0-Off) G3

b5d77953 90 2b 60   Note On G1 96
b5d77969 90 28 00   Note On(0-Off) E1
b5d779fb 90 28 66   Note On E1 102
b5d77a53 90 2b 00   Note On(0-Off) G1

b5d77a5f 90 28 00   Note On(0-Off) E1
b5d77aee 90 2d 76   Note On A1 118
b5d77d62 90 40 64   Note On E3 100

b5d77d65 90 45 5f   Note On A3 95
b5d77e8a 90 40 00   Note On(0-Off) E3

b5d77e95 90 45 00   Note On(0-Off) A3

b5d77ec7 90 30 6d   Note On C2 109
b5d77ef2 90 2d 00   Note On(0-Off) A1
b5d78263 90 48 4f   Note On C4 79

b5d7826e 90 45 4b   Note On A3 75

b5d78277 90 40 40   Note On E3 64

b5d78278 90 47 4b   Note On B3 75
b5d7834e 90 40 00   Note On(0-Off) E3
b5d78384 90 45 00   Note On(0-Off) A3

b5d78384 90 47 00   Note On(0-Off) B3

b5d78384 90 34 5e   Note On E2 94

b5d783a9 90 48 00   Note On(0-Off) C4

b5d783b5 90 30 00   Note On(0-Off) C2
b5d78481 90 40 27   Note On E3 39
b5d78497 90 34 00   Note On(0-Off) E2

b5d784d1 90 40 00   Note On(0-Off) E3

b5d7852b 90 2d 67   Note On A1 103
b5d787b3 90 45 5e   Note On A3 94

b5d787b3 90 40 60   Note On E3 96
b5d788fa 90 30 67   Note On C2 103

b5d788fb 90 45 00   Note On(0-Off) A3

b5d788fb 90 40 00   Note On(0-Off) E3

b5d7890b 90 2d 00   Note On(0-Off) A1
b5d78b74 90 34 6e   Note On E2 110

b5d78b79 90 30 00   Note On(0-Off) C2
b5d78c5f 90 40 67   Note On E3 103

b5d78c5f 90 45 70   Note On A3 112
b5d78ddc 90 40 00   Note On(0-Off) E3

b5d78de0 90 32 5e   Note On D2 94

b5d78e06 90 34 00   Note On(0-Off) E2

b5d78e14 90 45 00   Note On(0-Off) A3
b5d78e91 90 32 00   Note On(0-Off) D2
b5d78f02 90 26 69   Note On D1 105
b5d78f06 90 28 72   Note On E1 114
b5d78fab 90 28 00   Note On(0-Off) E1
b5d79156 90 41 67   Note On F3 103

b5d7915a 90 45 64   Note On A3 100

b5d7915d 90 3e 4b   Note On D3 75
b5d791e9 90 41 00   Note On(0-Off) F3

b5d791f4 90 3e 00   Note On(0-Off) D3

b5d79206 90 45 00   Note On(0-Off) A3

b5d79226 90 26 00   Note On(0-Off) D1
b5d792c6 90 2d 70   Note On A1 112
b5d7934b 90 2d 00   Note On(0-Off) A1
b5d793bd 90 2d 62   Note On A1 98
b5d7943d 90 2d 00   Note On(0-Off) A1
b5d79626 90 45 5f   Note On A3 95

b5d79628 90 41 5e   Note On F3 94

b5d79629 90 3e 60   Note On D3 96
b5d796de 90 41 00   Note On(0-Off) F3

b5d796e4 90 3e 00   Note On(0-Off) D3
b5d796fc 90 45 00   Note On(0-Off) A3
b5d79774 90 2d 5e   Note On A1 94
b5d79889 90 26 60   Note On D1 96

b5d7988a 90 2d 00   Note On(0-Off) A1
b5d7999e 90 26 00   Note On(0-Off) D1
b5d79af4 90 41 5b   Note On F3 91

b5d79af5 90 3e 59   Note On D3 89

b5d79b00 90 39 64   Note On A2 100
b5d79b9f 90 3e 00   Note On(0-Off) D3
b5d79bb9 90 39 00   Note On(0-Off) A2

b5d79bbf 90 41 00   Note On(0-Off) F3
b5d79c73 90 2d 67   Note On A1 103
b5d79cf6 90 2d 00   Note On(0-Off) A1
b5d79d5a 90 2d 6b   Note On A1 107
b5d79e7a 90 2d 00   Note On(0-Off) A1

b5d79ec2 90 35 64   Note On F2 100

b5d79ec5 90 39 64   Note On A2 100

b5d79ec6 90 3e 64   Note On D3 100
b5d79f62 90 2d 5f   Note On A1 95

b5d79f87 90 39 00   Note On(0-Off) A2
b5d79fb0 90 3e 00   Note On(0-Off) D3

b5d79fb2 90 35 00   Note On(0-Off) F2
b5d7a005 90 2d 00   Note On(0-Off) A1

b5d7a057 90 35 47   Note On F2 71

b5d7a059 90 39 4b   Note On A2 75
b5d7a11d 90 2d 4f   Note On A1 79
b5d7a131 90 39 00   Note On(0-Off) A2

b5d7a133 90 35 00   Note On(0-Off) F2
b5d7a1e1 90 2d 00   Note On(0-Off) A1
b5d7a206 90 2b 70   Note On G1 112

b5d7a250 90 37 56   Note On G2 86

b5d7a255 90 3b 6d   Note On B2 109
b5d7a3b7 90 3b 00   Note On(0-Off) B2

b5d7a3e4 90 37 00   Note On(0-Off) G2
b5d7a406 90 2b 00   Note On(0-Off) G1
b5d7a48c 90 3b 6b   Note On B2 107

b5d7a48e 90 37 64   Note On G2 100

b5d7a491 90 2b 67   Note On G1 103
b5d7a5f2 90 37 00   Note On(0-Off) G2

b5d7a5fd 90 3b 00   Note On(0-Off) B2
b5d7a691 90 2b 00   Note On(0-Off) G1
b5d7a6fb 90 39 5b   Note On A2 91

b5d7a709 90 2d 72   Note On A1 114

b5d7a70a 90 3c 7f   Note On C3 127
b5d7a852 90 39 00   Note On(0-Off) A2

b5d7a854 90 2d 00   Note On(0-Off) A1
b5d7a872 90 3c 00   Note On(0-Off) C3
b5d7a965 90 39 64   Note On A2 100

b5d7a966 90 2d 6e   Note On A1 110

b5d7a967 90 3c 7f   Note On C3 127
b5d7aa9a 90 39 00   Note On(0-Off) A2

b5d7aac3 90 3c 00   Note On(0-Off) C3
b5d7ab31 90 2d 00   Note On(0-Off) A1
b5d7abb0 90 3e 67   Note On D3 103

b5d7abb2 90 3b 70   Note On B2 112

b5d7abb5 90 2f 6d   Note On B1 109
b5d7acee 90 3b 00   Note On(0-Off) B2

b5d7ad21 90 3e 00   Note On(0-Off) D3
b5d7ad53 90 2f 00   Note On(0-Off) B1
b5d7ae1d 90 3b 72   Note On B2 114

b5d7ae1f 90 37 67   Note On G2 103

b5d7ae25 90 2b 72   Note On G1 114
b5d7b06e 90 3b 00   Note On(0-Off) B2

b5d7b070 90 2d 70   Note On A1 112

b5d7b080 90 39 67   Note On A2 103

b5d7b08a 90 3c 7f   Note On C3 127

b5d7b097 90 2b 00   Note On(0-Off) G1
b5d7b10b 90 37 00   Note On(0-Off) G2
b5d7b266 90 39 00   Note On(0-Off) A2

b5d7b289 90 3c 00   Note On(0-Off) C3
b5d7b2f6 90 2f 6b   Note On B1 107

b5d7b2f6 90 3e 64   Note On D3 100

b5d7b2f7 90 2d 00   Note On(0-Off) A1

b5d7b2f7 90 3b 6d   Note On B2 109
b5d7b485 90 3b 00   Note On(0-Off) B2

b5d7b4a7 90 3e 00   Note On(0-Off) D3
b5d7b541 90 29 67   Note On F1 103
b5d7b54f 90 39 56   Note On A2 86

b5d7b553 90 3c 7f   Note On C3 127

b5d7b554 90 41 69   Note On F3 105

b5d7b55f 90 2f 00   Note On(0-Off) B1
b5d7b6de 90 3c 00   Note On(0-Off) C3
b5d7b6f0 90 39 00   Note On(0-Off) A2

b5d7b710 90 41 00   Note On(0-Off) F3
b5d7b78c 90 41 64   Note On F3 100

b5d7b792 90 3c 7f   Note On C3 127

b5d7b794 90 39 60   Note On A2 96
b5d7b8e7 90 2d 6b   Note On A1 107

b5d7b914 90 29 00   Note On(0-Off) F1

b5d7b92e 90 41 00   Note On(0-Off) F3

b5d7b930 90 40 66   Note On E3 102
b5d7ba39 90 3c 00   Note On(0-Off) C3
b5d7bad8 90 39 00   Note On(0-Off) A2

b5d7badc 90 40 00   Note On(0-Off) E3
b5d7bb34 90 39 62   Note On A2 98

b5d7bb37 90 3c 7f   Note On C3 127
b5d7bc21 90 30 70   Note On C2 112

b5d7bc44 90 2d 00   Note On(0-Off) A1
b5d7be98 90 29 67   Note On F1 103

b5d7beb6 90 30 00   Note On(0-Off) C2
b5d7c059 90 3c 00   Note On(0-Off) C3

b5d7c061 90 39 00   Note On(0-Off) A2
b5d7c0d0 90 39 3e   Note On A2 62

b5d7c0d8 90 3c 7f   Note On C3 127

b5d7c0d9 90 41 49   Note On F3 73
b5d7c24c 90 30 49   Note On C2 73

b5d7c24d 90 39 00   Note On(0-Off) A2

b5d7c253 90 29 00   Note On(0-Off) F1

b5d7c254 90 3c 00   Note On(0-Off) C3
b5d7c295 90 41 00   Note On(0-Off) F3
b5d7c32b 90 40 59   Note On E3 89

b5d7c32d 90 3c 7f   Note On C3 127

b5d7c32f 90 39 5b   Note On A2 91
b5d7c45a 90 40 00   Note On(0-Off) E3

b5d7c460 90 3c 00   Note On(0-Off) C3
b5d7c4b6 90 39 00   Note On(0-Off) A2
b5d7c57a 90 3b 64   Note On B2 100

b5d7c57b 90 2d 67   Note On A1 103

b5d7c57e 90 37 52   Note On G2 82

b5d7c584 90 3e 5f   Note On D3 95

b5d7c5ad 90 30 00   Note On(0-Off) C2
b5d7c6b0 90 3b 00   Note On(0-Off) B2

b5d7c6ce 90 37 00   Note On(0-Off) G2

b5d7c6dc 90 3e 00   Note On(0-Off) D3

b5d7c708 90 37 3c   Note On G2 60

b5d7c70a 90 3c 7f   Note On C3 127

b5d7c70b 90 40 4b   Note On E3 75
b5d7c797 90 2d 00   Note On(0-Off) A1
b5d7c81a 90 24 7e   Note On C1 126
b5d7ca76 90 2b 5e   Note On G1 94

b5d7caa3 90 40 00   Note On(0-Off) E3

b5d7caa6 90 37 00   Note On(0-Off) G2

b5d7caa8 90 24 00   Note On(0-Off) C1
b5d7caad 90 3c 00   Note On(0-Off) C3
b5d7cbcc 90 28 72   Note On E1 114
b5d7cbec 90 2b 00   Note On(0-Off) G1
b5d7cf44 90 2b 44   Note On G1 68

b5d7cf5a 90 28 00   Note On(0-Off) E1
b5d7d00b 90 28 5e   Note On E1 94
b5d7d04e 90 2b 00   Note On(0-Off) G1

b5d7d08c 90 29 4b   Note On F1 75
b5d7d0be 90 28 00   Note On(0-Off) E1
b5d7d11a 90 29 00   Note On(0-Off) F1

b5d7d136 90 24 7b   Note On C1 123
b5d7d3c6 90 37 4d   Note On G2 77

b5d7d3cf 90 40 56   Note On E3 86
b5d7d599 90 37 00   Note On(0-Off) G2

b5d7d5cc 90 40 00   Note On(0-Off) E3
b5d7d61d 90 3b 6b   Note On B2 107

b5d7d61e 90 26 69   Note On D1 105

b5d7d61f 90 37 56   Note On G2 86

b5d7d623 90 3e 70   Note On D3 112
b5d7d648 90 24 00   Note On(0-Off) C1
b5d7d833 90 3b 00   Note On(0-Off) B2
b5d7d872 90 28 6d   Note On E1 109

b5d7d884 90 3e 00   Note On(0-Off) D3
b5d7d89f 90 26 00   Note On(0-Off) D1
b5d7da3e 90 37 00   Note On(0-Off) G2

b5d7da59 90 28 00   Note On(0-Off) E1
b5d7dab4 90 29 69   Note On F1 105

b5d7dabb 90 39 64   Note On A2 100

b5d7dabd 90 35 66   Note On F2 102
b5d7dc61 90 35 00   Note On(0-Off) F2
b5d7dca4 90 39 00   Note On(0-Off) A2
b5d7dd2e 90 2d 67   Note On A1 103

b5d7dd3e 90 29 00   Note On(0-Off) F1
b5d7de36 90 2d 00   Note On(0-Off) A1
b5d7dea5 90 2d 62   Note On A1 98
b5d7e03a 90 2d 00   Note On(0-Off) A1
b5d7e15d 90 30 6d   Note On C2 109
b5d7e244 90 39 66   Note On A2 102

b5d7e246 90 41 6b   Note On F3 107

b5d7e247 90 3c 7f   Note On C3 127
b5d7e2dd 90 41 00   Note On(0-Off) F3
b5d7e30e 90 40 45   Note On E3 69

b5d7e34b 90 3c 00   Note On(0-Off) C3
b5d7e3ce 90 40 00   Note On(0-Off) E3
b5d7e43f 90 39 00   Note On(0-Off) A2

b5d7e473 90 30 00   Note On(0-Off) C2
b5d7e49e 90 29 64   Note On F1 100

b5d7e4a1 90 39 4f   Note On A2 79

b5d7e4a3 90 41 62   Note On F3 98
b5d7e662 90 41 00   Note On(0-Off) F3

b5d7e682 90 39 00   Note On(0-Off) A2
b5d7e700 90 41 60   Note On F3 96

b5d7e707 90 39 5f   Note On A2 95

b5d7e709 90 3c 7f   Note On C3 127
b5d7e7e2 90 39 00   Note On(0-Off) A2

b5d7e802 90 3c 00   Note On(0-Off) C3
b5d7e846 90 41 00   Note On(0-Off) F3

b5d7e894 90 2d 49   Note On A1 73
b5d7e8cb 90 29 00   Note On(0-Off) F1
b5d7e99b 90 45 52   Note On A3 82

b5d7e99e 90 41 64   Note On F3 100
b5d7ea95 90 41 00   Note On(0-Off) F3
b5d7eadb 90 45 00   Note On(0-Off) A3
b5d7ec10 90 48 62   Note On C4 98

b5d7ec13 90 30 5b   Note On C2 91

b5d7ec16 90 45 62   Note On A3 98

b5d7ec17 90 41 60   Note On F3 96

b5d7ec2d 90 2d 00   Note On(0-Off) A1
b5d7ed28 90 30 00   Note On(0-Off) C2

b5d7ed3a 90 41 00   Note On(0-Off) F3
b5d7ed69 90 48 00   Note On(0-Off) C4

b5d7eda8 90 45 00   Note On(0-Off) A3

b5d7edc9 90 24 12   Note On C1 18
b5d7edd0 90 41 64   Note On F3 100

b5d7edd5 90 45 6b   Note On A3 107

b5d7edd7 90 48 69   Note On C4 105

b5d7ee18 90 24 00   Note On(0-Off) C1
b5d7eeb4 90 24 7e   Note On C1 126
b5d7f010 90 45 00   Note On(0-Off) A3

b5d7f01a 90 47 67   Note On B3 103
b5d7f03a 90 48 00   Note On(0-Off) C4
b5d7f129 90 45 6e   Note On A3 110
b5d7f1a3 90 41 00   Note On(0-Off) F3

b5d7f1b7 90 47 00   Note On(0-Off) B3
b5d7f24d 90 45 00   Note On(0-Off) A3

b5d7f281 90 48 59   Note On C4 89

b5d7f282 90 43 64   Note On G3 100

b5d7f283 90 28 67   Note On E1 103
b5d7f28b 90 40 69   Note On E3 105

b5d7f2a1 90 24 00   Note On(0-Off) C1
b5d7f681 90 2b 4d   Note On G1 77
b5d7f695 90 28 00   Note On(0-Off) E1
b5d7f7b9 90 48 00   Note On(0-Off) C4
b5d7f803 90 40 00   Note On(0-Off) E3
b5d7f820 90 43 00   Note On(0-Off) G3
b5d7f8ee 90 24 7b   Note On C1 123

b5d7f8ee 90 40 64   Note On E3 100

b5d7f8ef 90 43 52   Note On G3 82

b5d7f8ef 90 2b 00   Note On(0-Off) G1
b5d7f9de 90 40 00   Note On(0-Off) E3

b5d7f9de 90 43 00   Note On(0-Off) G3

b5d7f9e6 90 24 00   Note On(0-Off) C1
b5d7fb59 90 40 6b   Note On E3 107

b5d7fb59 90 43 6b   Note On G3 107

b5d7fb59 90 24 7d   Note On C1 125
b5d7fd58 90 40 00   Note On(0-Off) E3

b5d7fd58 90 43 00   Note On(0-Off) G3

b5d7fd58 90 26 64   Note On D1 100

b5d7fd89 90 41 67   Note On F3 103

b5d7fd8a 90 45 4f   Note On A3 79

b5d7fd8a 90 24 00   Note On(0-Off) C1
b5d7ff35 90 41 00   Note On(0-Off) F3

b5d7ff35 90 45 00   Note On(0-Off) A3
b5d80000 90 28 72   Note On E1 114

b5d80001 90 26 00   Note On(0-Off) D1

b5d80001 90 41 66   Note On F3 102
b5d80186 90 41 00   Note On(0-Off) F3
b5d80220 90 29 69   Note On F1 105

b5d8022c 90 41 60   Note On F3 96

b5d8022d 90 45 6e   Note On A3 110

b5d8022f 90 48 60   Note On C4 96

b5d80232 90 28 00   Note On(0-Off) E1
b5d80309 90 45 00   Note On(0-Off) A3

b5d80322 90 48 00   Note On(0-Off) C4

b5d80324 90 41 00   Note On(0-Off) F3
b5d8038d 90 45 4b   Note On A3 75
b5d80393 90 41 23   Note On F3 35

b5d80395 90 48 3d   Note On C4 61
b5d80403 90 48 00   Note On(0-Off) C4

b5d80407 90 45 00   Note On(0-Off) A3

b5d80412 90 41 00   Note On(0-Off) F3

b5d80454 90 48 64   Note On C4 100

b5d80454 90 45 67   Note On A3 103

b5d80454 90 41 60   Note On F3 96
b5d80518 90 45 00   Note On(0-Off) A3

b5d8051b 90 41 00   Note On(0-Off) F3

b5d8051d 90 48 00   Note On(0-Off) C4
b5d8057f 90 29 00   Note On(0-Off) F1
b5d805e7 90 48 69   Note On C4 105

b5d805ea 90 45 70   Note On A3 112

b5d805ed 90 41 66   Note On F3 102

b5d805ef 90 29 72   Note On F1 114
b5d8071d 90 48 00   Note On(0-Off) C4
b5d80721 90 45 00   Note On(0-Off) A3

b5d80726 90 41 00   Note On(0-Off) F3
b5d8082c 90 48 64   Note On C4 100

b5d80836 90 43 52   Note On G3 82
b5d80915 90 48 00   Note On(0-Off) C4
b5d80933 90 4c 6b   Note On E4 107

b5d80936 90 47 6b   Note On B3 107
b5d809b2 90 43 00   Note On(0-Off) G3

b5d809d6 90 47 00   Note On(0-Off) B3
b5d809ea 90 4c 00   Note On(0-Off) E4
b5d80a90 90 43 5f   Note On G3 95

b5d80a93 90 47 6d   Note On B3 109

b5d80a9f 90 4a 6e   Note On D4 110
b5d80ba6 90 2b 6b   Note On G1 107

b5d80bb7 90 29 00   Note On(0-Off) F1
b5d80d0d 90 47 00   Note On(0-Off) B3
b5d80d18 90 43 00   Note On(0-Off) G3

b5d80d2b 90 4a 00   Note On(0-Off) D4
b5d80dc1 90 4a 6d   Note On D4 109

b5d80dc5 90 43 62   Note On G3 98

b5d80dc7 90 47 6e   Note On B3 110
b5d80fa0 90 43 00   Note On(0-Off) G3

b5d80fa2 90 47 00   Note On(0-Off) B3

b5d80fb9 90 4a 00   Note On(0-Off) D4

b5d80fc8 90 2b 00   Note On(0-Off) G1
b5d8101f 90 4c 6b   Note On E4 107

b5d81023 90 43 5f   Note On G3 95

b5d81026 90 2b 6b   Note On G1 107

b5d81027 90 47 6b   Note On B3 107
b5d811b0 90 4c 00   Note On(0-Off) E4
b5d811d1 90 47 00   Note On(0-Off) B3

b5d811d6 90 43 00   Note On(0-Off) G3

b5d81205 90 2b 00   Note On(0-Off) G1
b5d8126d 90 4d 6b   Note On F4 107

b5d81270 90 47 6d   Note On B3 109

b5d81272 90 43 62   Note On G3 98

b5d8127f 90 2b 67   Note On G1 103
b5d813d0 90 4d 00   Note On(0-Off) F4

b5d813d9 90 47 00   Note On(0-Off) B3

b5d81410 90 43 00   Note On(0-Off) G3
b5d8148a 90 2b 00   Note On(0-Off) G1
b5d814df 90 28 74   Note On E1 116

b5d814eb 90 47 6e   Note On B3 110

b5d814ee 90 4f 72   Note On G4 114

b5d814ef 90 4a 76   Note On D4 118
b5d81603 90 47 00   Note On(0-Off) B3
b5d81683 90 47 3f   Note On B3 63
b5d816a5 90 4a 00   Note On(0-Off) D4

b5d816bb 90 4f 00   Note On(0-Off) G4
b5d81763 90 4a 47   Note On D4 71

b5d817b5 90 47 00   Note On(0-Off) B3
b5d81829 90 4a 00   Note On(0-Off) D4
b5d818d6 90 28 00   Note On(0-Off) E1
b5d81908 90 4a 66   Note On D4 102

b5d8191f 90 2c 70   Note On Ab1 112
b5d81b00 90 4a 00   Note On(0-Off) D4

b5d81b58 90 51 5e   Note On A4 94

b5d81b59 90 4a 47   Note On D4 71
b5d81c02 90 51 00   Note On(0-Off) A4

b5d81c0a 90 4a 00   Note On(0-Off) D4
b5d81c33 90 4a 45   Note On D4 69

b5d81c35 90 53 6b   Note On B4 107
b5d81d01 90 4a 00   Note On(0-Off) D4

b5d81d08 90 53 00   Note On(0-Off) B4
b5d81dc2 90 4c 70   Note On E4 112

b5d81dc9 90 54 72   Note On C5 114

b5d81dca 90 56 7d   Note On D5 125
b5d81eea 90 56 00   Note On(0-Off) D5

b5d81f11 90 2d 72   Note On A1 114

b5d81f1b 90 2c 00   Note On(0-Off) Ab1
b5d82065 90 4c 00   Note On(0-Off) E4
b5d82089 90 54 00   Note On(0-Off) C5
b5d82136 90 54 60   Note On C5 96
b5d821fa 90 53 52   Note On B4 82

b5d8221a 90 54 00   Note On(0-Off) C5
b5d822cc 90 51 5b   Note On A4 91
b5d82303 90 53 00   Note On(0-Off) B4
b5d823c7 90 4f 5f   Note On G4 95
b5d823da 90 51 00   Note On(0-Off) A4
b5d8246e 90 4d 69   Note On F4 105

b5d82496 90 4f 00   Note On(0-Off) G4
b5d82538 90 4d 00   Note On(0-Off) F4
b5d8256f 90 4a 6b   Note On D4 107

b5d82572 90 4c 66   Note On E4 102
b5d82633 90 4a 00   Note On(0-Off) D4

b5d82656 90 4a 74   Note On D4 116

b5d82671 90 4c 00   Note On(0-Off) E4
b5d82703 90 48 52   Note On C4 82

b5d82752 90 4a 00   Note On(0-Off) D4
b5d827e1 90 47 4d   Note On B3 77

b5d827fe 90 48 00   Note On(0-Off) C4
b5d828dc 90 26 62   Note On D1 98

b5d828e6 90 2d 00   Note On(0-Off) A1

b5d828e8 90 45 69   Note On A3 105

b5d82903 90 47 00   Note On(0-Off) B3
b5d82a5b 90 48 5b   Note On C4 91
b5d82ad9 90 45 00   Note On(0-Off) A3
b5d82b5d 90 4a 4f   Note On D4 79

b5d82b65 90 48 00   Note On(0-Off) C4
b5d82c0c 90 4a 00   Note On(0-Off) D4
b5d82d09 90 48 6b   Note On C4 107

b5d82d0c 90 4f 67   Note On G4 103

b5d82d10 90 4d 6b   Note On F4 107

b5d82d11 90 45 64   Note On A3 100
b5d82df8 90 4d 00   Note On(0-Off) F4
b5d82e32 90 4f 00   Note On(0-Off) G4
b5d82f11 90 48 00   Note On(0-Off) C4
b5d82f86 90 48 3f   Note On C4 63

b5d82f87 90 4d 62   Note On F4 98
b5d82fdd 90 4c 4d   Note On E4 77

b5d83003 90 4d 00   Note On(0-Off) F4
b5d83059 90 4c 00   Note On(0-Off) E4
b5d8315f 90 45 00   Note On(0-Off) A3

b5d83172 90 48 00   Note On(0-Off) C4
b5d83284 90 43 69   Note On G3 105

b5d83286 90 45 72   Note On A3 114
b5d8328d 90 2b 6d   Note On G1 109

b5d83293 90 43 00   Note On(0-Off) G3

b5d832ae 90 26 00   Note On(0-Off) D1
b5d834ba 90 48 40   Note On C4 64
b5d835cb 90 4a 6b   Note On D4 107
b5d835fd 90 48 00   Note On(0-Off) C4

b5d835ff 90 45 00   Note On(0-Off) A3
b5d83684 90 4a 00   Note On(0-Off) D4

b5d83689 90 2b 00   Note On(0-Off) G1
b5d83743 90 45 67   Note On A3 103

b5d83744 90 2b 6e   Note On G1 110

b5d83747 90 48 6b   Note On C4 107

b5d83748 90 4d 72   Note On F4 114
b5d838d4 90 4d 00   Note On(0-Off) F4
b5d8393b 90 48 00   Note On(0-Off) C4
b5d83965 90 45 00   Note On(0-Off) A3

b5d839a7 90 48 62   Note On C4 98

b5d839a9 90 45 1b   Note On A3 27

b5d839ab 90 4c 64   Note On E4 100
b5d839f7 90 45 00   Note On(0-Off) A3

b5d839fc 90 48 00   Note On(0-Off) C4

b5d83a0c 90 4c 00   Note On(0-Off) E4
b5d83c0a 90 48 6b   Note On C4 107

b5d83c15 90 43 5e   Note On G3 94
b5d83d43 90 24 79   Note On C1 121

b5d83d47 90 2b 00   Note On(0-Off) G1
b5d83e7b 90 4a 67   Note On D4 103
b5d83ea5 90 48 00   Note On(0-Off) C4
b5d83f07 90 43 00   Note On(0-Off) G3

b5d83f0d 90 4a 00   Note On(0-Off) D4
b5d83f68 90 4c 5e   Note On E4 94

b5d83f6a 90 43 66   Note On G3 102
b5d84141 90 24 00   Note On(0-Off) C1

b5d8419c 90 24 7e   Note On C1 126
b5d84588 90 43 00   Note On(0-Off) G3

b5d84589 90 4c 00   Note On(0-Off) E4
b5d8462d 90 43 62   Note On G3 98

b5d8462e 90 46 67   Note On Bb3 103

b5d84632 90 4c 69   Note On E4 105

b5d84633 90 2e 72   Note On Bb1 114
b5d84699 90 24 00   Note On(0-Off) C1
b5d847e6 90 43 00   Note On(0-Off) G3
b5d847f6 90 4c 00   Note On(0-Off) E4

b5d84801 90 2e 00   Note On(0-Off) Bb1

b5d8480f 90 46 00   Note On(0-Off) Bb3
b5d84875 90 46 59   Note On Bb3 89

b5d84877 90 2d 67   Note On A1 103

b5d8487c 90 43 64   Note On G3 100

b5d84880 90 4a 6b   Note On D4 107
b5d849f6 90 4a 00   Note On(0-Off) D4

b5d84a21 90 46 00   Note On(0-Off) Bb3

b5d84a42 90 43 00   Note On(0-Off) G3
b5d84ade 90 2b 67   Note On G1 103

b5d84ae8 90 4d 72   Note On F4 114

b5d84ae9 90 43 45   Note On G3 69

b5d84aea 90 46 62   Note On Bb3 98

b5d84af1 90 2d 00   Note On(0-Off) A1
b5d84c8e 90 4d 00   Note On(0-Off) F4
b5d84cb2 90 46 00   Note On(0-Off) Bb3

b5d84cc3 90 43 00   Note On(0-Off) G3
b5d84d29 90 26 72   Note On D1 114

b5d84d2d 90 2b 00   Note On(0-Off) G1

b5d84d37 90 43 5e   Note On G3 94

b5d84d38 90 4c 69   Note On E4 105

b5d84d3a 90 46 62   Note On Bb3 98
b5d84e69 90 46 00   Note On(0-Off) Bb3
b5d84efc 90 43 00   Note On(0-Off) G3
b5d84f10 90 4c 00   Note On(0-Off) E4
b5d84f9b 90 26 00   Note On(0-Off) D1

b5d84f9d 90 29 72   Note On F1 114

b5d84fa3 90 41 6e   Note On F3 110

b5d84fa4 90 45 6b   Note On A3 107
b5d85286 90 29 00   Note On(0-Off) F1

b5d85293 90 41 00   Note On(0-Off) F3

b5d85295 90 45 00   Note On(0-Off) A3
b5d852fd 90 29 6b   Note On F1 107
b5d8530f 90 45 6b   Note On A3 107

b5d85311 90 41 67   Note On F3 103
b5d854c2 90 45 00   Note On(0-Off) A3

b5d854d7 90 41 00   Note On(0-Off) F3
b5d8554d 90 45 5b   Note On A3 91

b5d8554f 90 41 59   Note On F3 89

b5d85555 90 47 79   Note On B3 121
b5d85584 90 45 00   Note On(0-Off) A3
b5d85645 90 47 00   Note On(0-Off) B3

b5d85646 90 45 5f   Note On A3 95

b5d85651 90 48 5e   Note On C4 94
b5d856b9 90 41 00   Note On(0-Off) F3

b5d856de 90 45 00   Note On(0-Off) A3
b5d85714 90 48 00   Note On(0-Off) C4
b5d857a2 90 29 00   Note On(0-Off) F1

b5d857a9 90 45 66   Note On A3 102

b5d857ab 90 42 62   Note On F#3 98

b5d857b0 90 4a 6e   Note On D4 110

b5d857ba 90 2a 64   Note On F#1 100

b5d857be 90 48 64   Note On C4 100
b5d859e8 90 42 00   Note On(0-Off) F#3

b5d859ed 90 4a 00   Note On(0-Off) D4

b5d859ef 90 48 00   Note On(0-Off) C4

b5d859f3 90 45 00   Note On(0-Off) A3
b5d85a59 90 48 6b   Note On C4 107

b5d85a5f 90 45 3f   Note On A3 63

b5d85a77 90 42 15   Note On F#3 21
b5d85ae0 90 45 00   Note On(0-Off) A3
b5d85c25 90 42 00   Note On(0-Off) F#3

b5d85c50 90 48 00   Note On(0-Off) C4

b5d85c6a 90 49 01   Note On C#4 1
b5d85c9b 90 4a 72   Note On D4 114

b5d85ca4 90 45 64   Note On A3 100

b5d85caa 90 42 45   Note On F#3 69
b5d85e5c 90 4a 00   Note On(0-Off) D4

b5d85e62 90 45 00   Note On(0-Off) A3
b5d85f1b 90 48 6d   Note On C4 109

b5d85f1e 90 45 64   Note On A3 100
b5d85fb6 90 42 00   Note On(0-Off) F#3
b5d8600c 90 45 00   Note On(0-Off) A3
b5d860f4 90 48 00   Note On(0-Off) C4

b5d86132 90 2a 00   Note On(0-Off) F#1
b5d86143 90 28 67   Note On E1 103

b5d86144 90 43 42   Note On G3 66

b5d8614e 90 4a 64   Note On D4 100

b5d86156 90 47 70   Note On B3 112

b5d86158 90 49 00   Note On(0-Off) C#4
b5d8640b 90 4a 00   Note On(0-Off) D4

b5d8640d 90 47 00   Note On(0-Off) B3

b5d8640e 90 43 00   Note On(0-Off) G3
b5d86479 90 47 67   Note On B3 103

b5d8647c 90 4c 6e   Note On E4 110

b5d8647e 90 43 3a   Note On G3 58
b5d8667a 90 43 00   Note On(0-Off) G3

b5d8667b 90 4c 00   Note On(0-Off) E4

b5d8667f 90 47 00   Note On(0-Off) B3
b5d866d4 90 43 4b   Note On G3 75

b5d866d5 90 47 67   Note On B3 103

b5d866da 90 4a 6b   Note On D4 107
b5d8674f 90 47 00   Note On(0-Off) B3
b5d867bf 90 43 00   Note On(0-Off) G3

b5d867d7 90 4a 00   Note On(0-Off) D4

b5d867e3 90 47 4f   Note On B3 79

b5d867e4 90 4c 67   Note On E4 103

b5d867f1 90 43 28   Note On G3 40
b5d86897 90 43 00   Note On(0-Off) G3

b5d868a6 90 4c 00   Note On(0-Off) E4

b5d868ac 90 47 00   Note On(0-Off) B3
b5d86955 90 4c 6b   Note On E4 107

b5d86956 90 45 69   Note On A3 105

b5d86957 90 48 6b   Note On C4 107

b5d86977 90 2d 6d   Note On A1 109
b5d8698f 90 28 00   Note On(0-Off) E1
b5d86bbc 90 4c 00   Note On(0-Off) E4

b5d86bca 90 45 00   Note On(0-Off) A3

b5d86be4 90 48 00   Note On(0-Off) C4
b5d86c6f 90 48 64   Note On C4 100

b5d86c71 90 4c 62   Note On E4 98

b5d86c74 90 45 64   Note On A3 100
b5d86dee 90 48 00   Note On(0-Off) C4

b5d86df9 90 45 00   Note On(0-Off) A3

b5d86dfe 90 4c 00   Note On(0-Off) E4
b5d86e9d 90 4d 6b   Note On F4 107

b5d86e9f 90 4c 59   Note On E4 89
b5d86ead 90 45 14   Note On A3 20
b5d86f6d 90 4d 00   Note On(0-Off) F4

b5d86f73 90 4c 00   Note On(0-Off) E4

b5d86f77 90 45 00   Note On(0-Off) A3
b5d8700b 90 45 38   Note On A3 56

b5d8700b 90 4d 4d   Note On F4 77

b5d8700b 90 4a 70   Note On D4 112
b5d87073 90 4a 00   Note On(0-Off) D4

b5d87073 90 4d 00   Note On(0-Off) F4

b5d87074 90 45 00   Note On(0-Off) A3
b5d87131 90 4a 64   Note On D4 100

b5d8713a 90 45 67   Note On A3 103

b5d8713a 90 4d 6e   Note On F4 110

b5d8713a 90 4f 6b   Note On G4 107

b5d871d0 90 4f 00   Note On(0-Off) G4
b5d8725a 90 26 67   Note On D1 103

b5d87266 90 2d 00   Note On(0-Off) A1
b5d8745b 90 4d 00   Note On(0-Off) F4

b5d8745b 90 4a 00   Note On(0-Off) D4

b5d8745b 90 45 00   Note On(0-Off) A3
b5d87558 90 45 64   Note On A3 100

b5d87558 90 4d 6e   Note On F4 110

b5d87558 90 4a 6e   Note On D4 110
b5d876eb 90 4a 00   Note On(0-Off) D4

b5d876fa 90 45 00   Note On(0-Off) A3

b5d87705 90 4d 00   Note On(0-Off) F4
b5d8776d 90 48 62   Note On C4 98

b5d87771 90 45 62   Note On A3 98

b5d87778 90 4c 66   Note On E4 102
b5d87862 90 48 00   Note On(0-Off) C4
b5d87895 90 48 1a   Note On C4 26

b5d87898 90 4a 70   Note On D4 112

b5d8789d 90 4c 00   Note On(0-Off) E4

b5d878f4 90 48 00   Note On(0-Off) C4
b5d8796e 90 45 00   Note On(0-Off) A3

b5d87972 90 4a 00   Note On(0-Off) D4
b5d879f6 90 26 00   Note On(0-Off) D1

b5d879f7 90 2b 67   Note On G1 103

b5d87a0a 90 43 66   Note On G3 102

b5d87a0b 90 47 6b   Note On B3 107

b5d87a0f 90 4a 6b   Note On D4 107
b5d87cfc 90 43 00   Note On(0-Off) G3
b5d87d03 90 47 00   Note On(0-Off) B3

b5d87d07 90 4a 00   Note On(0-Off) D4
b5d87d9a 90 4a 67   Note On D4 103

b5d87d9d 90 43 4b   Note On G3 75

b5d87da0 90 47 67   Note On B3 103
b5d87f64 90 47 00   Note On(0-Off) B3

b5d87f6a 90 4a 00   Note On(0-Off) D4

b5d87f6c 90 43 00   Note On(0-Off) G3
b5d87fcd 90 48 5f   Note On C4 95

b5d87fcf 90 43 4b   Note On G3 75
b5d88094 90 43 00   Note On(0-Off) G3

b5d8809a 90 48 00   Note On(0-Off) C4

b5d880f1 90 43 5e   Note On G3 94
b5d880f9 90 47 6b   Note On B3 107
b5d881f3 90 47 00   Note On(0-Off) B3
b5d8822c 90 43 00   Note On(0-Off) G3
b5d882f9 90 2b 00   Note On(0-Off) G1

b5d88335 90 41 59   Note On F3 89

b5d88339 90 4a 69   Note On D4 105

b5d8833c 90 45 67   Note On A3 103

b5d8834a 90 29 6b   Note On F1 107
b5d88643 90 41 00   Note On(0-Off) F3

b5d88659 90 4a 00   Note On(0-Off) D4

b5d88666 90 45 00   Note On(0-Off) A3
b5d886c4 90 45 4f   Note On A3 79

b5d886c5 90 41 4f   Note On F3 79

b5d886c6 90 48 52   Note On C4 82
b5d88b62 90 48 00   Note On(0-Off) C4

b5d88b63 90 45 00   Note On(0-Off) A3

b5d88b65 90 41 00   Note On(0-Off) F3

b5d88b90 90 29 00   Note On(0-Off) F1
b5d88c73 90 2c 67   Note On Ab1 103
b5d88de2 90 2c 00   Note On(0-Off) Ab1

b5d88df1 90 44 6b   Note On Ab3 107
b5d88df9 90 41 5b   Note On F3 91
b5d88e67 90 44 00   Note On(0-Off) Ab3

b5d88e73 90 41 00   Note On(0-Off) F3
b5d88ed3 90 44 67   Note On Ab3 103

b5d88ede 90 41 67   Note On F3 103

b5d88eec 90 4a 72   Note On D4 114
b5d88f2b 90 2b 47   Note On G1 71

b5d88f6d 90 2b 00   Note On(0-Off) G1
b5d88f9f 90 4a 00   Note On(0-Off) D4

b5d88fa3 90 44 00   Note On(0-Off) Ab3

b5d88fa5 90 41 00   Note On(0-Off) F3
b5d8914d 90 2b 76   Note On G1 118

b5d8914f 90 4c 70   Note On E4 112

b5d8915a 90 43 69   Note On G3 105
b5d8923d 90 4c 00   Note On(0-Off) E4
b5d892b1 90 29 67   Note On F1 103

b5d892b5 90 2b 00   Note On(0-Off) G1
b5d892ba 90 48 6d   Note On C4 109
b5d89341 90 48 00   Note On(0-Off) C4

b5d89355 90 43 00   Note On(0-Off) G3
b5d893a9 90 29 00   Note On(0-Off) F1
b5d894ec 90 24 7e   Note On C1 126

b5d89500 90 48 70   Note On C4 112

b5d89502 90 43 64   Note On G3 100

b5d89509 90 4c 6b   Note On E4 107
b5d8958f 90 24 00   Note On(0-Off) C1

b5d895a9 90 48 00   Note On(0-Off) C4

b5d895b4 90 43 00   Note On(0-Off) G3

b5d895c5 90 4c 00   Note On(0-Off) E4
b5d89839 90 28 79   Note On E1 121
b5d8993a 90 28 00   Note On(0-Off) E1
b5d89a95 90 2b 74   Note On G1 116
b5d89b95 90 2b 00   Note On(0-Off) G1
b5d89c09 90 28 67   Note On E1 103
b5d89ce9 90 26 5f   Note On D1 95

b5d89ceb 90 28 00   Note On(0-Off) E1
b5d89e40 90 26 00   Note On(0-Off) D1

b5d89e77 90 24 7e   Note On C1 126
b5d89f5d 90 24 00   Note On(0-Off) C1
b5d90a14 90 2a 67   Note On F#1 103

b5d90a2c 90 31 4f   Note On C#2 79

b5d90a2e 90 35 6b   Note On F2 107

b5d90a30 90 3a 5b   Note On Bb2 91
b5d910f6 90 31 00   Note On(0-Off) C#2

b5d9111f 90 35 00   Note On(0-Off) F2

b5d9112a 90 3a 00   Note On(0-Off) Bb2
b5d91206 90 2a 00   Note On(0-Off) F#1
b5d913b6 90 33 4f   Note On Eb2 79

b5d913b6 90 38 67   Note On Ab2 103

b5d913b6 90 2c 64   Note On Ab1 100
b5d91747 90 38 00   Note On(0-Off) Ab2
b5d91807 90 33 00   Note On(0-Off) Eb2
b5d9194d 90 2c 00   Note On(0-Off) Ab1
b5d91ad9 90 2a 66   Note On F#1 102

b5d91ae0 90 3a 67   Note On Bb2 103

b5d91ae5 90 31 42   Note On C#2 66

b5d91ae7 90 35 6b   Note On F2 107
b5d92159 90 31 00   Note On(0-Off) C#2
b5d92191 90 3a 00   Note On(0-Off) Bb2

b5d92197 90 35 00   Note On(0-Off) F2
b5d9220e 90 2a 00   Note On(0-Off) F#1
b5d923c2 90 33 42   Note On Eb2 66

b5d923d4 90 3c 7f   Note On C3 127

b5d923da 90 38 5b   Note On Ab2 91

b5d923dc 90 2c 62   Note On Ab1 98
b5d927a6 90 38 00   Note On(0-Off) Ab2
b5d927af 90 3c 00   Note On(0-Off) C3

b5d927ca 90 33 00   Note On(0-Off) Eb2

b5d927d0 90 2c 00   Note On(0-Off) Ab1
b5d92a85 90 2a 66   Note On F#1 102

b5d92a8f 90 31 3f   Note On C#2 63

b5d92a91 90 3a 4f   Note On Bb2 79

b5d92a98 90 35 67   Note On F2 103
b5d92db0 90 2a 00   Note On(0-Off) F#1

b5d92dce 90 31 00   Note On(0-Off) C#2

b5d92e0a 90 35 00   Note On(0-Off) F2

b5d92e0b 90 3a 00   Note On(0-Off) Bb2
b5d93984 90 33 3d   Note On Eb2 61

b5d93988 90 2c 69   Note On Ab1 105

b5d9398a 90 38 5b   Note On Ab2 91

b5d939bb 90 3c 7f   Note On C3 127
b5d93e51 90 38 00   Note On(0-Off) Ab2

b5d93e55 90 3c 00   Note On(0-Off) C3
b5d93eaf 90 33 00   Note On(0-Off) Eb2

b5d93eb7 90 2c 00   Note On(0-Off) Ab1
b5d941a7 90 2a 67   Note On F#1 103

b5d941b2 90 3a 64   Note On Bb2 100

b5d941b4 90 31 42   Note On C#2 66

b5d941b7 90 35 6b   Note On F2 107
b5d948b5 90 31 00   Note On(0-Off) C#2

b5d948ba 90 3a 00   Note On(0-Off) Bb2

b5d948c2 90 35 00   Note On(0-Off) F2
b5d9490a 90 2a 00   Note On(0-Off) F#1
b5d94ab2 90 2c 64   Note On Ab1 100

b5d94aba 90 33 49   Note On Eb2 73

b5d94aba 90 3c 7f   Note On C3 127

b5d94aba 90 38 64   Note On Ab2 100
b5d95063 90 38 00   Note On(0-Off) Ab2
b5d950bb 90 3c 00   Note On(0-Off) C3

b5d950f2 90 2c 00   Note On(0-Off) Ab1
b5d9515a 90 33 00   Note On(0-Off) Eb2
b5d9535b 90 2a 6e   Note On F#1 110

b5d9535c 90 3a 60   Note On Bb2 96

b5d95365 90 31 34   Note On C#2 52

b5d95366 90 35 67   Note On F2 103
b5d95b04 90 3a 00   Note On(0-Off) Bb2

b5d95b04 90 31 00   Note On(0-Off) C#2

b5d95b04 90 35 00   Note On(0-Off) F2

b5d95b04 90 2a 00   Note On(0-Off) F#1
b5d95cd1 90 2c 64   Note On Ab1 100

b5d95cd1 90 33 5b   Note On Eb2 91

b5d95cd2 90 38 66   Note On Ab2 102

b5d95cd3 90 3c 7f   Note On C3 127
b5d96341 90 3c 00   Note On(0-Off) C3
b5d96361 90 38 00   Note On(0-Off) Ab2
b5d963fd 90 2c 00   Note On(0-Off) Ab1

b5d96410 90 33 00   Note On(0-Off) Eb2
b5d965e9 90 3a 60   Note On Bb2 96

b5d965f2 90 31 3d   Note On C#2 61

b5d965f3 90 35 6b   Note On F2 107

b5d965f5 90 2a 70   Note On F#1 112
b5d96cb2 90 3a 00   Note On(0-Off) Bb2

b5d96cc3 90 35 00   Note On(0-Off) F2

b5d96cce 90 31 00   Note On(0-Off) C#2
b5d96df1 90 2a 00   Note On(0-Off) F#1
b5d96e9c 90 2c 66   Note On Ab1 102

b5d96e9f 90 38 67   Note On Ab2 103

b5d96ea1 90 33 5b   Note On Eb2 91

b5d96ea6 90 3c 7f   Note On C3 127
b5d9734c 90 38 00   Note On(0-Off) Ab2
b5d973c4 90 3c 00   Note On(0-Off) C3

b5d973c8 90 2c 00   Note On(0-Off) Ab1

b5d973de 90 33 00   Note On(0-Off) Eb2
b5d977b6 90 2a 6d   Note On F#1 109

b5d977b6 90 3a 4f   Note On Bb2 79

b5d977b6 90 31 36   Note On C#2 54

b5d977b6 90 35 66   Note On F2 102
b5d97ae5 90 31 00   Note On(0-Off) C#2

b5d97af0 90 3a 00   Note On(0-Off) Bb2

b5d97b18 90 2a 00   Note On(0-Off) F#1
b5d97b4c 90 35 00   Note On(0-Off) F2
b5d97e6f 90 36 69   Note On F#2 105
b5d97f81 90 38 62   Note On Ab2 98

b5d97f93 90 36 00   Note On(0-Off) F#2
b5d980a5 90 38 00   Note On(0-Off) Ab2
b5d98338 90 3d 74   Note On C#3 116
b5d98434 90 42 60   Note On F#3 96
b5d98459 90 3d 00   Note On(0-Off) C#3
b5d9854d 90 42 00   Note On(0-Off) F#3
b5d986c2 90 3d 67   Note On C#3 103
b5d98798 90 42 5b   Note On F#3 91
b5d987bd 90 3d 00   Note On(0-Off) C#3
b5d98894 90 44 70   Note On Ab3 112

b5d988b7 90 42 00   Note On(0-Off) F#3
b5d98990 90 44 00   Note On(0-Off) Ab3
b5d989c5 90 46 67   Note On Bb3 103
b5d98a98 90 46 00   Note On(0-Off) Bb3
b5d98f43 90 46 60   Note On Bb3 96
b5d9908a 90 46 00   Note On(0-Off) Bb3
b5d99602 90 3a 62   Note On Bb2 98

b5d99602 90 2a 5b   Note On F#1 91

b5d99602 90 31 31   Note On C#2 49

b5d99611 90 35 64   Note On F2 100
b5d99798 90 35 00   Note On(0-Off) F2

b5d9979b 90 3a 00   Note On(0-Off) Bb2

b5d9979b 90 2a 00   Note On(0-Off) F#1

b5d9979b 90 31 00   Note On(0-Off) C#2
b5d99914 90 3a 64   Note On Bb2 100

b5d99915 90 2a 64   Note On F#1 100

b5d9991a 90 31 3f   Note On C#2 63

b5d99923 90 35 6b   Note On F2 107
b5d99b20 90 31 00   Note On(0-Off) C#2

b5d99b33 90 35 00   Note On(0-Off) F2

b5d99b3f 90 3a 00   Note On(0-Off) Bb2
b5d99b96 90 2a 00   Note On(0-Off) F#1
b5d99d51 90 33 59   Note On Eb2 89

b5d99d57 90 3c 7f   Note On C3 127

b5d99d5b 90 38 5b   Note On Ab2 91

b5d99d5d 90 2c 60   Note On Ab1 96
b5d99f5c 90 3c 00   Note On(0-Off) C3

b5d99f7a 90 33 00   Note On(0-Off) Eb2
b5d99ffb 90 38 00   Note On(0-Off) Ab2
b5d9a01a 90 2c 00   Note On(0-Off) Ab1
b5d9a300 90 35 59   Note On F2 89

b5d9a304 90 29 4b   Note On F1 75

b5d9a305 90 38 59   Note On Ab2 89

b5d9a324 90 3c 7f   Note On C3 127
b5d9a4d6 90 3c 00   Note On(0-Off) C3

b5d9a4e6 90 35 00   Note On(0-Off) F2

b5d9a4f3 90 29 00   Note On(0-Off) F1

b5d9a4f8 90 38 00   Note On(0-Off) Ab2
b5d9a75a 90 3a 4f   Note On Bb2 79

b5d9a75f 90 35 3d   Note On F2 61

b5d9a760 90 3d 60   Note On C#3 96

b5d9a762 90 38 3e   Note On Ab2 62

b5d9a763 90 2e 64   Note On Bb1 100
b5d9aa33 90 2e 00   Note On(0-Off) Bb1
b5d9aa54 90 35 00   Note On(0-Off) F2

b5d9aa9b 90 3d 00   Note On(0-Off) C#3

b5d9aab3 90 3a 00   Note On(0-Off) Bb2
b5d9aabb 90 38 00   Note On(0-Off) Ab2
b5d9add0 90 3a 56   Note On Bb2 86

b5d9add3 90 2a 5e   Note On F#1 94
b5d9addd 90 31 38   Note On C#2 56

b5d9ade2 90 35 67   Note On F2 103
b5d9b04c 90 31 00   Note On(0-Off) C#2

b5d9b052 90 3a 00   Note On(0-Off) Bb2

b5d9b057 90 35 00   Note On(0-Off) F2

b5d9b093 90 2a 00   Note On(0-Off) F#1
b5d9b1e8 90 2c 62   Note On Ab1 98

b5d9b1ee 90 33 56   Note On Eb2 86

b5d9b1f2 90 3c 7f   Note On C3 127

b5d9b1fa 90 38 64   Note On Ab2 100
b5d9b487 90 3c 00   Note On(0-Off) C3

b5d9b494 90 33 00   Note On(0-Off) Eb2
b5d9b4e6 90 2c 00   Note On(0-Off) Ab1
b5d9b518 90 38 00   Note On(0-Off) Ab2
b5d9b783 90 38 64   Note On Ab2 100

b5d9b787 90 29 66   Note On F1 102

b5d9b788 90 35 49   Note On F2 73
b5d9b815 90 35 00   Note On(0-Off) F2

b5d9b820 90 38 00   Note On(0-Off) Ab2
b5d9b849 90 29 00   Note On(0-Off) F1
b5d9b9d4 90 2e 67   Note On Bb1 103

b5d9b9dd 90 3d 67   Note On C#3 103

b5d9b9e2 90 3a 62   Note On Bb2 98

b5d9b9e5 90 35 5b   Note On F2 91
b5d9bb59 90 2e 00   Note On(0-Off) Bb1
b5d9bb7b 90 35 00   Note On(0-Off) F2

b5d9bb82 90 3d 00   Note On(0-Off) C#3

b5d9bb90 90 3a 00   Note On(0-Off) Bb2
b5d9cb96 90 2a 3e   Note On F#1 62
b5d9cc08 90 2a 00   Note On(0-Off) F#1
b5d9d2af 90 2a 56   Note On F#1 86

b5d9d2af 90 35 64   Note On F2 100

b5d9d2b0 90 3a 5e   Note On Bb2 94

b5d9d2b0 90 31 3d   Note On C#2 61
b5d9d4b5 90 31 00   Note On(0-Off) C#2

b5d9d4b5 90 3a 00   Note On(0-Off) Bb2

b5d9d4ba 90 35 00   Note On(0-Off) F2

b5d9d4ba 90 2a 00   Note On(0-Off) F#1
b5d9d697 90 2c 64   Note On Ab1 100

b5d9d697 90 33 56   Note On Eb2 86

b5d9d697 90 38 59   Note On Ab2 89
b5d9d918 90 33 00   Note On(0-Off) Eb2
b5d9d96f 90 2c 00   Note On(0-Off) Ab1

b5d9d971 90 38 00   Note On(0-Off) Ab2
b5d9dc95 90 29 56   Note On F1 86

b5d9dc9f 90 35 4d   Note On F2 77

b5d9dca3 90 38 59   Note On Ab2 89
b5d9dcc1 90 3c 7f   Note On C3 127
b5d9de5b 90 3c 00   Note On(0-Off) C3

b5d9de70 90 29 00   Note On(0-Off) F1

b5d9de71 90 35 00   Note On(0-Off) F2

b5d9de73 90 38 00   Note On(0-Off) Ab2
b5d9e074 90 3d 59   Note On C#3 89

b5d9e075 90 38 47   Note On Ab2 71

b5d9e07e 90 35 3a   Note On F2 58

b5d9e07f 90 3a 44   Note On Bb2 68

b5d9e081 90 2e 64   Note On Bb1 100
b5d9e331 90 2e 00   Note On(0-Off) Bb1

b5d9e334 90 35 00   Note On(0-Off) F2

b5d9e374 90 3d 00   Note On(0-Off) C#3
b5d9e387 90 3a 00   Note On(0-Off) Bb2

b5d9e38f 90 38 00   Note On(0-Off) Ab2
b5d9e66c 90 2a 59   Note On F#1 89

b5d9e66e 90 3a 67   Note On Bb2 103

b5d9e671 90 31 3e   Note On C#2 62

b5d9e67d 90 35 67   Note On F2 103
b5d9e84d 90 35 00   Note On(0-Off) F2

b5d9e84e 90 31 00   Note On(0-Off) C#2

b5d9e854 90 3a 00   Note On(0-Off) Bb2
b5d9e8a0 90 2a 00   Note On(0-Off) F#1
b5d9ea0c 90 2c 5e   Note On Ab1 94

b5d9ea10 90 33 49   Note On Eb2 73

b5d9ea1d 90 38 52   Note On Ab2 82
b5d9ecae 90 33 00   Note On(0-Off) Eb2
b5d9ed20 90 2c 00   Note On(0-Off) Ab1

b5d9ed25 90 38 00   Note On(0-Off) Ab2
b5d9efd7 90 29 59   Note On F1 89

b5d9efe0 90 35 4f   Note On F2 79

b5d9efe4 90 38 4d   Note On Ab2 77
b5d9f085 90 35 00   Note On(0-Off) F2

b5d9f087 90 29 00   Note On(0-Off) F1

b5d9f090 90 38 00   Note On(0-Off) Ab2
b5d9f225 90 2e 62   Note On Bb1 98

b5d9f22b 90 35 40   Note On F2 64

b5d9f22c 90 3d 62   Note On C#3 98

b5d9f22d 90 3a 62   Note On Bb2 98
b5d9f577 90 2e 00   Note On(0-Off) Bb1
b5d9f656 90 35 00   Note On(0-Off) F2
b5d9f6a5 90 3a 00   Note On(0-Off) Bb2
b5d9f725 90 3d 00   Note On(0-Off) C#3
b5d9fa85 90 31 3e   Note On C#2 62

b5d9fa86 90 3a 3e   Note On Bb2 62

b5d9fa90 90 2a 5e   Note On F#1 94

b5d9fa91 90 35 67   Note On F2 103
b5d9fffd 90 3a 00   Note On(0-Off) Bb2

b5da0016 90 35 00   Note On(0-Off) F2
b5da003a 90 31 00   Note On(0-Off) C#2

b5da0043 90 2a 00   Note On(0-Off) F#1
b5da00cb 90 2a 60   Note On F#1 96

b5da00cc 90 3a 52   Note On Bb2 82

b5da00d0 90 31 2f   Note On C#2 47

b5da00db 90 35 62   Note On F2 98
b5da067b 90 3a 00   Note On(0-Off) Bb2

b5da06ae 90 35 00   Note On(0-Off) F2

b5da06af 90 31 00   Note On(0-Off) C#2

b5da06e5 90 2a 00   Note On(0-Off) F#1
b5da094c 90 33 45   Note On Eb2 69

b5da0952 90 38 62   Note On Ab2 98

b5da096c 90 2c 66   Note On Ab1 102
b5da0f2e 90 38 00   Note On(0-Off) Ab2

b5da0f66 90 2c 00   Note On(0-Off) Ab1

b5da0f6a 90 33 00   Note On(0-Off) Eb2
b5daefc6 90 2a 6d   Note On F#1 109

b5daefc8 90 31 67   Note On C#2 103

b5daefca 90 3a 74   Note On Bb2 116

b5daefcc 90 36 74   Note On F#2 116
b5daf143 90 31 00   Note On(0-Off) C#2

b5daf15c 90 36 00   Note On(0-Off) F#2

b5daf168 90 3a 00   Note On(0-Off) Bb2
b5daf1ea 90 2a 00   Note On(0-Off) F#1
b5daf337 90 33 6d   Note On Eb2 109

b5daf33e 90 38 6b   Note On Ab2 107

b5daf33f 90 3c 7f   Note On C3 127

b5daf341 90 2c 72   Note On Ab1 114
b5daf51c 90 33 00   Note On(0-Off) Eb2

b5daf56e 90 3c 00   Note On(0-Off) C3
b5daf58f 90 38 00   Note On(0-Off) Ab2

b5daf5a0 90 2c 00   Note On(0-Off) Ab1
b5daf8d7 90 29 6e   Note On F1 110

b5daf8da 90 35 62   Note On F2 98

b5daf8da 90 38 6b   Note On Ab2 107
b5daf9c7 90 35 00   Note On(0-Off) F2

b5daf9cc 90 38 00   Note On(0-Off) Ab2
b5dafa0f 90 29 00   Note On(0-Off) F1
b5dafc60 90 3d 69   Note On C#3 105

b5dafc64 90 35 4f   Note On F2 79

b5dafc67 90 3a 60   Note On Bb2 96

b5dafc6f 90 2e 74   Note On Bb1 116
b5daff35 90 2e 00   Note On(0-Off) Bb1

b5daff53 90 3a 00   Note On(0-Off) Bb2
b5daff7e 90 3d 00   Note On(0-Off) C#3

b5daffb0 90 35 00   Note On(0-Off) F2
b5db01f8 90 2a 67   Note On F#1 103

b5db01fa 90 3a 6b   Note On Bb2 107

b5db01ff 90 31 64   Note On C#2 100

b5db0201 90 36 6d   Note On F#2 109
b5db031d 90 31 00   Note On(0-Off) C#2

b5db033e 90 36 00   Note On(0-Off) F#2

b5db0347 90 3a 00   Note On(0-Off) Bb2
b5db036f 90 2a 00   Note On(0-Off) F#1
b5db053b 90 2c 74   Note On Ab1 116

b5db053e 90 33 67   Note On Eb2 103

b5db053f 90 3c 7f   Note On C3 127

b5db0540 90 38 6d   Note On Ab2 109
b5db063e 90 33 00   Note On(0-Off) Eb2

b5db067d 90 38 00   Note On(0-Off) Ab2

b5db067f 90 3c 00   Note On(0-Off) C3
b5db0707 90 2c 00   Note On(0-Off) Ab1
b5db0a73 90 29 70   Note On F1 112

b5db0a83 90 38 76   Note On Ab2 118

b5db0a87 90 35 67   Note On F2 103
b5db0aec 90 38 00   Note On(0-Off) Ab2

b5db0aef 90 35 00   Note On(0-Off) F2
b5db0b11 90 29 00   Note On(0-Off) F1
b5db0c9b 90 2e 6d   Note On Bb1 109

b5db0c9d 90 3a 6b   Note On Bb2 107
b5db0ca4 90 3d 69   Note On C#3 105

b5db0ca5 90 35 5e   Note On F2 94
b5db115e 90 2e 00   Note On(0-Off) Bb1

b5db116b 90 3d 00   Note On(0-Off) C#3

b5db116e 90 35 00   Note On(0-Off) F2

b5db1180 90 3a 00   Note On(0-Off) Bb2
b5db13dc 90 2a 72   Note On F#1 114

b5db13ec 90 31 6e   Note On C#2 110
b5db1522 90 36 47   Note On F#2 71
b5db1557 90 31 00   Note On(0-Off) C#2
b5db1613 90 3a 67   Note On Bb2 103

b5db1618 90 36 00   Note On(0-Off) F#2
b5db1689 90 2a 00   Note On(0-Off) F#1

b5db16c5 90 3a 00   Note On(0-Off) Bb2
b5db175f 90 2c 76   Note On Ab1 118

b5db1765 90 38 74   Note On Ab2 116
b5db194b 90 38 00   Note On(0-Off) Ab2

b5db1991 90 3a 45   Note On Bb2 69
b5db1a5a 90 3a 00   Note On(0-Off) Bb2
b5db1a8e 90 2c 00   Note On(0-Off) Ab1

b5db1aca 90 3b 6d   Note On B2 109
b5db1adf 90 3b 00   Note On(0-Off) B2
b5db1cef 90 38 66   Note On Ab2 102

b5db1cf0 90 3c 7f   Note On C3 127

b5db1cf2 90 35 62   Note On F2 98

b5db1cf3 90 29 66   Note On F1 102
b5db1db1 90 35 00   Note On(0-Off) F2

b5db1df8 90 35 3f   Note On F2 63

b5db1dfa 90 3c 00   Note On(0-Off) C3

b5db1dfc 90 38 00   Note On(0-Off) Ab2
b5db1ec4 90 29 00   Note On(0-Off) F1
b5db1f19 90 38 47   Note On Ab2 71
b5db1fa5 90 35 00   Note On(0-Off) F2

b5db1fbe 90 38 00   Note On(0-Off) Ab2
b5db2075 90 2e 6b   Note On Bb1 107

b5db207c 90 35 66   Note On F2 102

b5db2081 90 3a 74   Note On Bb2 116

b5db2088 90 3d 6e   Note On C#3 110
b5db2227 90 35 00   Note On(0-Off) F2
b5db2295 90 3a 00   Note On(0-Off) Bb2

b5db22ba 90 35 56   Note On F2 86
b5db22d1 90 3d 00   Note On(0-Off) C#3
b5db2358 90 2e 00   Note On(0-Off) Bb1
b5db23cd 90 3a 72   Note On Bb2 114
b5db24db 90 3d 6b   Note On C#3 107

b5db2503 90 3e 4b   Note On D3 75

b5db250f 90 35 00   Note On(0-Off) F2

b5db251b 90 3a 00   Note On(0-Off) Bb2
b5db253d 90 3d 00   Note On(0-Off) C#3

b5db253f 90 3e 00   Note On(0-Off) D3
b5db260a 90 2a 5f   Note On F#1 95

b5db2611 90 3a 72   Note On Bb2 114

b5db261b 90 3d 69   Note On C#3 105

b5db261f 90 36 6b   Note On F#2 107
b5db2681 90 3d 00   Note On(0-Off) C#3

b5db26be 90 3a 00   Note On(0-Off) Bb2
b5db26e3 90 36 00   Note On(0-Off) F#2

b5db272a 90 36 4f   Note On F#2 79
b5db2837 90 3a 5f   Note On Bb2 95

b5db285c 90 36 00   Note On(0-Off) F#2
b5db2890 90 3a 00   Note On(0-Off) Bb2

b5db28a5 90 2a 00   Note On(0-Off) F#1
b5db2959 90 3d 6e   Note On C#3 110

b5db2964 90 38 56   Note On Ab2 86

b5db2965 90 3f 64   Note On Eb3 100

b5db2969 90 2c 6e   Note On Ab1 110

b5db2974 90 3d 00   Note On(0-Off) C#3
b5db2a3e 90 38 00   Note On(0-Off) Ab2
b5db2b58 90 3f 00   Note On(0-Off) Eb3

b5db2b85 90 38 52   Note On Ab2 82
b5db2c15 90 2c 00   Note On(0-Off) Ab1
b5db2cad 90 3c 7f   Note On C3 127

b5db2cc5 90 38 00   Note On(0-Off) Ab2
b5db2d0d 90 3c 00   Note On(0-Off) C3
b5db2ec7 90 35 56   Note On F2 86

b5db2ec8 90 38 60   Note On Ab2 96

b5db2f46 90 29 67   Note On F1 103

b5db2f46 90 35 00   Note On(0-Off) F2
b5db2fad 90 38 00   Note On(0-Off) Ab2

b5db2faf 90 29 00   Note On(0-Off) F1
b5db313c 90 3d 69   Note On C#3 105

b5db313c 90 35 59   Note On F2 89

b5db313c 90 3a 67   Note On Bb2 103

b5db313c 90 2e 5f   Note On Bb1 95
b5db34bf 90 2e 00   Note On(0-Off) Bb1
b5db35fd 90 35 00   Note On(0-Off) F2
b5db3673 90 3d 00   Note On(0-Off) C#3
b5db36b1 90 3a 00   Note On(0-Off) Bb2
b5db38da 90 36 5e   Note On F#2 94

b5db38db 90 3d 6b   Note On C#3 107
b5db38de 90 3a 6b   Note On Bb2 107

b5db38ec 90 2a 66   Note On F#1 102
b5db424b 90 3d 00   Note On(0-Off) C#3

b5db424d 90 2a 00   Note On(0-Off) F#1
b5db4263 90 36 00   Note On(0-Off) F#2

b5db4274 90 3a 00   Note On(0-Off) Bb2
b5db452e 90 33 59   Note On Eb2 89

b5db4534 90 2c 59   Note On Ab1 89

b5db4535 90 38 64   Note On Ab2 100
b5db4a78 90 38 00   Note On(0-Off) Ab2

b5db4a7f 90 33 00   Note On(0-Off) Eb2
b5db4ae9 90 2c 00   Note On(0-Off) Ab1
b5db4d2d 90 2a 64   Note On F#1 100

b5db4d2f 90 31 5e   Note On C#2 94

b5db4d30 90 36 67   Note On F#2 103

b5db4d32 90 3a 64   Note On Bb2 100
b5db5387 90 31 00   Note On(0-Off) C#2

b5db53bb 90 36 00   Note On(0-Off) F#2
b5db53ca 90 2a 00   Note On(0-Off) F#1

b5db5414 90 3a 00   Note On(0-Off) Bb2
b5db5603 90 33 52   Note On Eb2 82

b5db560b 90 38 64   Note On Ab2 100

b5db560c 90 3c 7f   Note On C3 127

b5db560f 90 2c 64   Note On Ab1 100
b5db5ced 90 2c 00   Note On(0-Off) Ab1

b5db5d10 90 3c 00   Note On(0-Off) C3
b5db5d18 90 38 00   Note On(0-Off) Ab2

b5db5d1e 90 33 00   Note On(0-Off) Eb2
b5db5fb9 90 3a 66   Note On Bb2 102

b5db5fba 90 36 69   Note On F#2 105

b5db5fbb 90 31 3f   Note On C#2 63

b5db5fbe 90 2a 6b   Note On F#1 107
b5db6745 90 36 00   Note On(0-Off) F#2

b5db6746 90 31 00   Note On(0-Off) C#2

b5db6767 90 2a 00   Note On(0-Off) F#1
b5db6783 90 3a 00   Note On(0-Off) Bb2
b5db68cc 90 2c 62   Note On Ab1 98

b5db68db 90 33 3d   Note On Eb2 61

b5db68dc 90 3c 7f   Note On C3 127

b5db68de 90 38 64   Note On Ab2 100
b5db6fda 90 3c 00   Note On(0-Off) C3
b5db7024 90 38 00   Note On(0-Off) Ab2

b5db7031 90 33 00   Note On(0-Off) Eb2

b5db704d 90 2c 00   Note On(0-Off) Ab1
b5db721c 90 2a 60   Note On F#1 96

b5db721c 90 3a 64   Note On Bb2 100

b5db7221 90 36 64   Note On F#2 100

b5db7224 90 31 3e   Note On C#2 62
b5db793a 90 31 00   Note On(0-Off) C#2

b5db7940 90 36 00   Note On(0-Off) F#2

b5db7949 90 3a 00   Note On(0-Off) Bb2

b5db7965 90 2a 00   Note On(0-Off) F#1
b5db7b0d 90 2c 62   Note On Ab1 98

b5db7b0d 90 33 52   Note On Eb2 82

b5db7b0d 90 38 62   Note On Ab2 98

b5db7b2b 90 3c 7f   Note On C3 127
b5db8086 90 38 00   Note On(0-Off) Ab2

b5db8098 90 3c 00   Note On(0-Off) C3

b5db80b5 90 2c 00   Note On(0-Off) Ab1
b5db80e0 90 33 00   Note On(0-Off) Eb2
b5db83a1 90 3a 69   Note On Bb2 105

b5db83a3 90 31 5b   Note On C#2 91

b5db83a5 90 36 67   Note On F#2 103

b5db83b4 90 2a 6b   Note On F#1 107
b5db88cc 90 36 00   Note On(0-Off) F#2

b5db88e0 90 31 00   Note On(0-Off) C#2
b5db88eb 90 2a 00   Note On(0-Off) F#1
b5db8992 90 3a 00   Note On(0-Off) Bb2
b5db8c83 90 2c 62   Note On Ab1 98

b5db8c89 90 33 4f   Note On Eb2 79

b5db8c92 90 38 66   Note On Ab2 102

b5db8c9c 90 3c 7f   Note On C3 127
b5db90c0 90 3c 00   Note On(0-Off) C3
b5db9108 90 38 00   Note On(0-Off) Ab2

b5db9116 90 33 00   Note On(0-Off) Eb2
b5db91f3 90 2c 00   Note On(0-Off) Ab1
b5db9511 90 2a 3e   Note On F#1 62

b5db9516 90 3a 5f   Note On Bb2 95
b5db9519 90 31 33   Note On C#2 51

b5db951c 90 36 5f   Note On F#2 95
b5db9a70 90 31 00   Note On(0-Off) C#2

b5db9a92 90 36 00   Note On(0-Off) F#2
b5db9b3f 90 3a 00   Note On(0-Off) Bb2
b5db9bac 90 2a 00   Note On(0-Off) F#1
b5db9dbb 90 38 56   Note On Ab2 86
b5db9dc5 90 33 4f   Note On Eb2 79

b5db9dc7 90 30 59   Note On C2 89

b5db9dcb 90 2c 64   Note On Ab1 100
b5dba2f9 90 30 00   Note On(0-Off) C2
b5dba389 90 33 00   Note On(0-Off) Eb2

b5dba3c2 90 38 00   Note On(0-Off) Ab2
b5dba414 90 2c 00   Note On(0-Off) Ab1
b5dba697 90 3a 60   Note On Bb2 96

b5dba69f 90 31 4d   Note On C#2 77

b5dba69f 90 36 67   Note On F#2 103

b5dba69f 90 2a 60   Note On F#1 96
b5dba7e6 90 31 00   Note On(0-Off) C#2
b5dba7f6 90 3a 00   Note On(0-Off) Bb2

b5dba80f 90 36 00   Note On(0-Off) F#2
b5dba86a 90 2a 00   Note On(0-Off) F#1
b5dbaa23 90 33 45   Note On Eb2 69

b5dbaa23 90 38 60   Note On Ab2 96

b5dbaa23 90 2c 67   Note On Ab1 103
b5dbab64 90 38 00   Note On(0-Off) Ab2

b5dbab64 90 33 00   Note On(0-Off) Eb2

b5dbab64 90 2c 00   Note On(0-Off) Ab1
b5dbba3e 90 35 47   Note On F2 71

b5dbba3f 90 38 56   Note On Ab2 86

b5dbba4f 90 29 64   Note On F1 100
b5dbbc3e 90 29 00   Note On(0-Off) F1

b5dbbc50 90 35 00   Note On(0-Off) F2

b5dbbc67 90 38 00   Note On(0-Off) Ab2
b5dbbd68 90 35 13   Note On F2 19
b5dbbde6 90 35 00   Note On(0-Off) F2
b5dbbe52 90 35 4b   Note On F2 75

b5dbbe53 90 3d 67   Note On C#3 103

b5dbbe56 90 3a 64   Note On Bb2 100

b5dbbe58 90 2e 6b   Note On Bb1 107
b5dbc13d 90 3a 00   Note On(0-Off) Bb2

b5dbc142 90 35 00   Note On(0-Off) F2

b5dbc154 90 3d 00   Note On(0-Off) C#3

b5dbc163 90 2e 00   Note On(0-Off) Bb1
b5dbc439 90 3a 5f   Note On Bb2 95

b5dbc43c 90 31 47   Note On C#2 71

b5dbc43d 90 2a 5b   Note On F#1 91

b5dbc444 90 36 67   Note On F#2 103
b5dbc5d9 90 31 00   Note On(0-Off) C#2
b5dbc5f2 90 36 00   Note On(0-Off) F#2

b5dbc606 90 3a 00   Note On(0-Off) Bb2

b5dbc624 90 2a 00   Note On(0-Off) F#1
b5dbc7a0 90 2c 60   Note On Ab1 96

b5dbc7bb 90 33 56   Note On Eb2 86

b5dbc7be 90 38 6b   Note On Ab2 107
b5dbcaee 90 33 00   Note On(0-Off) Eb2
b5dbcb45 90 38 00   Note On(0-Off) Ab2

b5dbcb46 90 2c 00   Note On(0-Off) Ab1
b5dbcdeb 90 29 47   Note On F1 71

b5dbcded 90 39 66   Note On A2 102

b5dbcdef 90 3c 7f   Note On C3 127

b5dbcdf2 90 35 5f   Note On F2 95
b5dbce73 90 3c 00   Note On(0-Off) C3

b5dbce7a 90 39 00   Note On(0-Off) A2

b5dbce8a 90 29 00   Note On(0-Off) F1

b5dbce8b 90 35 00   Note On(0-Off) F2
b5dbd02c 90 3a 6d   Note On Bb2 109

b5dbd02f 90 2e 60   Note On Bb1 96

b5dbd031 90 3d 6b   Note On C#3 107

b5dbd037 90 35 4b   Note On F2 75
b5dbd33d 90 2e 00   Note On(0-Off) Bb1
b5dbd367 90 35 00   Note On(0-Off) F2

b5dbd36e 90 3d 00   Note On(0-Off) C#3

b5dbd387 90 3a 00   Note On(0-Off) Bb2
b5dc07bc 90 35 67   Note On F2 103
b5dc08e6 90 35 00   Note On(0-Off) F2
b5dc0951 90 35 67   Note On F2 103
b5dc0a45 90 35 00   Note On(0-Off) F2
b5dc28db 90 31 3c   Note On C#2 60

b5dc28df 90 36 5e   Note On F#2 94

b5dc28e0 90 2a 59   Note On F#1 89

b5dc28e1 90 3a 31   Note On Bb2 49
b5dc2f53 90 31 00   Note On(0-Off) C#2

b5dc2f5a 90 36 00   Note On(0-Off) F#2

b5dc2f5b 90 3a 00   Note On(0-Off) Bb2

b5dc2f94 90 2a 00   Note On(0-Off) F#1
b5dc3008 90 2a 56   Note On F#1 86
b5dc3010 90 31 33   Note On C#2 51

b5dc3018 90 3a 4d   Note On Bb2 77

b5dc301a 90 36 67   Note On F#2 103
b5dc359c 90 31 00   Note On(0-Off) C#2

b5dc35de 90 36 00   Note On(0-Off) F#2
b5dc35fe 90 3a 00   Note On(0-Off) Bb2

b5dc364d 90 2a 00   Note On(0-Off) F#1
b5dc38f4 90 33 36   Note On Eb2 54

b5dc38fc 90 38 3d   Note On Ab2 61

b5dc3909 90 2c 5e   Note On Ab1 94
b5dc3e60 90 33 00   Note On(0-Off) Eb2

b5dc3e81 90 38 00   Note On(0-Off) Ab2

b5dc3e8f 90 2c 00   Note On(0-Off) Ab1
b5dc41d2 90 3a 59   Note On Bb2 89

b5dc41d4 90 2a 5f   Note On F#1 95

b5dc41d5 90 36 62   Note On F#2 98

b5dc41d6 90 31 44   Note On C#2 68
b5dc48b6 90 31 00   Note On(0-Off) C#2

b5dc48db 90 36 00   Note On(0-Off) F#2
b5dc48f7 90 3a 00   Note On(0-Off) Bb2

b5dc4909 90 2a 00   Note On(0-Off) F#1
b5dc4abe 90 33 3e   Note On Eb2 62

b5dc4ac0 90 2c 64   Note On Ab1 100
b5dc4af7 90 38 11   Note On Ab2 17

b5dc4b00 90 3c 7f   Note On C3 127
b5dc50be 90 3c 00   Note On(0-Off) C3
b5dc5100 90 2c 00   Note On(0-Off) Ab1

b5dc5107 90 38 00   Note On(0-Off) Ab2

b5dc510c 90 33 00   Note On(0-Off) Eb2
b5dc53a8 90 2a 64   Note On F#1 100

b5dc53a9 90 3a 64   Note On Bb2 100

b5dc53aa 90 31 3e   Note On C#2 62

b5dc53ab 90 36 67   Note On F#2 103
b5dc5aa3 90 31 00   Note On(0-Off) C#2
b5dc5ad2 90 3a 00   Note On(0-Off) Bb2

b5dc5ade 90 36 00   Note On(0-Off) F#2
b5dc5bba 90 2a 00   Note On(0-Off) F#1
b5dc5ee2 90 2c 62   Note On Ab1 98

b5dc5ef3 90 33 36   Note On Eb2 54

b5dc5ef4 90 3c 7f   Note On C3 127

b5dc5efb 90 38 60   Note On Ab2 96
b5dc623d 90 3c 00   Note On(0-Off) C3

b5dc627d 90 33 00   Note On(0-Off) Eb2
b5dc62b8 90 38 00   Note On(0-Off) Ab2
b5dc635b 90 2c 00   Note On(0-Off) Ab1
b5dc64cd 90 31 45   Note On C#2 69

b5dc64d1 90 3a 4f   Note On Bb2 79

b5dc64d2 90 36 60   Note On F#2 96

b5dc64de 90 2a 5b   Note On F#1 91
b5dc6ab5 90 31 00   Note On(0-Off) C#2
b5dc6b27 90 36 00   Note On(0-Off) F#2

b5dc6b45 90 3a 00   Note On(0-Off) Bb2
b5dc6bb3 90 2a 00   Note On(0-Off) F#1
b5dc6dbc 90 33 44   Note On Eb2 68

b5dc6dc8 90 38 59   Note On Ab2 89

b5dc6dce 90 2c 5e   Note On Ab1 94
b5dc725c 90 33 00   Note On(0-Off) Eb2

b5dc725e 90 38 00   Note On(0-Off) Ab2
b5dc7296 90 2c 00   Note On(0-Off) Ab1
b5dc7689 90 2a 62   Note On F#1 98

b5dc768e 90 3a 42   Note On Bb2 66

b5dc7691 90 36 4d   Note On F#2 77

b5dc7693 90 31 2c   Note On C#2 44
b5dc802d 90 31 00   Note On(0-Off) C#2
b5dc807b 90 2a 00   Note On(0-Off) F#1

b5dc807c 90 3a 00   Note On(0-Off) Bb2

b5dc807e 90 36 00   Note On(0-Off) F#2
b5dc835f 90 2c 5b   Note On Ab1 91

b5dc8364 90 33 3e   Note On Eb2 62

b5dc8368 90 3c 7f   Note On C3 127

b5dc8369 90 38 62   Note On Ab2 98
b5dc8ad1 90 3c 00   Note On(0-Off) C3

b5dc8af1 90 38 00   Note On(0-Off) Ab2

b5dc8b07 90 33 00   Note On(0-Off) Eb2
b5dc8b30 90 2c 00   Note On(0-Off) Ab1
b5dc8cf6 90 3a 47   Note On Bb2 71

b5dc8cf8 90 2a 3c   Note On F#1 60

b5dc8cfe 90 36 52   Note On F#2 82

b5dc8d03 90 31 2f   Note On C#2 47
b5dc93e7 90 31 00   Note On(0-Off) C#2

b5dc93f1 90 36 00   Note On(0-Off) F#2

b5dc9401 90 3a 00   Note On(0-Off) Bb2
b5dc946a 90 2a 00   Note On(0-Off) F#1
b5dc95eb 90 33 3f   Note On Eb2 63

b5dc95eb 90 38 52   Note On Ab2 82

b5dc95eb 90 2c 5b   Note On Ab1 91
b5dc9cb2 90 33 00   Note On(0-Off) Eb2

b5dc9cba 90 2c 00   Note On(0-Off) Ab1

b5dc9cc2 90 38 00   Note On(0-Off) Ab2
b5dc9efa 90 31 34   Note On C#2 52

b5dc9efc 90 3a 4d   Note On Bb2 77

b5dc9efd 90 2a 60   Note On F#1 96

b5dc9f02 90 36 4f   Note On F#2 79
b5dca0b2 90 31 00   Note On(0-Off) C#2

b5dca0c1 90 3a 00   Note On(0-Off) Bb2

b5dca0d3 90 36 00   Note On(0-Off) F#2
b5dca131 90 2a 00   Note On(0-Off) F#1
b5dca271 90 33 3c   Note On Eb2 60

b5dca278 90 2c 60   Note On Ab1 96

b5dca27f 90 38 60   Note On Ab2 96
b5dca4a8 90 33 00   Note On(0-Off) Eb2

b5dca4c9 90 38 00   Note On(0-Off) Ab2
b5dca4f1 90 2c 00   Note On(0-Off) Ab1
b5dca834 90 2a 4f   Note On F#1 79

b5dca83d 90 3a 44   Note On Bb2 68

b5dca845 90 31 33   Note On C#2 51

b5dca84a 90 36 52   Note On F#2 82
b5dcaaec 90 3a 00   Note On(0-Off) Bb2

b5dcab12 90 31 00   Note On(0-Off) C#2

b5dcab15 90 36 00   Note On(0-Off) F#2

b5dcab27 90 2a 00   Note On(0-Off) F#1
b5dcae6c 90 3a 3e   Note On Bb2 62

b5dcae72 90 2a 56   Note On F#1 86

b5dcae76 90 36 47   Note On F#2 71

b5dcae85 90 31 15   Note On C#2 21
b5dcb068 90 31 00   Note On(0-Off) C#2

b5dcb086 90 36 00   Note On(0-Off) F#2

b5dcb09e 90 3a 00   Note On(0-Off) Bb2
b5dcb0db 90 2a 00   Note On(0-Off) F#1
b5dcb259 90 2c 56   Note On Ab1 86

b5dcb262 90 33 2c   Note On Eb2 44

b5dcb266 90 38 52   Note On Ab2 82
b5dcb4a4 90 33 00   Note On(0-Off) Eb2
b5dcb4ea 90 38 00   Note On(0-Off) Ab2
b5dcb517 90 2c 00   Note On(0-Off) Ab1
b5dcb7aa 90 29 4b   Note On F1 75

b5dcb7af 90 35 34   Note On F2 52

b5dcb7b5 90 38 3a   Note On Ab2 58

b5dcb7bf 90 3c 7f   Note On C3 127
b5dcb91f 90 3c 00   Note On(0-Off) C3

b5dcb94b 90 35 00   Note On(0-Off) F2

b5dcb95c 90 38 00   Note On(0-Off) Ab2

b5dcb966 90 29 00   Note On(0-Off) F1
b5dcbb70 90 2e 5e   Note On Bb1 94

b5dcbb72 90 3a 33   Note On Bb2 51

b5dcbb73 90 3d 49   Note On C#3 73

b5dcbb74 90 35 28   Note On F2 40
b5dcbe29 90 2e 00   Note On(0-Off) Bb1
b5dcbe35 90 35 00   Note On(0-Off) F2

b5dcbe91 90 3d 00   Note On(0-Off) C#3
b5dcbece 90 3a 00   Note On(0-Off) Bb2
b5dcc191 90 3a 5b   Note On Bb2 91

b5dcc193 90 31 3d   Note On C#2 61

b5dcc19b 90 36 66   Note On F#2 102

b5dcc1ac 90 2a 5b   Note On F#1 91
b5dcc31b 90 31 00   Note On(0-Off) C#2

b5dcc338 90 3a 00   Note On(0-Off) Bb2

b5dcc33a 90 36 00   Note On(0-Off) F#2
b5dcc3bc 90 2a 00   Note On(0-Off) F#1
b5dcc52a 90 38 4b   Note On Ab2 75

b5dcc52c 90 33 3a   Note On Eb2 58

b5dcc540 90 2c 4d   Note On Ab1 77
b5dcc762 90 33 00   Note On(0-Off) Eb2
b5dcc7cf 90 2c 00   Note On(0-Off) Ab1

b5dcc7f3 90 38 00   Note On(0-Off) Ab2
b5dccb78 90 39 3f   Note On A2 63

b5dccb7c 90 35 3f   Note On F2 63

b5dccb7d 90 29 52   Note On F1 82

b5dccb84 90 3c 7f   Note On C3 127
b5dccc32 90 3c 00   Note On(0-Off) C3

b5dccc34 90 35 00   Note On(0-Off) F2

b5dccc4e 90 39 00   Note On(0-Off) A2

b5dccc7c 90 29 00   Note On(0-Off) F1
b5dccdc7 90 3d 64   Note On C#3 100

b5dccdc7 90 3a 52   Note On Bb2 82
b5dccdcc 90 35 4b   Note On F2 75

b5dccdd0 90 2e 5b   Note On Bb1 91
b5dccf4e 90 2e 00   Note On(0-Off) Bb1
b5dccf73 90 35 00   Note On(0-Off) F2

b5dccf8c 90 3d 00   Note On(0-Off) C#3

b5dccf9c 90 3a 00   Note On(0-Off) Bb2
b5dce1ae 90 3d 59   Note On C#3 89

b5dce1b5 90 3a 60   Note On Bb2 96

b5dce1b9 90 36 34   Note On F#2 52

b5dce1ca 90 2a 62   Note On F#1 98
b5dce3f4 90 3d 00   Note On(0-Off) C#3

b5dce401 90 36 00   Note On(0-Off) F#2

b5dce412 90 3a 00   Note On(0-Off) Bb2
b5dce458 90 2a 00   Note On(0-Off) F#1
b5dce82e 90 38 5b   Note On Ab2 91
b5dce83c 90 2c 4b   Note On Ab1 75

b5dce83d 90 33 3a   Note On Eb2 58
b5dcedc8 90 33 00   Note On(0-Off) Eb2
b5dcee3c 90 2c 00   Note On(0-Off) Ab1
b5dcee9e 90 38 00   Note On(0-Off) Ab2
b5dcf1b0 90 29 3e   Note On F1 62

b5dcf1b9 90 38 49   Note On Ab2 73
b5dcf1c2 90 35 3f   Note On F2 63

b5dcf1e8 90 3c 7f   Note On C3 127
b5dcf462 90 35 00   Note On(0-Off) F2

b5dcf466 90 3c 00   Note On(0-Off) C3

b5dcf471 90 29 00   Note On(0-Off) F1
b5dcf490 90 38 00   Note On(0-Off) Ab2
b5dcf67e 90 3d 5f   Note On C#3 95

b5dcf67f 90 2e 5f   Note On Bb1 95

b5dcf681 90 3a 52   Note On Bb2 82

b5dcf683 90 35 40   Note On F2 64
b5dcf989 90 2e 00   Note On(0-Off) Bb1
b5dcf9bb 90 35 00   Note On(0-Off) F2
b5dcfa0f 90 3d 00   Note On(0-Off) C#3

b5dcfa1b 90 3a 00   Note On(0-Off) Bb2
b5dcfc4e 90 3a 5f   Note On Bb2 95

b5dcfc50 90 2a 59   Note On F#1 89

b5dcfc57 90 31 3d   Note On C#2 61

b5dcfc5d 90 36 40   Note On F#2 64
b5dcfd9f 90 31 00   Note On(0-Off) C#2

b5dcfdbe 90 3a 00   Note On(0-Off) Bb2
b5dcfdd4 90 36 00   Note On(0-Off) F#2
b5dcfe58 90 2a 00   Note On(0-Off) F#1
b5dcff8e 90 33 45   Note On Eb2 69

b5dcff91 90 2c 5e   Note On Ab1 94

b5dcff93 90 38 5f   Note On Ab2 95

b5dcff9b 90 3c 7f   Note On C3 127
b5dd01d1 90 33 00   Note On(0-Off) Eb2
b5dd0243 90 38 00   Note On(0-Off) Ab2

b5dd0243 90 3c 00   Note On(0-Off) C3

b5dd0243 90 2c 00   Note On(0-Off) Ab1
b5dd0526 90 29 56   Note On F1 86

b5dd0528 90 39 44   Note On A2 68

b5dd052d 90 35 44   Note On F2 68
b5dd05dc 90 35 00   Note On(0-Off) F2

b5dd05dc 90 39 00   Note On(0-Off) A2

b5dd05dd 90 29 00   Note On(0-Off) F1
b5dd0775 90 3d 59   Note On C#3 89

b5dd0775 90 2e 62   Note On Bb1 98

b5dd0775 90 35 40   Note On F2 64

b5dd0775 90 3a 4b   Note On Bb2 75
b5dd0cc2 90 35 00   Note On(0-Off) F2
b5dd0e11 90 3d 00   Note On(0-Off) C#3
b5dd0e30 90 3a 00   Note On(0-Off) Bb2
b5dd0f5a 90 2e 00   Note On(0-Off) Bb1
b5dd1132 90 31 6d   Note On C#2 109
b5dd1223 90 36 64   Note On F#2 100

b5dd127d 90 31 00   Note On(0-Off) C#2
b5dd12ee 90 36 00   Note On(0-Off) F#2
b5dd15bd 90 36 6e   Note On F#2 110
b5dd16a2 90 38 47   Note On Ab2 71
b5dd16e9 90 36 00   Note On(0-Off) F#2
b5dd178a 90 3a 7b   Note On Bb2 123

b5dd1795 90 38 00   Note On(0-Off) Ab2
b5dd1874 90 38 4b   Note On Ab2 75

b5dd1895 90 3a 00   Note On(0-Off) Bb2
b5dd18f1 90 38 00   Note On(0-Off) Ab2
b5dd1beb 90 3a 72   Note On Bb2 114
b5dd1cbc 90 3d 64   Note On C#3 100
b5dd1ceb 90 3a 00   Note On(0-Off) Bb2
b5dd1dbb 90 3f 6e   Note On Eb3 110

b5dd1dc7 90 3d 00   Note On(0-Off) C#3
b5dd1e97 90 3f 00   Note On(0-Off) Eb3
b5dd1f14 90 3d 4b   Note On C#3 75
b5dd1f6e 90 3d 00   Note On(0-Off) C#3
b5dd20f1 90 3a 67   Note On Bb2 103
b5dd21d0 90 3d 66   Note On C#3 102
b5dd2210 90 3a 00   Note On(0-Off) Bb2
b5dd22cd 90 3d 00   Note On(0-Off) C#3
b5dd248e 90 3a 66   Note On Bb2 102
b5dd2572 90 3d 66   Note On C#3 102
b5dd262d 90 3a 00   Note On(0-Off) Bb2
b5dd268c 90 42 76   Note On F#3 118

b5dd26b9 90 3d 00   Note On(0-Off) C#3
b5dd2733 90 42 00   Note On(0-Off) F#3
b5dd27a0 90 3d 60   Note On C#3 96
b5dd2878 90 3d 00   Note On(0-Off) C#3
b5dd29dc 90 44 6b   Note On Ab3 107
b5dd2adb 90 44 00   Note On(0-Off) Ab3
b5dd2d92 90 3a 64   Note On Bb2 100
b5dd2e72 90 3d 49   Note On C#3 73

b5dd2e9c 90 3a 00   Note On(0-Off) Bb2
b5dd2f03 90 3d 00   Note On(0-Off) C#3
b5dd3235 90 36 4f   Note On F#2 79
b5dd333f 90 38 59   Note On Ab2 89

b5dd336b 90 36 00   Note On(0-Off) F#2
b5dd346b 90 3a 3e   Note On Bb2 62

b5dd3473 90 38 00   Note On(0-Off) Ab2
b5dd34e7 90 3a 00   Note On(0-Off) Bb2
b5dd3692 90 31 6e   Note On C#2 110
b5dd377d 90 36 62   Note On F#2 98

b5dd3787 90 31 00   Note On(0-Off) C#2
b5dd3885 90 38 4d   Note On Ab2 77

b5dd3890 90 36 00   Note On(0-Off) F#2
b5dd390e 90 38 00   Note On(0-Off) Ab2
b5dd3995 90 36 6e   Note On F#2 110
b5dd3a1b 90 36 00   Note On(0-Off) F#2
b5dd3ab7 90 3a 6b   Note On Bb2 107

b5dd3ab9 90 2a 60   Note On F#1 96
b5dd3b98 90 3a 00   Note On(0-Off) Bb2
b5dd3d60 90 2a 00   Note On(0-Off) F#1
b5dd4186 90 33 47   Note On Eb2 71
b5dd4265 90 36 5b   Note On F#2 91

b5dd4274 90 33 00   Note On(0-Off) Eb2
b5dd4323 90 36 00   Note On(0-Off) F#2
b5dd434c 90 3a 6d   Note On Bb2 109

b5dd4359 90 3a 00   Note On(0-Off) Bb2

b5dd437d 90 39 31   Note On A2 49
b5dd43ba 90 39 00   Note On(0-Off) A2
b5dd4462 90 36 67   Note On F#2 103
b5dd44b4 90 36 00   Note On(0-Off) F#2
b5dd4665 90 36 62   Note On F#2 98
b5dd4723 90 38 4d   Note On Ab2 77

b5dd474f 90 36 00   Note On(0-Off) F#2
b5dd4823 90 3a 67   Note On Bb2 103
b5dd4838 90 38 00   Note On(0-Off) Ab2
b5dd48cd 90 3a 00   Note On(0-Off) Bb2

b5dd48d8 90 38 49   Note On Ab2 73
b5dd494d 90 38 00   Note On(0-Off) Ab2
b5dd49db 90 2a 66   Note On F#1 102

b5dd49e6 90 3f 72   Note On Eb3 114
b5dd4ad2 90 3f 00   Note On(0-Off) Eb3
b5dd4bd3 90 3f 6b   Note On Eb3 107
b5dd4c8b 90 3f 00   Note On(0-Off) Eb3
b5dd4d2c 90 2a 00   Note On(0-Off) F#1
b5dd500f 90 42 4b   Note On F#3 75
b5dd5104 90 44 3e   Note On Ab3 62

b5dd5131 90 42 00   Note On(0-Off) F#3
b5dd5229 90 46 6b   Note On Bb3 107

b5dd523e 90 44 00   Note On(0-Off) Ab3
b5dd52a8 90 46 00   Note On(0-Off) Bb3
b5dd5584 90 46 67   Note On Bb3 103
b5dd571f 90 46 00   Note On(0-Off) Bb3
b5dd5ea0 90 38 62   Note On Ab2 98
b5dd5f7f 90 3a 4d   Note On Bb2 77

b5dd5f8d 90 38 00   Note On(0-Off) Ab2
b5dd609f 90 3d 67   Note On C#3 103
b5dd60bf 90 3a 00   Note On(0-Off) Bb2
b5dd616c 90 3d 00   Note On(0-Off) C#3
b5dd6200 90 3a 62   Note On Bb2 98
b5dd62fe 90 3a 00   Note On(0-Off) Bb2
b5dd6512 90 38 5f   Note On Ab2 95
b5dd65df 90 3a 45   Note On Bb2 69

b5dd65f0 90 38 00   Note On(0-Off) Ab2
b5dd66b2 90 3a 00   Note On(0-Off) Bb2

b5dd66b3 90 3d 76   Note On C#3 118
b5dd6772 90 3a 40   Note On Bb2 64

b5dd677e 90 3d 00   Note On(0-Off) C#3
b5dd67f1 90 3a 00   Note On(0-Off) Bb2
b5dd685d 90 3f 70   Note On Eb3 112

b5dd6864 90 2a 52   Note On F#1 82
b5dd6931 90 3f 00   Note On(0-Off) Eb3
b5dd6aa5 90 2a 00   Note On(0-Off) F#1
b5dd6bc4 90 36 3e   Note On F#2 62

b5dd6bc9 90 38 31   Note On Ab2 49
b5dd6c3e 90 38 00   Note On(0-Off) Ab2

b5dd6c41 90 36 00   Note On(0-Off) F#2
b5dd6e6a 90 38 67   Note On Ab2 103
b5dd6f3a 90 38 00   Note On(0-Off) Ab2

b5dd6f3b 90 3a 44   Note On Bb2 68
b5dd7008 90 3a 00   Note On(0-Off) Bb2

b5dd700b 90 3d 6d   Note On C#3 109
b5dd70d4 90 3a 56   Note On Bb2 86

b5dd70d9 90 3d 00   Note On(0-Off) C#3
b5dd7161 90 3a 00   Note On(0-Off) Bb2
b5dd71a7 90 2a 64   Note On F#1 100

b5dd71b5 90 42 56   Note On F#3 86

b5dd71ef 90 41 40   Note On F3 64
b5dd7241 90 42 00   Note On(0-Off) F#3
b5dd728e 90 41 00   Note On(0-Off) F3
b5dd73af 90 41 64   Note On F3 100
b5dd7475 90 41 00   Note On(0-Off) F3
b5dd7559 90 2a 00   Note On(0-Off) F#1
b5dd776f 90 38 66   Note On Ab2 102
b5dd7838 90 3a 64   Note On Bb2 100

b5dd7838 90 38 00   Note On(0-Off) Ab2
b5dd78fa 90 3a 00   Note On(0-Off) Bb2

b5dd78fa 90 38 3e   Note On Ab2 62
b5dd79f2 90 3a 59   Note On Bb2 89

b5dd79f2 90 38 00   Note On(0-Off) Ab2

b5dd7a02 90 3a 00   Note On(0-Off) Bb2
b5dd7abb 90 2a 60   Note On F#1 96

b5dd7ac3 90 41 60   Note On F3 96

b5dd7ac5 90 43 5b   Note On G3 91
b5dd7b5f 90 43 00   Note On(0-Off) G3
b5dd7bb7 90 41 00   Note On(0-Off) F3
b5dd7c8c 90 41 67   Note On F3 103
b5dd7d7f 90 41 00   Note On(0-Off) F3
b5dd7e0d 90 2a 00   Note On(0-Off) F#1
b5dd7ec2 90 2c 64   Note On Ab1 100

b5dd7ec3 90 3f 70   Note On Eb3 112
b5dd81d5 90 3f 00   Note On(0-Off) Eb3
b5dd8295 90 38 5e   Note On Ab2 94
b5dd8362 90 3a 47   Note On Bb2 71

b5dd836d 90 38 00   Note On(0-Off) Ab2
b5dd83a4 90 2c 00   Note On(0-Off) Ab1
b5dd842b 90 38 5b   Note On Ab2 91

b5dd8435 90 3a 00   Note On(0-Off) Bb2
b5dd84e4 90 3a 3f   Note On Bb2 63

b5dd84ff 90 38 00   Note On(0-Off) Ab2
b5dd8550 90 3a 00   Note On(0-Off) Bb2
b5dd8777 90 38 6d   Note On Ab2 109
b5dd8841 90 3a 67   Note On Bb2 103

b5dd8844 90 38 00   Note On(0-Off) Ab2
b5dd88de 90 3a 00   Note On(0-Off) Bb2
b5dd8a91 90 36 69   Note On F#2 105
b5dd8b31 90 36 00   Note On(0-Off) F#2
b5dd8b6f 90 38 67   Note On Ab2 103

b5dd8bbb 90 38 00   Note On(0-Off) Ab2
b5dd8d9e 90 3f 76   Note On Eb3 118

b5dd8da6 90 29 59   Note On F1 89
b5dd8ec2 90 3f 00   Note On(0-Off) Eb3
b5dd8faf 90 3f 72   Note On Eb3 114
b5dd90c6 90 29 00   Note On(0-Off) F1
b5dd9140 90 3f 00   Note On(0-Off) Eb3
b5dd9215 90 3d 72   Note On C#3 114
b5dd924d 90 2c 6b   Note On Ab1 107

b5dd926b 90 2d 40   Note On A1 64
b5dd92c3 90 2c 00   Note On(0-Off) Ab1

b5dd92c8 90 2d 00   Note On(0-Off) A1
b5dd9361 90 2e 67   Note On Bb1 103
b5dd9554 90 3d 00   Note On(0-Off) C#3

b5dd9558 90 3a 4b   Note On Bb2 75
b5dd95dd 90 3a 00   Note On(0-Off) Bb2
b5dd96de 90 2e 00   Note On(0-Off) Bb1
b5dd974b 90 3d 67   Note On C#3 103

b5dd9752 90 2e 6d   Note On Bb1 109
b5dd98d7 90 3c 7f   Note On C3 127

b5dd98d9 90 3d 00   Note On(0-Off) C#3
b5dd998d 90 3c 00   Note On(0-Off) C3
b5dd99c5 90 3a 70   Note On Bb2 112
b5dd9c77 90 3a 00   Note On(0-Off) Bb2
b5dd9d9d 90 38 64   Note On Ab2 100
b5dd9e61 90 3a 59   Note On Bb2 89

b5dd9e9b 90 38 00   Note On(0-Off) Ab2
b5dd9f41 90 3d 79   Note On C#3 121

b5dd9f4b 90 3a 00   Note On(0-Off) Bb2

b5dd9f84 90 2e 00   Note On(0-Off) Bb1
b5dd9f92 90 3d 00   Note On(0-Off) C#3
b5dda030 90 3a 5f   Note On Bb2 95
b5dda098 90 3a 00   Note On(0-Off) Bb2
b5dda137 90 2a 67   Note On F#1 103
b5dda293 90 3f 60   Note On Eb3 96
b5dda3bf 90 3f 00   Note On(0-Off) Eb3
b5dda4a5 90 3d 76   Note On C#3 118
b5dda638 90 3d 00   Note On(0-Off) C#3
b5dda72a 90 3d 6d   Note On C#3 109
b5dda825 90 3d 00   Note On(0-Off) C#3
b5dda8c5 90 2a 00   Note On(0-Off) F#1
b5ddaa1a 90 2c 5b   Note On Ab1 91
b5ddaa89 90 3a 72   Note On Bb2 114
b5ddac09 90 3a 00   Note On(0-Off) Bb2
b5ddac47 90 2c 00   Note On(0-Off) Ab1
b5ddad27 90 2c 5b   Note On Ab1 91

b5ddad5a 90 3c 7f   Note On C3 127
b5ddafa6 90 2c 00   Note On(0-Off) Ab1
b5ddb07f 90 3c 00   Note On(0-Off) C3
b5ddb120 90 3c 7f   Note On C3 127
b5ddb1a6 90 3c 00   Note On(0-Off) C3
b5ddb294 90 29 60   Note On F1 96

b5ddb299 90 3c 7f   Note On C3 127

b5ddb29b 90 39 66   Note On A2 102

b5ddb2ef 90 3c 00   Note On(0-Off) C3
b5ddb302 90 39 00   Note On(0-Off) A2

b5ddb333 90 29 00   Note On(0-Off) F1
b5ddb4da 90 2e 64   Note On Bb1 100

b5ddb4db 90 3d 6b   Note On C#3 107

b5ddb4dc 90 3a 66   Note On Bb2 102

b5ddb4e1 90 35 40   Note On F2 64
b5ddb7f6 90 35 00   Note On(0-Off) F2
b5ddb8a6 90 3a 00   Note On(0-Off) Bb2

b5ddb8ad 90 3d 00   Note On(0-Off) C#3
b5ddb8e1 90 2e 00   Note On(0-Off) Bb1
b5ddb9e8 90 38 67   Note On Ab2 103
b5ddba9a 90 3a 67   Note On Bb2 103

b5ddbaae 90 38 00   Note On(0-Off) Ab2
b5ddbb69 90 38 3d   Note On Ab2 61

b5ddbb6e 90 3a 00   Note On(0-Off) Bb2
b5ddbbdf 90 3a 67   Note On Bb2 103
b5ddbc0a 90 38 00   Note On(0-Off) Ab2

b5ddbc54 90 3a 00   Note On(0-Off) Bb2
b5ddbcf5 90 2a 4d   Note On F#1 77

b5ddbd32 90 3f 74   Note On Eb3 116
b5ddbda9 90 3f 00   Note On(0-Off) Eb3
b5ddbf59 90 2a 00   Note On(0-Off) F#1
b5ddc0d2 90 38 64   Note On Ab2 100
b5ddc195 90 3a 66   Note On Bb2 102

b5ddc1a0 90 38 00   Note On(0-Off) Ab2
b5ddc258 90 3a 00   Note On(0-Off) Bb2

b5ddc259 90 38 3f   Note On Ab2 63
b5ddc2f1 90 3a 69   Note On Bb2 105

b5ddc304 90 38 00   Note On(0-Off) Ab2
b5ddc362 90 3a 00   Note On(0-Off) Bb2
b5ddc58d 90 38 59   Note On Ab2 89
b5ddc674 90 3a 49   Note On Bb2 73

b5ddc674 90 38 00   Note On(0-Off) Ab2
b5ddc750 90 3a 00   Note On(0-Off) Bb2
b5ddc7b5 90 3d 66   Note On C#3 102
b5ddc802 90 3d 00   Note On(0-Off) C#3
b5ddca16 90 38 4f   Note On Ab2 79
b5ddcac7 90 3a 5e   Note On Bb2 94
b5ddcada 90 38 00   Note On(0-Off) Ab2
b5ddcba3 90 3a 00   Note On(0-Off) Bb2
b5ddcbb3 90 3d 72   Note On C#3 114
b5ddcc6b 90 3d 00   Note On(0-Off) C#3
b5ddcc70 90 3a 44   Note On Bb2 68
b5ddcd0a 90 3a 00   Note On(0-Off) Bb2
b5ddce64 90 2a 64   Note On F#1 100

b5ddce67 90 42 69   Note On F#3 105
b5ddcedc 90 42 00   Note On(0-Off) F#3
b5ddd05b 90 2a 00   Note On(0-Off) F#1
b5ddd0b6 90 2a 6d   Note On F#1 109

b5ddd0bb 90 41 56   Note On F3 86
b5ddd174 90 41 00   Note On(0-Off) F3
b5ddd2cf 90 41 62   Note On F3 98
b5ddd38a 90 2a 00   Note On(0-Off) F#1
b5ddd42c 90 41 00   Note On(0-Off) F3
b5ddd514 90 2c 5f   Note On Ab1 95
b5ddd520 90 3f 70   Note On Eb3 112
b5ddd89e 90 3f 00   Note On(0-Off) Eb3
b5ddd9af 90 38 6b   Note On Ab2 107
b5ddda65 90 38 00   Note On(0-Off) Ab2
b5dddae6 90 2c 00   Note On(0-Off) Ab1
b5dddce6 90 38 69   Note On Ab2 105
b5dddd98 90 3a 64   Note On Bb2 100

b5ddddbc 90 38 00   Note On(0-Off) Ab2
b5ddde4f 90 3a 00   Note On(0-Off) Bb2
b5ddde7c 90 3d 76   Note On C#3 118
b5dddf14 90 3d 00   Note On(0-Off) C#3
b5dddf2c 90 3a 4b   Note On Bb2 75
b5dddf99 90 3a 00   Note On(0-Off) Bb2
b5dde071 90 41 5f   Note On F3 95

b5dde074 90 29 5b   Note On F1 91
b5dde102 90 41 00   Note On(0-Off) F3
b5dde19c 90 42 76   Note On F#3 118

b5dde1af 90 43 60   Note On G3 96
b5dde20a 90 43 00   Note On(0-Off) G3

b5dde20e 90 42 00   Note On(0-Off) F#3
b5dde290 90 42 6e   Note On F#3 110
b5dde405 90 42 00   Note On(0-Off) F#3
b5dde465 90 29 00   Note On(0-Off) F1
b5dde500 90 44 6e   Note On Ab3 110

b5dde500 90 29 62   Note On F1 98
b5dde6c3 90 44 00   Note On(0-Off) Ab3
b5dde842 90 3f 74   Note On Eb3 116
b5dde88f 90 29 00   Note On(0-Off) F1
b5dde919 90 3f 00   Note On(0-Off) Eb3
b5ddeac5 90 44 67   Note On Ab3 103
b5ddebe2 90 44 00   Note On(0-Off) Ab3
b5ddedb8 90 3d 6b   Note On C#3 107
b5ddee39 90 3d 00   Note On(0-Off) C#3
b5ddef22 90 3f 72   Note On Eb3 114
b5ddf024 90 3f 00   Note On(0-Off) Eb3
b5ddf040 90 3d 40   Note On C#3 64
b5ddf0b9 90 3d 00   Note On(0-Off) C#3
b5ddf406 90 3f 6e   Note On Eb3 110
b5ddf48e 90 3f 00   Note On(0-Off) Eb3
b5ddf510 90 3d 6b   Note On C#3 107
b5ddf57b 90 3d 00   Note On(0-Off) C#3
b5ddf651 90 3c 7f   Note On C3 127
b5ddf7a9 90 3c 00   Note On(0-Off) C3
b5ddfd0a 90 3a 34   Note On Bb2 52
b5ddfe06 90 3a 00   Note On(0-Off) Bb2
b5de00ab 90 3a 52   Note On Bb2 82
b5de01bd 90 3b 45   Note On B2 69

b5de01e3 90 3a 00   Note On(0-Off) Bb2
b5de0241 90 3b 00   Note On(0-Off) B2
b5de02c2 90 3d 67   Note On C#3 103
b5de034d 90 3d 00   Note On(0-Off) C#3
b5de04b6 90 3a 64   Note On Bb2 100
b5de0591 90 3c 7f   Note On C3 127

b5de05b6 90 3a 00   Note On(0-Off) Bb2
b5de0645 90 3c 00   Note On(0-Off) C3
b5de068e 90 3d 76   Note On C#3 118
b5de0740 90 3d 00   Note On(0-Off) C#3
b5de094f 90 3a 6e   Note On Bb2 110
b5de09df 90 3a 00   Note On(0-Off) Bb2
b5de0b63 90 2a 6b   Note On F#1 107
b5de0b74 90 3f 6b   Note On Eb3 107
b5de0c73 90 3f 00   Note On(0-Off) Eb3
b5de0dae 90 3f 5e   Note On Eb3 94
b5de0e55 90 2a 00   Note On(0-Off) F#1
b5de0f2c 90 3f 00   Note On(0-Off) Eb3
b5de0f9f 90 2c 56   Note On Ab1 86

b5de0fb1 90 3d 72   Note On C#3 114
b5de105e 90 2c 00   Note On(0-Off) Ab1
b5de1108 90 2e 6d   Note On Bb1 109

b5de113f 90 2d 76   Note On A1 118
b5de118a 90 2e 00   Note On(0-Off) Bb1

b5de118b 90 2d 00   Note On(0-Off) A1
b5de1231 90 2e 72   Note On Bb1 114
b5de1370 90 3d 00   Note On(0-Off) C#3

b5de1395 90 2e 00   Note On(0-Off) Bb1
b5de15b5 90 3d 5b   Note On C#3 91
b5de1632 90 3d 00   Note On(0-Off) C#3
b5de170c 90 2d 64   Note On A1 100

b5de1718 90 39 4f   Note On A2 79

b5de171c 90 3c 7f   Note On C3 127
b5de188a 90 39 00   Note On(0-Off) A2

b5de188c 90 3c 00   Note On(0-Off) C3

b5de189a 90 2d 00   Note On(0-Off) A1
b5de1978 90 3d 72   Note On C#3 114

b5de1980 90 3a 67   Note On Bb2 103

b5de1987 90 35 4b   Note On F2 75
b5de199f 90 2f 4d   Note On B1 77

b5de19e5 90 2f 00   Note On(0-Off) B1
b5de1b9e 90 2e 4d   Note On Bb1 77
b5de1ec9 90 3a 00   Note On(0-Off) Bb2

b5de1ed2 90 3d 00   Note On(0-Off) C#3

b5de1f17 90 35 00   Note On(0-Off) F2
b5de2063 90 2e 00   Note On(0-Off) Bb1
b5de22e9 90 38 3f   Note On Ab2 63
b5de243f 90 38 00   Note On(0-Off) Ab2

b5de2440 90 3a 34   Note On Bb2 52
b5de2524 90 3a 00   Note On(0-Off) Bb2
b5de25c0 90 3d 4d   Note On C#3 77
b5de2725 90 3d 00   Note On(0-Off) C#3

b5de2734 90 3a 56   Note On Bb2 86
b5de27ff 90 3a 00   Note On(0-Off) Bb2
b5de28b8 90 3f 60   Note On Eb3 96
b5de29b7 90 3f 00   Note On(0-Off) Eb3
b5de2b6a 90 38 4d   Note On Ab2 77
b5de2c7d 90 38 00   Note On(0-Off) Ab2

b5de2ca5 90 3a 40   Note On Bb2 64
b5de2dc2 90 3a 00   Note On(0-Off) Bb2
b5de2e12 90 3d 4d   Note On C#3 77
b5de2f70 90 3a 52   Note On Bb2 82
b5de2f82 90 3d 00   Note On(0-Off) C#3
b5de3004 90 3a 00   Note On(0-Off) Bb2
b5de30ff 90 41 64   Note On F3 100
b5de3248 90 41 00   Note On(0-Off) F3
b5de3384 90 41 49   Note On F3 73
b5de348a 90 41 00   Note On(0-Off) F3
b5de35d9 90 3f 5b   Note On Eb3 91
b5de392c 90 3f 00   Note On(0-Off) Eb3
b5de3a76 90 38 45   Note On Ab2 69
b5de3b4b 90 38 00   Note On(0-Off) Ab2

b5de3b51 90 3a 3a   Note On Bb2 58
b5de3bd8 90 3a 00   Note On(0-Off) Bb2
b5de3e75 90 38 56   Note On Ab2 86
b5de3f3d 90 3a 47   Note On Bb2 71

b5de3f4e 90 38 00   Note On(0-Off) Ab2
b5de3ffe 90 3a 00   Note On(0-Off) Bb2
b5de4345 90 3c 7f   Note On C3 127
b5de446e 90 3c 00   Note On(0-Off) C3
b5de468b 90 38 5e   Note On Ab2 94
b5de4744 90 3a 4b   Note On Bb2 75

b5de4761 90 38 00   Note On(0-Off) Ab2
b5de4800 90 3a 00   Note On(0-Off) Bb2
b5de4860 90 3c 7f   Note On C3 127
b5de4916 90 3c 00   Note On(0-Off) C3
b5de4988 90 3a 40   Note On Bb2 64
b5de49d4 90 3a 00   Note On(0-Off) Bb2
b5de4c62 90 3f 6e   Note On Eb3 110
b5de4cd2 90 3f 00   Note On(0-Off) Eb3
b5de4ef4 90 3f 6e   Note On Eb3 110
b5de4f6e 90 3f 00   Note On(0-Off) Eb3
b5de511b 90 3d 70   Note On C#3 112
b5de52f3 90 3d 00   Note On(0-Off) C#3
b5de53c8 90 3a 6e   Note On Bb2 110
b5de57ad 90 3a 00   Note On(0-Off) Bb2
b5de586f 90 38 64   Note On Ab2 100
b5de58ec 90 38 00   Note On(0-Off) Ab2
b5de598a 90 3a 6d   Note On Bb2 109
b5de5a23 90 3a 00   Note On(0-Off) Bb2
b5de5ad8 90 3d 72   Note On C#3 114
b5de5b70 90 3d 00   Note On(0-Off) C#3
b5de5c2b 90 3a 6b   Note On Bb2 107
b5de5c80 90 3a 00   Note On(0-Off) Bb2
b5de5d6b 90 3f 6d   Note On Eb3 109
b5de5e27 90 3f 00   Note On(0-Off) Eb3
b5de60a2 90 3d 76   Note On C#3 118
b5de621f 90 3d 00   Note On(0-Off) C#3
b5de6369 90 3d 66   Note On C#3 102
b5de63be 90 3d 00   Note On(0-Off) C#3
b5de64d8 90 3c 7f   Note On C3 127
b5de67bd 90 3c 00   Note On(0-Off) C3
b5de69c8 90 3a 56   Note On Bb2 86
b5de6a20 90 3a 00   Note On(0-Off) Bb2
b5de6b0a 90 3a 4f   Note On Bb2 79
b5de6cd5 90 3a 00   Note On(0-Off) Bb2
b5de6f33 90 38 2b   Note On Ab2 43
b5de7058 90 3a 3f   Note On Bb2 63

b5de705e 90 38 00   Note On(0-Off) Ab2
b5de7100 90 3a 00   Note On(0-Off) Bb2
b5de71e3 90 38 13   Note On Ab2 19
b5de7244 90 38 00   Note On(0-Off) Ab2
b5de73a4 90 38 2b   Note On Ab2 43
b5de74cf 90 3a 40   Note On Bb2 64

b5de74d1 90 38 00   Note On(0-Off) Ab2
b5de75d0 90 3a 00   Note On(0-Off) Bb2
b5de7638 90 3d 5f   Note On C#3 95
b5de7782 90 3d 00   Note On(0-Off) C#3

b5de778f 90 3a 42   Note On Bb2 66
b5de7835 90 3a 00   Note On(0-Off) Bb2
b5de79b5 90 41 4f   Note On F3 79
b5de7b6c 90 41 00   Note On(0-Off) F3
b5de7c48 90 41 3d   Note On F3 61
b5de7d8b 90 41 00   Note On(0-Off) F3
b5de7ee0 90 3f 3e   Note On Eb3 62
b5de81d1 90 3f 00   Note On(0-Off) Eb3
b5de83a3 90 38 3a   Note On Ab2 58
b5de8493 90 38 00   Note On(0-Off) Ab2
b5de8501 90 3a 42   Note On Bb2 66
b5de85c6 90 3a 00   Note On(0-Off) Bb2
b5de885e 90 3c 7f   Note On C3 127
b5de8980 90 3c 00   Note On(0-Off) C3
b5de8c13 90 3a 64   Note On Bb2 100
b5de8d03 90 3a 00   Note On(0-Off) Bb2
b5de8fec 90 3f 6d   Note On Eb3 109
b5de91da 90 3f 00   Note On(0-Off) Eb3
b5de9319 90 3f 5e   Note On Eb3 94
b5de9430 90 3f 00   Note On(0-Off) Eb3
b5de94c6 90 3d 6e   Note On C#3 110
b5de96b9 90 3d 00   Note On(0-Off) C#3
b5de9748 90 3c 7f   Note On C3 127
b5de97a7 90 3c 00   Note On(0-Off) C3
b5de9810 90 3a 47   Note On Bb2 71
b5de9c21 90 3a 00   Note On(0-Off) Bb2
b5de9d02 90 38 56   Note On Ab2 86
b5de9dd3 90 38 00   Note On(0-Off) Ab2
b5de9e3b 90 3a 67   Note On Bb2 103
b5de9eb3 90 3a 00   Note On(0-Off) Bb2
b5dea0a3 90 3d 76   Note On C#3 118
b5dea0d8 90 3e 60   Note On D3 96

b5dea101 90 3d 00   Note On(0-Off) C#3

b5dea10f 90 3e 00   Note On(0-Off) D3
b5dea278 90 3a 59   Note On Bb2 89
b5dea303 90 3a 00   Note On(0-Off) Bb2
b5dea5e8 90 3f 6e   Note On Eb3 110
b5dea830 90 3f 00   Note On(0-Off) Eb3
b5dea911 90 3f 66   Note On Eb3 102
b5dea9c9 90 3f 00   Note On(0-Off) Eb3
b5deaad3 90 3d 66   Note On C#3 102
b5deb0cb 90 3d 00   Note On(0-Off) C#3
b5deb403 90 38 4f   Note On Ab2 79
b5deb4b4 90 38 00   Note On(0-Off) Ab2
b5deb505 90 3a 45   Note On Bb2 69
b5deb586 90 3a 00   Note On(0-Off) Bb2
b5deb7f7 90 3d 6b   Note On C#3 107
b5deb8d8 90 3d 00   Note On(0-Off) C#3
b5deb989 90 3a 3e   Note On Bb2 62
b5deb9ec 90 3a 00   Note On(0-Off) Bb2
b5debcff 90 41 4d   Note On F3 77
b5debe26 90 41 00   Note On(0-Off) F3
b5debf0d 90 41 2f   Note On F3 47
b5debf96 90 41 00   Note On(0-Off) F3
b5dec46b 90 3f 64   Note On Eb3 100
b5dec5e0 90 3f 00   Note On(0-Off) Eb3
b5dec693 90 3f 40   Note On Eb3 64
b5dec703 90 3f 00   Note On(0-Off) Eb3
b5dec7d1 90 3d 64   Note On C#3 100
b5decad8 90 3d 00   Note On(0-Off) C#3
b5decf02 90 3c 7f   Note On C3 127
b5ded073 90 3c 00   Note On(0-Off) C3
b5ded135 90 3d 70   Note On C#3 112
b5ded6f7 90 3d 00   Note On(0-Off) C#3
b5ded9cc 90 35 27   Note On F2 39

b5ded9cd 90 39 31   Note On A2 49
b5ded9ec 90 29 2b   Note On F1 43
b5dedcc1 90 35 00   Note On(0-Off) F2

b5dedcc2 90 39 00   Note On(0-Off) A2
b5deddd4 90 35 3f   Note On F2 63

b5deddd4 90 39 45   Note On A2 69
b5dedde2 90 3c 7f   Note On C3 127
b5dedecf 90 29 00   Note On(0-Off) F1
b5dedfb5 90 35 00   Note On(0-Off) F2

b5dedfc5 90 3c 00   Note On(0-Off) C3

b5dedfcb 90 39 00   Note On(0-Off) A2
b5dee1d3 90 3d 59   Note On C#3 89

b5dee1db 90 3a 3f   Note On Bb2 63

b5dee1de 90 35 44   Note On F2 68

b5dee1e2 90 2e 44   Note On Bb1 68
b5dee4e1 90 2e 00   Note On(0-Off) Bb1
b5dee51a 90 3a 00   Note On(0-Off) Bb2

b5dee53e 90 3d 00   Note On(0-Off) C#3
b5dee581 90 35 00   Note On(0-Off) F2
b5dee79c 90 2b 23   Note On G1 35

b5dee7a3 90 24 1c   Note On C1 28

b5dee7a5 90 37 2f   Note On G2 47

b5dee7a6 90 3b 3a   Note On B2 58

b5dee7a7 90 34 3a   Note On E2 58
b5deec73 90 34 00   Note On(0-Off) E2
b5deecd6 90 37 00   Note On(0-Off) G2
b5deed93 90 3b 00   Note On(0-Off) B2
b5def205 90 3b 2f   Note On B2 47

b5def252 90 3e 23   Note On D3 35
b5def2c9 90 43 15   Note On G3 21
b5def4f3 90 24 00   Note On(0-Off) C1
b5def584 90 2b 00   Note On(0-Off) G1
b5def668 90 3b 00   Note On(0-Off) B2
b5def6bd 90 3e 00   Note On(0-Off) D3
b5def6ff 90 43 00   Note On(0-Off) G3
b5def9cd 90 3e 05   Note On D3 5

b5def9d3 90 43 13   Note On G3 19
b5defa11 90 47 4f   Note On B3 79

b5defa2d 90 3e 00   Note On(0-Off) D3
b5defabc 90 43 00   Note On(0-Off) G3
b5defb99 90 47 00   Note On(0-Off) B3

b5defbeb 90 2d 13   Note On A1 19
b5defc04 90 40 14   Note On E3 20

b5defc39 90 47 14   Note On B3 20
b5defe72 90 40 00   Note On(0-Off) E3

b5defeab 90 47 00   Note On(0-Off) B3
b5deff4d 90 2d 00   Note On(0-Off) A1
b5deffa8 90 48 3f   Note On C4 63
b5df0156 90 48 00   Note On(0-Off) C4
b5df058c 90 34 19   Note On E2 25

b5df059f 90 40 25   Note On E3 37
b5df05ac 90 47 13   Note On B3 19
b5df09f7 90 47 00   Note On(0-Off) B3
b5df0a96 90 40 00   Note On(0-Off) E3
b5df0acf 90 34 00   Note On(0-Off) E2
b5df0f8d 90 41 38   Note On F3 56

b5df0f8d 90 39 21   Note On A2 33
b5df1045 90 41 00   Note On(0-Off) F3
b5df108b 90 40 3a   Note On E3 58
b5df1120 90 39 00   Note On(0-Off) A2

b5df1145 90 40 00   Note On(0-Off) E3
b5df11c3 90 26 4b   Note On D1 75

b5df11d7 90 41 4d   Note On F3 77

b5df11e1 90 39 3c   Note On A2 60
b5df1346 90 2d 3d   Note On A1 61
b5df1383 90 26 00   Note On(0-Off) D1

b5df13a0 90 41 00   Note On(0-Off) F3

b5df13b1 90 39 00   Note On(0-Off) A2
b5df1452 90 2d 00   Note On(0-Off) A1
b5df150d 90 32 2b   Note On D2 43
b5df15b8 90 32 00   Note On(0-Off) D2
b5df1641 90 34 34   Note On E2 52
b5df17c4 90 35 3a   Note On F2 58
b5df17e9 90 34 00   Note On(0-Off) E2
b5df1a03 90 35 00   Note On(0-Off) F2
b5df1ae6 90 48 36   Note On C4 54
b5df1e80 90 48 00   Note On(0-Off) C4
b5df1e8b 90 3e 1a   Note On D3 26

b5df1eba 90 2b 28   Note On G1 40

b5df1ecc 90 41 3d   Note On F3 61
b5df1f2b 90 48 12   Note On C4 18
b5df2023 90 3e 00   Note On(0-Off) D3
b5df2089 90 2b 00   Note On(0-Off) G1
b5df2133 90 41 00   Note On(0-Off) F3

b5df2134 90 48 00   Note On(0-Off) C4

b5df214a 90 32 27   Note On D2 39
b5df2327 90 32 00   Note On(0-Off) D2
b5df2517 90 29 19   Note On F1 25

b5df252d 90 47 40   Note On B3 64

b5df253a 90 41 3c   Note On F3 60
b5df2541 90 3e 3a   Note On D3 58
b5df27a5 90 29 00   Note On(0-Off) F1
b5df2a00 90 45 33   Note On A3 51
b5df2a23 90 47 00   Note On(0-Off) B3
b5df2a7a 90 41 00   Note On(0-Off) F3

b5df2a93 90 3e 00   Note On(0-Off) D3

b5df2a98 90 45 00   Note On(0-Off) A3
b5df2ba4 90 28 3a   Note On E1 58

b5df2ba7 90 43 1f   Note On G3 31

b5df2ba8 90 3e 36   Note On D3 54

b5df2bba 90 3b 3c   Note On B2 60
b5df2d30 90 2f 2c   Note On B1 44

b5df2d39 90 43 00   Note On(0-Off) G3

b5df2d48 90 3e 00   Note On(0-Off) D3

b5df2d50 90 28 00   Note On(0-Off) E1

b5df2d58 90 3b 00   Note On(0-Off) B2
b5df2de3 90 2f 00   Note On(0-Off) B1
b5df2ec2 90 34 3a   Note On E2 58
b5df2f90 90 34 00   Note On(0-Off) E2
b5df3008 90 36 2f   Note On F#2 47
b5df318b 90 37 45   Note On G2 69
b5df32b4 90 36 00   Note On(0-Off) F#2
b5df3301 90 3b 42   Note On B2 66
b5df3484 90 3e 64   Note On D3 100
b5df34d6 90 3b 00   Note On(0-Off) B2
b5df35f9 90 3b 64   Note On B2 100

b5df35fb 90 3e 00   Note On(0-Off) D3
b5df3673 90 37 00   Note On(0-Off) G2
b5df3738 90 3b 00   Note On(0-Off) B2
b5df3789 90 2d 44   Note On A1 68

b5df3789 90 3b 44   Note On B2 68

b5df378d 90 3e 62   Note On D3 98

b5df3792 90 37 59   Note On G2 89
b5df3930 90 34 3f   Note On E2 63
b5df39f9 90 37 00   Note On(0-Off) G2
b5df3a3e 90 3b 00   Note On(0-Off) B2

b5df3a80 90 3e 00   Note On(0-Off) D3
b5df3c39 90 2d 00   Note On(0-Off) A1

b5df3c4c 90 34 00   Note On(0-Off) E2
b5df3ec1 90 2b 19   Note On G1 25
b5df3f53 90 37 3e   Note On G2 62
b5df3f7e 90 2e 52   Note On Bb1 82

b5df3fb6 90 2b 00   Note On(0-Off) G1

b5df3fbe 90 3a 2b   Note On Bb2 43
b5df3fcb 90 3d 40   Note On C#3 64

b5df3fda 90 40 4b   Note On E3 75
b5df4139 90 37 00   Note On(0-Off) G2
b5df423a 90 40 00   Note On(0-Off) E3

b5df4241 90 3d 00   Note On(0-Off) C#3

b5df4278 90 3a 00   Note On(0-Off) Bb2
b5df4379 90 31 3e   Note On C#2 62

b5df43ad 90 2e 00   Note On(0-Off) Bb1
b5df4471 90 3a 3c   Note On Bb2 60

b5df4473 90 37 38   Note On G2 56

b5df44c1 90 34 3d   Note On E2 61
b5df44cb 90 31 00   Note On(0-Off) C#2

b5df4516 90 3d 52   Note On C#3 82
b5df456e 90 3a 00   Note On(0-Off) Bb2

b5df4570 90 37 00   Note On(0-Off) G2
b5df45de 90 40 62   Note On E3 98

b5df45e1 90 3d 00   Note On(0-Off) C#3
b5df464a 90 40 00   Note On(0-Off) E3
b5df46f0 90 43 47   Note On G3 71
b5df4740 90 46 25   Note On Bb3 37
b5df4799 90 43 00   Note On(0-Off) G3
b5df4838 90 49 01   Note On C#4 1
b5df487b 90 46 00   Note On(0-Off) Bb3
b5df4965 90 4c 44   Note On E4 68

b5df4968 90 4d 45   Note On F4 69
b5df49b9 90 4d 00   Note On(0-Off) F4

b5df49c4 90 4c 00   Note On(0-Off) E4
b5df4a99 90 4f 69   Note On G4 105
b5df4b6b 90 52 40   Note On Bb4 64
b5df4bbd 90 4f 00   Note On(0-Off) G4

b5df4bdb 90 34 00   Note On(0-Off) E2
b5df4cb2 90 55 6e   Note On C#5 110
b5df4d04 90 52 00   Note On(0-Off) Bb4
b5df4dfb 90 55 00   Note On(0-Off) C#5

b5df4dfb 90 58 66   Note On E5 102
b5df4ebf 90 2d 44   Note On A1 68
b5df4f6c 90 58 00   Note On(0-Off) E5

b5df4f6c 90 4d 0f   Note On F4 15

b5df4f6c 90 51 31   Note On A4 49

b5df4f6c 90 32 25   Note On D2 37

b5df4fc6 90 54 4b   Note On C5 75
b5df4ffd 90 26 4b   Note On D1 75

b5df5040 90 59 5f   Note On F5 95
b5df50d6 90 2d 00   Note On(0-Off) A1
b5df5145 90 32 00   Note On(0-Off) D2
b5df51aa 90 2d 59   Note On A1 89

b5df51c9 90 26 00   Note On(0-Off) D1

b5df51dd 90 4d 00   Note On(0-Off) F4
b5df52ed 90 2d 00   Note On(0-Off) A1

b5df530e 90 32 3a   Note On D2 58
b5df5415 90 32 00   Note On(0-Off) D2

b5df544a 90 34 59   Note On E2 89
b5df55c1 90 35 49   Note On F2 73
b5df5641 90 34 00   Note On(0-Off) E2
b5df5740 90 35 00   Note On(0-Off) F2

b5df574e 90 39 45   Note On A2 69
b5df58bb 90 35 27   Note On F2 39

b5df58bd 90 39 00   Note On(0-Off) A2
b5df5a13 90 34 42   Note On E2 66
b5df5a3f 90 35 00   Note On(0-Off) F2
b5df5aaa 90 34 00   Note On(0-Off) E2
b5df5bcd 90 26 3c   Note On D1 60
b5df5c97 90 51 00   Note On(0-Off) A4
b5df5ceb 90 59 00   Note On(0-Off) F5

b5df5d02 90 54 00   Note On(0-Off) C5

b5df5d29 90 2d 28   Note On A1 40
b5df5d68 90 26 00   Note On(0-Off) D1
b5df5e99 90 2d 00   Note On(0-Off) A1

b5df5eba 90 59 66   Note On F5 102

b5df5ebd 90 54 60   Note On C5 96

b5df5eca 90 51 66   Note On A4 102

b5df5ecc 90 4d 4f   Note On F4 79

b5df5ed1 90 32 42   Note On D2 66
b5df5fb4 90 32 00   Note On(0-Off) D2

b5df5fbc 90 51 00   Note On(0-Off) A4

b5df5fc5 90 4d 00   Note On(0-Off) F4

b5df5fcb 90 59 00   Note On(0-Off) F5

b5df5fe6 90 54 00   Note On(0-Off) C5

b5df5fe9 90 34 3f   Note On E2 63
b5df614e 90 35 52   Note On F2 82

b5df6187 90 34 00   Note On(0-Off) E2

b5df618d 90 54 5b   Note On C5 91

b5df6193 90 58 5f   Note On E5 95

b5df6195 90 4d 5b   Note On F4 91
b5df619c 90 51 67   Note On A4 103
b5df629e 90 4d 00   Note On(0-Off) F4
b5df62f5 90 58 00   Note On(0-Off) E5

b5df62f6 90 35 00   Note On(0-Off) F2

b5df62f9 90 39 40   Note On A2 64

b5df6303 90 54 00   Note On(0-Off) C5

b5df632a 90 51 00   Note On(0-Off) A4
b5df6441 90 35 4d   Note On F2 77

b5df6453 90 4d 4f   Note On F4 79

b5df6453 90 56 7b   Note On D5 123

b5df645b 90 51 67   Note On A4 103
b5df648a 90 39 00   Note On(0-Off) A2
b5df6589 90 34 49   Note On E2 73
b5df65b5 90 56 00   Note On(0-Off) D5

b5df65c8 90 35 00   Note On(0-Off) F2
b5df6612 90 51 00   Note On(0-Off) A4

b5df664b 90 34 00   Note On(0-Off) E2

b5df664b 90 4d 00   Note On(0-Off) F4
b5df6722 90 2b 47   Note On G1 71
b5df672f 90 54 5f   Note On C5 95

b5df6734 90 4d 64   Note On F4 100

b5df6737 90 51 66   Note On A4 102
b5df68a6 90 32 4f   Note On D2 79
b5df690b 90 2b 00   Note On(0-Off) G1
b5df6a0b 90 32 00   Note On(0-Off) D2
b5df6a52 90 37 23   Note On G2 35

b5df6a9d 90 51 00   Note On(0-Off) A4

b5df6aa7 90 4d 00   Note On(0-Off) F4

b5df6aaa 90 54 00   Note On(0-Off) C5
b5df6b23 90 37 00   Note On(0-Off) G2
b5df6bcd 90 39 13   Note On A2 19
b5df6d4a 90 3b 3d   Note On B2 61
b5df6d87 90 39 00   Note On(0-Off) A2
b5df6ed2 90 3b 00   Note On(0-Off) B2

b5df6eec 90 3e 31   Note On D3 49
b5df705b 90 3b 3e   Note On B2 62

b5df7065 90 3e 00   Note On(0-Off) D3
b5df71cc 90 39 3d   Note On A2 61
b5df71ef 90 3b 00   Note On(0-Off) B2
b5df729f 90 39 00   Note On(0-Off) A2
b5df7356 90 4d 21   Note On F4 33

b5df7365 90 4f 13   Note On G4 19
b5df7377 90 56 3a   Note On D5 58

b5df737f 90 53 33   Note On B4 51

b5df73ac 90 2b 23   Note On G1 35
b5df73d1 90 4d 00   Note On(0-Off) F4

b5df73d2 90 4f 00   Note On(0-Off) G4
b5df7504 90 32 44   Note On D2 68

b5df7558 90 2b 00   Note On(0-Off) G1
b5df75ee 90 56 00   Note On(0-Off) D5

b5df7618 90 53 00   Note On(0-Off) B4

b5df7620 90 32 00   Note On(0-Off) D2
b5df76ab 90 37 21   Note On G2 33
b5df7755 90 37 00   Note On(0-Off) G2
b5df7807 90 39 2f   Note On A2 47
b5df795d 90 3b 52   Note On B2 82

b5df798e 90 39 00   Note On(0-Off) A2

b5df79a2 90 53 4f   Note On B4 79

b5df79a6 90 56 64   Note On D5 100
b5df7a7e 90 56 00   Note On(0-Off) D5
b5df7ab7 90 51 4b   Note On A4 75

b5df7ab9 90 53 00   Note On(0-Off) B4

b5df7ac2 90 54 52   Note On C5 82
b5df7b80 90 4f 2c   Note On G4 44
b5df7bcf 90 3b 00   Note On(0-Off) B2

b5df7be3 90 54 00   Note On(0-Off) C5

b5df7bec 90 51 00   Note On(0-Off) A4

b5df7c0a 90 4f 00   Note On(0-Off) G4
b5df7c33 90 3e 3c   Note On D3 60
b5df7cfc 90 4f 66   Note On G4 102

b5df7d09 90 3e 00   Note On(0-Off) D3

b5df7d0b 90 53 69   Note On B4 105
b5df7dfe 90 4d 3e   Note On F4 62

b5df7e0c 90 51 4f   Note On A4 79

b5df7e11 90 4f 00   Note On(0-Off) G4
b5df7e1b 90 53 00   Note On(0-Off) B4
b5df7ef7 90 4c 31   Note On E4 49

b5df7f1d 90 4d 00   Note On(0-Off) F4

b5df7f26 90 4f 4f   Note On G4 79
b5df7f55 90 51 00   Note On(0-Off) A4
b5df7fdf 90 4f 00   Note On(0-Off) G4

b5df7fe9 90 4c 00   Note On(0-Off) E4
b5df8026 90 24 6b   Note On C1 107

b5df8027 90 4d 6b   Note On F4 107
b5df8158 90 2b 3e   Note On G1 62
b5df81b2 90 24 00   Note On(0-Off) C1
b5df8296 90 2b 00   Note On(0-Off) G1
b5df82ec 90 4d 00   Note On(0-Off) F4

b5df8314 90 30 15   Note On C2 21
b5df83b3 90 30 00   Note On(0-Off) C2
b5df8493 90 32 28   Note On D2 40
b5df862d 90 34 3a   Note On E2 58
b5df8674 90 32 00   Note On(0-Off) D2
b5df87ea 90 37 3f   Note On G2 63

b5df87ec 90 34 00   Note On(0-Off) E2
b5df88ef 90 37 00   Note On(0-Off) G2
b5df894c 90 4d 56   Note On F4 86
b5df89ae 90 4d 00   Note On(0-Off) F4
b5df8b99 90 2b 04   Note On G1 4

b5df8bbc 90 30 4b   Note On C2 75

b5df8be6 90 43 34   Note On G3 52
b5df8c48 90 48 33   Note On C4 51
b5df8c80 90 4c 56   Note On E4 86

b5df8cb3 90 24 6b   Note On C1 107
b5df8db5 90 2b 00   Note On(0-Off) G1
b5df8e2d 90 30 00   Note On(0-Off) C2

b5df8e3c 90 2b 1d   Note On G1 29
b5df8e5c 90 43 00   Note On(0-Off) G3

b5df8e87 90 24 00   Note On(0-Off) C1

b5df8e93 90 4c 00   Note On(0-Off) E4

b5df8e96 90 48 00   Note On(0-Off) C4
b5df8fb7 90 2b 00   Note On(0-Off) G1
b5df8ff0 90 30 23   Note On C2 35
b5df9121 90 30 00   Note On(0-Off) C2

b5df9173 90 32 3c   Note On D2 60
b5df9307 90 34 13   Note On E2 19
b5df934e 90 32 00   Note On(0-Off) D2
b5df9481 90 37 31   Note On G2 49

b5df949d 90 34 00   Note On(0-Off) E2
b5df95f8 90 4a 49   Note On D4 73

b5df95f9 90 43 45   Note On G3 69

b5df9602 90 47 66   Note On B3 102

b5df9605 90 49 00   Note On(0-Off) C#4

b5df9608 90 2f 59   Note On B1 89

b5df961c 90 37 00   Note On(0-Off) G2
b5df9734 90 43 00   Note On(0-Off) G3

b5df9738 90 4a 00   Note On(0-Off) D4

b5df976e 90 47 00   Note On(0-Off) B3
b5df979a 90 2f 00   Note On(0-Off) B1
b5df98b9 90 2d 5e   Note On A1 94

b5df98bb 90 40 3d   Note On E3 61
b5df98c4 90 48 38   Note On C4 56

b5df98cc 90 45 4d   Note On A3 77
b5df9a0f 90 34 40   Note On E2 64
b5df9a85 90 2d 00   Note On(0-Off) A1
b5df9b4b 90 40 00   Note On(0-Off) E3
b5df9be0 90 39 3e   Note On A2 62

b5df9bf5 90 45 00   Note On(0-Off) A3

b5df9bfe 90 34 00   Note On(0-Off) E2
b5df9c15 90 48 00   Note On(0-Off) C4
b5df9c90 90 39 00   Note On(0-Off) A2
b5df9e95 90 45 70   Note On A3 112
b5df9e9a 90 40 67   Note On E3 103

b5df9e9d 90 48 67   Note On C4 103
b5df9fbf 90 40 00   Note On(0-Off) E3
b5dfa00c 90 45 00   Note On(0-Off) A3

b5dfa02a 90 48 00   Note On(0-Off) C4
b5dfa0a1 90 47 56   Note On B3 86

b5dfa0a9 90 3e 56   Note On D3 86

b5dfa0ab 90 43 4d   Note On G3 77

b5dfa0d5 90 2b 5b   Note On G1 91
b5dfa210 90 3e 00   Note On(0-Off) D3
b5dfa2a5 90 47 00   Note On(0-Off) B3

b5dfa2a5 90 43 00   Note On(0-Off) G3

b5dfa2b5 90 3e 3c   Note On D3 60
b5dfa316 90 2b 00   Note On(0-Off) G1
b5dfa43c 90 43 52   Note On G3 82

b5dfa43f 90 29 52   Note On F1 82

b5dfa441 90 47 40   Note On B3 64
b5dfa5c2 90 30 36   Note On C2 54
b5dfa615 90 29 00   Note On(0-Off) F1
b5dfa701 90 30 00   Note On(0-Off) C2
b5dfa76c 90 35 25   Note On F2 37

b5dfa7a1 90 3e 00   Note On(0-Off) D3
b5dfa7b1 90 43 00   Note On(0-Off) G3

b5dfa7f5 90 35 00   Note On(0-Off) F2

b5dfa809 90 47 00   Note On(0-Off) B3
b5dfa886 90 45 3e   Note On A3 62

b5dfa88c 90 37 14   Note On G2 20
b5dfa92e 90 45 00   Note On(0-Off) A3

b5dfa931 90 43 42   Note On G3 66
b5dfa9d5 90 39 3d   Note On A2 61

b5dfa9f9 90 45 64   Note On A3 100
b5dfaa0e 90 43 00   Note On(0-Off) G3

b5dfaa1a 90 37 00   Note On(0-Off) G2
b5dfab5f 90 39 00   Note On(0-Off) A2
b5dfacf1 90 3e 27   Note On D3 39
b5dfae31 90 40 28   Note On E3 40
b5dfae62 90 3e 00   Note On(0-Off) D3
b5dfaf77 90 45 00   Note On(0-Off) A3
b5dfaf9b 90 48 40   Note On C4 64
b5dfb0f2 90 48 00   Note On(0-Off) C4
b5dfb25d 90 40 00   Note On(0-Off) E3
b5dfb511 90 48 3a   Note On C4 58
b5dfb531 90 54 45   Note On C5 69
b5dfb729 90 54 00   Note On(0-Off) C5

b5dfb754 90 48 00   Note On(0-Off) C4
b5dfb925 90 53 42   Note On B4 66

b5dfb92e 90 47 3c   Note On B3 60
b5dfba00 90 53 00   Note On(0-Off) B4

b5dfba10 90 47 00   Note On(0-Off) B3
b5dfba9f 90 24 59   Note On C1 89
b5dfbaef 90 43 45   Note On G3 69

b5dfbaf0 90 4f 5f   Note On G4 95
b5dfbc4e 90 2b 34   Note On G1 52
b5dfbcaf 90 4f 00   Note On(0-Off) G4

b5dfbcc5 90 24 00   Note On(0-Off) C1
b5dfbd51 90 2b 00   Note On(0-Off) G1

b5dfbd5e 90 43 00   Note On(0-Off) G3
b5dfbdce 90 30 2c   Note On C2 44
b5dfbe3f 90 30 00   Note On(0-Off) C2
b5dfbf04 90 32 3a   Note On D2 58
b5dfc094 90 34 27   Note On E2 39

b5dfc0d1 90 32 00   Note On(0-Off) D2
b5dfc267 90 37 1b   Note On G2 27

b5dfc268 90 34 00   Note On(0-Off) E2
b5dfc394 90 34 49   Note On E2 73

b5dfc395 90 37 00   Note On(0-Off) G2
b5dfc4db 90 32 22   Note On D2 34

b5dfc4e7 90 34 00   Note On(0-Off) E2
b5dfc585 90 32 00   Note On(0-Off) D2
b5dfc686 90 24 60   Note On C1 96
b5dfc7e1 90 2b 2b   Note On G1 43

b5dfc81d 90 24 00   Note On(0-Off) C1
b5dfc99e 90 40 66   Note On E3 102

b5dfc99e 90 43 62   Note On G3 98

b5dfc99e 90 3b 5f   Note On B2 95

b5dfc99e 90 30 4f   Note On C2 79

b5dfc99e 90 3b 00   Note On(0-Off) B2
b5dfc9b6 90 2b 00   Note On(0-Off) G1
b5dfca4e 90 30 00   Note On(0-Off) C2
b5dfcaed 90 40 00   Note On(0-Off) E3

b5dfcaf7 90 43 00   Note On(0-Off) G3
b5dfcc6d 90 3e 69   Note On D3 105

b5dfcc6f 90 41 67   Note On F3 103
b5dfcc7e 90 25 67   Note On C#1 103

b5dfcc80 90 31 3f   Note On C#2 63
b5dfcd81 90 3e 00   Note On(0-Off) D3
b5dfcdd5 90 25 00   Note On(0-Off) C#1

b5dfcdf3 90 31 00   Note On(0-Off) C#2
b5dfcf47 90 40 64   Note On E3 100

b5dfcf75 90 41 00   Note On(0-Off) F3
b5dfcfb6 90 40 00   Note On(0-Off) E3
b5dfd0af 90 2d 44   Note On A1 68
b5dfd1b8 90 32 38   Note On D2 56
b5dfd227 90 35 45   Note On F2 69

b5dfd235 90 39 3e   Note On A2 62

b5dfd257 90 26 5e   Note On D1 94

b5dfd261 90 40 3c   Note On E3 60

b5dfd263 90 41 3c   Note On F3 60
b5dfd324 90 41 00   Note On(0-Off) F3

b5dfd32c 90 40 00   Note On(0-Off) E3
b5dfd341 90 39 00   Note On(0-Off) A2

b5dfd362 90 35 00   Note On(0-Off) F2

b5dfd37c 90 2d 00   Note On(0-Off) A1

b5dfd383 90 26 00   Note On(0-Off) D1

b5dfd384 90 32 00   Note On(0-Off) D2
b5dfd437 90 2d 38   Note On A1 56
b5dfd558 90 3e 3a   Note On D3 58

b5dfd559 90 35 5e   Note On F2 94

b5dfd55f 90 39 60   Note On A2 96
b5dfd6b5 90 32 44   Note On D2 68

b5dfd6b8 90 2d 00   Note On(0-Off) A1
b5dfd76b 90 35 00   Note On(0-Off) F2

b5dfd781 90 32 00   Note On(0-Off) D2
b5dfd839 90 34 60   Note On E2 96
b5dfd8a9 90 39 00   Note On(0-Off) A2
b5dfd8ce 90 3e 00   Note On(0-Off) D3
b5dfd994 90 35 5b   Note On F2 91
b5dfda20 90 34 00   Note On(0-Off) E2
b5dfda88 90 35 00   Note On(0-Off) F2
b5dfdb1c 90 35 5f   Note On F2 95

b5dfdb1d 90 40 5b   Note On E3 91

b5dfdb1f 90 39 62   Note On A2 98

b5dfdb23 90 3c 7f   Note On C3 127
b5dfdc6b 90 34 59   Note On E2 89
b5dfdcbf 90 35 00   Note On(0-Off) F2

b5dfdcd0 90 3c 00   Note On(0-Off) C3

b5dfdce9 90 39 00   Note On(0-Off) A2
b5dfdd2c 90 40 00   Note On(0-Off) E3

b5dfdd3d 90 34 00   Note On(0-Off) E2
b5dfddf1 90 2b 5f   Note On G1 95

b5dfddf6 90 40 40   Note On E3 64

b5dfddfa 90 35 45   Note On F2 69

b5dfddff 90 39 5f   Note On A2 95

b5dfddff 90 3c 7f   Note On C3 127
b5dfdf29 90 32 45   Note On D2 69
b5dfdf7c 90 2b 00   Note On(0-Off) G1

b5dfdf86 90 35 00   Note On(0-Off) F2

b5dfdf88 90 40 00   Note On(0-Off) E3

b5dfdf8d 90 3c 00   Note On(0-Off) C3

b5dfdfaf 90 39 00   Note On(0-Off) A2
b5dfe0a8 90 3e 44   Note On D3 68

b5dfe0ac 90 35 27   Note On F2 39

b5dfe0af 90 39 59   Note On A2 89

b5dfe0d0 90 32 00   Note On(0-Off) D2
b5dfe220 90 32 52   Note On D2 82
b5dfe2b7 90 3e 00   Note On(0-Off) D3

b5dfe2b9 90 35 00   Note On(0-Off) F2

b5dfe2f1 90 39 00   Note On(0-Off) A2
b5dfe383 90 39 3d   Note On A2 61

b5dfe384 90 35 2b   Note On F2 43
b5dfe478 90 32 00   Note On(0-Off) D2
b5dfe4d1 90 32 49   Note On D2 73

b5dfe4f1 90 35 00   Note On(0-Off) F2
b5dfe51c 90 39 00   Note On(0-Off) A2
b5dfe63e 90 39 5b   Note On A2 91

b5dfe640 90 35 5b   Note On F2 91

b5dfe64d 90 3c 7f   Note On C3 127
b5dfe71a 90 32 00   Note On(0-Off) D2
b5dfe763 90 35 00   Note On(0-Off) F2
b5dfe7dd 90 3c 00   Note On(0-Off) C3

b5dfe7e3 90 39 00   Note On(0-Off) A2
b5dfe8f7 90 24 6e   Note On C1 110

b5dfe8ff 90 37 3f   Note On G2 63

b5dfe904 90 3e 67   Note On D3 103

b5dfe906 90 3b 67   Note On B2 103
b5dfea62 90 2b 3d   Note On G1 61

b5dfea7e 90 37 00   Note On(0-Off) G2
b5dfea82 90 3e 00   Note On(0-Off) D3

b5dfea8d 90 3b 00   Note On(0-Off) B2
b5dfeae9 90 24 00   Note On(0-Off) C1
b5dfebee 90 40 4d   Note On E3 77

b5dfebf0 90 37 4d   Note On G2 77

b5dfebf2 90 3c 7f   Note On C3 127
b5dfec1a 90 2b 00   Note On(0-Off) G1

b5dfec29 90 30 69   Note On C2 105
b5dfed51 90 30 00   Note On(0-Off) C2

b5dfed7b 90 32 45   Note On D2 69
b5dfee39 90 37 00   Note On(0-Off) G2
b5dfee9f 90 3c 00   Note On(0-Off) C3
b5dfeedc 90 34 4b   Note On E2 75

b5dfeef4 90 40 00   Note On(0-Off) E3
b5dfef55 90 32 00   Note On(0-Off) D2
b5dff053 90 37 60   Note On G2 96

b5dff054 90 34 00   Note On(0-Off) E2
b5dff102 90 37 00   Note On(0-Off) G2
b5dff1c4 90 43 70   Note On G3 112
b5dff3fa 90 43 00   Note On(0-Off) G3
b5dff46f 90 24 72   Note On C1 114
b5dff48b 90 43 5e   Note On G3 94

b5dff491 90 4a 67   Note On D4 103

b5dff495 90 47 67   Note On B3 103
b5dff5da 90 2b 3c   Note On G1 60
b5dff656 90 43 00   Note On(0-Off) G3

b5dff657 90 24 00   Note On(0-Off) C1
b5dff67b 90 47 00   Note On(0-Off) B3
b5dff70f 90 4a 00   Note On(0-Off) D4
b5dff743 90 2b 00   Note On(0-Off) G1

b5dff750 90 4c 56   Note On E4 86

b5dff753 90 43 4b   Note On G3 75

b5dff755 90 48 4d   Note On C4 77

b5dff766 90 30 6b   Note On C2 107
b5dff899 90 30 00   Note On(0-Off) C2

b5dff8b3 90 43 00   Note On(0-Off) G3

b5dff8d1 90 32 3c   Note On D2 60
b5dff8f0 90 4c 00   Note On(0-Off) E4

b5dff8f2 90 48 00   Note On(0-Off) C4
b5dffa43 90 34 4b   Note On E2 75
b5dffa8a 90 32 00   Note On(0-Off) D2
b5dffb95 90 37 60   Note On G2 96
b5dffbac 90 34 00   Note On(0-Off) E2
b5dffc65 90 37 00   Note On(0-Off) G2
b5dffd1a 90 43 62   Note On G3 98

b5dffd1a 90 47 67   Note On B3 103

b5dffd21 90 4a 6b   Note On D4 107
b5dffe78 90 47 00   Note On(0-Off) B3

b5dffe8c 90 25 6e   Note On C#1 110

b5dffe9d 90 43 00   Note On(0-Off) G3
b5dffee2 90 4a 00   Note On(0-Off) D4
b5dfff78 90 25 00   Note On(0-Off) C#1
b5dffff2 90 4c 6b   Note On E4 107

b5e00014 90 26 62   Note On D1 98

b5e00027 90 43 3f   Note On G3 63

b5e00028 90 48 5b   Note On C4 91
b5e0016d 90 2d 47   Note On A1 71
b5e001c9 90 43 00   Note On(0-Off) G3

b5e001cc 90 4c 00   Note On(0-Off) E4

b5e001de 90 26 00   Note On(0-Off) D1
b5e001ea 90 48 00   Note On(0-Off) C4
b5e002c3 90 2d 00   Note On(0-Off) A1

b5e002f0 90 4a 6e   Note On D4 110

b5e002f1 90 4d 72   Note On F4 114

b5e002f3 90 32 45   Note On D2 69

b5e002f3 90 45 4b   Note On A3 75
b5e003ef 90 45 00   Note On(0-Off) A3

b5e003f6 90 4d 00   Note On(0-Off) F4

b5e003fe 90 32 00   Note On(0-Off) D2

b5e0040c 90 4a 00   Note On(0-Off) D4

b5e00410 90 34 49   Note On E2 73
b5e0054c 90 35 4b   Note On F2 75
b5e005af 90 34 00   Note On(0-Off) E2

b5e005cc 90 4a 66   Note On D4 102

b5e005ce 90 41 5f   Note On F3 95

b5e005d2 90 45 64   Note On A3 100
b5e0073d 90 39 60   Note On A2 96

b5e0075d 90 35 00   Note On(0-Off) F2
b5e00844 90 4a 00   Note On(0-Off) D4

b5e00845 90 45 00   Note On(0-Off) A3

b5e00847 90 39 00   Note On(0-Off) A2

b5e00891 90 41 00   Note On(0-Off) F3
b5e008b4 90 45 67   Note On A3 103

b5e008bc 90 41 38   Note On F3 56
b5e00a40 90 41 00   Note On(0-Off) F3
b5e00aae 90 45 00   Note On(0-Off) A3
b5e00caa 90 2b 67   Note On G1 103

b5e00cb0 90 47 66   Note On B3 102

b5e00cb3 90 4a 5b   Note On D4 91

b5e00cb5 90 44 59   Note On Ab3 89

b5e00cba 90 41 5b   Note On F3 91
b5e0114b 90 4a 00   Note On(0-Off) D4

b5e01150 90 44 00   Note On(0-Off) Ab3

b5e01152 90 2b 00   Note On(0-Off) G1

b5e0115c 90 47 00   Note On(0-Off) B3

b5e0116a 90 41 00   Note On(0-Off) F3

b5e011a8 90 4a 47   Note On D4 71

b5e011ab 90 47 4f   Note On B3 79

b5e011ab 90 44 4b   Note On Ab3 75

b5e011ac 90 41 4b   Note On F3 75
b5e0126f 90 44 00   Note On(0-Off) Ab3

b5e01271 90 41 00   Note On(0-Off) F3

b5e01272 90 47 00   Note On(0-Off) B3
b5e01280 90 4a 00   Note On(0-Off) D4
b5e01348 90 44 3e   Note On Ab3 62

b5e01349 90 41 44   Note On F3 68

b5e0134b 90 4a 5e   Note On D4 94

b5e0134d 90 47 64   Note On B3 100
b5e0141b 90 44 00   Note On(0-Off) Ab3

b5e01423 90 41 00   Note On(0-Off) F3

b5e0143e 90 4a 00   Note On(0-Off) D4

b5e0144b 90 47 00   Note On(0-Off) B3
b5e015a7 90 44 2c   Note On Ab3 44

b5e015ab 90 4c 67   Note On E4 103

b5e015b4 90 47 5e   Note On B3 94

b5e015b9 90 49 01   Note On C#4 1

b5e015bc 90 41 44   Note On F3 68
b5e016f9 90 4c 00   Note On(0-Off) E4
b5e01744 90 47 00   Note On(0-Off) B3

b5e01785 90 47 3f   Note On B3 63

b5e01799 90 4d 5e   Note On F4 94
b5e0184a 90 44 00   Note On(0-Off) Ab3

b5e0184a 90 47 00   Note On(0-Off) B3

b5e01854 90 41 00   Note On(0-Off) F3
b5e018e5 90 28 3c   Note On E1 60
b5e01949 90 2f 3f   Note On B1 63
b5e019aa 90 4d 00   Note On(0-Off) F4

b5e019d1 90 47 5f   Note On B3 95

b5e019e8 90 4a 4f   Note On D4 79

b5e019e9 90 34 72   Note On E2 114

b5e019eb 90 49 00   Note On(0-Off) C#4
b5e01a04 90 28 00   Note On(0-Off) E1

b5e01a58 90 4f 69   Note On G4 105
b5e01a79 90 28 4d   Note On E1 77
b5e01beb 90 34 00   Note On(0-Off) E2

b5e01c0c 90 4f 00   Note On(0-Off) G4

b5e01c15 90 2f 00   Note On(0-Off) B1

b5e01c1b 90 47 00   Note On(0-Off) B3

b5e01c27 90 4a 00   Note On(0-Off) D4
b5e01c63 90 2f 3d   Note On B1 61
b5e01cbb 90 28 00   Note On(0-Off) E1
b5e01d9b 90 2f 00   Note On(0-Off) B1

b5e01dd1 90 34 44   Note On E2 68

b5e01de6 90 43 5b   Note On G3 91

b5e01dea 90 47 6b   Note On B3 107

b5e01df5 90 4a 6d   Note On D4 109
b5e01ebd 90 34 00   Note On(0-Off) E2
b5e01ee5 90 43 00   Note On(0-Off) G3

b5e01ef0 90 47 00   Note On(0-Off) B3

b5e01f0c 90 4a 00   Note On(0-Off) D4

b5e01f14 90 36 15   Note On F#2 21
b5e0209c 90 38 62   Note On Ab2 98

b5e020b3 90 44 4f   Note On Ab3 79

b5e020b3 90 47 6e   Note On B3 110

b5e020b6 90 4a 6e   Note On D4 110
b5e020cf 90 36 00   Note On(0-Off) F#2
b5e0218b 90 44 00   Note On(0-Off) Ab3
b5e02210 90 3b 6e   Note On B2 110

b5e0222b 90 38 00   Note On(0-Off) Ab2
b5e02271 90 47 00   Note On(0-Off) B3
b5e022d0 90 4a 00   Note On(0-Off) D4
b5e02340 90 4c 5f   Note On E4 95

b5e02349 90 47 69   Note On B3 105

b5e02352 90 44 47   Note On Ab3 71
b5e023c5 90 3b 00   Note On(0-Off) B2
b5e02437 90 3b 64   Note On B2 100
b5e02478 90 44 00   Note On(0-Off) Ab3

b5e024b1 90 3b 00   Note On(0-Off) B2
b5e024c0 90 4c 00   Note On(0-Off) E4

b5e024c7 90 47 00   Note On(0-Off) B3
b5e02571 90 43 4d   Note On G3 77

b5e02572 90 4a 69   Note On D4 105
b5e02581 90 2d 67   Note On A1 103
b5e02683 90 34 60   Note On E2 96
b5e026ee 90 2d 00   Note On(0-Off) A1
b5e027c7 90 47 69   Note On B3 105
b5e0281c 90 4a 00   Note On(0-Off) D4

b5e02823 90 39 62   Note On A2 98

b5e02841 90 34 00   Note On(0-Off) E2
b5e028f1 90 43 00   Note On(0-Off) G3

b5e02900 90 47 00   Note On(0-Off) B3
b5e0291d 90 39 00   Note On(0-Off) A2
b5e02991 90 2e 6d   Note On Bb1 109
b5e029e8 90 49 01   Note On C#4 1

b5e029ed 90 43 52   Note On G3 82

b5e029ef 90 46 56   Note On Bb3 86

b5e029ff 90 4c 47   Note On E4 71
b5e02ac6 90 36 62   Note On F#2 98

b5e02ad4 90 43 00   Note On(0-Off) G3

b5e02adf 90 2e 00   Note On(0-Off) Bb1

b5e02af7 90 4c 00   Note On(0-Off) E4
b5e02b17 90 46 00   Note On(0-Off) Bb3

b5e02b2d 90 43 3d   Note On G3 61

b5e02b4a 90 46 66   Note On Bb3 102
b5e02bbe 90 36 00   Note On(0-Off) F#2

b5e02bcf 90 3b 64   Note On B2 100
b5e02c21 90 43 00   Note On(0-Off) G3

b5e02c24 90 46 00   Note On(0-Off) Bb3
b5e02c45 90 4c 3d   Note On E4 61

b5e02c4c 90 4d 5b   Note On F4 91

b5e02c7d 90 4d 00   Note On(0-Off) F4

b5e02ca0 90 4c 00   Note On(0-Off) E4
b5e02cd1 90 3b 00   Note On(0-Off) B2
b5e02d21 90 4f 6b   Note On G4 107

b5e02d5b 90 52 64   Note On Bb4 100
b5e02db8 90 4f 00   Note On(0-Off) G4
b5e02dfb 90 55 6d   Note On C#5 109

b5e02e33 90 56 7b   Note On D5 123
b5e02e40 90 54 6b   Note On C5 107

b5e02e4c 90 52 00   Note On(0-Off) Bb4

b5e02e84 90 54 00   Note On(0-Off) C5

b5e02e99 90 56 00   Note On(0-Off) D5

b5e02e9b 90 55 00   Note On(0-Off) C#5
b5e02ec9 90 58 56   Note On E5 86

b5e02eca 90 59 62   Note On F5 98

b5e02edd 90 2d 67   Note On A1 103

b5e02eff 90 58 00   Note On(0-Off) E5
b5e02f21 90 59 00   Note On(0-Off) F5

b5e02f34 90 32 64   Note On D2 100

b5e02f46 90 4d 4f   Note On F4 79
b5e02f69 90 53 59   Note On B4 89

b5e02f81 90 54 40   Note On C5 64

b5e02fc9 90 54 00   Note On(0-Off) C5
b5e03007 90 26 64   Note On D1 100

b5e03011 90 53 00   Note On(0-Off) B4
b5e03055 90 58 67   Note On E5 103

b5e03056 90 59 6d   Note On F5 109

b5e03067 90 2d 00   Note On(0-Off) A1

b5e0308d 90 4d 00   Note On(0-Off) F4
b5e030af 90 58 00   Note On(0-Off) E5

b5e030c4 90 59 00   Note On(0-Off) F5

b5e030df 90 32 00   Note On(0-Off) D2

b5e030fa 90 59 4b   Note On F5 75
b5e03125 90 2d 60   Note On A1 96
b5e03164 90 26 00   Note On(0-Off) D1

b5e031a1 90 58 4f   Note On E5 79

b5e031a1 90 59 00   Note On(0-Off) F5

b5e031a9 90 56 62   Note On D5 98
b5e031e3 90 2d 00   Note On(0-Off) A1

b5e031fe 90 58 00   Note On(0-Off) E5

b5e0321d 90 54 5b   Note On C5 91

b5e03220 90 32 4d   Note On D2 77
b5e03258 90 56 00   Note On(0-Off) D5

b5e03271 90 53 3d   Note On B4 61
b5e03295 90 32 00   Note On(0-Off) D2

b5e032dd 90 34 5f   Note On E2 95

b5e032df 90 53 00   Note On(0-Off) B4

b5e032e1 90 54 00   Note On(0-Off) C5
b5e03325 90 53 64   Note On B4 100
b5e0338f 90 35 62   Note On F2 98

b5e0339f 90 4f 40   Note On G4 64

b5e033a1 90 51 4f   Note On A4 79
b5e033c7 90 34 00   Note On(0-Off) E2

b5e033d0 90 53 00   Note On(0-Off) B4

b5e03415 90 39 6b   Note On A2 107

b5e03418 90 51 00   Note On(0-Off) A4

b5e03418 90 4d 62   Note On F4 98

b5e03423 90 35 00   Note On(0-Off) F2
b5e0344b 90 4f 00   Note On(0-Off) G4

b5e03489 90 4d 00   Note On(0-Off) F4
b5e0349d 90 39 00   Note On(0-Off) A2

b5e034d5 90 4c 6b   Note On E4 107
b5e0355c 90 48 47   Note On C4 71

b5e0355d 90 4a 59   Note On D4 89
b5e0355d 90 49 00   Note On(0-Off) C#4

b5e0358f 90 48 00   Note On(0-Off) C4

b5e03590 90 4c 00   Note On(0-Off) E4

b5e035c3 90 48 3e   Note On C4 62
b5e03608 90 47 4d   Note On B3 77

b5e03608 90 4a 00   Note On(0-Off) D4

b5e03669 90 48 00   Note On(0-Off) C4

b5e03669 90 47 00   Note On(0-Off) B3
b5e036ae 90 45 67   Note On A3 103
b5e03765 90 43 5f   Note On G3 95
b5e037d5 90 41 5f   Note On F3 95

b5e037da 90 45 00   Note On(0-Off) A3

b5e037da 90 2b 5e   Note On G1 94

b5e037da 90 43 00   Note On(0-Off) G3

b5e037db 90 40 62   Note On E3 98

b5e03864 90 41 00   Note On(0-Off) F3
b5e03910 90 32 3f   Note On D2 63

b5e03916 90 2b 00   Note On(0-Off) G1
b5e039eb 90 3e 67   Note On D3 103

b5e03a0d 90 40 00   Note On(0-Off) E3
b5e03acd 90 3e 00   Note On(0-Off) D3

b5e03ace 90 32 00   Note On(0-Off) D2

b5e03ad8 90 37 5f   Note On G2 95
b5e03bc0 90 37 00   Note On(0-Off) G2
b5e03bfa 90 39 49   Note On A2 73
b5e03ccb 90 48 67   Note On C4 103

b5e03ccb 90 3e 60   Note On D3 96

b5e03ccc 90 45 5b   Note On A3 91

b5e03ccc 90 41 64   Note On F3 100
b5e0406a 90 48 00   Note On(0-Off) C4

b5e040b1 90 41 00   Note On(0-Off) F3
b5e040b8 90 45 00   Note On(0-Off) A3

b5e040da 90 3e 00   Note On(0-Off) D3

b5e040f1 90 39 00   Note On(0-Off) A2
b5e0413d 90 3e 15   Note On D3 21

b5e04147 90 41 44   Note On F3 68

b5e0414c 90 47 52   Note On B3 82
b5e04320 90 3e 00   Note On(0-Off) D3
b5e0445f 90 47 00   Note On(0-Off) B3

b5e0446b 90 41 00   Note On(0-Off) F3
b5e0465b 90 41 3c   Note On F3 60

b5e0465d 90 29 3e   Note On F1 62

b5e04660 90 48 3e   Note On C4 62

b5e04665 90 43 3f   Note On G3 63

b5e04667 90 45 47   Note On A3 71
b5e047a1 90 30 25   Note On C2 37
b5e047da 90 45 00   Note On(0-Off) A3

b5e047ef 90 48 00   Note On(0-Off) C4

b5e047f1 90 41 00   Note On(0-Off) F3

b5e0480d 90 29 00   Note On(0-Off) F1

b5e04827 90 43 00   Note On(0-Off) G3
b5e048aa 90 30 00   Note On(0-Off) C2
b5e04928 90 35 15   Note On F2 21
b5e04974 90 35 00   Note On(0-Off) F2
b5e049e5 90 37 31   Note On G2 49
b5e04b15 90 39 21   Note On A2 33

b5e04b59 90 37 00   Note On(0-Off) G2
b5e04d80 90 41 3a   Note On F3 58
b5e04eb3 90 45 64   Note On A3 100
b5e04fbc 90 41 00   Note On(0-Off) F3

b5e04fc5 90 45 00   Note On(0-Off) A3
b5e0502a 90 45 3e   Note On A3 62

b5e0502b 90 41 40   Note On F3 64
b5e05303 90 39 00   Note On(0-Off) A2

b5e05356 90 43 49   Note On G3 73
b5e05384 90 45 00   Note On(0-Off) A3

b5e0539f 90 41 00   Note On(0-Off) F3
b5e05657 90 41 60   Note On F3 96
b5e056a9 90 43 00   Note On(0-Off) G3
b5e058e1 90 40 60   Note On E3 96
b5e05901 90 41 00   Note On(0-Off) F3

b5e05923 90 40 00   Note On(0-Off) E3
b5e05a58 90 2b 33   Note On G1 51
b5e05b2e 90 30 4b   Note On C2 75
b5e05bd6 90 37 18   Note On G2 24
b5e05c43 90 24 52   Note On C1 82
b5e05caf 90 40 25   Note On E3 37

b5e05cb2 90 3c 7f   Note On C3 127
b5e05f89 90 24 00   Note On(0-Off) C1

b5e05fb7 90 30 00   Note On(0-Off) C2
b5e05fd8 90 2b 00   Note On(0-Off) G1
b5e060ce 90 3c 00   Note On(0-Off) C3
b5e0612d 90 40 00   Note On(0-Off) E3
b5e06174 90 37 00   Note On(0-Off) G2
b5e2b33c 90 2b 3e   Note On G1 62

b5e2b341 90 43 3c   Note On G3 60
b5e2b3bc 90 43 00   Note On(0-Off) G3

b5e2b3c4 90 2b 00   Note On(0-Off) G1
b5e2b44d 90 43 33   Note On G3 51

b5e2b45d 90 2b 3a   Note On G1 58
b5e2b4ce 90 43 00   Note On(0-Off) G3
b5e2b4db 90 2b 00   Note On(0-Off) G1
b5e2b54d 90 43 3a   Note On G3 58

b5e2b565 90 2b 4d   Note On G1 77
b5e2b5bc 90 43 00   Note On(0-Off) G3

b5e2b5bf 90 2b 00   Note On(0-Off) G1
b5e2b62a 90 2b 3e   Note On G1 62
b5e2b66c 90 43 12   Note On G3 18

b5e2b690 90 2b 00   Note On(0-Off) G1

b5e2b6a5 90 43 00   Note On(0-Off) G3
b5e2dd5d 90 43 70   Note On G3 112
b5e2ddcd 90 43 00   Note On(0-Off) G3
b5e2de51 90 43 60   Note On G3 96
b5e2df64 90 43 00   Note On(0-Off) G3
b5e2e11c 90 43 60   Note On G3 96
b5e2e1b9 90 43 00   Note On(0-Off) G3
b5e2e23d 90 43 3f   Note On G3 63
b5e2e2b6 90 43 00   Note On(0-Off) G3
b5e2e340 90 43 45   Note On G3 69
b5e2e450 90 43 00   Note On(0-Off) G3
b5e2eb0a 90 43 49   Note On G3 73

b5e2eb4e 90 43 00   Note On(0-Off) G3
b5e2ebb1 90 43 52   Note On G3 82
b5e2ebf4 90 43 00   Note On(0-Off) G3
b5e2ec4d 90 43 5b   Note On G3 91
b5e2ecc0 90 43 00   Note On(0-Off) G3
b5e2f30c 90 43 49   Note On G3 73
b5e2f388 90 43 00   Note On(0-Off) G3
b5e2f3e6 90 43 59   Note On G3 89
b5e2f43e 90 43 00   Note On(0-Off) G3
b5e2f4a0 90 43 5f   Note On G3 95
b5e2f4fb 90 43 00   Note On(0-Off) G3
b5e2f55e 90 43 5e   Note On G3 94
b5e2f5ce 90 43 00   Note On(0-Off) G3
b5e2f643 90 43 64   Note On G3 100
b5e2f6cc 90 43 00   Note On(0-Off) G3
b5e2f75c 90 43 40   Note On G3 64
b5e2f7e1 90 43 00   Note On(0-Off) G3
b5e2f861 90 43 5f   Note On G3 95
b5e2f8ed 90 43 00   Note On(0-Off) G3
b5e2fac5 90 43 2f   Note On G3 47
b5e2fb82 90 43 00   Note On(0-Off) G3
b5e300e8 90 43 76   Note On G3 118
b5e305e9 90 43 00   Note On(0-Off) G3
b5e30887 90 43 21   Note On G3 33
b5e30959 90 43 00   Note On(0-Off) G3
b5e30a40 90 43 34   Note On G3 52
b5e30ad7 90 43 00   Note On(0-Off) G3
b5e30b4d 90 43 3d   Note On G3 61
b5e30bbe 90 43 00   Note On(0-Off) G3
b5e30c86 90 43 25   Note On G3 37
b5e30d07 90 43 00   Note On(0-Off) G3
b5e30dbb 90 43 13   Note On G3 19
b5e30e28 90 43 00   Note On(0-Off) G3
b5e30eba 90 43 40   Note On G3 64
b5e30f28 90 43 00   Note On(0-Off) G3
b5e30fdb 90 43 3d   Note On G3 61
b5e3104f 90 43 00   Note On(0-Off) G3
b5e310f7 90 43 33   Note On G3 51
b5e31136 90 43 00   Note On(0-Off) G3
b5e311ef 90 43 2c   Note On G3 44
b5e31265 90 43 00   Note On(0-Off) G3
b5e31324 90 43 28   Note On G3 40
b5e313a4 90 43 00   Note On(0-Off) G3
b5e3147c 90 43 33   Note On G3 51
b5e314fc 90 43 00   Note On(0-Off) G3
b5e315b2 90 43 3a   Note On G3 58
b5e31627 90 43 00   Note On(0-Off) G3
b5e31763 90 43 1f   Note On G3 31
b5e31805 90 43 00   Note On(0-Off) G3
b5e318d5 90 43 3a   Note On G3 58
b5e31978 90 43 00   Note On(0-Off) G3
b5e31a66 90 43 21   Note On G3 33
b5e31b11 90 43 00   Note On(0-Off) G3
b5e31c0c 90 43 15   Note On G3 21
b5e31c85 90 43 00   Note On(0-Off) G3
b5e31e5c 90 43 42   Note On G3 66
b5e31f36 90 43 00   Note On(0-Off) G3
b5e32182 90 43 5b   Note On G3 91
b5e3224d 90 43 00   Note On(0-Off) G3
b5e3239f 90 43 40   Note On G3 64
b5e3243d 90 43 00   Note On(0-Off) G3
b5e3253d 90 43 31   Note On G3 49
b5e325df 90 43 00   Note On(0-Off) G3
b5e326c8 90 43 25   Note On G3 37
b5e3277d 90 43 00   Note On(0-Off) G3
b5e3283c 90 43 3d   Note On G3 61
b5e328e1 90 43 00   Note On(0-Off) G3
b5e329ac 90 43 1f   Note On G3 31
b5e32a49 90 43 00   Note On(0-Off) G3
b5e32b3a 90 43 38   Note On G3 56
b5e32bd8 90 43 00   Note On(0-Off) G3
b5e32c78 90 43 3d   Note On G3 61
b5e32d0a 90 43 00   Note On(0-Off) G3
b5e32de6 90 43 2c   Note On G3 44
b5e32ebc 90 43 00   Note On(0-Off) G3
b5e32f50 90 43 3e   Note On G3 62
b5e32fe1 90 43 00   Note On(0-Off) G3
b5e330b6 90 43 40   Note On G3 64
b5e33156 90 43 00   Note On(0-Off) G3
b5e33218 90 43 3e   Note On G3 62
b5e332b4 90 43 00   Note On(0-Off) G3
b5e33c23 90 40 4d   Note On E3 77
b5e33c7d 90 45 56   Note On A3 86
b5e33cf0 90 47 67   Note On B3 103

b5e33d13 90 2d 45   Note On A1 69
b5e33d76 90 45 00   Note On(0-Off) A3

b5e33d7f 90 48 6b   Note On C4 107
b5e33da4 90 47 00   Note On(0-Off) B3
b5e341bd 90 48 00   Note On(0-Off) C4

b5e341d0 90 47 5b   Note On B3 91
b5e342ca 90 45 4d   Note On A3 77

b5e342e0 90 47 00   Note On(0-Off) B3
b5e34404 90 45 00   Note On(0-Off) A3

b5e34414 90 47 59   Note On B3 89

b5e34433 90 2b 5b   Note On G1 91
b5e34450 90 2d 00   Note On(0-Off) A1
b5e347ae 90 47 00   Note On(0-Off) B3

b5e347b1 90 48 64   Note On C4 100
b5e349ce 90 48 00   Note On(0-Off) C4

b5e34a12 90 29 64   Note On F1 100

b5e34a1e 90 2b 00   Note On(0-Off) G1

b5e34a28 90 43 69   Note On G3 105
b5e34a3c 90 40 00   Note On(0-Off) E3
b5e34b2a 90 43 00   Note On(0-Off) G3

b5e34b37 90 45 4f   Note On A3 79
b5e34ba5 90 45 00   Note On(0-Off) A3
b5e34c32 90 45 49   Note On A3 73
b5e34d74 90 45 00   Note On(0-Off) A3

b5e34d78 90 29 00   Note On(0-Off) F1
b5e3560f 90 45 3a   Note On A3 58
b5e356e6 90 47 67   Note On B3 103

b5e35727 90 45 00   Note On(0-Off) A3
b5e357b1 90 2d 64   Note On A1 100

b5e357b9 90 47 00   Note On(0-Off) B3

b5e357ce 90 48 6b   Note On C4 107
b5e35c57 90 47 67   Note On B3 103

b5e35c6b 90 48 00   Note On(0-Off) C4
b5e35d32 90 45 6b   Note On A3 107

b5e35d56 90 47 00   Note On(0-Off) B3
b5e35e0d 90 45 00   Note On(0-Off) A3

b5e35e1c 90 2d 00   Note On(0-Off) A1

b5e35e1d 90 2b 67   Note On G1 103

b5e35e25 90 47 6b   Note On B3 107
b5e361f4 90 47 00   Note On(0-Off) B3

b5e36230 90 2b 00   Note On(0-Off) G1
b5e36750 90 45 5f   Note On A3 95
b5e367fb 90 47 69   Note On B3 105

b5e36816 90 45 00   Note On(0-Off) A3
b5e368df 90 47 00   Note On(0-Off) B3
b5e368f0 90 48 69   Note On C4 105

b5e368fa 90 2d 6b   Note On A1 107
b5e36db7 90 48 00   Note On(0-Off) C4

b5e36db7 90 47 62   Note On B3 98
b5e36e8e 90 45 6d   Note On A3 109
b5e36e9f 90 47 00   Note On(0-Off) B3
b5e36f6a 90 45 00   Note On(0-Off) A3

b5e36f6a 90 2b 67   Note On G1 103

b5e36f6b 90 2d 00   Note On(0-Off) A1

b5e36f6b 90 47 70   Note On B3 112
b5e3740e 90 48 67   Note On C4 103

b5e37423 90 47 00   Note On(0-Off) B3
b5e3754c 90 48 00   Note On(0-Off) C4
b5e375c2 90 29 60   Note On F1 96
b5e375ca 90 43 72   Note On G3 114

b5e375db 90 2b 00   Note On(0-Off) G1
b5e37826 90 43 00   Note On(0-Off) G3

b5e3782b 90 45 5f   Note On A3 95
b5e37891 90 45 00   Note On(0-Off) A3
b5e37919 90 45 64   Note On A3 100
b5e37c96 90 45 00   Note On(0-Off) A3
b5e37d1b 90 45 62   Note On A3 98
b5e37d7a 90 45 00   Note On(0-Off) A3
b5e37dd9 90 45 62   Note On A3 98
b5e37e86 90 43 59   Note On G3 89

b5e37e97 90 45 00   Note On(0-Off) A3
b5e37f06 90 43 00   Note On(0-Off) G3
b5e37f57 90 43 42   Note On G3 66
b5e3808a 90 41 67   Note On F3 103

b5e380a9 90 43 00   Note On(0-Off) G3
b5e38125 90 29 00   Note On(0-Off) F1
b5e381aa 90 43 40   Note On G3 64

b5e381ab 90 28 4f   Note On E1 79

b5e381ae 90 41 00   Note On(0-Off) F3
b5e3876c 90 40 6e   Note On E3 110

b5e38778 90 43 00   Note On(0-Off) G3
b5e38bda 90 40 00   Note On(0-Off) E3

b5e38be0 90 2d 67   Note On A1 103

b5e38bf7 90 28 00   Note On(0-Off) E1

b5e38bf9 90 41 60   Note On F3 96
b5e38d99 90 41 00   Note On(0-Off) F3
b5e38e12 90 2d 00   Note On(0-Off) A1
b5e395c7 90 2d 5b   Note On A1 91
b5e396ad 90 2d 00   Note On(0-Off) A1
b5e3979c 90 43 5e   Note On G3 94
b5e39817 90 43 00   Note On(0-Off) G3
b5e3989a 90 43 4b   Note On G3 75
b5e398fc 90 43 00   Note On(0-Off) G3
b5e39d80 90 30 3a   Note On C2 58
b5e39e5b 90 30 00   Note On(0-Off) C2
b5e39f66 90 30 4d   Note On C2 77
b5e3a03c 90 30 00   Note On(0-Off) C2
b5e3a284 90 30 5e   Note On C2 94
b5e3a3d1 90 30 00   Note On(0-Off) C2
b5e3a79e 90 30 64   Note On C2 100
b5e3ae81 90 30 00   Note On(0-Off) C2
b5e3af83 90 30 22   Note On C2 34
b5e3b0e3 90 30 00   Note On(0-Off) C2
b5e3b1bb 90 30 40   Note On C2 64
b5e3b2b5 90 30 00   Note On(0-Off) C2
b5e3b563 90 30 0f   Note On C2 15
b5e3b670 90 30 00   Note On(0-Off) C2
b5e3dd1b 90 30 5e   Note On C2 94
b5e3e26c 90 29 5e   Note On F1 94
b5e3e2be 90 30 00   Note On(0-Off) C2
b5e3e67d 90 29 00   Note On(0-Off) F1
b5e3e82b 90 37 20   Note On G2 32
b5e3e9e9 90 37 00   Note On(0-Off) G2
b5e3f06b 90 43 70   Note On G3 112
b5e3f164 90 43 00   Note On(0-Off) G3
b5e3f1dd 90 43 66   Note On G3 102
b5e3f387 90 43 00   Note On(0-Off) G3

b5e3f3a1 90 3e 72   Note On D3 114
b5e3f483 90 43 66   Note On G3 102

b5e3f4d0 90 3e 00   Note On(0-Off) D3
b5e3f541 90 43 00   Note On(0-Off) G3
b5e3f557 90 45 42   Note On A3 66

b5e3f582 90 47 38   Note On B3 56
b5e3f5c0 90 45 00   Note On(0-Off) A3
b5e3f631 90 24 23   Note On C1 35
b5e3f67f 90 47 00   Note On(0-Off) B3

b5e3f6c6 90 2b 36   Note On G1 54
b5e3f739 90 30 64   Note On C2 100
b5e3f812 90 3e 3a   Note On D3 58

b5e3f815 90 43 42   Note On G3 66
b5e3f93b 90 2b 00   Note On(0-Off) G1

b5e3f944 90 3e 00   Note On(0-Off) D3

b5e3f962 90 30 00   Note On(0-Off) C2

b5e3f964 90 24 00   Note On(0-Off) C1

b5e3f977 90 43 00   Note On(0-Off) G3
b5e3f9d0 90 2b 40   Note On G1 64
b5e3faf4 90 2b 00   Note On(0-Off) G1

b5e3faf9 90 30 69   Note On C2 105
b5e3fb8a 90 30 00   Note On(0-Off) C2
b5e3fbe6 90 37 34   Note On G2 52
b5e3fe40 90 37 00   Note On(0-Off) G2
b5e3ff81 90 3e 67   Note On D3 103
b5e3ff87 90 37 47   Note On G2 71

b5e3ff90 90 39 4f   Note On A2 79
b5e4003e 90 3e 00   Note On(0-Off) D3

b5e40044 90 39 00   Note On(0-Off) A2
b5e40060 90 37 00   Note On(0-Off) G2
b5e400e9 90 3e 64   Note On D3 100

b5e400ec 90 39 5f   Note On A2 95

b5e400f1 90 37 52   Note On G2 82
b5e4018c 90 39 00   Note On(0-Off) A2

b5e40197 90 3e 00   Note On(0-Off) D3
b5e401b3 90 37 00   Note On(0-Off) G2
b5e40297 90 30 2c   Note On C2 44

b5e40297 90 3e 5f   Note On D3 95

b5e40297 90 24 6b   Note On C1 107

b5e40297 90 3b 6b   Note On B2 107

b5e4029f 90 37 4b   Note On G2 75
b5e40340 90 3b 00   Note On(0-Off) B2

b5e40347 90 37 00   Note On(0-Off) G2

b5e40360 90 3e 00   Note On(0-Off) D3
b5e4043a 90 37 52   Note On G2 82
b5e4043c 90 3c 7f   Note On C3 127

b5e40451 90 40 64   Note On E3 100
b5e404e0 90 3c 00   Note On(0-Off) C3

b5e404e1 90 37 00   Note On(0-Off) G2

b5e40514 90 40 00   Note On(0-Off) E3
b5e40543 90 30 00   Note On(0-Off) C2

b5e4056b 90 24 00   Note On(0-Off) C1
b5e405da 90 30 5f   Note On C2 95
b5e40641 90 37 64   Note On G2 100
b5e406d3 90 30 00   Note On(0-Off) C2

b5e406e3 90 3e 6b   Note On D3 107

b5e406ee 90 3b 6b   Note On B2 107
b5e40798 90 3b 00   Note On(0-Off) B2

b5e407a2 90 37 00   Note On(0-Off) G2

b5e407c1 90 3e 00   Note On(0-Off) D3
b5e40820 90 2b 5f   Note On G1 95

b5e40837 90 37 67   Note On G2 103

b5e40837 90 3b 6e   Note On B2 110

b5e4083a 90 3e 62   Note On D3 98
b5e40997 90 3b 00   Note On(0-Off) B2

b5e409b5 90 3e 00   Note On(0-Off) D3
b5e409d7 90 3b 3a   Note On B2 58

b5e409d8 90 40 5e   Note On E3 94

b5e40a04 90 30 60   Note On C2 96

b5e40a0c 90 3b 00   Note On(0-Off) B2
b5e40a28 90 2b 00   Note On(0-Off) G1

b5e40a47 90 37 00   Note On(0-Off) G2

b5e40a49 90 40 00   Note On(0-Off) E3

b5e40a66 90 30 00   Note On(0-Off) C2
b5e45bbf 90 3c 7f   Note On C3 127
b5e45c7c 90 3e 66   Note On D3 102

b5e45c95 90 3c 00   Note On(0-Off) C3
b5e45d4f 90 40 66   Note On E3 102

b5e45d8d 90 3e 00   Note On(0-Off) D3
b5e45e19 90 41 5e   Note On F3 94
b5e45e74 90 40 00   Note On(0-Off) E3

b5e45eb8 90 41 00   Note On(0-Off) F3
b5e45f0f 90 43 6b   Note On G3 107
b5e461c7 90 41 56   Note On F3 86

b5e461da 90 40 56   Note On E3 86
b5e461ff 90 43 00   Note On(0-Off) G3

b5e46237 90 3e 52   Note On D3 82

b5e46250 90 41 00   Note On(0-Off) F3
b5e4626c 90 40 00   Note On(0-Off) E3

b5e4627c 90 3b 67   Note On B2 103

b5e462c2 90 3e 00   Note On(0-Off) D3
b5e46334 90 3b 00   Note On(0-Off) B2
b5e46ce6 90 43 3e   Note On G3 62

b5e46cf8 90 2b 3f   Note On G1 63
b5e46d60 90 43 00   Note On(0-Off) G3
b5e46d76 90 2b 00   Note On(0-Off) G1
b5e46ded 90 43 27   Note On G3 39

b5e46dff 90 2b 23   Note On G1 35
b5e46e70 90 43 00   Note On(0-Off) G3

b5e46e73 90 2b 00   Note On(0-Off) G1
b5e46f00 90 2b 23   Note On G1 35

b5e46f0e 90 43 23   Note On G3 35
b5e46f70 90 2b 00   Note On(0-Off) G1

b5e46f8c 90 43 00   Note On(0-Off) G3
b5e47000 90 2b 22   Note On G1 34

b5e47015 90 43 38   Note On G3 56
b5e4706d 90 2b 00   Note On(0-Off) G1

b5e4708a 90 43 00   Note On(0-Off) G3
b5e47123 90 2b 2c   Note On G1 44

b5e4712d 90 43 2f   Note On G3 47
b5e4718f 90 2b 00   Note On(0-Off) G1

b5e471a1 90 43 00   Note On(0-Off) G3
b5e47232 90 2b 34   Note On G1 52

b5e47242 90 43 2b   Note On G3 43

b5e4728c 90 2b 00   Note On(0-Off) G1
b5e472a9 90 43 00   Note On(0-Off) G3
b5e47343 90 2b 3c   Note On G1 60

b5e4734b 90 43 34   Note On G3 52
b5e473a0 90 2b 00   Note On(0-Off) G1

b5e473bb 90 43 00   Note On(0-Off) G3
b5e4744a 90 2b 34   Note On G1 52

b5e4746a 90 43 2b   Note On G3 43
b5e474ac 90 2b 00   Note On(0-Off) G1

b5e474d0 90 43 00   Note On(0-Off) G3
b5e47559 90 2b 28   Note On G1 40

b5e4756b 90 43 1d   Note On G3 29
b5e475bf 90 2b 00   Note On(0-Off) G1

b5e475d6 90 43 00   Note On(0-Off) G3
b5e47660 90 2b 31   Note On G1 49

b5e4766f 90 43 22   Note On G3 34
b5e476bb 90 2b 00   Note On(0-Off) G1

b5e476cf 90 43 00   Note On(0-Off) G3
b5e4775a 90 2b 2f   Note On G1 47

b5e4776a 90 43 28   Note On G3 40
b5e477c0 90 2b 00   Note On(0-Off) G1

b5e477d0 90 43 00   Note On(0-Off) G3
b5e4785e 90 2b 3f   Note On G1 63

b5e4786f 90 43 2f   Note On G3 47
b5e478bc 90 2b 00   Note On(0-Off) G1

b5e478d5 90 43 00   Note On(0-Off) G3
b5e4796c 90 2b 3c   Note On G1 60

b5e47979 90 43 2f   Note On G3 47
b5e479ce 90 2b 00   Note On(0-Off) G1

b5e479ed 90 43 00   Note On(0-Off) G3
b5e47a6e 90 2b 3c   Note On G1 60
b5e47a84 90 43 3d   Note On G3 61

b5e47ac9 90 2b 00   Note On(0-Off) G1
b5e47af4 90 43 00   Note On(0-Off) G3
b5e47b53 90 2b 40   Note On G1 64

b5e47b93 90 43 3d   Note On G3 61
b5e47bb6 90 2b 00   Note On(0-Off) G1

b5e47c05 90 43 00   Note On(0-Off) G3
b5e47c51 90 2b 45   Note On G1 69
b5e47c90 90 43 3a   Note On G3 58

b5e47cb5 90 2b 00   Note On(0-Off) G1
b5e47cf8 90 43 00   Note On(0-Off) G3
b5e47d65 90 2b 47   Note On G1 71

b5e47d99 90 43 3e   Note On G3 62
b5e47dc6 90 2b 00   Note On(0-Off) G1
b5e47e0a 90 43 00   Note On(0-Off) G3
b5e47e7b 90 2b 4d   Note On G1 77

b5e47ea3 90 43 40   Note On G3 64
b5e47edc 90 2b 00   Note On(0-Off) G1

b5e47f12 90 43 00   Note On(0-Off) G3
b5e47f89 90 2b 4b   Note On G1 75
b5e47fa8 90 43 42   Note On G3 66

b5e47ffe 90 2b 00   Note On(0-Off) G1
b5e4801c 90 43 00   Note On(0-Off) G3
b5e48099 90 2b 40   Note On G1 64

b5e480ae 90 43 3d   Note On G3 61
b5e48109 90 2b 00   Note On(0-Off) G1

b5e48129 90 43 00   Note On(0-Off) G3
b5e481a6 90 2b 52   Note On G1 82

b5e481c7 90 43 59   Note On G3 89
b5e48218 90 2b 00   Note On(0-Off) G1

b5e4823f 90 43 00   Note On(0-Off) G3
b5e48299 90 2b 4f   Note On G1 79

b5e482c7 90 43 52   Note On G3 82
b5e48308 90 2b 00   Note On(0-Off) G1
b5e48336 90 43 00   Note On(0-Off) G3
b5e483b7 90 2b 5b   Note On G1 91

b5e483d2 90 43 52   Note On G3 82
b5e48429 90 2b 00   Note On(0-Off) G1

b5e4843f 90 43 00   Note On(0-Off) G3
b5e484d6 90 43 5f   Note On G3 95

b5e484d8 90 2b 64   Note On G1 100
b5e48540 90 2b 00   Note On(0-Off) G1

b5e48564 90 43 00   Note On(0-Off) G3
b5e485df 90 2b 64   Note On G1 100

b5e485ef 90 46 70   Note On Bb3 112
b5e48649 90 2b 00   Note On(0-Off) G1
b5e4865d 90 46 00   Note On(0-Off) Bb3
b5e486e9 90 2b 5b   Note On G1 91

b5e486fe 90 46 69   Note On Bb3 105
b5e4875d 90 2b 00   Note On(0-Off) G1

b5e48762 90 46 00   Note On(0-Off) Bb3
b5e487f8 90 2b 5b   Note On G1 91

b5e48800 90 46 6d   Note On Bb3 109
b5e4885c 90 46 00   Note On(0-Off) Bb3

b5e4885f 90 2b 00   Note On(0-Off) G1
b5e488f1 90 2b 5f   Note On G1 95

b5e488fc 90 46 66   Note On Bb3 102
b5e48958 90 46 00   Note On(0-Off) Bb3

b5e4895a 90 2b 00   Note On(0-Off) G1
b5e489f5 90 2b 5e   Note On G1 94

b5e48a07 90 46 67   Note On Bb3 103
b5e48a5b 90 2b 00   Note On(0-Off) G1

b5e48a60 90 46 00   Note On(0-Off) Bb3
b5e48af6 90 2b 66   Note On G1 102

b5e48b17 90 46 67   Note On Bb3 103
b5e48b56 90 2b 00   Note On(0-Off) G1

b5e48b6c 90 46 00   Note On(0-Off) Bb3
b5e48c05 90 2b 66   Note On G1 102

b5e48c1a 90 46 6b   Note On Bb3 107
b5e48c6c 90 2b 00   Note On(0-Off) G1

b5e48c6d 90 46 00   Note On(0-Off) Bb3
b5e48d20 90 2b 6b   Note On G1 107

b5e48d21 90 46 70   Note On Bb3 112
b5e48d7e 90 2b 00   Note On(0-Off) G1

b5e48d80 90 46 00   Note On(0-Off) Bb3
b5e48e22 90 2b 6d   Note On G1 109

b5e48e2f 90 4a 62   Note On D4 98
b5e48e83 90 2b 00   Note On(0-Off) G1
b5e48eb2 90 4a 00   Note On(0-Off) D4
b5e48f15 90 2b 62   Note On G1 98

b5e48f38 90 4a 64   Note On D4 100
b5e48f88 90 2b 00   Note On(0-Off) G1

b5e48faf 90 4a 00   Note On(0-Off) D4
b5e4902d 90 2b 62   Note On G1 98
b5e4904a 90 4a 6b   Note On D4 107

b5e4909a 90 2b 00   Note On(0-Off) G1
b5e490c3 90 4a 00   Note On(0-Off) D4
b5e4913b 90 2b 64   Note On G1 100

b5e4915b 90 4a 69   Note On D4 105
b5e491a1 90 2b 00   Note On(0-Off) G1

b5e491cf 90 4a 00   Note On(0-Off) D4
b5e49247 90 2b 60   Note On G1 96

b5e49269 90 4a 6e   Note On D4 110
b5e492a9 90 2b 00   Note On(0-Off) G1

b5e492d9 90 4a 00   Note On(0-Off) D4
b5e49355 90 2b 62   Note On G1 98
b5e4936c 90 4a 6d   Note On D4 109

b5e493bc 90 2b 00   Note On(0-Off) G1
b5e493dd 90 4a 00   Note On(0-Off) D4
b5e49469 90 2b 64   Note On G1 100

b5e49471 90 4a 6b   Note On D4 107
b5e494d7 90 2b 00   Note On(0-Off) G1

b5e494ee 90 4a 00   Note On(0-Off) D4
b5e49576 90 2b 64   Note On G1 100

b5e49579 90 4a 6b   Note On D4 107
b5e495e1 90 2b 00   Note On(0-Off) G1

b5e495f1 90 4a 00   Note On(0-Off) D4
b5e49692 90 4a 62   Note On D4 98
b5e4969d 90 2b 5f   Note On G1 95

b5e496fe 90 2b 00   Note On(0-Off) G1
b5e49706 90 4a 00   Note On(0-Off) D4
b5e49780 90 2b 4f   Note On G1 79

b5e49792 90 4a 64   Note On D4 100
b5e497f3 90 2b 00   Note On(0-Off) G1

b5e49801 90 4a 00   Note On(0-Off) D4
b5e49887 90 2b 4f   Note On G1 79

b5e49895 90 4a 56   Note On D4 86
b5e498f3 90 4a 00   Note On(0-Off) D4
b5e49900 90 2b 00   Note On(0-Off) G1
b5e49998 90 4a 5e   Note On D4 94

b5e4999e 90 2b 42   Note On G1 66
b5e49a0b 90 2b 00   Note On(0-Off) G1

b5e49a0d 90 4a 00   Note On(0-Off) D4
b5e49aab 90 2b 5f   Note On G1 95

b5e49ac1 90 4d 72   Note On F4 114
b5e49b1f 90 2b 00   Note On(0-Off) G1

b5e49b26 90 4d 00   Note On(0-Off) F4
b5e49baf 90 2b 62   Note On G1 98
b5e49bc4 90 4d 4d   Note On F4 77

b5e49c22 90 2b 00   Note On(0-Off) G1
b5e49c2d 90 4d 00   Note On(0-Off) F4
b5e49cc1 90 2b 5b   Note On G1 91

b5e49cca 90 4d 5f   Note On F4 95
b5e49d29 90 4d 00   Note On(0-Off) F4

b5e49d2c 90 2b 00   Note On(0-Off) G1
b5e49dc3 90 2b 47   Note On G1 71

b5e49dd4 90 4d 64   Note On F4 100
b5e49e33 90 2b 00   Note On(0-Off) G1

b5e49e36 90 4d 00   Note On(0-Off) F4
b5e49edd 90 2b 52   Note On G1 82

b5e49ee7 90 4d 64   Note On F4 100
b5e49f4a 90 4d 00   Note On(0-Off) F4

b5e49f52 90 2b 00   Note On(0-Off) G1
b5e49ff6 90 2b 4d   Note On G1 77

b5e49ff6 90 4d 60   Note On F4 96
b5e4a05a 90 4d 00   Note On(0-Off) F4

b5e4a05d 90 2b 00   Note On(0-Off) G1
b5e4a101 90 4d 4d   Note On F4 77

b5e4a102 90 2b 56   Note On G1 86
b5e4a161 90 4d 00   Note On(0-Off) F4

b5e4a168 90 2b 00   Note On(0-Off) G1
b5e4a216 90 2b 59   Note On G1 89
b5e4a219 90 4d 64   Note On F4 100
b5e4a283 90 2b 00   Note On(0-Off) G1

b5e4a28f 90 4d 00   Note On(0-Off) F4
b5e4a33e 90 2b 6b   Note On G1 107

b5e4a343 90 4f 74   Note On G4 116
b5e4a61e 90 4f 00   Note On(0-Off) G4
b5e4a7b6 90 4a 72   Note On D4 114
b5e4a87c 90 4a 00   Note On(0-Off) D4

b5e4a8d8 90 48 64   Note On C4 100
b5e4a956 90 48 00   Note On(0-Off) C4
b5e4abcc 90 48 6b   Note On C4 107
b5e4ac7e 90 48 00   Note On(0-Off) C4

b5e4acdb 90 46 69   Note On Bb3 105
b5e4ad73 90 46 00   Note On(0-Off) Bb3
b5e4afd4 90 48 47   Note On C4 71

b5e4afd9 90 47 56   Note On B3 86
b5e4b04a 90 47 00   Note On(0-Off) B3

b5e4b056 90 48 00   Note On(0-Off) C4
b5e4b0e0 90 46 52   Note On Bb3 82
b5e4b199 90 46 00   Note On(0-Off) Bb3
b5e4b226 90 43 72   Note On G3 114
b5e4b290 90 2b 00   Note On(0-Off) G1
b5e4b325 90 43 00   Note On(0-Off) G3
b5e4b4c7 90 2b 5f   Note On G1 95
b5e4b4cd 90 48 62   Note On C4 98
b5e4b571 90 48 00   Note On(0-Off) C4
b5e4b5e6 90 46 69   Note On Bb3 105
b5e4b6a1 90 46 00   Note On(0-Off) Bb3
b5e4b715 90 44 72   Note On Ab3 114
b5e4b77f 90 44 00   Note On(0-Off) Ab3
b5e4b7fd 90 2b 00   Note On(0-Off) G1
b5e4b9e5 90 48 62   Note On C4 98
b5e4b9f5 90 2b 33   Note On G1 51

b5e4b9fe 90 2d 3e   Note On A1 62
b5e4ba81 90 48 00   Note On(0-Off) C4

b5e4ba8d 90 2d 00   Note On(0-Off) A1
b5e4baf2 90 46 6b   Note On Bb3 107
b5e4bb8d 90 46 00   Note On(0-Off) Bb3
b5e4bc49 90 45 5e   Note On A3 94
b5e4bc9c 90 2b 00   Note On(0-Off) G1
b5e4bcf3 90 45 00   Note On(0-Off) A3
b5e4bf3c 90 41 67   Note On F3 103
b5e4bfdc 90 41 00   Note On(0-Off) F3
b5e4c0a7 90 27 52   Note On Eb1 82

b5e4c0ad 90 43 6d   Note On G3 109

b5e4c0b8 90 33 45   Note On Eb2 69
b5e4c1f4 90 43 00   Note On(0-Off) G3
b5e4c304 90 43 64   Note On G3 100
b5e4c391 90 43 00   Note On(0-Off) G3
b5e4c40f 90 4a 70   Note On D4 112
b5e4c49d 90 4a 00   Note On(0-Off) D4
b5e4c545 90 48 59   Note On C4 89
b5e4c560 90 27 00   Note On(0-Off) Eb1

b5e4c56b 90 33 00   Note On(0-Off) Eb2
b5e4c607 90 48 00   Note On(0-Off) C4
b5e4c789 90 46 76   Note On Bb3 118
b5e4c898 90 46 00   Note On(0-Off) Bb3
b5e4c9d8 90 45 69   Note On A3 105

b5e4c9d9 90 29 60   Note On F1 96

b5e4c9d9 90 35 52   Note On F2 82
b5e4cadb 90 45 00   Note On(0-Off) A3
b5e4cc03 90 45 70   Note On A3 112
b5e4cc81 90 45 00   Note On(0-Off) A3
b5e4cd73 90 45 6b   Note On A3 107
b5e4cde5 90 45 00   Note On(0-Off) A3
b5e4ce6b 90 48 70   Note On C4 112
b5e4cf2a 90 29 00   Note On(0-Off) F1
b5e4cf61 90 35 00   Note On(0-Off) F2

b5e4cf72 90 48 00   Note On(0-Off) C4
b5e4d07e 90 46 70   Note On Bb3 112
b5e4d17b 90 46 00   Note On(0-Off) Bb3

b5e4d17b 90 45 62   Note On A3 98
b5e4d2a5 90 45 00   Note On(0-Off) A3

b5e4d2a5 90 2b 64   Note On G1 100

b5e4d2a5 90 37 4b   Note On G2 75

b5e4d2a7 90 43 69   Note On G3 105
b5e4d387 90 43 00   Note On(0-Off) G3
b5e4d42b 90 43 56   Note On G3 86
b5e4d48d 90 2b 00   Note On(0-Off) G1

b5e4d494 90 43 00   Note On(0-Off) G3

b5e4d498 90 37 00   Note On(0-Off) G2
b5e4d5e5 90 52 66   Note On Bb4 102

b5e4d60f 90 32 66   Note On D2 102
b5e4d6a9 90 52 00   Note On(0-Off) Bb4
b5e4d703 90 37 6b   Note On G2 107

b5e4d70a 90 51 6b   Note On A4 107
b5e4d73d 90 32 00   Note On(0-Off) D2
b5e4d7a4 90 51 00   Note On(0-Off) A4

b5e4d7c7 90 37 00   Note On(0-Off) G2
b5e4d805 90 52 66   Note On Bb4 102
b5e4d8f2 90 52 00   Note On(0-Off) Bb4
b5e4d929 90 51 52   Note On A4 82
b5e4da0f 90 52 3f   Note On Bb4 63

b5e4da14 90 51 00   Note On(0-Off) A4
b5e4dad6 90 52 00   Note On(0-Off) Bb4
b5e4db30 90 2b 52   Note On G1 82

b5e4db33 90 4a 66   Note On D4 102
b5e4dc1a 90 4a 00   Note On(0-Off) D4
b5e4dd1e 90 2b 00   Note On(0-Off) G1
b5e4de89 90 51 5f   Note On A4 95

b5e4dece 90 51 00   Note On(0-Off) A4
b5e4dfb4 90 51 67   Note On A4 103

b5e4dfc0 90 37 5f   Note On G2 95
b5e4e05c 90 51 00   Note On(0-Off) A4
b5e4e0a3 90 37 00   Note On(0-Off) G2

b5e4e0c4 90 52 52   Note On Bb4 82
b5e4e18d 90 52 00   Note On(0-Off) Bb4
b5e4e1fa 90 51 3d   Note On A4 61
b5e4e2e8 90 51 00   Note On(0-Off) A4

b5e4e2e9 90 52 40   Note On Bb4 64
b5e4e350 90 52 00   Note On(0-Off) Bb4
b5e4e42a 90 46 4f   Note On Bb3 79

b5e4e42c 90 43 5e   Note On G3 94

b5e4e42d 90 27 5f   Note On Eb1 95

b5e4e43c 90 33 4f   Note On Eb2 79

b5e4e444 90 46 00   Note On(0-Off) Bb3

b5e4e453 90 45 49   Note On A3 73
b5e4e493 90 45 00   Note On(0-Off) A3

b5e4e4bb 90 43 00   Note On(0-Off) G3
b5e4e5e8 90 46 4b   Note On Bb3 75

b5e4e5e9 90 43 4d   Note On G3 77
b5e4e661 90 27 00   Note On(0-Off) Eb1
b5e4e674 90 33 00   Note On(0-Off) Eb2

b5e4e69d 90 43 00   Note On(0-Off) G3

b5e4e6c1 90 46 00   Note On(0-Off) Bb3
b5e4e772 90 46 4f   Note On Bb3 79

b5e4e779 90 43 4d   Note On G3 77

b5e4e78c 90 33 5e   Note On Eb2 94
b5e4e7fb 90 46 00   Note On(0-Off) Bb3
b5e4e806 90 43 00   Note On(0-Off) G3

b5e4e814 90 33 00   Note On(0-Off) Eb2
b5e4e8c0 90 43 5f   Note On G3 95

b5e4e8c1 90 46 6d   Note On Bb3 109

b5e4e8c7 90 27 52   Note On Eb1 82

b5e4e8cb 90 4a 60   Note On D4 96
b5e4e8d0 90 33 60   Note On Eb2 96
b5e4e943 90 46 00   Note On(0-Off) Bb3

b5e4e964 90 43 00   Note On(0-Off) G3

b5e4e96e 90 4a 00   Note On(0-Off) D4
b5e4ea73 90 46 6b   Note On Bb3 107

b5e4ea7a 90 43 59   Note On G3 89

b5e4ea7c 90 4a 70   Note On D4 112

b5e4ea86 90 33 00   Note On(0-Off) Eb2

b5e4ea8c 90 27 00   Note On(0-Off) Eb1
b5e4eafb 90 43 00   Note On(0-Off) G3

b5e4eb0c 90 4a 00   Note On(0-Off) D4

b5e4eb1f 90 46 00   Note On(0-Off) Bb3
b5e4ebcc 90 4a 64   Note On D4 100

b5e4ebce 90 46 4d   Note On Bb3 77

b5e4ebcf 90 33 52   Note On Eb2 82

b5e4ebd0 90 27 64   Note On Eb1 100

b5e4ebd1 90 43 3e   Note On G3 62
b5e4ec36 90 33 00   Note On(0-Off) Eb2

b5e4ec39 90 27 00   Note On(0-Off) Eb1

b5e4ec4a 90 4a 00   Note On(0-Off) D4

b5e4ec4c 90 46 00   Note On(0-Off) Bb3

b5e4ec56 90 43 00   Note On(0-Off) G3
b5e4ed1c 90 45 64   Note On A3 100

b5e4ed20 90 41 5f   Note On F3 95

b5e4ed21 90 48 62   Note On C4 98
b5e4ed3f 90 35 3e   Note On F2 62

b5e4ed43 90 29 6b   Note On F1 107

b5e4ed47 90 34 4b   Note On E2 75
b5e4eda4 90 45 00   Note On(0-Off) A3

b5e4eda6 90 34 00   Note On(0-Off) E2

b5e4edd1 90 41 00   Note On(0-Off) F3
b5e4ee24 90 48 00   Note On(0-Off) C4
b5e4eefb 90 45 62   Note On A3 98

b5e4eefc 90 48 5e   Note On C4 94

b5e4ef01 90 41 52   Note On F3 82
b5e4ef85 90 45 00   Note On(0-Off) A3
b5e4ef86 90 41 00   Note On(0-Off) F3

b5e4efa0 90 48 00   Note On(0-Off) C4

b5e4efb3 90 29 00   Note On(0-Off) F1

b5e4efbf 90 35 00   Note On(0-Off) F2
b5e4f053 90 48 52   Note On C4 82

b5e4f05e 90 45 49   Note On A3 73

b5e4f061 90 41 3a   Note On F3 58

b5e4f065 90 29 62   Note On F1 98

b5e4f068 90 35 49   Note On F2 73
b5e4f0c8 90 41 00   Note On(0-Off) F3

b5e4f0cf 90 45 00   Note On(0-Off) A3

b5e4f0e4 90 48 00   Note On(0-Off) C4

b5e4f0e8 90 29 00   Note On(0-Off) F1

b5e4f0ec 90 35 00   Note On(0-Off) F2
b5e4f1ac 90 4a 6e   Note On D4 110

b5e4f1af 90 43 66   Note On G3 102

b5e4f1b2 90 46 70   Note On Bb3 112

b5e4f1b5 90 35 5b   Note On F2 91

b5e4f1b6 90 29 60   Note On F1 96
b5e4f236 90 43 00   Note On(0-Off) G3

b5e4f238 90 46 00   Note On(0-Off) Bb3
b5e4f26e 90 4a 00   Note On(0-Off) D4

b5e4f28a 90 35 00   Note On(0-Off) F2

b5e4f293 90 29 00   Note On(0-Off) F1
b5e4f378 90 29 64   Note On F1 100
b5e4f37a 90 35 64   Note On F2 100

b5e4f380 90 43 5f   Note On G3 95

b5e4f381 90 4a 6b   Note On D4 107

b5e4f384 90 46 67   Note On Bb3 103
b5e4f40e 90 43 00   Note On(0-Off) G3

b5e4f410 90 46 00   Note On(0-Off) Bb3

b5e4f420 90 4a 00   Note On(0-Off) D4

b5e4f426 90 29 00   Note On(0-Off) F1

b5e4f427 90 35 00   Note On(0-Off) F2
b5e4f4e4 90 46 67   Note On Bb3 103

b5e4f4eb 90 43 60   Note On G3 96

b5e4f4ec 90 4a 72   Note On D4 114

b5e4f4ed 90 29 49   Note On F1 73

b5e4f4f0 90 35 4d   Note On F2 77
b5e4f560 90 29 00   Note On(0-Off) F1

b5e4f561 90 46 00   Note On(0-Off) Bb3

b5e4f566 90 43 00   Note On(0-Off) G3

b5e4f570 90 35 00   Note On(0-Off) F2
b5e4f57b 90 4a 00   Note On(0-Off) D4
b5e4f646 90 2b 60   Note On G1 96

b5e4f647 90 37 67   Note On G2 103

b5e4f64a 90 43 64   Note On G3 100

b5e4f64b 90 45 66   Note On A3 102

b5e4f653 90 4d 67   Note On F4 103

b5e4f656 90 4f 6b   Note On G4 107
b5e4f6be 90 4f 00   Note On(0-Off) G4

b5e4f6d0 90 43 00   Note On(0-Off) G3

b5e4f6d6 90 45 00   Note On(0-Off) A3

b5e4f6ee 90 4d 00   Note On(0-Off) F4
b5e4f794 90 37 00   Note On(0-Off) G2

b5e4f798 90 2b 00   Note On(0-Off) G1
b5e4f862 90 4d 5b   Note On F4 91

b5e4f866 90 46 69   Note On Bb3 105

b5e4f86e 90 43 4f   Note On G3 79

b5e4f881 90 37 3c   Note On G2 60

b5e4f886 90 32 5f   Note On D2 95

b5e4f889 90 2b 3f   Note On G1 63
b5e4f94e 90 43 00   Note On(0-Off) G3

b5e4f957 90 46 00   Note On(0-Off) Bb3

b5e4f95e 90 4d 00   Note On(0-Off) F4
b5e4f984 90 2b 00   Note On(0-Off) G1

b5e4f98c 90 32 00   Note On(0-Off) D2

b5e4f9a4 90 37 00   Note On(0-Off) G2

b5e4f9bb 90 4a 6e   Note On D4 110

b5e4f9c4 90 43 33   Note On G3 51
b5e4f9cd 90 37 4d   Note On G2 77

b5e4f9cf 90 2b 59   Note On G1 89

b5e4f9d1 90 32 6b   Note On D2 107

b5e4f9d5 90 46 4d   Note On Bb3 77
b5e4fa45 90 46 00   Note On(0-Off) Bb3
b5e4fb4b 90 43 00   Note On(0-Off) G3

b5e4fb5b 90 4a 00   Note On(0-Off) D4
b5e4fb6c 90 32 00   Note On(0-Off) D2

b5e4fb7c 90 37 00   Note On(0-Off) G2

b5e4fb80 90 2b 00   Note On(0-Off) G1
b5e4fbce 90 46 56   Note On Bb3 86

b5e4fbda 90 32 64   Note On D2 100

b5e4fbde 90 43 47   Note On G3 71

b5e4fbdf 90 37 4f   Note On G2 79

b5e4fbe5 90 2b 3d   Note On G1 61
b5e4fc6b 90 2b 00   Note On(0-Off) G1

b5e4fc90 90 43 00   Note On(0-Off) G3
b5e4fc9a 90 46 00   Note On(0-Off) Bb3

b5e4fc9e 90 37 00   Note On(0-Off) G2

b5e4fca7 90 32 00   Note On(0-Off) D2

b5e4fcc8 90 4a 18   Note On D4 24

b5e4fcf5 90 2b 42   Note On G1 66

b5e4fcf7 90 43 3f   Note On G3 63
b5e4fcfb 90 32 66   Note On D2 102

b5e4fcfd 90 37 52   Note On G2 82

b5e4fd06 90 46 2c   Note On Bb3 44
b5e4fd9d 90 4a 00   Note On(0-Off) D4

b5e4fda8 90 2b 00   Note On(0-Off) G1

b5e4fdaa 90 43 00   Note On(0-Off) G3

b5e4fdb4 90 32 00   Note On(0-Off) D2

b5e4fdbb 90 37 00   Note On(0-Off) G2

b5e4fdc2 90 46 00   Note On(0-Off) Bb3
b5e4fe1c 90 43 67   Note On G3 103

b5e4fe1c 90 46 3e   Note On Bb3 62

b5e4fe28 90 4a 67   Note On D4 103
b5e4fe2c 90 2b 52   Note On G1 82

b5e4fe2f 90 37 67   Note On G2 103

b5e4fe2f 90 32 64   Note On D2 100

b5e4fe5d 90 4a 00   Note On(0-Off) D4

b5e4fe67 90 46 00   Note On(0-Off) Bb3
b5e4fed0 90 2b 00   Note On(0-Off) G1

b5e4fed3 90 32 00   Note On(0-Off) D2

b5e4fed4 90 37 00   Note On(0-Off) G2
b5e4ff20 90 46 3f   Note On Bb3 63

b5e4ff24 90 2b 56   Note On G1 86

b5e4ff28 90 4f 52   Note On G4 82

b5e4ff2a 90 4a 5b   Note On D4 91

b5e4ff30 90 32 67   Note On D2 103

b5e4ff32 90 37 56   Note On G2 86
b5e4ffb7 90 2b 00   Note On(0-Off) G1

b5e4ffbf 90 46 00   Note On(0-Off) Bb3
b5e4ffc5 90 37 00   Note On(0-Off) G2

b5e4ffcb 90 32 00   Note On(0-Off) D2

b5e4ffd0 90 4a 00   Note On(0-Off) D4

b5e4ffeb 90 43 00   Note On(0-Off) G3
b5e50039 90 4f 00   Note On(0-Off) G4
b5e5013b 90 27 6b   Note On Eb1 107

b5e5014c 90 33 72   Note On Eb2 114
b5e5025c 90 33 00   Note On(0-Off) Eb2

b5e50278 90 27 00   Note On(0-Off) Eb1
b5e5034e 90 35 59   Note On F2 89

b5e50350 90 29 6e   Note On F1 110
b5e50492 90 29 00   Note On(0-Off) F1

b5e504a8 90 35 00   Note On(0-Off) F2
b5e50566 90 2b 56   Note On G1 86

b5e50567 90 37 64   Note On G2 100
b5e50627 90 2b 00   Note On(0-Off) G1

b5e50637 90 37 00   Note On(0-Off) G2
b5e5079c 90 27 5e   Note On Eb1 94
b5e507ae 90 33 6b   Note On Eb2 107

b5e507c7 90 48 42   Note On C4 66

b5e50802 90 48 00   Note On(0-Off) C4
b5e50940 90 48 3e   Note On C4 62
b5e509be 90 48 00   Note On(0-Off) C4
b5e50ac5 90 48 64   Note On C4 100
b5e50b4e 90 48 00   Note On(0-Off) C4
b5e50c02 90 48 70   Note On C4 112
b5e50d38 90 27 00   Note On(0-Off) Eb1

b5e50d5c 90 33 00   Note On(0-Off) Eb2

b5e50d7b 90 48 00   Note On(0-Off) C4
b5e50d97 90 4a 66   Note On D4 102
b5e50ec7 90 4a 00   Note On(0-Off) D4

b5e50f22 90 46 62   Note On Bb3 98
b5e50fab 90 46 00   Note On(0-Off) Bb3
b5e5105b 90 29 5b   Note On F1 91

b5e51066 90 45 67   Note On A3 103

b5e51069 90 35 44   Note On F2 68
b5e51207 90 46 59   Note On Bb3 89

b5e5120a 90 45 00   Note On(0-Off) A3
b5e51394 90 45 64   Note On A3 100

b5e5139a 90 46 00   Note On(0-Off) Bb3
b5e51448 90 45 00   Note On(0-Off) A3
b5e51451 90 29 00   Note On(0-Off) F1

b5e5146a 90 35 00   Note On(0-Off) F2
b5e514dd 90 29 4d   Note On F1 77

b5e514e7 90 35 3c   Note On F2 60

b5e514fb 90 43 6d   Note On G3 109
b5e5161c 90 43 00   Note On(0-Off) G3
b5e51690 90 45 6e   Note On A3 110
b5e516c9 90 29 00   Note On(0-Off) F1
b5e51728 90 35 00   Note On(0-Off) F2
b5e517fd 90 43 60   Note On G3 96

b5e51806 90 45 00   Note On(0-Off) A3
b5e518fd 90 43 00   Note On(0-Off) G3
b5e5194b 90 2b 62   Note On G1 98

b5e51956 90 37 47   Note On G2 71

b5e51963 90 41 6d   Note On F3 109
b5e51b20 90 43 4d   Note On G3 77

b5e51b34 90 41 00   Note On(0-Off) F3
b5e51b7a 90 2b 00   Note On(0-Off) G1

b5e51b86 90 37 00   Note On(0-Off) G2

b5e51bad 90 43 00   Note On(0-Off) G3
b5e51c69 90 37 3f   Note On G2 63
b5e51cea 90 43 47   Note On G3 71
b5e51d63 90 37 00   Note On(0-Off) G2
b5e51ecd 90 43 00   Note On(0-Off) G3
b5e51efa 90 37 3f   Note On G2 63
b5e51ffe 90 37 00   Note On(0-Off) G2
b5e520e2 90 37 47   Note On G2 71
b5e5219e 90 37 00   Note On(0-Off) G2
b5e52283 90 29 5f   Note On F1 95
b5e5228d 90 35 3d   Note On F2 61

b5e522c9 90 3b 6e   Note On B2 110

b5e522cd 90 3e 52   Note On D3 82

b5e522cf 90 43 4d   Note On G3 77

b5e522d6 90 3f 4f   Note On Eb3 79
b5e522ea 90 3f 00   Note On(0-Off) Eb3

b5e522ec 90 3e 00   Note On(0-Off) D3

b5e52304 90 3b 00   Note On(0-Off) B2

b5e52309 90 43 00   Note On(0-Off) G3
b5e523b4 90 39 3f   Note On A2 63

b5e523ba 90 41 3d   Note On F3 61
b5e5248e 90 39 00   Note On(0-Off) A2

b5e52493 90 29 00   Note On(0-Off) F1

b5e524bd 90 41 00   Note On(0-Off) F3

b5e524cc 90 35 00   Note On(0-Off) F2
b5e52569 90 37 40   Note On G2 64

b5e52579 90 44 67   Note On Ab3 103

b5e5257a 90 2b 3c   Note On G1 60

b5e5257e 90 3e 67   Note On D3 103

b5e5258e 90 3a 49   Note On Bb2 73

b5e525a1 90 3e 00   Note On(0-Off) D3
b5e525c7 90 44 00   Note On(0-Off) Ab3

b5e525d0 90 3a 00   Note On(0-Off) Bb2

b5e525fb 90 2b 00   Note On(0-Off) G1

b5e52600 90 37 00   Note On(0-Off) G2
b5e526fb 90 3a 4f   Note On Bb2 79

b5e526fe 90 3e 67   Note On D3 103

b5e52700 90 43 5b   Note On G3 91

b5e5270c 90 37 64   Note On G2 100

b5e5270d 90 2b 64   Note On G1 100
b5e528eb 90 3a 00   Note On(0-Off) Bb2

b5e528fc 90 3e 00   Note On(0-Off) D3

b5e52913 90 43 00   Note On(0-Off) G3
b5e52bff 90 52 76   Note On Bb4 118
b5e52caa 90 52 00   Note On(0-Off) Bb4
b5e52d18 90 51 70   Note On A4 112
b5e52de1 90 51 00   Note On(0-Off) A4
b5e52e26 90 52 72   Note On Bb4 114
b5e52f23 90 52 00   Note On(0-Off) Bb4
b5e52f32 90 51 69   Note On A4 105
b5e5304b 90 2b 00   Note On(0-Off) G1

b5e5305f 90 52 72   Note On Bb4 114
b5e53073 90 51 00   Note On(0-Off) A4

b5e53088 90 37 00   Note On(0-Off) G2
b5e530d1 90 52 00   Note On(0-Off) Bb4
b5e53196 90 2b 4f   Note On G1 79

b5e5319a 90 37 3e   Note On G2 62

b5e531bc 90 43 5f   Note On G3 95
b5e5328b 90 43 00   Note On(0-Off) G3
b5e53343 90 43 6b   Note On G3 107
b5e53390 90 2b 00   Note On(0-Off) G1

b5e533a5 90 37 00   Note On(0-Off) G2

b5e533ac 90 43 00   Note On(0-Off) G3
b5e534df 90 52 72   Note On Bb4 114

b5e534fd 90 2b 52   Note On G1 82

b5e53504 90 37 5e   Note On G2 94
b5e5355f 90 52 00   Note On(0-Off) Bb4
b5e5359e 90 2b 00   Note On(0-Off) G1

b5e535a2 90 37 00   Note On(0-Off) G2
b5e53607 90 2b 56   Note On G1 86

b5e53609 90 37 49   Note On G2 73

b5e5360b 90 51 6d   Note On A4 109
b5e536d7 90 37 00   Note On(0-Off) G2

b5e536d9 90 2b 00   Note On(0-Off) G1

b5e536df 90 51 00   Note On(0-Off) A4

b5e53713 90 52 4b   Note On Bb4 75
b5e53848 90 51 45   Note On A4 69

b5e53861 90 52 00   Note On(0-Off) Bb4
b5e5396d 90 52 64   Note On Bb4 100
b5e53979 90 51 00   Note On(0-Off) A4

b5e539cd 90 52 00   Note On(0-Off) Bb4
b5e53ac5 90 27 64   Note On Eb1 100

b5e53ac6 90 46 74   Note On Bb3 116

b5e53ac7 90 43 67   Note On G3 103

b5e53ac9 90 33 47   Note On Eb2 71
b5e53b74 90 46 00   Note On(0-Off) Bb3

b5e53b84 90 43 00   Note On(0-Off) G3
b5e53c89 90 43 69   Note On G3 105

b5e53c8a 90 46 74   Note On Bb3 116
b5e53d21 90 33 00   Note On(0-Off) Eb2

b5e53d27 90 43 00   Note On(0-Off) G3

b5e53d3f 90 27 00   Note On(0-Off) Eb1

b5e53d53 90 46 00   Note On(0-Off) Bb3
b5e53e03 90 43 5b   Note On G3 91

b5e53e04 90 46 62   Note On Bb3 98

b5e53e16 90 33 49   Note On Eb2 73
b5e53e80 90 43 00   Note On(0-Off) G3

b5e53e84 90 46 00   Note On(0-Off) Bb3
b5e53ea7 90 33 00   Note On(0-Off) Eb2
b5e53fbd 90 46 72   Note On Bb3 114

b5e53fbe 90 27 5f   Note On Eb1 95

b5e53fbe 90 41 64   Note On F3 100

b5e53fbe 90 33 60   Note On Eb2 96

b5e53fbe 90 4a 69   Note On D4 105
b5e5403b 90 46 00   Note On(0-Off) Bb3

b5e5403c 90 41 00   Note On(0-Off) F3

b5e54048 90 4a 00   Note On(0-Off) D4
b5e54119 90 46 6b   Note On Bb3 107

b5e5411b 90 41 59   Note On F3 89

b5e54144 90 4a 69   Note On D4 105

b5e54144 90 33 00   Note On(0-Off) Eb2

b5e54144 90 27 00   Note On(0-Off) Eb1
b5e541d9 90 41 00   Note On(0-Off) F3

b5e541d9 90 46 00   Note On(0-Off) Bb3

b5e541da 90 4a 00   Note On(0-Off) D4
b5e5429b 90 33 4f   Note On Eb2 79

b5e5429c 90 46 67   Note On Bb3 103

b5e5429e 90 27 56   Note On Eb1 86

b5e542a0 90 41 64   Note On F3 100

b5e542a4 90 4a 6d   Note On D4 109
b5e54307 90 33 00   Note On(0-Off) Eb2

b5e54308 90 27 00   Note On(0-Off) Eb1

b5e54313 90 41 00   Note On(0-Off) F3

b5e54321 90 46 00   Note On(0-Off) Bb3

b5e54322 90 4a 00   Note On(0-Off) D4
b5e54403 90 41 5b   Note On F3 91

b5e54403 90 48 6b   Note On C4 107

b5e54403 90 45 67   Note On A3 103

b5e54403 90 35 52   Note On F2 82

b5e54403 90 29 66   Note On F1 102

b5e54485 90 41 00   Note On(0-Off) F3

b5e54487 90 45 00   Note On(0-Off) A3
b5e544c2 90 48 00   Note On(0-Off) C4
b5e54554 90 35 00   Note On(0-Off) F2

b5e5456c 90 29 00   Note On(0-Off) F1
b5e545b6 90 41 4d   Note On F3 77

b5e545b6 90 45 62   Note On A3 98

b5e545b6 90 48 66   Note On C4 102

b5e545e3 90 35 62   Note On F2 98

b5e545f6 90 29 5b   Note On F1 91
b5e54649 90 41 00   Note On(0-Off) F3

b5e5464c 90 45 00   Note On(0-Off) A3

b5e54657 90 48 00   Note On(0-Off) C4
b5e546ec 90 35 00   Note On(0-Off) F2

b5e546f1 90 29 00   Note On(0-Off) F1
b5e5475e 90 41 5b   Note On F3 91

b5e5475f 90 48 5b   Note On C4 91

b5e54761 90 45 5e   Note On A3 94

b5e5476d 90 35 5e   Note On F2 94

b5e54775 90 29 5e   Note On F1 94
b5e547d0 90 45 00   Note On(0-Off) A3

b5e547d2 90 41 00   Note On(0-Off) F3

b5e547df 90 48 00   Note On(0-Off) C4

b5e5481d 90 29 00   Note On(0-Off) F1

b5e5481e 90 35 00   Note On(0-Off) F2
b5e54896 90 29 64   Note On F1 100

b5e54899 90 35 4d   Note On F2 77
b5e548b4 90 45 69   Note On A3 105

b5e548b5 90 48 70   Note On C4 112

b5e548b6 90 4d 76   Note On F4 118
b5e5496e 90 29 00   Note On(0-Off) F1

b5e54970 90 35 00   Note On(0-Off) F2

b5e549a8 90 48 00   Note On(0-Off) C4

b5e549bf 90 4d 00   Note On(0-Off) F4

b5e549ca 90 45 00   Note On(0-Off) A3
b5e549f4 90 35 5f   Note On F2 95

b5e549fb 90 29 62   Note On F1 98
b5e54a3c 90 48 69   Note On C4 105

b5e54a3d 90 4d 72   Note On F4 114

b5e54a40 90 45 69   Note On A3 105

b5e54a94 90 35 00   Note On(0-Off) F2

b5e54a97 90 29 00   Note On(0-Off) F1
b5e54ab8 90 48 00   Note On(0-Off) C4

b5e54aba 90 45 00   Note On(0-Off) A3

b5e54abb 90 4d 00   Note On(0-Off) F4

b5e54b06 90 29 67   Note On F1 103

b5e54b07 90 35 62   Note On F2 98
b5e54bd2 90 35 00   Note On(0-Off) F2
b5e54bea 90 29 00   Note On(0-Off) F1

b5e54bef 90 4d 72   Note On F4 114

b5e54bf1 90 48 70   Note On C4 112

b5e54bf3 90 45 6b   Note On A3 107
b5e54c4f 90 48 00   Note On(0-Off) C4

b5e54c61 90 45 00   Note On(0-Off) A3

b5e54c69 90 4d 00   Note On(0-Off) F4
b5e54d1f 90 2b 64   Note On G1 100

b5e54d22 90 37 6e   Note On G2 110

b5e54d34 90 4a 66   Note On D4 102

b5e54d3d 90 4f 64   Note On G4 100

b5e54d44 90 46 69   Note On Bb3 105
b5e54dbb 90 4a 00   Note On(0-Off) D4
b5e54e1e 90 4f 00   Note On(0-Off) G4

b5e54e34 90 46 00   Note On(0-Off) Bb3

b5e54e3b 90 37 00   Note On(0-Off) G2

b5e54e48 90 2b 00   Note On(0-Off) G1
b5e54ec5 90 4f 5f   Note On G4 95

b5e54ec6 90 4a 6b   Note On D4 107

b5e54ec7 90 46 45   Note On Bb3 69

b5e54ede 90 37 5f   Note On G2 95

b5e54ee0 90 2b 62   Note On G1 98
b5e54f36 90 4a 00   Note On(0-Off) D4

b5e54f4c 90 46 00   Note On(0-Off) Bb3

b5e54f55 90 4f 00   Note On(0-Off) G4

b5e54f7b 90 37 00   Note On(0-Off) G2
b5e54f92 90 2b 00   Note On(0-Off) G1
b5e5502e 90 2b 5e   Note On G1 94

b5e5503b 90 37 49   Note On G2 73
b5e5505c 90 46 62   Note On Bb3 98

b5e5505d 90 4f 67   Note On G4 103

b5e5505f 90 4a 72   Note On D4 114
b5e55102 90 37 00   Note On(0-Off) G2

b5e5511e 90 2b 00   Note On(0-Off) G1
b5e5513b 90 4a 00   Note On(0-Off) D4

b5e5513c 90 46 00   Note On(0-Off) Bb3

b5e55152 90 4f 00   Note On(0-Off) G4
b5e551a3 90 37 3f   Note On G2 63

b5e551a4 90 2b 34   Note On G1 52

b5e551d8 90 4f 67   Note On G4 103

b5e551e0 90 4a 70   Note On D4 112

b5e551e3 90 46 5e   Note On Bb3 94
b5e55219 90 2b 00   Note On(0-Off) G1

b5e5521b 90 37 00   Note On(0-Off) G2

b5e5523b 90 4a 00   Note On(0-Off) D4

b5e5524e 90 46 00   Note On(0-Off) Bb3
b5e55255 90 4f 00   Note On(0-Off) G4

b5e5528b 90 29 67   Note On F1 103

b5e55298 90 35 66   Note On F2 102
b5e55340 90 48 6e   Note On C4 110

b5e55344 90 45 66   Note On A3 102

b5e55345 90 4d 72   Note On F4 114
b5e553cd 90 29 00   Note On(0-Off) F1
b5e553f7 90 35 00   Note On(0-Off) F2
b5e55461 90 45 00   Note On(0-Off) A3

b5e55480 90 4d 00   Note On(0-Off) F4

b5e55482 90 48 00   Note On(0-Off) C4

b5e55493 90 37 67   Note On G2 103

b5e55495 90 2b 6b   Note On G1 107
b5e5558b 90 4a 70   Note On D4 112

b5e5558e 90 4f 67   Note On G4 103

b5e55592 90 46 67   Note On Bb3 103
b5e55948 90 2b 00   Note On(0-Off) G1
b5e5599c 90 4f 00   Note On(0-Off) G4

b5e559a3 90 46 00   Note On(0-Off) Bb3

b5e559a7 90 37 00   Note On(0-Off) G2

b5e559ab 90 4a 00   Note On(0-Off) D4
b5e55a2c 90 37 3e   Note On G2 62

b5e55a34 90 2b 3c   Note On G1 60
b5e55a41 90 4a 60   Note On D4 96

b5e55a42 90 46 28   Note On Bb3 40

b5e55a46 90 4f 49   Note On G4 73
b5e55aab 90 46 00   Note On(0-Off) Bb3

b5e55ab5 90 4a 00   Note On(0-Off) D4

b5e55ac0 90 37 00   Note On(0-Off) G2

b5e55ac1 90 4f 00   Note On(0-Off) G4

b5e55ac6 90 2b 00   Note On(0-Off) G1
b5e55b5a 90 29 4f   Note On F1 79

b5e55b66 90 35 47   Note On F2 71
b5e55b6c 90 4d 6b   Note On F4 107

b5e55b75 90 45 4f   Note On A3 79
b5e55bf7 90 45 00   Note On(0-Off) A3

b5e55c0b 90 4d 00   Note On(0-Off) F4
b5e55c3b 90 29 00   Note On(0-Off) F1

b5e55c3e 90 35 00   Note On(0-Off) F2

b5e55c7d 90 45 4f   Note On A3 79

b5e55c89 90 4c 45   Note On E4 69
b5e55d36 90 4c 00   Note On(0-Off) E4
b5e55d67 90 48 42   Note On C4 66
b5e55e0c 90 45 00   Note On(0-Off) A3

b5e55e16 90 48 00   Note On(0-Off) C4
b5e55ec8 90 33 59   Note On Eb2 89

b5e55ec9 90 46 76   Note On Bb3 118

b5e55eca 90 41 66   Note On F3 102

b5e55ecc 90 27 6b   Note On Eb1 107

b5e55ed8 90 4a 5b   Note On D4 91
b5e55efd 90 4a 00   Note On(0-Off) D4

b5e55f14 90 46 00   Note On(0-Off) Bb3

b5e55f25 90 41 00   Note On(0-Off) F3
b5e56064 90 45 62   Note On A3 98

b5e5606c 90 41 4d   Note On F3 77

b5e5606e 90 48 64   Note On C4 100
b5e560d8 90 33 00   Note On(0-Off) Eb2

b5e560e8 90 27 00   Note On(0-Off) Eb1
b5e56129 90 45 00   Note On(0-Off) A3

b5e56136 90 41 00   Note On(0-Off) F3

b5e5614c 90 48 00   Note On(0-Off) C4
b5e56217 90 33 4d   Note On Eb2 77
b5e562fc 90 33 00   Note On(0-Off) Eb2
b5e56488 90 4a 6d   Note On D4 109
b5e56540 90 4a 00   Note On(0-Off) D4
b5e566b0 90 48 69   Note On C4 105
b5e5675a 90 48 00   Note On(0-Off) C4
b5e567b2 90 46 6e   Note On Bb3 110
b5e5687e 90 46 00   Note On(0-Off) Bb3

b5e568d5 90 45 47   Note On A3 71
b5e569d5 90 45 00   Note On(0-Off) A3

b5e569f6 90 41 60   Note On F3 96
b5e56a99 90 41 00   Note On(0-Off) F3
b5e56b31 90 27 4b   Note On Eb1 75

b5e56b39 90 43 6b   Note On G3 107

b5e56b41 90 33 4f   Note On Eb2 79
b5e56c3f 90 43 00   Note On(0-Off) G3
b5e56cd0 90 43 4b   Note On G3 75
b5e56d30 90 33 00   Note On(0-Off) Eb2

b5e56d3c 90 27 00   Note On(0-Off) Eb1
b5e56db9 90 43 00   Note On(0-Off) G3
b5e56e7f 90 4a 67   Note On D4 103
b5e56f14 90 4a 00   Note On(0-Off) D4
b5e56fbd 90 48 5b   Note On C4 91
b5e57093 90 48 00   Note On(0-Off) C4
b5e571cb 90 46 6e   Note On Bb3 110
b5e57339 90 46 00   Note On(0-Off) Bb3
b5e573ee 90 45 66   Note On A3 102

b5e573f0 90 29 60   Note On F1 96
b5e573fc 90 35 40   Note On F2 64
b5e574e5 90 45 00   Note On(0-Off) A3
b5e57567 90 29 00   Note On(0-Off) F1

b5e57577 90 35 00   Note On(0-Off) F2
b5e57594 90 45 64   Note On A3 100
b5e57678 90 45 00   Note On(0-Off) A3
b5e5771d 90 45 67   Note On A3 103

b5e57729 90 35 49   Note On F2 73
b5e57794 90 45 00   Note On(0-Off) A3

b5e577bf 90 35 00   Note On(0-Off) F2
b5e57840 90 35 5e   Note On F2 94

b5e57844 90 48 45   Note On C4 69
b5e5795d 90 48 00   Note On(0-Off) C4
b5e57a18 90 35 00   Note On(0-Off) F2
b5e57a70 90 46 6d   Note On Bb3 109
b5e57b6b 90 45 40   Note On A3 64
b5e57b79 90 46 00   Note On(0-Off) Bb3
b5e57c90 90 37 3f   Note On G2 63

b5e57c93 90 2b 4d   Note On G1 77

b5e57c98 90 43 3f   Note On G3 63

b5e57ca4 90 45 00   Note On(0-Off) A3
b5e57d6d 90 2b 00   Note On(0-Off) G1
b5e57d7d 90 43 00   Note On(0-Off) G3

b5e57d8e 90 37 00   Note On(0-Off) G2
b5e57e2c 90 43 4b   Note On G3 75
b5e57e8e 90 43 00   Note On(0-Off) G3
b5e57fc1 90 52 5f   Note On Bb4 95
b5e580c4 90 52 00   Note On(0-Off) Bb4

b5e580d2 90 51 5e   Note On A4 94
b5e581d6 90 52 45   Note On Bb4 69

b5e581e3 90 51 00   Note On(0-Off) A4
b5e582f4 90 52 00   Note On(0-Off) Bb4

b5e582f6 90 51 49   Note On A4 73
b5e583e5 90 51 00   Note On(0-Off) A4

b5e583ed 90 52 52   Note On Bb4 82
b5e5844a 90 52 00   Note On(0-Off) Bb4
b5e584e6 90 2b 3d   Note On G1 61

b5e584ec 90 37 3a   Note On G2 58
b5e58506 90 43 6d   Note On G3 109
b5e58624 90 43 00   Note On(0-Off) G3
b5e58691 90 43 67   Note On G3 103

b5e586a7 90 37 00   Note On(0-Off) G2

b5e586b2 90 2b 00   Note On(0-Off) G1
b5e58708 90 43 00   Note On(0-Off) G3
b5e58779 90 37 64   Note On G2 100
b5e58831 90 52 60   Note On Bb4 96

b5e58842 90 53 70   Note On B4 112

b5e58858 90 37 00   Note On(0-Off) G2
b5e58890 90 52 00   Note On(0-Off) Bb4

b5e58896 90 53 00   Note On(0-Off) B4
b5e5895b 90 51 64   Note On A4 100
b5e589f5 90 51 00   Note On(0-Off) A4
b5e58a5c 90 37 67   Note On G2 103

b5e58a6c 90 52 42   Note On Bb4 66
b5e58b06 90 52 00   Note On(0-Off) Bb4

b5e58b12 90 37 00   Note On(0-Off) G2
b5e58b99 90 37 5f   Note On G2 95

b5e58b9e 90 51 67   Note On A4 103
b5e58c11 90 37 00   Note On(0-Off) G2
b5e58c9d 90 51 00   Note On(0-Off) A4

b5e58ca7 90 52 4f   Note On Bb4 79
b5e58d06 90 52 00   Note On(0-Off) Bb4
b5e58dd1 90 27 5b   Note On Eb1 91

b5e58dd8 90 33 3f   Note On Eb2 63

b5e58de6 90 43 45   Note On G3 69

b5e58ded 90 46 45   Note On Bb3 69
b5e58e72 90 43 00   Note On(0-Off) G3

b5e58e78 90 46 00   Note On(0-Off) Bb3

b5e58e7f 90 33 00   Note On(0-Off) Eb2

b5e58e9b 90 27 00   Note On(0-Off) Eb1
b5e58f87 90 27 60   Note On Eb1 96

b5e58f8f 90 33 49   Note On Eb2 73

b5e58f94 90 43 64   Note On G3 100

b5e58f95 90 46 64   Note On Bb3 100
b5e58ffe 90 43 00   Note On(0-Off) G3
b5e59005 90 46 00   Note On(0-Off) Bb3

b5e59015 90 33 00   Note On(0-Off) Eb2

b5e5902d 90 27 00   Note On(0-Off) Eb1
b5e59138 90 27 5e   Note On Eb1 94

b5e5913b 90 33 5f   Note On Eb2 95

b5e59143 90 46 5e   Note On Bb3 94

b5e5914b 90 43 34   Note On G3 52

b5e5917f 90 43 00   Note On(0-Off) G3
b5e5919a 90 46 00   Note On(0-Off) Bb3

b5e591ae 90 33 00   Note On(0-Off) Eb2

b5e591b1 90 27 00   Note On(0-Off) Eb1
b5e592a6 90 4a 69   Note On D4 105

b5e592a7 90 41 67   Note On F3 103

b5e592a9 90 27 56   Note On Eb1 86

b5e592aa 90 33 59   Note On Eb2 89
b5e59317 90 33 00   Note On(0-Off) Eb2

b5e59321 90 41 00   Note On(0-Off) F3
b5e5932f 90 27 00   Note On(0-Off) Eb1

b5e59330 90 4a 00   Note On(0-Off) D4
b5e59457 90 27 60   Note On Eb1 96
b5e59459 90 33 4f   Note On Eb2 79

b5e59461 90 41 59   Note On F3 89

b5e59464 90 4a 6d   Note On D4 109
b5e594d0 90 33 00   Note On(0-Off) Eb2

b5e594d4 90 41 00   Note On(0-Off) F3

b5e594d5 90 27 00   Note On(0-Off) Eb1

b5e594e1 90 4a 00   Note On(0-Off) D4
b5e595c2 90 33 56   Note On Eb2 86

b5e595cb 90 27 40   Note On Eb1 64

b5e595e0 90 4a 64   Note On D4 100

b5e595e5 90 41 67   Note On F3 103
b5e59619 90 27 00   Note On(0-Off) Eb1

b5e59626 90 33 00   Note On(0-Off) Eb2
b5e59653 90 41 00   Note On(0-Off) F3

b5e59654 90 4a 00   Note On(0-Off) D4
b5e5970a 90 41 60   Note On F3 96

b5e59712 90 45 64   Note On A3 100

b5e59713 90 48 62   Note On C4 98
b5e5974f 90 35 64   Note On F2 100

b5e5974f 90 29 67   Note On F1 103

b5e5977e 90 45 00   Note On(0-Off) A3

b5e5978e 90 41 00   Note On(0-Off) F3

b5e5979f 90 48 00   Note On(0-Off) C4
b5e597e0 90 29 00   Note On(0-Off) F1

b5e597fd 90 35 00   Note On(0-Off) F2
b5e598c5 90 35 3e   Note On F2 62

b5e598c6 90 29 5b   Note On F1 91

b5e598dd 90 48 64   Note On C4 100
b5e598e2 90 41 5e   Note On F3 94

b5e598e4 90 45 64   Note On A3 100

b5e59924 90 45 00   Note On(0-Off) A3

b5e59934 90 41 00   Note On(0-Off) F3

b5e5993d 90 29 00   Note On(0-Off) F1

b5e59945 90 48 00   Note On(0-Off) C4
b5e5994f 90 35 00   Note On(0-Off) F2
b5e59a1d 90 35 3f   Note On F2 63

b5e59a38 90 45 70   Note On A3 112
b5e59aad 90 45 00   Note On(0-Off) A3

b5e59acc 90 48 6b   Note On C4 107

b5e59ad1 90 35 00   Note On(0-Off) F2
b5e59b2a 90 48 00   Note On(0-Off) C4
b5e59b58 90 35 1b   Note On F2 27

b5e59b9f 90 29 67   Note On F1 103

b5e59ba1 90 45 6b   Note On A3 107

b5e59ba3 90 48 67   Note On C4 103
b5e59bae 90 4d 70   Note On F4 112
b5e59c25 90 45 00   Note On(0-Off) A3

b5e59c26 90 48 00   Note On(0-Off) C4

b5e59c55 90 4d 00   Note On(0-Off) F4
b5e59cbe 90 29 00   Note On(0-Off) F1
b5e59cf3 90 35 00   Note On(0-Off) F2

b5e59d2c 90 4d 3d   Note On F4 61
b5e59d43 90 48 3f   Note On C4 63

b5e59d48 90 45 23   Note On A3 35

b5e59d58 90 29 40   Note On F1 64

b5e59d5c 90 35 5b   Note On F2 91
b5e59db2 90 48 00   Note On(0-Off) C4

b5e59db4 90 45 00   Note On(0-Off) A3

b5e59dbf 90 4d 00   Note On(0-Off) F4

b5e59df2 90 29 00   Note On(0-Off) F1

b5e59e00 90 35 00   Note On(0-Off) F2
b5e59ec7 90 4d 6b   Note On F4 107

b5e59ec9 90 45 64   Note On A3 100
b5e59ed2 90 48 5b   Note On C4 91

b5e59efb 90 48 00   Note On(0-Off) C4

b5e59f17 90 45 00   Note On(0-Off) A3

b5e59f25 90 4d 00   Note On(0-Off) F4
b5e59ff9 90 43 5e   Note On G3 94

b5e59ffc 90 46 6b   Note On Bb3 107

b5e59fff 90 4a 72   Note On D4 114
b5e5a006 90 2b 4b   Note On G1 75

b5e5a009 90 4f 4d   Note On G4 77

b5e5a00f 90 37 5f   Note On G2 95

b5e5a062 90 43 00   Note On(0-Off) G3

b5e5a064 90 46 00   Note On(0-Off) Bb3
b5e5a06c 90 4a 00   Note On(0-Off) D4

b5e5a094 90 4f 00   Note On(0-Off) G4
b5e5a0cf 90 2b 00   Note On(0-Off) G1

b5e5a0db 90 37 00   Note On(0-Off) G2
b5e5a17a 90 37 42   Note On G2 66

b5e5a17e 90 2b 47   Note On G1 71

b5e5a181 90 46 3f   Note On Bb3 63

b5e5a187 90 43 40   Note On G3 64

b5e5a18a 90 4a 62   Note On D4 98

b5e5a191 90 4f 47   Note On G4 71
b5e5a1f3 90 4a 00   Note On(0-Off) D4

b5e5a1f4 90 46 00   Note On(0-Off) Bb3
b5e5a1f9 90 43 00   Note On(0-Off) G3

b5e5a213 90 37 00   Note On(0-Off) G2

b5e5a214 90 4f 00   Note On(0-Off) G4

b5e5a21a 90 2b 00   Note On(0-Off) G1
b5e5a322 90 2b 64   Note On G1 100
b5e5a328 90 37 4d   Note On G2 77

b5e5a32d 90 46 40   Note On Bb3 64

b5e5a334 90 43 3e   Note On G3 62

b5e5a33c 90 4f 3e   Note On G4 62

b5e5a33e 90 4a 64   Note On D4 100
b5e5a39a 90 43 00   Note On(0-Off) G3

b5e5a3a6 90 46 00   Note On(0-Off) Bb3

b5e5a3ae 90 4a 00   Note On(0-Off) D4

b5e5a3c4 90 2b 00   Note On(0-Off) G1

b5e5a3cb 90 4f 00   Note On(0-Off) G4

b5e5a3df 90 37 00   Note On(0-Off) G2
b5e5a489 90 2b 28   Note On G1 40

b5e5a48c 90 37 3c   Note On G2 60

b5e5a4a2 90 46 3f   Note On Bb3 63

b5e5a4a4 90 43 3c   Note On G3 60

b5e5a4a5 90 4f 3e   Note On G4 62

b5e5a4a6 90 4a 67   Note On D4 103
b5e5a4d9 90 37 00   Note On(0-Off) G2

b5e5a4de 90 2b 00   Note On(0-Off) G1

b5e5a4e7 90 46 00   Note On(0-Off) Bb3

b5e5a4e9 90 4a 00   Note On(0-Off) D4

b5e5a4f3 90 43 00   Note On(0-Off) G3

b5e5a4fd 90 4f 00   Note On(0-Off) G4
b5e5a5bb 90 27 67   Note On Eb1 103

b5e5a5c4 90 43 67   Note On G3 103

b5e5a5cc 90 33 67   Note On Eb2 103

b5e5a5d0 90 3f 67   Note On Eb3 103

b5e5a5d1 90 46 6b   Note On Bb3 107
b5e5a61d 90 3f 00   Note On(0-Off) Eb3

b5e5a61f 90 43 00   Note On(0-Off) G3

b5e5a625 90 33 00   Note On(0-Off) Eb2

b5e5a628 90 46 00   Note On(0-Off) Bb3

b5e5a640 90 27 00   Note On(0-Off) Eb1
b5e5a700 90 35 4f   Note On F2 79

b5e5a70f 90 48 3e   Note On C4 62

b5e5a711 90 29 45   Note On F1 69
b5e5a748 90 48 00   Note On(0-Off) C4

b5e5a750 90 29 00   Note On(0-Off) F1

b5e5a75b 90 35 00   Note On(0-Off) F2
b5e5a809 90 37 64   Note On G2 100

b5e5a80c 90 2b 67   Note On G1 103

b5e5a813 90 35 5f   Note On F2 95
b5e5a85a 90 35 00   Note On(0-Off) F2
b5e5a8c7 90 37 00   Note On(0-Off) G2

b5e5a8cf 90 2b 00   Note On(0-Off) G1
b5e5ab4b 90 37 3d   Note On G2 61

b5e5ab4c 90 2b 3d   Note On G1 61
b5e5abad 90 37 00   Note On(0-Off) G2

b5e5abb4 90 2b 00   Note On(0-Off) G1
b5e5ac5e 90 37 4d   Note On G2 77

b5e5ac69 90 2b 45   Note On G1 69

b5e5ac9a 90 4a 42   Note On D4 66
b5e5acec 90 4a 00   Note On(0-Off) D4

b5e5acee 90 37 00   Note On(0-Off) G2

b5e5acf3 90 2b 00   Note On(0-Off) G1
b5e5ad86 90 48 64   Note On C4 100

b5e5ada0 90 2b 52   Note On G1 82

b5e5ada8 90 37 52   Note On G2 82
b5e5adff 90 48 00   Note On(0-Off) C4

b5e5ae2c 90 2b 00   Note On(0-Off) G1

b5e5ae39 90 37 00   Note On(0-Off) G2
b5e5ae9c 90 46 76   Note On Bb3 118

b5e5aea6 90 2b 2f   Note On G1 47

b5e5aea9 90 37 31   Note On G2 49
b5e5aefb 90 46 00   Note On(0-Off) Bb3
b5e5af35 90 37 00   Note On(0-Off) G2

b5e5af3d 90 2b 00   Note On(0-Off) G1
b5e5afaa 90 43 72   Note On G3 114
b5e5b032 90 43 00   Note On(0-Off) G3
b5e5b0ea 90 27 66   Note On Eb1 102

b5e5b0ef 90 33 60   Note On Eb2 96

b5e5b101 90 45 74   Note On A3 116
b5e5b166 90 45 00   Note On(0-Off) A3
b5e5b201 90 43 6b   Note On G3 107

b5e5b221 90 33 00   Note On(0-Off) Eb2

b5e5b236 90 27 00   Note On(0-Off) Eb1
b5e5b285 90 43 00   Note On(0-Off) G3
b5e5b425 90 43 62   Note On G3 98
b5e5b4bc 90 43 00   Note On(0-Off) G3
b5e5b570 90 43 6b   Note On G3 107

b5e5b570 90 33 60   Note On Eb2 96
b5e5b5d1 90 43 00   Note On(0-Off) G3
b5e5b633 90 33 00   Note On(0-Off) Eb2
b5e5b6d5 90 48 59   Note On C4 89
b5e5b7ad 90 48 00   Note On(0-Off) C4
b5e5b901 90 46 72   Note On Bb3 114
b5e5b9ef 90 29 4f   Note On F1 79

b5e5b9f3 90 35 45   Note On F2 69
b5e5babd 90 46 00   Note On(0-Off) Bb3
b5e5bb26 90 46 69   Note On Bb3 105

b5e5bb61 90 29 00   Note On(0-Off) F1
b5e5bb62 90 35 00   Note On(0-Off) F2
b5e5bc31 90 46 00   Note On(0-Off) Bb3
b5e5bccd 90 45 67   Note On A3 103

b5e5bce6 90 35 40   Note On F2 64
b5e5bd4e 90 45 00   Note On(0-Off) A3
b5e5bd8f 90 35 00   Note On(0-Off) F2
b5e5be2c 90 35 40   Note On F2 64
b5e5be3a 90 45 6d   Note On A3 109
b5e5bfb1 90 35 00   Note On(0-Off) F2
b5e5bfed 90 45 00   Note On(0-Off) A3

b5e5c002 90 41 5e   Note On F3 94
b5e5c0b1 90 35 44   Note On F2 68

b5e5c0ce 90 41 00   Note On(0-Off) F3
b5e5c185 90 41 62   Note On F3 98

b5e5c19d 90 35 00   Note On(0-Off) F2
b5e5c219 90 41 00   Note On(0-Off) F3
b5e5c2ea 90 41 6d   Note On F3 109
b5e5c2fa 90 2b 52   Note On G1 82

b5e5c2ff 90 37 3f   Note On G2 63
b5e5c49b 90 43 3f   Note On G3 63

b5e5c4b1 90 41 00   Note On(0-Off) F3

b5e5c4bb 90 2b 00   Note On(0-Off) G1
b5e5c4eb 90 43 00   Note On(0-Off) G3

b5e5c50d 90 37 00   Note On(0-Off) G2
b5e5c5f5 90 37 15   Note On G2 21
b5e5c6a7 90 37 00   Note On(0-Off) G2
b5e5c7fc 90 37 47   Note On G2 71
b5e5c8a6 90 37 00   Note On(0-Off) G2
b5e5c933 90 37 3d   Note On G2 61
b5e5c9f0 90 37 00   Note On(0-Off) G2
b5e5ca4f 90 37 3d   Note On G2 61
b5e5cac6 90 37 00   Note On(0-Off) G2
b5e5cb34 90 41 52   Note On F3 82

b5e5cb39 90 39 59   Note On A2 89

b5e5cb3c 90 3c 7f   Note On C3 127

b5e5cb5f 90 29 62   Note On F1 98
b5e5cb8c 90 34 22   Note On E2 34

b5e5cbaf 90 34 00   Note On(0-Off) E2

b5e5cbba 90 3c 00   Note On(0-Off) C3
b5e5cbd3 90 39 00   Note On(0-Off) A2

b5e5cbdb 90 41 00   Note On(0-Off) F3

b5e5cbe4 90 29 00   Note On(0-Off) F1
b5e5ccd3 90 2b 5b   Note On G1 91

b5e5ccdf 90 3d 4b   Note On C#3 75

b5e5cce8 90 43 67   Note On G3 103

b5e5ccf7 90 3a 66   Note On Bb2 102
b5e5cd29 90 3d 00   Note On(0-Off) C#3

b5e5cd44 90 3a 00   Note On(0-Off) Bb2
b5e5cd79 90 43 00   Note On(0-Off) G3

b5e5cd92 90 2b 00   Note On(0-Off) G1
b5e5ce41 90 37 49   Note On G2 73
b5e5cf3d 90 37 00   Note On(0-Off) G2
b5e5d014 90 3a 5f   Note On Bb2 95
b5e5d03c 90 37 67   Note On G2 103
b5e5d0ca 90 37 00   Note On(0-Off) G2
b5e5d112 90 3a 00   Note On(0-Off) Bb2

b5e5d149 90 3a 12   Note On Bb2 18
b5e5d15e 90 37 5f   Note On G2 95

b5e5d15f 90 3e 67   Note On D3 103
b5e5d1db 90 3a 00   Note On(0-Off) Bb2

b5e5d202 90 37 00   Note On(0-Off) G2
b5e5d223 90 3e 00   Note On(0-Off) D3

b5e5d261 90 3e 4b   Note On D3 75

b5e5d26b 90 3a 44   Note On Bb2 68

b5e5d279 90 41 62   Note On F3 98
b5e5d2a6 90 3e 00   Note On(0-Off) D3
b5e5d2f9 90 41 00   Note On(0-Off) F3

b5e5d301 90 3a 00   Note On(0-Off) Bb2
b5e5d396 90 3a 45   Note On Bb2 69

b5e5d397 90 3e 6e   Note On D3 110

b5e5d399 90 41 6d   Note On F3 109
b5e5d40e 90 3a 00   Note On(0-Off) Bb2
b5e5d491 90 3e 00   Note On(0-Off) D3
b5e5d500 90 41 00   Note On(0-Off) F3

b5e5d542 90 43 67   Note On G3 103

b5e5d549 90 3e 70   Note On D3 112

b5e5d54a 90 3a 56   Note On Bb2 86
b5e5d5bb 90 3a 00   Note On(0-Off) Bb2
b5e5d693 90 43 00   Note On(0-Off) G3

b5e5d694 90 3e 00   Note On(0-Off) D3

b5e5d6d1 90 3a 0e   Note On Bb2 14

b5e5d6d4 90 3e 5f   Note On D3 95

b5e5d6d5 90 41 6b   Note On F3 107
b5e5d74e 90 3a 00   Note On(0-Off) Bb2

b5e5d75a 90 3e 00   Note On(0-Off) D3

b5e5d7a9 90 41 00   Note On(0-Off) F3
b5e5d816 90 33 66   Note On Eb2 102

b5e5d81a 90 27 5f   Note On Eb1 95

b5e5d824 90 43 69   Note On G3 105

b5e5d825 90 3e 6b   Note On D3 107

b5e5d828 90 3a 4f   Note On Bb2 79
b5e5d8b2 90 3a 00   Note On(0-Off) Bb2
b5e5d97a 90 3e 00   Note On(0-Off) D3

b5e5d985 90 43 00   Note On(0-Off) G3
b5e5d9ec 90 43 49   Note On G3 73

b5e5d9f5 90 3e 6b   Note On D3 107

b5e5d9f6 90 3a 3e   Note On Bb2 62
b5e5da19 90 33 00   Note On(0-Off) Eb2
b5e5da73 90 27 00   Note On(0-Off) Eb1

b5e5daa0 90 3a 00   Note On(0-Off) Bb2

b5e5daa2 90 3e 00   Note On(0-Off) D3

b5e5dac6 90 43 00   Note On(0-Off) G3
b5e5db8c 90 3a 23   Note On Bb2 35

b5e5db8d 90 43 3a   Note On G3 58

b5e5db8e 90 3e 64   Note On D3 100
b5e5dc57 90 3a 00   Note On(0-Off) Bb2
b5e5dc8e 90 43 00   Note On(0-Off) G3
b5e5dcfe 90 3e 00   Note On(0-Off) D3
b5e5dd54 90 43 4b   Note On G3 75

b5e5dd58 90 3e 64   Note On D3 100

b5e5dd5b 90 3a 1d   Note On Bb2 29
b5e5ddf8 90 43 00   Note On(0-Off) G3

b5e5ddf9 90 3e 00   Note On(0-Off) D3
b5e5de3a 90 3a 00   Note On(0-Off) Bb2
b5e5deef 90 3a 02   Note On Bb2 2

b5e5df0a 90 45 64   Note On A3 100

b5e5df26 90 3e 47   Note On D3 71
b5e5df9f 90 3e 00   Note On(0-Off) D3

b5e5dfa7 90 3a 00   Note On(0-Off) Bb2

b5e5dfee 90 45 00   Note On(0-Off) A3
b5e5e15b 90 48 13   Note On C4 19

b5e5e164 90 41 40   Note On F3 64

b5e5e167 90 29 4f   Note On F1 79

b5e5e175 90 35 3f   Note On F2 63
b5e5e2e3 90 41 00   Note On(0-Off) F3

b5e5e308 90 48 00   Note On(0-Off) C4
b5e5e354 90 41 4f   Note On F3 79

b5e5e361 90 48 5f   Note On C4 95
b5e5e3f4 90 29 00   Note On(0-Off) F1

b5e5e416 90 35 00   Note On(0-Off) F2

b5e5e41e 90 41 00   Note On(0-Off) F3

b5e5e437 90 48 00   Note On(0-Off) C4
b5e5e501 90 41 45   Note On F3 69

b5e5e504 90 35 3d   Note On F2 61
b5e5e51b 90 45 47   Note On A3 71

b5e5e559 90 41 00   Note On(0-Off) F3
b5e5e653 90 45 00   Note On(0-Off) A3
b5e5e6ad 90 35 00   Note On(0-Off) F2
b5e5e735 90 43 62   Note On G3 98

b5e5e755 90 35 3f   Note On F2 63
b5e5e7fa 90 43 00   Note On(0-Off) G3

b5e5e827 90 35 00   Note On(0-Off) F2
b5e5e85e 90 41 6e   Note On F3 110
b5e5e940 90 41 00   Note On(0-Off) F3
b5e5ea81 90 3f 72   Note On Eb3 114

b5e5ea8d 90 37 59   Note On G2 89

b5e5ea8d 90 2b 64   Note On G1 100
b5e5ec21 90 3f 00   Note On(0-Off) Eb3
b5e5ec4a 90 41 66   Note On F3 102
b5e5ecab 90 37 00   Note On(0-Off) G2

b5e5ecbc 90 2b 00   Note On(0-Off) G1
b5e5ed0b 90 41 00   Note On(0-Off) F3
b5e5ee06 90 3e 67   Note On D3 103

b5e5ee15 90 37 56   Note On G2 86
b5e5f110 90 37 00   Note On(0-Off) G2

b5e5f167 90 37 5f   Note On G2 95
b5e5f28e 90 37 00   Note On(0-Off) G2
b5e5f2bf 90 3e 00   Note On(0-Off) D3
b5e5f3e1 90 3a 67   Note On Bb2 103

b5e5f3e7 90 37 38   Note On G2 56

b5e5f403 90 2b 21   Note On G1 33

b5e5f41b 90 39 40   Note On A2 64
b5e5f475 90 39 00   Note On(0-Off) A2

b5e5f481 90 3a 00   Note On(0-Off) Bb2
b5e5f5ab 90 37 00   Note On(0-Off) G2

b5e5f5c2 90 2b 00   Note On(0-Off) G1
b5e5f766 90 3e 70   Note On D3 112

b5e5f768 90 37 60   Note On G2 96
b5e5f7d8 90 3e 00   Note On(0-Off) D3
b5e5f8e8 90 37 00   Note On(0-Off) G2
b5e5fd37 90 37 5e   Note On G2 94

b5e5fd5f 90 4a 6d   Note On D4 109
b5e5fe6c 90 48 70   Note On C4 112

b5e5fe87 90 4a 00   Note On(0-Off) D4
b5e5ff93 90 47 67   Note On B3 103

b5e5ffb5 90 48 00   Note On(0-Off) C4
b5e6000f 90 47 00   Note On(0-Off) B3

b5e60036 90 37 00   Note On(0-Off) G2
b5e60188 90 37 47   Note On G2 71

b5e60191 90 2b 64   Note On G1 100

b5e6019f 90 48 6b   Note On C4 107
b5e6026f 90 48 00   Note On(0-Off) C4
b5e602c1 90 46 70   Note On Bb3 112
b5e60321 90 2b 00   Note On(0-Off) G1
b5e6036b 90 37 00   Note On(0-Off) G2

b5e603c9 90 46 00   Note On(0-Off) Bb3
b5e603f9 90 44 6e   Note On Ab3 110
b5e60454 90 44 00   Note On(0-Off) Ab3
b5e6062e 90 37 33   Note On G2 51

b5e60630 90 2b 56   Note On G1 86

b5e6064e 90 48 64   Note On C4 100
b5e60715 90 48 00   Note On(0-Off) C4
b5e6077e 90 46 74   Note On Bb3 116

b5e607a7 90 2b 00   Note On(0-Off) G1
b5e607db 90 37 00   Note On(0-Off) G2

b5e60809 90 46 00   Note On(0-Off) Bb3
b5e608b7 90 45 6b   Note On A3 107
b5e609bd 90 45 00   Note On(0-Off) A3

b5e609d1 90 41 56   Note On F3 86
b5e60a75 90 41 00   Note On(0-Off) F3
b5e60b11 90 27 62   Note On Eb1 98

b5e60b20 90 33 42   Note On Eb2 66

b5e60b21 90 43 72   Note On G3 114
b5e60c0e 90 33 00   Note On(0-Off) Eb2
b5e60c40 90 43 00   Note On(0-Off) G3

b5e60c46 90 27 00   Note On(0-Off) Eb1
b5e60cf0 90 43 64   Note On G3 100
b5e60dbf 90 43 00   Note On(0-Off) G3
b5e60e70 90 4a 67   Note On D4 103
b5e60f09 90 4a 00   Note On(0-Off) D4
b5e60fb2 90 48 5f   Note On C4 95
b5e61097 90 48 00   Note On(0-Off) C4
b5e611f4 90 46 76   Note On Bb3 118
b5e61405 90 45 40   Note On A3 64

b5e61407 90 35 44   Note On F2 68

b5e61409 90 29 4f   Note On F1 79

b5e6140d 90 46 00   Note On(0-Off) Bb3
b5e614f2 90 45 00   Note On(0-Off) A3
b5e6158d 90 29 00   Note On(0-Off) F1

b5e615a4 90 35 00   Note On(0-Off) F2
b5e615e0 90 45 69   Note On A3 105
b5e616af 90 45 00   Note On(0-Off) A3
b5e61750 90 45 64   Note On A3 100

b5e6175f 90 35 4d   Note On F2 77
b5e617e3 90 45 00   Note On(0-Off) A3
b5e6180b 90 35 00   Note On(0-Off) F2
b5e6187c 90 35 49   Note On F2 73

b5e61886 90 48 5e   Note On C4 94
b5e6196b 90 48 00   Note On(0-Off) C4

b5e61984 90 35 00   Note On(0-Off) F2
b5e61aaf 90 46 70   Note On Bb3 112
b5e61bdf 90 45 67   Note On A3 103
b5e61bfb 90 46 00   Note On(0-Off) Bb3
b5e61d12 90 2b 5b   Note On G1 91

b5e61d1a 90 43 6b   Note On G3 107

b5e61d22 90 45 00   Note On(0-Off) A3

b5e61d24 90 37 4b   Note On G2 75
b5e61df5 90 43 00   Note On(0-Off) G3

b5e61e15 90 37 00   Note On(0-Off) G2

b5e61e40 90 2b 00   Note On(0-Off) G1
b5e61ed3 90 43 56   Note On G3 86
b5e61f2e 90 43 00   Note On(0-Off) G3
b5e62072 90 52 40   Note On Bb4 64
b5e62153 90 52 00   Note On(0-Off) Bb4
b5e62192 90 51 44   Note On A4 68
b5e6229b 90 52 5b   Note On Bb4 91

b5e622ae 90 51 00   Note On(0-Off) A4
b5e623ab 90 51 45   Note On A4 69

b5e623b3 90 52 00   Note On(0-Off) Bb4
b5e6249f 90 52 66   Note On Bb4 102

b5e624c1 90 51 00   Note On(0-Off) A4
b5e62515 90 52 00   Note On(0-Off) Bb4
b5e625c3 90 2b 56   Note On G1 86

b5e625ca 90 37 40   Note On G2 64

b5e625d0 90 43 6d   Note On G3 109
b5e62693 90 43 00   Note On(0-Off) G3

b5e626a6 90 2b 00   Note On(0-Off) G1
b5e62729 90 37 00   Note On(0-Off) G2
b5e6273c 90 43 62   Note On G3 98
b5e627a8 90 43 00   Note On(0-Off) G3
b5e628c6 90 52 2c   Note On Bb4 44
b5e62a04 90 51 2f   Note On A4 47

b5e62a06 90 52 00   Note On(0-Off) Bb4
b5e62b3f 90 52 60   Note On Bb4 96

b5e62b41 90 51 00   Note On(0-Off) A4
b5e62c5d 90 51 70   Note On A4 112

b5e62c5d 90 52 00   Note On(0-Off) Bb4
b5e62d6e 90 52 70   Note On Bb4 112
b5e62d85 90 51 00   Note On(0-Off) A4
b5e62df6 90 52 00   Note On(0-Off) Bb4
b5e62ea6 90 27 34   Note On Eb1 52
b5e62eb0 90 33 45   Note On Eb2 69
b5e63087 90 46 76   Note On Bb3 118

b5e630c0 90 27 00   Note On(0-Off) Eb1

b5e630c8 90 33 00   Note On(0-Off) Eb2

b5e630d2 90 46 00   Note On(0-Off) Bb3
b5e63250 90 33 5b   Note On Eb2 91

b5e63251 90 46 7d   Note On Bb3 125
b5e632a0 90 46 00   Note On(0-Off) Bb3

b5e632d1 90 33 00   Note On(0-Off) Eb2
b5e633a0 90 41 67   Note On F3 103
b5e633a4 90 46 6e   Note On Bb3 110

b5e633a6 90 27 59   Note On Eb1 89

b5e633a9 90 4a 6b   Note On D4 107

b5e633ae 90 33 42   Note On Eb2 66
b5e63410 90 41 00   Note On(0-Off) F3

b5e6341d 90 46 00   Note On(0-Off) Bb3

b5e63433 90 4a 00   Note On(0-Off) D4
b5e6349a 90 33 00   Note On(0-Off) Eb2

b5e634be 90 27 00   Note On(0-Off) Eb1
b5e6357b 90 46 72   Note On Bb3 114

b5e6357c 90 41 6b   Note On F3 107

b5e6357f 90 4a 67   Note On D4 103

b5e63588 90 27 64   Note On Eb1 100

b5e63589 90 33 66   Note On Eb2 102
b5e63600 90 41 00   Note On(0-Off) F3
b5e6361a 90 33 00   Note On(0-Off) Eb2

b5e63623 90 4a 00   Note On(0-Off) D4

b5e63628 90 46 00   Note On(0-Off) Bb3

b5e6363b 90 27 00   Note On(0-Off) Eb1
b5e636fb 90 46 74   Note On Bb3 116

b5e63705 90 41 6b   Note On F3 107

b5e63706 90 4a 72   Note On D4 114
b5e6377b 90 41 00   Note On(0-Off) F3

b5e63788 90 4a 00   Note On(0-Off) D4

b5e6378e 90 46 00   Note On(0-Off) Bb3
b5e6385b 90 48 3e   Note On C4 62

b5e6385d 90 41 42   Note On F3 66
b5e63865 90 45 49   Note On A3 73

b5e63869 90 29 23   Note On F1 35

b5e63873 90 35 1f   Note On F2 31
b5e638ea 90 45 00   Note On(0-Off) A3

b5e638f6 90 41 00   Note On(0-Off) F3

b5e63912 90 48 00   Note On(0-Off) C4
b5e63974 90 35 00   Note On(0-Off) F2

b5e6397d 90 29 00   Note On(0-Off) F1
b5e63a54 90 35 56   Note On F2 86

b5e63a57 90 29 4b   Note On F1 75

b5e63a5b 90 48 52   Note On C4 82

b5e63a5c 90 41 5e   Note On F3 94

b5e63a5d 90 45 62   Note On A3 98
b5e63ac5 90 41 00   Note On(0-Off) F3

b5e63acb 90 45 00   Note On(0-Off) A3

b5e63adc 90 48 00   Note On(0-Off) C4

b5e63aeb 90 29 00   Note On(0-Off) F1

b5e63aec 90 35 00   Note On(0-Off) F2
b5e63bb0 90 48 76   Note On C4 118

b5e63bb8 90 41 6e   Note On F3 110

b5e63bb9 90 45 70   Note On A3 112

b5e63bd0 90 35 67   Note On F2 103

b5e63bd5 90 29 5f   Note On F1 95

b5e63bec 90 45 00   Note On(0-Off) A3
b5e63bfd 90 41 00   Note On(0-Off) F3

b5e63c01 90 48 00   Note On(0-Off) C4

b5e63c32 90 35 00   Note On(0-Off) F2

b5e63c3b 90 29 00   Note On(0-Off) F1
b5e63ca2 90 29 40   Note On F1 64

b5e63cb9 90 35 23   Note On F2 35
b5e63cc6 90 45 3f   Note On A3 63

b5e63cd1 90 48 3d   Note On C4 61

b5e63cd6 90 4d 56   Note On F4 86
b5e63d90 90 48 00   Note On(0-Off) C4

b5e63d92 90 35 00   Note On(0-Off) F2

b5e63d9e 90 45 00   Note On(0-Off) A3

b5e63da4 90 4d 00   Note On(0-Off) F4

b5e63db4 90 29 00   Note On(0-Off) F1
b5e63e7a 90 29 44   Note On F1 68

b5e63e87 90 35 40   Note On F2 64

b5e63e97 90 48 60   Note On C4 96

b5e63e9a 90 45 60   Note On A3 96

b5e63e9b 90 4d 67   Note On F4 103
b5e63f10 90 45 00   Note On(0-Off) A3

b5e63f12 90 35 00   Note On(0-Off) F2

b5e63f13 90 48 00   Note On(0-Off) C4
b5e63f1b 90 29 00   Note On(0-Off) F1

b5e63f1f 90 4d 00   Note On(0-Off) F4
b5e63fe0 90 29 4b   Note On F1 75
b5e63ff1 90 35 34   Note On F2 52

b5e64005 90 45 62   Note On A3 98

b5e64006 90 4d 6d   Note On F4 109

b5e64007 90 48 6d   Note On C4 109

b5e64045 90 29 00   Note On(0-Off) F1
b5e6404f 90 35 00   Note On(0-Off) F2

b5e64055 90 48 00   Note On(0-Off) C4

b5e6405a 90 45 00   Note On(0-Off) A3

b5e64060 90 4d 00   Note On(0-Off) F4
b5e64122 90 43 28   Note On G3 40

b5e64124 90 4f 59   Note On G4 89

b5e64125 90 4a 5b   Note On D4 91

b5e64133 90 2b 5b   Note On G1 91

b5e64145 90 37 3f   Note On G2 63
b5e641f3 90 37 00   Note On(0-Off) G2

b5e641f5 90 43 00   Note On(0-Off) G3

b5e641fa 90 2b 00   Note On(0-Off) G1

b5e641fc 90 4a 00   Note On(0-Off) D4

b5e64216 90 4f 00   Note On(0-Off) G4
b5e642c3 90 2b 34   Note On G1 52

b5e642c8 90 46 3a   Note On Bb3 58

b5e642cc 90 37 25   Note On G2 37

b5e642d2 90 4a 56   Note On D4 86

b5e642d3 90 43 23   Note On G3 35

b5e642db 90 4f 3a   Note On G4 58
b5e64367 90 43 00   Note On(0-Off) G3

b5e6436b 90 37 00   Note On(0-Off) G2

b5e64370 90 4a 00   Note On(0-Off) D4

b5e64371 90 46 00   Note On(0-Off) Bb3
b5e6437c 90 2b 00   Note On(0-Off) G1

b5e64386 90 4f 00   Note On(0-Off) G4
b5e64490 90 2b 60   Note On G1 96

b5e64494 90 37 4d   Note On G2 77

b5e64498 90 46 34   Note On Bb3 52

b5e6449b 90 43 3a   Note On G3 58

b5e6449f 90 4a 49   Note On D4 73
b5e644a4 90 4f 36   Note On G4 54
b5e64520 90 46 00   Note On(0-Off) Bb3

b5e64524 90 43 00   Note On(0-Off) G3

b5e6452d 90 4a 00   Note On(0-Off) D4

b5e64533 90 37 00   Note On(0-Off) G2

b5e64535 90 2b 00   Note On(0-Off) G1

b5e64545 90 4f 00   Note On(0-Off) G4
b5e64616 90 37 33   Note On G2 51

b5e6461d 90 2b 15   Note On G1 21

b5e64620 90 4a 2f   Note On D4 47

b5e64621 90 4f 3c   Note On G4 60

b5e64625 90 43 18   Note On G3 24

b5e64634 90 46 1a   Note On Bb3 26
b5e64659 90 46 00   Note On(0-Off) Bb3

b5e64667 90 2b 00   Note On(0-Off) G1

b5e64668 90 37 00   Note On(0-Off) G2

b5e64682 90 4f 00   Note On(0-Off) G4

b5e64684 90 43 00   Note On(0-Off) G3

b5e64686 90 4a 00   Note On(0-Off) D4
b5e6475f 90 43 67   Note On G3 103
b5e64772 90 3f 60   Note On Eb3 96

b5e64774 90 27 3c   Note On Eb1 60

b5e64776 90 47 56   Note On B3 86

b5e6477a 90 33 4f   Note On Eb2 79

b5e64781 90 2a 3c   Note On F#1 60

b5e647b4 90 3f 00   Note On(0-Off) Eb3

b5e647bb 90 47 00   Note On(0-Off) B3

b5e647be 90 33 00   Note On(0-Off) Eb2

b5e647c0 90 43 00   Note On(0-Off) G3

b5e647ca 90 2a 00   Note On(0-Off) F#1
b5e647d6 90 27 00   Note On(0-Off) Eb1
b5e6488d 90 45 62   Note On A3 98

b5e64895 90 41 5e   Note On F3 94

b5e64897 90 48 3e   Note On C4 62

b5e6489a 90 47 64   Note On B3 100
b5e648bd 90 35 64   Note On F2 100

b5e648c0 90 47 00   Note On(0-Off) B3

b5e648c1 90 29 23   Note On F1 35

b5e648c2 90 45 00   Note On(0-Off) A3

b5e648c5 90 48 00   Note On(0-Off) C4

b5e648cd 90 41 00   Note On(0-Off) F3
b5e6490c 90 29 00   Note On(0-Off) F1

b5e64915 90 35 00   Note On(0-Off) F2
b5e649bd 90 46 64   Note On Bb3 100

b5e649bf 90 43 59   Note On G3 89

b5e649c4 90 37 67   Note On G2 103

b5e649c6 90 4c 56   Note On E4 86

b5e649c9 90 2b 64   Note On G1 100

b5e649ca 90 4a 5f   Note On D4 95
b5e64a41 90 4c 00   Note On(0-Off) E4

b5e64a44 90 4a 00   Note On(0-Off) D4
b5e64aba 90 46 00   Note On(0-Off) Bb3
b5e64b87 90 2b 00   Note On(0-Off) G1

b5e64b90 90 37 00   Note On(0-Off) G2

b5e64b91 90 43 00   Note On(0-Off) G3
b5e64cd0 90 2b 13   Note On G1 19

b5e64cf2 90 37 11   Note On G2 17
b5e64d82 90 2b 00   Note On(0-Off) G1

b5e64d88 90 37 00   Note On(0-Off) G2
b5e64e28 90 2b 64   Note On G1 100

b5e64e2c 90 37 5b   Note On G2 91

b5e64e40 90 48 6b   Note On C4 107
b5e64e9c 90 37 00   Note On(0-Off) G2

b5e64eaa 90 2b 00   Note On(0-Off) G1

b5e64ed8 90 48 00   Note On(0-Off) C4
b5e64f2d 90 46 70   Note On Bb3 112
b5e64fb8 90 46 00   Note On(0-Off) Bb3
b5e65058 90 45 64   Note On A3 100
b5e65144 90 45 00   Note On(0-Off) A3
b5e65164 90 41 6e   Note On F3 110
b5e651f7 90 41 00   Note On(0-Off) F3
b5e6529b 90 27 47   Note On Eb1 71

b5e652a4 90 33 4f   Note On Eb2 79

b5e652ad 90 43 6d   Note On G3 109
b5e65338 90 33 00   Note On(0-Off) Eb2
b5e65383 90 27 00   Note On(0-Off) Eb1

b5e65395 90 43 00   Note On(0-Off) G3
b5e65440 90 43 42   Note On G3 66
b5e6549d 90 33 3d   Note On Eb2 61

b5e654bb 90 43 00   Note On(0-Off) G3
b5e6556b 90 33 00   Note On(0-Off) Eb2

b5e6558d 90 4a 64   Note On D4 100
b5e65610 90 4a 00   Note On(0-Off) D4
b5e656b6 90 48 67   Note On C4 103
b5e65799 90 48 00   Note On(0-Off) C4
b5e658af 90 46 72   Note On Bb3 114

b5e658b6 90 33 3f   Note On Eb2 63
b5e6592e 90 33 00   Note On(0-Off) Eb2
b5e65ac1 90 46 00   Note On(0-Off) Bb3
b5e65acb 90 45 62   Note On A3 98

b5e65ad0 90 29 56   Note On F1 86

b5e65ad9 90 35 49   Note On F2 73
b5e65b87 90 29 00   Note On(0-Off) F1

b5e65b8c 90 45 00   Note On(0-Off) A3

b5e65b95 90 35 00   Note On(0-Off) F2
b5e65c43 90 35 42   Note On F2 66

b5e65c48 90 29 3d   Note On F1 61

b5e65c5f 90 45 64   Note On A3 100
b5e65cc1 90 35 00   Note On(0-Off) F2

b5e65cc2 90 29 00   Note On(0-Off) F1
b5e65ce9 90 45 00   Note On(0-Off) A3
b5e65de9 90 29 5f   Note On F1 95

b5e65dee 90 35 5f   Note On F2 95
b5e65e36 90 45 6e   Note On A3 110

b5e65e5b 90 29 00   Note On(0-Off) F1
b5e65e5c 90 35 00   Note On(0-Off) F2

b5e65e9a 90 45 00   Note On(0-Off) A3
b5e65f35 90 29 60   Note On F1 96

b5e65f41 90 35 64   Note On F2 100

b5e65f4c 90 48 74   Note On C4 116
b5e65fcc 90 35 00   Note On(0-Off) F2

b5e65fec 90 29 00   Note On(0-Off) F1
b5e66039 90 48 00   Note On(0-Off) C4
b5e660e7 90 29 49   Note On F1 73

b5e660f5 90 35 34   Note On F2 52
b5e66123 90 46 62   Note On Bb3 98

b5e6617e 90 35 00   Note On(0-Off) F2
b5e66187 90 29 00   Note On(0-Off) F1
b5e6620d 90 35 3f   Note On F2 63

b5e66216 90 29 3c   Note On F1 60
b5e6628c 90 29 00   Note On(0-Off) F1

b5e66291 90 35 00   Note On(0-Off) F2

b5e662a8 90 46 00   Note On(0-Off) Bb3
b5e662be 90 45 6b   Note On A3 107
b5e66383 90 45 00   Note On(0-Off) A3
b5e6639f 90 2b 4b   Note On G1 75

b5e663a5 90 43 40   Note On G3 64

b5e663aa 90 37 44   Note On G2 68
b5e66466 90 37 00   Note On(0-Off) G2

b5e6648e 90 2b 00   Note On(0-Off) G1

b5e66493 90 43 00   Note On(0-Off) G3
b5e66563 90 43 5e   Note On G3 94
b5e66597 90 2b 40   Note On G1 64

b5e665a1 90 37 40   Note On G2 64

b5e665bc 90 43 00   Note On(0-Off) G3
b5e66601 90 2b 00   Note On(0-Off) G1

b5e6660e 90 37 00   Note On(0-Off) G2
b5e666dc 90 2b 3e   Note On G1 62

b5e666ea 90 37 33   Note On G2 51

b5e666fe 90 52 69   Note On Bb4 105
b5e66784 90 2b 00   Note On(0-Off) G1

b5e66784 90 37 00   Note On(0-Off) G2
b5e667af 90 52 00   Note On(0-Off) Bb4
b5e66816 90 2b 49   Note On G1 73

b5e66827 90 37 2f   Note On G2 47

b5e6682e 90 51 56   Note On A4 86
b5e668af 90 2b 00   Note On(0-Off) G1

b5e668cb 90 37 00   Note On(0-Off) G2
b5e66911 90 51 00   Note On(0-Off) A4

b5e66927 90 2b 27   Note On G1 39

b5e66929 90 52 47   Note On Bb4 71

b5e66933 90 37 33   Note On G2 51
b5e669ae 90 2b 00   Note On(0-Off) G1

b5e669b2 90 37 00   Note On(0-Off) G2
b5e669da 90 52 00   Note On(0-Off) Bb4
b5e66a40 90 2b 3d   Note On G1 61

b5e66a54 90 51 5f   Note On A4 95

b5e66a59 90 37 22   Note On G2 34
b5e66acd 90 37 00   Note On(0-Off) G2

b5e66adc 90 2b 00   Note On(0-Off) G1
b5e66b3c 90 51 00   Note On(0-Off) A4

b5e66b5e 90 2b 52   Note On G1 82
b5e66b61 90 52 3c   Note On Bb4 60

b5e66b66 90 37 3a   Note On G2 58
b5e66be1 90 2b 00   Note On(0-Off) G1

b5e66be2 90 37 00   Note On(0-Off) G2

b5e66c0d 90 52 00   Note On(0-Off) Bb4
b5e66c91 90 2b 5e   Note On G1 94

b5e66c97 90 37 3e   Note On G2 62

b5e66ca8 90 4a 59   Note On D4 89
b5e66cfa 90 37 00   Note On(0-Off) G2

b5e66d16 90 2b 00   Note On(0-Off) G1

b5e66d5c 90 4a 00   Note On(0-Off) D4
b5e66e61 90 2b 31   Note On G1 49

b5e66e62 90 37 3a   Note On G2 58
b5e66efe 90 2b 00   Note On(0-Off) G1

b5e66f18 90 37 00   Note On(0-Off) G2
b5e66fc6 90 2b 45   Note On G1 69

b5e66fce 90 37 34   Note On G2 52
b5e67023 90 51 66   Note On A4 102

b5e6704c 90 37 00   Note On(0-Off) G2

b5e67052 90 51 00   Note On(0-Off) A4

b5e67064 90 2b 00   Note On(0-Off) G1
b5e6713e 90 2b 2c   Note On G1 44

b5e67146 90 37 2b   Note On G2 43
b5e6715b 90 51 67   Note On A4 103
b5e671c1 90 37 00   Note On(0-Off) G2

b5e671ca 90 2b 00   Note On(0-Off) G1

b5e671d2 90 51 00   Note On(0-Off) A4
b5e67253 90 52 5f   Note On Bb4 95

b5e6725e 90 2b 52   Note On G1 82

b5e67260 90 37 42   Note On G2 66
b5e672c8 90 52 00   Note On(0-Off) Bb4

b5e672ca 90 37 00   Note On(0-Off) G2

b5e672d2 90 2b 00   Note On(0-Off) G1
b5e6737f 90 51 64   Note On A4 100

b5e67384 90 37 44   Note On G2 68

b5e67387 90 2b 49   Note On G1 73
b5e673ed 90 37 00   Note On(0-Off) G2

b5e673fe 90 2b 00   Note On(0-Off) G1
b5e67416 90 51 00   Note On(0-Off) A4
b5e67478 90 37 3e   Note On G2 62

b5e67490 90 2b 1a   Note On G1 26

b5e674a5 90 52 62   Note On Bb4 98

b5e674c3 90 37 00   Note On(0-Off) G2
b5e674df 90 2b 00   Note On(0-Off) G1

b5e67500 90 52 00   Note On(0-Off) Bb4
b5e675d8 90 43 69   Note On G3 105

b5e675e6 90 27 59   Note On Eb1 89

b5e675eb 90 33 4f   Note On Eb2 79
b5e67637 90 33 00   Note On(0-Off) Eb2

b5e6764e 90 43 00   Note On(0-Off) G3

b5e6765d 90 27 00   Note On(0-Off) Eb1
b5e67750 90 27 49   Note On Eb1 73

b5e6776b 90 43 49   Note On G3 73

b5e6776c 90 33 15   Note On Eb2 21
b5e677bd 90 33 00   Note On(0-Off) Eb2

b5e677bf 90 43 00   Note On(0-Off) G3

b5e677d1 90 27 00   Note On(0-Off) Eb1
b5e6787b 90 27 5b   Note On Eb1 91

b5e67881 90 33 3e   Note On Eb2 62
b5e678f8 90 33 00   Note On(0-Off) Eb2

b5e6791b 90 27 00   Note On(0-Off) Eb1

b5e6791b 90 43 5f   Note On G3 95
b5e6798b 90 43 00   Note On(0-Off) G3
b5e67a11 90 27 47   Note On Eb1 71

b5e67a1f 90 33 3c   Note On Eb2 60
b5e67a6a 90 41 4d   Note On F3 77

b5e67a71 90 4a 59   Note On D4 89

b5e67a72 90 46 64   Note On Bb3 100

b5e67a8f 90 33 00   Note On(0-Off) Eb2

b5e67aa1 90 27 00   Note On(0-Off) Eb1

b5e67ac1 90 46 00   Note On(0-Off) Bb3

b5e67ac5 90 41 00   Note On(0-Off) F3

b5e67ac7 90 4a 00   Note On(0-Off) D4
b5e67c44 90 46 5f   Note On Bb3 95

b5e67c50 90 41 3a   Note On F3 58

b5e67c55 90 4a 64   Note On D4 100
b5e67c80 90 27 3e   Note On Eb1 62

b5e67c86 90 33 2f   Note On Eb2 47

b5e67ca2 90 41 00   Note On(0-Off) F3

b5e67ca8 90 46 00   Note On(0-Off) Bb3

b5e67cbb 90 4a 00   Note On(0-Off) D4

b5e67cbc 90 33 00   Note On(0-Off) Eb2
b5e67cdc 90 27 00   Note On(0-Off) Eb1
b5e67d73 90 27 21   Note On Eb1 33

b5e67d74 90 33 36   Note On Eb2 54

b5e67d80 90 46 45   Note On Bb3 69

b5e67d91 90 4a 56   Note On D4 86

b5e67d97 90 41 2f   Note On F3 47
b5e67dc4 90 33 00   Note On(0-Off) Eb2

b5e67dce 90 27 00   Note On(0-Off) Eb1

b5e67de1 90 46 00   Note On(0-Off) Bb3

b5e67de6 90 4a 00   Note On(0-Off) D4

b5e67dec 90 41 00   Note On(0-Off) F3
b5e67ee2 90 48 40   Note On C4 64

b5e67ee8 90 45 4d   Note On A3 77

b5e67eee 90 29 34   Note On F1 52

b5e67eee 90 41 3f   Note On F3 63

b5e67f01 90 35 22   Note On F2 34
b5e67f48 90 45 00   Note On(0-Off) A3

b5e67f50 90 48 00   Note On(0-Off) C4

b5e67f58 90 41 00   Note On(0-Off) F3

b5e67f6a 90 29 00   Note On(0-Off) F1

b5e67f6c 90 35 00   Note On(0-Off) F2
b5e6806c 90 29 18   Note On F1 24
b5e68072 90 35 31   Note On F2 49

b5e6808c 90 48 5b   Note On C4 91

b5e68094 90 45 62   Note On A3 98

b5e68096 90 41 4d   Note On F3 77
b5e680e0 90 35 00   Note On(0-Off) F2

b5e680f2 90 45 00   Note On(0-Off) A3

b5e680f8 90 29 00   Note On(0-Off) F1

b5e68104 90 48 00   Note On(0-Off) C4

b5e68107 90 41 00   Note On(0-Off) F3
b5e681ea 90 29 4f   Note On F1 79

b5e681eb 90 35 4b   Note On F2 75

b5e681ec 90 41 62   Note On F3 98

b5e681f5 90 48 5b   Note On C4 91

b5e681f9 90 45 42   Note On A3 66
b5e68220 90 45 00   Note On(0-Off) A3

b5e68233 90 41 00   Note On(0-Off) F3

b5e68249 90 35 00   Note On(0-Off) F2

b5e6824e 90 29 00   Note On(0-Off) F1

b5e68256 90 48 00   Note On(0-Off) C4
b5e68320 90 29 4f   Note On F1 79

b5e68327 90 35 4f   Note On F2 79

b5e68328 90 45 62   Note On A3 98

b5e6832a 90 48 67   Note On C4 103

b5e6832b 90 4d 70   Note On F4 112
b5e68384 90 48 00   Note On(0-Off) C4

b5e6838b 90 45 00   Note On(0-Off) A3

b5e6839b 90 35 00   Note On(0-Off) F2

b5e683a1 90 4d 00   Note On(0-Off) F4

b5e683a2 90 29 00   Note On(0-Off) F1
b5e684ba 90 29 44   Note On F1 68

b5e684ce 90 35 3a   Note On F2 58

b5e684d4 90 45 4d   Note On A3 77

b5e684d7 90 4d 59   Note On F4 89

b5e684d8 90 48 59   Note On C4 89
b5e68549 90 48 00   Note On(0-Off) C4

b5e6854e 90 45 00   Note On(0-Off) A3
b5e68558 90 35 00   Note On(0-Off) F2

b5e6855f 90 4d 00   Note On(0-Off) F4

b5e6856f 90 29 00   Note On(0-Off) F1
b5e68621 90 29 3c   Note On F1 60

b5e68635 90 4d 64   Note On F4 100

b5e6863c 90 45 3d   Note On A3 61

b5e68640 90 35 21   Note On F2 33

b5e68641 90 48 56   Note On C4 86
b5e68695 90 48 00   Note On(0-Off) C4

b5e68698 90 29 00   Note On(0-Off) F1

b5e6869a 90 45 00   Note On(0-Off) A3

b5e686a0 90 4d 00   Note On(0-Off) F4

b5e686ab 90 35 00   Note On(0-Off) F2
b5e68761 90 43 5f   Note On G3 95

b5e6876a 90 46 62   Note On Bb3 98

b5e6876f 90 2b 59   Note On G1 89

b5e68771 90 4a 67   Note On D4 103

b5e68776 90 37 47   Note On G2 71

b5e6877d 90 4f 3d   Note On G4 61
b5e687c1 90 46 00   Note On(0-Off) Bb3

b5e687d8 90 4a 00   Note On(0-Off) D4

b5e687e0 90 43 00   Note On(0-Off) G3

b5e68804 90 37 00   Note On(0-Off) G2
b5e68828 90 2b 00   Note On(0-Off) G1

b5e68830 90 4f 00   Note On(0-Off) G4
b5e688e1 90 2b 33   Note On G1 51
b5e688fd 90 37 21   Note On G2 33

b5e68912 90 46 3c   Note On Bb3 60

b5e6891c 90 4f 40   Note On G4 64

b5e68920 90 4a 49   Note On D4 73

b5e68920 90 43 34   Note On G3 52
b5e68984 90 43 00   Note On(0-Off) G3

b5e68986 90 37 00   Note On(0-Off) G2

b5e6898e 90 46 00   Note On(0-Off) Bb3

b5e68996 90 4a 00   Note On(0-Off) D4

b5e6899b 90 2b 00   Note On(0-Off) G1
b5e689b8 90 4f 00   Note On(0-Off) G4
b5e68acf 90 46 5e   Note On Bb3 94

b5e68ad2 90 4f 47   Note On G4 71

b5e68ad3 90 43 4f   Note On G3 79

b5e68ad4 90 4a 5f   Note On D4 95

b5e68ade 90 2b 3e   Note On G1 62
b5e68afa 90 37 40   Note On G2 64

b5e68b38 90 43 00   Note On(0-Off) G3

b5e68b3a 90 46 00   Note On(0-Off) Bb3

b5e68b3e 90 4a 00   Note On(0-Off) D4

b5e68b40 90 4f 00   Note On(0-Off) G4
b5e68b57 90 37 00   Note On(0-Off) G2

b5e68b7e 90 2b 00   Note On(0-Off) G1
b5e68c44 90 2b 4b   Note On G1 75

b5e68c54 90 37 31   Note On G2 49

b5e68c62 90 46 3a   Note On Bb3 58

b5e68c65 90 4a 3e   Note On D4 62

b5e68c66 90 4f 40   Note On G4 64

b5e68c72 90 43 1c   Note On G3 28
b5e68c98 90 37 00   Note On(0-Off) G2

b5e68ca3 90 2b 00   Note On(0-Off) G1

b5e68ca9 90 43 00   Note On(0-Off) G3

b5e68cb0 90 4a 00   Note On(0-Off) D4

b5e68cb4 90 46 00   Note On(0-Off) Bb3

b5e68cc1 90 4f 00   Note On(0-Off) G4
b5e68d99 90 27 52   Note On Eb1 82

b5e68d9a 90 46 64   Note On Bb3 100

b5e68da0 90 43 3e   Note On G3 62
b5e68db5 90 33 2f   Note On Eb2 47

b5e68dd8 90 43 00   Note On(0-Off) G3

b5e68de6 90 46 00   Note On(0-Off) Bb3

b5e68df8 90 33 00   Note On(0-Off) Eb2

b5e68e0a 90 27 00   Note On(0-Off) Eb1
b5e68eaa 90 4d 5b   Note On F4 91

b5e68eac 90 45 5f   Note On A3 95

b5e68eaf 90 48 4d   Note On C4 77

b5e68eb5 90 47 4d   Note On B3 77

b5e68ebd 90 29 67   Note On F1 103

b5e68ec4 90 35 56   Note On F2 86
b5e68ee7 90 47 00   Note On(0-Off) B3

b5e68ef0 90 48 00   Note On(0-Off) C4

b5e68ef5 90 4d 00   Note On(0-Off) F4

b5e68ef9 90 45 00   Note On(0-Off) A3

b5e68f16 90 35 00   Note On(0-Off) F2

b5e68f1f 90 29 00   Note On(0-Off) F1
b5e68fd0 90 43 64   Note On G3 100

b5e68fd3 90 46 67   Note On Bb3 103

b5e68fd6 90 4f 6b   Note On G4 107

b5e68fd8 90 37 6b   Note On G2 107

b5e68fde 90 2b 64   Note On G1 100
b5e6907c 90 46 00   Note On(0-Off) Bb3

b5e69088 90 43 00   Note On(0-Off) G3

b5e690a9 90 37 00   Note On(0-Off) G2

b5e690b2 90 2b 00   Note On(0-Off) G1

b5e690b2 90 4f 00   Note On(0-Off) G4
b5e692ec 90 2b 1f   Note On G1 31

b5e692ee 90 37 31   Note On G2 49
b5e69383 90 37 00   Note On(0-Off) G2

b5e69395 90 2b 00   Note On(0-Off) G1
b5e69441 90 37 47   Note On G2 71

b5e69443 90 2b 5b   Note On G1 91

b5e6944c 90 48 72   Note On C4 114
b5e694c6 90 37 00   Note On(0-Off) G2

b5e694c9 90 2b 00   Note On(0-Off) G1
b5e694e9 90 48 00   Note On(0-Off) C4

b5e69528 90 46 67   Note On Bb3 103
b5e695d7 90 46 00   Note On(0-Off) Bb3
b5e69673 90 45 64   Note On A3 100
b5e69740 90 45 00   Note On(0-Off) A3

b5e69773 90 41 72   Note On F3 114
b5e697f4 90 41 00   Note On(0-Off) F3
b5e698a7 90 27 45   Note On Eb1 69

b5e698b1 90 43 6b   Note On G3 107

b5e698b7 90 33 42   Note On Eb2 66
b5e69939 90 33 00   Note On(0-Off) Eb2

b5e6994e 90 27 00   Note On(0-Off) Eb1

b5e69975 90 43 00   Note On(0-Off) G3
b5e69a5a 90 33 3e   Note On Eb2 62
b5e69a78 90 43 60   Note On G3 96
b5e69af1 90 33 00   Note On(0-Off) Eb2

b5e69af7 90 43 00   Note On(0-Off) G3
b5e69b6e 90 33 62   Note On Eb2 98
b5e69c29 90 33 00   Note On(0-Off) Eb2

b5e69c39 90 4a 6b   Note On D4 107
b5e69ca6 90 4a 00   Note On(0-Off) D4
b5e69d51 90 33 4d   Note On Eb2 77

b5e69d66 90 48 64   Note On C4 100
b5e69dea 90 48 00   Note On(0-Off) C4
b5e69df6 90 33 00   Note On(0-Off) Eb2
b5e69fca 90 46 6d   Note On Bb3 109

b5e69fcb 90 33 3f   Note On Eb2 63
b5e6a01a 90 33 00   Note On(0-Off) Eb2
b5e6a158 90 46 00   Note On(0-Off) Bb3
b5e6a1bb 90 35 3a   Note On F2 58

b5e6a1bb 90 29 4b   Note On F1 75

b5e6a1bb 90 45 64   Note On A3 100
b5e6a265 90 29 00   Note On(0-Off) F1

b5e6a266 90 45 00   Note On(0-Off) A3

b5e6a266 90 35 00   Note On(0-Off) F2
b5e6a339 90 35 4f   Note On F2 79

b5e6a343 90 45 67   Note On A3 103
b5e6a3be 90 35 00   Note On(0-Off) F2

b5e6a3e2 90 45 00   Note On(0-Off) A3
b5e6a444 90 35 3c   Note On F2 60
b5e6a4de 90 35 00   Note On(0-Off) F2

b5e6a507 90 45 69   Note On A3 105
b5e6a589 90 45 00   Note On(0-Off) A3

b5e6a58b 90 35 45   Note On F2 69
b5e6a62f 90 35 00   Note On(0-Off) F2

b5e6a630 90 48 64   Note On C4 100
b5e6a71c 90 35 56   Note On F2 86
b5e6a76b 90 48 00   Note On(0-Off) C4

b5e6a7a9 90 35 00   Note On(0-Off) F2
b5e6a7f1 90 47 69   Note On B3 105
b5e6a83d 90 35 3e   Note On F2 62

b5e6a84b 90 47 00   Note On(0-Off) B3
b5e6a8e1 90 35 00   Note On(0-Off) F2
b5e6a906 90 46 76   Note On Bb3 118
b5e6a9f0 90 46 00   Note On(0-Off) Bb3
b5e6aa38 90 2b 2b   Note On G1 43

b5e6aa3d 90 43 67   Note On G3 103

b5e6aa58 90 37 20   Note On G2 32
b5e6ab0b 90 43 00   Note On(0-Off) G3
b5e6ab50 90 2b 00   Note On(0-Off) G1

b5e6ab61 90 37 00   Note On(0-Off) G2
b5e6abef 90 43 64   Note On G3 100

b5e6abf7 90 37 3d   Note On G2 61
b5e6ac6e 90 43 00   Note On(0-Off) G3
b5e6aca3 90 37 00   Note On(0-Off) G2
b5e6ad4b 90 43 4d   Note On G3 77

b5e6ad64 90 37 5f   Note On G2 95

b5e6ad98 90 43 00   Note On(0-Off) G3
b5e6adc8 90 37 00   Note On(0-Off) G2
b5e6ae84 90 52 6d   Note On Bb4 109

b5e6ae99 90 2b 5b   Note On G1 91

b5e6aeaa 90 37 3c   Note On G2 60
b5e6af47 90 37 00   Note On(0-Off) G2

b5e6af58 90 52 00   Note On(0-Off) Bb4

b5e6af68 90 2b 00   Note On(0-Off) G1

b5e6af7c 90 51 67   Note On A4 103
b5e6b039 90 51 00   Note On(0-Off) A4
b5e6b0a9 90 37 59   Note On G2 89

b5e6b0a9 90 51 42   Note On A4 66
b5e6b0ca 90 51 00   Note On(0-Off) A4
b5e6b1bc 90 37 00   Note On(0-Off) G2

b5e6b1c3 90 52 59   Note On Bb4 89
b5e6b26a 90 52 00   Note On(0-Off) Bb4
b5e6b2c6 90 2b 49   Note On G1 73

b5e6b305 90 43 72   Note On G3 114
b5e6b384 90 43 00   Note On(0-Off) G3
b5e6b44c 90 2b 00   Note On(0-Off) G1
b5e6b4ab 90 43 5e   Note On G3 94
b5e6b4cd 90 37 45   Note On G2 69

b5e6b504 90 43 00   Note On(0-Off) G3
b5e6b565 90 37 00   Note On(0-Off) G2
b5e6b63e 90 52 70   Note On Bb4 112
b5e6b660 90 37 44   Note On G2 68

b5e6b6a5 90 52 00   Note On(0-Off) Bb4
b5e6b6e0 90 37 00   Note On(0-Off) G2
b5e6b756 90 51 69   Note On A4 105

b5e6b77c 90 37 36   Note On G2 54
b5e6b7c2 90 51 00   Note On(0-Off) A4
b5e6b7fd 90 37 00   Note On(0-Off) G2

b5e6b800 90 52 69   Note On Bb4 105
b5e6b879 90 52 00   Note On(0-Off) Bb4

b5e6b881 90 51 6b   Note On A4 107

b5e6b89f 90 37 4b   Note On G2 75
b5e6b8d8 90 51 00   Note On(0-Off) A4
b5e6b93f 90 37 00   Note On(0-Off) G2
b5e6b9bf 90 37 5e   Note On G2 94

b5e6b9d6 90 52 70   Note On Bb4 112
b5e6ba2e 90 37 00   Note On(0-Off) G2
b5e6ba68 90 52 00   Note On(0-Off) Bb4
b5e6bad6 90 51 52   Note On A4 82
b5e6bb71 90 52 67   Note On Bb4 103
b5e6bb87 90 51 00   Note On(0-Off) A4
b5e6bc02 90 52 00   Note On(0-Off) Bb4

b5e6bc23 90 33 59   Note On Eb2 89

b5e6bc34 90 27 64   Note On Eb1 100
b5e6bc92 90 33 00   Note On(0-Off) Eb2
b5e6bd25 90 27 00   Note On(0-Off) Eb1
b5e6be4d 90 33 3d   Note On Eb2 61
b5e6bede 90 33 00   Note On(0-Off) Eb2
b5e6bfc0 90 33 4b   Note On Eb2 75

b5e6bfc6 90 46 44   Note On Bb3 68

b5e6bfc7 90 4a 4d   Note On D4 77

b5e6bfca 90 41 4d   Note On F3 77
b5e6c02a 90 4a 00   Note On(0-Off) D4

b5e6c036 90 46 00   Note On(0-Off) Bb3
b5e6c03e 90 41 00   Note On(0-Off) F3

b5e6c04c 90 33 00   Note On(0-Off) Eb2
b5e6c120 90 46 6e   Note On Bb3 110

b5e6c122 90 33 52   Note On Eb2 82

b5e6c123 90 41 5f   Note On F3 95

b5e6c12c 90 4a 62   Note On D4 98
b5e6c185 90 4a 00   Note On(0-Off) D4

b5e6c189 90 41 00   Note On(0-Off) F3

b5e6c18d 90 46 00   Note On(0-Off) Bb3

b5e6c1c2 90 33 00   Note On(0-Off) Eb2
b5e6c2db 90 33 72   Note On Eb2 114

b5e6c2e3 90 46 79   Note On Bb3 121

b5e6c2e3 90 41 67   Note On F3 103

b5e6c2e5 90 4a 6d   Note On D4 109
b5e6c332 90 4a 00   Note On(0-Off) D4

b5e6c336 90 46 00   Note On(0-Off) Bb3

b5e6c337 90 41 00   Note On(0-Off) F3

b5e6c350 90 33 00   Note On(0-Off) Eb2
b5e6c44b 90 33 64   Note On Eb2 100

b5e6c45b 90 41 69   Note On F3 105

b5e6c45e 90 4a 6b   Note On D4 107

b5e6c45f 90 46 76   Note On Bb3 118

b5e6c48a 90 33 00   Note On(0-Off) Eb2
b5e6c499 90 46 00   Note On(0-Off) Bb3

b5e6c49f 90 4a 00   Note On(0-Off) D4

b5e6c4aa 90 41 00   Note On(0-Off) F3
b5e6c598 90 48 62   Note On C4 98

b5e6c599 90 41 6b   Note On F3 107

b5e6c59a 90 45 64   Note On A3 100

b5e6c5a6 90 35 3d   Note On F2 61

b5e6c5b0 90 29 45   Note On F1 69
b5e6c5fa 90 45 00   Note On(0-Off) A3

b5e6c601 90 48 00   Note On(0-Off) C4

b5e6c617 90 41 00   Note On(0-Off) F3

b5e6c61e 90 35 00   Note On(0-Off) F2
b5e6c62a 90 29 00   Note On(0-Off) F1
b5e6c721 90 35 52   Note On F2 82
b5e6c763 90 41 64   Note On F3 100

b5e6c764 90 45 6b   Note On A3 107

b5e6c765 90 48 69   Note On C4 105
b5e6c7ba 90 35 00   Note On(0-Off) F2

b5e6c7d6 90 48 00   Note On(0-Off) C4

b5e6c7d8 90 45 00   Note On(0-Off) A3

b5e6c7db 90 41 00   Note On(0-Off) F3
b5e6c825 90 35 64   Note On F2 100
b5e6c8e8 90 35 00   Note On(0-Off) F2
b5e6c918 90 48 67   Note On C4 103

b5e6c919 90 41 66   Note On F3 102

b5e6c91a 90 45 66   Note On A3 102

b5e6c94a 90 35 67   Note On F2 103
b5e6c97b 90 45 00   Note On(0-Off) A3

b5e6c984 90 41 00   Note On(0-Off) F3

b5e6c992 90 48 00   Note On(0-Off) C4
b5e6ca0e 90 35 00   Note On(0-Off) F2
b5e6ca87 90 45 72   Note On A3 114

b5e6ca89 90 48 6b   Note On C4 107

b5e6ca8e 90 4d 6b   Note On F4 107

b5e6caad 90 2b 62   Note On G1 98
b5e6caf7 90 48 00   Note On(0-Off) C4

b5e6cb01 90 45 00   Note On(0-Off) A3
b5e6cb55 90 4d 00   Note On(0-Off) F4

b5e6cb74 90 2b 00   Note On(0-Off) G1
b5e6cc24 90 2b 60   Note On G1 96

b5e6cc4b 90 45 62   Note On A3 98

b5e6cc4c 90 48 67   Note On C4 103

b5e6cc50 90 4d 5b   Note On F4 91
b5e6ccc3 90 45 00   Note On(0-Off) A3

b5e6ccc4 90 48 00   Note On(0-Off) C4

b5e6ccca 90 4d 00   Note On(0-Off) F4
b5e6cd50 90 2b 00   Note On(0-Off) G1
b5e6cdad 90 4d 6b   Note On F4 107

b5e6cdae 90 45 67   Note On A3 103

b5e6cdaf 90 48 6b   Note On C4 107

b5e6cdcd 90 2b 59   Note On G1 89

b5e6cdf8 90 48 00   Note On(0-Off) C4

b5e6cdfb 90 45 00   Note On(0-Off) A3
b5e6ce10 90 4d 00   Note On(0-Off) F4
b5e6ce7b 90 2b 00   Note On(0-Off) G1

b5e6ceed 90 43 3f   Note On G3 63

b5e6ceed 90 46 59   Note On Bb3 89

b5e6ceed 90 4a 64   Note On D4 100

b5e6ceed 90 4f 62   Note On G4 98
b5e6cef6 90 37 67   Note On G2 103

b5e6cf3f 90 43 00   Note On(0-Off) G3

b5e6cf49 90 46 00   Note On(0-Off) Bb3

b5e6cf4b 90 4a 00   Note On(0-Off) D4
b5e6cf60 90 37 00   Note On(0-Off) G2
b5e6cfbe 90 4f 00   Note On(0-Off) G4
b5e6d0cf 90 37 66   Note On G2 102

b5e6d0d9 90 43 4d   Note On G3 77

b5e6d0e5 90 46 4d   Note On Bb3 77

b5e6d0e6 90 4a 62   Note On D4 98

b5e6d0e7 90 4f 3e   Note On G4 62
b5e6d149 90 43 00   Note On(0-Off) G3
b5e6d15b 90 46 00   Note On(0-Off) Bb3

b5e6d15e 90 4a 00   Note On(0-Off) D4

b5e6d168 90 4f 00   Note On(0-Off) G4

b5e6d19d 90 37 00   Note On(0-Off) G2
b5e6d205 90 37 67   Note On G2 103
b5e6d23e 90 43 13   Note On G3 19

b5e6d23f 90 4a 69   Note On D4 105

b5e6d241 90 46 5f   Note On Bb3 95

b5e6d242 90 4f 67   Note On G4 103
b5e6d2a9 90 43 00   Note On(0-Off) G3

b5e6d2ac 90 46 00   Note On(0-Off) Bb3

b5e6d2b0 90 4a 00   Note On(0-Off) D4

b5e6d2c9 90 37 00   Note On(0-Off) G2

b5e6d2d5 90 4f 00   Note On(0-Off) G4
b5e6d394 90 37 59   Note On G2 89
b5e6d3d0 90 43 3f   Note On G3 63

b5e6d3d2 90 46 42   Note On Bb3 66

b5e6d3d4 90 4a 67   Note On D4 103

b5e6d3d7 90 4f 64   Note On G4 100

b5e6d40e 90 37 00   Note On(0-Off) G2
b5e6d445 90 4a 00   Note On(0-Off) D4

b5e6d44a 90 46 00   Note On(0-Off) Bb3

b5e6d450 90 43 00   Note On(0-Off) G3

b5e6d460 90 4f 00   Note On(0-Off) G4

b5e6d466 90 37 4d   Note On G2 77
b5e6d4f7 90 37 00   Note On(0-Off) G2
b5e6d58e 90 29 67   Note On F1 103

b5e6d592 90 43 5b   Note On G3 91

b5e6d593 90 47 67   Note On B3 103

b5e6d598 90 4a 74   Note On D4 116

b5e6d5a8 90 35 44   Note On F2 68

b5e6d5a8 90 34 47   Note On E2 71
b5e6d5d7 90 47 00   Note On(0-Off) B3

b5e6d5f2 90 43 00   Note On(0-Off) G3

b5e6d609 90 4a 00   Note On(0-Off) D4

b5e6d610 90 34 00   Note On(0-Off) E2
b5e6d623 90 29 00   Note On(0-Off) F1

b5e6d625 90 35 00   Note On(0-Off) F2
b5e6d6b5 90 45 4f   Note On A3 79

b5e6d6b6 90 48 5e   Note On C4 94

b5e6d6c2 90 4d 69   Note On F4 105

b5e6d6cf 90 37 38   Note On G2 56

b5e6d6d1 90 2b 5b   Note On G1 91
b5e6d711 90 48 00   Note On(0-Off) C4

b5e6d71c 90 45 00   Note On(0-Off) A3

b5e6d722 90 4d 00   Note On(0-Off) F4

b5e6d731 90 2b 00   Note On(0-Off) G1
b5e6d743 90 37 00   Note On(0-Off) G2
b5e6d7d3 90 37 5f   Note On G2 95

b5e6d7de 90 2b 3a   Note On G1 58
b5e6d80f 90 4f 69   Note On G4 105

b5e6d812 90 43 3c   Note On G3 60

b5e6d855 90 2b 00   Note On(0-Off) G1

b5e6d86e 90 37 00   Note On(0-Off) G2

b5e6d86f 90 43 00   Note On(0-Off) G3
b5e6d880 90 4f 00   Note On(0-Off) G4
b5f26993 90 43 56   Note On G3 86
b5f26a9a 90 43 00   Note On(0-Off) G3
b5f26b18 90 45 6b   Note On A3 107
b5f26d55 90 45 00   Note On(0-Off) A3
b5f2744d 90 4f 72   Note On G4 114
b5f275a7 90 4f 00   Note On(0-Off) G4
b5f27716 90 51 72   Note On A4 114

b5f2771e 90 4f 67   Note On G4 103
b5f277a2 90 4f 00   Note On(0-Off) G4
b5f2788e 90 51 00   Note On(0-Off) A4
b5f279c0 90 4f 6d   Note On G4 109
b5f27a86 90 4f 00   Note On(0-Off) G4
b5f27b30 90 54 72   Note On C5 114
b5f27bdd 90 54 00   Note On(0-Off) C5
b5f27c94 90 51 4f   Note On A4 79
b5f27c97 90 4f 45   Note On G4 69
b5f27d1f 90 51 00   Note On(0-Off) A4

b5f27d21 90 4f 00   Note On(0-Off) G4
b5f27deb 90 4f 64   Note On G4 100
b5f27f7b 90 4f 00   Note On(0-Off) G4
b5f28035 90 54 6d   Note On C5 109
b5f28542 90 54 00   Note On(0-Off) C5
b5f285e0 90 53 67   Note On B4 103
b5f286ac 90 53 00   Note On(0-Off) B4
b5f28703 90 54 69   Note On C5 105
b5f28797 90 54 00   Note On(0-Off) C5
b5f28859 90 51 6b   Note On A4 107
b5f28aa0 90 51 00   Note On(0-Off) A4
b5f3bfcd 90 3e 5b   Note On D3 91
b5f3c103 90 3e 00   Note On(0-Off) D3
b5f3c11a 90 43 3f   Note On G3 63
b5f3c248 90 43 00   Note On(0-Off) G3

b5f3c29d 90 45 76   Note On A3 118
b5f3c37b 90 45 00   Note On(0-Off) A3
b5f3c939 90 46 6b   Note On Bb3 107
b5f3c9e0 90 46 00   Note On(0-Off) Bb3
b5f3ca50 90 48 4f   Note On C4 79
b5f3cae8 90 48 00   Note On(0-Off) C4
b5f3cb7d 90 4a 6d   Note On D4 109
b5f3cc28 90 4a 00   Note On(0-Off) D4
b5f3cd54 90 43 69   Note On G3 105
b5f3ce0a 90 43 00   Note On(0-Off) G3
b5f3ce73 90 45 6e   Note On A3 110
b5f3cf1f 90 45 00   Note On(0-Off) A3
b5f3cfb2 90 46 7b   Note On Bb3 123

b5f3cfc5 90 2b 60   Note On G1 96
b5f3d794 90 2b 00   Note On(0-Off) G1
b5f3d7f5 90 46 00   Note On(0-Off) Bb3
b5f3db9c 90 3e 52   Note On D3 82

b5f3db9d 90 41 5e   Note On F3 94

b5f3db9e 90 46 5b   Note On Bb3 91

b5f3dba3 90 2e 69   Note On Bb1 105
b5f3e141 90 2e 00   Note On(0-Off) Bb1
b5f3e165 90 46 00   Note On(0-Off) Bb3

b5f3e18c 90 3e 00   Note On(0-Off) D3

b5f3e191 90 41 00   Note On(0-Off) F3
b5f3e408 90 26 5f   Note On D1 95

b5f3e416 90 41 5f   Note On F3 95

b5f3e416 90 45 64   Note On A3 100
b5f3e41b 90 3e 5e   Note On D3 94
b5f3e8ad 90 41 00   Note On(0-Off) F3

b5f3e8c2 90 3e 00   Note On(0-Off) D3
b5f3e92a 90 45 00   Note On(0-Off) A3
b5f3ea0b 90 26 00   Note On(0-Off) D1
b5f3ec7d 90 29 5f   Note On F1 95

b5f3ec7d 90 41 5f   Note On F3 95

b5f3ec7e 90 45 64   Note On A3 100
b5f3f788 90 45 00   Note On(0-Off) A3

b5f3f791 90 41 00   Note On(0-Off) F3
b5f3f8b0 90 29 00   Note On(0-Off) F1
b5f3fa84 90 3a 47   Note On Bb2 71

b5f3fa86 90 3e 69   Note On D3 105

b5f3fa8c 90 43 45   Note On G3 69

b5f3fa91 90 2b 62   Note On G1 98
b5f3fd67 90 2b 00   Note On(0-Off) G1

b5f3fd6c 90 3e 00   Note On(0-Off) D3

b5f3fd6f 90 43 00   Note On(0-Off) G3

b5f3fd75 90 3a 00   Note On(0-Off) Bb2
b5f402d4 90 3e 5e   Note On D3 94

b5f402d5 90 2e 69   Note On Bb1 105

b5f402d7 90 41 62   Note On F3 98

b5f402d8 90 46 69   Note On Bb3 105
b5f407a6 90 2e 00   Note On(0-Off) Bb1
b5f407ed 90 41 00   Note On(0-Off) F3

b5f407ee 90 46 00   Note On(0-Off) Bb3

b5f40811 90 3e 00   Note On(0-Off) D3
b5f409af 90 45 5f   Note On A3 95

b5f409b2 90 41 59   Note On F3 89

b5f409b7 90 3e 4d   Note On D3 77

b5f409ba 90 26 64   Note On D1 100
b5f40dbe 90 3e 00   Note On(0-Off) D3

b5f40dbf 90 45 00   Note On(0-Off) A3

b5f40dc7 90 41 00   Note On(0-Off) F3
b5f40ed3 90 26 00   Note On(0-Off) D1
b5f41002 90 29 5f   Note On F1 95

b5f4100a 90 41 5e   Note On F3 94

b5f4100f 90 45 60   Note On A3 96
b5f414d3 90 45 00   Note On(0-Off) A3

b5f41516 90 41 00   Note On(0-Off) F3
b5f415d3 90 29 00   Note On(0-Off) F1
b5f416a0 90 2b 59   Note On G1 89

b5f416a5 90 3e 6b   Note On D3 107

b5f416a8 90 3a 5e   Note On Bb2 94

b5f416ad 90 43 66   Note On G3 102
b5f41725 90 3e 00   Note On(0-Off) D3

b5f4172a 90 3a 00   Note On(0-Off) Bb2
b5f41730 90 2b 00   Note On(0-Off) G1

b5f4173b 90 43 00   Note On(0-Off) G3
b5f418cb 90 2e 66   Note On Bb1 102

b5f418ce 90 3e 5b   Note On D3 91

b5f418d1 90 46 52   Note On Bb3 82

b5f418d4 90 41 64   Note On F3 100
b5f41990 90 3e 00   Note On(0-Off) D3

b5f419a5 90 46 00   Note On(0-Off) Bb3

b5f419ab 90 2e 00   Note On(0-Off) Bb1
b5f419bf 90 41 00   Note On(0-Off) F3
b5f41ad3 90 26 59   Note On D1 89

b5f41ada 90 45 64   Note On A3 100

b5f41ade 90 3e 60   Note On D3 96

b5f41adf 90 41 5f   Note On F3 95
b5f41b8c 90 3e 00   Note On(0-Off) D3

b5f41b9a 90 41 00   Note On(0-Off) F3

b5f41bb1 90 45 00   Note On(0-Off) A3
b5f41c70 90 26 00   Note On(0-Off) D1
b5f41d3a 90 45 3c   Note On A3 60

b5f41d3b 90 41 49   Note On F3 73

b5f41d3d 90 29 66   Note On F1 102
b5f42015 90 41 00   Note On(0-Off) F3

b5f4203c 90 45 00   Note On(0-Off) A3
b5f420fe 90 29 00   Note On(0-Off) F1
b5f42268 90 43 64   Note On G3 100

b5f42269 90 46 67   Note On Bb3 103

b5f4226a 90 3e 4f   Note On D3 79

b5f4226d 90 2b 66   Note On G1 102
b5f42639 90 2b 00   Note On(0-Off) G1
b5f42692 90 3e 00   Note On(0-Off) D3

b5f426a8 90 43 00   Note On(0-Off) G3
b5f426e0 90 46 00   Note On(0-Off) Bb3
b5f42b7f 90 2e 6b   Note On Bb1 107

b5f42b87 90 4a 72   Note On D4 114

b5f42b89 90 46 72   Note On Bb3 114

b5f42b8c 90 41 60   Note On F3 96
b5f4310d 90 4a 00   Note On(0-Off) D4
b5f4316d 90 46 00   Note On(0-Off) Bb3

b5f43175 90 2e 00   Note On(0-Off) Bb1
b5f431d2 90 41 00   Note On(0-Off) F3
b5f4335b 90 45 6b   Note On A3 107

b5f4335d 90 4a 6b   Note On D4 107

b5f43360 90 41 62   Note On F3 98

b5f43369 90 26 5f   Note On D1 95
b5f4389f 90 26 00   Note On(0-Off) D1
b5f438f0 90 41 00   Note On(0-Off) F3

b5f438f1 90 45 00   Note On(0-Off) A3

b5f438fe 90 4a 00   Note On(0-Off) D4
b5f439ea 90 29 60   Note On F1 96

b5f439f7 90 41 5b   Note On F3 91

b5f439f9 90 48 60   Note On C4 96

b5f439fa 90 45 5e   Note On A3 94
b5f43ba5 90 29 00   Note On(0-Off) F1

b5f43bd3 90 48 00   Note On(0-Off) C4

b5f43bd7 90 41 00   Note On(0-Off) F3

b5f43bdc 90 45 00   Note On(0-Off) A3
b5f4a1c8 90 46 59   Note On Bb3 89

b5f4a1cf 90 3e 62   Note On D3 98

b5f4a1d0 90 43 67   Note On G3 103

b5f4a1d2 90 2b 6d   Note On G1 109
b5f4a631 90 3e 00   Note On(0-Off) D3

b5f4a632 90 43 00   Note On(0-Off) G3

b5f4a64a 90 46 00   Note On(0-Off) Bb3

b5f4a64d 90 2b 00   Note On(0-Off) G1
b5f4a93e 90 29 6b   Note On F1 107
b5f4a94b 90 45 64   Note On A3 100

b5f4a959 90 41 6d   Note On F3 109
b5f4ab84 90 41 00   Note On(0-Off) F3

b5f4ab97 90 29 00   Note On(0-Off) F1

b5f4abae 90 45 00   Note On(0-Off) A3
b5f4b047 90 41 69   Note On F3 105

b5f4b04a 90 45 69   Note On A3 105

b5f4b04b 90 29 72   Note On F1 114
b5f4b557 90 29 00   Note On(0-Off) F1
b5f4b5d2 90 41 00   Note On(0-Off) F3
b5f4b671 90 45 00   Note On(0-Off) A3
b5f4b7a8 90 2b 6d   Note On G1 109

b5f4b7aa 90 46 70   Note On Bb3 112

b5f4b7ad 90 43 67   Note On G3 103

b5f4b7b1 90 3e 62   Note On D3 98
b5f4ba6f 90 2b 00   Note On(0-Off) G1

b5f4ba7b 90 46 00   Note On(0-Off) Bb3

b5f4ba7b 90 3e 00   Note On(0-Off) D3

b5f4ba80 90 43 00   Note On(0-Off) G3
b5f4bb1e 90 29 69   Note On F1 105

b5f4bb49 90 45 6b   Note On A3 107

b5f4bb51 90 41 70   Note On F3 112

b5f4bb5c 90 3c 7f   Note On C3 127
b5f4c072 90 3c 00   Note On(0-Off) C3
b5f4c0df 90 29 00   Note On(0-Off) F1
b5f4c128 90 41 00   Note On(0-Off) F3
b5f4c1ac 90 45 00   Note On(0-Off) A3
b5f4c29e 90 2b 64   Note On G1 100

b5f4c2a8 90 46 72   Note On Bb3 114

b5f4c2b0 90 43 66   Note On G3 102
b5f4c2b8 90 3e 6b   Note On D3 107
b5f4c363 90 3e 00   Note On(0-Off) D3

b5f4c375 90 43 00   Note On(0-Off) G3
b5f4c384 90 46 00   Note On(0-Off) Bb3
b5f4c4b8 90 46 76   Note On Bb3 118

b5f4c4b9 90 43 74   Note On G3 116

b5f4c4bc 90 3e 6e   Note On D3 110
b5f4c5b0 90 3e 00   Note On(0-Off) D3

b5f4c5c1 90 2b 00   Note On(0-Off) G1

b5f4c5c2 90 43 00   Note On(0-Off) G3
b5f4c5fc 90 46 00   Note On(0-Off) Bb3
b5f4c6b2 90 2b 67   Note On G1 103

b5f4c6bb 90 46 76   Note On Bb3 118

b5f4c6c0 90 43 72   Note On G3 114

b5f4c6c5 90 3e 69   Note On D3 105
b5f4c7ad 90 3e 00   Note On(0-Off) D3

b5f4c7b5 90 43 00   Note On(0-Off) G3

b5f4c7c0 90 46 00   Note On(0-Off) Bb3
b5f4c8aa 90 46 6e   Note On Bb3 110

b5f4c8aa 90 43 6b   Note On G3 107

b5f4c8aa 90 3e 69   Note On D3 105

b5f4c8ce 90 2b 00   Note On(0-Off) G1
b5f4c954 90 43 00   Note On(0-Off) G3

b5f4c959 90 3e 00   Note On(0-Off) D3

b5f4c96b 90 46 00   Note On(0-Off) Bb3
b5f4ca68 90 26 67   Note On D1 103

b5f4ca76 90 3e 6b   Note On D3 107

b5f4ca77 90 45 6d   Note On A3 109

b5f4ca78 90 41 6e   Note On F3 110
b5f4cb4c 90 3e 00   Note On(0-Off) D3

b5f4cb4e 90 41 00   Note On(0-Off) F3
b5f4cb76 90 45 00   Note On(0-Off) A3

b5f4cbb7 90 26 00   Note On(0-Off) D1
b5f4cc5c 90 26 5f   Note On D1 95

b5f4cc69 90 3e 6b   Note On D3 107

b5f4cc6a 90 45 6b   Note On A3 107

b5f4cc6b 90 41 6b   Note On F3 107
b5f4ccfb 90 3e 00   Note On(0-Off) D3
b5f4cd08 90 41 00   Note On(0-Off) F3

b5f4cd21 90 26 00   Note On(0-Off) D1

b5f4cd37 90 45 00   Note On(0-Off) A3
b5f4cf5e 90 2e 76   Note On Bb1 118

b5f4cf5e 90 46 76   Note On Bb3 118

b5f4cf5e 90 41 6b   Note On F3 107

b5f4cf5e 90 3e 62   Note On D3 98
b5f4cfe7 90 3e 00   Note On(0-Off) D3

b5f4cfe7 90 41 00   Note On(0-Off) F3

b5f4cff5 90 2e 00   Note On(0-Off) Bb1

b5f4d002 90 46 00   Note On(0-Off) Bb3
b5f4d0ac 90 2e 52   Note On Bb1 82

b5f4d0ad 90 3e 4f   Note On D3 79

b5f4d0ad 90 46 5b   Note On Bb3 91

b5f4d0ae 90 41 56   Note On F3 86

b5f4d15b 90 41 00   Note On(0-Off) F3

b5f4d15b 90 3e 00   Note On(0-Off) D3

b5f4d15b 90 2e 00   Note On(0-Off) Bb1

b5f4d15b 90 46 00   Note On(0-Off) Bb3
b5f4d1f8 90 41 66   Note On F3 102

b5f4d1f8 90 3e 6b   Note On D3 107

b5f4d1f8 90 45 52   Note On A3 82

b5f4d1f9 90 26 6b   Note On D1 107
b5f4d346 90 3e 00   Note On(0-Off) D3

b5f4d346 90 41 00   Note On(0-Off) F3

b5f4d346 90 45 00   Note On(0-Off) A3

b5f4d357 90 26 00   Note On(0-Off) D1
b5f4d3d8 90 41 5f   Note On F3 95

b5f4d3d9 90 45 62   Note On A3 98

b5f4d3db 90 26 40   Note On D1 64

b5f4d3dc 90 3e 5e   Note On D3 94
b5f4d4f0 90 3e 00   Note On(0-Off) D3

b5f4d4f0 90 41 00   Note On(0-Off) F3
b5f4d4f0 90 45 00   Note On(0-Off) A3

b5f4d4f1 90 26 00   Note On(0-Off) D1
b5f4d5bc 90 45 72   Note On A3 114

b5f4d5bc 90 29 76   Note On F1 118

b5f4d5bc 90 41 74   Note On F3 116

b5f4d5bc 90 3c 7f   Note On C3 127
b5f4d698 90 3c 00   Note On(0-Off) C3
b5f4d6f5 90 45 00   Note On(0-Off) A3

b5f4d6fa 90 41 00   Note On(0-Off) F3

b5f4d705 90 29 00   Note On(0-Off) F1
b5f4d7b8 90 29 74   Note On F1 116

b5f4d7b8 90 41 72   Note On F3 114

b5f4d7b8 90 45 70   Note On A3 112
b5f4d8ab 90 29 00   Note On(0-Off) F1

b5f4d8b6 90 45 00   Note On(0-Off) A3

b5f4d8be 90 41 00   Note On(0-Off) F3
b5f4d98c 90 29 76   Note On F1 118
b5f4d98c 90 45 6d   Note On A3 109

b5f4d98d 90 41 6d   Note On F3 109
b5f4da5f 90 29 00   Note On(0-Off) F1

b5f4da81 90 41 00   Note On(0-Off) F3

b5f4da84 90 45 00   Note On(0-Off) A3
b5f4db46 90 29 79   Note On F1 121

b5f4db52 90 45 6e   Note On A3 110

b5f4db54 90 41 70   Note On F3 112
b5f4dbca 90 29 00   Note On(0-Off) F1
b5f4dc4d 90 41 00   Note On(0-Off) F3

b5f4dc51 90 45 00   Note On(0-Off) A3
b5f4dd37 90 45 6e   Note On A3 110

b5f4dd3b 90 41 6d   Note On F3 109
b5f4de6b 90 41 00   Note On(0-Off) F3

b5f4de6e 90 45 00   Note On(0-Off) A3
b5f4df15 90 41 64   Note On F3 100

b5f4df16 90 45 67   Note On A3 103
b5f4e01b 90 41 00   Note On(0-Off) F3

b5f4e02d 90 45 00   Note On(0-Off) A3
b5f4e0eb 90 29 5b   Note On F1 91

b5f4e103 90 45 59   Note On A3 89

b5f4e10a 90 41 5e   Note On F3 94
b5f4e1e8 90 45 00   Note On(0-Off) A3

b5f4e1f8 90 41 00   Note On(0-Off) F3

b5f4e219 90 29 00   Note On(0-Off) F1
b5f4e2f6 90 29 69   Note On F1 105

b5f4e305 90 45 5b   Note On A3 91

b5f4e309 90 41 5b   Note On F3 91
b5f4e36b 90 29 00   Note On(0-Off) F1
b5f4e385 90 41 00   Note On(0-Off) F3

b5f4e3b0 90 45 00   Note On(0-Off) A3
b5f4e504 90 3e 64   Note On D3 100

b5f4e507 90 41 66   Note On F3 102

b5f4e508 90 46 69   Note On Bb3 105

b5f4e534 90 2b 70   Note On G1 112
b5f4e5a6 90 3e 00   Note On(0-Off) D3

b5f4e5b4 90 41 00   Note On(0-Off) F3

b5f4e5c9 90 46 00   Note On(0-Off) Bb3
b5f4e626 90 2b 00   Note On(0-Off) G1
b5f4e6b3 90 2b 64   Note On G1 100

b5f4e6c7 90 3e 56   Note On D3 86

b5f4e6c8 90 46 64   Note On Bb3 100

b5f4e6cf 90 43 64   Note On G3 100
b5f4e776 90 2b 00   Note On(0-Off) G1

b5f4e794 90 3e 00   Note On(0-Off) D3

b5f4e7b1 90 43 00   Note On(0-Off) G3

b5f4e7b3 90 46 00   Note On(0-Off) Bb3
b5f4e87f 90 2b 40   Note On G1 64

b5f4e888 90 46 60   Note On Bb3 96
b5f4e894 90 3e 40   Note On D3 64

b5f4e894 90 43 5e   Note On G3 94
b5f4e971 90 3e 00   Note On(0-Off) D3

b5f4e978 90 43 00   Note On(0-Off) G3

b5f4e984 90 2b 00   Note On(0-Off) G1

b5f4e985 90 46 00   Note On(0-Off) Bb3
b5f4ea7b 90 2b 3e   Note On G1 62
b5f4ea92 90 43 52   Note On G3 82

b5f4ea95 90 46 59   Note On Bb3 89

b5f4ea97 90 3e 40   Note On D3 64
b5f4eb09 90 2b 00   Note On(0-Off) G1

b5f4eb30 90 3e 00   Note On(0-Off) D3

b5f4eb41 90 43 00   Note On(0-Off) G3
b5f4eb6a 90 46 00   Note On(0-Off) Bb3
b5f4ebe9 90 27 3a   Note On Eb1 58
b5f4ec24 90 27 00   Note On(0-Off) Eb1

b5f4ec64 90 3f 3c   Note On Eb3 60

b5f4ec65 90 46 40   Note On Bb3 64

b5f4ec7f 90 43 5f   Note On G3 95
b5f4ec90 90 27 67   Note On Eb1 103
b5f4ed21 90 46 00   Note On(0-Off) Bb3

b5f4ed27 90 3f 00   Note On(0-Off) Eb3

b5f4ed32 90 43 00   Note On(0-Off) G3
b5f4ed77 90 27 00   Note On(0-Off) Eb1
b5f4ee2c 90 27 5b   Note On Eb1 91

b5f4ee37 90 43 3a   Note On G3 58

b5f4ee3b 90 3f 3a   Note On Eb3 58

b5f4ee46 90 46 3a   Note On Bb3 58
b5f4eedb 90 46 00   Note On(0-Off) Bb3
b5f4eee4 90 27 00   Note On(0-Off) Eb1

b5f4eefd 90 43 00   Note On(0-Off) G3

b5f4ef06 90 3f 00   Note On(0-Off) Eb3
b5f4f5d2 90 46 49   Note On Bb3 73

b5f4f5d8 90 43 44   Note On G3 68

b5f4f5db 90 3e 2b   Note On D3 43
b5f4f6b5 90 3e 00   Note On(0-Off) D3

b5f4f6b7 90 43 00   Note On(0-Off) G3
b5f4f6d5 90 46 00   Note On(0-Off) Bb3
b5f4f7a2 90 46 56   Note On Bb3 86

b5f4f7a7 90 43 56   Note On G3 86

b5f4f7ad 90 3e 3e   Note On D3 62
b5f4f86a 90 43 00   Note On(0-Off) G3

b5f4f878 90 3e 00   Note On(0-Off) D3

b5f4f8a1 90 46 00   Note On(0-Off) Bb3
b5f4fd50 90 2b 66   Note On G1 102

b5f4fd61 90 43 6d   Note On G3 109

b5f4fd64 90 46 6d   Note On Bb3 109

b5f4fd66 90 3e 62   Note On D3 98
b5f4fe5d 90 3e 00   Note On(0-Off) D3
b5f4fea8 90 43 00   Note On(0-Off) G3

b5f4feca 90 46 00   Note On(0-Off) Bb3
b5f5000d 90 2b 00   Note On(0-Off) G1

b5f50038 90 43 5b   Note On G3 91

b5f50039 90 4a 6e   Note On D4 110
b5f50041 90 46 6d   Note On Bb3 109
b5f50112 90 43 00   Note On(0-Off) G3

b5f50143 90 46 00   Note On(0-Off) Bb3

b5f50148 90 4a 00   Note On(0-Off) D4
b5f50178 90 2b 64   Note On G1 100

b5f501b2 90 43 69   Note On G3 105

b5f501c0 90 46 59   Note On Bb3 89
b5f50278 90 2b 00   Note On(0-Off) G1

b5f5027d 90 43 00   Note On(0-Off) G3
b5f502be 90 46 00   Note On(0-Off) Bb3
b5f50711 90 27 6d   Note On Eb1 109
b5f50786 90 27 00   Note On(0-Off) Eb1
b5f50abe 90 45 5b   Note On A3 91

b5f50ac2 90 41 67   Note On F3 103

b5f50ac3 90 26 6d   Note On D1 109

b5f50ac5 90 3e 6b   Note On D3 107
b5f50b7c 90 3e 00   Note On(0-Off) D3

b5f50b9e 90 41 00   Note On(0-Off) F3
b5f50baf 90 45 00   Note On(0-Off) A3

b5f50be4 90 26 00   Note On(0-Off) D1
b5f50c85 90 41 6b   Note On F3 107

b5f50c86 90 45 6b   Note On A3 107

b5f50c87 90 26 70   Note On D1 112

b5f50c8a 90 3e 67   Note On D3 103
b5f50d53 90 3e 00   Note On(0-Off) D3

b5f50d55 90 41 00   Note On(0-Off) F3

b5f50d5f 90 45 00   Note On(0-Off) A3

b5f50d99 90 26 00   Note On(0-Off) D1
b5f50e5e 90 45 6b   Note On A3 107

b5f50e63 90 41 66   Note On F3 102

b5f50e64 90 26 66   Note On D1 102

b5f50e65 90 3e 62   Note On D3 98
b5f50f0f 90 3e 00   Note On(0-Off) D3

b5f50f23 90 41 00   Note On(0-Off) F3
b5f50f3f 90 45 00   Note On(0-Off) A3

b5f50f76 90 26 00   Note On(0-Off) D1
b5f51057 90 26 67   Note On D1 103
b5f51069 90 45 66   Note On A3 102

b5f5106b 90 41 6b   Note On F3 107

b5f5106c 90 3e 67   Note On D3 103
b5f51127 90 3e 00   Note On(0-Off) D3
b5f5113a 90 41 00   Note On(0-Off) F3

b5f5114e 90 45 00   Note On(0-Off) A3

b5f51161 90 26 00   Note On(0-Off) D1
b5f51226 90 29 70   Note On F1 112

b5f51237 90 45 6e   Note On A3 110

b5f51239 90 41 72   Note On F3 114
b5f51322 90 45 00   Note On(0-Off) A3

b5f51324 90 29 00   Note On(0-Off) F1

b5f51328 90 41 00   Note On(0-Off) F3
b5f51416 90 41 67   Note On F3 103

b5f51417 90 45 67   Note On A3 103

b5f51422 90 29 70   Note On F1 112
b5f514df 90 29 00   Note On(0-Off) F1

b5f514ee 90 41 00   Note On(0-Off) F3

b5f514f3 90 45 00   Note On(0-Off) A3
b5f515f0 90 29 6b   Note On F1 107

b5f515f2 90 41 6b   Note On F3 107

b5f515f6 90 45 6d   Note On A3 109
b5f516ae 90 29 00   Note On(0-Off) F1
b5f516d5 90 45 00   Note On(0-Off) A3

b5f516db 90 41 00   Note On(0-Off) F3
b5f517e1 90 41 6e   Note On F3 110

b5f517e4 90 45 6d   Note On A3 109
b5f517ec 90 29 72   Note On F1 114
b5f51883 90 41 00   Note On(0-Off) F3

b5f518a3 90 29 00   Note On(0-Off) F1

b5f518a8 90 45 00   Note On(0-Off) A3
b5f519be 90 43 72   Note On G3 114

b5f519bf 90 46 76   Note On Bb3 118

b5f519c1 90 3e 6b   Note On D3 107

b5f519c6 90 2b 72   Note On G1 114
b5f51a5b 90 3e 00   Note On(0-Off) D3

b5f51a7c 90 43 00   Note On(0-Off) G3

b5f51a8b 90 2b 00   Note On(0-Off) G1

b5f51a98 90 46 00   Note On(0-Off) Bb3
b5f51b94 90 2b 64   Note On G1 100

b5f51b94 90 43 70   Note On G3 112

b5f51b95 90 46 74   Note On Bb3 116

b5f51b96 90 3e 6b   Note On D3 107
b5f51c5e 90 43 00   Note On(0-Off) G3

b5f51c65 90 3e 00   Note On(0-Off) D3

b5f51c74 90 2b 00   Note On(0-Off) G1

b5f51c75 90 46 00   Note On(0-Off) Bb3
b5f51d80 90 43 6b   Note On G3 107

b5f51d84 90 3e 64   Note On D3 100

b5f51d85 90 46 6b   Note On Bb3 107

b5f51d8a 90 2b 6d   Note On G1 109
b5f51e24 90 3e 00   Note On(0-Off) D3

b5f51e36 90 43 00   Note On(0-Off) G3
b5f51e49 90 46 00   Note On(0-Off) Bb3

b5f51e5b 90 2b 00   Note On(0-Off) G1
b5f51f5c 90 2b 70   Note On G1 112

b5f51f5e 90 46 76   Note On Bb3 118

b5f51f5f 90 43 6e   Note On G3 110

b5f51f62 90 3e 69   Note On D3 105
b5f51fbf 90 3e 00   Note On(0-Off) D3

b5f51fcb 90 43 00   Note On(0-Off) G3
b5f51fda 90 2b 00   Note On(0-Off) G1

b5f52000 90 46 00   Note On(0-Off) Bb3
b5f52161 90 2e 72   Note On Bb1 114
b5f52165 90 4a 70   Note On D4 112

b5f52166 90 41 69   Note On F3 105

b5f52167 90 46 72   Note On Bb3 114
b5f52236 90 41 00   Note On(0-Off) F3

b5f52250 90 4a 00   Note On(0-Off) D4

b5f5225e 90 46 00   Note On(0-Off) Bb3

b5f5226f 90 2e 00   Note On(0-Off) Bb1
b5f52333 90 2e 6e   Note On Bb1 110

b5f52337 90 4a 6e   Note On D4 110

b5f52338 90 46 6d   Note On Bb3 109

b5f52339 90 41 62   Note On F3 98
b5f52400 90 2e 00   Note On(0-Off) Bb1

b5f52401 90 41 00   Note On(0-Off) F3

b5f52405 90 4a 00   Note On(0-Off) D4

b5f52407 90 46 00   Note On(0-Off) Bb3
b5f524ff 90 41 64   Note On F3 100

b5f52500 90 46 70   Note On Bb3 112

b5f52501 90 4a 6d   Note On D4 109

b5f52502 90 2e 79   Note On Bb1 121
b5f525c4 90 41 00   Note On(0-Off) F3

b5f525c6 90 2e 00   Note On(0-Off) Bb1

b5f525d0 90 4a 00   Note On(0-Off) D4

b5f525d6 90 46 00   Note On(0-Off) Bb3
b5f526f5 90 46 72   Note On Bb3 114

b5f526f9 90 41 67   Note On F3 103

b5f526fa 90 4a 6e   Note On D4 110

b5f526fb 90 2e 76   Note On Bb1 118
b5f52791 90 2e 00   Note On(0-Off) Bb1

b5f52794 90 41 00   Note On(0-Off) F3

b5f527b0 90 46 00   Note On(0-Off) Bb3

b5f527b5 90 4a 00   Note On(0-Off) D4
b5f528cd 90 41 6b   Note On F3 107

b5f528ce 90 45 74   Note On A3 116

b5f528cf 90 48 70   Note On C4 112

b5f528d1 90 4d 72   Note On F4 114

b5f528d7 90 26 6b   Note On D1 107
b5f529b4 90 26 00   Note On(0-Off) D1
b5f529b6 90 45 00   Note On(0-Off) A3

b5f529b7 90 4d 00   Note On(0-Off) F4

b5f529b9 90 41 00   Note On(0-Off) F3

b5f529bf 90 48 00   Note On(0-Off) C4
b5f52ab1 90 48 69   Note On C4 105

b5f52ab5 90 45 72   Note On A3 114

b5f52ab7 90 26 62   Note On D1 98

b5f52ab8 90 4d 6d   Note On F4 109

b5f52ab9 90 41 66   Note On F3 102
b5f52b7f 90 45 00   Note On(0-Off) A3

b5f52b88 90 26 00   Note On(0-Off) D1

b5f52b89 90 41 00   Note On(0-Off) F3

b5f52b95 90 48 00   Note On(0-Off) C4

b5f52b96 90 4d 00   Note On(0-Off) F4
b5f52cab 90 48 69   Note On C4 105

b5f52cad 90 4d 6d   Note On F4 109

b5f52cae 90 41 67   Note On F3 103

b5f52caf 90 45 6e   Note On A3 110

b5f52cb6 90 26 67   Note On D1 103
b5f52d68 90 45 00   Note On(0-Off) A3

b5f52d72 90 41 00   Note On(0-Off) F3

b5f52d84 90 48 00   Note On(0-Off) C4

b5f52d8c 90 4d 00   Note On(0-Off) F4

b5f52d97 90 26 00   Note On(0-Off) D1
b5f52e85 90 48 6b   Note On C4 107

b5f52e86 90 4d 6e   Note On F4 110

b5f52e8a 90 41 69   Note On F3 105

b5f52e8a 90 45 72   Note On A3 114
b5f52e8e 90 26 67   Note On D1 103
b5f52f6f 90 4d 00   Note On(0-Off) F4

b5f52f7d 90 41 00   Note On(0-Off) F3

b5f52f86 90 48 00   Note On(0-Off) C4

b5f52f88 90 26 00   Note On(0-Off) D1

b5f52f94 90 45 00   Note On(0-Off) A3
b5f53067 90 48 5b   Note On C4 91

b5f53069 90 29 76   Note On F1 118

b5f5306b 90 41 52   Note On F3 82

b5f5306d 90 45 69   Note On A3 105
b5f5315d 90 29 00   Note On(0-Off) F1

b5f53177 90 41 00   Note On(0-Off) F3

b5f5317c 90 45 00   Note On(0-Off) A3

b5f53194 90 48 00   Note On(0-Off) C4
b5f5324b 90 48 62   Note On C4 98

b5f5324c 90 29 6d   Note On F1 109

b5f5324e 90 45 69   Note On A3 105

b5f53251 90 41 52   Note On F3 82
b5f53312 90 29 00   Note On(0-Off) F1

b5f53320 90 41 00   Note On(0-Off) F3

b5f53323 90 45 00   Note On(0-Off) A3

b5f5332c 90 48 00   Note On(0-Off) C4
b5f53436 90 29 6b   Note On F1 107

b5f53443 90 48 64   Note On C4 100

b5f53449 90 45 69   Note On A3 105

b5f5344b 90 41 5e   Note On F3 94
b5f53507 90 29 00   Note On(0-Off) F1

b5f5350a 90 45 00   Note On(0-Off) A3

b5f53512 90 41 00   Note On(0-Off) F3

b5f5351a 90 48 00   Note On(0-Off) C4
b5f53620 90 48 69   Note On C4 105

b5f53622 90 41 64   Note On F3 100

b5f53624 90 45 6b   Note On A3 107

b5f53630 90 29 72   Note On F1 114
b5f536c4 90 45 00   Note On(0-Off) A3

b5f536d4 90 48 00   Note On(0-Off) C4
b5f536d8 90 41 00   Note On(0-Off) F3

b5f53708 90 29 00   Note On(0-Off) F1
b5f53989 90 46 6e   Note On Bb3 110

b5f5398c 90 43 70   Note On G3 112

b5f5398f 90 3e 6e   Note On D3 110

b5f53990 90 2b 69   Note On G1 105
b5f539f4 90 3e 00   Note On(0-Off) D3

b5f539f8 90 43 00   Note On(0-Off) G3
b5f53a0a 90 2b 00   Note On(0-Off) G1

b5f53a0c 90 46 00   Note On(0-Off) Bb3
b5f53ad6 90 46 6b   Note On Bb3 107

b5f53ad7 90 2b 72   Note On G1 114

b5f53ad8 90 43 6e   Note On G3 110

b5f53adb 90 3e 64   Note On D3 100

b5f53b28 90 3e 00   Note On(0-Off) D3

b5f53b2b 90 43 00   Note On(0-Off) G3

b5f53b2d 90 46 00   Note On(0-Off) Bb3
b5f53b31 90 2b 00   Note On(0-Off) G1
b5f53be1 90 43 76   Note On G3 118

b5f53be3 90 46 76   Note On Bb3 118

b5f53be7 90 3e 6b   Note On D3 107

b5f53bea 90 2b 76   Note On G1 118
b5f53c45 90 43 00   Note On(0-Off) G3

b5f53c48 90 3e 00   Note On(0-Off) D3

b5f53c54 90 46 00   Note On(0-Off) Bb3
b5f53c5f 90 2b 00   Note On(0-Off) G1
b5f53d59 90 3e 64   Note On D3 100

b5f53d5a 90 43 6d   Note On G3 109

b5f53d5b 90 46 70   Note On Bb3 112

b5f53d62 90 2b 72   Note On G1 114
b5f53ef7 90 2b 00   Note On(0-Off) G1

b5f53efe 90 3e 00   Note On(0-Off) D3

b5f53f14 90 43 00   Note On(0-Off) G3

b5f53f1f 90 46 00   Note On(0-Off) Bb3
b5f5496e 90 5d 7d   Note On A5 125

b5f5496e 90 5b 7d   Note On G5 125
b5f5497f 90 59 33   Note On F5 51

b5f54999 90 5d 00   Note On(0-Off) A5

b5f549ac 90 58 47   Note On E5 71

b5f549ae 90 5b 00   Note On(0-Off) G5

b5f549ce 90 56 6e   Note On D5 110

b5f549ce 90 59 00   Note On(0-Off) F5

b5f549dc 90 54 59   Note On C5 89

b5f549f0 90 58 00   Note On(0-Off) E5

b5f549fb 90 53 2b   Note On B4 43
b5f54a0b 90 56 00   Note On(0-Off) D5

b5f54a18 90 51 28   Note On A4 40

b5f54a37 90 54 00   Note On(0-Off) C5

b5f54a52 90 4f 11   Note On G4 17

b5f54a65 90 53 00   Note On(0-Off) B4
b5f54a85 90 4d 14   Note On F4 20

b5f54a97 90 51 00   Note On(0-Off) A4

b5f54ab8 90 4c 13   Note On E4 19

b5f54abf 90 4f 00   Note On(0-Off) G4

b5f54ada 90 4a 1a   Note On D4 26
b5f54ae3 90 4d 00   Note On(0-Off) F4

b5f54aff 90 48 15   Note On C4 21

b5f54b09 90 4c 00   Note On(0-Off) E4

b5f54b2c 90 47 19   Note On B3 25

b5f54b32 90 4a 00   Note On(0-Off) D4
b5f54b56 90 45 18   Note On A3 24

b5f54b5d 90 48 00   Note On(0-Off) C4

b5f54b83 90 43 1a   Note On G3 26

b5f54b87 90 47 00   Note On(0-Off) B3

b5f54baf 90 41 22   Note On F3 34

b5f54bb5 90 45 00   Note On(0-Off) A3
b5f54be0 90 40 1a   Note On E3 26

b5f54be5 90 43 00   Note On(0-Off) G3

b5f54c13 90 3e 2f   Note On D3 47

b5f54c14 90 41 00   Note On(0-Off) F3
b5f54c47 90 40 00   Note On(0-Off) E3

b5f54c95 90 3b 3e   Note On B2 62

b5f54c95 90 3e 00   Note On(0-Off) D3

b5f54cbf 90 39 21   Note On A2 33

b5f54cf8 90 3b 00   Note On(0-Off) B2
b5f54d01 90 37 2c   Note On G2 44

b5f54d31 90 39 00   Note On(0-Off) A2

b5f54d43 90 35 21   Note On F2 33
b5f54d66 90 37 00   Note On(0-Off) G2

b5f54dac 90 35 00   Note On(0-Off) F2
b5f54ecf 90 26 69   Note On D1 105
b5f55115 90 26 00   Note On(0-Off) D1
b5f55604 90 2b 62   Note On G1 98
b5f5577c 90 2b 00   Note On(0-Off) G1
b5f55824 90 46 70   Note On Bb3 112
b5f55827 90 43 6d   Note On G3 109

b5f55829 90 3e 62   Note On D3 98
b5f558c6 90 3e 00   Note On(0-Off) D3

b5f558e7 90 43 00   Note On(0-Off) G3
b5f558f8 90 46 00   Note On(0-Off) Bb3
b5f559d3 90 29 72   Note On F1 114
b5f55c02 90 45 5f   Note On A3 95

b5f55c05 90 41 56   Note On F3 86
b5f55c27 90 29 00   Note On(0-Off) F1

b5f55c79 90 41 00   Note On(0-Off) F3
b5f55c98 90 45 00   Note On(0-Off) A3
b5f55dd0 90 2b 6d   Note On G1 109
b5f55fbc 90 2b 00   Note On(0-Off) G1

b5f55fd3 90 46 6b   Note On Bb3 107

b5f55fd4 90 43 6b   Note On G3 107

b5f55fd7 90 3e 64   Note On D3 100
b5f56057 90 43 00   Note On(0-Off) G3

b5f56058 90 3e 00   Note On(0-Off) D3

b5f56063 90 46 00   Note On(0-Off) Bb3
b5f56142 90 2e 5b   Note On Bb1 91
b5f5637b 90 41 67   Note On F3 103

b5f5637d 90 3e 62   Note On D3 98

b5f5637e 90 46 6d   Note On Bb3 109
b5f563f0 90 2e 00   Note On(0-Off) Bb1
b5f56461 90 3e 00   Note On(0-Off) D3
b5f56479 90 41 00   Note On(0-Off) F3
b5f5655b 90 27 72   Note On Eb1 114
b5f565cd 90 46 00   Note On(0-Off) Bb3
b5f5673c 90 46 72   Note On Bb3 114

b5f56747 90 3f 69   Note On Eb3 105

b5f5674b 90 43 69   Note On G3 105
b5f567e9 90 27 00   Note On(0-Off) Eb1
b5f5682f 90 43 00   Note On(0-Off) G3

b5f56832 90 3f 00   Note On(0-Off) Eb3

b5f56838 90 46 00   Note On(0-Off) Bb3
b5f5692d 90 29 6d   Note On F1 109
b5f569f9 90 29 00   Note On(0-Off) F1
b5f56d04 90 26 6b   Note On D1 107
b5f56d13 90 41 64   Note On F3 100

b5f56d14 90 45 67   Note On A3 103

b5f56d17 90 3e 5e   Note On D3 94
b5f5732a 90 3e 00   Note On(0-Off) D3

b5f5732c 90 41 00   Note On(0-Off) F3

b5f5733b 90 45 00   Note On(0-Off) A3
b5f57366 90 26 00   Note On(0-Off) D1
b5f574d3 90 43 5e   Note On G3 94

b5f574d5 90 46 64   Note On Bb3 100

b5f574d9 90 3e 49   Note On D3 73

b5f574e1 90 2b 72   Note On G1 114
b5f57598 90 3e 00   Note On(0-Off) D3
b5f575c2 90 43 00   Note On(0-Off) G3

b5f575cb 90 46 00   Note On(0-Off) Bb3
b5f57687 90 43 64   Note On G3 100
b5f5768a 90 46 64   Note On Bb3 100

b5f57692 90 3e 3d   Note On D3 61
b5f57754 90 2b 00   Note On(0-Off) G1
b5f57759 90 3e 00   Note On(0-Off) D3

b5f57768 90 43 00   Note On(0-Off) G3

b5f57783 90 46 00   Note On(0-Off) Bb3
b5f57949 90 46 67   Note On Bb3 103

b5f5794c 90 43 62   Note On G3 98
b5f5794d 90 3e 64   Note On D3 100
b5f579d0 90 3e 00   Note On(0-Off) D3

b5f579fd 90 43 00   Note On(0-Off) G3
b5f57a3b 90 46 00   Note On(0-Off) Bb3
b5f57c44 90 2e 6b   Note On Bb1 107

b5f57c47 90 41 5f   Note On F3 95

b5f57c48 90 46 64   Note On Bb3 100

b5f57c4d 90 44 31   Note On Ab3 49

b5f57c4e 90 4a 49   Note On D4 73

b5f57c51 90 48 3f   Note On C4 63
b5f57c8c 90 44 00   Note On(0-Off) Ab3

b5f57c9f 90 48 00   Note On(0-Off) C4

b5f57ca5 90 4a 00   Note On(0-Off) D4

b5f57cdb 90 41 00   Note On(0-Off) F3
b5f57cdd 90 46 00   Note On(0-Off) Bb3

b5f57d07 90 2e 00   Note On(0-Off) Bb1
b5f57dbd 90 46 64   Note On Bb3 100

b5f57dc1 90 41 49   Note On F3 73

b5f57dc7 90 4a 64   Note On D4 100
b5f582c6 90 4a 00   Note On(0-Off) D4
b5f582cd 90 41 00   Note On(0-Off) F3

b5f582d1 90 46 00   Note On(0-Off) Bb3
b5f583b2 90 41 6b   Note On F3 107

b5f583b3 90 45 72   Note On A3 114

b5f583b4 90 4a 70   Note On D4 112

b5f583b5 90 26 66   Note On D1 102
b5f58791 90 26 00   Note On(0-Off) D1
b5f58819 90 41 00   Note On(0-Off) F3

b5f58838 90 45 00   Note On(0-Off) A3
b5f58851 90 4a 00   Note On(0-Off) D4
b5f58b3d 90 29 5f   Note On F1 95
b5f58cec 90 29 00   Note On(0-Off) F1
b5f58d1b 90 41 6e   Note On F3 110

b5f58d1d 90 45 6e   Note On A3 110
b5f58d88 90 41 00   Note On(0-Off) F3

b5f58d90 90 45 00   Note On(0-Off) A3
b5f58ffa 90 41 6d   Note On F3 109

b5f58ffb 90 39 67   Note On A2 103

b5f58ffc 90 3c 7f   Note On C3 127
b5f590ce 90 3c 00   Note On(0-Off) C3

b5f590d6 90 39 00   Note On(0-Off) A2

b5f590d7 90 41 00   Note On(0-Off) F3
b5f592e8 90 2b 72   Note On G1 114
b5f594d0 90 3e 72   Note On D3 114

b5f594d3 90 43 72   Note On G3 114

b5f594d4 90 46 74   Note On Bb3 116

b5f594d5 90 2b 00   Note On(0-Off) G1
b5f595ac 90 43 00   Note On(0-Off) G3

b5f595ae 90 3e 00   Note On(0-Off) D3
b5f595f0 90 46 00   Note On(0-Off) Bb3
b5f597cf 90 43 72   Note On G3 114

b5f597d2 90 4a 74   Note On D4 116

b5f597d5 90 3e 6d   Note On D3 109
b5f59932 90 4a 00   Note On(0-Off) D4
b5f59978 90 46 6b   Note On Bb3 107
b5f599c5 90 3e 00   Note On(0-Off) D3

b5f599d8 90 43 00   Note On(0-Off) G3
b5f59a26 90 46 00   Note On(0-Off) Bb3
b5f59ae7 90 2e 5b   Note On Bb1 91

b5f59b27 90 46 49   Note On Bb3 73

b5f59b2a 90 3e 4f   Note On D3 79
b5f59bd1 90 46 00   Note On(0-Off) Bb3
b5f59cd0 90 3e 00   Note On(0-Off) D3
b5f59ebd 90 2e 00   Note On(0-Off) Bb1
b5f5a1e2 90 45 67   Note On A3 103

b5f5a1e6 90 41 67   Note On F3 103

b5f5a1ea 90 3e 64   Note On D3 100
b5f5a1ec 90 26 5e   Note On D1 94
b5f5a2a0 90 3e 00   Note On(0-Off) D3

b5f5a2a7 90 41 00   Note On(0-Off) F3

b5f5a2b1 90 45 00   Note On(0-Off) A3
b5f5a3c9 90 45 64   Note On A3 100

b5f5a3cb 90 3e 64   Note On D3 100

b5f5a3cc 90 41 64   Note On F3 100
b5f5a471 90 3e 00   Note On(0-Off) D3

b5f5a477 90 41 00   Note On(0-Off) F3

b5f5a494 90 45 00   Note On(0-Off) A3
b5f5a5ba 90 3e 5b   Note On D3 91

b5f5a5bb 90 41 62   Note On F3 98

b5f5a5bc 90 45 66   Note On A3 102
b5f5a668 90 41 00   Note On(0-Off) F3

b5f5a669 90 3e 00   Note On(0-Off) D3

b5f5a66b 90 45 00   Note On(0-Off) A3
b5f5a6bc 90 26 00   Note On(0-Off) D1
b5f5a7a5 90 41 67   Note On F3 103

b5f5a7a6 90 45 6b   Note On A3 107

b5f5a7a7 90 3e 59   Note On D3 89
b5f5a855 90 41 00   Note On(0-Off) F3

b5f5a85f 90 3e 00   Note On(0-Off) D3

b5f5a864 90 45 00   Note On(0-Off) A3
b5f5a97f 90 41 6b   Note On F3 107

b5f5a981 90 45 6b   Note On A3 107

b5f5a988 90 29 5f   Note On F1 95
b5f5aa53 90 41 00   Note On(0-Off) F3

b5f5aa5d 90 45 00   Note On(0-Off) A3
b5f5ab5a 90 41 64   Note On F3 100

b5f5ab5c 90 45 62   Note On A3 98
b5f5ac40 90 41 00   Note On(0-Off) F3

b5f5ac48 90 45 00   Note On(0-Off) A3
b5f5ad5c 90 41 67   Note On F3 103

b5f5ad5f 90 45 64   Note On A3 100
b5f5adcb 90 29 00   Note On(0-Off) F1
b5f5ae20 90 41 00   Note On(0-Off) F3

b5f5ae2e 90 45 00   Note On(0-Off) A3
b5f5af3a 90 41 72   Note On F3 114

b5f5af3c 90 45 6e   Note On A3 110
b5f5afea 90 41 00   Note On(0-Off) F3

b5f5b001 90 45 00   Note On(0-Off) A3
b5f5b0fb 90 46 13   Note On Bb3 19

b5f5b100 90 3e 3e   Note On D3 62

b5f5b101 90 43 3e   Note On G3 62

b5f5b12a 90 2b 64   Note On G1 100
b5f5b1a7 90 3e 00   Note On(0-Off) D3

b5f5b1c0 90 43 00   Note On(0-Off) G3
b5f5b1d1 90 46 00   Note On(0-Off) Bb3
b5f5b23e 90 2b 00   Note On(0-Off) G1
b5f5b2f0 90 3e 69   Note On D3 105

b5f5b2f1 90 46 6d   Note On Bb3 109

b5f5b2f2 90 43 6d   Note On G3 109
b5f5b3ba 90 3e 00   Note On(0-Off) D3
b5f5b3c0 90 43 00   Note On(0-Off) G3

b5f5b3de 90 46 00   Note On(0-Off) Bb3
b5f5b4fc 90 3e 60   Note On D3 96

b5f5b4fd 90 43 6e   Note On G3 110

b5f5b4fe 90 46 72   Note On Bb3 114
b5f5b5d1 90 3e 00   Note On(0-Off) D3

b5f5b5de 90 43 00   Note On(0-Off) G3

b5f5b5e5 90 46 00   Note On(0-Off) Bb3
b5f5b6ed 90 43 6b   Note On G3 107

b5f5b6ef 90 3e 64   Note On D3 100

b5f5b6f0 90 46 70   Note On Bb3 112
b5f5b7bc 90 3e 00   Note On(0-Off) D3

b5f5b7bf 90 43 00   Note On(0-Off) G3
b5f5b81a 90 46 00   Note On(0-Off) Bb3
b5f5b8c5 90 2e 76   Note On Bb1 118

b5f5b8c9 90 41 66   Note On F3 102

b5f5b8d1 90 4a 76   Note On D4 118

b5f5b8d1 90 46 76   Note On Bb3 118

b5f5b8da 90 44 4d   Note On Ab3 77
b5f5b943 90 44 00   Note On(0-Off) Ab3
b5f5b9a0 90 41 00   Note On(0-Off) F3
b5f5b9bd 90 4a 00   Note On(0-Off) D4

b5f5b9ca 90 46 00   Note On(0-Off) Bb3
b5f5bacf 90 41 64   Note On F3 100

b5f5bacf 90 4a 6e   Note On D4 110

b5f5bacf 90 46 76   Note On Bb3 118
b5f5bbac 90 4a 00   Note On(0-Off) D4

b5f5bbac 90 41 00   Note On(0-Off) F3

b5f5bbac 90 46 00   Note On(0-Off) Bb3
b5f5bc53 90 2e 00   Note On(0-Off) Bb1
b5f5bca9 90 41 67   Note On F3 103

b5f5bca9 90 4a 6e   Note On D4 110

b5f5bca9 90 46 72   Note On Bb3 114
b5f5bda7 90 41 00   Note On(0-Off) F3

b5f5bda7 90 4a 00   Note On(0-Off) D4

b5f5bda7 90 46 00   Note On(0-Off) Bb3
b5f5be87 90 41 67   Note On F3 103

b5f5be87 90 46 76   Note On Bb3 118

b5f5be87 90 4a 72   Note On D4 114
b5f5bf01 90 46 00   Note On(0-Off) Bb3

b5f5bf09 90 41 00   Note On(0-Off) F3

b5f5bf31 90 4a 00   Note On(0-Off) D4
b5f5c09c 90 45 70   Note On A3 112

b5f5c09c 90 48 70   Note On C4 112

b5f5c09c 90 41 67   Note On F3 103

b5f5c09c 90 4d 72   Note On F4 114

b5f5c09c 90 4a 64   Note On D4 100

b5f5c09c 90 4a 00   Note On(0-Off) D4

b5f5c09d 90 26 5f   Note On D1 95
b5f5c132 90 45 00   Note On(0-Off) A3

b5f5c15a 90 41 00   Note On(0-Off) F3

b5f5c15a 90 48 00   Note On(0-Off) C4

b5f5c15a 90 4d 00   Note On(0-Off) F4
b5f5c22c 90 45 67   Note On A3 103

b5f5c22c 90 41 64   Note On F3 100

b5f5c22c 90 4f 62   Note On G4 98

b5f5c22d 90 4d 66   Note On F4 102

b5f5c269 90 4a 49   Note On D4 73
b5f5c2ee 90 4f 00   Note On(0-Off) G4

b5f5c2f4 90 4d 00   Note On(0-Off) F4

b5f5c301 90 4a 00   Note On(0-Off) D4

b5f5c328 90 45 00   Note On(0-Off) A3

b5f5c333 90 41 00   Note On(0-Off) F3
b5f5c418 90 4d 6e   Note On F4 110

b5f5c418 90 4a 6d   Note On D4 109

b5f5c418 90 45 6e   Note On A3 110

b5f5c419 90 41 62   Note On F3 98
b5f5c50c 90 45 00   Note On(0-Off) A3

b5f5c50c 90 4a 00   Note On(0-Off) D4

b5f5c50c 90 4d 00   Note On(0-Off) F4

b5f5c50d 90 41 00   Note On(0-Off) F3
b5f5c576 90 26 00   Note On(0-Off) D1
b5f5c5e7 90 4a 67   Note On D4 103

b5f5c5ea 90 4d 6b   Note On F4 107

b5f5c5ee 90 45 6d   Note On A3 109

b5f5c5ef 90 41 66   Note On F3 102
b5f5c6e5 90 4a 00   Note On(0-Off) D4

b5f5c6f5 90 41 00   Note On(0-Off) F3

b5f5c6f6 90 4d 00   Note On(0-Off) F4

b5f5c701 90 45 00   Note On(0-Off) A3
b5f5c7de 90 29 6d   Note On F1 109

b5f5c7e1 90 45 70   Note On A3 112

b5f5c7e4 90 41 69   Note On F3 105

b5f5c7ea 90 48 5f   Note On C4 95

b5f5c7eb 90 4a 67   Note On D4 103
b5f5c87e 90 4a 00   Note On(0-Off) D4

b5f5c887 90 48 00   Note On(0-Off) C4

b5f5c897 90 45 00   Note On(0-Off) A3

b5f5c8ae 90 41 00   Note On(0-Off) F3
b5f5c96b 90 48 5e   Note On C4 94

b5f5c96d 90 45 59   Note On A3 89

b5f5c974 90 41 45   Note On F3 69
b5f5ca58 90 45 00   Note On(0-Off) A3

b5f5ca61 90 41 00   Note On(0-Off) F3

b5f5ca6f 90 48 00   Note On(0-Off) C4
b5f5cb74 90 48 69   Note On C4 105

b5f5cb77 90 45 67   Note On A3 103

b5f5cb79 90 41 60   Note On F3 96
b5f5cc21 90 45 00   Note On(0-Off) A3

b5f5cc2b 90 41 00   Note On(0-Off) F3

b5f5cc32 90 48 00   Note On(0-Off) C4
b5f5cd65 90 48 6d   Note On C4 109

b5f5cd6a 90 45 6b   Note On A3 107

b5f5cd6c 90 41 66   Note On F3 102
b5f5ce24 90 41 00   Note On(0-Off) F3
b5f5ce46 90 45 00   Note On(0-Off) A3

b5f5ce75 90 29 00   Note On(0-Off) F1

b5f5ce9b 90 48 00   Note On(0-Off) C4
b5f5cf4a 90 2b 6b   Note On G1 107

b5f5cf4e 90 46 72   Note On Bb3 114

b5f5cf50 90 4a 72   Note On D4 114

b5f5cf51 90 43 5f   Note On G3 95
b5f5cfe1 90 46 00   Note On(0-Off) Bb3

b5f5cffb 90 4a 00   Note On(0-Off) D4

b5f5cffd 90 43 00   Note On(0-Off) G3

b5f5d010 90 2b 00   Note On(0-Off) G1
b5f5d0a3 90 46 6b   Note On Bb3 107

b5f5d0a6 90 4a 6d   Note On D4 109

b5f5d0a9 90 43 5e   Note On G3 94

b5f5d0af 90 2b 4f   Note On G1 79
b5f5d138 90 43 00   Note On(0-Off) G3

b5f5d147 90 46 00   Note On(0-Off) Bb3

b5f5d149 90 4a 00   Note On(0-Off) D4

b5f5d164 90 2b 00   Note On(0-Off) G1
b5f5d1e2 90 45 64   Note On A3 100

b5f5d1e7 90 48 60   Note On C4 96

b5f5d1e7 90 29 70   Note On F1 112

b5f5d1f0 90 41 4f   Note On F3 79
b5f5d252 90 41 00   Note On(0-Off) F3

b5f5d253 90 45 00   Note On(0-Off) A3

b5f5d272 90 48 00   Note On(0-Off) C4

b5f5d287 90 29 00   Note On(0-Off) F1
b5f5d30d 90 46 72   Note On Bb3 114

b5f5d313 90 2b 6e   Note On G1 110

b5f5d313 90 4a 6e   Note On D4 110

b5f5d314 90 43 62   Note On G3 98
b5f5d3f2 90 2b 00   Note On(0-Off) G1

b5f5d3fc 90 43 00   Note On(0-Off) G3

b5f5d406 90 46 00   Note On(0-Off) Bb3

b5f5d407 90 4a 00   Note On(0-Off) D4
b5f5d6cd 90 46 6e   Note On Bb3 110

b5f5d6d8 90 41 66   Note On F3 102

b5f5d6d9 90 2e 72   Note On Bb1 114

b5f5d6db 90 4a 6b   Note On D4 107
b5f5d783 90 41 00   Note On(0-Off) F3

b5f5d795 90 2e 00   Note On(0-Off) Bb1

b5f5d79c 90 4a 00   Note On(0-Off) D4

b5f5d7ab 90 46 00   Note On(0-Off) Bb3
b5f5d855 90 2e 72   Note On Bb1 114

b5f5d857 90 46 72   Note On Bb3 114

b5f5d85c 90 41 64   Note On F3 100

b5f5d860 90 4a 6e   Note On D4 110
b5f5d8ea 90 41 00   Note On(0-Off) F3

b5f5d904 90 46 00   Note On(0-Off) Bb3

b5f5d90a 90 4a 00   Note On(0-Off) D4

b5f5d917 90 2e 00   Note On(0-Off) Bb1
b5f5d990 90 49 01   Note On C#4 1
b5f5d9b5 90 2c 56   Note On Ab1 86

b5f5d9c5 90 3f 3f   Note On Eb3 63
b5f5da49 90 3f 00   Note On(0-Off) Eb3

b5f5da6a 90 2c 00   Note On(0-Off) Ab1
b5f5dace 90 44 6b   Note On Ab3 107

b5f5dad7 90 2e 76   Note On Bb1 118

b5f5dadf 90 4a 6b   Note On D4 107
b5f5db56 90 44 00   Note On(0-Off) Ab3

b5f5db77 90 2e 00   Note On(0-Off) Bb1

b5f5dba0 90 4a 00   Note On(0-Off) D4
b5f5de78 90 26 67   Note On D1 103

b5f5de80 90 41 66   Note On F3 102

b5f5de82 90 45 6b   Note On A3 107

b5f5de84 90 4a 6b   Note On D4 107
b5f5df2a 90 45 00   Note On(0-Off) A3

b5f5df2d 90 41 00   Note On(0-Off) F3

b5f5df37 90 26 00   Note On(0-Off) D1
b5f5df42 90 4a 00   Note On(0-Off) D4
b5f5dfc2 90 26 52   Note On D1 82

b5f5dfdd 90 45 60   Note On A3 96

b5f5dfe4 90 41 5b   Note On F3 91

b5f5dfe5 90 4a 66   Note On D4 102
b5f5e050 90 26 00   Note On(0-Off) D1

b5f5e05f 90 4a 00   Note On(0-Off) D4

b5f5e061 90 41 00   Note On(0-Off) F3

b5f5e062 90 45 00   Note On(0-Off) A3
b5f5e0f9 90 24 70   Note On C1 112

b5f5e115 90 43 5e   Note On G3 94

b5f5e11a 90 40 4b   Note On E3 75

b5f5e11c 90 48 56   Note On C4 86
b5f5e17a 90 43 00   Note On(0-Off) G3

b5f5e17e 90 40 00   Note On(0-Off) E3

b5f5e186 90 24 00   Note On(0-Off) C1

b5f5e194 90 48 00   Note On(0-Off) C4
b5f5e240 90 26 66   Note On D1 102

b5f5e250 90 4a 64   Note On D4 100

b5f5e255 90 41 64   Note On F3 100

b5f5e256 90 45 69   Note On A3 105
b5f5e347 90 26 00   Note On(0-Off) D1

b5f5e351 90 45 00   Note On(0-Off) A3

b5f5e366 90 41 00   Note On(0-Off) F3

b5f5e371 90 4a 00   Note On(0-Off) D4
b5f5e60e 90 29 67   Note On F1 103

b5f5e610 90 41 67   Note On F3 103

b5f5e612 90 45 66   Note On A3 102
b5f5e6e7 90 29 00   Note On(0-Off) F1

b5f5e6ec 90 41 00   Note On(0-Off) F3

b5f5e6ec 90 45 00   Note On(0-Off) A3
b5f5e796 90 41 67   Note On F3 103

b5f5e798 90 45 67   Note On A3 103

b5f5e7a1 90 29 69   Note On F1 105
b5f5e842 90 41 00   Note On(0-Off) F3

b5f5e84d 90 45 00   Note On(0-Off) A3

b5f5e864 90 29 00   Note On(0-Off) F1
b5f5e8d5 90 26 70   Note On D1 112
b5f5e8e5 90 41 67   Note On F3 103
b5f5e94a 90 41 00   Note On(0-Off) F3

b5f5e985 90 26 00   Note On(0-Off) D1
b5f5e9c6 90 41 6d   Note On F3 109

b5f5e9cf 90 45 6b   Note On A3 107

b5f5e9d4 90 29 76   Note On F1 118
b5f5ea90 90 41 00   Note On(0-Off) F3

b5f5eaa4 90 29 00   Note On(0-Off) F1

b5f5eab6 90 45 00   Note On(0-Off) A3
b5f79451 90 46 62   Note On Bb3 98

b5f79451 90 3e 4f   Note On D3 79

b5f79457 90 2b 4f   Note On G1 79
b5f79474 90 43 44   Note On G3 68
b5f7952a 90 3e 00   Note On(0-Off) D3

b5f79535 90 2b 00   Note On(0-Off) G1

b5f7953c 90 43 00   Note On(0-Off) G3
b5f7955d 90 46 00   Note On(0-Off) Bb3
b5f795f5 90 46 4b   Note On Bb3 75

b5f795f5 90 2b 5b   Note On G1 91

b5f795f5 90 3e 56   Note On D3 86

b5f795f6 90 43 60   Note On G3 96
b5f796b9 90 43 00   Note On(0-Off) G3

b5f796c7 90 2b 00   Note On(0-Off) G1

b5f796cc 90 46 00   Note On(0-Off) Bb3

b5f796dd 90 3e 00   Note On(0-Off) D3
b5f797a1 90 46 52   Note On Bb3 82

b5f797a2 90 3e 52   Note On D3 82

b5f797a3 90 43 5b   Note On G3 91
b5f797ac 90 2b 62   Note On G1 98
b5f7986d 90 43 00   Note On(0-Off) G3
b5f79894 90 46 00   Note On(0-Off) Bb3

b5f7989b 90 3e 00   Note On(0-Off) D3

b5f7989e 90 2b 00   Note On(0-Off) G1
b5f79960 90 46 62   Note On Bb3 98

b5f7996e 90 43 52   Note On G3 82

b5f7996f 90 3e 5e   Note On D3 94

b5f79970 90 2b 62   Note On G1 98
b5f79a25 90 3e 00   Note On(0-Off) D3

b5f79a26 90 43 00   Note On(0-Off) G3

b5f79a5e 90 46 00   Note On(0-Off) Bb3
b5f79a77 90 2b 00   Note On(0-Off) G1
b5f79afc 90 41 3f   Note On F3 63

b5f79aff 90 29 62   Note On F1 98

b5f79b00 90 45 60   Note On A3 96
b5f79b7b 90 41 00   Note On(0-Off) F3
b5f79bb4 90 29 00   Note On(0-Off) F1

b5f79bc1 90 45 00   Note On(0-Off) A3
b5f79c3f 90 46 67   Note On Bb3 103

b5f79c47 90 2b 69   Note On G1 105

b5f79c50 90 43 3e   Note On G3 62

b5f79c60 90 3e 15   Note On D3 21
b5f79c87 90 41 0d   Note On F3 13
b5f79cf4 90 41 00   Note On(0-Off) F3

b5f79cf9 90 43 00   Note On(0-Off) G3

b5f79cfb 90 3e 00   Note On(0-Off) D3

b5f79d28 90 2b 00   Note On(0-Off) G1
b5f79d37 90 46 00   Note On(0-Off) Bb3
b5f79df5 90 43 64   Note On G3 100

b5f79df7 90 46 62   Note On Bb3 98

b5f79df9 90 3e 5b   Note On D3 91

b5f79dff 90 2b 5f   Note On G1 95
b5f79ea4 90 3e 00   Note On(0-Off) D3

b5f79eb2 90 43 00   Note On(0-Off) G3

b5f79ebb 90 2b 00   Note On(0-Off) G1

b5f79ec3 90 46 00   Note On(0-Off) Bb3
b5f79f91 90 46 66   Note On Bb3 102

b5f79f92 90 43 52   Note On G3 82

b5f79f94 90 3e 52   Note On D3 82

b5f79f98 90 2b 67   Note On G1 103
b5f7a065 90 43 00   Note On(0-Off) G3

b5f7a068 90 3e 00   Note On(0-Off) D3
b5f7a06f 90 2b 00   Note On(0-Off) G1

b5f7a078 90 46 00   Note On(0-Off) Bb3
b5f7a160 90 46 5e   Note On Bb3 94

b5f7a163 90 43 56   Note On G3 86

b5f7a165 90 2b 6b   Note On G1 107

b5f7a16a 90 3e 4d   Note On D3 77
b5f7a254 90 46 00   Note On(0-Off) Bb3

b5f7a25a 90 2b 00   Note On(0-Off) G1
b5f7a295 90 43 00   Note On(0-Off) G3

b5f7a299 90 3e 00   Note On(0-Off) D3
b5f7a323 90 2d 72   Note On A1 114

b5f7a325 90 45 59   Note On A3 89
b5f7a399 90 45 00   Note On(0-Off) A3

b5f7a3be 90 2d 00   Note On(0-Off) A1
b5f7a461 90 41 44   Note On F3 68

b5f7a46b 90 46 60   Note On Bb3 96

b5f7a46c 90 4a 52   Note On D4 82

b5f7a473 90 2e 6e   Note On Bb1 110

b5f7a47e 90 4c 22   Note On E4 34
b5f7a497 90 47 62   Note On B3 98

b5f7a4d9 90 47 00   Note On(0-Off) B3

b5f7a4e9 90 46 00   Note On(0-Off) Bb3

b5f7a4ed 90 4c 00   Note On(0-Off) E4
b5f7a51b 90 4a 00   Note On(0-Off) D4

b5f7a544 90 41 00   Note On(0-Off) F3
b5f7a572 90 2e 00   Note On(0-Off) Bb1
b5f7a621 90 2e 72   Note On Bb1 114

b5f7a629 90 41 64   Note On F3 100
b5f7a62a 90 46 64   Note On Bb3 100

b5f7a635 90 4a 69   Note On D4 105
b5f7a6d9 90 2e 00   Note On(0-Off) Bb1

b5f7a6e1 90 4a 00   Note On(0-Off) D4

b5f7a6e6 90 46 00   Note On(0-Off) Bb3

b5f7a702 90 41 00   Note On(0-Off) F3
b5f7a7b3 90 2e 70   Note On Bb1 112

b5f7a7bc 90 46 67   Note On Bb3 103

b5f7a7bd 90 41 49   Note On F3 73

b5f7a7be 90 4a 66   Note On D4 102
b5f7a889 90 2e 00   Note On(0-Off) Bb1

b5f7a88e 90 4a 00   Note On(0-Off) D4

b5f7a89b 90 46 00   Note On(0-Off) Bb3

b5f7a89c 90 41 00   Note On(0-Off) F3
b5f7a95f 90 2e 64   Note On Bb1 100
b5f7a980 90 41 5f   Note On F3 95

b5f7a982 90 46 6d   Note On Bb3 109

b5f7a985 90 4a 6b   Note On D4 107
b5f7aa5f 90 4a 00   Note On(0-Off) D4

b5f7aa8e 90 2e 00   Note On(0-Off) Bb1

b5f7aa8f 90 46 00   Note On(0-Off) Bb3
b5f7aac6 90 41 00   Note On(0-Off) F3
b5f7ab5f 90 2c 64   Note On Ab1 100

b5f7ab62 90 44 56   Note On Ab3 86

b5f7ab67 90 41 59   Note On F3 89

b5f7ab68 90 48 64   Note On C4 100
b5f7ac03 90 41 00   Note On(0-Off) F3

b5f7ac11 90 44 00   Note On(0-Off) Ab3

b5f7ac31 90 48 00   Note On(0-Off) C4

b5f7ac54 90 2c 00   Note On(0-Off) Ab1
b5f7ac81 90 46 3f   Note On Bb3 63

b5f7ac88 90 4a 64   Note On D4 100

b5f7ac8b 90 2e 66   Note On Bb1 102

b5f7ac8c 90 41 3f   Note On F3 63
b5f7ad3f 90 2e 00   Note On(0-Off) Bb1

b5f7ad4c 90 4a 00   Note On(0-Off) D4

b5f7ad4e 90 46 00   Note On(0-Off) Bb3

b5f7ad5e 90 41 00   Note On(0-Off) F3
b5f7ae3d 90 2e 72   Note On Bb1 114

b5f7ae40 90 41 59   Note On F3 89

b5f7ae45 90 46 5f   Note On Bb3 95

b5f7ae48 90 4a 67   Note On D4 103
b5f7aeea 90 41 00   Note On(0-Off) F3

b5f7aef0 90 2e 00   Note On(0-Off) Bb1

b5f7aefc 90 4a 00   Note On(0-Off) D4

b5f7aefe 90 46 00   Note On(0-Off) Bb3
b5f7afc6 90 2e 69   Note On Bb1 105

b5f7afce 90 46 62   Note On Bb3 98

b5f7afd6 90 41 45   Note On F3 69

b5f7afd8 90 4a 62   Note On D4 98
b5f7b077 90 46 00   Note On(0-Off) Bb3

b5f7b07b 90 2e 00   Note On(0-Off) Bb1

b5f7b08a 90 41 00   Note On(0-Off) F3

b5f7b094 90 4a 00   Note On(0-Off) D4
b5f7b1a4 90 2e 64   Note On Bb1 100

b5f7b1ac 90 41 56   Note On F3 86

b5f7b1b1 90 4a 6b   Note On D4 107

b5f7b1b2 90 46 6b   Note On Bb3 107

b5f7b1b3 90 49 00   Note On(0-Off) C#4
b5f7b295 90 2e 00   Note On(0-Off) Bb1

b5f7b29e 90 41 00   Note On(0-Off) F3

b5f7b2a3 90 46 00   Note On(0-Off) Bb3
b5f7b2ab 90 4a 00   Note On(0-Off) D4
b5f7b38f 90 25 6b   Note On C#1 107

b5f7b3ad 90 43 62   Note On G3 98

b5f7b3af 90 48 6b   Note On C4 107

b5f7b3b3 90 4c 67   Note On E4 103
b5f7b435 90 48 00   Note On(0-Off) C4

b5f7b438 90 25 00   Note On(0-Off) C#1
b5f7b43a 90 43 00   Note On(0-Off) G3

b5f7b43f 90 4c 00   Note On(0-Off) E4
b5f7b4fa 90 4a 6e   Note On D4 110

b5f7b4fe 90 4d 6e   Note On F4 110

b5f7b500 90 45 59   Note On A3 89
b5f7b50e 90 26 6b   Note On D1 107

b5f7b50f 90 28 6e   Note On E1 110
b5f7b5b8 90 28 00   Note On(0-Off) E1
b5f7b5d7 90 4d 00   Note On(0-Off) F4

b5f7b5da 90 26 00   Note On(0-Off) D1

b5f7b5e6 90 45 00   Note On(0-Off) A3

b5f7b5ee 90 4a 00   Note On(0-Off) D4
b5f7b6b5 90 26 69   Note On D1 105

b5f7b6c5 90 45 64   Note On A3 100

b5f7b6c6 90 4d 70   Note On F4 112

b5f7b6c7 90 4a 70   Note On D4 112
b5f7b74a 90 45 00   Note On(0-Off) A3

b5f7b75e 90 4a 00   Note On(0-Off) D4
b5f7b765 90 26 00   Note On(0-Off) D1

b5f7b771 90 4d 00   Note On(0-Off) F4
b5f7b840 90 26 66   Note On D1 102

b5f7b85a 90 4d 62   Note On F4 98

b5f7b85f 90 45 5f   Note On A3 95

b5f7b861 90 4a 66   Note On D4 102
b5f7b8e9 90 26 00   Note On(0-Off) D1

b5f7b8ea 90 4a 00   Note On(0-Off) D4

b5f7b8f6 90 45 00   Note On(0-Off) A3

b5f7b8f8 90 4d 00   Note On(0-Off) F4
b5f7ba24 90 26 70   Note On D1 112
b5f7ba33 90 45 64   Note On A3 100

b5f7ba37 90 4d 72   Note On F4 114

b5f7ba38 90 4a 6d   Note On D4 109
b5f7bae6 90 45 00   Note On(0-Off) A3

b5f7baec 90 4a 00   Note On(0-Off) D4
b5f7bb2f 90 4d 00   Note On(0-Off) F4

b5f7bb4a 90 26 00   Note On(0-Off) D1
b5f7bc0a 90 4c 62   Note On E4 98

b5f7bc0c 90 43 3a   Note On G3 58

b5f7bc0e 90 48 59   Note On C4 89

b5f7bc1a 90 24 6e   Note On C1 110
b5f7bca5 90 43 00   Note On(0-Off) G3

b5f7bca6 90 48 00   Note On(0-Off) C4

b5f7bcc6 90 24 00   Note On(0-Off) C1

b5f7bcc7 90 4c 00   Note On(0-Off) E4
b5f7bd4c 90 45 5f   Note On A3 95

b5f7bd4f 90 4a 69   Note On D4 105

b5f7bd50 90 4d 6d   Note On F4 109

b5f7bd51 90 26 5b   Note On D1 91
b5f7be23 90 4d 00   Note On(0-Off) F4

b5f7be32 90 45 00   Note On(0-Off) A3

b5f7be50 90 4a 00   Note On(0-Off) D4

b5f7be69 90 26 00   Note On(0-Off) D1
b5f7bf1a 90 26 66   Note On D1 102

b5f7bf1e 90 45 5f   Note On A3 95

b5f7bf1f 90 4d 6d   Note On F4 109

b5f7bf21 90 4a 6d   Note On D4 109
b5f7bfcd 90 45 00   Note On(0-Off) A3

b5f7bfd0 90 4a 00   Note On(0-Off) D4

b5f7bfdc 90 26 00   Note On(0-Off) D1

b5f7bfe0 90 4d 00   Note On(0-Off) F4
b5f7c0ca 90 26 67   Note On D1 103
b5f7c0e7 90 4d 6b   Note On F4 107

b5f7c0e9 90 45 64   Note On A3 100

b5f7c0ec 90 4a 6b   Note On D4 107
b5f7c173 90 26 00   Note On(0-Off) D1

b5f7c175 90 45 00   Note On(0-Off) A3

b5f7c17b 90 4a 00   Note On(0-Off) D4

b5f7c18a 90 4d 00   Note On(0-Off) F4
b5f7c2cb 90 4d 6e   Note On F4 110

b5f7c2ce 90 45 67   Note On A3 103

b5f7c2cf 90 4a 6d   Note On D4 109
b5f7c2d6 90 26 6b   Note On D1 107
b5f7c399 90 45 00   Note On(0-Off) A3
b5f7c3a5 90 4d 00   Note On(0-Off) F4

b5f7c3bd 90 4a 00   Note On(0-Off) D4

b5f7c3ce 90 26 00   Note On(0-Off) D1
b5f7c4ce 90 4f 66   Note On G4 102

b5f7c4d0 90 48 5e   Note On C4 94

b5f7c4d8 90 4c 69   Note On E4 105

b5f7c4e1 90 28 72   Note On E1 114
b5f7c55e 90 4f 00   Note On(0-Off) G4

b5f7c560 90 4c 00   Note On(0-Off) E4

b5f7c575 90 48 00   Note On(0-Off) C4

b5f7c580 90 28 00   Note On(0-Off) E1
b5f7c60b 90 51 69   Note On A4 105

b5f7c610 90 4d 6b   Note On F4 107

b5f7c611 90 48 56   Note On C4 86

b5f7c625 90 29 70   Note On F1 112
b5f7c6f0 90 29 00   Note On(0-Off) F1

b5f7c705 90 48 00   Note On(0-Off) C4

b5f7c707 90 4d 00   Note On(0-Off) F4

b5f7c70e 90 51 00   Note On(0-Off) A4
b5f7c7d1 90 4d 70   Note On F4 112

b5f7c7dc 90 51 64   Note On A4 100

b5f7c7dd 90 48 47   Note On C4 71

b5f7c7e2 90 29 6b   Note On F1 107
b5f7c887 90 4d 00   Note On(0-Off) F4

b5f7c88c 90 29 00   Note On(0-Off) F1

b5f7c897 90 51 00   Note On(0-Off) A4

b5f7c89f 90 48 00   Note On(0-Off) C4
b5f7c97b 90 29 6d   Note On F1 109

b5f7c97d 90 48 5f   Note On C4 95

b5f7c980 90 4d 67   Note On F4 103

b5f7c981 90 51 66   Note On A4 102
b5f7ca3c 90 48 00   Note On(0-Off) C4
b5f7ca65 90 4d 00   Note On(0-Off) F4

b5f7ca68 90 51 00   Note On(0-Off) A4

b5f7ca68 90 29 00   Note On(0-Off) F1
b5f7cb52 90 51 67   Note On A4 103

b5f7cb53 90 4d 6d   Note On F4 109

b5f7cb56 90 48 59   Note On C4 89

b5f7cb58 90 29 72   Note On F1 114
b5f7cc79 90 4d 00   Note On(0-Off) F4

b5f7cc9d 90 48 00   Note On(0-Off) C4

b5f7cca1 90 29 00   Note On(0-Off) F1

b5f7cca4 90 51 00   Note On(0-Off) A4
b5f7cd50 90 48 3e   Note On C4 62

b5f7cd54 90 4f 59   Note On G4 89

b5f7cd57 90 4c 59   Note On E4 89

b5f7cd62 90 28 66   Note On E1 102
b5f7cde4 90 48 00   Note On(0-Off) C4

b5f7cde6 90 4c 00   Note On(0-Off) E4
b5f7ce0d 90 4f 00   Note On(0-Off) G4

b5f7ce22 90 28 00   Note On(0-Off) E1
b5f7ce87 90 29 72   Note On F1 114

b5f7ce8a 90 4d 74   Note On F4 116

b5f7ce8d 90 51 69   Note On A4 105

b5f7ce8f 90 48 5f   Note On C4 95
b5f7cf1c 90 48 00   Note On(0-Off) C4
b5f7cf36 90 29 00   Note On(0-Off) F1

b5f7cf3c 90 4d 00   Note On(0-Off) F4

b5f7cf4e 90 51 00   Note On(0-Off) A4
b5f7d072 90 48 5e   Note On C4 94

b5f7d073 90 29 70   Note On F1 112

b5f7d074 90 51 6b   Note On A4 107

b5f7d076 90 4d 67   Note On F4 103
b5f7d108 90 48 00   Note On(0-Off) C4
b5f7d121 90 4d 00   Note On(0-Off) F4

b5f7d13c 90 29 00   Note On(0-Off) F1

b5f7d15d 90 51 00   Note On(0-Off) A4
b5f7d38b 90 4a 76   Note On D4 118
b5f7d449 90 4a 00   Note On(0-Off) D4

b5f7d49e 90 52 6d   Note On Bb4 109
b5f7d56f 90 52 00   Note On(0-Off) Bb4
b5f7d5b9 90 51 6b   Note On A4 107
b5f7d691 90 51 00   Note On(0-Off) A4
b5f7d6df 90 52 6b   Note On Bb4 107
b5f7d710 90 2b 64   Note On G1 100
b5f7dd56 90 4a 52   Note On D4 82

b5f7dd6a 90 52 00   Note On(0-Off) Bb4
b5f7de56 90 52 4f   Note On Bb4 79
b5f7debc 90 4a 00   Note On(0-Off) D4
b5f7df3c 90 52 00   Note On(0-Off) Bb4
b5f7df95 90 51 64   Note On A4 100
b5f7e08f 90 51 00   Note On(0-Off) A4

b5f7e0b0 90 4a 5b   Note On D4 91

b5f7e0b6 90 52 64   Note On Bb4 100
b5f7e1e9 90 2e 60   Note On Bb1 96
b5f7e219 90 2b 00   Note On(0-Off) G1
b5f7eb24 90 52 00   Note On(0-Off) Bb4
b5f7eb35 90 4d 6d   Note On F4 109

b5f7eb6a 90 4a 00   Note On(0-Off) D4
b5f7ec81 90 51 4b   Note On A4 75

b5f7ec9c 90 4d 00   Note On(0-Off) F4
b5f7edb9 90 2e 00   Note On(0-Off) Bb1

b5f7edc1 90 26 67   Note On D1 103
b5f7f452 90 4d 64   Note On F4 100

b5f7f471 90 51 00   Note On(0-Off) A4
b5f7f5b1 90 48 70   Note On C4 112

b5f7f5c0 90 4d 00   Note On(0-Off) F4
b5f7f6f9 90 29 64   Note On F1 100
b5f7f70c 90 26 00   Note On(0-Off) D1
b5f7fb50 90 48 00   Note On(0-Off) C4
b5f7fc2a 90 45 66   Note On A3 102
b5f7fd27 90 46 6b   Note On Bb3 107
b5f7fd61 90 45 00   Note On(0-Off) A3
b5f7fe77 90 46 00   Note On(0-Off) Bb3

b5f7fe78 90 45 56   Note On A3 86
b5f7ff7b 90 46 6d   Note On Bb3 109

b5f7ffa1 90 45 00   Note On(0-Off) A3
b5f800c3 90 2b 64   Note On G1 100
b5f800e6 90 29 00   Note On(0-Off) F1
b5f801ef 90 4a 5e   Note On D4 94

b5f801f4 90 46 00   Note On(0-Off) Bb3
b5f804f0 90 4a 00   Note On(0-Off) D4
b5f805ca 90 45 6b   Note On A3 107
b5f806ba 90 46 6b   Note On Bb3 107
b5f806f6 90 45 00   Note On(0-Off) A3
b5f807f8 90 45 3e   Note On A3 62

b5f807f8 90 46 00   Note On(0-Off) Bb3
b5f808f1 90 46 76   Note On Bb3 118

b5f80914 90 45 00   Note On(0-Off) A3
b5f80a50 90 2e 4d   Note On Bb1 77

b5f80a64 90 2b 00   Note On(0-Off) G1
b5f80b1c 90 46 00   Note On(0-Off) Bb3
b5f80b82 90 41 44   Note On F3 68

b5f80b82 90 4a 67   Note On D4 103

b5f80b82 90 46 5e   Note On Bb3 94
b5f81074 90 4a 00   Note On(0-Off) D4

b5f81082 90 41 00   Note On(0-Off) F3

b5f810a3 90 46 00   Note On(0-Off) Bb3
b5f8117f 90 46 6b   Note On Bb3 107

b5f81181 90 41 40   Note On F3 64

b5f81186 90 4a 64   Note On D4 100
b5f811f3 90 41 00   Note On(0-Off) F3
b5f81203 90 46 00   Note On(0-Off) Bb3

b5f81208 90 4a 00   Note On(0-Off) D4
b5f812b9 90 41 62   Note On F3 98

b5f812bb 90 4a 6b   Note On D4 107

b5f812bc 90 46 70   Note On Bb3 112
b5f813ca 90 2e 00   Note On(0-Off) Bb1
b5f813f3 90 24 74   Note On C1 116
b5f814bf 90 41 00   Note On(0-Off) F3

b5f814d7 90 4a 00   Note On(0-Off) D4

b5f814e5 90 24 00   Note On(0-Off) C1

b5f81501 90 46 00   Note On(0-Off) Bb3
b5f8156c 90 26 74   Note On D1 116

b5f81571 90 4a 64   Note On D4 100

b5f81574 90 41 64   Note On F3 100

b5f81576 90 45 67   Note On A3 103
b5f81b7d 90 41 00   Note On(0-Off) F3

b5f81b7f 90 45 00   Note On(0-Off) A3

b5f81b92 90 4a 00   Note On(0-Off) D4
b5f81c4b 90 45 67   Note On A3 103

b5f81c4d 90 41 5f   Note On F3 95

b5f81c5b 90 4a 3a   Note On D4 58

b5f81c82 90 4a 00   Note On(0-Off) D4
b5f81d0d 90 45 00   Note On(0-Off) A3
b5f81d12 90 41 00   Note On(0-Off) F3

b5f81d72 90 41 5b   Note On F3 91

b5f81d73 90 45 66   Note On A3 102
b5f81e99 90 29 66   Note On F1 102

b5f81e9e 90 26 00   Note On(0-Off) D1
b5f822d2 90 41 00   Note On(0-Off) F3

b5f822d4 90 45 00   Note On(0-Off) A3
b5f823bb 90 41 60   Note On F3 96
b5f8250d 90 43 59   Note On G3 89

b5f82560 90 41 00   Note On(0-Off) F3
b5f8262e 90 43 00   Note On(0-Off) G3
b5f82856 90 45 67   Note On A3 103
b5f8295e 90 45 00   Note On(0-Off) A3
b5f82b41 90 46 74   Note On Bb3 116
b5f82c3a 90 46 00   Note On(0-Off) Bb3
b5f82cbc 90 48 59   Note On C4 89
b5f82e36 90 48 00   Note On(0-Off) C4
b5f8315a 90 43 5b   Note On G3 91
b5f8327f 90 43 00   Note On(0-Off) G3

b5f832a9 90 46 74   Note On Bb3 116
b5f833c5 90 46 00   Note On(0-Off) Bb3
b5f834d5 90 43 11   Note On G3 17
b5f835e1 90 43 00   Note On(0-Off) G3
b5f8376c 90 43 64   Note On G3 100
b5f838bb 90 45 6e   Note On A3 110

b5f838dd 90 43 00   Note On(0-Off) G3
b5f839f8 90 45 00   Note On(0-Off) A3

b5f83a0d 90 43 4b   Note On G3 75
b5f83b11 90 43 00   Note On(0-Off) G3
b5f83c23 90 29 00   Note On(0-Off) F1
b5f841e7 90 43 60   Note On G3 96
b5f84332 90 43 00   Note On(0-Off) G3

b5f8433c 90 3e 69   Note On D3 105
b5f843e3 90 3e 00   Note On(0-Off) D3
b5f84608 90 43 66   Note On G3 102
b5f846d2 90 43 00   Note On(0-Off) G3
b5f8473d 90 43 67   Note On G3 103
b5f847fc 90 43 00   Note On(0-Off) G3
b5f84a08 90 43 64   Note On G3 100
b5f84aed 90 43 00   Note On(0-Off) G3
b5f84b7a 90 46 76   Note On Bb3 118
b5f84c78 90 46 00   Note On(0-Off) Bb3
b5f84cd3 90 43 6b   Note On G3 107
b5f84de9 90 43 00   Note On(0-Off) G3

b5f84dff 90 46 76   Note On Bb3 118
b5f852ae 90 46 00   Note On(0-Off) Bb3
b5f8b267 90 3e 60   Note On D3 96

b5f8b268 90 41 67   Note On F3 103

b5f8b269 90 46 69   Note On Bb3 105
b5f8b331 90 3e 00   Note On(0-Off) D3

b5f8b334 90 41 00   Note On(0-Off) F3

b5f8b342 90 46 00   Note On(0-Off) Bb3
b5f8b411 90 3e 5f   Note On D3 95

b5f8b412 90 46 67   Note On Bb3 103

b5f8b413 90 41 67   Note On F3 103
b5f8b4c7 90 3e 00   Note On(0-Off) D3

b5f8b4cf 90 41 00   Note On(0-Off) F3

b5f8b4e4 90 46 00   Note On(0-Off) Bb3
b5f8b5b2 90 46 66   Note On Bb3 102

b5f8b5b5 90 3e 49   Note On D3 73

b5f8b5b6 90 41 59   Note On F3 89
b5f8b67a 90 3e 00   Note On(0-Off) D3

b5f8b689 90 41 00   Note On(0-Off) F3
b5f8b6cb 90 46 00   Note On(0-Off) Bb3
b5f8bb76 90 41 6b   Note On F3 107

b5f8bb78 90 3e 64   Note On D3 100

b5f8bb7e 90 46 6b   Note On Bb3 107
b5f8bc4d 90 3e 00   Note On(0-Off) D3

b5f8bc55 90 41 00   Note On(0-Off) F3

b5f8bc5d 90 46 00   Note On(0-Off) Bb3
b5f8c432 90 3e 5e   Note On D3 94

b5f8c435 90 41 62   Note On F3 98

b5f8c438 90 46 69   Note On Bb3 105
b5f8c4f4 90 41 00   Note On(0-Off) F3

b5f8c4f6 90 3e 00   Note On(0-Off) D3

b5f8c4fb 90 46 00   Note On(0-Off) Bb3
b5f8c5bd 90 3e 5b   Note On D3 91

b5f8c5c0 90 46 6b   Note On Bb3 107

b5f8c5c2 90 41 60   Note On F3 96
b5f8c676 90 41 00   Note On(0-Off) F3

b5f8c67d 90 3e 00   Note On(0-Off) D3

b5f8c687 90 46 00   Note On(0-Off) Bb3
b5f8ce3f 90 3e 67   Note On D3 103

b5f8ce42 90 41 69   Note On F3 105

b5f8ce4c 90 46 6e   Note On Bb3 110
b5f8cf08 90 46 00   Note On(0-Off) Bb3

b5f8cf14 90 41 00   Note On(0-Off) F3

b5f8cf15 90 3e 00   Note On(0-Off) D3
b5f8cfde 90 46 64   Note On Bb3 100

b5f8cfe1 90 41 4f   Note On F3 79

b5f8cfe3 90 3e 49   Note On D3 73
b5f8d083 90 41 00   Note On(0-Off) F3

b5f8d084 90 3e 00   Note On(0-Off) D3
b5f8d0cf 90 46 00   Note On(0-Off) Bb3
b5f8d73a 90 3e 4d   Note On D3 77

b5f8d73e 90 41 67   Note On F3 103
b5f8d750 90 47 5f   Note On B3 95

b5f8d756 90 44 3a   Note On Ab3 58

b5f8d793 90 44 00   Note On(0-Off) Ab3
b5f8d7aa 90 47 00   Note On(0-Off) B3

b5f8d7c6 90 3e 00   Note On(0-Off) D3

b5f8d7d0 90 41 00   Note On(0-Off) F3
b5f8d87e 90 41 64   Note On F3 100

b5f8d880 90 46 6b   Note On Bb3 107

b5f8d882 90 3e 56   Note On D3 86
b5f8d922 90 3e 00   Note On(0-Off) D3

b5f8d92b 90 41 00   Note On(0-Off) F3
b5f8d946 90 46 00   Note On(0-Off) Bb3
b5f8da14 90 46 67   Note On Bb3 103

b5f8da19 90 3e 6b   Note On D3 107

b5f8da1b 90 41 6b   Note On F3 107
b5f8da9d 90 41 00   Note On(0-Off) F3

b5f8daa0 90 3e 00   Note On(0-Off) D3
b5f8dae8 90 46 00   Note On(0-Off) Bb3
b5f8e1c8 90 3e 5b   Note On D3 91

b5f8e1cd 90 41 64   Note On F3 100

b5f8e1d0 90 46 6b   Note On Bb3 107
b5f8e596 90 3e 00   Note On(0-Off) D3

b5f8e5a0 90 46 00   Note On(0-Off) Bb3

b5f8e5b9 90 41 00   Note On(0-Off) F3
b5f8e689 90 41 6d   Note On F3 109
b5f8eef0 90 41 00   Note On(0-Off) F3
b5f8f576 90 41 6d   Note On F3 109
b5f8face 90 41 00   Note On(0-Off) F3
b5f901e1 90 43 66   Note On G3 102
b5f903b7 90 43 00   Note On(0-Off) G3
b5f90b5d 90 45 72   Note On A3 114
b5f90ee7 90 45 00   Note On(0-Off) A3
b5f90fae 90 48 5e   Note On C4 94
b5f91183 90 48 00   Note On(0-Off) C4
b5f91862 90 46 72   Note On Bb3 114
b5f919da 90 43 42   Note On G3 66

b5f919e0 90 46 00   Note On(0-Off) Bb3
b5f91adc 90 43 00   Note On(0-Off) G3
b5f91b14 90 46 72   Note On Bb3 114
b5f91c69 90 46 00   Note On(0-Off) Bb3

b5f91c6b 90 43 49   Note On G3 73
b5f91d32 90 43 00   Note On(0-Off) G3
b5f91d8d 90 46 7b   Note On Bb3 123
b5f91f8b 90 48 60   Note On C4 96

b5f91f8d 90 46 00   Note On(0-Off) Bb3
b5f920e4 90 48 00   Note On(0-Off) C4
b5f92279 90 43 5f   Note On G3 95
b5f92375 90 46 66   Note On Bb3 102

b5f923a9 90 43 00   Note On(0-Off) G3
b5f92481 90 46 00   Note On(0-Off) Bb3

b5f9248a 90 43 45   Note On G3 69
b5f92597 90 46 69   Note On Bb3 105
b5f925c6 90 43 00   Note On(0-Off) G3
b5f926e8 90 46 00   Note On(0-Off) Bb3

b5f926ec 90 43 5e   Note On G3 94
b5f92963 90 41 62   Note On F3 98

b5f9298e 90 43 00   Note On(0-Off) G3
b5f92ff8 90 41 00   Note On(0-Off) F3
b5f9369a 90 2b 3e   Note On G1 62

b5f9369c 90 43 49   Note On G3 73

b5f936a0 90 4a 62   Note On D4 98

b5f936a6 90 46 49   Note On Bb3 73
b5f9376e 90 2b 00   Note On(0-Off) G1
b5f93784 90 4a 00   Note On(0-Off) D4

b5f93790 90 43 00   Note On(0-Off) G3

b5f93796 90 46 00   Note On(0-Off) Bb3
b5f93845 90 46 59   Note On Bb3 89

b5f9384d 90 43 3c   Note On G3 60

b5f93851 90 2b 49   Note On G1 73

b5f93852 90 4a 60   Note On D4 96
b5f93911 90 46 00   Note On(0-Off) Bb3

b5f93915 90 4a 00   Note On(0-Off) D4

b5f93918 90 2b 00   Note On(0-Off) G1

b5f9391f 90 43 00   Note On(0-Off) G3
b5f939e1 90 46 4f   Note On Bb3 79

b5f939e4 90 43 3e   Note On G3 62

b5f939e6 90 2b 49   Note On G1 73

b5f939e9 90 4a 59   Note On D4 89
b5f93a82 90 46 00   Note On(0-Off) Bb3

b5f93a87 90 4a 00   Note On(0-Off) D4

b5f93aa0 90 43 00   Note On(0-Off) G3

b5f93aa5 90 2b 00   Note On(0-Off) G1
b5f93bcb 90 2b 5e   Note On G1 94

b5f93bd6 90 46 6b   Note On Bb3 107

b5f93bd7 90 43 4f   Note On G3 79

b5f93bda 90 4a 6b   Note On D4 107
b5f93c71 90 4a 00   Note On(0-Off) D4
b5f93c77 90 46 00   Note On(0-Off) Bb3

b5f93c7f 90 43 00   Note On(0-Off) G3

b5f93ca3 90 2b 00   Note On(0-Off) G1
b5f93e0f 90 2d 6b   Note On A1 107

b5f93e11 90 45 60   Note On A3 96

b5f93e16 90 4c 64   Note On E4 100
b5f93e8f 90 45 00   Note On(0-Off) A3

b5f93ea1 90 4c 00   Note On(0-Off) E4

b5f93ea4 90 2d 00   Note On(0-Off) A1
b5f93f75 90 2e 72   Note On Bb1 114

b5f93f8d 90 43 4f   Note On G3 79
b5f93fa4 90 4c 6b   Note On E4 107

b5f93fee 90 4c 00   Note On(0-Off) E4
b5f94033 90 43 00   Note On(0-Off) G3

b5f94049 90 2e 00   Note On(0-Off) Bb1
b5f9411f 90 4a 60   Note On D4 96

b5f94122 90 46 44   Note On Bb3 68

b5f94123 90 41 47   Note On F3 71

b5f94133 90 2e 64   Note On Bb1 100
b5f941d3 90 46 00   Note On(0-Off) Bb3

b5f941d3 90 41 00   Note On(0-Off) F3

b5f941dd 90 2e 00   Note On(0-Off) Bb1

b5f941e4 90 4a 00   Note On(0-Off) D4
b5f942d1 90 2e 6b   Note On Bb1 107

b5f942de 90 46 64   Note On Bb3 100

b5f942e6 90 4a 60   Note On D4 96

b5f942ee 90 41 20   Note On F3 32
b5f9435a 90 4a 00   Note On(0-Off) D4

b5f9435d 90 41 00   Note On(0-Off) F3

b5f94360 90 46 00   Note On(0-Off) Bb3

b5f94369 90 2e 00   Note On(0-Off) Bb1
b5f9448c 90 2e 6b   Note On Bb1 107

b5f944b8 90 4a 66   Note On D4 102
b5f944c0 90 46 66   Note On Bb3 102

b5f944c2 90 41 4d   Note On F3 77
b5f94526 90 2e 00   Note On(0-Off) Bb1

b5f94531 90 46 00   Note On(0-Off) Bb3

b5f94533 90 41 00   Note On(0-Off) F3

b5f94537 90 4a 00   Note On(0-Off) D4
b5f9470f 90 4c 56   Note On E4 86

b5f94714 90 48 4b   Note On C4 75

b5f94718 90 43 49   Note On G3 73
b5f94748 90 24 74   Note On C1 116
b5f947a0 90 48 00   Note On(0-Off) C4

b5f947a4 90 43 00   Note On(0-Off) G3

b5f947aa 90 4c 00   Note On(0-Off) E4

b5f947da 90 24 00   Note On(0-Off) C1
b5f94876 90 45 59   Note On A3 89

b5f94878 90 4d 6b   Note On F4 107

b5f94879 90 4a 69   Note On D4 105

b5f9487e 90 26 6d   Note On D1 109
b5f94922 90 4a 00   Note On(0-Off) D4

b5f94930 90 4d 00   Note On(0-Off) F4

b5f9493e 90 45 00   Note On(0-Off) A3

b5f94954 90 26 00   Note On(0-Off) D1
b5f94a38 90 26 4d   Note On D1 77

b5f94a41 90 4d 67   Note On F4 103

b5f94a44 90 4a 67   Note On D4 103

b5f94a47 90 45 4d   Note On A3 77
b5f94ac7 90 4a 00   Note On(0-Off) D4

b5f94acc 90 45 00   Note On(0-Off) A3

b5f94ad8 90 4d 00   Note On(0-Off) F4

b5f94afc 90 26 00   Note On(0-Off) D1
b5f94bfa 90 26 5e   Note On D1 94

b5f94c07 90 4d 6b   Note On F4 107

b5f94c0f 90 4a 6b   Note On D4 107

b5f94c10 90 45 52   Note On A3 82
b5f94c92 90 45 00   Note On(0-Off) A3

b5f94c93 90 4a 00   Note On(0-Off) D4

b5f94c9b 90 4d 00   Note On(0-Off) F4
b5f94ca9 90 26 00   Note On(0-Off) D1
b5f94de7 90 26 6d   Note On D1 109

b5f94e05 90 4d 5f   Note On F4 95

b5f94e06 90 45 62   Note On A3 98

b5f94e07 90 4a 6b   Note On D4 107
b5f94e9a 90 45 00   Note On(0-Off) A3
b5f94ebd 90 4a 00   Note On(0-Off) D4

b5f94ed8 90 26 00   Note On(0-Off) D1

b5f94ed9 90 4d 00   Note On(0-Off) F4
b5f94ffc 90 28 70   Note On E1 112

b5f95012 90 48 60   Note On C4 96

b5f95013 90 4f 67   Note On G4 103

b5f95016 90 4c 6d   Note On E4 109
b5f9508a 90 4c 00   Note On(0-Off) E4
b5f950a1 90 48 00   Note On(0-Off) C4

b5f950ae 90 4f 00   Note On(0-Off) G4

b5f950b8 90 28 00   Note On(0-Off) E1
b5f9515c 90 29 76   Note On F1 118

b5f95161 90 4d 72   Note On F4 114
b5f95164 90 51 67   Note On A4 103

b5f95166 90 48 4d   Note On C4 77
b5f95211 90 4d 00   Note On(0-Off) F4

b5f95217 90 29 00   Note On(0-Off) F1

b5f95221 90 51 00   Note On(0-Off) A4

b5f95226 90 48 00   Note On(0-Off) C4
b5f9531c 90 29 67   Note On F1 103

b5f95323 90 48 59   Note On C4 89

b5f95324 90 51 5e   Note On A4 94

b5f95326 90 4d 6b   Note On F4 107
b5f953cc 90 29 00   Note On(0-Off) F1

b5f953d4 90 4d 00   Note On(0-Off) F4

b5f953dc 90 48 00   Note On(0-Off) C4

b5f953e4 90 51 00   Note On(0-Off) A4
b5f954d4 90 4d 6d   Note On F4 109

b5f954d6 90 51 64   Note On A4 100

b5f954d9 90 48 5f   Note On C4 95

b5f954da 90 29 72   Note On F1 114
b5f95587 90 4d 00   Note On(0-Off) F4

b5f9558f 90 48 00   Note On(0-Off) C4

b5f9559b 90 51 00   Note On(0-Off) A4

b5f955a7 90 29 00   Note On(0-Off) F1
b5f956a9 90 29 6d   Note On F1 109

b5f956b9 90 48 52   Note On C4 82

b5f956be 90 51 66   Note On A4 102

b5f956bf 90 4d 6d   Note On F4 109
b5f95746 90 4d 00   Note On(0-Off) F4
b5f95751 90 29 00   Note On(0-Off) F1

b5f9575e 90 48 00   Note On(0-Off) C4

b5f95769 90 51 00   Note On(0-Off) A4
b5f958ab 90 29 70   Note On F1 112

b5f958b5 90 51 6b   Note On A4 107

b5f958b6 90 4d 72   Note On F4 114

b5f958b9 90 48 5b   Note On C4 91
b5f9591f 90 48 00   Note On(0-Off) C4

b5f9592e 90 4d 00   Note On(0-Off) F4

b5f9592f 90 51 00   Note On(0-Off) A4

b5f9593a 90 29 00   Note On(0-Off) F1
b5f959e8 90 2b 6b   Note On G1 107

b5f959f8 90 4a 6e   Note On D4 110

b5f959f9 90 4f 62   Note On G4 98

b5f95a03 90 46 62   Note On Bb3 98
b5f95a3a 90 46 00   Note On(0-Off) Bb3

b5f95a88 90 4a 00   Note On(0-Off) D4

b5f95a8e 90 2b 00   Note On(0-Off) G1
b5f95ab3 90 4f 00   Note On(0-Off) G4
b5f95b8c 90 4a 66   Note On D4 102

b5f95b8e 90 46 4b   Note On Bb3 75

b5f95b97 90 4f 5e   Note On G4 94

b5f95b9c 90 2b 64   Note On G1 100
b5f95c34 90 46 00   Note On(0-Off) Bb3

b5f95c36 90 4a 00   Note On(0-Off) D4

b5f95c38 90 4f 00   Note On(0-Off) G4

b5f95c44 90 2b 00   Note On(0-Off) G1
b5f95d1d 90 4a 62   Note On D4 98

b5f95d23 90 4f 56   Note On G4 86

b5f95d25 90 46 3d   Note On Bb3 61

b5f95d32 90 2b 52   Note On G1 82
b5f95dc1 90 4a 00   Note On(0-Off) D4

b5f95dc2 90 2b 00   Note On(0-Off) G1

b5f95dc4 90 4f 00   Note On(0-Off) G4

b5f95dd3 90 46 00   Note On(0-Off) Bb3
b5f95f1b 90 2b 62   Note On G1 98

b5f95f21 90 4a 6d   Note On D4 109

b5f95f24 90 4f 66   Note On G4 102

b5f95f25 90 46 66   Note On Bb3 102
b5f95fe0 90 2b 00   Note On(0-Off) G1

b5f95fe5 90 4f 00   Note On(0-Off) G4

b5f95fea 90 4a 00   Note On(0-Off) D4

b5f95ff2 90 46 00   Note On(0-Off) Bb3
b5f960ec 90 4d 5f   Note On F4 95

b5f960f7 90 4a 64   Note On D4 100

b5f960fc 90 29 69   Note On F1 105

b5f96101 90 46 3d   Note On Bb3 61
b5f96181 90 4a 00   Note On(0-Off) D4

b5f9618f 90 46 00   Note On(0-Off) Bb3

b5f961ae 90 29 00   Note On(0-Off) F1
b5f961c3 90 4d 00   Note On(0-Off) F4
b5f96288 90 48 2f   Note On C4 47

b5f96288 90 2f 76   Note On B1 118
b5f962a0 90 2e 2b   Note On Bb1 43

b5f962a0 90 4d 70   Note On F4 112

b5f962a0 90 52 79   Note On Bb4 121

b5f962a0 90 4a 20   Note On D4 32

b5f962ae 90 51 6e   Note On A4 110

b5f962c5 90 48 00   Note On(0-Off) C4

b5f962e8 90 52 00   Note On(0-Off) Bb4

b5f962ea 90 51 00   Note On(0-Off) A4
b5f962f6 90 4d 00   Note On(0-Off) F4

b5f962fc 90 2f 00   Note On(0-Off) B1

b5f962ff 90 2e 00   Note On(0-Off) Bb1

b5f9631b 90 4a 00   Note On(0-Off) D4
b5f96432 90 52 59   Note On Bb4 89

b5f96432 90 2e 6e   Note On Bb1 110

b5f96432 90 4a 3a   Note On D4 58
b5f964d6 90 52 00   Note On(0-Off) Bb4

b5f964d6 90 4a 00   Note On(0-Off) D4

b5f964d7 90 2e 00   Note On(0-Off) Bb1
b5f965b4 90 4d 66   Note On F4 102

b5f965b4 90 4a 44   Note On D4 68

b5f965b4 90 2e 69   Note On Bb1 105

b5f965b4 90 52 60   Note On Bb4 96
b5f9665a 90 4a 00   Note On(0-Off) D4

b5f9665a 90 4d 00   Note On(0-Off) F4

b5f9665c 90 2e 00   Note On(0-Off) Bb1

b5f96663 90 52 00   Note On(0-Off) Bb4
b5f967b5 90 2e 72   Note On Bb1 114

b5f967b5 90 4d 64   Note On F4 100

b5f967b5 90 52 69   Note On Bb4 105

b5f967b5 90 4a 5e   Note On D4 94
b5f96877 90 4a 00   Note On(0-Off) D4

b5f96877 90 2e 00   Note On(0-Off) Bb1

b5f96877 90 4d 00   Note On(0-Off) F4

b5f968c5 90 52 00   Note On(0-Off) Bb4
b5f96a34 90 24 7d   Note On C1 125

b5f96a34 90 54 40   Note On C5 64

b5f96a83 90 4c 49   Note On E4 73

b5f96a83 90 4f 2b   Note On G4 43
b5f96ac9 90 4f 00   Note On(0-Off) G4

b5f96ae4 90 4c 00   Note On(0-Off) E4

b5f96ae9 90 24 00   Note On(0-Off) C1

b5f96aea 90 54 00   Note On(0-Off) C5
b5f96ba4 90 4f 6b   Note On G4 107

b5f96ba6 90 54 6b   Note On C5 107

b5f96ba8 90 4c 5e   Note On E4 94

b5f96bb3 90 26 6e   Note On D1 110
b5f96c14 90 4c 00   Note On(0-Off) E4

b5f96c2c 90 4f 00   Note On(0-Off) G4
b5f96c73 90 54 00   Note On(0-Off) C5

b5f96c8a 90 26 00   Note On(0-Off) D1
b5f96d04 90 56 4f   Note On D5 79

b5f96d06 90 51 3e   Note On A4 62
b5f96d12 90 4d 31   Note On F4 49

b5f96d20 90 26 5f   Note On D1 95
b5f96db0 90 51 00   Note On(0-Off) A4

b5f96db2 90 4d 00   Note On(0-Off) F4

b5f96db3 90 56 00   Note On(0-Off) D5

b5f96db9 90 26 00   Note On(0-Off) D1
b5f96eb2 90 26 59   Note On D1 89

b5f96ec4 90 51 67   Note On A4 103

b5f96ec8 90 4d 5b   Note On F4 91

b5f96ec9 90 56 6e   Note On D5 110
b5f96f3a 90 4d 00   Note On(0-Off) F4

b5f96f44 90 51 00   Note On(0-Off) A4

b5f96f5c 90 56 00   Note On(0-Off) D5

b5f96f60 90 26 00   Note On(0-Off) D1
b5f97087 90 26 5f   Note On D1 95

b5f9709e 90 56 6e   Note On D5 110
b5f970a0 90 51 67   Note On A4 103

b5f970a4 90 4d 4b   Note On F4 75
b5f9710d 90 4d 00   Note On(0-Off) F4

b5f9712c 90 51 00   Note On(0-Off) A4

b5f97142 90 56 00   Note On(0-Off) D5
b5f9716d 90 26 00   Note On(0-Off) D1
b5f97298 90 26 69   Note On D1 105

b5f972a7 90 51 66   Note On A4 102

b5f972a9 90 56 6e   Note On D5 110

b5f972ae 90 4d 56   Note On F4 86
b5f97316 90 4d 00   Note On(0-Off) F4

b5f9732d 90 51 00   Note On(0-Off) A4

b5f97330 90 56 00   Note On(0-Off) D5

b5f9733f 90 26 00   Note On(0-Off) D1
b5f973e1 90 54 6b   Note On C5 107

b5f973e4 90 4d 66   Note On F4 102

b5f973e6 90 51 69   Note On A4 105

b5f973f1 90 28 69   Note On E1 105
b5f9744a 90 51 00   Note On(0-Off) A4

b5f9744c 90 4d 00   Note On(0-Off) F4

b5f97451 90 54 00   Note On(0-Off) C5

b5f97493 90 28 00   Note On(0-Off) E1
b5f97576 90 29 67   Note On F1 103

b5f9757d 90 51 4d   Note On A4 77

b5f97588 90 4d 3a   Note On F4 58
b5f9761d 90 4d 00   Note On(0-Off) F4
b5f9762b 90 29 00   Note On(0-Off) F1

b5f9762d 90 51 00   Note On(0-Off) A4
b5f97737 90 29 40   Note On F1 64

b5f9773c 90 4d 59   Note On F4 89

b5f97741 90 51 60   Note On A4 96
b5f977bf 90 4d 00   Note On(0-Off) F4

b5f977c5 90 29 00   Note On(0-Off) F1

b5f977c9 90 51 00   Note On(0-Off) A4
b5f97905 90 29 3e   Note On F1 62

b5f9790f 90 4d 4b   Note On F4 75

b5f97911 90 51 56   Note On A4 86
b5f97977 90 51 00   Note On(0-Off) A4

b5f97983 90 4d 00   Note On(0-Off) F4

b5f979a7 90 29 00   Note On(0-Off) F1
b5f97c69 90 37 69   Note On G2 105
b5f97d5c 90 37 00   Note On(0-Off) G2
b5f9825a 90 46 72   Note On Bb3 114
b5f98382 90 46 00   Note On(0-Off) Bb3
b5f983f3 90 48 5e   Note On C4 94
b5f9850c 90 48 00   Note On(0-Off) C4
b5f98574 90 46 70   Note On Bb3 112
b5f9861b 90 46 00   Note On(0-Off) Bb3
b5f986b6 90 48 67   Note On C4 103
b5f987d8 90 2b 64   Note On G1 100
b5f988f6 90 4a 6b   Note On D4 107

b5f988fd 90 48 00   Note On(0-Off) C4
b5f98aab 90 4a 00   Note On(0-Off) D4
b5f98ba5 90 2b 00   Note On(0-Off) G1
b5f98de1 90 2b 28   Note On G1 40
b5f98e4e 90 3e 67   Note On D3 103
b5f98f37 90 3e 00   Note On(0-Off) D3
b5f98f86 90 41 69   Note On F3 105
b5f99061 90 41 00   Note On(0-Off) F3
b5f990fc 90 3e 6b   Note On D3 107

b5f99105 90 40 60   Note On E3 96
b5f99159 90 40 00   Note On(0-Off) E3
b5f99188 90 3e 00   Note On(0-Off) D3
b5f9925b 90 41 70   Note On F3 112
b5f9945b 90 41 00   Note On(0-Off) F3

b5f99466 90 43 64   Note On G3 100
b5f9975e 90 43 00   Note On(0-Off) G3
b5f997ec 90 2b 00   Note On(0-Off) G1
b5f9a19d 90 2b 4b   Note On G1 75

b5f9a1ca 90 3e 67   Note On D3 103
b5f9a2cb 90 3e 00   Note On(0-Off) D3
b5f9a4da 90 2b 00   Note On(0-Off) G1
b5f9a6d4 90 2b 44   Note On G1 68
b5f9a839 90 4a 6e   Note On D4 110
b5f9a925 90 4a 00   Note On(0-Off) D4
b5f9a9ab 90 4d 72   Note On F4 114
b5f9aa78 90 4d 00   Note On(0-Off) F4
b5f9ab13 90 4a 67   Note On D4 103
b5f9abbf 90 4a 00   Note On(0-Off) D4
b5f9ac75 90 4d 72   Note On F4 114
b5f9ae4d 90 4d 00   Note On(0-Off) F4
b5f9afc5 90 4a 4f   Note On D4 79
b5f9b242 90 4a 00   Note On(0-Off) D4
b5f9b711 90 4a 67   Note On D4 103
b5f9b7ad 90 4a 00   Note On(0-Off) D4
b5f9b861 90 4a 40   Note On D4 64
b5f9b895 90 4a 00   Note On(0-Off) D4
b5f9b915 90 4d 79   Note On F4 121
b5f9b961 90 2e 5f   Note On Bb1 95

b5f9b999 90 2b 00   Note On(0-Off) G1
b5f9bad4 90 4d 00   Note On(0-Off) F4

b5f9bb12 90 4a 64   Note On D4 100
b5f9bbed 90 4a 00   Note On(0-Off) D4
b5f9bf1d 90 4a 6b   Note On D4 107
b5f9bff5 90 4a 00   Note On(0-Off) D4

b5f9c02d 90 48 4d   Note On C4 77
b5f9c174 90 24 60   Note On C1 96

b5f9c181 90 2e 00   Note On(0-Off) Bb1
b5f9c55d 90 24 00   Note On(0-Off) C1
b5f9c5d6 90 26 62   Note On D1 98
b5f9cba5 90 29 67   Note On F1 103

b5f9cbbf 90 26 00   Note On(0-Off) D1
b5f9d801 90 48 00   Note On(0-Off) C4
b5f9dcf6 90 2b 4b   Note On G1 75

b5f9dcf7 90 29 00   Note On(0-Off) F1
b5f9de64 90 2b 00   Note On(0-Off) G1
b5f9df1b 90 4a 6d   Note On D4 109

b5f9df1b 90 43 56   Note On G3 86

b5f9df1b 90 2b 40   Note On G1 64

b5f9df1b 90 46 42   Note On Bb3 66
b5f9dfae 90 46 00   Note On(0-Off) Bb3

b5f9dfae 90 43 00   Note On(0-Off) G3

b5f9dfaf 90 4a 00   Note On(0-Off) D4

b5f9dfaf 90 2b 00   Note On(0-Off) G1
b5f9e0df 90 2b 52   Note On G1 82

b5f9e0e0 90 46 64   Note On Bb3 100

b5f9e0e0 90 43 49   Note On G3 73
b5f9e0e4 90 4a 62   Note On D4 98
b5f9e16e 90 43 00   Note On(0-Off) G3

b5f9e16e 90 46 00   Note On(0-Off) Bb3

b5f9e171 90 2b 00   Note On(0-Off) G1

b5f9e174 90 4a 00   Note On(0-Off) D4
b5f9e2cb 90 2b 59   Note On G1 89

b5f9e2de 90 4a 6b   Note On D4 107

b5f9e2e2 90 43 4b   Note On G3 75

b5f9e2e4 90 46 67   Note On Bb3 103
b5f9e366 90 43 00   Note On(0-Off) G3

b5f9e376 90 46 00   Note On(0-Off) Bb3

b5f9e379 90 4a 00   Note On(0-Off) D4

b5f9e398 90 2b 00   Note On(0-Off) G1
b5f9e503 90 2d 70   Note On A1 112

b5f9e51d 90 43 4b   Note On G3 75

b5f9e520 90 4c 5b   Note On E4 91

b5f9e52d 90 48 45   Note On C4 69
b5f9e573 90 2d 00   Note On(0-Off) A1

b5f9e589 90 48 00   Note On(0-Off) C4

b5f9e596 90 43 00   Note On(0-Off) G3

b5f9e59e 90 4c 00   Note On(0-Off) E4
b5f9e664 90 46 72   Note On Bb3 114

b5f9e66a 90 4a 62   Note On D4 98

b5f9e66e 90 2b 66   Note On G1 102

b5f9e670 90 43 49   Note On G3 73
b5f9e6da 90 4a 00   Note On(0-Off) D4

b5f9e6de 90 43 00   Note On(0-Off) G3

b5f9e6e6 90 46 00   Note On(0-Off) Bb3
b5f9e717 90 2b 00   Note On(0-Off) G1
b5f9e84a 90 2b 64   Note On G1 100

b5f9e862 90 4a 5e   Note On D4 94

b5f9e864 90 43 3f   Note On G3 63

b5f9e865 90 46 67   Note On Bb3 103
b5f9e8d8 90 43 00   Note On(0-Off) G3

b5f9e8d8 90 4a 00   Note On(0-Off) D4

b5f9e8d9 90 46 00   Note On(0-Off) Bb3

b5f9e8e8 90 2b 00   Note On(0-Off) G1
b5f9ea08 90 2b 6b   Note On G1 107

b5f9ea25 90 46 6b   Note On Bb3 107

b5f9ea29 90 4a 66   Note On D4 102

b5f9ea2b 90 43 4d   Note On G3 77
b5f9eaa5 90 46 00   Note On(0-Off) Bb3

b5f9eaaa 90 43 00   Note On(0-Off) G3

b5f9eaad 90 4a 00   Note On(0-Off) D4

b5f9eacd 90 2b 00   Note On(0-Off) G1
b5f9ec60 90 2b 52   Note On G1 82

b5f9ec63 90 4a 64   Note On D4 100

b5f9ec6e 90 46 60   Note On Bb3 96

b5f9ec73 90 43 3a   Note On G3 58
b5f9ecd8 90 4a 00   Note On(0-Off) D4

b5f9ecea 90 46 00   Note On(0-Off) Bb3

b5f9eceb 90 43 00   Note On(0-Off) G3
b5f9ecf9 90 2b 00   Note On(0-Off) G1
b5f9eeb4 90 2d 6b   Note On A1 107

b5f9eecf 90 4d 67   Note On F4 103

b5f9eed3 90 48 5f   Note On C4 95

b5f9eed7 90 45 4b   Note On A3 75
b5f9ef58 90 4d 00   Note On(0-Off) F4

b5f9ef5c 90 48 00   Note On(0-Off) C4

b5f9ef63 90 45 00   Note On(0-Off) A3

b5f9ef6c 90 2d 00   Note On(0-Off) A1
b5f9f02b 90 4a 67   Note On D4 103

b5f9f031 90 43 3f   Note On G3 63

b5f9f032 90 46 66   Note On Bb3 102

b5f9f034 90 2b 5f   Note On G1 95
b5f9f0ae 90 4a 00   Note On(0-Off) D4

b5f9f0b7 90 46 00   Note On(0-Off) Bb3

b5f9f0bd 90 43 00   Note On(0-Off) G3

b5f9f0df 90 2b 00   Note On(0-Off) G1
b5f9f21b 90 2b 5f   Note On G1 95

b5f9f22a 90 4a 66   Note On D4 102

b5f9f22f 90 43 3e   Note On G3 62

b5f9f230 90 46 5f   Note On Bb3 95
b5f9f2cd 90 46 00   Note On(0-Off) Bb3

b5f9f2cf 90 4a 00   Note On(0-Off) D4

b5f9f2d1 90 43 00   Note On(0-Off) G3
b5f9f301 90 2b 00   Note On(0-Off) G1
b5f9f3f4 90 2b 60   Note On G1 96

b5f9f401 90 4a 5e   Note On D4 94

b5f9f402 90 46 62   Note On Bb3 98

b5f9f403 90 43 49   Note On G3 73
b5f9f472 90 46 00   Note On(0-Off) Bb3
b5f9f47e 90 43 00   Note On(0-Off) G3

b5f9f48b 90 4a 00   Note On(0-Off) D4

b5f9f49b 90 2b 00   Note On(0-Off) G1
b5f9f5f0 90 2b 6d   Note On G1 109

b5f9f5ff 90 46 66   Note On Bb3 102

b5f9f601 90 4a 67   Note On D4 103

b5f9f605 90 43 3a   Note On G3 58
b5f9f675 90 43 00   Note On(0-Off) G3
b5f9f67a 90 46 00   Note On(0-Off) Bb3

b5f9f67f 90 4a 00   Note On(0-Off) D4

b5f9f6be 90 2b 00   Note On(0-Off) G1
b5f9f819 90 48 5e   Note On C4 94

b5f9f81e 90 4d 5f   Note On F4 95

b5f9f820 90 45 40   Note On A3 64

b5f9f823 90 2d 72   Note On A1 114
b5f9f899 90 4d 00   Note On(0-Off) F4

b5f9f89b 90 48 00   Note On(0-Off) C4

b5f9f8aa 90 45 00   Note On(0-Off) A3

b5f9f8b7 90 2d 00   Note On(0-Off) A1
b5f9f97f 90 2e 74   Note On Bb1 116

b5f9f982 90 4a 62   Note On D4 98

b5f9f98a 90 41 3e   Note On F3 62

b5f9f98c 90 46 64   Note On Bb3 100
b5f9fa17 90 4a 00   Note On(0-Off) D4

b5f9fa24 90 41 00   Note On(0-Off) F3

b5f9fa26 90 46 00   Note On(0-Off) Bb3

b5f9fa55 90 2e 00   Note On(0-Off) Bb1
b5f9fb46 90 2e 6b   Note On Bb1 107

b5f9fb55 90 41 45   Note On F3 69

b5f9fb56 90 46 6b   Note On Bb3 107

b5f9fb5a 90 4a 64   Note On D4 100
b5f9fbda 90 41 00   Note On(0-Off) F3

b5f9fbdb 90 4a 00   Note On(0-Off) D4

b5f9fbe1 90 2e 00   Note On(0-Off) Bb1

b5f9fbe6 90 46 00   Note On(0-Off) Bb3
b5f9fd0e 90 2e 6e   Note On Bb1 110

b5f9fd24 90 41 42   Note On F3 66

b5f9fd25 90 46 67   Note On Bb3 103

b5f9fd28 90 4a 64   Note On D4 100
b5f9fd97 90 46 00   Note On(0-Off) Bb3

b5f9fd99 90 41 00   Note On(0-Off) F3

b5f9fda4 90 4a 00   Note On(0-Off) D4

b5f9fda7 90 2e 00   Note On(0-Off) Bb1
b5f9ff27 90 2e 72   Note On Bb1 114

b5f9ff43 90 46 72   Note On Bb3 114

b5f9ff46 90 4a 6e   Note On D4 110

b5f9ff48 90 41 5f   Note On F3 95
b5f9ffb1 90 41 00   Note On(0-Off) F3

b5f9ffb2 90 2e 00   Note On(0-Off) Bb1

b5f9ffba 90 46 00   Note On(0-Off) Bb3

b5f9ffd3 90 4a 00   Note On(0-Off) D4
b5fa0184 90 24 76   Note On C1 118

b5fa0197 90 48 5f   Note On C4 95

b5fa0198 90 4c 62   Note On E4 98

b5fa019f 90 43 33   Note On G3 51
b5fa0218 90 43 00   Note On(0-Off) G3

b5fa021e 90 48 00   Note On(0-Off) C4

b5fa0223 90 4c 00   Note On(0-Off) E4

b5fa022c 90 24 00   Note On(0-Off) C1
b5fa02f6 90 45 56   Note On A3 86

b5fa02f7 90 26 6d   Note On D1 109

b5fa02f8 90 4a 66   Note On D4 102

b5fa02fc 90 4d 66   Note On F4 102
b5fa0374 90 4a 00   Note On(0-Off) D4
b5fa0382 90 45 00   Note On(0-Off) A3

b5fa0389 90 4d 00   Note On(0-Off) F4

b5fa039c 90 26 00   Note On(0-Off) D1
b5fa04ba 90 26 49   Note On D1 73

b5fa04c2 90 45 56   Note On A3 86

b5fa04c4 90 4d 5f   Note On F4 95

b5fa04c7 90 4a 5f   Note On D4 95
b5fa0556 90 4a 00   Note On(0-Off) D4

b5fa055b 90 45 00   Note On(0-Off) A3

b5fa0563 90 4d 00   Note On(0-Off) F4

b5fa0570 90 26 00   Note On(0-Off) D1
b5fa066d 90 26 67   Note On D1 103

b5fa0687 90 4d 67   Note On F4 103

b5fa068a 90 4a 67   Note On D4 103

b5fa068c 90 45 52   Note On A3 82
b5fa0718 90 4a 00   Note On(0-Off) D4

b5fa071b 90 45 00   Note On(0-Off) A3

b5fa0721 90 4d 00   Note On(0-Off) F4

b5fa072a 90 26 00   Note On(0-Off) D1
b5fa0873 90 26 69   Note On D1 105

b5fa0875 90 4d 64   Note On F4 100

b5fa0878 90 45 4d   Note On A3 77

b5fa0879 90 4a 66   Note On D4 102
b5fa0903 90 4a 00   Note On(0-Off) D4

b5fa0905 90 45 00   Note On(0-Off) A3

b5fa091d 90 4d 00   Note On(0-Off) F4

b5fa0932 90 26 00   Note On(0-Off) D1
b5fa0a7e 90 28 6d   Note On E1 109

b5fa0a80 90 4f 64   Note On G4 100

b5fa0a84 90 48 4f   Note On C4 79

b5fa0a85 90 4c 67   Note On E4 103
b5fa0afc 90 4c 00   Note On(0-Off) E4

b5fa0b01 90 48 00   Note On(0-Off) C4

b5fa0b0e 90 4f 00   Note On(0-Off) G4

b5fa0b20 90 28 00   Note On(0-Off) E1
b5fa0bc1 90 29 70   Note On F1 112
b5fa0bc9 90 51 64   Note On A4 100

b5fa0bcb 90 4d 70   Note On F4 112

b5fa0bce 90 48 59   Note On C4 89
b5fa0c67 90 4d 00   Note On(0-Off) F4

b5fa0c69 90 29 00   Note On(0-Off) F1

b5fa0c6e 90 48 00   Note On(0-Off) C4

b5fa0c7b 90 51 00   Note On(0-Off) A4
b5fa0d86 90 29 5f   Note On F1 95

b5fa0d88 90 48 4f   Note On C4 79

b5fa0d8d 90 4d 6b   Note On F4 107

b5fa0d8f 90 51 5e   Note On A4 94
b5fa0dfd 90 4d 00   Note On(0-Off) F4

b5fa0e02 90 48 00   Note On(0-Off) C4

b5fa0e16 90 51 00   Note On(0-Off) A4

b5fa0e1a 90 29 00   Note On(0-Off) F1
b5fa0f46 90 29 64   Note On F1 100

b5fa0f48 90 51 62   Note On A4 98

b5fa0f49 90 4d 70   Note On F4 112

b5fa0f4b 90 48 56   Note On C4 86
b5fa0fc1 90 48 00   Note On(0-Off) C4

b5fa0fc3 90 4d 00   Note On(0-Off) F4

b5fa0fd2 90 51 00   Note On(0-Off) A4
b5fa0fe8 90 29 00   Note On(0-Off) F1
b5fa113b 90 29 60   Note On F1 96

b5fa1144 90 48 49   Note On C4 73

b5fa1146 90 4d 6d   Note On F4 109

b5fa114a 90 51 60   Note On A4 96
b5fa11cc 90 48 00   Note On(0-Off) C4

b5fa11ce 90 4d 00   Note On(0-Off) F4
b5fa11e5 90 51 00   Note On(0-Off) A4

b5fa11e6 90 29 00   Note On(0-Off) F1
b5fa154a 90 2b 56   Note On G1 86

b5fa1553 90 4f 45   Note On G4 69
b5fa15cb 90 4f 00   Note On(0-Off) G4
b5fa15f4 90 2b 00   Note On(0-Off) G1
b5fa16de 90 46 36   Note On Bb3 54

b5fa16e6 90 4f 3d   Note On G4 61

b5fa16eb 90 2b 44   Note On G1 68

b5fa16ee 90 4a 44   Note On D4 68
b5fa1795 90 2b 00   Note On(0-Off) G1

b5fa17ac 90 46 00   Note On(0-Off) Bb3

b5fa17b6 90 4f 00   Note On(0-Off) G4

b5fa17bc 90 4a 00   Note On(0-Off) D4
b5fa1889 90 4a 64   Note On D4 100

b5fa188b 90 4f 4b   Note On G4 75

b5fa188e 90 46 44   Note On Bb3 68
b5fa1896 90 2b 4d   Note On G1 77
b5fa1939 90 2b 00   Note On(0-Off) G1

b5fa194d 90 4a 00   Note On(0-Off) D4

b5fa1956 90 4f 00   Note On(0-Off) G4

b5fa195d 90 46 00   Note On(0-Off) Bb3
b5fa1a6a 90 2b 4b   Note On G1 75

b5fa1a6f 90 4a 62   Note On D4 98

b5fa1a7c 90 46 2b   Note On Bb3 43
b5fa1ad6 90 2b 00   Note On(0-Off) G1
b5fa1b0c 90 4a 00   Note On(0-Off) D4

b5fa1b34 90 46 00   Note On(0-Off) Bb3
b5fa32db 90 37 5e   Note On G2 94
b5fa3412 90 37 00   Note On(0-Off) G2
b5fa3810 90 3a 64   Note On Bb2 100
b5fa38e2 90 3a 00   Note On(0-Off) Bb2
b5fa39a8 90 3c 7f   Note On C3 127
b5fa3a82 90 3c 00   Note On(0-Off) C3
b5fa3e24 90 3a 64   Note On Bb2 100
b5fa3eaa 90 3a 00   Note On(0-Off) Bb2
b5fa3f80 90 3e 64   Note On D3 100
b5fa4045 90 3e 00   Note On(0-Off) D3
b5fa40e0 90 3a 5b   Note On Bb2 91
b5fa4159 90 3a 00   Note On(0-Off) Bb2
b5fa4235 90 3e 67   Note On D3 103
b5fa43fe 90 3e 00   Note On(0-Off) D3
b5fa4793 90 3a 42   Note On Bb2 66
b5fa489f 90 3a 00   Note On(0-Off) Bb2
b5fa4b4a 90 3a 3a   Note On Bb2 58
b5fa4c48 90 3a 00   Note On(0-Off) Bb2
b5fa921e 90 3e 67   Note On D3 103
b5fa93bf 90 3e 00   Note On(0-Off) D3
b5fa977a 90 3a 5f   Note On Bb2 95
b5fa97cd 90 3a 00   Note On(0-Off) Bb2
b5fa98e2 90 3e 76   Note On D3 118
b5fa9aaa 90 3e 00   Note On(0-Off) D3
b5fa9d19 90 41 66   Note On F3 102
b5fa9eac 90 41 00   Note On(0-Off) F3
b5faa2ad 90 3c 7f   Note On C3 127
b5faabbf 90 3c 00   Note On(0-Off) C3
b5faadbe 90 3a 69   Note On Bb2 105

b5faadc4 90 3e 66   Note On D3 102

b5faadcc 90 37 4b   Note On G2 75
b5faaf43 90 3a 00   Note On(0-Off) Bb2

b5faaf47 90 3e 00   Note On(0-Off) D3

b5faaf50 90 37 00   Note On(0-Off) G2
b5fab02d 90 3e 70   Note On D3 112
b5fab11e 90 3e 00   Note On(0-Off) D3
b5fab7a9 90 3f 76   Note On Eb3 118
b5fab926 90 3f 00   Note On(0-Off) Eb3
b5fab9ea 90 41 66   Note On F3 102
b5fabb6d 90 41 00   Note On(0-Off) F3
b5fabbde 90 3e 72   Note On D3 114
b5fabcd4 90 3e 00   Note On(0-Off) D3
b5fac71f 90 3e 6d   Note On D3 109
b5fac7ce 90 3e 00   Note On(0-Off) D3
b5fac8b9 90 3e 74   Note On D3 116
b5fac9bb 90 3e 00   Note On(0-Off) D3
b5faca87 90 3e 74   Note On D3 116
b5facb68 90 3e 00   Note On(0-Off) D3
b5facc13 90 3e 72   Note On D3 114
b5facce3 90 3e 00   Note On(0-Off) D3
b5facd3e 90 41 70   Note On F3 112
b5facde8 90 41 00   Note On(0-Off) F3
b5face5e 90 3e 79   Note On D3 121
b5facf84 90 3e 00   Note On(0-Off) D3
b5fad040 90 3e 72   Note On D3 114
b5fad16e 90 3e 00   Note On(0-Off) D3
b5fad230 90 3e 70   Note On D3 112
b5fad315 90 3e 00   Note On(0-Off) D3
b5fad3d5 90 3e 79   Note On D3 121
b5fad517 90 41 72   Note On F3 114

b5fad535 90 3e 00   Note On(0-Off) D3
b5fad57e 90 41 00   Note On(0-Off) F3
b5fad613 90 41 72   Note On F3 114

b5fad614 90 45 72   Note On A3 114

b5fad618 90 3e 6b   Note On D3 107
b5fad719 90 3e 00   Note On(0-Off) D3

b5fad71b 90 45 00   Note On(0-Off) A3

b5fad71e 90 41 00   Note On(0-Off) F3
b5fad7da 90 3e 6e   Note On D3 110

b5fad7dd 90 41 6e   Note On F3 110

b5fad7dd 90 45 6b   Note On A3 107
b5fad90d 90 3e 00   Note On(0-Off) D3

b5fad913 90 45 00   Note On(0-Off) A3

b5fad91a 90 41 00   Note On(0-Off) F3
b5fadd6a 90 41 6d   Note On F3 109

b5fadd6c 90 45 59   Note On A3 89

b5fadd76 90 43 5b   Note On G3 91

b5fadd8f 90 29 6b   Note On F1 107
b5faddfc 90 43 00   Note On(0-Off) G3
b5fadeaa 90 45 00   Note On(0-Off) A3

b5fadeb5 90 41 00   Note On(0-Off) F3

b5fadeca 90 29 00   Note On(0-Off) F1
b5fadf5e 90 45 69   Note On A3 105

b5fadf60 90 41 6e   Note On F3 110

b5fadf63 90 29 6b   Note On F1 107
b5fae0b1 90 41 00   Note On(0-Off) F3

b5fae0b5 90 45 00   Note On(0-Off) A3

b5fae0bd 90 29 00   Note On(0-Off) F1
b5fae153 90 45 69   Note On A3 105

b5fae154 90 41 6e   Note On F3 110

b5fae155 90 29 6d   Note On F1 109
b5fae243 90 41 00   Note On(0-Off) F3

b5fae243 90 45 00   Note On(0-Off) A3

b5fae244 90 29 00   Note On(0-Off) F1
b5fae2c0 90 29 67   Note On F1 103

b5fae2cd 90 45 67   Note On A3 103

b5fae2ce 90 41 6e   Note On F3 110

b5fae2d4 90 3c 7f   Note On C3 127
b5fae34d 90 3c 00   Note On(0-Off) C3

b5fae351 90 29 00   Note On(0-Off) F1

b5fae36a 90 41 00   Note On(0-Off) F3

b5fae379 90 45 00   Note On(0-Off) A3
b5fae817 90 3e 74   Note On D3 116
b5fae8f1 90 3f 7d   Note On Eb3 125

b5fae918 90 3e 00   Note On(0-Off) D3
b5fae9c6 90 3f 00   Note On(0-Off) Eb3
b5faeb40 90 3e 6b   Note On D3 107
b5faec32 90 3e 00   Note On(0-Off) D3
b5faed0b 90 41 66   Note On F3 102
b5faeed2 90 41 00   Note On(0-Off) F3

b5faef0f 90 3e 70   Note On D3 112
b5faefc1 90 3e 00   Note On(0-Off) D3
b5faf0e3 90 3e 5b   Note On D3 91
b5faf200 90 3f 6e   Note On Eb3 110

b5faf21c 90 3e 00   Note On(0-Off) D3
b5faf282 90 3f 00   Note On(0-Off) Eb3
b5faf2eb 90 3e 76   Note On D3 118
b5faf384 90 3e 00   Note On(0-Off) D3
b5faf41f 90 41 74   Note On F3 116
b5faf5a2 90 41 00   Note On(0-Off) F3

b5faf5d7 90 3e 72   Note On D3 114
b5faf67b 90 3e 00   Note On(0-Off) D3
b5faf9dc 90 3e 72   Note On D3 114
b5fafabb 90 3e 00   Note On(0-Off) D3
b5fafb0a 90 3c 7f   Note On C3 127
b5fafc68 90 3c 00   Note On(0-Off) C3
b5fb0725 90 4a 76   Note On D4 118
b5fb0811 90 4a 00   Note On(0-Off) D4
b5fb0907 90 4a 79   Note On D4 121
b5fb09c2 90 4a 00   Note On(0-Off) D4
b5fb0a40 90 4b 0d   Note On Eb4 13
b5fb0b3a 90 4b 00   Note On(0-Off) Eb4
b5fb0c02 90 4d 76   Note On F4 118
b5fb0d38 90 4d 00   Note On(0-Off) F4
b5fb0ed1 90 56 79   Note On D5 121
b5fb0fb2 90 56 00   Note On(0-Off) D5

b5fb0fb3 90 59 70   Note On F5 112
b5fb10a3 90 59 00   Note On(0-Off) F5

b5fb10af 90 56 7d   Note On D5 125
b5fb11c8 90 57 70   Note On Eb5 112

b5fb11ca 90 56 00   Note On(0-Off) D5
b5fb120f 90 58 79   Note On E5 121
b5fb1265 90 58 00   Note On(0-Off) E5

b5fb1278 90 57 00   Note On(0-Off) Eb5
b5fb1376 90 59 67   Note On F5 103
b5fb14d8 90 59 00   Note On(0-Off) F5
b5fb17e8 90 56 7e   Note On D5 126
b5fb1907 90 56 00   Note On(0-Off) D5

b5fb1909 90 54 6e   Note On C5 110
b5fb1fbd 90 54 00   Note On(0-Off) C5
b5fb218f 90 32 67   Note On D2 103

b5fb2198 90 3e 6b   Note On D3 107
b5fb2279 90 32 00   Note On(0-Off) D2

b5fb2294 90 3e 00   Note On(0-Off) D3
b5fb2342 90 3e 6d   Note On D3 109

b5fb2345 90 32 72   Note On D2 114
b5fb241d 90 32 00   Note On(0-Off) D2

b5fb2454 90 3e 00   Note On(0-Off) D3
b5fb2544 90 32 6b   Note On D2 107

b5fb2549 90 3e 72   Note On D3 114
b5fb2604 90 32 00   Note On(0-Off) D2

b5fb262d 90 3e 00   Note On(0-Off) D3
b5fb26b7 90 32 67   Note On D2 103

b5fb26bc 90 3e 62   Note On D3 98
b5fb27ee 90 41 5f   Note On F3 95

b5fb280f 90 3e 00   Note On(0-Off) D3
b5fb287a 90 41 00   Note On(0-Off) F3
b5fb28db 90 32 00   Note On(0-Off) D2

b5fb28ea 90 3e 69   Note On D3 105

b5fb28fe 90 43 3a   Note On G3 58

b5fb2900 90 2b 62   Note On G1 98

b5fb2908 90 3a 6b   Note On Bb2 107
b5fb2a0a 90 2b 00   Note On(0-Off) G1

b5fb2a12 90 3a 00   Note On(0-Off) Bb2

b5fb2a1a 90 43 00   Note On(0-Off) G3

b5fb2a28 90 3e 00   Note On(0-Off) D3
b5fb2ac4 90 2e 60   Note On Bb1 96

b5fb2aea 90 43 6b   Note On G3 107

b5fb2aee 90 3e 6b   Note On D3 107
b5fb2b1b 90 2f 76   Note On B1 118

b5fb2b5c 90 3e 00   Note On(0-Off) D3

b5fb2b6b 90 2f 00   Note On(0-Off) B1

b5fb2b74 90 43 00   Note On(0-Off) G3

b5fb2b77 90 2e 00   Note On(0-Off) Bb1
b5fb2c52 90 2e 0e   Note On Bb1 14

b5fb2c93 90 46 34   Note On Bb3 52

b5fb2c98 90 41 3d   Note On F3 61
b5fb2ca6 90 3e 3a   Note On D3 58
b5fb2da5 90 3e 00   Note On(0-Off) D3

b5fb2db3 90 2e 00   Note On(0-Off) Bb1

b5fb2db5 90 41 00   Note On(0-Off) F3

b5fb2dba 90 46 00   Note On(0-Off) Bb3
b5fb2e3e 90 2e 6b   Note On Bb1 107

b5fb2e40 90 3e 60   Note On D3 96

b5fb2e41 90 41 64   Note On F3 100

b5fb2e42 90 46 64   Note On Bb3 100
b5fb2f0c 90 3e 00   Note On(0-Off) D3
b5fb2f89 90 46 00   Note On(0-Off) Bb3
b5fb2fde 90 48 3c   Note On C4 60

b5fb2ff2 90 2e 00   Note On(0-Off) Bb1
b5fb3061 90 41 00   Note On(0-Off) F3

b5fb3077 90 48 00   Note On(0-Off) C4
b5fb30e1 90 3e 67   Note On D3 103

b5fb30e4 90 41 64   Note On F3 100

b5fb30f0 90 26 67   Note On D1 103

b5fb30f1 90 45 6b   Note On A3 107
b5fb31ed 90 41 00   Note On(0-Off) F3

b5fb31f0 90 3e 00   Note On(0-Off) D3

b5fb3219 90 45 00   Note On(0-Off) A3
b5fb3249 90 26 00   Note On(0-Off) D1
b5fb32c0 90 41 40   Note On F3 64

b5fb32c6 90 45 4d   Note On A3 77

b5fb32cb 90 3e 3f   Note On D3 63

b5fb32cc 90 26 3e   Note On D1 62
b5fb3381 90 26 00   Note On(0-Off) D1
b5fb33da 90 3e 00   Note On(0-Off) D3

b5fb33e2 90 41 00   Note On(0-Off) F3

b5fb33ea 90 45 00   Note On(0-Off) A3
b5fb347c 90 26 64   Note On D1 100

b5fb3480 90 41 5e   Note On F3 94

b5fb3481 90 45 60   Note On A3 96

b5fb3482 90 3e 5b   Note On D3 91
b5fb357b 90 26 00   Note On(0-Off) D1

b5fb3595 90 41 00   Note On(0-Off) F3

b5fb3597 90 3e 00   Note On(0-Off) D3

b5fb35ae 90 45 00   Note On(0-Off) A3
b5fb3670 90 26 66   Note On D1 102

b5fb3675 90 45 5b   Note On A3 91

b5fb3677 90 41 56   Note On F3 86

b5fb367b 90 3e 60   Note On D3 96
b5fb3770 90 26 00   Note On(0-Off) D1

b5fb377c 90 41 00   Note On(0-Off) F3

b5fb3785 90 45 00   Note On(0-Off) A3

b5fb378f 90 3e 00   Note On(0-Off) D3
b5fb388c 90 45 5b   Note On A3 91

b5fb388c 90 41 67   Note On F3 103

b5fb388c 90 29 6b   Note On F1 107
b5fb39d4 90 29 00   Note On(0-Off) F1

b5fb39d4 90 45 00   Note On(0-Off) A3

b5fb39d4 90 41 00   Note On(0-Off) F3
b5fb3a65 90 29 60   Note On F1 96

b5fb3a65 90 41 5f   Note On F3 95

b5fb3a65 90 45 5f   Note On A3 95
b5fb3bb0 90 45 00   Note On(0-Off) A3

b5fb3bb0 90 29 00   Note On(0-Off) F1

b5fb3bb0 90 41 00   Note On(0-Off) F3
b5fb3c4c 90 45 69   Note On A3 105

b5fb3c4c 90 29 67   Note On F1 103

b5fb3c4c 90 41 69   Note On F3 105
b5fb3c74 90 3c 7f   Note On C3 127
b5fb3d1d 90 3c 00   Note On(0-Off) C3

b5fb3d37 90 29 00   Note On(0-Off) F1
b5fb3d40 90 41 00   Note On(0-Off) F3

b5fb3d41 90 45 00   Note On(0-Off) A3
b5fb3e4f 90 29 6b   Note On F1 107

b5fb3e4f 90 41 67   Note On F3 103

b5fb3e4f 90 45 67   Note On A3 103
b5fb3efb 90 41 00   Note On(0-Off) F3

b5fb3f1d 90 45 00   Note On(0-Off) A3

b5fb3f1d 90 29 00   Note On(0-Off) F1
b5fb3fc5 90 46 74   Note On Bb3 116

b5fb3fc7 90 43 6d   Note On G3 109

b5fb3fcd 90 3e 52   Note On D3 82

b5fb3fce 90 2b 6b   Note On G1 107
b5fb40df 90 3e 00   Note On(0-Off) D3

b5fb410c 90 43 00   Note On(0-Off) G3

b5fb410d 90 46 00   Note On(0-Off) Bb3

b5fb4112 90 2b 00   Note On(0-Off) G1
b5fb41db 90 43 67   Note On G3 103

b5fb41db 90 46 70   Note On Bb3 112

b5fb41db 90 3e 64   Note On D3 100

b5fb41db 90 2b 69   Note On G1 105
b5fb42cf 90 3e 00   Note On(0-Off) D3

b5fb42de 90 43 00   Note On(0-Off) G3

b5fb42fa 90 2b 00   Note On(0-Off) G1
b5fb42fc 90 46 00   Note On(0-Off) Bb3
b5fb4397 90 46 6e   Note On Bb3 110

b5fb4398 90 43 6d   Note On G3 109

b5fb439e 90 2b 72   Note On G1 114

b5fb439f 90 3e 67   Note On D3 103
b5fb44af 90 43 00   Note On(0-Off) G3

b5fb44b1 90 3e 00   Note On(0-Off) D3

b5fb44c1 90 46 00   Note On(0-Off) Bb3

b5fb44cb 90 2b 00   Note On(0-Off) G1
b5fb452d 90 43 6d   Note On G3 109

b5fb4531 90 3e 67   Note On D3 103

b5fb4532 90 46 70   Note On Bb3 112

b5fb4536 90 2b 67   Note On G1 103
b5fb45e3 90 46 00   Note On(0-Off) Bb3

b5fb45ef 90 43 00   Note On(0-Off) G3

b5fb45f7 90 3e 00   Note On(0-Off) D3

b5fb45ff 90 2b 00   Note On(0-Off) G1
b5fb4653 90 29 66   Note On F1 102

b5fb465f 90 45 6b   Note On A3 107

b5fb4662 90 41 6b   Note On F3 107
b5fb46d8 90 41 00   Note On(0-Off) F3
b5fb46f4 90 45 00   Note On(0-Off) A3

b5fb46f8 90 29 00   Note On(0-Off) F1
b5fb4785 90 42 4f   Note On F#3 79

b5fb478b 90 46 70   Note On Bb3 112

b5fb479c 90 42 00   Note On(0-Off) F#3

b5fb47a4 90 2e 74   Note On Bb1 116

b5fb47a7 90 43 67   Note On G3 103

b5fb47a9 90 40 3e   Note On E3 62
b5fb4808 90 43 00   Note On(0-Off) G3
b5fb481e 90 40 00   Note On(0-Off) E3

b5fb4855 90 46 00   Note On(0-Off) Bb3
b5fb489f 90 2e 00   Note On(0-Off) Bb1
b5fb4940 90 4a 5e   Note On D4 94

b5fb4942 90 41 64   Note On F3 100

b5fb4944 90 2e 6d   Note On Bb1 109
b5fb4957 90 45 6d   Note On A3 109
b5fb49cf 90 45 00   Note On(0-Off) A3

b5fb49ee 90 2e 00   Note On(0-Off) Bb1

b5fb4a1a 90 4a 00   Note On(0-Off) D4
b5fb4a1e 90 41 00   Note On(0-Off) F3
b5fb4b25 90 41 60   Note On F3 96

b5fb4b25 90 46 6b   Note On Bb3 107

b5fb4b26 90 4a 69   Note On D4 105

b5fb4b26 90 2e 76   Note On Bb1 118
b5fb4be5 90 4a 00   Note On(0-Off) D4

b5fb4beb 90 41 00   Note On(0-Off) F3

b5fb4bf3 90 2e 00   Note On(0-Off) Bb1

b5fb4bf4 90 46 00   Note On(0-Off) Bb3
b5fb4ca6 90 2e 6b   Note On Bb1 107

b5fb4caa 90 46 72   Note On Bb3 114

b5fb4cac 90 4a 69   Note On D4 105

b5fb4cae 90 41 69   Note On F3 105
b5fb4d46 90 41 00   Note On(0-Off) F3

b5fb4d57 90 46 00   Note On(0-Off) Bb3

b5fb4d5f 90 4a 00   Note On(0-Off) D4
b5fb4dc9 90 2e 00   Note On(0-Off) Bb1

b5fb4dd9 90 30 5f   Note On C2 95

b5fb4dda 90 43 69   Note On G3 105

b5fb4ddd 90 48 70   Note On C4 112

b5fb4de3 90 4c 66   Note On E4 102
b5fb4e4f 90 30 00   Note On(0-Off) C2

b5fb4e51 90 48 00   Note On(0-Off) C4

b5fb4e52 90 4c 00   Note On(0-Off) E4

b5fb4e53 90 43 00   Note On(0-Off) G3
b5fb4ef7 90 4a 72   Note On D4 114

b5fb4ef7 90 45 67   Note On A3 103

b5fb4ef7 90 4d 72   Note On F4 114

b5fb4ef7 90 26 6d   Note On D1 109
b5fb4ff4 90 45 00   Note On(0-Off) A3

b5fb4ff9 90 4d 00   Note On(0-Off) F4

b5fb4ffb 90 4a 00   Note On(0-Off) D4
b5fb5009 90 26 00   Note On(0-Off) D1
b5fb50bd 90 4d 6b   Note On F4 107

b5fb50be 90 4a 6e   Note On D4 110

b5fb50c0 90 45 64   Note On A3 100

b5fb50c1 90 26 67   Note On D1 103
b5fb51ba 90 4d 00   Note On(0-Off) F4

b5fb51bf 90 45 00   Note On(0-Off) A3

b5fb51c1 90 4a 00   Note On(0-Off) D4

b5fb51c3 90 26 00   Note On(0-Off) D1
b5fb5296 90 26 66   Note On D1 102

b5fb5299 90 45 64   Note On A3 100

b5fb529d 90 4d 6b   Note On F4 107

b5fb529f 90 4a 6e   Note On D4 110
b5fb5375 90 26 00   Note On(0-Off) D1
b5fb53a0 90 45 00   Note On(0-Off) A3

b5fb53a1 90 4d 00   Note On(0-Off) F4

b5fb53a2 90 4a 00   Note On(0-Off) D4
b5fb542f 90 26 6d   Note On D1 109

b5fb5433 90 45 64   Note On A3 100

b5fb5434 90 4a 6e   Note On D4 110

b5fb5436 90 4d 69   Note On F4 105
b5fb54ce 90 45 00   Note On(0-Off) A3

b5fb54d2 90 4a 00   Note On(0-Off) D4

b5fb54db 90 4d 00   Note On(0-Off) F4

b5fb54ee 90 26 00   Note On(0-Off) D1
b5fb5561 90 4c 67   Note On E4 103

b5fb5562 90 48 6b   Note On C4 107

b5fb5563 90 43 64   Note On G3 100

b5fb5569 90 28 72   Note On E1 114
b5fb55e9 90 43 00   Note On(0-Off) G3
b5fb55fc 90 4c 00   Note On(0-Off) E4

b5fb55ff 90 48 00   Note On(0-Off) C4

b5fb5620 90 28 00   Note On(0-Off) E1
b5fb568b 90 29 79   Note On F1 121

b5fb5699 90 45 64   Note On A3 100

b5fb569e 90 41 52   Note On F3 82

b5fb56a0 90 48 4b   Note On C4 75
b5fb5783 90 48 00   Note On(0-Off) C4
b5fb57aa 90 41 00   Note On(0-Off) F3

b5fb57b9 90 45 00   Note On(0-Off) A3

b5fb57d4 90 29 00   Note On(0-Off) F1
b5fb584d 90 45 6b   Note On A3 107

b5fb584e 90 41 69   Note On F3 105

b5fb584f 90 48 69   Note On C4 105

b5fb5851 90 29 70   Note On F1 112
b5fb596a 90 29 00   Note On(0-Off) F1

b5fb596f 90 45 00   Note On(0-Off) A3

b5fb597f 90 41 00   Note On(0-Off) F3

b5fb5984 90 48 00   Note On(0-Off) C4
b5fb5a13 90 29 64   Note On F1 100

b5fb5a25 90 48 5b   Note On C4 91

b5fb5a29 90 45 56   Note On A3 86

b5fb5a2b 90 41 4d   Note On F3 77
b5fb5b06 90 29 00   Note On(0-Off) F1

b5fb5b23 90 45 00   Note On(0-Off) A3

b5fb5b2f 90 41 00   Note On(0-Off) F3
b5fb5b4c 90 48 00   Note On(0-Off) C4
b5fb5c1c 90 29 4d   Note On F1 77

b5fb5c26 90 48 45   Note On C4 69

b5fb5c28 90 45 56   Note On A3 86

b5fb5c2a 90 41 4f   Note On F3 79
b5fb5d02 90 41 00   Note On(0-Off) F3

b5fb5d08 90 45 00   Note On(0-Off) A3

b5fb5d14 90 29 00   Note On(0-Off) F1

b5fb5d19 90 48 00   Note On(0-Off) C4
b5fb5e0d 90 2b 67   Note On G1 103

b5fb5e10 90 43 6e   Note On G3 110

b5fb5e11 90 46 74   Note On Bb3 116

b5fb5e12 90 3e 64   Note On D3 100

b5fb5e17 90 40 4b   Note On E3 75

b5fb5e49 90 40 00   Note On(0-Off) E3
b5fb5f23 90 2b 00   Note On(0-Off) G1

b5fb5f2f 90 3e 00   Note On(0-Off) D3

b5fb5f38 90 46 00   Note On(0-Off) Bb3
b5fb5f46 90 43 00   Note On(0-Off) G3
b5fb5fc9 90 43 64   Note On G3 100

b5fb5fcc 90 3e 4d   Note On D3 77

b5fb5fcd 90 46 60   Note On Bb3 96

b5fb5fec 90 2b 47   Note On G1 71
b5fb608f 90 43 00   Note On(0-Off) G3

b5fb6093 90 46 00   Note On(0-Off) Bb3

b5fb60a6 90 3e 00   Note On(0-Off) D3

b5fb60ac 90 2b 00   Note On(0-Off) G1
b5fb61ce 90 2b 4f   Note On G1 79

b5fb61d9 90 43 62   Note On G3 98

b5fb61db 90 46 67   Note On Bb3 103

b5fb61e0 90 3e 3f   Note On D3 63
b5fb628d 90 2b 00   Note On(0-Off) G1

b5fb628e 90 3e 00   Note On(0-Off) D3

b5fb62b1 90 46 00   Note On(0-Off) Bb3

b5fb62b2 90 43 00   Note On(0-Off) G3
b5fb6337 90 2b 64   Note On G1 100

b5fb633f 90 46 6d   Note On Bb3 109

b5fb6340 90 43 66   Note On G3 102

b5fb6343 90 3e 64   Note On D3 100
b5fb63f2 90 2b 00   Note On(0-Off) G1
b5fb6402 90 46 00   Note On(0-Off) Bb3

b5fb640b 90 43 00   Note On(0-Off) G3

b5fb6420 90 3e 00   Note On(0-Off) D3
b5fb6494 90 2d 6e   Note On A1 110

b5fb64a8 90 45 72   Note On A3 114

b5fb64aa 90 3e 5e   Note On D3 94
b5fb6516 90 3e 00   Note On(0-Off) D3
b5fb6528 90 45 00   Note On(0-Off) A3

b5fb6539 90 2d 00   Note On(0-Off) A1
b5fb65d3 90 46 6d   Note On Bb3 109

b5fb65d8 90 41 4f   Note On F3 79

b5fb65dc 90 3e 3e   Note On D3 62

b5fb65e7 90 2e 76   Note On Bb1 118
b5fb66c7 90 3e 00   Note On(0-Off) D3

b5fb66cc 90 41 00   Note On(0-Off) F3

b5fb66e6 90 2e 00   Note On(0-Off) Bb1

b5fb66ea 90 46 00   Note On(0-Off) Bb3
b5fb6777 90 2e 6b   Note On Bb1 107

b5fb6780 90 46 5f   Note On Bb3 95

b5fb6782 90 41 52   Note On F3 82

b5fb6784 90 3e 40   Note On D3 64
b5fb6895 90 2e 00   Note On(0-Off) Bb1

b5fb68a5 90 3e 00   Note On(0-Off) D3

b5fb68ab 90 41 00   Note On(0-Off) F3
b5fb68b6 90 46 00   Note On(0-Off) Bb3
b5fb6972 90 2e 6d   Note On Bb1 109

b5fb697a 90 46 67   Note On Bb3 103

b5fb697b 90 3e 5e   Note On D3 94
b5fb697e 90 41 5b   Note On F3 91
b5fb6a68 90 2e 00   Note On(0-Off) Bb1

b5fb6a6b 90 41 00   Note On(0-Off) F3

b5fb6a75 90 3e 00   Note On(0-Off) D3

b5fb6a78 90 46 00   Note On(0-Off) Bb3
b5fb6b43 90 2e 69   Note On Bb1 105

b5fb6b4c 90 46 62   Note On Bb3 98

b5fb6b4e 90 3e 5b   Note On D3 91

b5fb6b57 90 41 56   Note On F3 86
b5fb6c41 90 2e 00   Note On(0-Off) Bb1
b5fb6c4f 90 41 00   Note On(0-Off) F3

b5fb6c59 90 46 00   Note On(0-Off) Bb3

b5fb6c66 90 3e 00   Note On(0-Off) D3
b5fb6d3d 90 41 52   Note On F3 82

b5fb6d3e 90 26 66   Note On D1 102

b5fb6d41 90 3e 59   Note On D3 89

b5fb6d42 90 45 5e   Note On A3 94
b5fb6e50 90 26 00   Note On(0-Off) D1

b5fb6e66 90 3e 00   Note On(0-Off) D3

b5fb6e67 90 45 00   Note On(0-Off) A3

b5fb6e6a 90 41 00   Note On(0-Off) F3
b5fb6f12 90 41 62   Note On F3 98

b5fb6f15 90 3e 5e   Note On D3 94

b5fb6f17 90 45 66   Note On A3 102

b5fb6f1b 90 26 5e   Note On D1 94
b5fb7041 90 26 00   Note On(0-Off) D1

b5fb7065 90 3e 00   Note On(0-Off) D3

b5fb7068 90 41 00   Note On(0-Off) F3

b5fb706a 90 45 00   Note On(0-Off) A3
b5fb710e 90 3e 45   Note On D3 69

b5fb7113 90 41 4f   Note On F3 79

b5fb7116 90 45 5e   Note On A3 94

b5fb711c 90 26 56   Note On D1 86
b5fb71fd 90 26 00   Note On(0-Off) D1

b5fb7208 90 3e 00   Note On(0-Off) D3

b5fb7211 90 41 00   Note On(0-Off) F3

b5fb7213 90 45 00   Note On(0-Off) A3
b5fb72df 90 26 64   Note On D1 100

b5fb72e0 90 3e 5f   Note On D3 95

b5fb72e1 90 45 66   Note On A3 102

b5fb72e3 90 41 5f   Note On F3 95
b5fb73d6 90 45 00   Note On(0-Off) A3

b5fb73d8 90 41 00   Note On(0-Off) F3

b5fb73df 90 3e 00   Note On(0-Off) D3

b5fb73e2 90 26 00   Note On(0-Off) D1
b5fb749b 90 45 67   Note On A3 103

b5fb74a1 90 29 5e   Note On F1 94

b5fb74a2 90 41 66   Note On F3 102
b5fb75dd 90 29 00   Note On(0-Off) F1

b5fb7605 90 41 00   Note On(0-Off) F3

b5fb7610 90 45 00   Note On(0-Off) A3
b5fb7697 90 45 56   Note On A3 86

b5fb7698 90 29 4f   Note On F1 79

b5fb7699 90 41 62   Note On F3 98
b5fb77b7 90 29 00   Note On(0-Off) F1

b5fb7805 90 45 00   Note On(0-Off) A3

b5fb7808 90 41 00   Note On(0-Off) F3
b5fb7877 90 29 4d   Note On F1 77

b5fb787b 90 45 60   Note On A3 96
b5fb787c 90 41 5f   Note On F3 95
b5fb7997 90 29 00   Note On(0-Off) F1
b5fb79bd 90 45 00   Note On(0-Off) A3

b5fb79c4 90 41 00   Note On(0-Off) F3
b5fb7a2c 90 29 62   Note On F1 98

b5fb7a4e 90 45 67   Note On A3 103

b5fb7a50 90 41 69   Note On F3 105
b5fb7b6d 90 29 00   Note On(0-Off) F1
b5fb7bfa 90 45 00   Note On(0-Off) A3

b5fb7c03 90 41 00   Note On(0-Off) F3
b5fb7c98 90 3d 5b   Note On C#3 91
b5fb7cd7 90 42 13   Note On F#3 19

b5fb7d00 90 3e 13   Note On D3 19

b5fb7d25 90 3d 00   Note On(0-Off) C#3
b5fb7d4a 90 42 00   Note On(0-Off) F#3

b5fb7d85 90 3e 00   Note On(0-Off) D3
b5fb7e32 90 3e 64   Note On D3 100

b5fb7e32 90 2b 40   Note On G1 64

b5fb7e3e 90 3a 3e   Note On Bb2 62

b5fb7e3e 90 43 52   Note On G3 82
b5fb7f3b 90 43 00   Note On(0-Off) G3
b5fb7f49 90 2b 00   Note On(0-Off) G1

b5fb7f4a 90 3a 00   Note On(0-Off) Bb2

b5fb7f54 90 3e 00   Note On(0-Off) D3
b5fb800a 90 2b 4d   Note On G1 77

b5fb801e 90 3e 67   Note On D3 103

b5fb801f 90 3a 40   Note On Bb2 64

b5fb8024 90 43 64   Note On G3 100
b5fb814a 90 2b 00   Note On(0-Off) G1

b5fb8169 90 43 00   Note On(0-Off) G3

b5fb8170 90 3a 00   Note On(0-Off) Bb2

b5fb8181 90 3e 00   Note On(0-Off) D3
b5fb81ec 90 2b 64   Note On G1 100
b5fb8220 90 3e 5f   Note On D3 95

b5fb8229 90 3a 3a   Note On Bb2 58

b5fb822a 90 43 64   Note On G3 100
b5fb8330 90 2b 00   Note On(0-Off) G1
b5fb8357 90 43 00   Note On(0-Off) G3

b5fb8377 90 3e 00   Note On(0-Off) D3

b5fb8379 90 3a 00   Note On(0-Off) Bb2
b5fb83e4 90 3a 47   Note On Bb2 71

b5fb83e5 90 41 66   Note On F3 102

b5fb83e6 90 3e 69   Note On D3 105
b5fb8410 90 2e 62   Note On Bb1 98
b5fb8509 90 3e 00   Note On(0-Off) D3

b5fb850b 90 3a 00   Note On(0-Off) Bb2

b5fb8514 90 41 00   Note On(0-Off) F3
b5fb853f 90 2e 00   Note On(0-Off) Bb1
b5fb85b2 90 2e 60   Note On Bb1 96

b5fb85dc 90 3a 33   Note On Bb2 51

b5fb85df 90 3e 5e   Note On D3 94

b5fb85e1 90 41 5e   Note On F3 94
b5fb868e 90 2e 00   Note On(0-Off) Bb1
b5fb86e3 90 2e 5b   Note On Bb1 91

b5fb86f4 90 41 00   Note On(0-Off) F3

b5fb86fd 90 3e 00   Note On(0-Off) D3

b5fb8707 90 3a 00   Note On(0-Off) Bb2
b5fb8775 90 3e 66   Note On D3 102

b5fb8777 90 3a 40   Note On Bb2 64

b5fb877b 90 41 60   Note On F3 96
b5fb87c5 90 2e 00   Note On(0-Off) Bb1
b5fb8834 90 2e 60   Note On Bb1 96
b5fb88a3 90 3a 00   Note On(0-Off) Bb2

b5fb88ac 90 3e 00   Note On(0-Off) D3
b5fb88b8 90 41 00   Note On(0-Off) F3
b5fb896c 90 2e 00   Note On(0-Off) Bb1
b5fb898c 90 3e 64   Note On D3 100

b5fb8991 90 3a 3d   Note On Bb2 61

b5fb8992 90 41 64   Note On F3 100

b5fb89c9 90 2e 66   Note On Bb1 102
b5fb8a7d 90 3e 00   Note On(0-Off) D3

b5fb8a86 90 3a 00   Note On(0-Off) Bb2

b5fb8a87 90 41 00   Note On(0-Off) F3
b5fb8aec 90 2e 00   Note On(0-Off) Bb1
b5fb8b87 90 39 4d   Note On A2 77

b5fb8b87 90 26 4b   Note On D1 75

b5fb8b8f 90 3e 5b   Note On D3 91

b5fb8b91 90 41 2c   Note On F3 44
b5fb8ca5 90 39 00   Note On(0-Off) A2
b5fb8cb5 90 41 00   Note On(0-Off) F3

b5fb8cbc 90 3e 00   Note On(0-Off) D3
b5fb8d19 90 26 00   Note On(0-Off) D1

b5fb8d3a 90 3e 64   Note On D3 100

b5fb8d42 90 39 59   Note On A2 89

b5fb8d43 90 41 60   Note On F3 96
b5fb8dac 90 26 56   Note On D1 86
b5fb8e67 90 39 00   Note On(0-Off) A2

b5fb8e72 90 41 00   Note On(0-Off) F3

b5fb8e76 90 3e 00   Note On(0-Off) D3
b5fb8eca 90 26 00   Note On(0-Off) D1
b5fb8f11 90 3e 66   Note On D3 102

b5fb8f13 90 41 64   Note On F3 100

b5fb8f1b 90 39 5e   Note On A2 94

b5fb8f40 90 26 6b   Note On D1 107
b5fb909c 90 26 00   Note On(0-Off) D1
b5fb90b0 90 41 00   Note On(0-Off) F3

b5fb90b2 90 39 00   Note On(0-Off) A2

b5fb90b7 90 3e 00   Note On(0-Off) D3
b5fb9135 90 26 62   Note On D1 98

b5fb913b 90 3e 67   Note On D3 103

b5fb913d 90 41 64   Note On F3 100

b5fb913f 90 39 56   Note On A2 86
b5fb924f 90 3e 00   Note On(0-Off) D3

b5fb9281 90 41 00   Note On(0-Off) F3

b5fb928d 90 39 00   Note On(0-Off) A2

b5fb92a5 90 26 00   Note On(0-Off) D1
b5fb930d 90 29 64   Note On F1 100

b5fb930e 90 39 6b   Note On A2 107

b5fb9315 90 35 60   Note On F2 96

b5fb9316 90 3c 7f   Note On C3 127
b5fb93fc 90 29 00   Note On(0-Off) F1
b5fb944e 90 3c 00   Note On(0-Off) C3

b5fb9457 90 39 00   Note On(0-Off) A2

b5fb945e 90 35 00   Note On(0-Off) F2

b5fb9471 90 29 59   Note On F1 89
b5fb94d1 90 39 5f   Note On A2 95

b5fb94d7 90 3c 7f   Note On C3 127

b5fb94dc 90 35 60   Note On F2 96
b5fb9550 90 29 00   Note On(0-Off) F1
b5fb95b7 90 29 59   Note On F1 89
b5fb9615 90 3c 00   Note On(0-Off) C3

b5fb9623 90 35 00   Note On(0-Off) F2

b5fb962c 90 39 00   Note On(0-Off) A2
b5fb968a 90 29 00   Note On(0-Off) F1
b5fb96c1 90 39 4f   Note On A2 79

b5fb96c6 90 3c 7f   Note On C3 127

b5fb96c7 90 35 47   Note On F2 71

b5fb96db 90 29 64   Note On F1 100
b5fb97fe 90 35 00   Note On(0-Off) F2

b5fb9803 90 39 00   Note On(0-Off) A2

b5fb9809 90 3c 00   Note On(0-Off) C3

b5fb981b 90 29 00   Note On(0-Off) F1
b5fb98a6 90 29 64   Note On F1 100

b5fb98b2 90 3c 7f   Note On C3 127

b5fb98b5 90 35 5f   Note On F2 95

b5fb98b6 90 39 62   Note On A2 98
b5fb99a7 90 35 00   Note On(0-Off) F2
b5fb99c8 90 39 00   Note On(0-Off) A2

b5fb99e5 90 3c 00   Note On(0-Off) C3

b5fb9a06 90 29 00   Note On(0-Off) F1
b5fb9a8f 90 2b 56   Note On G1 86

b5fb9ac1 90 41 67   Note On F3 103
b5fb9b9e 90 2b 00   Note On(0-Off) G1

b5fb9bb7 90 41 00   Note On(0-Off) F3
b5fb9eb3 90 3e 79   Note On D3 121
b5fb9f89 90 3e 00   Note On(0-Off) D3

b5fb9f98 90 41 67   Note On F3 103
b5fba07d 90 3e 74   Note On D3 116
b5fba0b3 90 41 00   Note On(0-Off) F3
b5fba131 90 3e 00   Note On(0-Off) D3
b5fba1b1 90 3e 79   Note On D3 121
b5fba23e 90 3e 00   Note On(0-Off) D3
b5fba2a3 90 3f 79   Note On Eb3 121
b5fba3b0 90 3f 00   Note On(0-Off) Eb3

b5fba3eb 90 41 14   Note On F3 20
b5fba54f 90 41 00   Note On(0-Off) F3
b5fbaff7 90 3e 62   Note On D3 98
b5fbb0cc 90 3e 00   Note On(0-Off) D3
b5fbb1aa 90 3c 7f   Note On C3 127
b5fbb7fe 90 3c 00   Note On(0-Off) C3
b5fbbde7 90 32 6e   Note On D2 110
b5fbc072 90 33 70   Note On Eb2 112

b5fbc084 90 32 00   Note On(0-Off) D2
b5fbc235 90 33 00   Note On(0-Off) Eb2
b5fbc2a2 90 35 6d   Note On F2 109
b5fbc43d 90 35 00   Note On(0-Off) F2

b5fbc449 90 32 76   Note On D2 118
b5fbc4f0 90 32 00   Note On(0-Off) D2
b5fbc7ae 90 32 72   Note On D2 114
b5fbc8b8 90 32 00   Note On(0-Off) D2

b5fbc8be 90 35 6e   Note On F2 110
b5fbcaaf 90 32 6e   Note On D2 110

b5fbcac3 90 35 00   Note On(0-Off) F2
b5fbcba0 90 32 00   Note On(0-Off) D2
b5fbcf7b 90 32 76   Note On D2 118
b5fbd08b 90 30 70   Note On C2 112

b5fbd099 90 32 00   Note On(0-Off) D2
b5fbd813 90 30 00   Note On(0-Off) C2
b5fbdafc 90 2b 62   Note On G1 98

b5fbdafe 90 2e 76   Note On Bb1 118

b5fbdb06 90 34 69   Note On E2 105

b5fbdb07 90 32 66   Note On D2 102

b5fbdb10 90 33 42   Note On Eb2 66
b5fbdb7d 90 33 00   Note On(0-Off) Eb2

b5fbdb94 90 34 00   Note On(0-Off) E2

b5fbdb98 90 32 00   Note On(0-Off) D2

b5fbdbba 90 2e 00   Note On(0-Off) Bb1
b5fbdbda 90 2b 00   Note On(0-Off) G1
b5fbdc5d 90 2e 6d   Note On Bb1 109

b5fbdc5f 90 32 72   Note On D2 114

b5fbdc65 90 2b 56   Note On G1 86
b5fbdd3e 90 2b 00   Note On(0-Off) G1

b5fbdd47 90 2e 00   Note On(0-Off) Bb1

b5fbdd4c 90 32 00   Note On(0-Off) D2
b5fbddc3 90 29 52   Note On F1 82

b5fbddc5 90 30 69   Note On C2 105

b5fbddc6 90 2d 6b   Note On A1 107
b5fbde5b 90 29 00   Note On(0-Off) F1

b5fbde5c 90 2d 00   Note On(0-Off) A1

b5fbde64 90 30 00   Note On(0-Off) C2
b5fbded6 90 2e 6b   Note On Bb1 107

b5fbdee2 90 2b 64   Note On G1 100

b5fbdee8 90 32 64   Note On D2 100
b5fbdff2 90 2b 00   Note On(0-Off) G1

b5fbdffd 90 2e 00   Note On(0-Off) Bb1

b5fbe00b 90 32 00   Note On(0-Off) D2
b5fbe0aa 90 2b 67   Note On G1 103

b5fbe0ab 90 32 70   Note On D2 112

b5fbe0ac 90 2e 74   Note On Bb1 116
b5fbe1c4 90 32 00   Note On(0-Off) D2

b5fbe1d2 90 2e 00   Note On(0-Off) Bb1

b5fbe1da 90 2b 00   Note On(0-Off) G1
b5fbe288 90 32 6b   Note On D2 107

b5fbe28c 90 2e 70   Note On Bb1 112

b5fbe28e 90 2b 64   Note On G1 100
b5fbe365 90 2e 00   Note On(0-Off) Bb1

b5fbe378 90 32 00   Note On(0-Off) D2

b5fbe37e 90 2b 00   Note On(0-Off) G1
b5fbe430 90 32 69   Note On D2 105

b5fbe431 90 2e 6d   Note On Bb1 109

b5fbe440 90 29 64   Note On F1 100
b5fbe4ba 90 2e 00   Note On(0-Off) Bb1
b5fbe54a 90 29 00   Note On(0-Off) F1

b5fbe54f 90 32 00   Note On(0-Off) D2
b5fbefd7 90 3e 64   Note On D3 100

b5fbefde 90 41 49   Note On F3 73

b5fbefdf 90 45 59   Note On A3 89
b5fbf2d3 90 3e 00   Note On(0-Off) D3

b5fbf2ed 90 41 00   Note On(0-Off) F3

b5fbf305 90 45 00   Note On(0-Off) A3
b5fbf94c 90 3e 67   Note On D3 103

b5fbf94f 90 40 62   Note On E3 98

b5fbf950 90 43 62   Note On G3 98

b5fbf953 90 41 69   Note On F3 105

b5fbf953 90 45 67   Note On A3 103

b5fbf954 90 47 69   Note On B3 105
b5fbf992 90 40 00   Note On(0-Off) E3

b5fbf9e5 90 47 00   Note On(0-Off) B3
b5fbfa02 90 43 00   Note On(0-Off) G3

b5fbfa11 90 41 00   Note On(0-Off) F3

b5fbfa30 90 3e 00   Note On(0-Off) D3

b5fbfa33 90 45 00   Note On(0-Off) A3
b5fbfabe 90 41 72   Note On F3 114
b5fbfac2 90 45 6e   Note On A3 110

b5fbfae0 90 3e 70   Note On D3 112
b5fbfbd2 90 3e 00   Note On(0-Off) D3

b5fbfbf9 90 41 00   Note On(0-Off) F3
b5fbfc25 90 45 00   Note On(0-Off) A3
b5fc05b4 90 3e 72   Note On D3 114

b5fc05b7 90 41 72   Note On F3 114

b5fc05b8 90 45 72   Note On A3 114
b5fc06fa 90 3e 00   Note On(0-Off) D3

b5fc0709 90 41 00   Note On(0-Off) F3

b5fc070d 90 45 00   Note On(0-Off) A3
b5fc07ba 90 45 6b   Note On A3 107

b5fc07bb 90 3e 6d   Note On D3 109

b5fc07bc 90 41 6d   Note On F3 109
b5fc08d6 90 3e 00   Note On(0-Off) D3

b5fc0902 90 41 00   Note On(0-Off) F3

b5fc090c 90 45 00   Note On(0-Off) A3
b5fc13b4 90 43 67   Note On G3 103

b5fc13b6 90 46 72   Note On Bb3 114

b5fc13ba 90 3e 62   Note On D3 98
b5fc14a0 90 3e 00   Note On(0-Off) D3

b5fc14b0 90 46 00   Note On(0-Off) Bb3

b5fc14ba 90 43 00   Note On(0-Off) G3
b5fc1584 90 43 6d   Note On G3 109

b5fc1588 90 46 72   Note On Bb3 114

b5fc158b 90 3e 64   Note On D3 100
b5fc16d3 90 43 00   Note On(0-Off) G3

b5fc16d5 90 3e 00   Note On(0-Off) D3

b5fc16f0 90 46 00   Note On(0-Off) Bb3
b5fc176d 90 46 67   Note On Bb3 103

b5fc1772 90 3e 59   Note On D3 89

b5fc1774 90 43 64   Note On G3 100
b5fc184b 90 43 00   Note On(0-Off) G3

b5fc184c 90 46 00   Note On(0-Off) Bb3

b5fc1857 90 3e 00   Note On(0-Off) D3
b5fc18da 90 46 69   Note On Bb3 105

b5fc18e0 90 43 64   Note On G3 100

b5fc18e1 90 3e 5e   Note On D3 94
b5fc1982 90 3e 00   Note On(0-Off) D3

b5fc1984 90 46 00   Note On(0-Off) Bb3

b5fc1986 90 43 00   Note On(0-Off) G3
b5fc1a1e 90 41 64   Note On F3 100

b5fc1a25 90 45 66   Note On A3 102
b5fc1ab7 90 41 00   Note On(0-Off) F3
b5fc1acf 90 45 00   Note On(0-Off) A3
b5fc1b58 90 43 6e   Note On G3 110

b5fc1b5c 90 46 72   Note On Bb3 114

b5fc1b5e 90 3e 56   Note On D3 86

b5fc1b6a 90 47 6b   Note On B3 107
b5fc1bd6 90 47 00   Note On(0-Off) B3
b5fc1bf6 90 46 00   Note On(0-Off) Bb3

b5fc1c4b 90 3e 00   Note On(0-Off) D3
b5fc1c5c 90 43 00   Note On(0-Off) G3
b5fc1d16 90 46 72   Note On Bb3 114

b5fc1d1b 90 43 6b   Note On G3 107

b5fc1d1f 90 3e 5b   Note On D3 91
b5fc1e15 90 43 00   Note On(0-Off) G3

b5fc1e1c 90 46 00   Note On(0-Off) Bb3

b5fc1e24 90 3e 00   Note On(0-Off) D3
b5fc1f85 90 41 64   Note On F3 100

b5fc1f86 90 46 74   Note On Bb3 116

b5fc1f8c 90 4a 60   Note On D4 96

b5fc1f8f 90 48 5f   Note On C4 95

b5fc1fe7 90 41 00   Note On(0-Off) F3
b5fc1ffe 90 48 00   Note On(0-Off) C4

b5fc2006 90 4a 00   Note On(0-Off) D4

b5fc2009 90 46 00   Note On(0-Off) Bb3
b5fc20f8 90 4a 69   Note On D4 105

b5fc20fa 90 41 5b   Note On F3 91

b5fc20ff 90 46 5e   Note On Bb3 94
b5fc2213 90 46 00   Note On(0-Off) Bb3

b5fc221b 90 41 00   Note On(0-Off) F3

b5fc2223 90 4a 00   Note On(0-Off) D4
b5fc24cb 90 3e 6b   Note On D3 107

b5fc24cb 90 41 69   Note On F3 105

b5fc24cb 90 45 67   Note On A3 103
b5fc25c4 90 45 00   Note On(0-Off) A3

b5fc25c4 90 3e 00   Note On(0-Off) D3

b5fc25c5 90 41 00   Note On(0-Off) F3
b5fc2686 90 3e 67   Note On D3 103

b5fc2688 90 41 6b   Note On F3 107

b5fc268a 90 45 69   Note On A3 105
b5fc275c 90 3e 00   Note On(0-Off) D3

b5fc2766 90 41 00   Note On(0-Off) F3
b5fc2775 90 45 00   Note On(0-Off) A3
b5fc28c9 90 3e 66   Note On D3 102

b5fc28ca 90 41 67   Note On F3 103

b5fc28ca 90 45 6b   Note On A3 107
b5fc29c4 90 41 00   Note On(0-Off) F3

b5fc29c4 90 3e 00   Note On(0-Off) D3

b5fc29c4 90 45 00   Note On(0-Off) A3
b5fc2a79 90 45 69   Note On A3 105

b5fc2a84 90 41 69   Note On F3 105
b5fc2bb9 90 45 00   Note On(0-Off) A3
b5fc2bc6 90 41 00   Note On(0-Off) F3
b5fc2c5a 90 41 60   Note On F3 96

b5fc2c5d 90 45 60   Note On A3 96
b5fc2db4 90 45 00   Note On(0-Off) A3

b5fc2db9 90 41 00   Note On(0-Off) F3
b5fc2e4d 90 45 60   Note On A3 96

b5fc2e4f 90 41 5f   Note On F3 95
b5fc2fc9 90 41 00   Note On(0-Off) F3

b5fc2fce 90 45 00   Note On(0-Off) A3
b5fc3053 90 41 40   Note On F3 64

b5fc3055 90 45 56   Note On A3 86
b5fc3129 90 45 00   Note On(0-Off) A3

b5fc313f 90 41 00   Note On(0-Off) F3
b5fc31f3 90 3e 62   Note On D3 98

b5fc320f 90 43 59   Note On G3 89
b5fc321c 90 3a 2c   Note On Bb2 44

b5fc321e 90 2b 42   Note On G1 66
b5fc32ea 90 43 00   Note On(0-Off) G3

b5fc32f7 90 3a 00   Note On(0-Off) Bb2

b5fc32fe 90 3e 00   Note On(0-Off) D3

b5fc330a 90 2b 00   Note On(0-Off) G1
b5fc33de 90 3e 66   Note On D3 102

b5fc33e1 90 43 59   Note On G3 89

b5fc33e4 90 3a 3c   Note On Bb2 60

b5fc33f0 90 2b 47   Note On G1 71
b5fc34c6 90 3a 00   Note On(0-Off) Bb2
b5fc34dd 90 3e 00   Note On(0-Off) D3

b5fc34e0 90 2b 00   Note On(0-Off) G1

b5fc34e1 90 43 00   Note On(0-Off) G3
b5fc35dc 90 2b 45   Note On G1 69

b5fc35de 90 3e 62   Note On D3 98

b5fc35e3 90 43 64   Note On G3 100

b5fc35e7 90 3a 40   Note On Bb2 64
b5fc3694 90 3a 00   Note On(0-Off) Bb2

b5fc369c 90 3e 00   Note On(0-Off) D3

b5fc369e 90 43 00   Note On(0-Off) G3

b5fc36a0 90 2b 00   Note On(0-Off) G1
b5fc3714 90 3e 66   Note On D3 102

b5fc3716 90 43 60   Note On G3 96

b5fc371a 90 3a 47   Note On Bb2 71

b5fc371d 90 2b 59   Note On G1 89
b5fc379b 90 3a 00   Note On(0-Off) Bb2

b5fc379d 90 3e 00   Note On(0-Off) D3

b5fc37a0 90 43 00   Note On(0-Off) G3
b5fc37c4 90 2b 00   Note On(0-Off) G1
b5fc3859 90 39 5e   Note On A2 94

b5fc385e 90 3c 7f   Note On C3 127

b5fc3860 90 41 52   Note On F3 82

b5fc3866 90 29 6b   Note On F1 107
b5fc38b9 90 3c 00   Note On(0-Off) C3

b5fc38cd 90 39 00   Note On(0-Off) A2

b5fc38e9 90 41 00   Note On(0-Off) F3
b5fc38ff 90 29 00   Note On(0-Off) F1
b5fc3979 90 2b 62   Note On G1 98

b5fc3987 90 42 4d   Note On F#3 77

b5fc3994 90 42 00   Note On(0-Off) F#3

b5fc3995 90 3e 64   Note On D3 100

b5fc399a 90 43 64   Note On G3 100

b5fc399e 90 3a 5e   Note On Bb2 94
b5fc3a66 90 43 00   Note On(0-Off) G3

b5fc3a6b 90 2b 00   Note On(0-Off) G1

b5fc3a7f 90 3a 00   Note On(0-Off) Bb2

b5fc3a83 90 3e 00   Note On(0-Off) D3
b5fc3bb5 90 2e 6d   Note On Bb1 109

b5fc3bc4 90 42 59   Note On F#3 89
b5fc3bcf 90 41 69   Note On F3 105

b5fc3be7 90 47 2c   Note On B3 44

b5fc3c10 90 47 00   Note On(0-Off) B3

b5fc3c12 90 42 00   Note On(0-Off) F#3

b5fc3c14 90 41 00   Note On(0-Off) F3
b5fc3c67 90 2e 00   Note On(0-Off) Bb1
b5fc3d57 90 3e 3d   Note On D3 61

b5fc3d5a 90 41 3e   Note On F3 62

b5fc3d61 90 2e 6b   Note On Bb1 107
b5fc3da7 90 41 00   Note On(0-Off) F3
b5fc3dcf 90 3e 00   Note On(0-Off) D3

b5fc3e16 90 2e 00   Note On(0-Off) Bb1
b5fc3f23 90 2e 72   Note On Bb1 114

b5fc3f2b 90 3e 59   Note On D3 89

b5fc3f2d 90 46 6b   Note On Bb3 107

b5fc3f2e 90 41 60   Note On F3 96
b5fc3f8f 90 41 00   Note On(0-Off) F3

b5fc3f96 90 3e 00   Note On(0-Off) D3

b5fc3fa6 90 46 00   Note On(0-Off) Bb3

b5fc3faa 90 2e 00   Note On(0-Off) Bb1
b5fc402d 90 2e 60   Note On Bb1 96

b5fc4050 90 46 69   Note On Bb3 105

b5fc4058 90 41 66   Note On F3 102

b5fc4060 90 3e 59   Note On D3 89
b5fc40ba 90 2e 00   Note On(0-Off) Bb1

b5fc40bb 90 46 00   Note On(0-Off) Bb3

b5fc40c7 90 41 00   Note On(0-Off) F3

b5fc40c8 90 3e 00   Note On(0-Off) D3
b5fc4155 90 41 64   Note On F3 100
b5fc415c 90 3e 6b   Note On D3 107

b5fc415d 90 45 69   Note On A3 105

b5fc416a 90 26 6b   Note On D1 107
b5fc420a 90 3e 00   Note On(0-Off) D3

b5fc420c 90 41 00   Note On(0-Off) F3

b5fc421a 90 45 00   Note On(0-Off) A3
b5fc423a 90 26 00   Note On(0-Off) D1
b5fc430e 90 26 60   Note On D1 96

b5fc4316 90 3e 44   Note On D3 68

b5fc431b 90 41 4d   Note On F3 77

b5fc431c 90 45 59   Note On A3 89
b5fc43b8 90 26 00   Note On(0-Off) D1

b5fc43c4 90 41 00   Note On(0-Off) F3

b5fc43c7 90 3e 00   Note On(0-Off) D3

b5fc43cf 90 45 00   Note On(0-Off) A3
b5fc44eb 90 3e 5e   Note On D3 94

b5fc44f1 90 45 49   Note On A3 73

b5fc44f2 90 41 5b   Note On F3 91

b5fc44f5 90 26 60   Note On D1 96
b5fc4580 90 41 00   Note On(0-Off) F3

b5fc4584 90 3e 00   Note On(0-Off) D3

b5fc4591 90 45 00   Note On(0-Off) A3

b5fc45ab 90 26 00   Note On(0-Off) D1
b5fc4623 90 26 59   Note On D1 89
b5fc4644 90 41 47   Note On F3 71

b5fc4645 90 45 4d   Note On A3 77

b5fc4646 90 3e 45   Note On D3 69
b5fc4700 90 26 00   Note On(0-Off) D1

b5fc4702 90 3e 00   Note On(0-Off) D3

b5fc4705 90 41 00   Note On(0-Off) F3
b5fc470e 90 45 00   Note On(0-Off) A3
b5fc47a1 90 28 74   Note On E1 116

b5fc47a5 90 43 64   Note On G3 100

b5fc47ad 90 40 6b   Note On E3 107
b5fc4811 90 40 00   Note On(0-Off) E3

b5fc4825 90 28 00   Note On(0-Off) E1

b5fc4835 90 43 00   Note On(0-Off) G3
b5fc48dc 90 29 76   Note On F1 118

b5fc48e5 90 45 6b   Note On A3 107

b5fc48e9 90 41 6e   Note On F3 110
b5fc49b4 90 29 00   Note On(0-Off) F1
b5fc49d1 90 45 00   Note On(0-Off) A3

b5fc49ed 90 41 00   Note On(0-Off) F3
b5fc4a98 90 29 69   Note On F1 105
b5fc4a9f 90 45 66   Note On A3 102

b5fc4aa0 90 41 66   Note On F3 102
b5fc4b70 90 41 00   Note On(0-Off) F3

b5fc4b77 90 45 00   Note On(0-Off) A3

b5fc4b84 90 29 00   Note On(0-Off) F1
b5fc506d 90 2b 67   Note On G1 103

b5fc5071 90 43 66   Note On G3 102

b5fc5072 90 3e 5b   Note On D3 91

b5fc5073 90 46 6d   Note On Bb3 109
b5fc56c8 90 43 00   Note On(0-Off) G3
b5fc57d2 90 41 3e   Note On F3 62

b5fc57e4 90 2e 64   Note On Bb1 100

b5fc581a 90 2b 00   Note On(0-Off) G1
b5fc5a97 90 3e 00   Note On(0-Off) D3

b5fc5aa5 90 2e 00   Note On(0-Off) Bb1

b5fc5ab2 90 41 00   Note On(0-Off) F3

b5fc5ad3 90 46 00   Note On(0-Off) Bb3
b5fc66df 90 45 62   Note On A3 98

b5fc66e4 90 41 64   Note On F3 100

b5fc66ef 90 29 6b   Note On F1 107
b5fc67e5 90 29 00   Note On(0-Off) F1

b5fc67fd 90 45 00   Note On(0-Off) A3

b5fc680e 90 41 00   Note On(0-Off) F3
b5fc68d0 90 41 67   Note On F3 103

b5fc68d2 90 45 67   Note On A3 103

b5fc68d5 90 29 64   Note On F1 100
b5fc69c2 90 29 00   Note On(0-Off) F1
b5fc69e3 90 45 00   Note On(0-Off) A3

b5fc69f2 90 41 00   Note On(0-Off) F3
b5fc6e9d 90 43 69   Note On G3 105

b5fc6ea7 90 3e 60   Note On D3 96

b5fc6ea9 90 46 74   Note On Bb3 116

b5fc6eac 90 2b 5e   Note On G1 94
b5fc6f72 90 43 00   Note On(0-Off) G3

b5fc6f81 90 3e 00   Note On(0-Off) D3

b5fc6f8e 90 2b 00   Note On(0-Off) G1

b5fc6f8f 90 46 00   Note On(0-Off) Bb3
b5fc705b 90 3e 67   Note On D3 103

b5fc705e 90 43 70   Note On G3 112

b5fc705f 90 2b 69   Note On G1 105

b5fc7064 90 46 72   Note On Bb3 114
b5fc7160 90 3e 00   Note On(0-Off) D3

b5fc716a 90 43 00   Note On(0-Off) G3

b5fc716f 90 2b 00   Note On(0-Off) G1

b5fc7183 90 46 00   Note On(0-Off) Bb3
b5fc724c 90 2b 69   Note On G1 105

b5fc724f 90 3e 5f   Note On D3 95

b5fc7250 90 43 6b   Note On G3 107

b5fc7251 90 46 70   Note On Bb3 112
b5fc730a 90 3e 00   Note On(0-Off) D3

b5fc7313 90 43 00   Note On(0-Off) G3

b5fc731e 90 46 00   Note On(0-Off) Bb3

b5fc732c 90 2b 00   Note On(0-Off) G1
b5fc73d2 90 46 69   Note On Bb3 105

b5fc73d8 90 2b 6e   Note On G1 110

b5fc73dd 90 43 67   Note On G3 103

b5fc73e0 90 3e 4d   Note On D3 77
b5fc7482 90 3e 00   Note On(0-Off) D3

b5fc7486 90 43 00   Note On(0-Off) G3

b5fc748e 90 46 00   Note On(0-Off) Bb3

b5fc74a6 90 2b 00   Note On(0-Off) G1
b5fc751b 90 29 6e   Note On F1 110

b5fc7520 90 45 6b   Note On A3 107

b5fc7521 90 41 69   Note On F3 105
b5fc7580 90 41 00   Note On(0-Off) F3

b5fc75a4 90 45 00   Note On(0-Off) A3
b5fc75b0 90 29 00   Note On(0-Off) F1
b5fc7629 90 2b 74   Note On G1 116

b5fc7636 90 3e 69   Note On D3 105

b5fc7637 90 43 6e   Note On G3 110

b5fc7638 90 46 79   Note On Bb3 121
b5fc772d 90 3e 00   Note On(0-Off) D3

b5fc772d 90 43 00   Note On(0-Off) G3

b5fc772d 90 2b 00   Note On(0-Off) G1

b5fc7734 90 46 00   Note On(0-Off) Bb3
b5fc7806 90 2b 6d   Note On G1 109
b5fc7810 90 46 70   Note On Bb3 112

b5fc7813 90 3e 64   Note On D3 100

b5fc7814 90 43 6d   Note On G3 109
b5fc7884 90 3e 00   Note On(0-Off) D3

b5fc788f 90 43 00   Note On(0-Off) G3

b5fc78ad 90 2b 00   Note On(0-Off) G1

b5fc78cc 90 46 00   Note On(0-Off) Bb3
b5fc79c1 90 3e 72   Note On D3 114

b5fc79c2 90 2e 74   Note On Bb1 116

b5fc79c8 90 41 72   Note On F3 114

b5fc79cd 90 46 70   Note On Bb3 112
b5fc7ae0 90 3e 00   Note On(0-Off) D3

b5fc7ae2 90 41 00   Note On(0-Off) F3

b5fc7aea 90 2e 00   Note On(0-Off) Bb1

b5fc7af5 90 46 00   Note On(0-Off) Bb3
b5fc7bb9 90 2e 79   Note On Bb1 121

b5fc7bc8 90 3e 69   Note On D3 105

b5fc7bc9 90 41 6b   Note On F3 107

b5fc7bcd 90 46 6e   Note On Bb3 110
b5fc7c3e 90 3e 00   Note On(0-Off) D3

b5fc7c46 90 41 00   Note On(0-Off) F3

b5fc7c4c 90 2e 00   Note On(0-Off) Bb1

b5fc7c67 90 46 00   Note On(0-Off) Bb3
b5fc7cd7 90 2e 72   Note On Bb1 114

b5fc7cd8 90 41 64   Note On F3 100

b5fc7cd8 90 3e 64   Note On D3 100

b5fc7cd8 90 46 6b   Note On Bb3 107
b5fc7d35 90 3e 00   Note On(0-Off) D3

b5fc7d39 90 2e 00   Note On(0-Off) Bb1

b5fc7d3d 90 41 00   Note On(0-Off) F3
b5fc7d46 90 46 00   Note On(0-Off) Bb3
b5fc7de3 90 26 69   Note On D1 105

b5fc7de7 90 45 72   Note On A3 114

b5fc7de8 90 41 70   Note On F3 112

b5fc7dea 90 3e 72   Note On D3 114
b5fc7ec3 90 3e 00   Note On(0-Off) D3

b5fc7ecc 90 41 00   Note On(0-Off) F3

b5fc7ecf 90 26 00   Note On(0-Off) D1
b5fc7ed6 90 45 00   Note On(0-Off) A3
b5fc7f8b 90 45 67   Note On A3 103

b5fc7f8d 90 3e 67   Note On D3 103

b5fc7f8e 90 41 69   Note On F3 105

b5fc7f93 90 26 67   Note On D1 103
b5fc808f 90 41 00   Note On(0-Off) F3

b5fc8096 90 26 00   Note On(0-Off) D1

b5fc8097 90 3e 00   Note On(0-Off) D3

b5fc809c 90 45 00   Note On(0-Off) A3
b5fc816d 90 3e 60   Note On D3 96

b5fc8171 90 41 66   Note On F3 102

b5fc8173 90 26 66   Note On D1 102

b5fc8174 90 45 69   Note On A3 105
b5fc824f 90 26 00   Note On(0-Off) D1

b5fc825e 90 3e 00   Note On(0-Off) D3
b5fc8265 90 41 00   Note On(0-Off) F3

b5fc8268 90 45 00   Note On(0-Off) A3
b5fc82ff 90 26 6b   Note On D1 107

b5fc8307 90 41 6d   Note On F3 109

b5fc8309 90 3e 6b   Note On D3 107

b5fc830b 90 45 6e   Note On A3 110
b5fc83dc 90 26 00   Note On(0-Off) D1

b5fc83e9 90 41 00   Note On(0-Off) F3

b5fc83ea 90 3e 00   Note On(0-Off) D3

b5fc83eb 90 45 00   Note On(0-Off) A3
b5fc8449 90 43 70   Note On G3 112

b5fc844e 90 3e 62   Note On D3 98

b5fc8452 90 28 74   Note On E1 116
b5fc84d8 90 43 00   Note On(0-Off) G3

b5fc84da 90 3e 00   Note On(0-Off) D3

b5fc84e5 90 28 00   Note On(0-Off) E1
b5fc8572 90 29 79   Note On F1 121

b5fc8579 90 43 5e   Note On G3 94

b5fc857a 90 40 67   Note On E3 103

b5fc857e 90 45 5f   Note On A3 95
b5fc85df 90 45 00   Note On(0-Off) A3
b5fc860f 90 40 00   Note On(0-Off) E3

b5fc862b 90 43 00   Note On(0-Off) G3
b5fc865c 90 29 00   Note On(0-Off) F1
b5fc8719 90 41 60   Note On F3 96

b5fc871b 90 40 5f   Note On E3 95

b5fc8720 90 45 44   Note On A3 68

b5fc8721 90 3b 6d   Note On B2 109
b5fc8722 90 29 6e   Note On F1 110

b5fc877f 90 3b 00   Note On(0-Off) B2
b5fc87c5 90 40 00   Note On(0-Off) E3
b5fc8831 90 29 00   Note On(0-Off) F1

b5fc8837 90 41 00   Note On(0-Off) F3

b5fc8844 90 45 00   Note On(0-Off) A3
b5fc88f0 90 29 6b   Note On F1 107

b5fc88fb 90 45 67   Note On A3 103

b5fc88fd 90 41 67   Note On F3 103
b5fc89dd 90 29 00   Note On(0-Off) F1
b5fc8a01 90 45 00   Note On(0-Off) A3

b5fc8a0c 90 41 00   Note On(0-Off) F3
b5fc8b03 90 29 6b   Note On F1 107

b5fc8b12 90 45 66   Note On A3 102

b5fc8b13 90 41 6b   Note On F3 107
b5fc8bd0 90 29 00   Note On(0-Off) F1
b5fc8bf0 90 41 00   Note On(0-Off) F3

b5fc8c0e 90 45 00   Note On(0-Off) A3
b5fc8cbc 90 46 76   Note On Bb3 118

b5fc8cbe 90 43 6b   Note On G3 107

b5fc8ccc 90 3e 5b   Note On D3 91

b5fc8ccd 90 47 64   Note On B3 100

b5fc8cea 90 2b 70   Note On G1 112
b5fc8d21 90 47 00   Note On(0-Off) B3

b5fc8d26 90 46 00   Note On(0-Off) Bb3

b5fc8d65 90 3e 00   Note On(0-Off) D3

b5fc8d6a 90 43 00   Note On(0-Off) G3
b5fc8da7 90 2b 00   Note On(0-Off) G1
b5fc8e92 90 2b 56   Note On G1 86

b5fc8e97 90 3e 6b   Note On D3 107

b5fc8e99 90 43 70   Note On G3 112

b5fc8e9e 90 46 72   Note On Bb3 114
b5fc8f5a 90 2b 00   Note On(0-Off) G1

b5fc8f69 90 3e 00   Note On(0-Off) D3
b5fc8f7a 90 43 00   Note On(0-Off) G3

b5fc8f9e 90 46 00   Note On(0-Off) Bb3
b5fc953a 90 43 6d   Note On G3 109

b5fc9541 90 46 72   Note On Bb3 114

b5fc9544 90 3e 67   Note On D3 103
b5fc9640 90 3e 00   Note On(0-Off) D3

b5fc9647 90 43 00   Note On(0-Off) G3

b5fc966a 90 46 00   Note On(0-Off) Bb3
b5fc9708 90 46 6e   Note On Bb3 110

b5fc970c 90 3e 66   Note On D3 102

b5fc970d 90 43 6d   Note On G3 109
b5fc9869 90 3e 00   Note On(0-Off) D3

b5fc9869 90 46 00   Note On(0-Off) Bb3

b5fc986a 90 43 00   Note On(0-Off) G3
b5fcab2a 90 43 72   Note On G3 114

b5fcab2b 90 46 74   Note On Bb3 116

b5fcab2d 90 2b 6e   Note On G1 110

b5fcab2e 90 3e 70   Note On D3 112
b5fcac0d 90 3e 00   Note On(0-Off) D3

b5fcac12 90 2b 00   Note On(0-Off) G1

b5fcac14 90 43 00   Note On(0-Off) G3
b5fcac1a 90 46 00   Note On(0-Off) Bb3
b5fcacd8 90 3e 64   Note On D3 100

b5fcacd9 90 46 6b   Note On Bb3 107

b5fcacda 90 43 67   Note On G3 103

b5fcace2 90 2b 69   Note On G1 105
b5fcadc5 90 43 00   Note On(0-Off) G3

b5fcadc8 90 2b 00   Note On(0-Off) G1

b5fcadca 90 46 00   Note On(0-Off) Bb3

b5fcadf2 90 3e 00   Note On(0-Off) D3
b5fcaed8 90 3e 67   Note On D3 103

b5fcaed9 90 46 6d   Note On Bb3 109

b5fcaedb 90 2b 67   Note On G1 103
b5fcaedd 90 43 69   Note On G3 105
b5fcaf97 90 43 00   Note On(0-Off) G3

b5fcaf9a 90 2b 00   Note On(0-Off) G1

b5fcaf9e 90 3e 00   Note On(0-Off) D3
b5fcafaa 90 46 00   Note On(0-Off) Bb3
b5fcb039 90 46 6d   Note On Bb3 109

b5fcb03e 90 2b 6d   Note On G1 109

b5fcb040 90 43 6b   Note On G3 107

b5fcb042 90 3e 59   Note On D3 89
b5fcb0cd 90 46 00   Note On(0-Off) Bb3

b5fcb0d5 90 43 00   Note On(0-Off) G3
b5fcb0dd 90 3e 00   Note On(0-Off) D3

b5fcb0f2 90 2b 00   Note On(0-Off) G1
b5fcb174 90 29 70   Note On F1 112

b5fcb183 90 41 4f   Note On F3 79

b5fcb184 90 45 5f   Note On A3 95

b5fcb188 90 43 4d   Note On G3 77

b5fcb196 90 43 00   Note On(0-Off) G3
b5fcb1d0 90 41 00   Note On(0-Off) F3

b5fcb1ec 90 45 00   Note On(0-Off) A3

b5fcb1f9 90 29 00   Note On(0-Off) F1
b5fcb29c 90 46 6b   Note On Bb3 107

b5fcb2a8 90 43 5e   Note On G3 94

b5fcb2ba 90 3e 2c   Note On D3 44

b5fcb2be 90 2e 76   Note On Bb1 118

b5fcb2c2 90 40 25   Note On E3 37
b5fcb319 90 40 00   Note On(0-Off) E3

b5fcb335 90 3e 00   Note On(0-Off) D3
b5fcb343 90 43 00   Note On(0-Off) G3

b5fcb354 90 46 00   Note On(0-Off) Bb3
b5fcb3ad 90 2e 00   Note On(0-Off) Bb1
b5fcb458 90 46 6e   Note On Bb3 110

b5fcb45a 90 3e 60   Note On D3 96

b5fcb45c 90 41 67   Note On F3 103

b5fcb463 90 2e 72   Note On Bb1 114
b5fcb563 90 41 00   Note On(0-Off) F3

b5fcb569 90 2e 00   Note On(0-Off) Bb1

b5fcb571 90 3e 00   Note On(0-Off) D3

b5fcb576 90 46 00   Note On(0-Off) Bb3
b5fcb656 90 3e 62   Note On D3 98

b5fcb657 90 2e 72   Note On Bb1 114

b5fcb658 90 41 69   Note On F3 105

b5fcb65c 90 46 6e   Note On Bb3 110
b5fcb722 90 2e 00   Note On(0-Off) Bb1
b5fcb73a 90 41 00   Note On(0-Off) F3

b5fcb743 90 3e 00   Note On(0-Off) D3

b5fcb754 90 46 00   Note On(0-Off) Bb3
b5fcb814 90 2e 7b   Note On Bb1 123

b5fcb818 90 3e 64   Note On D3 100

b5fcb819 90 46 6d   Note On Bb3 109

b5fcb81d 90 41 60   Note On F3 96
b5fcb898 90 3e 00   Note On(0-Off) D3

b5fcb8a2 90 2e 00   Note On(0-Off) Bb1

b5fcb8bc 90 41 00   Note On(0-Off) F3
b5fcb8d4 90 46 00   Note On(0-Off) Bb3
b5fcb95a 90 3e 6e   Note On D3 110

b5fcb95f 90 41 5e   Note On F3 94

b5fcb963 90 40 64   Note On E3 100

b5fcb968 90 43 5b   Note On G3 91

b5fcb969 90 45 60   Note On A3 96

b5fcb96d 90 26 56   Note On D1 86

b5fcb96f 90 24 72   Note On C1 114
b5fcb9ad 90 40 00   Note On(0-Off) E3

b5fcb9b3 90 26 00   Note On(0-Off) D1

b5fcb9b9 90 43 00   Note On(0-Off) G3

b5fcb9bb 90 41 00   Note On(0-Off) F3

b5fcb9c1 90 3e 00   Note On(0-Off) D3

b5fcb9c6 90 45 00   Note On(0-Off) A3
b5fcb9f9 90 24 00   Note On(0-Off) C1
b5fcba6c 90 41 6e   Note On F3 110

b5fcba6f 90 45 6b   Note On A3 107

b5fcba70 90 3e 6e   Note On D3 110

b5fcba93 90 26 76   Note On D1 118
b5fcbb2f 90 41 00   Note On(0-Off) F3

b5fcbb32 90 3e 00   Note On(0-Off) D3

b5fcbb3b 90 45 00   Note On(0-Off) A3

b5fcbb69 90 26 00   Note On(0-Off) D1
b5fcbc0c 90 26 60   Note On D1 96

b5fcbc1c 90 45 64   Note On A3 100

b5fcbc22 90 41 64   Note On F3 100

b5fcbc23 90 3e 60   Note On D3 96
b5fcbce2 90 3e 00   Note On(0-Off) D3

b5fcbce8 90 41 00   Note On(0-Off) F3

b5fcbcf3 90 26 00   Note On(0-Off) D1

b5fcbd01 90 45 00   Note On(0-Off) A3
b5fcbdf4 90 26 67   Note On D1 103

b5fcbdfe 90 3e 67   Note On D3 103

b5fcbe03 90 41 67   Note On F3 103

b5fcbe06 90 45 6b   Note On A3 107
b5fcbe99 90 41 00   Note On(0-Off) F3

b5fcbe9d 90 3e 00   Note On(0-Off) D3

b5fcbeb1 90 26 00   Note On(0-Off) D1

b5fcbeb4 90 45 00   Note On(0-Off) A3
b5fcbf6a 90 26 67   Note On D1 103

b5fcbf77 90 45 64   Note On A3 100

b5fcbf79 90 41 64   Note On F3 100

b5fcbf7d 90 3e 56   Note On D3 86
b5fcbff7 90 26 00   Note On(0-Off) D1

b5fcc001 90 41 00   Note On(0-Off) F3

b5fcc003 90 45 00   Note On(0-Off) A3

b5fcc008 90 3e 00   Note On(0-Off) D3
b5fcc0a5 90 24 7d   Note On C1 125

b5fcc0a9 90 40 69   Note On E3 105

b5fcc0aa 90 43 69   Note On G3 105
b5fcc10a 90 40 00   Note On(0-Off) E3
b5fcc13c 90 24 00   Note On(0-Off) C1

b5fcc140 90 43 00   Note On(0-Off) G3
b5fcc1ef 90 45 6b   Note On A3 107

b5fcc1f8 90 41 74   Note On F3 116

b5fcc1fb 90 29 6b   Note On F1 107

b5fcc1fe 90 2b 70   Note On G1 112
b5fcc270 90 2b 00   Note On(0-Off) G1

b5fcc293 90 41 00   Note On(0-Off) F3
b5fcc2bf 90 29 00   Note On(0-Off) F1

b5fcc2c3 90 45 00   Note On(0-Off) A3
b5fcc381 90 29 6e   Note On F1 110

b5fcc389 90 45 6b   Note On A3 107

b5fcc38d 90 41 62   Note On F3 98
b5fcc44d 90 29 00   Note On(0-Off) F1

b5fcc46d 90 41 00   Note On(0-Off) F3

b5fcc476 90 45 00   Note On(0-Off) A3
b5fcc576 90 29 6b   Note On F1 107

b5fcc581 90 45 67   Note On A3 103

b5fcc584 90 41 6b   Note On F3 107

b5fcc5b3 90 3c 7f   Note On C3 127
b5fcc648 90 29 00   Note On(0-Off) F1

b5fcc64c 90 3c 00   Note On(0-Off) C3

b5fcc67c 90 45 00   Note On(0-Off) A3

b5fcc67c 90 41 00   Note On(0-Off) F3
b5fcc76a 90 45 67   Note On A3 103

b5fcc76d 90 41 6b   Note On F3 107

b5fcc771 90 29 70   Note On F1 112
b5fcc84a 90 29 00   Note On(0-Off) F1
b5fcc854 90 41 00   Note On(0-Off) F3

b5fcc870 90 45 00   Note On(0-Off) A3
b5fcc952 90 46 6d   Note On Bb3 109

b5fcc953 90 43 6d   Note On G3 109

b5fcc95b 90 3e 62   Note On D3 98

b5fcc966 90 2b 70   Note On G1 112
b5fcca32 90 3e 00   Note On(0-Off) D3

b5fcca40 90 2b 00   Note On(0-Off) G1

b5fcca44 90 43 00   Note On(0-Off) G3
b5fcca52 90 46 00   Note On(0-Off) Bb3
b5fccb4a 90 2b 6b   Note On G1 107

b5fccb4f 90 46 6e   Note On Bb3 110

b5fccb52 90 3e 6b   Note On D3 107

b5fccb54 90 43 6d   Note On G3 109
b5fccc04 90 2b 00   Note On(0-Off) G1

b5fccc05 90 43 00   Note On(0-Off) G3

b5fccc08 90 3e 00   Note On(0-Off) D3

b5fccc1c 90 46 00   Note On(0-Off) Bb3
b5fccd20 90 2b 6d   Note On G1 109

b5fccd2a 90 46 70   Note On Bb3 112

b5fccd2e 90 3e 67   Note On D3 103

b5fccd2f 90 43 6b   Note On G3 107
b5fccdb7 90 43 00   Note On(0-Off) G3

b5fccdb9 90 3e 00   Note On(0-Off) D3

b5fccdc8 90 46 00   Note On(0-Off) Bb3

b5fccdce 90 2b 00   Note On(0-Off) G1
b5fcce7b 90 46 69   Note On Bb3 105

b5fcce80 90 2b 6e   Note On G1 110

b5fcce82 90 3e 67   Note On D3 103

b5fcce86 90 43 67   Note On G3 103
b5fccf0f 90 43 00   Note On(0-Off) G3

b5fccf1a 90 3e 00   Note On(0-Off) D3

b5fccf1e 90 46 00   Note On(0-Off) Bb3

b5fccf34 90 2b 00   Note On(0-Off) G1
b5fccfc7 90 29 62   Note On F1 98

b5fccfcd 90 45 69   Note On A3 105

b5fccfd2 90 41 60   Note On F3 96
b5fcd027 90 41 00   Note On(0-Off) F3
b5fcd048 90 45 00   Note On(0-Off) A3

b5fcd068 90 29 00   Note On(0-Off) F1
b5fcd0d2 90 2b 6b   Note On G1 107

b5fcd0d7 90 46 74   Note On Bb3 116

b5fcd0da 90 43 6d   Note On G3 109

b5fcd0dc 90 3e 6b   Note On D3 107
b5fcd19e 90 2b 00   Note On(0-Off) G1

b5fcd1bb 90 3e 00   Note On(0-Off) D3

b5fcd1cc 90 43 00   Note On(0-Off) G3
b5fcd1dc 90 46 00   Note On(0-Off) Bb3
b5fcd2d1 90 46 6b   Note On Bb3 107

b5fcd2d3 90 2e 72   Note On Bb1 114

b5fcd2d3 90 43 6e   Note On G3 110

b5fcd2d8 90 3e 45   Note On D3 69
b5fcd361 90 43 00   Note On(0-Off) G3
b5fcd3a2 90 3e 00   Note On(0-Off) D3

b5fcd3c2 90 2e 00   Note On(0-Off) Bb1
b5fcd3ca 90 46 00   Note On(0-Off) Bb3
b5fcd4a6 90 2e 72   Note On Bb1 114

b5fcd4ac 90 46 6d   Note On Bb3 109

b5fcd4ae 90 3e 67   Note On D3 103

b5fcd4b2 90 41 6b   Note On F3 107
b5fcd553 90 2e 00   Note On(0-Off) Bb1

b5fcd559 90 41 00   Note On(0-Off) F3

b5fcd55d 90 3e 00   Note On(0-Off) D3

b5fcd576 90 46 00   Note On(0-Off) Bb3
b5fcd651 90 2e 76   Note On Bb1 118

b5fcd661 90 3e 64   Note On D3 100

b5fcd665 90 41 69   Note On F3 105

b5fcd666 90 46 6e   Note On Bb3 110
b5fcd6c5 90 41 00   Note On(0-Off) F3

b5fcd6c8 90 3e 00   Note On(0-Off) D3

b5fcd6cf 90 2e 00   Note On(0-Off) Bb1

b5fcd6e2 90 46 00   Note On(0-Off) Bb3
b5fcd766 90 2e 6b   Note On Bb1 107

b5fcd77a 90 46 6b   Note On Bb3 107
b5fcd781 90 41 64   Note On F3 100

b5fcd782 90 3e 62   Note On D3 98

b5fcd7dd 90 41 00   Note On(0-Off) F3

b5fcd7e1 90 2e 00   Note On(0-Off) Bb1

b5fcd7e4 90 3e 00   Note On(0-Off) D3
b5fcd7f1 90 46 00   Note On(0-Off) Bb3
b5fcd883 90 41 6b   Note On F3 107

b5fcd88a 90 3e 6b   Note On D3 107

b5fcd88f 90 26 67   Note On D1 103

b5fcd894 90 45 4b   Note On A3 75

b5fcd89c 90 47 4b   Note On B3 75
b5fcd8ea 90 3e 00   Note On(0-Off) D3

b5fcd8f3 90 47 00   Note On(0-Off) B3

b5fcd8f8 90 41 00   Note On(0-Off) F3

b5fcd900 90 45 00   Note On(0-Off) A3
b5fcd938 90 26 00   Note On(0-Off) D1
b5fcda0a 90 4a 64   Note On D4 100

b5fcda0d 90 41 60   Note On F3 96

b5fcda0f 90 45 66   Note On A3 102

b5fcda15 90 26 66   Note On D1 102
b5fcdaea 90 26 00   Note On(0-Off) D1

b5fcdb02 90 45 00   Note On(0-Off) A3
b5fcdb19 90 4a 00   Note On(0-Off) D4

b5fcdb1b 90 41 00   Note On(0-Off) F3
b5fcdc28 90 4a 66   Note On D4 102

b5fcdc2a 90 26 67   Note On D1 103

b5fcdc2b 90 41 67   Note On F3 103

b5fcdc2d 90 45 6d   Note On A3 109
b5fcdcf8 90 26 00   Note On(0-Off) D1
b5fcdd19 90 45 00   Note On(0-Off) A3

b5fcdd21 90 41 00   Note On(0-Off) F3

b5fcdd23 90 4a 00   Note On(0-Off) D4
b5fcde21 90 26 6b   Note On D1 107

b5fcde2d 90 41 5b   Note On F3 91

b5fcde2f 90 4a 6b   Note On D4 107

b5fcde30 90 45 67   Note On A3 103
b5fcdec2 90 41 00   Note On(0-Off) F3

b5fcdec5 90 45 00   Note On(0-Off) A3

b5fcdeca 90 26 00   Note On(0-Off) D1

b5fcdece 90 4a 00   Note On(0-Off) D4
b5fcdf67 90 26 70   Note On D1 112

b5fcdf72 90 45 5e   Note On A3 94

b5fcdf73 90 4a 67   Note On D4 103

b5fcdfbf 90 45 00   Note On(0-Off) A3
b5fcdfd5 90 26 00   Note On(0-Off) D1

b5fcdfd6 90 4a 00   Note On(0-Off) D4
b5fce080 90 29 74   Note On F1 116
b5fce092 90 43 40   Note On G3 64

b5fce094 90 4d 74   Note On F4 116

b5fce099 90 4a 6b   Note On D4 107

b5fce09b 90 48 64   Note On C4 100

b5fce09f 90 45 3e   Note On A3 62

b5fce0a5 90 4c 62   Note On E4 98

b5fce0bb 90 4c 00   Note On(0-Off) E4

b5fce0e3 90 45 00   Note On(0-Off) A3

b5fce0f1 90 4a 00   Note On(0-Off) D4

b5fce0f6 90 48 00   Note On(0-Off) C4
b5fce0f9 90 4d 00   Note On(0-Off) F4

b5fce120 90 43 00   Note On(0-Off) G3
b5fce18b 90 29 00   Note On(0-Off) F1
b5fce20e 90 48 6b   Note On C4 107

b5fce210 90 45 5f   Note On A3 95

b5fce212 90 4d 6d   Note On F4 109

b5fce213 90 29 62   Note On F1 98
b5fce2d9 90 4d 00   Note On(0-Off) F4

b5fce2de 90 29 00   Note On(0-Off) F1
b5fce2f4 90 48 00   Note On(0-Off) C4

b5fce303 90 45 00   Note On(0-Off) A3
b5fce3be 90 29 6b   Note On F1 107

b5fce3c5 90 4d 6b   Note On F4 107

b5fce3c8 90 45 5e   Note On A3 94

b5fce3c9 90 48 66   Note On C4 102
b5fce48e 90 48 00   Note On(0-Off) C4

b5fce496 90 29 00   Note On(0-Off) F1

b5fce497 90 45 00   Note On(0-Off) A3

b5fce499 90 4d 00   Note On(0-Off) F4
b5fce55f 90 29 6b   Note On F1 107

b5fce564 90 4d 6d   Note On F4 109

b5fce565 90 48 6b   Note On C4 107

b5fce568 90 45 64   Note On A3 100
b5fce5e6 90 48 00   Note On(0-Off) C4

b5fce5e7 90 45 00   Note On(0-Off) A3

b5fce5ee 90 4d 00   Note On(0-Off) F4

b5fce5f2 90 29 00   Note On(0-Off) F1
b5fce677 90 29 5f   Note On F1 95
b5fce68d 90 48 69   Note On C4 105

b5fce68f 90 45 5f   Note On A3 95

b5fce693 90 4d 69   Note On F4 105
b5fce6f6 90 48 00   Note On(0-Off) C4

b5fce700 90 45 00   Note On(0-Off) A3

b5fce701 90 4d 00   Note On(0-Off) F4

b5fce702 90 29 00   Note On(0-Off) F1
b5fce7e8 90 4a 67   Note On D4 103

b5fce7e8 90 41 56   Note On F3 86

b5fce7e9 90 46 67   Note On Bb3 103
b5fce831 90 46 00   Note On(0-Off) Bb3

b5fce838 90 41 00   Note On(0-Off) F3

b5fce84a 90 4a 00   Note On(0-Off) D4
b5fce948 90 2b 67   Note On G1 103

b5fce94f 90 46 6d   Note On Bb3 109

b5fce952 90 43 40   Note On G3 64

b5fce95b 90 4a 40   Note On D4 64
b5fcea0e 90 46 00   Note On(0-Off) Bb3

b5fcea0f 90 4a 00   Note On(0-Off) D4

b5fcea12 90 43 00   Note On(0-Off) G3

b5fcea34 90 2b 00   Note On(0-Off) G1
b5fceb39 90 46 72   Note On Bb3 114

b5fceb3b 90 43 5f   Note On G3 95

b5fceb3d 90 4a 66   Note On D4 102

b5fceb4a 90 2b 6b   Note On G1 107
b5fcebb4 90 4a 00   Note On(0-Off) D4

b5fcebb6 90 46 00   Note On(0-Off) Bb3

b5fcebca 90 43 00   Note On(0-Off) G3
b5fcebf1 90 2b 00   Note On(0-Off) G1
b5fced06 90 46 6d   Note On Bb3 109

b5fced06 90 2b 72   Note On G1 114

b5fced08 90 43 60   Note On G3 96

b5fced0a 90 4a 6e   Note On D4 110
b5fced82 90 46 00   Note On(0-Off) Bb3
b5fced91 90 43 00   Note On(0-Off) G3

b5fced92 90 4a 00   Note On(0-Off) D4

b5fced9e 90 2b 00   Note On(0-Off) G1
b5fcee06 90 2b 60   Note On G1 96

b5fcee17 90 4a 66   Note On D4 102

b5fcee1b 90 43 45   Note On G3 69

b5fcee1c 90 46 60   Note On Bb3 96
b5fcee7c 90 4a 00   Note On(0-Off) D4

b5fcee7d 90 43 00   Note On(0-Off) G3

b5fcee80 90 46 00   Note On(0-Off) Bb3

b5fcee83 90 2b 00   Note On(0-Off) G1
b5fd0a4c 90 46 67   Note On Bb3 103

b5fd0a4f 90 43 60   Note On G3 96

b5fd0a58 90 3e 4f   Note On D3 79

b5fd0a5e 90 2b 5f   Note On G1 95
b5fd0b48 90 43 00   Note On(0-Off) G3
b5fd0b59 90 3e 00   Note On(0-Off) D3

b5fd0b6a 90 2b 00   Note On(0-Off) G1

b5fd0b79 90 46 00   Note On(0-Off) Bb3
b5fd0c00 90 3e 64   Note On D3 100

b5fd0c06 90 43 67   Note On G3 103

b5fd0c10 90 46 5e   Note On Bb3 94

b5fd0c10 90 2b 60   Note On G1 96
b5fd0d3d 90 3e 00   Note On(0-Off) D3

b5fd0d3e 90 43 00   Note On(0-Off) G3

b5fd0d3e 90 46 00   Note On(0-Off) Bb3

b5fd0d3e 90 2b 00   Note On(0-Off) G1
b5fd0fdf 90 4a 72   Note On D4 114

b5fd0fe1 90 43 69   Note On G3 105

b5fd0fe1 90 46 70   Note On Bb3 112

b5fd0fe1 90 2b 66   Note On G1 102
b5fd10c2 90 2b 00   Note On(0-Off) G1

b5fd10c2 90 43 00   Note On(0-Off) G3

b5fd10c2 90 4a 00   Note On(0-Off) D4

b5fd10e6 90 46 00   Note On(0-Off) Bb3
b5fd122e 90 46 6e   Note On Bb3 110

b5fd122f 90 43 4b   Note On G3 75

b5fd122f 90 2b 4b   Note On G1 75

b5fd122f 90 4a 6e   Note On D4 110
b5fd1280 90 2b 00   Note On(0-Off) G1

b5fd1292 90 4a 00   Note On(0-Off) D4

b5fd12a8 90 43 00   Note On(0-Off) G3
b5fd12b8 90 46 00   Note On(0-Off) Bb3
b5fd13f9 90 46 70   Note On Bb3 112

b5fd13f9 90 43 5b   Note On G3 91

b5fd13f9 90 4a 6d   Note On D4 109

b5fd13f9 90 2b 4b   Note On G1 75
b5fd1449 90 4a 00   Note On(0-Off) D4

b5fd144c 90 46 00   Note On(0-Off) Bb3

b5fd144c 90 2b 00   Note On(0-Off) G1

b5fd144c 90 43 00   Note On(0-Off) G3
b5fd14f6 90 2b 64   Note On G1 100

b5fd1500 90 46 6e   Note On Bb3 110

b5fd1503 90 43 5b   Note On G3 91

b5fd150b 90 4a 6e   Note On D4 110
b5fd1592 90 2b 00   Note On(0-Off) G1

b5fd1595 90 43 00   Note On(0-Off) G3

b5fd159a 90 46 00   Note On(0-Off) Bb3

b5fd159b 90 4a 00   Note On(0-Off) D4
b5fd165b 90 29 62   Note On F1 98

b5fd165c 90 48 6b   Note On C4 107

b5fd165f 90 41 5f   Note On F3 95

b5fd1660 90 45 67   Note On A3 103
b5fd16c8 90 45 00   Note On(0-Off) A3

b5fd16d4 90 41 00   Note On(0-Off) F3
b5fd16fa 90 29 00   Note On(0-Off) F1

b5fd16fb 90 48 00   Note On(0-Off) C4
b5fd180c 90 41 5f   Note On F3 95
b5fd180e 90 4a 6d   Note On D4 109

b5fd180e 90 46 72   Note On Bb3 114

b5fd182b 90 2e 74   Note On Bb1 116
b5fd18e4 90 41 00   Note On(0-Off) F3

b5fd1902 90 46 00   Note On(0-Off) Bb3

b5fd1904 90 4a 00   Note On(0-Off) D4
b5fd1947 90 2e 00   Note On(0-Off) Bb1
b5fd19fb 90 2e 70   Note On Bb1 112

b5fd19ff 90 41 60   Note On F3 96

b5fd19ff 90 46 70   Note On Bb3 112

b5fd1a00 90 4a 6d   Note On D4 109
b5fd1ab4 90 41 00   Note On(0-Off) F3

b5fd1ac6 90 4a 00   Note On(0-Off) D4
b5fd1ada 90 46 00   Note On(0-Off) Bb3

b5fd1b04 90 2e 00   Note On(0-Off) Bb1
b5fd1bcf 90 2e 67   Note On Bb1 103

b5fd1be9 90 46 70   Note On Bb3 112

b5fd1beb 90 41 4d   Note On F3 77

b5fd1bec 90 4a 6b   Note On D4 107
b5fd1c76 90 41 00   Note On(0-Off) F3

b5fd1c78 90 2e 00   Note On(0-Off) Bb1

b5fd1c7c 90 46 00   Note On(0-Off) Bb3

b5fd1c7e 90 4a 00   Note On(0-Off) D4
b5fd1d62 90 2e 72   Note On Bb1 114

b5fd1d84 90 46 70   Note On Bb3 112

b5fd1d8d 90 4a 6b   Note On D4 107

b5fd1d8e 90 41 64   Note On F3 100
b5fd1df1 90 2e 00   Note On(0-Off) Bb1
b5fd1dfc 90 41 00   Note On(0-Off) F3

b5fd1dfe 90 4a 00   Note On(0-Off) D4

b5fd1dff 90 46 00   Note On(0-Off) Bb3
b5fd1e97 90 2e 64   Note On Bb1 100
b5fd1eed 90 46 6b   Note On Bb3 107

b5fd1eed 90 4a 69   Note On D4 105

b5fd1eed 90 41 4f   Note On F3 79

b5fd1f16 90 2e 00   Note On(0-Off) Bb1

b5fd1f28 90 41 00   Note On(0-Off) F3

b5fd1f2a 90 46 00   Note On(0-Off) Bb3
b5fd1f44 90 4a 00   Note On(0-Off) D4
b5fd2001 90 45 69   Note On A3 105

b5fd2006 90 48 6d   Note On C4 109

b5fd2007 90 26 6b   Note On D1 107

b5fd200d 90 4d 72   Note On F4 114
b5fd20cd 90 45 00   Note On(0-Off) A3

b5fd20d0 90 48 00   Note On(0-Off) C4

b5fd20d8 90 26 00   Note On(0-Off) D1

b5fd20f0 90 4d 00   Note On(0-Off) F4
b5fd21a3 90 4a 64   Note On D4 100

b5fd21a7 90 45 4b   Note On A3 75

b5fd21a8 90 4d 6b   Note On F4 107

b5fd21b3 90 26 66   Note On D1 102
b5fd227c 90 4a 00   Note On(0-Off) D4

b5fd2280 90 45 00   Note On(0-Off) A3

b5fd2280 90 4d 00   Note On(0-Off) F4

b5fd228a 90 26 00   Note On(0-Off) D1
b5fd238a 90 26 67   Note On D1 103

b5fd2396 90 45 5f   Note On A3 95

b5fd2398 90 4d 6b   Note On F4 107

b5fd239c 90 4a 6d   Note On D4 109
b5fd2422 90 45 00   Note On(0-Off) A3

b5fd2423 90 4a 00   Note On(0-Off) D4

b5fd2432 90 4d 00   Note On(0-Off) F4

b5fd2434 90 26 00   Note On(0-Off) D1
b5fd2538 90 26 69   Note On D1 105

b5fd253d 90 4d 6b   Note On F4 107

b5fd2542 90 4a 6d   Note On D4 109

b5fd2543 90 45 56   Note On A3 86
b5fd25c6 90 26 00   Note On(0-Off) D1

b5fd25d2 90 45 00   Note On(0-Off) A3

b5fd25d8 90 4a 00   Note On(0-Off) D4

b5fd25da 90 4d 00   Note On(0-Off) F4
b5fd2682 90 24 7d   Note On C1 125

b5fd268c 90 48 5b   Note On C4 91

b5fd268d 90 45 4d   Note On A3 77

b5fd269a 90 4d 67   Note On F4 103
b5fd26f8 90 48 00   Note On(0-Off) C4

b5fd2703 90 45 00   Note On(0-Off) A3

b5fd270c 90 4d 00   Note On(0-Off) F4
b5fd271b 90 24 00   Note On(0-Off) C1
b5fd27f2 90 2b 76   Note On G1 118

b5fd27fb 90 48 67   Note On C4 103

b5fd27ff 90 45 60   Note On A3 96

b5fd2803 90 47 5b   Note On B3 91

b5fd280c 90 47 00   Note On(0-Off) B3

b5fd280f 90 4d 66   Note On F4 102
b5fd286f 90 48 00   Note On(0-Off) C4

b5fd2874 90 45 00   Note On(0-Off) A3

b5fd2885 90 4d 00   Note On(0-Off) F4
b5fd28af 90 2b 00   Note On(0-Off) G1
b5fd29ad 90 29 5e   Note On F1 94
b5fd2a62 90 48 56   Note On C4 86

b5fd2a63 90 47 5e   Note On B3 94

b5fd2a64 90 29 00   Note On(0-Off) F1

b5fd2a66 90 4d 52   Note On F4 82
b5fd2ac0 90 29 6d   Note On F1 109

b5fd2ae7 90 47 00   Note On(0-Off) B3

b5fd2ae9 90 48 00   Note On(0-Off) C4
b5fd2b20 90 4d 00   Note On(0-Off) F4

b5fd2b62 90 29 00   Note On(0-Off) F1
b5fd2bee 90 45 52   Note On A3 82

b5fd2bef 90 4d 64   Note On F4 100

b5fd2bf2 90 29 60   Note On F1 96

b5fd2bf3 90 48 5f   Note On C4 95
b5fd2cb4 90 4d 00   Note On(0-Off) F4

b5fd2cb5 90 29 00   Note On(0-Off) F1

b5fd2cb6 90 48 00   Note On(0-Off) C4

b5fd2cbd 90 45 00   Note On(0-Off) A3
b5fd2d99 90 29 64   Note On F1 100

b5fd2db0 90 4d 66   Note On F4 102

b5fd2db3 90 45 5e   Note On A3 94

b5fd2db7 90 48 64   Note On C4 100
b5fd2e37 90 29 00   Note On(0-Off) F1

b5fd2e59 90 45 00   Note On(0-Off) A3

b5fd2e5c 90 48 00   Note On(0-Off) C4

b5fd2e70 90 4d 00   Note On(0-Off) F4
b5fd5a81 90 32 6e   Note On D2 110
b5fd5b8c 90 35 72   Note On F2 114

b5fd5b9c 90 32 00   Note On(0-Off) D2
b5fd5c8a 90 32 67   Note On D2 103

b5fd5ca4 90 35 00   Note On(0-Off) F2
b5fd5d97 90 33 72   Note On Eb2 114

b5fd5db1 90 32 00   Note On(0-Off) D2
b5fd5f48 90 33 00   Note On(0-Off) Eb2
b5fd613b 90 3e 6b   Note On D3 107
b5fd61d7 90 3e 00   Note On(0-Off) D3
b5fd6252 90 41 74   Note On F3 116
b5fd633b 90 41 00   Note On(0-Off) F3

b5fd635f 90 3e 72   Note On D3 114
b5fd63f2 90 3e 00   Note On(0-Off) D3
b5fd6488 90 41 70   Note On F3 112
b5fd6657 90 41 00   Note On(0-Off) F3

b5fd6661 90 3e 66   Note On D3 102
b5fd6764 90 3e 00   Note On(0-Off) D3
b5fd69af 90 3e 72   Note On D3 114
b5fd6a92 90 3e 00   Note On(0-Off) D3
b5fd6ae3 90 3f 79   Note On Eb3 121
b5fd6c86 90 3f 00   Note On(0-Off) Eb3
b5fd76a8 90 41 6b   Note On F3 107
b5fd77fd 90 41 00   Note On(0-Off) F3
b5fd7a94 90 3e 69   Note On D3 105
b5fd7ba4 90 3e 00   Note On(0-Off) D3

b5fd7ba9 90 41 62   Note On F3 98
b5fd7c9f 90 41 00   Note On(0-Off) F3

b5fd7cc1 90 3e 62   Note On D3 98
b5fd7d92 90 3e 00   Note On(0-Off) D3
b5fd7f98 90 3e 3e   Note On D3 62
b5fd801f 90 3e 00   Note On(0-Off) D3
b5fd808c 90 3e 52   Note On D3 82
b5fd8112 90 3e 00   Note On(0-Off) D3
b5fd81fa 90 3e 60   Note On D3 96
b5fd8361 90 3e 00   Note On(0-Off) D3

b5fd8361 90 3f 76   Note On Eb3 118
b5fd84d4 90 3f 00   Note On(0-Off) Eb3
b5fd8c4d 90 3e 6b   Note On D3 107

b5fd8c52 90 3c 7f   Note On C3 127
b5fd8cf6 90 3c 00   Note On(0-Off) C3
b5fd8d2b 90 3e 00   Note On(0-Off) D3
b5fd8f74 90 3e 64   Note On D3 100
b5fd909c 90 3e 00   Note On(0-Off) D3
b5fd92a9 90 3e 67   Note On D3 103
b5fd934f 90 3e 00   Note On(0-Off) D3
b5fd93be 90 3e 74   Note On D3 116
b5fd9522 90 3e 00   Note On(0-Off) D3
b5fd9a48 90 4a 6e   Note On D4 110
b5fd9b80 90 48 67   Note On C4 103

b5fd9b86 90 4a 00   Note On(0-Off) D4
b5fda4c2 90 48 00   Note On(0-Off) C4
b5fda5fa 90 2b 6e   Note On G1 110
b5fdaa68 90 4a 6d   Note On D4 109
b5fdab82 90 4a 00   Note On(0-Off) D4

b5fdab92 90 4d 7b   Note On F4 123
b5fdaca8 90 4d 00   Note On(0-Off) F4

b5fdacad 90 4a 64   Note On D4 100
b5fdadd3 90 4a 00   Note On(0-Off) D4

b5fdadda 90 4d 76   Note On F4 118
b5fdaf04 90 2e 56   Note On Bb1 86

b5fdaf19 90 2b 00   Note On(0-Off) G1
b5fdb09f 90 4a 6b   Note On D4 107

b5fdb0a1 90 4d 00   Note On(0-Off) F4
b5fdb171 90 4a 00   Note On(0-Off) D4
b5fdb5c5 90 4a 5f   Note On D4 95
b5fdb6d4 90 4d 72   Note On F4 114

b5fdb6e2 90 4a 00   Note On(0-Off) D4
b5fdb7f0 90 2e 00   Note On(0-Off) Bb1
b5fdb7fa 90 24 7b   Note On C1 123
b5fdb97c 90 4a 66   Note On D4 102
b5fdb999 90 4d 00   Note On(0-Off) F4
b5fdba46 90 24 00   Note On(0-Off) C1
b5fdba85 90 4a 00   Note On(0-Off) D4
b5fdbc16 90 26 5f   Note On D1 95

b5fdbc36 90 4a 70   Note On D4 112
b5fdbdf5 90 4a 00   Note On(0-Off) D4
b5fdc01a 90 4a 6e   Note On D4 110
b5fdc13a 90 48 67   Note On C4 103

b5fdc148 90 4a 00   Note On(0-Off) D4
b5fdc254 90 29 69   Note On F1 105
b5fdc265 90 26 00   Note On(0-Off) D1
b5fdcaec 90 48 00   Note On(0-Off) C4
b5fdcca0 90 4a 6b   Note On D4 107
b5fdcf76 90 4a 00   Note On(0-Off) D4
b5fdd02d 90 2b 5f   Note On G1 95
b5fdd04b 90 29 00   Note On(0-Off) F1
b5fdd512 90 4a 6d   Note On D4 109
b5fdd645 90 4d 7b   Note On F4 123

b5fdd652 90 4a 00   Note On(0-Off) D4
b5fdd736 90 4d 00   Note On(0-Off) F4

b5fdd745 90 4a 67   Note On D4 103
b5fdd885 90 4d 76   Note On F4 118
b5fdd8bd 90 4a 00   Note On(0-Off) D4
b5fdda01 90 2e 40   Note On Bb1 64

b5fdda24 90 2b 00   Note On(0-Off) G1
b5fddaf2 90 4a 6b   Note On D4 107

b5fddb02 90 4d 00   Note On(0-Off) F4
b5fddbf5 90 4a 00   Note On(0-Off) D4
b5fde0c8 90 4a 72   Note On D4 114
b5fde213 90 4d 76   Note On F4 118

b5fde21c 90 4a 00   Note On(0-Off) D4
b5fde32d 90 2e 00   Note On(0-Off) Bb1

b5fde351 90 26 6b   Note On D1 107
b5fde493 90 4a 6d   Note On D4 109

b5fde4a6 90 4d 00   Note On(0-Off) F4
b5fde5a7 90 4a 00   Note On(0-Off) D4
b5fde943 90 4a 74   Note On D4 116
b5fdeaab 90 48 67   Note On C4 103

b5fdeab9 90 4a 00   Note On(0-Off) D4
b5fdebc1 90 29 6d   Note On F1 109

b5fdebc7 90 26 00   Note On(0-Off) D1
b5fdf441 90 48 00   Note On(0-Off) C4
b5fdf59e 90 2b 69   Note On G1 105

b5fdf5c9 90 29 00   Note On(0-Off) F1
b5fdfb30 90 4a 76   Note On D4 118
b5fdfc0c 90 4d 6e   Note On F4 110

b5fdfc0c 90 4a 00   Note On(0-Off) D4
b5fdfcd1 90 4d 00   Note On(0-Off) F4

b5fdfcdd 90 4a 64   Note On D4 100
b5fdff4c 90 2e 62   Note On Bb1 98

b5fdff7a 90 2b 00   Note On(0-Off) G1
b5fe0117 90 4d 72   Note On F4 114

b5fe0146 90 4a 00   Note On(0-Off) D4
b5fe01d1 90 4d 00   Note On(0-Off) F4
b5fe0479 90 4a 6b   Note On D4 107
b5fe0590 90 4d 67   Note On F4 103

b5fe05b3 90 4a 00   Note On(0-Off) D4
b5fe0694 90 4d 00   Note On(0-Off) F4
b5fe069a 90 4a 62   Note On D4 98
b5fe0811 90 4a 00   Note On(0-Off) D4

b5fe0825 90 4d 64   Note On F4 100
b5fe08dc 90 4d 00   Note On(0-Off) F4

b5fe08df 90 4a 3f   Note On D4 63
b5fe0a75 90 4d 72   Note On F4 114

b5fe0a9d 90 4a 00   Note On(0-Off) D4
b5fe0aa8 90 26 64   Note On D1 100

b5fe0abe 90 2e 00   Note On(0-Off) Bb1
b5fe0c35 90 4a 66   Note On D4 102
b5fe0c53 90 4d 00   Note On(0-Off) F4
b5fe0d32 90 4a 00   Note On(0-Off) D4
b5fe109a 90 4a 6b   Note On D4 107
b5fe1201 90 48 64   Note On C4 100

b5fe1216 90 4a 00   Note On(0-Off) D4
b5fe131c 90 29 67   Note On F1 103

b5fe1347 90 26 00   Note On(0-Off) D1
b5fe1c36 90 29 00   Note On(0-Off) F1
b5fe1c89 90 48 00   Note On(0-Off) C4
b6021b2c 90 2b 3e   Note On G1 62

b6021b2c 90 46 4d   Note On Bb3 77

b6021b2c 90 3e 40   Note On D3 64

b6021b2c 90 43 52   Note On G3 82
b6021be7 90 2b 00   Note On(0-Off) G1

b6021be7 90 43 00   Note On(0-Off) G3

b6021be8 90 3e 00   Note On(0-Off) D3

b6021c10 90 46 00   Note On(0-Off) Bb3
b6021cad 90 2b 4f   Note On G1 79

b6021cb4 90 3e 4b   Note On D3 75

b6021ccb 90 46 52   Note On Bb3 82

b6021ccd 90 43 5e   Note On G3 94
b6021d8e 90 43 00   Note On(0-Off) G3

b6021d8e 90 3e 00   Note On(0-Off) D3

b6021d8e 90 2b 00   Note On(0-Off) G1

b6021d8e 90 46 00   Note On(0-Off) Bb3
b6021e46 90 2b 59   Note On G1 89

b6021e49 90 3e 3e   Note On D3 62

b6021e51 90 46 40   Note On Bb3 64

b6021e52 90 43 4b   Note On G3 75
b6021f26 90 43 00   Note On(0-Off) G3
b6021f2b 90 3e 00   Note On(0-Off) D3

b6021f38 90 2b 00   Note On(0-Off) G1

b6021f40 90 46 00   Note On(0-Off) Bb3
b60226d5 90 43 5f   Note On G3 95

b60226d8 90 3e 4f   Note On D3 79

b60226d9 90 2b 47   Note On G1 71

b60226de 90 46 60   Note On Bb3 96
b60227a9 90 43 00   Note On(0-Off) G3

b60227b7 90 3e 00   Note On(0-Off) D3

b60227c5 90 46 00   Note On(0-Off) Bb3

b60227ce 90 2b 00   Note On(0-Off) G1
b6022d34 90 43 60   Note On G3 96

b6022d37 90 3e 40   Note On D3 64

b6022d3b 90 46 62   Note On Bb3 98
b6022d5f 90 2b 4b   Note On G1 75
b6022e08 90 3e 00   Note On(0-Off) D3

b6022e18 90 43 00   Note On(0-Off) G3

b6022e21 90 2b 00   Note On(0-Off) G1
b6022e55 90 46 00   Note On(0-Off) Bb3
b6023301 90 46 3e   Note On Bb3 62

b6023304 90 3e 3c   Note On D3 60

b6023305 90 2b 4f   Note On G1 79

b6023309 90 43 2c   Note On G3 44
b60233ff 90 3e 00   Note On(0-Off) D3

b6023401 90 43 00   Note On(0-Off) G3

b6023413 90 2b 00   Note On(0-Off) G1

b6023416 90 46 00   Note On(0-Off) Bb3
b602350e 90 46 3c   Note On Bb3 60

b6023518 90 43 52   Note On G3 82

b602351c 90 3e 3f   Note On D3 63

b602351f 90 2b 4d   Note On G1 77
b6023589 90 3e 00   Note On(0-Off) D3

b602358d 90 43 00   Note On(0-Off) G3
b60235cd 90 2b 00   Note On(0-Off) G1

b60235ce 90 46 00   Note On(0-Off) Bb3
b6023cc9 90 2b 52   Note On G1 82

b6023ccf 90 43 62   Note On G3 98

b6023cd1 90 3e 4d   Note On D3 77

b6023cd4 90 46 64   Note On Bb3 100
b6023d95 90 2b 00   Note On(0-Off) G1

b6023db6 90 3e 00   Note On(0-Off) D3

b6023dbc 90 43 00   Note On(0-Off) G3

b6023dc5 90 46 00   Note On(0-Off) Bb3
b6023e60 90 46 40   Note On Bb3 64

b6023e65 90 3e 3f   Note On D3 63

b6023e67 90 43 52   Note On G3 82

b6023e6e 90 2b 52   Note On G1 82
b6023f74 90 2b 00   Note On(0-Off) G1

b6023f79 90 3e 00   Note On(0-Off) D3

b6023f7b 90 43 00   Note On(0-Off) G3
b6023fad 90 46 00   Note On(0-Off) Bb3
b60247a5 90 2b 62   Note On G1 98

b60247ab 90 46 5e   Note On Bb3 94

b60247ad 90 43 60   Note On G3 96

b60247b6 90 3e 44   Note On D3 68
b602486f 90 3e 00   Note On(0-Off) D3

b602488a 90 2b 00   Note On(0-Off) G1
b602489c 90 43 00   Note On(0-Off) G3

b602489e 90 46 00   Note On(0-Off) Bb3
b6024be1 90 2b 52   Note On G1 82

b6024be5 90 46 5f   Note On Bb3 95

b6024beb 90 43 4f   Note On G3 79

b6024bee 90 3e 3f   Note On D3 63
b6024c88 90 43 00   Note On(0-Off) G3

b6024c92 90 46 00   Note On(0-Off) Bb3

b6024c94 90 2b 00   Note On(0-Off) G1

b6024ca2 90 3e 00   Note On(0-Off) D3
b6024d76 90 2b 44   Note On G1 68

b6024d77 90 3e 5e   Note On D3 94

b6024d78 90 46 67   Note On Bb3 103

b6024d79 90 43 66   Note On G3 102
b6024e07 90 43 00   Note On(0-Off) G3

b6024e11 90 3e 00   Note On(0-Off) D3
b6024e19 90 2b 00   Note On(0-Off) G1

b6024e1c 90 46 00   Note On(0-Off) Bb3
b6024f1d 90 3e 52   Note On D3 82

b6024f20 90 2b 56   Note On G1 86

b6024f21 90 43 64   Note On G3 100

b6024f22 90 46 67   Note On Bb3 103
b6024fd2 90 43 00   Note On(0-Off) G3

b6024fd8 90 3e 00   Note On(0-Off) D3

b6024fee 90 46 00   Note On(0-Off) Bb3

b6024ff4 90 2b 00   Note On(0-Off) G1
b60250f6 90 46 59   Note On Bb3 89

b60250f8 90 3e 44   Note On D3 68

b60250fc 90 2b 5b   Note On G1 91

b6025102 90 43 45   Note On G3 69
b60251af 90 43 00   Note On(0-Off) G3

b60251b3 90 46 00   Note On(0-Off) Bb3

b60251c0 90 3e 00   Note On(0-Off) D3

b60251ca 90 2b 00   Note On(0-Off) G1
b60252d6 90 45 5f   Note On A3 95

b60252de 90 29 64   Note On F1 100

b60252df 90 41 5b   Note On F3 91
b602534e 90 41 00   Note On(0-Off) F3

b602536f 90 45 00   Note On(0-Off) A3

b602537f 90 29 00   Note On(0-Off) F1
b602544e 90 46 3e   Note On Bb3 62

b6025451 90 2e 76   Note On Bb1 118
b6025491 90 48 60   Note On C4 96

b60254a3 90 46 00   Note On(0-Off) Bb3
b602551e 90 2e 00   Note On(0-Off) Bb1

b6025540 90 48 00   Note On(0-Off) C4
b60255fa 90 2e 6b   Note On Bb1 107

b602560d 90 41 5f   Note On F3 95

b602560e 90 4a 6b   Note On D4 107

b6025610 90 46 67   Note On Bb3 103
b602568c 90 46 00   Note On(0-Off) Bb3

b602569d 90 2e 00   Note On(0-Off) Bb1

b60256b2 90 41 00   Note On(0-Off) F3

b60256b4 90 4a 00   Note On(0-Off) D4
b60257a1 90 41 40   Note On F3 64

b60257a2 90 46 5e   Note On Bb3 94

b60257a3 90 4a 67   Note On D4 103

b60257a4 90 2e 69   Note On Bb1 105
b6025841 90 4a 00   Note On(0-Off) D4

b6025842 90 41 00   Note On(0-Off) F3

b6025846 90 46 00   Note On(0-Off) Bb3

b6025854 90 2e 00   Note On(0-Off) Bb1
b602598c 90 2e 70   Note On Bb1 112

b602599a 90 46 67   Note On Bb3 103

b602599b 90 4a 67   Note On D4 103

b602599d 90 41 49   Note On F3 73
b6025a45 90 41 00   Note On(0-Off) F3

b6025a4a 90 2e 00   Note On(0-Off) Bb1

b6025a55 90 46 00   Note On(0-Off) Bb3

b6025a5d 90 4a 00   Note On(0-Off) D4
b6025bb4 90 43 4d   Note On G3 77

b6025bb5 90 24 60   Note On C1 96

b6025bb8 90 4c 64   Note On E4 100

b6025bbc 90 48 5f   Note On C4 95
b6025c39 90 48 00   Note On(0-Off) C4

b6025c40 90 43 00   Note On(0-Off) G3

b6025c43 90 4c 00   Note On(0-Off) E4

b6025c6b 90 24 00   Note On(0-Off) C1
b6025d06 90 45 5e   Note On A3 94

b6025d08 90 4a 6d   Note On D4 109

b6025d09 90 26 72   Note On D1 114

b6025d0e 90 4d 6b   Note On F4 107
b6025dc7 90 45 00   Note On(0-Off) A3

b6025dce 90 4a 00   Note On(0-Off) D4

b6025dcf 90 4d 00   Note On(0-Off) F4

b6025df6 90 26 00   Note On(0-Off) D1
b6025eb5 90 26 4d   Note On D1 77

b6025eb9 90 4d 60   Note On F4 96

b6025ebe 90 4a 5e   Note On D4 94

b6025ebf 90 45 47   Note On A3 71
b6025f75 90 45 00   Note On(0-Off) A3

b6025f83 90 4a 00   Note On(0-Off) D4

b6025f8b 90 26 00   Note On(0-Off) D1

b6025f9a 90 4d 00   Note On(0-Off) F4
b6026072 90 26 69   Note On D1 105
b602607d 90 4d 69   Note On F4 105

b602607f 90 4a 69   Note On D4 105

b6026084 90 45 4b   Note On A3 75
b6026119 90 4d 00   Note On(0-Off) F4

b602611e 90 4a 00   Note On(0-Off) D4

b602612d 90 45 00   Note On(0-Off) A3

b6026140 90 26 00   Note On(0-Off) D1
b6026267 90 26 67   Note On D1 103

b602626a 90 4d 6b   Note On F4 107

b602626d 90 45 66   Note On A3 102

b6026271 90 4a 6e   Note On D4 110
b602632b 90 45 00   Note On(0-Off) A3

b6026337 90 4a 00   Note On(0-Off) D4
b6026350 90 26 00   Note On(0-Off) D1

b6026364 90 4d 00   Note On(0-Off) F4
b602645b 90 28 74   Note On E1 116

b6026465 90 4f 64   Note On G4 100

b602646e 90 4c 69   Note On E4 105
b602646f 90 47 5b   Note On B3 91

b6026471 90 48 4f   Note On C4 79
b60264e6 90 47 00   Note On(0-Off) B3

b60264e7 90 48 00   Note On(0-Off) C4

b60264f1 90 4c 00   Note On(0-Off) E4

b602650a 90 4f 00   Note On(0-Off) G4

b6026529 90 28 00   Note On(0-Off) E1
b60265ae 90 29 76   Note On F1 118

b60265b5 90 48 45   Note On C4 69

b60265b6 90 51 69   Note On A4 105

b60265b7 90 4d 6d   Note On F4 109

b60265bb 90 4a 4b   Note On D4 75
b602664a 90 48 00   Note On(0-Off) C4

b602664b 90 4a 00   Note On(0-Off) D4

b6026664 90 4d 00   Note On(0-Off) F4
b6026672 90 51 00   Note On(0-Off) A4

b6026675 90 29 00   Note On(0-Off) F1
b602675e 90 48 59   Note On C4 89

b6026764 90 51 66   Note On A4 102

b6026765 90 4d 6b   Note On F4 107

b6026766 90 29 64   Note On F1 100
b60267f0 90 4d 00   Note On(0-Off) F4
b6026814 90 51 00   Note On(0-Off) A4

b6026815 90 48 00   Note On(0-Off) C4

b6026817 90 29 00   Note On(0-Off) F1
b6026911 90 29 67   Note On F1 103

b602691b 90 51 67   Note On A4 103

b602691c 90 48 59   Note On C4 89

b602691f 90 4d 6d   Note On F4 109
b60269b7 90 29 00   Note On(0-Off) F1

b60269c9 90 4d 00   Note On(0-Off) F4

b60269cb 90 48 00   Note On(0-Off) C4

b60269d1 90 51 00   Note On(0-Off) A4
b6026af5 90 48 64   Note On C4 100

b6026af8 90 51 6b   Note On A4 107

b6026af9 90 29 70   Note On F1 112

b6026afa 90 4d 72   Note On F4 114
b6026bbc 90 29 00   Note On(0-Off) F1

b6026bca 90 51 00   Note On(0-Off) A4

b6026bd2 90 4d 00   Note On(0-Off) F4

b6026bd5 90 48 00   Note On(0-Off) C4
b6026e69 90 2b 45   Note On G1 69
b6026f76 90 2b 00   Note On(0-Off) G1
b60270b0 90 2b 04   Note On G1 4
b602717e 90 2b 00   Note On(0-Off) G1
b60272af 90 2b 40   Note On G1 64
b60273ba 90 2b 00   Note On(0-Off) G1
b6027470 90 2b 5b   Note On G1 91
b602754e 90 2b 00   Note On(0-Off) G1
b60275d0 90 29 5f   Note On F1 95
b6027685 90 29 00   Note On(0-Off) F1
b602773d 90 2e 7b   Note On Bb1 123
b6027846 90 2e 00   Note On(0-Off) Bb1
b6027917 90 2e 76   Note On Bb1 118
b6027a20 90 2e 00   Note On(0-Off) Bb1
b6027b02 90 2e 6d   Note On Bb1 109
b6027be3 90 2e 00   Note On(0-Off) Bb1
b6027cb3 90 2e 70   Note On Bb1 112
b6027dfe 90 2e 00   Note On(0-Off) Bb1
b6027e3a 90 30 67   Note On C2 103
b6027ef7 90 30 00   Note On(0-Off) C2
b6027f93 90 32 5e   Note On D2 94
b60280a4 90 32 00   Note On(0-Off) D2
b602817c 90 32 6b   Note On D2 107
b6028273 90 32 00   Note On(0-Off) D2
b6028383 90 32 64   Note On D2 100
b6028464 90 32 00   Note On(0-Off) D2
b602853d 90 32 70   Note On D2 112
b6028620 90 32 00   Note On(0-Off) D2
b60286ee 90 34 6b   Note On E2 107
b60287cb 90 34 00   Note On(0-Off) E2
b6028827 90 35 72   Note On F2 114
b6028940 90 35 00   Note On(0-Off) F2
b6028a02 90 35 5f   Note On F2 95
b6028b18 90 35 00   Note On(0-Off) F2
b6028c56 90 35 47   Note On F2 71
b6028cf7 90 35 00   Note On(0-Off) F2
b6028e01 90 35 4d   Note On F2 77
b6028eb1 90 35 00   Note On(0-Off) F2
b602935f 90 2b 4f   Note On G1 79
b6029470 90 2b 00   Note On(0-Off) G1
b6029543 90 2b 4b   Note On G1 75
b6029675 90 2b 00   Note On(0-Off) G1
b6029780 90 2b 60   Note On G1 96
b60297a3 90 4a 67   Note On D4 103
b602988b 90 2b 00   Note On(0-Off) G1

b6029891 90 4a 00   Note On(0-Off) D4
b602992e 90 2b 56   Note On G1 86

b6029946 90 4d 70   Note On F4 112
b6029a6f 90 2b 00   Note On(0-Off) G1

b6029aa0 90 4d 00   Note On(0-Off) F4
b6029b10 90 2b 52   Note On G1 82

b6029b11 90 4a 67   Note On D4 103
b6029bd5 90 2b 00   Note On(0-Off) G1
b6029be2 90 4a 00   Note On(0-Off) D4
b6029f18 90 2b 66   Note On G1 102
b602a3b8 90 4a 70   Note On D4 112
b602a4cf 90 4d 6e   Note On F4 110

b602a4ed 90 4a 00   Note On(0-Off) D4
b602a5cf 90 4a 62   Note On D4 98

b602a5df 90 4d 00   Note On(0-Off) F4
b602a7b4 90 4a 00   Note On(0-Off) D4
b602a885 90 4a 6e   Note On D4 110
b602ac7a 90 30 49   Note On C2 73

b602aca8 90 2b 00   Note On(0-Off) G1
b602adbf 90 30 00   Note On(0-Off) C2
b602ae41 90 2e 6d   Note On Bb1 109
b602b108 90 4a 00   Note On(0-Off) D4
b602b24c 90 4a 6d   Note On D4 109
b602b3a3 90 4d 67   Note On F4 103

b602b3bb 90 4a 00   Note On(0-Off) D4
b602b48c 90 4d 00   Note On(0-Off) F4
b602b4e8 90 4a 67   Note On D4 103
b602b614 90 4d 76   Note On F4 118
b602b628 90 4a 00   Note On(0-Off) D4
b602b734 90 2e 00   Note On(0-Off) Bb1
b602b776 90 26 67   Note On D1 103
b602b8a1 90 4a 6b   Note On D4 107

b602b8b0 90 4d 00   Note On(0-Off) F4
b602bd00 90 4a 00   Note On(0-Off) D4
b602bdff 90 4a 74   Note On D4 116
b602bf5b 90 48 5f   Note On C4 95

b602bf74 90 4a 00   Note On(0-Off) D4
b602c019 90 26 00   Note On(0-Off) D1

b602c02e 90 29 6e   Note On F1 110
b602c59a 90 29 00   Note On(0-Off) F1
b602c604 90 48 00   Note On(0-Off) C4
b602c69d 90 2b 6d   Note On G1 109
b602c82f 90 2b 00   Note On(0-Off) G1
b602cb7e 90 2b 3e   Note On G1 62
b602cc26 90 2b 00   Note On(0-Off) G1
b602cd63 90 2b 5f   Note On G1 95
b602ce18 90 2b 00   Note On(0-Off) G1
b602cf15 90 2b 4f   Note On G1 79
b602cfcd 90 2b 00   Note On(0-Off) G1
b602d208 90 4a 4f   Note On D4 79
b602d2f8 90 4a 00   Note On(0-Off) D4
b602d391 90 4d 72   Note On F4 114
b602d45d 90 4d 00   Note On(0-Off) F4
b602d621 90 4a 59   Note On D4 89
b602d75f 90 4a 00   Note On(0-Off) D4
b602d7e9 90 4a 64   Note On D4 100
b602da51 90 4a 00   Note On(0-Off) D4
b602dc68 90 4a 60   Note On D4 96
b602dd30 90 4a 00   Note On(0-Off) D4
b602e0a5 90 3e 67   Note On D3 103
b602e196 90 3e 00   Note On(0-Off) D3
b602e1f4 90 3f 79   Note On Eb3 121
b602e293 90 3f 00   Note On(0-Off) Eb3
b602e312 90 3e 69   Note On D3 105
b602e3d0 90 3e 00   Note On(0-Off) D3
b602e564 90 3e 69   Note On D3 105
b602e630 90 3e 00   Note On(0-Off) D3
b602e68d 90 41 6b   Note On F3 107
b602e782 90 41 00   Note On(0-Off) F3

b602e7ab 90 3e 67   Note On D3 103
b602e852 90 3e 00   Note On(0-Off) D3
b602e8e1 90 41 6d   Note On F3 109
b602eaeb 90 41 00   Note On(0-Off) F3
b602eb10 90 3e 67   Note On D3 103
b602ec42 90 3e 00   Note On(0-Off) D3
b602ee09 90 3e 6b   Note On D3 107
b602ef09 90 3e 00   Note On(0-Off) D3

b602ef2b 90 41 60   Note On F3 96
b602f136 90 3e 64   Note On D3 100
b602f152 90 41 00   Note On(0-Off) F3
b602f29b 90 3e 00   Note On(0-Off) D3
b602f4b3 90 3e 6d   Note On D3 109
b602f612 90 3e 00   Note On(0-Off) D3
b604572e 90 47 3e   Note On B3 62

b604573a 90 48 3e   Note On C4 62
b6045991 90 39 59   Note On A2 89

b6045994 90 37 4d   Note On G2 77
b6045a7c 90 48 00   Note On(0-Off) C4
b6045a93 90 47 00   Note On(0-Off) B3
b6045af7 90 48 3f   Note On C4 63

b6045afd 90 47 42   Note On B3 66
b6045c0c 90 29 3d   Note On F1 61

b6045c14 90 2b 3f   Note On G1 63
b6045d42 90 39 00   Note On(0-Off) A2

b6045d4c 90 37 00   Note On(0-Off) G2
b6045dba 90 37 3f   Note On G2 63

b6045dbc 90 39 42   Note On A2 66
b6045ee2 90 47 00   Note On(0-Off) B3

b6045ee4 90 48 00   Note On(0-Off) C4
b6046083 90 2b 00   Note On(0-Off) G1

b60460b0 90 29 00   Note On(0-Off) F1
b6046160 90 2b 2c   Note On G1 44

b6046161 90 29 2f   Note On F1 47
b60462a1 90 39 00   Note On(0-Off) A2

b60462a2 90 37 00   Note On(0-Off) G2
b604663e 90 2b 00   Note On(0-Off) G1

b6046645 90 29 00   Note On(0-Off) F1
b60665af 90 27 5f   Note On Eb1 95
b60665f2 90 28 1f   Note On E1 31
b6066e88 90 28 00   Note On(0-Off) E1
b606702b 90 28 12   Note On E1 18
b6067055 90 29 13   Note On F1 19
b6067163 90 29 00   Note On(0-Off) F1
b606719e 90 28 00   Note On(0-Off) E1
b606797f 90 36 3d   Note On F#2 61
b6067d51 90 28 01   Note On E1 1
b606804e 90 29 01   Note On F1 1
b6068318 90 29 00   Note On(0-Off) F1
b6068324 90 28 00   Note On(0-Off) E1

b6068374 90 27 00   Note On(0-Off) Eb1
b606858b 90 36 00   Note On(0-Off) F#2
b606870d 90 33 28   Note On Eb2 40
b60693fe 90 33 00   Note On(0-Off) Eb2
b66dd71d 90 30 5f   Note On C2 95
b66dd95c 90 30 00   Note On(0-Off) C2
b66de373 90 40 70   Note On E3 112
b66de73d 90 48 47   Note On C4 71
b66de81b 90 48 00   Note On(0-Off) C4
b66de897 90 48 56   Note On C4 86

b66de89a 90 4c 6b   Note On E4 107
b66de9c2 90 48 00   Note On(0-Off) C4

b66de9c3 90 4c 00   Note On(0-Off) E4

b66de9fb 90 4d 6e   Note On F4 110
b66dea00 90 4a 45   Note On D4 69
b66deb34 90 4a 00   Note On(0-Off) D4

b66deb6b 90 4d 00   Note On(0-Off) F4
b66dec21 90 48 52   Note On C4 82

b66dec22 90 4c 62   Note On E4 98
b66defb1 90 48 00   Note On(0-Off) C4
b66df0bc 90 48 59   Note On C4 89

b66df0c2 90 4c 00   Note On(0-Off) E4
b66df19b 90 48 00   Note On(0-Off) C4
b66df1e8 90 40 00   Note On(0-Off) E3
b66df262 90 40 5e   Note On E3 94

b66df277 90 4a 66   Note On D4 102

b66df27d 90 47 66   Note On B3 102
b66df36a 90 47 00   Note On(0-Off) B3
b66df376 90 4a 00   Note On(0-Off) D4
b66df404 90 4c 66   Note On E4 102

b66df404 90 48 67   Note On C4 103
b66df4ca 90 48 00   Note On(0-Off) C4

b66df4cb 90 4c 00   Note On(0-Off) E4
b66df578 90 4a 62   Note On D4 98

b66df57e 90 47 42   Note On B3 66
b66df92c 90 47 00   Note On(0-Off) B3
b66df98e 90 4a 00   Note On(0-Off) D4
b66df9da 90 47 66   Note On B3 102
b66dfac1 90 47 00   Note On(0-Off) B3
b66dfb6f 90 45 59   Note On A3 89

b66dfb70 90 48 5f   Note On C4 95
b66dfc89 90 45 00   Note On(0-Off) A3

b66dfca7 90 48 00   Note On(0-Off) C4
b66dfd06 90 4a 6b   Note On D4 107

b66dfd09 90 45 59   Note On A3 89
b66dfdd5 90 45 00   Note On(0-Off) A3

b66dfdda 90 4a 00   Note On(0-Off) D4
b66dfe67 90 48 3f   Note On C4 63

b66dfe71 90 45 44   Note On A3 68
b66e0141 90 40 00   Note On(0-Off) E3
b66e029d 90 45 00   Note On(0-Off) A3

b66e02bc 90 48 00   Note On(0-Off) C4
b66e2d02 90 4c 6b   Note On E4 107

b66e2d05 90 48 64   Note On C4 100
b66e2d83 90 3c 7f   Note On C3 127
b66e2e36 90 4c 00   Note On(0-Off) E4

b66e2e3a 90 48 00   Note On(0-Off) C4
b66e2e90 90 4d 67   Note On F4 103

b66e2e9e 90 48 3c   Note On C4 60
b66e2f68 90 48 00   Note On(0-Off) C4

b66e2f7d 90 4d 00   Note On(0-Off) F4
b66e2fef 90 48 5f   Note On C4 95

b66e2ff2 90 4c 64   Note On E4 100
b66e3337 90 48 00   Note On(0-Off) C4
b66e33ed 90 4c 00   Note On(0-Off) E4

b66e3402 90 3c 00   Note On(0-Off) C3

b66e341f 90 3b 72   Note On B2 114
b66e342c 90 47 64   Note On B3 100

b66e342f 90 4a 69   Note On D4 105
b66e3533 90 47 00   Note On(0-Off) B3

b66e3538 90 4a 00   Note On(0-Off) D4
b66e35a6 90 4c 5e   Note On E4 94

b66e35ae 90 47 4f   Note On B3 79
b66e365e 90 47 00   Note On(0-Off) B3

b66e3681 90 4c 00   Note On(0-Off) E4
b66e36fd 90 47 52   Note On B3 82

b66e36fe 90 4a 5b   Note On D4 91
b66e3aa2 90 4a 00   Note On(0-Off) D4

b66e3ab9 90 47 00   Note On(0-Off) B3
b66e3b47 90 39 60   Note On A2 96

b66e3b4b 90 3b 00   Note On(0-Off) B2
b66e3b50 90 48 64   Note On C4 100

b66e3b53 90 45 60   Note On A3 96
b66e3c5b 90 45 00   Note On(0-Off) A3

b66e3c5d 90 48 00   Note On(0-Off) C4
b66e3cb2 90 4a 5f   Note On D4 95

b66e3cbf 90 45 40   Note On A3 64
b66e3d8b 90 45 00   Note On(0-Off) A3

b66e3d9f 90 4a 00   Note On(0-Off) D4
b66e3e0f 90 48 5b   Note On C4 91
b66e3e12 90 45 56   Note On A3 86
b66e4163 90 39 00   Note On(0-Off) A2
b66e41ae 90 48 00   Note On(0-Off) C4

b66e41b4 90 45 00   Note On(0-Off) A3
b66e9189 90 3c 7f   Note On C3 127
b66e9555 90 48 4b   Note On C4 75
b66e962e 90 48 00   Note On(0-Off) C4

b66e96ec 90 48 67   Note On C4 103

b66e96ec 90 4c 62   Note On E4 98
b66e97e6 90 48 00   Note On(0-Off) C4

b66e97e8 90 4c 00   Note On(0-Off) E4
b66e981c 90 4d 67   Note On F4 103

b66e981d 90 48 52   Note On C4 82
b66e98e3 90 48 00   Note On(0-Off) C4
b66e98f3 90 4d 00   Note On(0-Off) F4
b66e9965 90 48 60   Note On C4 96

b66e996a 90 4c 67   Note On E4 103
b66e9c74 90 48 00   Note On(0-Off) C4
b66e9d97 90 4c 00   Note On(0-Off) E4
b66e9e6c 90 3c 00   Note On(0-Off) C3
a6738871 90 39 5e   Note On A2 94
a6738b70 90 39 00   Note On(0-Off) A2
a6738d8d 90 3e 5b   Note On D3 91
a673909b 90 3e 00   Note On(0-Off) D3
a673bf2c 90 40 47   Note On E3 71
a673c09d 90 43 4d   Note On G3 77
a673c1e6 90 45 64   Note On A3 100
a673c2ef 90 47 5f   Note On B3 95
a673c455 90 48 1f   Note On C4 31
a673c49e 90 48 00   Note On(0-Off) C4
a673c4f8 90 47 00   Note On(0-Off) B3

a673c508 90 48 42   Note On C4 66

a673c541 90 45 00   Note On(0-Off) A3
a673c70a 90 48 00   Note On(0-Off) C4

a673c717 90 47 5b   Note On B3 91
a673c874 90 43 00   Note On(0-Off) G3
a673c88e 90 45 5b   Note On A3 91

a673c8cd 90 47 00   Note On(0-Off) B3
a673c9c7 90 43 47   Note On G3 71
a673ca34 90 45 00   Note On(0-Off) A3
a673cabd 90 40 00   Note On(0-Off) E3
a673cc21 90 40 59   Note On E3 89

a673cc2c 90 43 00   Note On(0-Off) G3
a673cf92 90 40 00   Note On(0-Off) E3
a673d072 90 40 66   Note On E3 102
a673d1b7 90 43 3a   Note On G3 58
a673d2de 90 45 62   Note On A3 98
a673d3de 90 47 52   Note On B3 82
a673d502 90 48 25   Note On C4 37
a673d5d4 90 47 00   Note On(0-Off) B3
a673d5e5 90 45 00   Note On(0-Off) A3
a673d6cf 90 48 3a   Note On C4 58

a673d708 90 43 00   Note On(0-Off) G3
a673d7e8 90 48 00   Note On(0-Off) C4
a673d9c2 90 47 1f   Note On B3 31
a673db23 90 45 67   Note On A3 103

a673db43 90 47 00   Note On(0-Off) B3
a673dcf9 90 43 6b   Note On G3 107
a673dd20 90 45 00   Note On(0-Off) A3

a673dd59 90 40 00   Note On(0-Off) E3
a673de13 90 43 00   Note On(0-Off) G3
a673e011 90 41 60   Note On F3 96

a673e019 90 45 6b   Note On A3 107

a673e01b 90 4a 6b   Note On D4 107
a673e572 90 4a 00   Note On(0-Off) D4

a673e58f 90 45 00   Note On(0-Off) A3

a673e5b3 90 41 00   Note On(0-Off) F3
a673e672 90 45 66   Note On A3 102

a673e675 90 41 52   Note On F3 82

a673e677 90 4a 66   Note On D4 102
a673e794 90 48 40   Note On C4 64

a673e7a4 90 4a 00   Note On(0-Off) D4
a673e824 90 45 00   Note On(0-Off) A3
a673e912 90 47 0d   Note On B3 13
a673e967 90 48 00   Note On(0-Off) C4
a673e9ff 90 41 00   Note On(0-Off) F3
a673ea73 90 47 00   Note On(0-Off) B3
a673eaf3 90 4a 70   Note On D4 112

a673eaf6 90 43 4b   Note On G3 75

a673eaf7 90 47 69   Note On B3 105
a673ef9e 90 4a 00   Note On(0-Off) D4

a673efe4 90 43 00   Note On(0-Off) G3

a673efe9 90 47 00   Note On(0-Off) B3
a673f08d 90 4a 5f   Note On D4 95

a673f090 90 43 4b   Note On G3 75

a673f093 90 47 5f   Note On B3 95
a673f204 90 47 00   Note On(0-Off) B3

a673f21a 90 48 12   Note On C4 18

a673f248 90 4a 00   Note On(0-Off) D4
a673f381 90 47 60   Note On B3 96
a673f3d4 90 48 00   Note On(0-Off) C4
a673f4e8 90 43 00   Note On(0-Off) G3

a673f509 90 47 00   Note On(0-Off) B3
a673f745 90 43 52   Note On G3 82

a673f746 90 4d 72   Note On F4 114

a673f74a 90 48 64   Note On C4 100
a673f9f5 90 43 00   Note On(0-Off) G3

a673fa0f 90 48 00   Note On(0-Off) C4

a673fa18 90 4d 00   Note On(0-Off) F4
a673fadd 90 43 3d   Note On G3 61

a673fadf 90 48 5e   Note On C4 94

a673fae2 90 4c 6e   Note On E4 110
a673fd1b 90 4c 00   Note On(0-Off) E4

a673fd34 90 48 00   Note On(0-Off) C4

a673fd5b 90 43 00   Note On(0-Off) G3
a673fec9 90 47 5e   Note On B3 94

a673fece 90 43 52   Note On G3 82

a673fed4 90 4a 64   Note On D4 100
a6740198 90 47 00   Note On(0-Off) B3

a674019f 90 43 00   Note On(0-Off) G3
a6740244 90 4a 00   Note On(0-Off) D4
a67402f9 90 43 3f   Note On G3 63

a6740300 90 48 62   Note On C4 98

a6740301 90 4c 6d   Note On E4 109
a67403ab 90 43 00   Note On(0-Off) G3
a67403d9 90 4c 00   Note On(0-Off) E4

a67403f9 90 48 00   Note On(0-Off) C4
a6740508 90 47 5e   Note On B3 94

a674050a 90 43 45   Note On G3 69

a674050e 90 4a 6b   Note On D4 107
a6740603 90 4a 00   Note On(0-Off) D4

a6740614 90 47 00   Note On(0-Off) B3
a674062f 90 43 00   Note On(0-Off) G3
a67408d1 90 41 52   Note On F3 82

a67408d5 90 45 60   Note On A3 96
a67408e6 90 48 47   Note On C4 71
a6740e7a 90 45 00   Note On(0-Off) A3

a6740e85 90 48 00   Note On(0-Off) C4

a6740e8b 90 41 00   Note On(0-Off) F3
a6740efe 90 48 40   Note On C4 64

a6740f03 90 45 40   Note On A3 64

a6740f0b 90 41 3d   Note On F3 61
a6740f7e 90 45 00   Note On(0-Off) A3

a6740f82 90 48 00   Note On(0-Off) C4
a6740f9e 90 41 00   Note On(0-Off) F3

a6740fdf 90 45 47   Note On A3 71

a6740fe2 90 48 47   Note On C4 71

a6740fe6 90 41 2b   Note On F3 43
a6741052 90 45 00   Note On(0-Off) A3
a6741063 90 41 00   Note On(0-Off) F3

a6741067 90 48 00   Note On(0-Off) C4
a67410cd 90 48 60   Note On C4 96

a67410cf 90 45 64   Note On A3 100

a67410d3 90 41 56   Note On F3 86
a67411bb 90 45 00   Note On(0-Off) A3

a67411be 90 41 00   Note On(0-Off) F3
a6741220 90 48 00   Note On(0-Off) C4
a67412b5 90 4a 5e   Note On D4 94
a67412c7 90 45 4d   Note On A3 77

a67412c9 90 41 4d   Note On F3 77
a6741379 90 45 00   Note On(0-Off) A3

a674137f 90 41 00   Note On(0-Off) F3

a674138c 90 4a 00   Note On(0-Off) D4
a674147b 90 41 34   Note On F3 52

a674147f 90 45 47   Note On A3 71

a6741487 90 4c 2f   Note On E4 47
a6741539 90 4c 00   Note On(0-Off) E4

a674154e 90 45 00   Note On(0-Off) A3

a6741554 90 41 00   Note On(0-Off) F3
a6741802 90 40 3c   Note On E3 60

a6741804 90 43 3e   Note On G3 62

a6741805 90 4a 66   Note On D4 102
a6741bd1 90 4a 00   Note On(0-Off) D4

a6741be5 90 43 00   Note On(0-Off) G3
a6741bfb 90 40 00   Note On(0-Off) E3
a6741c81 90 43 60   Note On G3 96

a6741c82 90 48 64   Note On C4 100

a6741c87 90 40 59   Note On E3 89
a6741f80 90 40 00   Note On(0-Off) E3

a6741f85 90 43 00   Note On(0-Off) G3
a6741fb4 90 48 00   Note On(0-Off) C4
a6741ff8 90 40 3e   Note On E3 62

a6742003 90 43 5e   Note On G3 94

a674200b 90 47 6d   Note On B3 109
a6742242 90 47 00   Note On(0-Off) B3
a674226b 90 43 00   Note On(0-Off) G3

a6742285 90 40 00   Note On(0-Off) E3
a6742342 90 40 59   Note On E3 89

a674234a 90 43 67   Note On G3 103

a6742351 90 48 60   Note On C4 96
a6742482 90 43 00   Note On(0-Off) G3
a67424c2 90 40 00   Note On(0-Off) E3

a67424e8 90 48 00   Note On(0-Off) C4
a67426e9 90 41 56   Note On F3 86

a67426ec 90 45 6d   Note On A3 109

a67426ed 90 3e 44   Note On D3 68

a67426f1 90 4a 64   Note On D4 100
a6742ce5 90 4a 00   Note On(0-Off) D4
a6742d15 90 45 00   Note On(0-Off) A3

a6742d28 90 41 00   Note On(0-Off) F3

a6742d4e 90 3e 00   Note On(0-Off) D3
a6742dfc 90 45 56   Note On A3 86

a6742e06 90 41 56   Note On F3 86

a6742e09 90 3e 59   Note On D3 89
a67433e0 90 45 00   Note On(0-Off) A3

a67433ec 90 3e 00   Note On(0-Off) D3

a67433ef 90 41 00   Note On(0-Off) F3
a67434e2 90 3e 3e   Note On D3 62

a67434e6 90 45 6b   Note On A3 107

a67434e8 90 41 52   Note On F3 82
a6743579 90 3e 00   Note On(0-Off) D3

a6743584 90 41 00   Note On(0-Off) F3

a6743594 90 45 00   Note On(0-Off) A3
a67437b8 90 40 47   Note On E3 71

a67437ba 90 43 5b   Note On G3 91

a67437da 90 48 13   Note On C4 19
a6743ac6 90 48 00   Note On(0-Off) C4
a6743aed 90 40 00   Note On(0-Off) E3

a6743afb 90 43 00   Note On(0-Off) G3
a6743b95 90 43 3e   Note On G3 62

a6743b98 90 47 3c   Note On B3 60

a6743ba4 90 40 47   Note On E3 71
a6743f46 90 43 00   Note On(0-Off) G3

a6743f59 90 40 00   Note On(0-Off) E3

a6743f62 90 47 00   Note On(0-Off) B3
c5b3270e 90 43 79   Note On G3 121
c5b32a55 90 43 00   Note On(0-Off) G3
c5b32aee 90 43 74   Note On G3 116
c5b32b89 90 43 00   Note On(0-Off) G3
c5b32d34 90 42 76   Note On F#3 118
c5b32f87 90 42 00   Note On(0-Off) F#3
c5b33013 90 42 76   Note On F#3 118
c5b33287 90 42 00   Note On(0-Off) F#3
c5b332e5 90 40 6d   Note On E3 109
c5b3351c 90 40 00   Note On(0-Off) E3
c5b33587 90 42 7b   Note On F#3 123
c5b33863 90 42 00   Note On(0-Off) F#3
c5b33a46 90 42 74   Note On F#3 116
c5b33bd3 90 42 00   Note On(0-Off) F#3
c5b33d02 90 43 72   Note On G3 114
c5b33f64 90 43 00   Note On(0-Off) G3
c5b34048 90 44 64   Note On Ab3 100
c5b3423d 90 44 00   Note On(0-Off) Ab3
c5b34311 90 45 72   Note On A3 114
c5b34743 90 45 00   Note On(0-Off) A3
c5b34853 90 44 79   Note On Ab3 121
c5b34b59 90 44 00   Note On(0-Off) Ab3
c5b34dd7 90 42 7b   Note On F#3 123
c5b3501a 90 42 00   Note On(0-Off) F#3
c5b35094 90 41 6e   Note On F3 110
c5b35314 90 41 00   Note On(0-Off) F3
c5b35411 90 42 6d   Note On F#3 109
c5b355b2 90 42 00   Note On(0-Off) F#3
c5b356e0 90 41 6b   Note On F3 107
c5b35953 90 41 00   Note On(0-Off) F3
c5b35a91 90 3f 6e   Note On Eb3 110
c5b35de6 90 3f 00   Note On(0-Off) Eb3
c5b35e84 90 3d 6d   Note On C#3 109
c5b35f95 90 3d 00   Note On(0-Off) C#3
c5b36035 90 3d 6b   Note On C#3 107
c5b361d9 90 3d 00   Note On(0-Off) C#3
c5b364ff 90 3b 76   Note On B2 118
c5b36dd8 90 3b 00   Note On(0-Off) B2
c5b373cc 90 44 79   Note On Ab3 121
c5b375e7 90 44 00   Note On(0-Off) Ab3
c5b37640 90 42 66   Note On F#3 102
c5b37708 90 42 00   Note On(0-Off) F#3
c5b3776b 90 42 67   Note On F#3 103
c5b37987 90 42 00   Note On(0-Off) F#3
c5b37a3a 90 40 6b   Note On E3 107
c5b37c9f 90 40 00   Note On(0-Off) E3
c5b37d01 90 3e 72   Note On D3 114
c5b37f2d 90 3e 00   Note On(0-Off) D3
c5b37f9c 90 40 64   Note On E3 100
c5b383cc 90 40 00   Note On(0-Off) E3
c5b384ef 90 3f 76   Note On Eb3 118
c5b3870d 90 3f 00   Note On(0-Off) Eb3
c5b387c2 90 40 64   Note On E3 100
c5b38bfa 90 40 00   Note On(0-Off) E3
c5b38cc3 90 42 76   Note On F#3 118
c5b38eb6 90 42 00   Note On(0-Off) F#3
c5b38f66 90 44 72   Note On Ab3 114
c5b392cf 90 44 00   Note On(0-Off) Ab3
c5b393af 90 45 69   Note On A3 105
c5b39473 90 45 00   Note On(0-Off) A3

c5b394b0 90 44 74   Note On Ab3 116
c5b3951f 90 43 6b   Note On G3 107

c5b39533 90 44 00   Note On(0-Off) Ab3
c5b39548 90 43 00   Note On(0-Off) G3
c5b395d5 90 42 76   Note On F#3 118
c5b3990d 90 42 00   Note On(0-Off) F#3
c5b399ab 90 40 70   Note On E3 112
c5b39c78 90 40 00   Note On(0-Off) E3
c5b39cc7 90 40 6b   Note On E3 107
c5b39df1 90 40 00   Note On(0-Off) E3
c5b39e7f 90 40 64   Note On E3 100
c5b3a05b 90 40 00   Note On(0-Off) E3
c5b3a0ee 90 3f 6e   Note On Eb3 110
c5b3a314 90 3f 00   Note On(0-Off) Eb3
c5b3a3a0 90 40 64   Note On E3 100
c5b3a7c3 90 40 00   Note On(0-Off) E3
c5b3a871 90 3d 74   Note On C#3 116
c5b3a963 90 3d 00   Note On(0-Off) C#3
c5b3aa79 90 40 6b   Note On E3 107
c5b3abd4 90 40 00   Note On(0-Off) E3
c5b3ac41 90 3b 7b   Note On B2 123
c5b3b5bb 90 3b 00   Note On(0-Off) B2
c5b3b632 90 3b 6b   Note On B2 107
c5b3b733 90 3d 67   Note On C#3 103
c5b3b76f 90 3b 00   Note On(0-Off) B2
c5b3b842 90 3f 76   Note On Eb3 118

c5b3b862 90 3d 00   Note On(0-Off) C#3
c5b3b944 90 3f 00   Note On(0-Off) Eb3

c5b3b959 90 40 67   Note On E3 103
c5b3ba79 90 42 72   Note On F#3 114

c5b3bab7 90 40 00   Note On(0-Off) E3
c5b3bb8b 90 44 6d   Note On Ab3 109
c5b3bbc6 90 42 00   Note On(0-Off) F#3
c5b3bcb8 90 45 70   Note On A3 112
c5b3bcdb 90 44 00   Note On(0-Off) Ab3
c5b3be11 90 45 00   Note On(0-Off) A3
c5b3bebd 90 45 6b   Note On A3 107
c5b3c0e0 90 45 00   Note On(0-Off) A3

c5b3c115 90 44 74   Note On Ab3 116
c5b3c300 90 44 00   Note On(0-Off) Ab3

c5b3c30f 90 42 76   Note On F#3 118
c5b3c58d 90 3e 3e   Note On D3 62

c5b3c591 90 40 31   Note On E3 49

c5b3c5ac 90 3e 00   Note On(0-Off) D3

c5b3c5ae 90 40 00   Note On(0-Off) E3
c5b3c63c 90 40 69   Note On E3 105

c5b3c647 90 42 00   Note On(0-Off) F#3
c5b3c8ed 90 42 74   Note On F#3 116
c5b3c910 90 40 00   Note On(0-Off) E3
c5b3ceac 90 42 00   Note On(0-Off) F#3
c5b3cf5c 90 3b 6e   Note On B2 110
c5b3d138 90 3b 00   Note On(0-Off) B2
c5b3d1e5 90 44 7b   Note On Ab3 123
c5b3d36d 90 44 00   Note On(0-Off) Ab3
c5b3d3db 90 45 6e   Note On A3 110
c5b3d644 90 45 00   Note On(0-Off) A3
c5b3d692 90 44 6b   Note On Ab3 107
c5b3d888 90 42 72   Note On F#3 114

c5b3d895 90 44 00   Note On(0-Off) Ab3
c5b3d972 90 42 00   Note On(0-Off) F#3
c5b3d9be 90 40 6d   Note On E3 109
c5b3dc43 90 40 00   Note On(0-Off) E3
c5b3dcd4 90 42 6b   Note On F#3 107
c5b3e020 90 42 00   Note On(0-Off) F#3

c5b3e037 90 44 6b   Note On Ab3 107
c5b3e369 90 44 00   Note On(0-Off) Ab3
c5b3e39a 90 45 59   Note On A3 89

c5b3e39e 90 47 6b   Note On B3 107
c5b3e4ba 90 47 00   Note On(0-Off) B3

c5b3e4d5 90 45 00   Note On(0-Off) A3

c5b3e4ef 90 44 70   Note On Ab3 112
c5b3e8fe 90 44 00   Note On(0-Off) Ab3
c5b3e91c 90 42 6d   Note On F#3 109
c5b3ec3d 90 40 66   Note On E3 102

c5b3ec47 90 42 00   Note On(0-Off) F#3
c5b3ed99 90 3f 6d   Note On Eb3 109
c5b3edd1 90 40 00   Note On(0-Off) E3
c5b3efe3 90 3f 00   Note On(0-Off) Eb3

c5b3eff8 90 40 67   Note On E3 103
c5b3f561 90 3f 6b   Note On Eb3 107

c5b3f5a2 90 40 00   Note On(0-Off) E3
c5b3f739 90 3f 00   Note On(0-Off) Eb3

c5b3f757 90 3d 76   Note On C#3 118
c5b3fe75 90 3d 00   Note On(0-Off) C#3
c5b3ff80 90 3f 74   Note On Eb3 116
c5b40039 90 3d 64   Note On C#3 100

c5b4003a 90 3f 00   Note On(0-Off) Eb3
c5b4010f 90 3d 00   Note On(0-Off) C#3
c5b40114 90 3b 76   Note On B2 118
c5b4087a 90 3b 00   Note On(0-Off) B2
c5b40a2a 90 40 7b   Note On E3 123
c5b41170 90 40 00   Note On(0-Off) E3
c5b412e7 90 42 76   Note On F#3 118
c5b41a35 90 42 00   Note On(0-Off) F#3
c5b41ac1 90 3b 7e   Note On B2 126
c5b41d3a 90 3b 00   Note On(0-Off) B2
c5b41d84 90 44 76   Note On Ab3 118
c5b41ed3 90 44 00   Note On(0-Off) Ab3
c5b41f10 90 45 3d   Note On A3 61

c5b41f1a 90 47 52   Note On B3 82

c5b41f32 90 47 00   Note On(0-Off) B3
c5b421ba 90 45 00   Note On(0-Off) A3
c5b4220d 90 44 7d   Note On Ab3 125
c5b4222c 90 45 66   Note On A3 102
c5b4229d 90 45 00   Note On(0-Off) A3

c5b422eb 90 44 00   Note On(0-Off) Ab3
c5b42322 90 44 3c   Note On Ab3 60

c5b42324 90 43 42   Note On G3 66
c5b423a5 90 43 00   Note On(0-Off) G3

c5b423ad 90 44 00   Note On(0-Off) Ab3
c5b4246b 90 42 72   Note On F#3 114
c5b4257e 90 42 00   Note On(0-Off) F#3
c5b425b4 90 40 6e   Note On E3 110
c5b427b5 90 40 00   Note On(0-Off) E3

c5b427fe 90 42 64   Note On F#3 100
c5b42859 90 42 00   Note On(0-Off) F#3
c5b42882 90 42 5f   Note On F#3 95
c5b42b87 90 44 69   Note On Ab3 105

c5b42b8a 90 42 00   Note On(0-Off) F#3
c5b42dc1 90 44 00   Note On(0-Off) Ab3

c5b42dda 90 45 69   Note On A3 105
c5b4301a 90 45 00   Note On(0-Off) A3

c5b43033 90 44 74   Note On Ab3 116
c5b4351a 90 42 69   Note On F#3 105

c5b43527 90 44 00   Note On(0-Off) Ab3
c5b4389d 90 40 67   Note On E3 103

c5b438a8 90 42 00   Note On(0-Off) F#3
c5b43a5e 90 3f 70   Note On Eb3 112
c5b43a96 90 40 00   Note On(0-Off) E3
c5b43c75 90 40 64   Note On E3 100

c5b43c7b 90 3f 00   Note On(0-Off) Eb3
c5b441da 90 3f 62   Note On Eb3 98
c5b4422f 90 40 00   Note On(0-Off) E3
c5b442c7 90 3f 00   Note On(0-Off) Eb3
c5b4434e 90 3f 67   Note On Eb3 103
c5b4455a 90 3f 00   Note On(0-Off) Eb3

c5b44567 90 40 6e   Note On E3 110
c5b44a39 90 42 76   Note On F#3 118
c5b44a69 90 40 00   Note On(0-Off) E3
c5b44ce3 90 44 7b   Note On Ab3 123

c5b44ce6 90 42 00   Note On(0-Off) F#3
c5b451db 90 42 7e   Note On F#3 126

c5b451e1 90 44 00   Note On(0-Off) Ab3
c5b45564 90 42 00   Note On(0-Off) F#3

c5b4556d 90 44 76   Note On Ab3 118
c5b45633 90 42 70   Note On F#3 112

c5b45653 90 44 00   Note On(0-Off) Ab3
c5b45722 90 42 00   Note On(0-Off) F#3

c5b4573a 90 40 72   Note On E3 114
c5b4653a 90 40 00   Note On(0-Off) E3
